<?xml version="1.0" encoding="UTF-8"?>
<svg xmlns="http://www.w3.org/2000/svg" xmlns:xlink="http://www.w3.org/1999/xlink" version="1.2" >
<font id="ShellBookItalic">
<font-face  font-family="ShellBookItalic" units-per-em="1000" ascent="1050" descent="-300" font-style="normal" font-weight="400" font-stretch="normal" slope="-7" cap-height="754" x-height="457" underline-position="-73" underline-thickness="78" />
<missing-glyph  horiz-adv-x="283" d="" />
<glyph glyph-name="space" unicode="&#x20;" horiz-adv-x="283" d="" />
<glyph glyph-name="A" unicode="A" horiz-adv-x="697" d="M2 0 L421 799 L654 0 L568 0 L510 210 L203 210 L94 0 L2 0 Z M401 596 L243 287 L486 287 L401 596 Z " />
<glyph glyph-name="Aacute" unicode="&#xc1;" horiz-adv-x="697" d="M376 845 L505 996 L572 951 L419 817 L376 845 Z M2 0 L421 799 L654 0 L568 0 L510 210 L203 210 L94 0 L2 0 Z M401 596 L243 287 L486 287 L401 596 Z " />
<glyph glyph-name="Abreve" unicode="&#x102;" horiz-adv-x="697" d="M365 974 Q365 933 381.5 913 Q398 893 432 893 Q466 893 492 914.5 Q518 936 532 974 L593 974 Q576 907 531 868 Q486 829 427 829 Q370 829 337 864 Q304 899 304 958 L304 974 L365 974 Z M2 0 L421 799 L654 0 L568 0 L510 210 L203 210 L94 0 L2 0 Z M401 596 L243 287 L486 287 L401 596 Z " />
<glyph glyph-name="Acircumflex" unicode="&#xc2;" horiz-adv-x="697" d="M269 859 L449 997 L575 859 L529 818 L437 914 L312 817 L269 859 Z M2 0 L421 799 L654 0 L568 0 L510 210 L203 210 L94 0 L2 0 Z M401 596 L243 287 L486 287 L401 596 Z " />
<glyph glyph-name="Adieresis" unicode="&#xc4;" horiz-adv-x="697" d="M341 950 Q362 950 376.5 935.5 Q391 921 391 899 Q391 877 375 860.5 Q359 844 338 844 Q317 844 302 859.5 Q287 875 287 896 Q287 919 302.5 934.5 Q318 950 341 950 Z M531 950 Q552 950 566.5 935.5 Q581 921 581 899 Q581 877 565 860.5 Q549 844 528 844 Q507 844 492 859.5 Q477 875 477 896 Q477 919 492.5 934.5 Q508 950 531 950 Z M2 0 L421 799 L654 0 L568 0 L510 210 L203 210 L94 0 L2 0 Z M401 596 L243 287 L486 287 L401 596 Z " />
<glyph glyph-name="Agrave" unicode="&#xc0;" horiz-adv-x="697" d="M472 842 L424 817 L322 956 L392 996 L472 842 Z M2 0 L421 799 L654 0 L568 0 L510 210 L203 210 L94 0 L2 0 Z M401 596 L243 287 L486 287 L401 596 Z " />
<glyph glyph-name="Amacron" unicode="&#x100;" horiz-adv-x="697" d="M589 864 L270 864 L278 927 L597 927 L589 864 Z M2 0 L421 799 L654 0 L568 0 L510 210 L203 210 L94 0 L2 0 Z M401 596 L243 287 L486 287 L401 596 Z " />
<glyph glyph-name="Aogonek" unicode="&#x104;" horiz-adv-x="697" d="M654 0 Q608 -38 590.5 -54 Q573 -70 566.5 -80.5 Q560 -91 560 -105 Q560 -123 572 -134 Q584 -145 603 -145 Q623 -145 658 -131 L644 -201 Q624 -208 612.5 -210 Q601 -212 588 -212 Q545 -212 516 -187 Q487 -162 487 -127 Q487 -93 513 -62.5 Q539 -32 594 0 L568 0 L510 210 L203 210 L94 0 L2 0 L421 799 L654 0 Z M401 596 L243 287 L486 287 L401 596 Z " />
<glyph glyph-name="Aring" unicode="&#xc5;" horiz-adv-x="697" d="M426 1012 Q469 1012 498 983 Q527 954 527 912 Q527 871 497 841 Q467 811 426 811 Q385 811 355 841 Q325 871 325 912 Q325 953 355 982.5 Q385 1012 426 1012 Z M426 957 Q407 957 394 944 Q381 931 381 912 Q381 893 394 880 Q407 867 426 867 Q445 867 458 880.5 Q471 894 471 913 Q471 932 458 944.5 Q445 957 426 957 Z M2 0 L421 799 L654 0 L568 0 L510 210 L203 210 L94 0 L2 0 Z M401 596 L243 287 L486 287 L401 596 Z " />
<glyph glyph-name="Aringacute" unicode="&#x1fa;" horiz-adv-x="697" d="M263 989 L392 1139 L459 1095 L306 960 L263 989 Z M426 1012 Q469 1012 498 983 Q527 954 527 912 Q527 871 497 841 Q467 811 426 811 Q385 811 355 841 Q325 871 325 912 Q325 953 355 982.5 Q385 1012 426 1012 Z M426 957 Q407 957 394 944 Q381 931 381 912 Q381 893 394 880 Q407 867 426 867 Q445 867 458 880.5 Q471 894 471 913 Q471 932 458 944.5 Q445 957 426 957 Z M2 0 L421 799 L654 0 L568 0 L510 210 L203 210 L94 0 L2 0 Z M401 596 L243 287 L486 287 L401 596 Z " />
<glyph glyph-name="Atilde" unicode="&#xc3;" horiz-adv-x="697" d="M594 929 Q570 887 546.5 868.5 Q523 850 496 850 Q480 850 463 856 Q446 862 406 883 Q382 895 368 895 Q346 895 322 851 L272 878 Q299 922 320.5 939.5 Q342 957 368 957 Q381 957 400 950.5 Q419 944 455 927 Q486 912 497 912 Q510 912 521 921.5 Q532 931 546 955 L594 929 Z M2 0 L421 799 L654 0 L568 0 L510 210 L203 210 L94 0 L2 0 Z M401 596 L243 287 L486 287 L401 596 Z " />
<glyph glyph-name="AE" unicode="&#xc6;" horiz-adv-x="1022" d="M472 677 L540 446 L847 446 L870 370 L563 370 L649 77 L957 77 L979 0 L583 0 L523 214 L206 214 L88 0 L-6 0 L412 754 L758 754 L780 677 L472 677 Z M415 592 L250 290 L499 290 L415 592 Z " />
<glyph glyph-name="AEacute" unicode="&#x1fc;" horiz-adv-x="1022" d="M487 845 L615 996 L683 951 L529 817 L487 845 Z M472 677 L540 446 L847 446 L870 370 L563 370 L649 77 L957 77 L979 0 L583 0 L523 214 L206 214 L88 0 L-6 0 L412 754 L758 754 L780 677 L472 677 Z M415 592 L250 290 L499 290 L415 592 Z " />
<glyph glyph-name="B" unicode="B" horiz-adv-x="594" d="M297 754 Q346 754 377.5 748 Q409 742 434 728 Q471 706 492.5 662 Q514 618 514 567 Q514 447 405 391 Q438 382 455.5 373.5 Q473 365 489 349 Q514 326 527.5 291.5 Q541 257 541 215 Q541 159 516 111 Q491 63 447 35 Q418 16 379 8 Q340 0 277 0 L70 0 L163 754 L297 754 Z M263 419 Q320 419 345.5 427 Q371 435 392 458 Q412 478 422.5 506 Q433 534 433 565 Q433 593 423.5 616 Q414 639 397 653 Q379 666 356.5 671.5 Q334 677 295 677 L236 677 L205 419 L263 419 Z M283 77 Q337 77 366 84.5 Q395 92 415 112 Q435 131 446 159.5 Q457 188 457 219 Q457 251 444 278.5 Q431 306 408 321 Q386 335 359 340.5 Q332 346 279 346 L195 346 L163 77 L283 77 Z " />
<glyph glyph-name="C" unicode="C" horiz-adv-x="727" d="M704 577 Q661 631 596.5 660 Q532 689 457 689 Q371 689 302.5 646 Q234 603 195.5 527 Q157 451 157 355 Q157 267 192.5 201 Q228 135 293 99.5 Q358 64 445 64 Q507 64 557.5 82.5 Q608 101 655 140 L643 40 Q587 10 538 -2.5 Q489 -15 433 -15 Q327 -15 245 32 Q163 79 117.5 164 Q72 249 72 357 Q72 474 121.5 568 Q171 662 258 715 Q345 768 454 768 Q531 768 593 745.5 Q655 723 715 672 L704 577 Z " />
<glyph glyph-name="Cacute" unicode="&#x106;" horiz-adv-x="727" d="M440 845 L568 996 L635 951 L483 817 L440 845 Z M704 577 Q661 631 596.5 660 Q532 689 457 689 Q371 689 302.5 646 Q234 603 195.5 527 Q157 451 157 355 Q157 267 192.5 201 Q228 135 293 99.5 Q358 64 445 64 Q507 64 557.5 82.5 Q608 101 655 140 L643 40 Q587 10 538 -2.5 Q489 -15 433 -15 Q327 -15 245 32 Q163 79 117.5 164 Q72 249 72 357 Q72 474 121.5 568 Q171 662 258 715 Q345 768 454 768 Q531 768 593 745.5 Q655 723 715 672 L704 577 Z " />
<glyph glyph-name="Ccaron" unicode="&#x10c;" horiz-adv-x="727" d="M662 955 L483 817 L356 955 L402 996 L494 899 L619 997 L662 955 Z M704 577 Q661 631 596.5 660 Q532 689 457 689 Q371 689 302.5 646 Q234 603 195.5 527 Q157 451 157 355 Q157 267 192.5 201 Q228 135 293 99.5 Q358 64 445 64 Q507 64 557.5 82.5 Q608 101 655 140 L643 40 Q587 10 538 -2.5 Q489 -15 433 -15 Q327 -15 245 32 Q163 79 117.5 164 Q72 249 72 357 Q72 474 121.5 568 Q171 662 258 715 Q345 768 454 768 Q531 768 593 745.5 Q655 723 715 672 L704 577 Z " />
<glyph glyph-name="Ccedilla" unicode="&#xc7;" horiz-adv-x="727" d="M704 577 Q661 631 596.5 660 Q532 689 457 689 Q371 689 302.5 646 Q234 603 195.5 527 Q157 451 157 355 Q157 267 192.5 201 Q228 135 293 99.5 Q358 64 445 64 Q507 64 557.5 82.5 Q608 101 655 140 L643 40 Q587 10 538 -2.5 Q489 -15 433 -15 Q327 -15 245 32 Q163 79 117.5 164 Q72 249 72 357 Q72 474 121.5 568 Q171 662 258 715 Q345 768 454 768 Q531 768 593 745.5 Q655 723 715 672 L704 577 Z M281 -203 L376 -53 L446 -94 L325 -232 L281 -203 Z " />
<glyph glyph-name="Ccircumflex" unicode="&#x108;" horiz-adv-x="727" d="M329 859 L508 997 L635 859 L589 818 L497 914 L372 817 L329 859 Z M704 577 Q661 631 596.5 660 Q532 689 457 689 Q371 689 302.5 646 Q234 603 195.5 527 Q157 451 157 355 Q157 267 192.5 201 Q228 135 293 99.5 Q358 64 445 64 Q507 64 557.5 82.5 Q608 101 655 140 L643 40 Q587 10 538 -2.5 Q489 -15 433 -15 Q327 -15 245 32 Q163 79 117.5 164 Q72 249 72 357 Q72 474 121.5 568 Q171 662 258 715 Q345 768 454 768 Q531 768 593 745.5 Q655 723 715 672 L704 577 Z " />
<glyph glyph-name="Cdotaccent" unicode="&#x10a;" horiz-adv-x="727" d="M498 953 Q520 953 535 937 Q550 921 550 898 Q550 876 533.5 859 Q517 842 495 842 Q473 842 457.5 858 Q442 874 442 897 Q442 920 458.5 936.5 Q475 953 498 953 Z M704 577 Q661 631 596.5 660 Q532 689 457 689 Q371 689 302.5 646 Q234 603 195.5 527 Q157 451 157 355 Q157 267 192.5 201 Q228 135 293 99.5 Q358 64 445 64 Q507 64 557.5 82.5 Q608 101 655 140 L643 40 Q587 10 538 -2.5 Q489 -15 433 -15 Q327 -15 245 32 Q163 79 117.5 164 Q72 249 72 357 Q72 474 121.5 568 Q171 662 258 715 Q345 768 454 768 Q531 768 593 745.5 Q655 723 715 672 L704 577 Z " />
<glyph glyph-name="D" unicode="D" horiz-adv-x="718" d="M314 754 Q391 754 438 745.5 Q485 737 522 715 Q593 674 635 591 Q677 508 677 405 Q677 280 619 179 Q561 78 464 34 Q421 14 375 7 Q329 0 245 0 L70 0 L163 754 L314 754 Z M257 77 Q331 77 375 86.5 Q419 96 457 120 Q518 159 555 238 Q592 317 592 407 Q592 495 556 562 Q520 629 459 655 Q432 666 399 671.5 Q366 677 319 677 L236 677 L163 77 L257 77 Z " />
<glyph glyph-name="Eth" unicode="&#xd0;" horiz-adv-x="718" d="M314 754 Q391 754 438 745.5 Q485 737 522 715 Q593 674 635 591 Q677 508 677 405 Q677 280 619 179 Q561 78 464 34 Q421 14 375 7 Q329 0 245 0 L70 0 L116 373 L41 373 L50 449 L125 449 L163 754 L314 754 Z M397 449 L388 373 L199 373 L163 77 L257 77 Q331 77 375 86.5 Q419 96 457 120 Q518 159 555 238 Q592 317 592 407 Q592 495 556 562 Q520 629 459 655 Q432 666 399 671.5 Q366 677 319 677 L236 677 L208 449 L397 449 Z " />
<glyph glyph-name="Dcaron" unicode="&#x10e;" horiz-adv-x="718" d="M564 955 L384 817 L258 955 L304 996 L395 899 L521 997 L564 955 Z M314 754 Q391 754 438 745.5 Q485 737 522 715 Q593 674 635 591 Q677 508 677 405 Q677 280 619 179 Q561 78 464 34 Q421 14 375 7 Q329 0 245 0 L70 0 L163 754 L314 754 Z M257 77 Q331 77 375 86.5 Q419 96 457 120 Q518 159 555 238 Q592 317 592 407 Q592 495 556 562 Q520 629 459 655 Q432 666 399 671.5 Q366 677 319 677 L236 677 L163 77 L257 77 Z " />
<glyph glyph-name="Dcroat" unicode="&#x110;" horiz-adv-x="718" d="M314 754 Q391 754 438 745.5 Q485 737 522 715 Q593 674 635 591 Q677 508 677 405 Q677 280 619 179 Q561 78 464 34 Q421 14 375 7 Q329 0 245 0 L70 0 L116 373 L41 373 L50 449 L125 449 L163 754 L314 754 Z M397 449 L388 373 L199 373 L163 77 L257 77 Q331 77 375 86.5 Q419 96 457 120 Q518 159 555 238 Q592 317 592 407 Q592 495 556 562 Q520 629 459 655 Q432 666 399 671.5 Q366 677 319 677 L236 677 L208 449 L397 449 Z " />
<glyph glyph-name="E" unicode="E" horiz-adv-x="528" d="M236 677 L208 446 L494 446 L485 370 L199 370 L163 77 L449 77 L440 0 L70 0 L163 754 L532 754 L522 677 L236 677 Z " />
<glyph glyph-name="Eacute" unicode="&#xc9;" horiz-adv-x="528" d="M307 845 L435 996 L503 951 L349 817 L307 845 Z M236 677 L208 446 L494 446 L485 370 L199 370 L163 77 L449 77 L440 0 L70 0 L163 754 L532 754 L522 677 L236 677 Z " />
<glyph glyph-name="Ebreve" unicode="&#x114;" horiz-adv-x="528" d="M293 967 Q294 931 311 912 Q328 893 359 893 Q393 893 419.5 914.5 Q446 936 460 974 L521 974 Q503 907 458.5 868 Q414 829 355 829 Q298 829 265 864 Q232 899 232 958 L232 974 L293 974 L293 967 Z M236 677 L208 446 L494 446 L485 370 L199 370 L163 77 L449 77 L440 0 L70 0 L163 754 L532 754 L522 677 L236 677 Z " />
<glyph glyph-name="Ecaron" unicode="&#x11a;" horiz-adv-x="528" d="M532 955 L354 817 L226 955 L272 996 L364 899 L490 997 L532 955 Z M236 677 L208 446 L494 446 L485 370 L199 370 L163 77 L449 77 L440 0 L70 0 L163 754 L532 754 L522 677 L236 677 Z " />
<glyph glyph-name="Ecircumflex" unicode="&#xca;" horiz-adv-x="528" d="M200 859 L379 997 L506 859 L460 818 L368 914 L242 817 L200 859 Z M236 677 L208 446 L494 446 L485 370 L199 370 L163 77 L449 77 L440 0 L70 0 L163 754 L532 754 L522 677 L236 677 Z " />
<glyph glyph-name="Edieresis" unicode="&#xcb;" horiz-adv-x="528" d="M272 950 Q293 950 307.5 935.5 Q322 921 322 899 Q322 877 306 860.5 Q290 844 269 844 Q248 844 233 859.5 Q218 875 218 896 Q218 919 233.5 934.5 Q249 950 272 950 Z M462 950 Q483 950 497.5 935.5 Q512 921 512 899 Q512 877 496 860.5 Q480 844 459 844 Q438 844 423 859.5 Q408 875 408 896 Q408 919 423.5 934.5 Q439 950 462 950 Z M236 677 L208 446 L494 446 L485 370 L199 370 L163 77 L449 77 L440 0 L70 0 L163 754 L532 754 L522 677 L236 677 Z " />
<glyph glyph-name="Edotaccent" unicode="&#x116;" horiz-adv-x="528" d="M367 953 Q389 953 404 937 Q419 921 419 898 Q419 876 402.5 859 Q386 842 364 842 Q342 842 326.5 858 Q311 874 311 897 Q311 920 327.5 936.5 Q344 953 367 953 Z M236 677 L208 446 L494 446 L485 370 L199 370 L163 77 L449 77 L440 0 L70 0 L163 754 L532 754 L522 677 L236 677 Z " />
<glyph glyph-name="Egrave" unicode="&#xc8;" horiz-adv-x="528" d="M410 842 L362 817 L260 956 L330 996 L410 842 Z M236 677 L208 446 L494 446 L485 370 L199 370 L163 77 L449 77 L440 0 L70 0 L163 754 L532 754 L522 677 L236 677 Z " />
<glyph glyph-name="Emacron" unicode="&#x112;" horiz-adv-x="528" d="M519 864 L200 864 L208 927 L527 927 L519 864 Z M236 677 L208 446 L494 446 L485 370 L199 370 L163 77 L449 77 L440 0 L70 0 L163 754 L532 754 L522 677 L236 677 Z " />
<glyph glyph-name="Eogonek" unicode="&#x118;" horiz-adv-x="528" d="M440 0 Q421 -11 408 -20 Q395 -29 375 -46 Q355 -66 347 -78.5 Q339 -91 339 -105 Q339 -123 351 -134 Q363 -145 382 -145 Q393 -145 404 -142 Q415 -139 435 -131 L421 -201 Q402 -208 390.5 -210 Q379 -212 366 -212 Q324 -212 295 -187 Q266 -162 266 -127 Q266 -92 291.5 -61.5 Q317 -31 372 0 L70 0 L163 754 L532 754 L522 677 L236 677 L208 446 L494 446 L485 370 L199 370 L163 77 L449 77 L440 0 Z " />
<glyph glyph-name="F" unicode="F" horiz-adv-x="487" d="M236 677 L208 447 L469 447 L460 371 L199 371 L153 0 L70 0 L163 754 L506 754 L497 677 L236 677 Z " />
<glyph glyph-name="G" unicode="G" horiz-adv-x="842" d="M798 360 Q791 287 774 236.5 Q757 186 724 138 Q675 65 598 25 Q521 -15 432 -15 Q329 -15 247 33 Q165 81 118 165 Q71 249 71 354 Q71 436 100.5 515.5 Q130 595 182 651 Q234 708 305 738 Q376 768 459 768 Q564 768 643 725 Q722 682 780 593 L722 542 Q703 573 687 591.5 Q671 610 650 627 Q611 657 560.5 673 Q510 689 457 689 Q371 689 302.5 646 Q234 603 195 526.5 Q156 450 156 354 Q156 271 191.5 204.5 Q227 138 291 101 Q355 64 435 64 Q538 64 609 122 Q680 180 704 284 L480 284 L489 360 L798 360 Z " />
<glyph glyph-name="Gbreve" unicode="&#x11e;" horiz-adv-x="842" d="M437 967 Q437 932 455 912.5 Q473 893 505 893 Q539 893 565.5 914.5 Q592 936 605 974 L666 974 Q648 906 603.5 867.5 Q559 829 499 829 Q443 829 409.5 864 Q376 899 376 958 Q376 967 377 974 L437 974 L437 967 Z M798 360 Q791 287 774 236.5 Q757 186 724 138 Q675 65 598 25 Q521 -15 432 -15 Q329 -15 247 33 Q165 81 118 165 Q71 249 71 354 Q71 436 100.5 515.5 Q130 595 182 651 Q234 708 305 738 Q376 768 459 768 Q564 768 643 725 Q722 682 780 593 L722 542 Q703 573 687 591.5 Q671 610 650 627 Q611 657 560.5 673 Q510 689 457 689 Q371 689 302.5 646 Q234 603 195 526.5 Q156 450 156 354 Q156 271 191.5 204.5 Q227 138 291 101 Q355 64 435 64 Q538 64 609 122 Q680 180 704 284 L480 284 L489 360 L798 360 Z " />
<glyph glyph-name="Gcaron" unicode="&#x1e6;" horiz-adv-x="842" d="M675 955 L495 817 L368 955 L415 996 L506 899 L632 997 L675 955 Z M798 360 Q791 287 774 236.5 Q757 186 724 138 Q675 65 598 25 Q521 -15 432 -15 Q329 -15 247 33 Q165 81 118 165 Q71 249 71 354 Q71 436 100.5 515.5 Q130 595 182 651 Q234 708 305 738 Q376 768 459 768 Q564 768 643 725 Q722 682 780 593 L722 542 Q703 573 687 591.5 Q671 610 650 627 Q611 657 560.5 673 Q510 689 457 689 Q371 689 302.5 646 Q234 603 195 526.5 Q156 450 156 354 Q156 271 191.5 204.5 Q227 138 291 101 Q355 64 435 64 Q538 64 609 122 Q680 180 704 284 L480 284 L489 360 L798 360 Z " />
<glyph glyph-name="Gcircumflex" unicode="&#x11c;" horiz-adv-x="842" d="M338 859 L516 997 L644 859 L598 818 L506 914 L380 817 L338 859 Z M798 360 Q791 287 774 236.5 Q757 186 724 138 Q675 65 598 25 Q521 -15 432 -15 Q329 -15 247 33 Q165 81 118 165 Q71 249 71 354 Q71 436 100.5 515.5 Q130 595 182 651 Q234 708 305 738 Q376 768 459 768 Q564 768 643 725 Q722 682 780 593 L722 542 Q703 573 687 591.5 Q671 610 650 627 Q611 657 560.5 673 Q510 689 457 689 Q371 689 302.5 646 Q234 603 195 526.5 Q156 450 156 354 Q156 271 191.5 204.5 Q227 138 291 101 Q355 64 435 64 Q538 64 609 122 Q680 180 704 284 L480 284 L489 360 L798 360 Z " />
<glyph glyph-name="uni0122" unicode="&#x122;" horiz-adv-x="842" d="M798 360 Q791 287 774 236.5 Q757 186 724 138 Q675 65 598 25 Q521 -15 432 -15 Q329 -15 247 33 Q165 81 118 165 Q71 249 71 354 Q71 436 100.5 515.5 Q130 595 182 651 Q234 708 305 738 Q376 768 459 768 Q564 768 643 725 Q722 682 780 593 L722 542 Q703 573 687 591.5 Q671 610 650 627 Q611 657 560.5 673 Q510 689 457 689 Q371 689 302.5 646 Q234 603 195 526.5 Q156 450 156 354 Q156 271 191.5 204.5 Q227 138 291 101 Q355 64 435 64 Q538 64 609 122 Q680 180 704 284 L480 284 L489 360 L798 360 Z M360 -258 L310 -234 L383 -60 L454 -89 L360 -258 Z " />
<glyph glyph-name="Gdotaccent" unicode="&#x120;" horiz-adv-x="842" d="M508 953 Q530 953 545 937 Q560 921 560 898 Q560 876 543.5 859 Q527 842 505 842 Q483 842 467.5 858 Q452 874 452 897 Q452 920 468.5 936.5 Q485 953 508 953 Z M798 360 Q791 287 774 236.5 Q757 186 724 138 Q675 65 598 25 Q521 -15 432 -15 Q329 -15 247 33 Q165 81 118 165 Q71 249 71 354 Q71 436 100.5 515.5 Q130 595 182 651 Q234 708 305 738 Q376 768 459 768 Q564 768 643 725 Q722 682 780 593 L722 542 Q703 573 687 591.5 Q671 610 650 627 Q611 657 560.5 673 Q510 689 457 689 Q371 689 302.5 646 Q234 603 195 526.5 Q156 450 156 354 Q156 271 191.5 204.5 Q227 138 291 101 Q355 64 435 64 Q538 64 609 122 Q680 180 704 284 L480 284 L489 360 L798 360 Z " />
<glyph glyph-name="H" unicode="H" horiz-adv-x="734" d="M518 0 L564 375 L199 375 L153 0 L70 0 L163 754 L245 754 L209 452 L573 452 L610 754 L694 754 L600 0 L518 0 Z " />
<glyph glyph-name="Hbar" unicode="&#x126;" horiz-adv-x="734" d="M669 559 L600 0 L518 0 L564 375 L199 375 L153 0 L70 0 L139 559 L63 559 L72 635 L148 635 L163 754 L245 754 L231 635 L596 635 L610 754 L693 754 L678 635 L754 635 L745 559 L669 559 Z M573 452 L586 559 L221 559 L208 452 L573 452 Z " />
<glyph glyph-name="Hcircumflex" unicode="&#x124;" horiz-adv-x="734" d="M280 859 L460 997 L586 859 L540 818 L449 914 L323 817 L280 859 Z M518 0 L564 375 L199 375 L153 0 L70 0 L163 754 L245 754 L209 452 L573 452 L610 754 L694 754 L600 0 L518 0 Z " />
<glyph glyph-name="I" unicode="I" horiz-adv-x="287" d="M70 0 L163 754 L246 754 L153 0 L70 0 Z " />
<glyph glyph-name="IJ" unicode="&#x132;" horiz-adv-x="685" d="M70 0 L163 754 L246 754 L153 0 L70 0 Z M580 229 Q570 155 561 118 Q552 81 538 58 Q492 -15 406 -15 Q321 -15 263 64 L314 123 Q337 90 356.5 77 Q376 64 402 64 Q432 64 449.5 79 Q467 94 478 129.5 Q489 165 497 231 L560 754 L644 754 L580 229 Z " />
<glyph glyph-name="Iacute" unicode="&#xcd;" horiz-adv-x="287" d="M167 845 L288 996 L356 951 L210 817 L167 845 Z M70 0 L163 754 L246 754 L153 0 L70 0 Z " />
<glyph glyph-name="Ibreve" unicode="&#x12c;" horiz-adv-x="287" d="M146 967 Q146 932 163.5 912.5 Q181 893 212 893 Q247 893 273.5 914.5 Q300 936 313 974 L374 974 Q356 907 311.5 868 Q267 829 208 829 Q151 829 118 864 Q85 899 85 958 L85 974 L146 974 L146 967 Z M70 0 L163 754 L246 754 L153 0 L70 0 Z " />
<glyph glyph-name="Icircumflex" unicode="&#xce;" horiz-adv-x="287" d="M81 859 L240 997 L348 859 L302 818 L228 914 L122 817 L81 859 Z M70 0 L163 754 L246 754 L153 0 L70 0 Z " />
<glyph glyph-name="Idieresis" unicode="&#xcf;" horiz-adv-x="287" d="M153 950 Q173 950 187.5 935.5 Q202 921 202 899 Q202 877 186 860.5 Q170 844 149 844 Q128 844 113 859.5 Q98 875 98 897 Q98 919 114 934.5 Q130 950 153 950 Z M295 950 Q316 950 330.5 935.5 Q345 921 345 899 Q345 877 329 860.5 Q313 844 292 844 Q271 844 256 859.5 Q241 875 241 896 Q241 919 256.5 934.5 Q272 950 295 950 Z M70 0 L163 754 L246 754 L153 0 L70 0 Z " />
<glyph glyph-name="Idot" unicode="&#x130;" horiz-adv-x="287" d="M224 953 Q246 953 261 937 Q276 921 276 898 Q276 876 259.5 859 Q243 842 220 842 Q198 842 182.5 858 Q167 874 167 897 Q167 920 183.5 936.5 Q200 953 224 953 Z M70 0 L163 754 L246 754 L153 0 L70 0 Z " />
<glyph glyph-name="Igrave" unicode="&#xcc;" horiz-adv-x="287" d="M260 842 L211 817 L110 956 L180 996 L260 842 Z M70 0 L163 754 L246 754 L153 0 L70 0 Z " />
<glyph glyph-name="Imacron" unicode="&#x12a;" horiz-adv-x="287" d="M340 864 L96 864 L104 927 L347 927 L340 864 Z M70 0 L163 754 L246 754 L153 0 L70 0 Z " />
<glyph glyph-name="Iogonek" unicode="&#x12e;" horiz-adv-x="287" d="M154 0 Q90 -62 90 -110 Q90 -124 100 -134.5 Q110 -145 124 -145 Q135 -145 164 -132 L151 -200 Q138 -207 129 -209.5 Q120 -212 108 -212 Q71 -212 44 -186.5 Q17 -161 17 -125 Q17 -106 26.5 -84 Q36 -62 53 -44 Q64 -32 101 0 L70 0 L163 754 L246 754 L154 0 Z " />
<glyph glyph-name="Itilde" unicode="&#x128;" horiz-adv-x="287" d="M374 929 Q350 887 326.5 868.5 Q303 850 276 850 Q259 850 241.5 856.5 Q224 863 185 883 Q160 895 147 895 Q136 895 123.5 883.5 Q111 872 101 851 L52 878 Q78 921 99.5 939 Q121 957 147 957 Q161 957 180 950.5 Q199 944 235 927 Q251 919 260.5 915.5 Q270 912 277 912 Q290 912 300.5 921.5 Q311 931 325 955 L374 929 Z M70 0 L163 754 L245 754 L153 0 L70 0 Z " />
<glyph glyph-name="J" unicode="J" horiz-adv-x="406" d="M301 229 Q292 155 283 118 Q274 81 259 58 Q238 22 204 3.5 Q170 -15 128 -15 Q84 -15 48.5 4.5 Q13 24 -16 64 L35 123 Q59 90 78 77 Q97 64 123 64 Q153 64 170.5 79 Q188 94 199 129.5 Q210 165 218 231 L283 754 L365 754 L301 229 Z " />
<glyph glyph-name="Jcircumflex" unicode="&#x134;" horiz-adv-x="406" d="M169 859 L348 997 L476 859 L429 818 L338 914 L211 817 L169 859 Z M301 229 Q292 155 283 118 Q274 81 259 58 Q238 22 204 3.5 Q170 -15 128 -15 Q84 -15 48.5 4.5 Q13 24 -16 64 L35 123 Q59 90 78 77 Q97 64 123 64 Q153 64 170.5 79 Q188 94 199 129.5 Q210 165 218 231 L283 754 L365 754 L301 229 Z " />
<glyph glyph-name="K" unicode="K" horiz-adv-x="643" d="M542 754 L651 754 L279 399 L600 0 L494 0 L199 372 L153 0 L70 0 L163 754 L245 754 L206 426 L542 754 Z " />
<glyph glyph-name="uni0136" unicode="&#x136;" horiz-adv-x="643" d="M542 754 L651 754 L279 399 L600 0 L494 0 L199 372 L153 0 L70 0 L163 754 L245 754 L206 426 L542 754 Z M249 -258 L198 -234 L271 -60 L342 -89 L249 -258 Z " />
<glyph glyph-name="L" unicode="L" horiz-adv-x="434" d="M392 77 L383 0 L70 0 L163 754 L245 754 L163 77 L392 77 Z " />
<glyph glyph-name="Lacute" unicode="&#x139;" horiz-adv-x="434" d="M169 845 L297 996 L365 951 L211 817 L169 845 Z M392 77 L383 0 L70 0 L163 754 L245 754 L163 77 L392 77 Z " />
<glyph glyph-name="Lcaron" unicode="&#x13d;" horiz-adv-x="434" d="M350 563 L299 588 L374 762 L444 732 L350 563 Z M392 77 L383 0 L70 0 L163 754 L245 754 L163 77 L392 77 Z " />
<glyph glyph-name="uni013B" unicode="&#x13b;" horiz-adv-x="434" d="M392 77 L383 0 L70 0 L163 754 L245 754 L163 77 L392 77 Z M173 -258 L122 -234 L195 -60 L267 -89 L173 -258 Z " />
<glyph glyph-name="Ldot" unicode="&#x13f;" horiz-adv-x="434" d="M392 77 L383 0 L70 0 L163 754 L245 754 L163 77 L392 77 Z M375 457 Q404 457 424.5 436.5 Q445 416 445 386 Q445 359 424 339 Q403 319 376 319 Q347 319 327.5 339 Q308 359 308 389 Q308 417 327.5 437 Q347 457 375 457 Z " />
<glyph glyph-name="Lslash" unicode="&#x141;" horiz-adv-x="434" d="M348 536 L337 446 L197 356 L163 77 L393 77 L383 0 L71 0 L110 321 L28 268 L40 357 L121 410 L163 754 L246 754 L208 445 L348 536 Z " />
<glyph glyph-name="M" unicode="M" horiz-adv-x="994" d="M492 165 L817 806 L926 0 L843 0 L770 554 L467 -34 L315 551 L99 0 L12 0 L325 800 L492 165 Z " />
<glyph glyph-name="N" unicode="N" horiz-adv-x="838" d="M225 584 L153 0 L70 0 L167 786 L642 166 L714 754 L798 754 L701 -37 L225 584 Z " />
<glyph glyph-name="Nacute" unicode="&#x143;" horiz-adv-x="838" d="M436 845 L564 996 L632 951 L478 817 L436 845 Z M225 584 L153 0 L70 0 L167 786 L642 166 L714 754 L798 754 L701 -37 L225 584 Z " />
<glyph glyph-name="Ncaron" unicode="&#x147;" horiz-adv-x="838" d="M658 955 L479 817 L351 955 L398 996 L489 899 L615 997 L658 955 Z M225 584 L153 0 L70 0 L167 786 L642 166 L714 754 L798 754 L701 -37 L225 584 Z " />
<glyph glyph-name="uni0145" unicode="&#x145;" horiz-adv-x="838" d="M225 584 L153 0 L70 0 L167 786 L642 166 L714 754 L798 754 L701 -37 L225 584 Z M333 -258 L283 -234 L356 -60 L427 -89 L333 -258 Z " />
<glyph glyph-name="Eng" unicode="&#x14a;" horiz-adv-x="734" d="M234 657 Q288 718 337 743 Q386 768 453 768 Q551 768 607.5 711.5 Q664 655 664 557 Q664 513 658 462 L623 173 Q614 108 598.5 66 Q583 24 557 -3 Q523 -40 476 -59 Q429 -78 373 -78 Q347 -78 328.5 -75 Q310 -72 280 -62 L290 19 Q319 9 337 5 Q355 1 377 1 Q415 1 445.5 12.5 Q476 24 495 46 Q514 68 524.5 103.5 Q535 139 544 212 L573 449 Q581 521 581 545 Q581 615 542.5 652 Q504 689 431 689 Q376 689 331 665.5 Q286 642 259 599 Q238 565 225 521 Q212 477 203 409 L154 0 L70 0 L163 754 L245 754 L234 657 Z " />
<glyph glyph-name="Ntilde" unicode="&#xd1;" horiz-adv-x="838" d="M659 929 Q634 887 610.5 868.5 Q587 850 560 850 Q544 850 527 856 Q510 862 470 883 Q445 895 433 895 Q421 895 409 883.5 Q397 872 386 851 L337 878 Q363 921 385 939 Q407 957 433 957 Q446 957 464.5 950.5 Q483 944 520 927 Q536 919 545.5 915.5 Q555 912 562 912 Q575 912 585.5 921.5 Q596 931 610 955 L659 929 Z M225 584 L153 0 L70 0 L167 786 L642 166 L714 754 L798 754 L701 -37 L225 584 Z " />
<glyph glyph-name="O" unicode="O" horiz-adv-x="887" d="M470 768 Q581 768 666 721.5 Q751 675 798 590 Q845 505 845 395 Q845 280 793 186.5 Q741 93 650 39 Q559 -15 447 -15 Q338 -15 253 32.5 Q168 80 120 165.5 Q72 251 72 359 Q72 475 124 568.5 Q176 662 267 715 Q358 768 470 768 Z M472 689 Q383 689 311 646.5 Q239 604 198 529.5 Q157 455 157 363 Q157 278 194.5 209.5 Q232 141 299 102.5 Q366 64 450 64 Q537 64 608 107.5 Q679 151 719.5 227 Q760 303 760 397 Q760 485 724.5 551 Q689 617 624 653 Q559 689 472 689 Z " />
<glyph glyph-name="Oacute" unicode="&#xd3;" horiz-adv-x="887" d="M461 845 L589 996 L657 951 L503 817 L461 845 Z M470 768 Q581 768 666 721.5 Q751 675 798 590 Q845 505 845 395 Q845 280 793 186.5 Q741 93 650 39 Q559 -15 447 -15 Q338 -15 253 32.5 Q168 80 120 165.5 Q72 251 72 359 Q72 475 124 568.5 Q176 662 267 715 Q358 768 470 768 Z M472 689 Q383 689 311 646.5 Q239 604 198 529.5 Q157 455 157 363 Q157 278 194.5 209.5 Q232 141 299 102.5 Q366 64 450 64 Q537 64 608 107.5 Q679 151 719.5 227 Q760 303 760 397 Q760 485 724.5 551 Q689 617 624 653 Q559 689 472 689 Z " />
<glyph glyph-name="Obreve" unicode="&#x14e;" horiz-adv-x="887" d="M424 967 Q425 931 442 912 Q459 893 490 893 Q524 893 550.5 914.5 Q577 936 591 974 L652 974 Q634 907 589.5 868 Q545 829 486 829 Q429 829 396 864 Q363 899 363 958 L363 974 L424 974 L424 967 Z M470 768 Q581 768 666 721.5 Q751 675 798 590 Q845 505 845 395 Q845 280 793 186.5 Q741 93 650 39 Q559 -15 447 -15 Q338 -15 253 32.5 Q168 80 120 165.5 Q72 251 72 359 Q72 475 124 568.5 Q176 662 267 715 Q358 768 470 768 Z M472 689 Q383 689 311 646.5 Q239 604 198 529.5 Q157 455 157 363 Q157 278 194.5 209.5 Q232 141 299 102.5 Q366 64 450 64 Q537 64 608 107.5 Q679 151 719.5 227 Q760 303 760 397 Q760 485 724.5 551 Q689 617 624 653 Q559 689 472 689 Z " />
<glyph glyph-name="Ocircumflex" unicode="&#xd4;" horiz-adv-x="887" d="M357 859 L537 997 L663 859 L617 818 L525 914 L400 817 L357 859 Z M470 768 Q581 768 666 721.5 Q751 675 798 590 Q845 505 845 395 Q845 280 793 186.5 Q741 93 650 39 Q559 -15 447 -15 Q338 -15 253 32.5 Q168 80 120 165.5 Q72 251 72 359 Q72 475 124 568.5 Q176 662 267 715 Q358 768 470 768 Z M472 689 Q383 689 311 646.5 Q239 604 198 529.5 Q157 455 157 363 Q157 278 194.5 209.5 Q232 141 299 102.5 Q366 64 450 64 Q537 64 608 107.5 Q679 151 719.5 227 Q760 303 760 397 Q760 485 724.5 551 Q689 617 624 653 Q559 689 472 689 Z " />
<glyph glyph-name="Odieresis" unicode="&#xd6;" horiz-adv-x="887" d="M427 950 Q448 950 462.5 935.5 Q477 921 477 899 Q477 877 461 860.5 Q445 844 424 844 Q403 844 388 859.5 Q373 875 373 896 Q373 919 388.5 934.5 Q404 950 427 950 Z M617 950 Q638 950 652.5 935.5 Q667 921 667 899 Q667 877 651 860.5 Q635 844 614 844 Q593 844 578 859.5 Q563 875 563 896 Q563 919 578.5 934.5 Q594 950 617 950 Z M470 768 Q581 768 666 721.5 Q751 675 798 590 Q845 505 845 395 Q845 280 793 186.5 Q741 93 650 39 Q559 -15 447 -15 Q338 -15 253 32.5 Q168 80 120 165.5 Q72 251 72 359 Q72 475 124 568.5 Q176 662 267 715 Q358 768 470 768 Z M472 689 Q383 689 311 646.5 Q239 604 198 529.5 Q157 455 157 363 Q157 278 194.5 209.5 Q232 141 299 102.5 Q366 64 450 64 Q537 64 608 107.5 Q679 151 719.5 227 Q760 303 760 397 Q760 485 724.5 551 Q689 617 624 653 Q559 689 472 689 Z " />
<glyph glyph-name="Ograve" unicode="&#xd2;" horiz-adv-x="887" d="M564 842 L515 817 L414 956 L484 996 L564 842 Z M470 768 Q581 768 666 721.5 Q751 675 798 590 Q845 505 845 395 Q845 280 793 186.5 Q741 93 650 39 Q559 -15 447 -15 Q338 -15 253 32.5 Q168 80 120 165.5 Q72 251 72 359 Q72 475 124 568.5 Q176 662 267 715 Q358 768 470 768 Z M472 689 Q383 689 311 646.5 Q239 604 198 529.5 Q157 455 157 363 Q157 278 194.5 209.5 Q232 141 299 102.5 Q366 64 450 64 Q537 64 608 107.5 Q679 151 719.5 227 Q760 303 760 397 Q760 485 724.5 551 Q689 617 624 653 Q559 689 472 689 Z " />
<glyph glyph-name="Ohorn" unicode="&#x1a0;" horiz-adv-x="887" d="M868 765 L784 614 Q845 523 845 401 Q845 282 793.5 187 Q742 92 651.5 38.5 Q561 -15 447 -15 Q338 -15 253 32.5 Q168 80 120 165.5 Q72 251 72 359 Q72 476 124 569 Q176 662 267 715 Q358 768 471 768 Q553 768 622.5 741 Q692 714 742 664 L798 794 L868 765 Z M472 689 Q383 689 311 646.5 Q239 604 198 529.5 Q157 455 157 363 Q157 278 194.5 209.5 Q232 141 299 102.5 Q366 64 450 64 Q537 64 608 107.5 Q679 151 719.5 227 Q760 303 760 397 Q760 485 724.5 551 Q689 617 624 653 Q559 689 472 689 Z " />
<glyph glyph-name="Ohungarumlaut" unicode="&#x150;" horiz-adv-x="887" d="M397 845 L521 996 L577 956 L431 822 L397 845 Z M562 845 L686 996 L744 956 L597 822 L562 845 Z M470 768 Q581 768 666 721.5 Q751 675 798 590 Q845 505 845 395 Q845 280 793 186.5 Q741 93 650 39 Q559 -15 447 -15 Q338 -15 253 32.5 Q168 80 120 165.5 Q72 251 72 359 Q72 475 124 568.5 Q176 662 267 715 Q358 768 470 768 Z M472 689 Q383 689 311 646.5 Q239 604 198 529.5 Q157 455 157 363 Q157 278 194.5 209.5 Q232 141 299 102.5 Q366 64 450 64 Q537 64 608 107.5 Q679 151 719.5 227 Q760 303 760 397 Q760 485 724.5 551 Q689 617 624 653 Q559 689 472 689 Z " />
<glyph glyph-name="Omacron" unicode="&#x14c;" horiz-adv-x="887" d="M675 864 L356 864 L364 927 L683 927 L675 864 Z M470 768 Q581 768 666 721.5 Q751 675 798 590 Q845 505 845 395 Q845 280 793 186.5 Q741 93 650 39 Q559 -15 447 -15 Q338 -15 253 32.5 Q168 80 120 165.5 Q72 251 72 359 Q72 475 124 568.5 Q176 662 267 715 Q358 768 470 768 Z M472 689 Q383 689 311 646.5 Q239 604 198 529.5 Q157 455 157 363 Q157 278 194.5 209.5 Q232 141 299 102.5 Q366 64 450 64 Q537 64 608 107.5 Q679 151 719.5 227 Q760 303 760 397 Q760 485 724.5 551 Q689 617 624 653 Q559 689 472 689 Z " />
<glyph glyph-name="Oslash" unicode="&#xd8;" horiz-adv-x="887" d="M35 44 L137 137 Q103 191 87.5 243.5 Q72 296 72 359 Q72 476 124 569 Q176 662 267 715 Q358 768 471 768 Q548 768 609.5 746.5 Q671 725 731 676 L832 766 L877 720 L775 627 Q812 573 828.5 519.5 Q845 466 845 400 Q845 282 793.5 187 Q742 92 651 38.5 Q560 -15 446 -15 Q370 -15 307.5 8.5 Q245 32 181 85 L80 -7 L35 44 Z M668 621 Q636 653 584 671 Q532 689 471 689 Q383 689 311 646.5 Q239 604 198 530 Q157 456 157 364 Q157 272 202 195 L668 621 Z M245 145 Q283 106 335.5 85 Q388 64 451 64 Q538 64 608.5 108 Q679 152 719.5 228 Q760 304 760 398 Q760 450 749 492 Q738 534 714 571 L245 145 Z " />
<glyph glyph-name="Oslashacute" unicode="&#x1fe;" horiz-adv-x="887" d="M410 845 L538 996 L606 951 L452 817 L410 845 Z M35 44 L137 137 Q103 191 87.5 243.5 Q72 296 72 359 Q72 476 124 569 Q176 662 267 715 Q358 768 471 768 Q548 768 609.5 746.5 Q671 725 731 676 L832 766 L877 720 L775 627 Q812 573 828.5 519.5 Q845 466 845 400 Q845 282 793.5 187 Q742 92 651 38.5 Q560 -15 446 -15 Q370 -15 307.5 8.5 Q245 32 181 85 L80 -7 L35 44 Z M668 621 Q636 653 584 671 Q532 689 471 689 Q383 689 311 646.5 Q239 604 198 530 Q157 456 157 364 Q157 272 202 195 L668 621 Z M245 145 Q283 106 335.5 85 Q388 64 451 64 Q538 64 608.5 108 Q679 152 719.5 228 Q760 304 760 398 Q760 450 749 492 Q738 534 714 571 L245 145 Z " />
<glyph glyph-name="Otilde" unicode="&#xd5;" horiz-adv-x="887" d="M684 929 Q659 887 635.5 868.5 Q612 850 585 850 Q569 850 552 856 Q535 862 495 883 Q471 895 458 895 Q435 895 411 851 L363 878 Q389 922 410.5 939.5 Q432 957 458 957 Q471 957 489.5 950.5 Q508 944 545 927 Q576 912 586 912 Q599 912 610 921.5 Q621 931 635 955 L684 929 Z M470 768 Q581 768 666 721.5 Q751 675 798 590 Q845 505 845 395 Q845 280 793 186.5 Q741 93 650 39 Q559 -15 447 -15 Q338 -15 253 32.5 Q168 80 120 165.5 Q72 251 72 359 Q72 475 124 568.5 Q176 662 267 715 Q358 768 470 768 Z M472 689 Q383 689 311 646.5 Q239 604 198 529.5 Q157 455 157 363 Q157 278 194.5 209.5 Q232 141 299 102.5 Q366 64 450 64 Q537 64 608 107.5 Q679 151 719.5 227 Q760 303 760 397 Q760 485 724.5 551 Q689 617 624 653 Q559 689 472 689 Z " />
<glyph glyph-name="OE" unicode="&#x152;" horiz-adv-x="1185" d="M887 677 L858 444 L1153 444 L1144 367 L849 367 L812 77 L1107 77 L1098 0 L720 0 L734 123 Q704 91 687 75 Q670 59 650 45 Q559 -15 444 -15 Q339 -15 254 33.5 Q169 82 120.5 167 Q72 252 72 357 Q72 444 104 522.5 Q136 601 197 661 Q253 716 320 743 Q387 770 470 770 Q595 770 685 706 Q716 684 738 659 Q760 634 792 584 L812 754 L1188 754 L1179 677 L887 677 Z M469 692 Q382 692 310.5 647.5 Q239 603 198 525.5 Q157 448 157 353 Q157 270 195 203.5 Q233 137 300 100 Q367 63 451 63 Q539 63 610.5 105.5 Q682 148 723 222.5 Q764 297 764 389 Q764 457 744.5 511.5 Q725 566 687 603 Q647 644 588 668 Q529 692 469 692 Z " />
<glyph glyph-name="P" unicode="P" horiz-adv-x="542" d="M306 754 Q362 754 400.5 743 Q439 732 468 707 Q498 680 514.5 641 Q531 602 531 555 Q531 491 503 440 Q475 389 425 359 Q395 343 360 336 Q325 329 270 329 L193 329 L153 0 L70 0 L163 754 L306 754 Z M276 406 Q322 406 352 415.5 Q382 425 403 445 Q424 465 435 493.5 Q446 522 446 554 Q446 614 410 645.5 Q374 677 304 677 L236 677 L203 406 L276 406 Z " />
<glyph glyph-name="Thorn" unicode="&#xde;" horiz-adv-x="542" d="M233 647 L293 647 Q349 647 387.5 636 Q426 625 454 601 Q485 575 502 535.5 Q519 496 519 449 Q519 386 491 334.5 Q463 283 412 253 Q383 237 347.5 230 Q312 223 257 223 L181 223 L153 0 L70 0 L163 754 L245 754 L233 647 Z M262 299 Q308 299 339 308.5 Q370 318 391 339 Q411 359 422.5 387.5 Q434 416 434 447 Q434 508 397.5 539.5 Q361 571 292 571 L224 571 L190 299 L262 299 Z " />
<glyph glyph-name="Q" unicode="Q" horiz-adv-x="885" d="M647 40 Q597 11 550.5 -2 Q504 -15 449 -15 Q340 -15 254.5 33 Q169 81 120.5 166.5 Q72 252 72 360 Q72 477 123.5 570 Q175 663 266 715.5 Q357 768 471 768 Q579 768 664 721 Q749 674 796.5 589.5 Q844 505 844 397 Q844 209 706 80 L809 -31 L712 -31 L647 40 Z M655 136 Q706 182 732.5 248 Q759 314 759 392 Q759 480 723 547.5 Q687 615 622 652 Q557 689 472 689 Q382 689 310 647 Q238 605 197.5 530 Q157 455 157 362 Q157 277 194.5 209 Q232 141 298.5 102.5 Q365 64 449 64 Q489 64 521 71.5 Q553 79 593 97 L466 235 L562 235 L655 136 Z " />
<glyph glyph-name="R" unicode="R" horiz-adv-x="580" d="M421 0 L224 333 L194 333 L153 0 L70 0 L163 754 L286 754 Q342 754 380 744 Q418 734 446 713 Q478 687 497 645 Q516 603 516 556 Q516 495 487.5 444 Q459 393 408 367 Q384 354 361.5 347.5 Q339 341 307 338 L514 0 L421 0 Z M250 401 Q301 401 332 410 Q363 419 385 440 Q407 460 419.5 491.5 Q432 523 432 555 Q432 615 394.5 646 Q357 677 285 677 L236 677 L202 401 L250 401 Z " />
<glyph glyph-name="Racute" unicode="&#x154;" horiz-adv-x="580" d="M272 845 L401 996 L468 951 L315 817 L272 845 Z M421 0 L224 333 L194 333 L153 0 L70 0 L163 754 L286 754 Q342 754 380 744 Q418 734 446 713 Q478 687 497 645 Q516 603 516 556 Q516 495 487.5 444 Q459 393 408 367 Q384 354 361.5 347.5 Q339 341 307 338 L514 0 L421 0 Z M250 401 Q301 401 332 410 Q363 419 385 440 Q407 460 419.5 491.5 Q432 523 432 555 Q432 615 394.5 646 Q357 677 285 677 L236 677 L202 401 L250 401 Z " />
<glyph glyph-name="Rcaron" unicode="&#x158;" horiz-adv-x="580" d="M498 955 L320 817 L192 955 L238 996 L330 899 L455 997 L498 955 Z M421 0 L224 333 L194 333 L153 0 L70 0 L163 754 L286 754 Q342 754 380 744 Q418 734 446 713 Q478 687 497 645 Q516 603 516 556 Q516 495 487.5 444 Q459 393 408 367 Q384 354 361.5 347.5 Q339 341 307 338 L514 0 L421 0 Z M250 401 Q301 401 332 410 Q363 419 385 440 Q407 460 419.5 491.5 Q432 523 432 555 Q432 615 394.5 646 Q357 677 285 677 L236 677 L202 401 L250 401 Z " />
<glyph glyph-name="uni0156" unicode="&#x156;" horiz-adv-x="580" d="M421 0 L224 333 L194 333 L153 0 L70 0 L163 754 L286 754 Q342 754 380 744 Q418 734 446 713 Q478 687 497 645 Q516 603 516 556 Q516 495 487.5 444 Q459 393 408 367 Q384 354 361.5 347.5 Q339 341 307 338 L514 0 L421 0 Z M250 401 Q301 401 332 410 Q363 419 385 440 Q407 460 419.5 491.5 Q432 523 432 555 Q432 615 394.5 646 Q357 677 285 677 L236 677 L202 401 L250 401 Z M219 -258 L168 -234 L242 -60 L313 -89 L219 -258 Z " />
<glyph glyph-name="S" unicode="S" horiz-adv-x="545" d="M467 597 Q441 645 409 667.5 Q377 690 332 690 Q279 690 242 654.5 Q205 619 205 567 Q205 539 215 518.5 Q225 498 249.5 477 Q274 456 323 426 Q388 387 423.5 354.5 Q459 322 474 286.5 Q489 251 489 202 Q489 140 460 90.5 Q431 41 379.5 13 Q328 -15 264 -15 Q217 -15 174.5 1 Q132 17 99 47 Q79 66 66 87 Q53 108 35 146 L101 185 Q112 157 121.5 141.5 Q131 126 144 112 Q166 89 196.5 76.5 Q227 64 262 64 Q325 64 365 104.5 Q405 145 405 209 Q405 241 394 264 Q383 287 356 310 Q329 333 276 365 Q215 402 182.5 431.5 Q150 461 136 493 Q122 525 122 568 Q122 626 149 672 Q176 718 224 744 Q272 770 333 770 Q397 770 443 740.5 Q489 711 524 647 L467 597 Z " />
<glyph glyph-name="Sacute" unicode="&#x15a;" horiz-adv-x="545" d="M296 845 L425 996 L492 951 L339 817 L296 845 Z M467 597 Q441 645 409 667.5 Q377 690 332 690 Q279 690 242 654.5 Q205 619 205 567 Q205 539 215 518.5 Q225 498 249.5 477 Q274 456 323 426 Q388 387 423.5 354.5 Q459 322 474 286.5 Q489 251 489 202 Q489 140 460 90.5 Q431 41 379.5 13 Q328 -15 264 -15 Q217 -15 174.5 1 Q132 17 99 47 Q79 66 66 87 Q53 108 35 146 L101 185 Q112 157 121.5 141.5 Q131 126 144 112 Q166 89 196.5 76.5 Q227 64 262 64 Q325 64 365 104.5 Q405 145 405 209 Q405 241 394 264 Q383 287 356 310 Q329 333 276 365 Q215 402 182.5 431.5 Q150 461 136 493 Q122 525 122 568 Q122 626 149 672 Q176 718 224 744 Q272 770 333 770 Q397 770 443 740.5 Q489 711 524 647 L467 597 Z " />
<glyph glyph-name="Scaron" unicode="&#x160;" horiz-adv-x="545" d="M522 955 L344 817 L216 955 L262 996 L354 899 L480 997 L522 955 Z M467 597 Q441 645 409 667.5 Q377 690 332 690 Q279 690 242 654.5 Q205 619 205 567 Q205 539 215 518.5 Q225 498 249.5 477 Q274 456 323 426 Q388 387 423.5 354.5 Q459 322 474 286.5 Q489 251 489 202 Q489 140 460 90.5 Q431 41 379.5 13 Q328 -15 264 -15 Q217 -15 174.5 1 Q132 17 99 47 Q79 66 66 87 Q53 108 35 146 L101 185 Q112 157 121.5 141.5 Q131 126 144 112 Q166 89 196.5 76.5 Q227 64 262 64 Q325 64 365 104.5 Q405 145 405 209 Q405 241 394 264 Q383 287 356 310 Q329 333 276 365 Q215 402 182.5 431.5 Q150 461 136 493 Q122 525 122 568 Q122 626 149 672 Q176 718 224 744 Q272 770 333 770 Q397 770 443 740.5 Q489 711 524 647 L467 597 Z " />
<glyph glyph-name="Scedilla" unicode="&#x15e;" horiz-adv-x="545" d="M467 597 Q441 645 409 667.5 Q377 690 332 690 Q279 690 242 654.5 Q205 619 205 567 Q205 539 215 518.5 Q225 498 249.5 477 Q274 456 323 426 Q388 387 423.5 354.5 Q459 322 474 286.5 Q489 251 489 202 Q489 140 460 90.5 Q431 41 379.5 13 Q328 -15 264 -15 Q217 -15 174.5 1 Q132 17 99 47 Q79 66 66 87 Q53 108 35 146 L101 185 Q112 157 121.5 141.5 Q131 126 144 112 Q166 89 196.5 76.5 Q227 64 262 64 Q325 64 365 104.5 Q405 145 405 209 Q405 241 394 264 Q383 287 356 310 Q329 333 276 365 Q215 402 182.5 431.5 Q150 461 136 493 Q122 525 122 568 Q122 626 149 672 Q176 718 224 744 Q272 770 333 770 Q397 770 443 740.5 Q489 711 524 647 L467 597 Z M127 -203 L221 -53 L292 -94 L171 -232 L127 -203 Z " />
<glyph glyph-name="Scircumflex" unicode="&#x15c;" horiz-adv-x="545" d="M193 859 L372 997 L499 859 L453 818 L362 914 L235 817 L193 859 Z M467 597 Q441 645 409 667.5 Q377 690 332 690 Q279 690 242 654.5 Q205 619 205 567 Q205 539 215 518.5 Q225 498 249.5 477 Q274 456 323 426 Q388 387 423.5 354.5 Q459 322 474 286.5 Q489 251 489 202 Q489 140 460 90.5 Q431 41 379.5 13 Q328 -15 264 -15 Q217 -15 174.5 1 Q132 17 99 47 Q79 66 66 87 Q53 108 35 146 L101 185 Q112 157 121.5 141.5 Q131 126 144 112 Q166 89 196.5 76.5 Q227 64 262 64 Q325 64 365 104.5 Q405 145 405 209 Q405 241 394 264 Q383 287 356 310 Q329 333 276 365 Q215 402 182.5 431.5 Q150 461 136 493 Q122 525 122 568 Q122 626 149 672 Q176 718 224 744 Q272 770 333 770 Q397 770 443 740.5 Q489 711 524 647 L467 597 Z " />
<glyph glyph-name="uni0218" unicode="&#x218;" horiz-adv-x="545" d="M467 597 Q441 645 409 667.5 Q377 690 332 690 Q279 690 242 654.5 Q205 619 205 567 Q205 539 215 518.5 Q225 498 249.5 477 Q274 456 323 426 Q388 387 423.5 354.5 Q459 322 474 286.5 Q489 251 489 202 Q489 140 460 90.5 Q431 41 379.5 13 Q328 -15 264 -15 Q217 -15 174.5 1 Q132 17 99 47 Q79 66 66 87 Q53 108 35 146 L101 185 Q112 157 121.5 141.5 Q131 126 144 112 Q166 89 196.5 76.5 Q227 64 262 64 Q325 64 365 104.5 Q405 145 405 209 Q405 241 394 264 Q383 287 356 310 Q329 333 276 365 Q215 402 182.5 431.5 Q150 461 136 493 Q122 525 122 568 Q122 626 149 672 Q176 718 224 744 Q272 770 333 770 Q397 770 443 740.5 Q489 711 524 647 L467 597 Z M198 -258 L147 -234 L221 -60 L292 -89 L198 -258 Z " />
<glyph glyph-name="uni1E9E" unicode="&#x1e9e;" horiz-adv-x="693" d="M389 -15 Q294 -15 231 24 L241 114 Q273 86 308 74.5 Q343 63 385 63 Q466 63 508.5 107.5 Q551 152 551 217 Q551 291 499.5 328 Q448 365 373 386 L546 662 Q484 690 397 690 Q336 690 293 667.5 Q250 645 226 602 Q210 571 199 531.5 Q188 492 180 421 L128 0 L43 0 L99 457 Q109 537 122 580 Q135 623 163 660 Q199 710 258.5 737.5 Q318 765 400 765 Q473 765 539 746 Q605 727 658 694 L490 425 Q557 393 597.5 342 Q638 291 638 220 Q638 155 606.5 101 Q575 47 518 16 Q461 -15 389 -15 Z " />
<glyph glyph-name="uni018F" unicode="&#x18f;" horiz-adv-x="887" d="M470 768 Q581 768 666 721.5 Q751 675 798 590 Q845 505 845 395 Q845 280 793 186.5 Q741 93 650 39 Q559 -15 447 -15 Q338 -15 253 32.5 Q168 80 120 165.5 Q72 251 72 359 Q72 383 73 395 L760 395 L760 397 Q760 485 724.5 551 Q689 617 624 653 Q559 689 472 689 Q385 689 313.5 648 Q242 607 201 537 L124 570 Q176 663 266.5 715.5 Q357 768 470 768 Z M450 64 Q524 64 587.5 96.5 Q651 129 694 186.5 Q737 244 752 318 L160 318 Q169 244 208.5 186.5 Q248 129 311 96.5 Q374 64 450 64 Z " />
<glyph glyph-name="T" unicode="T" horiz-adv-x="473" d="M167 0 L251 677 L63 677 L72 754 L524 754 L514 677 L333 677 L250 0 L167 0 Z " />
<glyph glyph-name="Tbar" unicode="&#x166;" horiz-adv-x="473" d="M224 459 L81 459 L90 534 L234 534 L251 677 L63 677 L72 754 L524 754 L514 677 L333 677 L316 534 L460 534 L450 459 L307 459 L250 0 L167 0 L224 459 Z " />
<glyph glyph-name="Tcaron" unicode="&#x164;" horiz-adv-x="473" d="M484 955 L304 817 L177 955 L224 996 L315 899 L441 997 L484 955 Z M167 0 L251 677 L63 677 L72 754 L524 754 L514 677 L333 677 L250 0 L167 0 Z " />
<glyph glyph-name="uni0162" unicode="&#x162;" horiz-adv-x="473" d="M167 0 L251 677 L63 677 L72 754 L524 754 L514 677 L333 677 L250 0 L167 0 Z M155 -258 L104 -234 L179 -60 L250 -89 L155 -258 Z " />
<glyph glyph-name="U" unicode="U" horiz-adv-x="745" d="M647 292 Q640 226 627 182 Q614 138 593 106 Q556 47 497.5 16 Q439 -15 365 -15 Q288 -15 228 14.5 Q168 44 135 97 Q102 150 102 218 Q102 244 106 296 L163 754 L246 754 L189 287 Q184 252 184 227 Q184 152 232 108 Q280 64 362 64 Q404 64 441 79.5 Q478 95 504 123 Q529 151 543.5 191.5 Q558 232 566 299 L621 754 L705 754 L647 292 Z " />
<glyph glyph-name="Uacute" unicode="&#xda;" horiz-adv-x="745" d="M390 845 L518 996 L585 951 L432 817 L390 845 Z M647 292 Q640 226 627 182 Q614 138 593 106 Q556 47 497.5 16 Q439 -15 365 -15 Q288 -15 228 14.5 Q168 44 135 97 Q102 150 102 218 Q102 244 106 296 L163 754 L246 754 L189 287 Q185 262 185 227 Q185 194 192 171 Q199 148 215 128 Q238 98 277.5 81 Q317 64 362 64 Q404 64 441 79.5 Q478 95 504 123 Q529 151 543.5 191.5 Q558 232 566 299 L621 754 L705 754 L647 292 Z " />
<glyph glyph-name="Ubreve" unicode="&#x16c;" horiz-adv-x="745" d="M380 974 Q381 971 381 967 L381 955 Q383 928 401 910.5 Q419 893 447 893 Q481 893 507.5 914.5 Q534 936 548 974 L608 974 Q590 906 546 867.5 Q502 829 442 829 Q400 829 371 849 Q342 869 328 905 Q320 927 320 974 L380 974 Z M647 292 Q640 226 627 182 Q614 138 593 106 Q556 47 497.5 16 Q439 -15 365 -15 Q288 -15 228 14.5 Q168 44 135 97 Q102 150 102 218 Q102 244 106 296 L163 754 L246 754 L189 287 Q184 252 184 227 Q184 152 232 108 Q280 64 362 64 Q404 64 441 79.5 Q478 95 504 123 Q529 151 543.5 191.5 Q558 232 566 299 L621 754 L705 754 L647 292 Z " />
<glyph glyph-name="Ucircumflex" unicode="&#xdb;" horiz-adv-x="745" d="M294 859 L472 997 L600 859 L554 818 L462 914 L337 817 L294 859 Z M647 292 Q640 226 627 182 Q614 138 593 106 Q556 47 497.5 16 Q439 -15 365 -15 Q288 -15 228 14.5 Q168 44 135 97 Q102 150 102 218 Q102 244 106 296 L163 754 L246 754 L189 287 Q185 262 185 227 Q185 194 192 171 Q199 148 215 128 Q238 98 277.5 81 Q317 64 362 64 Q404 64 441 79.5 Q478 95 504 123 Q529 151 543.5 191.5 Q558 232 566 299 L621 754 L705 754 L647 292 Z " />
<glyph glyph-name="Udieresis" unicode="&#xdc;" horiz-adv-x="745" d="M358 950 Q379 950 393.5 935.5 Q408 921 408 899 Q408 877 392 860.5 Q376 844 355 844 Q334 844 319 859.5 Q304 875 304 896 Q304 919 319.5 934.5 Q335 950 358 950 Z M548 950 Q569 950 583.5 935.5 Q598 921 598 899 Q598 877 582 860.5 Q566 844 545 844 Q523 844 508.5 859.5 Q494 875 494 897 Q494 919 509.5 934.5 Q525 950 548 950 Z M647 292 Q640 226 627 182 Q614 138 593 106 Q556 47 497.5 16 Q439 -15 365 -15 Q288 -15 228 14.5 Q168 44 135 97 Q102 150 102 218 Q102 244 106 296 L163 754 L246 754 L189 287 Q185 262 185 227 Q185 194 192 171 Q199 148 215 128 Q238 98 277.5 81 Q317 64 362 64 Q404 64 441 79.5 Q478 95 504 123 Q529 151 543.5 191.5 Q558 232 566 299 L621 754 L705 754 L647 292 Z " />
<glyph glyph-name="Ugrave" unicode="&#xd9;" horiz-adv-x="745" d="M496 842 L447 817 L346 956 L415 996 L496 842 Z M647 292 Q640 226 627 182 Q614 138 593 106 Q556 47 497.5 16 Q439 -15 365 -15 Q288 -15 228 14.5 Q168 44 135 97 Q102 150 102 218 Q102 244 106 296 L163 754 L246 754 L189 287 Q185 262 185 227 Q185 194 192 171 Q199 148 215 128 Q238 98 277.5 81 Q317 64 362 64 Q404 64 441 79.5 Q478 95 504 123 Q529 151 543.5 191.5 Q558 232 566 299 L621 754 L705 754 L647 292 Z " />
<glyph glyph-name="Uhorn" unicode="&#x1af;" horiz-adv-x="745" d="M770 591 L719 616 L792 790 L863 760 L770 591 Z M647 292 Q640 226 627 182 Q614 138 593 106 Q556 47 497.5 16 Q439 -15 365 -15 Q288 -15 228 14.5 Q168 44 135 97 Q102 150 102 218 Q102 244 106 296 L163 754 L246 754 L189 287 Q184 252 184 227 Q184 152 232 108 Q280 64 362 64 Q404 64 441 79.5 Q478 95 504 123 Q529 151 543.5 191.5 Q558 232 566 299 L621 754 L705 754 L647 292 Z " />
<glyph glyph-name="Uhungarumlaut" unicode="&#x170;" horiz-adv-x="745" d="M325 845 L450 996 L507 956 L360 822 L325 845 Z M490 845 L616 996 L672 956 L525 822 L490 845 Z M647 292 Q640 226 627 182 Q614 138 593 106 Q556 47 497.5 16 Q439 -15 365 -15 Q288 -15 228 14.5 Q168 44 135 97 Q102 150 102 218 Q102 244 106 296 L163 754 L246 754 L189 287 Q185 262 185 227 Q185 194 192 171 Q199 148 215 128 Q238 98 277.5 81 Q317 64 362 64 Q404 64 441 79.5 Q478 95 504 123 Q529 151 543.5 191.5 Q558 232 566 299 L621 754 L705 754 L647 292 Z " />
<glyph glyph-name="Umacron" unicode="&#x16a;" horiz-adv-x="745" d="M607 864 L288 864 L296 927 L615 927 L607 864 Z M647 292 Q640 226 627 182 Q614 138 593 106 Q556 47 497.5 16 Q439 -15 365 -15 Q288 -15 228 14.5 Q168 44 135 97 Q102 150 102 218 Q102 244 106 296 L163 754 L246 754 L189 287 Q185 262 185 227 Q185 194 192 171 Q199 148 215 128 Q238 98 277.5 81 Q317 64 362 64 Q404 64 441 79.5 Q478 95 504 123 Q529 151 543.5 191.5 Q558 232 566 299 L621 754 L705 754 L647 292 Z " />
<glyph glyph-name="Uogonek" unicode="&#x172;" horiz-adv-x="745" d="M497 -193 Q477 -201 466 -203.5 Q455 -206 442 -206 Q400 -206 370.5 -181 Q341 -156 341 -120 Q341 -91 357.5 -67 Q374 -43 417 -11 Q392 -16 374 -16 Q293 -16 231.5 13 Q170 42 136 95 Q102 148 102 218 Q102 244 106 296 L163 754 L246 754 L189 287 Q184 252 184 227 Q184 194 191 170.5 Q198 147 215 127 Q237 97 276.5 80 Q316 63 362 63 Q404 63 441 78.5 Q478 94 504 122 Q529 150 543.5 190.5 Q558 231 566 299 L621 754 L705 754 L647 292 Q637 210 621.5 163 Q606 116 576.5 80.5 Q547 45 489 2 Q415 -53 415 -101 Q415 -117 427 -127.5 Q439 -138 458 -138 Q469 -138 480.5 -134.5 Q492 -131 511 -123 L497 -193 Z " />
<glyph glyph-name="Uring" unicode="&#x16e;" horiz-adv-x="745" d="M451 1012 Q493 1012 522 983 Q551 954 551 912 Q551 871 521.5 841 Q492 811 451 811 Q409 811 379.5 841 Q350 871 350 912 Q350 953 379.5 982.5 Q409 1012 451 1012 Z M451 957 Q432 957 419 944 Q406 931 406 912 Q406 893 419 880 Q432 867 451 867 Q470 867 483 880.5 Q496 894 496 913 Q496 932 483 944.5 Q470 957 451 957 Z M647 292 Q640 226 627 182 Q614 138 593 106 Q556 47 497.5 16 Q439 -15 365 -15 Q288 -15 228 14.5 Q168 44 135 97 Q102 150 102 218 Q102 244 106 296 L163 754 L246 754 L189 287 Q185 262 185 227 Q185 194 192 171 Q199 148 215 128 Q238 98 277.5 81 Q317 64 362 64 Q404 64 441 79.5 Q478 95 504 123 Q529 151 543.5 191.5 Q558 232 566 299 L621 754 L705 754 L647 292 Z " />
<glyph glyph-name="Utilde" unicode="&#x168;" horiz-adv-x="745" d="M608 929 Q583 887 560 868.5 Q537 850 510 850 Q493 850 476 856 Q459 862 419 883 Q394 895 382 895 Q370 895 358 883.5 Q346 872 336 851 L286 878 Q313 922 334.5 939.5 Q356 957 382 957 Q395 957 413.5 950.5 Q432 944 469 927 Q500 912 511 912 Q524 912 534.5 921.5 Q545 931 559 955 L608 929 Z M647 292 Q640 226 627 182 Q614 138 593 106 Q556 47 497.5 16 Q439 -15 365 -15 Q288 -15 228 14.5 Q168 44 135 97 Q102 150 102 218 Q102 244 106 296 L163 754 L246 754 L189 287 Q184 252 184 227 Q184 152 232 108 Q280 64 362 64 Q404 64 441 79.5 Q478 95 504 123 Q529 151 543.5 191.5 Q558 232 566 299 L621 754 L705 754 L647 292 Z " />
<glyph glyph-name="V" unicode="V" horiz-adv-x="631" d="M72 754 L157 754 L298 182 L589 754 L680 754 L272 -25 L72 754 Z " />
<glyph glyph-name="W" unicode="W" horiz-adv-x="1033" d="M298 188 L580 775 L724 190 L992 754 L1083 754 L699 -34 L556 553 L270 -34 L72 754 L158 754 L298 188 Z " />
<glyph glyph-name="Wacute" unicode="&#x1e82;" horiz-adv-x="1033" d="M520 845 L647 996 L715 951 L562 817 L520 845 Z M298 188 L580 775 L724 190 L992 754 L1083 754 L699 -34 L556 553 L270 -34 L72 754 L158 754 L298 188 Z " />
<glyph glyph-name="Wcircumflex" unicode="&#x174;" horiz-adv-x="1033" d="M434 859 L612 997 L740 859 L694 818 L602 914 L476 817 L434 859 Z M298 188 L580 775 L724 190 L992 754 L1083 754 L699 -34 L556 553 L270 -34 L72 754 L158 754 L298 188 Z " />
<glyph glyph-name="Wdieresis" unicode="&#x1e84;" horiz-adv-x="1033" d="M504 950 Q525 950 539.5 935.5 Q554 921 554 899 Q554 877 538 860.5 Q522 844 501 844 Q480 844 465 859.5 Q450 875 450 896 Q450 919 465.5 934.5 Q481 950 504 950 Z M694 950 Q715 950 729.5 935.5 Q744 921 744 899 Q744 877 728 860.5 Q712 844 690 844 Q669 844 654.5 859.5 Q640 875 640 896 Q640 919 655.5 934.5 Q671 950 694 950 Z M298 188 L580 775 L724 190 L992 754 L1083 754 L699 -34 L556 553 L270 -34 L72 754 L158 754 L298 188 Z " />
<glyph glyph-name="Wgrave" unicode="&#x1e80;" horiz-adv-x="1033" d="M653 842 L605 817 L503 956 L572 996 L653 842 Z M298 188 L580 775 L724 190 L992 754 L1083 754 L699 -34 L556 553 L270 -34 L72 754 L158 754 L298 188 Z " />
<glyph glyph-name="X" unicode="X" horiz-adv-x="570" d="M433 0 L296 313 L81 0 L-17 0 L259 397 L101 754 L190 754 L312 473 L502 754 L601 754 L349 391 L523 0 L433 0 Z " />
<glyph glyph-name="Y" unicode="Y" horiz-adv-x="588" d="M217 0 L260 344 L64 754 L155 754 L311 423 L539 754 L636 754 L341 334 L301 0 L217 0 Z " />
<glyph glyph-name="Yacute" unicode="&#xdd;" horiz-adv-x="588" d="M303 845 L431 996 L498 951 L345 817 L303 845 Z M217 0 L260 344 L64 754 L155 754 L311 423 L539 754 L636 754 L341 334 L301 0 L217 0 Z " />
<glyph glyph-name="Ycircumflex" unicode="&#x176;" horiz-adv-x="588" d="M207 859 L386 997 L513 859 L467 818 L375 914 L250 817 L207 859 Z M217 0 L260 344 L64 754 L155 754 L311 423 L539 754 L636 754 L341 334 L301 0 L217 0 Z " />
<glyph glyph-name="Ydieresis" unicode="&#x178;" horiz-adv-x="588" d="M269 950 Q290 950 304.5 935.5 Q319 921 319 899 Q319 877 303 860.5 Q287 844 266 844 Q245 844 230 859.5 Q215 875 215 896 Q215 919 230.5 934.5 Q246 950 269 950 Z M460 950 Q481 950 495.5 935.5 Q510 921 510 899 Q510 877 494 860.5 Q478 844 457 844 Q436 844 421 859.5 Q406 875 406 896 Q406 919 421.5 934.5 Q437 950 460 950 Z M217 0 L260 344 L64 754 L155 754 L311 423 L539 754 L636 754 L341 334 L301 0 L217 0 Z " />
<glyph glyph-name="Ygrave" unicode="&#x1ef2;" horiz-adv-x="588" d="M426 842 L377 817 L276 956 L346 996 L426 842 Z M217 0 L260 344 L64 754 L155 754 L311 423 L539 754 L636 754 L341 334 L301 0 L217 0 Z " />
<glyph glyph-name="Z" unicode="Z" horiz-adv-x="618" d="M2 0 L502 677 L139 677 L149 754 L653 754 L154 77 L548 77 L538 0 L2 0 Z " />
<glyph glyph-name="Zacute" unicode="&#x179;" horiz-adv-x="618" d="M348 845 L477 996 L544 951 L391 817 L348 845 Z M2 0 L502 677 L139 677 L149 754 L653 754 L154 77 L548 77 L538 0 L2 0 Z " />
<glyph glyph-name="Zcaron" unicode="&#x17d;" horiz-adv-x="618" d="M574 955 L395 817 L268 955 L314 996 L406 899 L532 997 L574 955 Z M2 0 L502 677 L139 677 L149 754 L653 754 L154 77 L548 77 L538 0 L2 0 Z " />
<glyph glyph-name="Zdotaccent" unicode="&#x17b;" horiz-adv-x="618" d="M409 953 Q431 953 446 937 Q461 921 461 898 Q461 876 444.5 859 Q428 842 406 842 Q384 842 368.5 858 Q353 874 353 897 Q353 920 369 936.5 Q385 953 409 953 Z M2 0 L502 677 L139 677 L149 754 L653 754 L154 77 L548 77 L538 0 L2 0 Z " />
<glyph glyph-name="uni01C4" unicode="&#x1c4;" horiz-adv-x="1336" d="M1293 955 L1113 817 L985 955 L1032 996 L1123 899 L1250 997 L1293 955 Z M314 754 Q391 754 438 745.5 Q485 737 522 715 Q593 674 635 591 Q677 508 677 405 Q677 280 619 179 Q561 78 464 34 Q421 14 375 7 Q329 0 245 0 L70 0 L163 754 L314 754 Z M720 0 L1219 677 L858 677 L867 754 L1371 754 L871 77 L1266 77 L1255 0 L720 0 Z M257 77 Q331 77 375 86.5 Q419 96 457 120 Q518 159 555 238 Q592 317 592 407 Q592 495 556 562 Q520 629 459 655 Q432 666 399 671.5 Q366 677 319 677 L236 677 L163 77 L257 77 Z " />
<glyph glyph-name="uni01C5" unicode="&#x1c5;" horiz-adv-x="1215" d="M314 754 Q391 754 438 745.5 Q485 737 522 715 Q593 674 635 591 Q677 508 677 405 Q677 280 619 179 Q561 78 464 34 Q421 14 375 7 Q329 0 245 0 L70 0 L163 754 L314 754 Z M1166 684 L1001 534 L889 684 L932 724 L1012 619 L1127 725 L1166 684 Z M257 77 Q331 77 375 86.5 Q419 96 457 120 Q518 159 555 238 Q592 317 592 407 Q592 495 556 562 Q520 629 459 655 Q432 666 399 671.5 Q366 677 319 677 L236 677 L163 77 L257 77 Z M712 0 L1054 385 L796 385 L805 457 L1211 457 L868 71 L1166 71 L1157 0 L712 0 Z " />
<glyph glyph-name="uni01C7" unicode="&#x1c7;" horiz-adv-x="840" d="M392 77 L383 0 L70 0 L163 754 L245 754 L163 77 L392 77 Z M734 229 Q725 155 716 118 Q707 81 693 58 Q671 22 637 3.5 Q603 -15 560 -15 Q477 -15 417 64 L469 123 Q492 90 511 77 Q530 64 557 64 Q587 64 604 79 Q621 94 632 129.5 Q643 165 651 231 L715 754 L798 754 L734 229 Z " />
<glyph glyph-name="uni01C8" unicode="&#x1c8;" horiz-adv-x="669" d="M392 77 L383 0 L70 0 L163 754 L245 754 L163 77 L392 77 Z M600 607 Q581 607 567.5 621 Q554 635 554 655 Q554 677 568.5 691.5 Q583 706 603 706 Q623 706 636.5 692 Q650 678 650 658 Q650 638 635 622.5 Q620 607 600 607 Z M411 -263 Q373 -263 355 -251 L366 -172 Q374 -178 385.5 -182 Q397 -186 409 -186 Q436 -186 449 -169.5 Q462 -153 467 -115 L537 457 L616 457 L546 -121 Q536 -203 503 -233 Q485 -250 462.5 -256.5 Q440 -263 411 -263 Z " />
<glyph glyph-name="uni01CA" unicode="&#x1ca;" horiz-adv-x="1244" d="M225 584 L153 0 L70 0 L167 786 L642 166 L714 754 L798 754 L701 -37 L225 584 Z M1139 229 Q1130 157 1120.5 119.5 Q1111 82 1097 58 Q1075 22 1041.5 3.5 Q1008 -15 965 -15 Q880 -15 822 64 L873 123 Q897 90 916 77 Q935 64 962 64 Q991 64 1008.5 79 Q1026 94 1036.5 129.5 Q1047 165 1055 231 L1120 754 L1202 754 L1139 229 Z " />
<glyph glyph-name="uni01CB" unicode="&#x1cb;" horiz-adv-x="1072" d="M225 584 L153 0 L70 0 L167 786 L642 166 L714 754 L798 754 L701 -37 L225 584 Z M1003 607 Q984 607 970.5 621 Q957 635 957 655 Q957 677 971.5 691.5 Q986 706 1006 706 Q1026 706 1039.5 692 Q1053 678 1053 658 Q1053 638 1038 622.5 Q1023 607 1003 607 Z M814 -263 Q776 -263 758 -251 L769 -172 Q777 -178 788.5 -182 Q800 -186 812 -186 Q839 -186 852 -169.5 Q865 -153 870 -115 L940 457 L1019 457 L949 -121 Q939 -203 906 -233 Q888 -250 865.5 -256.5 Q843 -263 814 -263 Z " />
<glyph glyph-name="uni01CD" unicode="&#x1cd;" horiz-adv-x="697" d="M601 955 L421 817 L295 955 L341 996 L432 899 L558 997 L601 955 Z M2 0 L421 799 L654 0 L568 0 L510 210 L203 210 L94 0 L2 0 Z M401 596 L243 287 L486 287 L401 596 Z " />
<glyph glyph-name="uni01CF" unicode="&#x1cf;" horiz-adv-x="287" d="M385 955 L206 817 L78 955 L124 996 L216 899 L342 997 L385 955 Z M70 0 L163 754 L246 754 L153 0 L70 0 Z " />
<glyph glyph-name="uni01D1" unicode="&#x1d1;" horiz-adv-x="887" d="M646 955 L467 817 L340 955 L386 996 L477 899 L603 997 L646 955 Z M470 768 Q581 768 666 721.5 Q751 675 798 590 Q845 505 845 395 Q845 280 793 186.5 Q741 93 650 39 Q559 -15 447 -15 Q338 -15 253 32.5 Q168 80 120 165.5 Q72 251 72 359 Q72 475 124 568.5 Q176 662 267 715 Q358 768 470 768 Z M472 689 Q383 689 311 646.5 Q239 604 198 529.5 Q157 455 157 363 Q157 278 194.5 209.5 Q232 141 299 102.5 Q366 64 450 64 Q537 64 608 107.5 Q679 151 719.5 227 Q760 303 760 397 Q760 485 724.5 551 Q689 617 624 653 Q559 689 472 689 Z " />
<glyph glyph-name="uni01D3" unicode="&#x1d3;" horiz-adv-x="745" d="M611 955 L433 817 L305 955 L351 996 L443 899 L570 997 L611 955 Z M647 292 Q640 226 627 182 Q614 138 593 106 Q556 47 497.5 16 Q439 -15 365 -15 Q288 -15 228 14.5 Q168 44 135 97 Q102 150 102 218 Q102 244 106 296 L163 754 L246 754 L189 287 Q185 262 185 227 Q185 194 192 171 Q199 148 215 128 Q238 98 277.5 81 Q317 64 362 64 Q404 64 441 79.5 Q478 95 504 123 Q529 151 543.5 191.5 Q558 232 566 299 L621 754 L705 754 L647 292 Z " />
<glyph glyph-name="uni01F4" unicode="&#x1f4;" horiz-adv-x="842" d="M445 845 L573 996 L641 951 L487 817 L445 845 Z M798 360 Q791 287 774 236.5 Q757 186 724 138 Q675 65 598 25 Q521 -15 432 -15 Q329 -15 247 33 Q165 81 118 165 Q71 249 71 354 Q71 436 100.5 515.5 Q130 595 182 651 Q234 708 305 738 Q376 768 459 768 Q564 768 643 725 Q722 682 780 593 L722 542 Q703 573 687 591.5 Q671 610 650 627 Q611 657 560.5 673 Q510 689 457 689 Q371 689 302.5 646 Q234 603 195 526.5 Q156 450 156 354 Q156 271 191.5 204.5 Q227 138 291 101 Q355 64 435 64 Q538 64 609 122 Q680 180 704 284 L480 284 L489 360 L798 360 Z " />
<glyph glyph-name="uni0200" unicode="&#x200;" horiz-adv-x="697" d="M370 845 L336 822 L189 956 L245 996 L370 845 Z M536 845 L501 822 L354 956 L411 996 L536 845 Z M2 0 L421 799 L654 0 L568 0 L510 210 L203 210 L94 0 L2 0 Z M401 596 L243 287 L486 287 L401 596 Z " />
<glyph glyph-name="uni021A" unicode="&#x21a;" horiz-adv-x="473" d="M167 0 L251 677 L63 677 L72 754 L524 754 L514 677 L333 677 L250 0 L167 0 Z M155 -258 L104 -234 L179 -60 L250 -89 L155 -258 Z " />
<glyph glyph-name="uni0226" unicode="&#x226;" horiz-adv-x="697" d="M433 953 Q455 953 470 937 Q485 921 485 898 Q485 876 468.5 859 Q452 842 429 842 Q407 842 391.5 858 Q376 874 376 897 Q376 920 392.5 936.5 Q409 953 433 953 Z M2 0 L421 799 L654 0 L568 0 L510 210 L203 210 L94 0 L2 0 Z M401 596 L243 287 L486 287 L401 596 Z " />
<glyph glyph-name="uni1E1E" unicode="&#x1e1e;" horiz-adv-x="487" d="M353 953 Q375 953 390 937 Q405 921 405 898 Q405 876 388.5 859 Q372 842 349 842 Q327 842 311.5 858 Q296 874 296 897 Q296 920 312.5 936.5 Q329 953 353 953 Z M236 677 L208 447 L469 447 L460 371 L199 371 L153 0 L70 0 L163 754 L506 754 L497 677 L236 677 Z " />
<glyph glyph-name="uni1EA0" unicode="&#x1ea0;" horiz-adv-x="697" d="M2 0 L421 799 L654 0 L568 0 L510 210 L203 210 L94 0 L2 0 Z M401 596 L243 287 L486 287 L401 596 Z M340 -41 Q363 -41 378.5 -56.5 Q394 -72 394 -95 Q394 -116 378 -132 Q362 -148 340 -148 Q319 -148 303.5 -132 Q288 -116 288 -94 Q288 -72 303 -56.5 Q318 -41 340 -41 Z " />
<glyph glyph-name="uni1EA2" unicode="&#x1ea2;" horiz-adv-x="697" d="M419 911 Q447 916 457 916 Q497 921 513 933.5 Q529 946 529 971 Q529 988 515.5 997.5 Q502 1007 478 1007 Q463 1007 456.5 1005.5 Q450 1004 432 996 L411 986 L405 1023 Q440 1035 462.5 1039.5 Q485 1044 508 1044 Q550 1044 574.5 1025 Q599 1006 599 974 Q599 934 570 909.5 Q541 885 494 885 Q472 885 459 886 L450 842 L405 842 L419 911 Z M2 0 L421 799 L654 0 L568 0 L510 210 L203 210 L94 0 L2 0 Z M401 596 L243 287 L486 287 L401 596 Z " />
<glyph glyph-name="uni1EA4" unicode="&#x1ea4;" horiz-adv-x="697" d="M694 1011 L550 886 L575 859 L529 818 L437 914 L312 817 L269 859 L449 997 L514 924 L626 1055 L694 1011 Z M2 0 L421 799 L654 0 L568 0 L510 210 L203 210 L94 0 L2 0 Z M401 596 L243 287 L486 287 L401 596 Z " />
<glyph glyph-name="uni1EA6" unicode="&#x1ea6;" horiz-adv-x="697" d="M641 907 L592 884 L490 1022 L560 1061 L641 907 Z M263 859 L443 997 L570 859 L523 818 L432 914 L306 817 L263 859 Z M2 0 L421 799 L654 0 L568 0 L510 210 L203 210 L94 0 L2 0 Z M401 596 L243 287 L486 287 L401 596 Z " />
<glyph glyph-name="uni1EA8" unicode="&#x1ea8;" horiz-adv-x="697" d="M572 958 Q613 963 629 975 Q645 987 645 1012 Q645 1029 631.5 1038.5 Q618 1048 594 1048 Q578 1048 571.5 1046.5 Q565 1045 548 1036 L528 1028 L521 1063 Q555 1075 578 1080 Q601 1085 625 1085 Q666 1085 690.5 1066 Q715 1047 715 1015 Q715 975 685.5 950 Q656 925 610 925 L575 927 L566 884 L553 884 L575 859 L529 818 L437 914 L312 817 L269 859 L449 997 L527 911 L536 953 L572 958 Z M2 0 L421 799 L654 0 L568 0 L510 210 L203 210 L94 0 L2 0 Z M401 596 L243 287 L486 287 L401 596 Z " />
<glyph glyph-name="uni1EAA" unicode="&#x1eaa;" horiz-adv-x="697" d="M618 1087 Q593 1046 570 1027 Q547 1008 520 1008 Q504 1008 488 1014 Q472 1020 429 1041 Q405 1053 392 1053 Q367 1053 346 1009 L297 1035 Q323 1079 344.5 1097 Q366 1115 392 1115 Q405 1115 424.5 1108.5 Q444 1102 479 1085 Q495 1078 505 1074 Q515 1070 521 1070 Q534 1070 544.5 1079.5 Q555 1089 570 1113 L618 1087 Z M269 859 L449 997 L575 859 L529 818 L437 914 L312 817 L269 859 Z M2 0 L421 799 L654 0 L568 0 L510 210 L203 210 L94 0 L2 0 Z M401 596 L243 287 L486 287 L401 596 Z " />
<glyph glyph-name="uni1EAC" unicode="&#x1eac;" horiz-adv-x="697" d="M269 859 L449 997 L575 859 L529 818 L437 914 L312 817 L269 859 Z M2 0 L421 799 L654 0 L568 0 L510 210 L203 210 L94 0 L2 0 Z M401 596 L243 287 L486 287 L401 596 Z M340 -41 Q363 -41 378.5 -56.5 Q394 -72 394 -95 Q394 -116 378 -132 Q362 -148 340 -148 Q319 -148 303.5 -132 Q288 -116 288 -94 Q288 -72 303 -56.5 Q318 -41 340 -41 Z " />
<glyph glyph-name="uni1EAE" unicode="&#x1eae;" horiz-adv-x="697" d="M407 963 L534 1112 L602 1069 L449 935 L407 963 Z M365 974 Q365 933 381.5 913 Q398 893 432 893 Q466 893 492 914.5 Q518 936 532 974 L593 974 Q576 907 531 868 Q486 829 427 829 Q370 829 337 864 Q304 899 304 958 L304 974 L365 974 Z M2 0 L421 799 L654 0 L568 0 L510 210 L203 210 L94 0 L2 0 Z M401 596 L243 287 L486 287 L401 596 Z " />
<glyph glyph-name="uni1EB0" unicode="&#x1eb0;" horiz-adv-x="697" d="M479 960 L431 937 L329 1075 L399 1115 L479 960 Z M365 974 Q365 933 381.5 913 Q398 893 432 893 Q466 893 492 914.5 Q518 936 532 974 L593 974 Q576 907 531 868 Q486 829 427 829 Q370 829 337 864 Q304 899 304 958 L304 974 L365 974 Z M2 0 L421 799 L654 0 L568 0 L510 210 L203 210 L94 0 L2 0 Z M401 596 L243 287 L486 287 L401 596 Z " />
<glyph glyph-name="uni1EB2" unicode="&#x1eb2;" horiz-adv-x="697" d="M431 1018 Q455 1024 467 1024 Q508 1029 524 1041 Q540 1053 540 1078 Q540 1095 526.5 1104.5 Q513 1114 489 1114 Q474 1114 467.5 1112.5 Q461 1111 443 1103 Q431 1097 423 1094 L416 1130 Q449 1142 472.5 1146.5 Q496 1151 520 1151 Q561 1151 585.5 1132 Q610 1113 610 1081 Q610 1041 581 1016.5 Q552 992 505 992 Q484 992 470 993 L461 949 L416 949 L431 1018 Z M365 974 Q365 933 381.5 913 Q398 893 432 893 Q466 893 492 914.5 Q518 936 532 974 L593 974 Q576 907 531 868 Q486 829 427 829 Q370 829 337 864 Q304 899 304 958 L304 974 L365 974 Z M2 0 L421 799 L654 0 L568 0 L510 210 L203 210 L94 0 L2 0 Z M401 596 L243 287 L486 287 L401 596 Z " />
<glyph glyph-name="uni1EB4" unicode="&#x1eb4;" horiz-adv-x="697" d="M617 1084 Q592 1042 569 1023.5 Q546 1005 519 1005 Q503 1005 486 1011 Q469 1017 428 1037 Q402 1050 391 1050 Q367 1050 345 1006 L295 1032 Q322 1076 343.5 1094 Q365 1112 391 1112 Q404 1112 423.5 1105 Q443 1098 478 1081 Q510 1067 520 1067 Q533 1067 543.5 1076.5 Q554 1086 568 1110 L617 1084 Z M365 974 Q365 933 381.5 913 Q398 893 432 893 Q466 893 492 914.5 Q518 936 532 974 L593 974 Q576 907 531 868 Q486 829 427 829 Q370 829 337 864 Q304 899 304 958 L304 974 L365 974 Z M2 0 L421 799 L654 0 L568 0 L510 210 L203 210 L94 0 L2 0 Z M401 596 L243 287 L486 287 L401 596 Z " />
<glyph glyph-name="uni1EB6" unicode="&#x1eb6;" horiz-adv-x="697" d="M365 974 Q365 933 381.5 913 Q398 893 432 893 Q466 893 492 914.5 Q518 936 532 974 L593 974 Q576 907 531 868 Q486 829 427 829 Q370 829 337 864 Q304 899 304 958 L304 974 L365 974 Z M2 0 L421 799 L654 0 L568 0 L510 210 L203 210 L94 0 L2 0 Z M401 596 L243 287 L486 287 L401 596 Z M340 -41 Q363 -41 378.5 -56.5 Q394 -72 394 -95 Q394 -116 378 -132 Q362 -148 340 -148 Q319 -148 303.5 -132 Q288 -116 288 -94 Q288 -72 303 -56.5 Q318 -41 340 -41 Z " />
<glyph glyph-name="uni1EB8" unicode="&#x1eb8;" horiz-adv-x="528" d="M236 677 L208 446 L494 446 L485 370 L199 370 L163 77 L449 77 L440 0 L70 0 L163 754 L532 754 L522 677 L236 677 Z M233 -41 Q256 -41 271.5 -56.5 Q287 -72 287 -95 Q287 -116 271 -132 Q255 -148 233 -148 Q212 -148 196.5 -132 Q181 -116 181 -94 Q181 -71 196 -56 Q211 -41 233 -41 Z " />
<glyph glyph-name="uni1EBA" unicode="&#x1eba;" horiz-adv-x="528" d="M341 894 Q368 899 377 899 Q418 904 434.5 916.5 Q451 929 451 954 Q451 971 437.5 980.5 Q424 990 400 990 Q385 990 378 988.5 Q371 987 354 979 L333 970 L327 1006 Q360 1018 383.5 1022.5 Q407 1027 431 1027 Q472 1027 496.5 1008 Q521 989 521 957 Q521 917 491.5 892.5 Q462 868 415 868 Q394 868 381 869 L372 825 L327 825 L341 894 Z M236 677 L208 446 L494 446 L485 370 L199 370 L163 77 L449 77 L440 0 L70 0 L163 754 L532 754 L522 677 L236 677 Z " />
<glyph glyph-name="uni1EBC" unicode="&#x1ebc;" horiz-adv-x="528" d="M504 929 Q479 887 456 868.5 Q433 850 406 850 Q390 850 373 856 Q356 862 315 883 Q291 895 278 895 Q254 895 232 851 L183 878 Q209 922 230.5 939.5 Q252 957 278 957 Q291 957 310.5 950.5 Q330 944 366 927 Q396 912 408 912 Q420 912 430.5 921.5 Q441 931 455 955 L504 929 Z M236 677 L208 446 L494 446 L485 370 L199 370 L163 77 L449 77 L440 0 L70 0 L163 754 L532 754 L522 677 L236 677 Z " />
<glyph glyph-name="uni1EBE" unicode="&#x1ebe;" horiz-adv-x="528" d="M631 1009 L485 881 L506 859 L460 818 L368 914 L242 817 L200 859 L379 997 L450 920 L563 1053 L631 1009 Z M236 677 L208 446 L494 446 L485 370 L199 370 L163 77 L449 77 L440 0 L70 0 L163 754 L532 754 L522 677 L236 677 Z " />
<glyph glyph-name="uni1EC0" unicode="&#x1ec0;" horiz-adv-x="528" d="M586 897 L538 873 L436 1011 L506 1051 L586 897 Z M210 849 L389 986 L516 849 L470 808 L379 904 L252 808 L210 849 Z M236 677 L208 446 L494 446 L485 370 L199 370 L163 77 L449 77 L440 0 L70 0 L163 754 L532 754 L522 677 L236 677 Z " />
<glyph glyph-name="uni1EC2" unicode="&#x1ec2;" horiz-adv-x="528" d="M503 958 Q544 963 560 975 Q576 987 576 1012 Q576 1029 562.5 1038.5 Q549 1048 525 1048 Q509 1048 502.5 1046.5 Q496 1045 479 1036 L459 1028 L452 1063 Q486 1075 509 1080 Q532 1085 556 1085 Q597 1085 621.5 1066 Q646 1047 646 1015 Q646 975 616.5 950 Q587 925 541 925 L506 927 L497 884 L483 884 L506 859 L460 818 L368 914 L242 817 L200 859 L379 997 L458 911 L467 953 L503 958 Z M236 677 L208 446 L494 446 L485 370 L199 370 L163 77 L449 77 L440 0 L70 0 L163 754 L532 754 L522 677 L236 677 Z " />
<glyph glyph-name="uni1EC4" unicode="&#x1ec4;" horiz-adv-x="528" d="M553 1090 Q527 1049 503.5 1030 Q480 1011 452 1011 Q439 1011 427.5 1015.5 Q416 1020 364 1044 Q349 1051 340.5 1054 Q332 1057 327 1057 Q302 1057 279 1012 L231 1040 Q257 1083 278.5 1101 Q300 1119 325 1119 Q340 1119 358.5 1112.5 Q377 1106 414 1088 Q429 1081 438.5 1077.5 Q448 1074 455 1074 Q468 1074 479 1084 Q490 1094 504 1118 L553 1090 Z M200 859 L379 997 L506 859 L460 818 L368 914 L242 817 L200 859 Z M236 677 L208 446 L494 446 L485 370 L199 370 L163 77 L449 77 L440 0 L70 0 L163 754 L532 754 L522 677 L236 677 Z " />
<glyph glyph-name="uni1EC6" unicode="&#x1ec6;" horiz-adv-x="528" d="M200 859 L379 997 L506 859 L460 818 L368 914 L242 817 L200 859 Z M236 677 L208 446 L494 446 L485 370 L199 370 L163 77 L449 77 L440 0 L70 0 L163 754 L532 754 L522 677 L236 677 Z M255 -41 Q278 -41 294 -56.5 Q310 -72 310 -95 Q310 -116 293.5 -132 Q277 -148 255 -148 Q234 -148 218.5 -132 Q203 -116 203 -94 Q203 -72 218 -56.5 Q233 -41 255 -41 Z " />
<glyph glyph-name="uni1EC8" unicode="&#x1ec8;" horiz-adv-x="287" d="M203 894 Q231 899 240 899 Q280 904 296.5 916.5 Q313 929 313 954 Q313 971 299.5 980.5 Q286 990 262 990 Q247 990 240 988.5 Q233 987 216 979 L195 970 L189 1006 Q222 1018 245.5 1022.5 Q269 1027 293 1027 Q334 1027 358.5 1008 Q383 989 383 957 Q383 917 354 892.5 Q325 868 278 868 Q257 868 243 869 L234 825 L189 825 L203 894 Z M70 0 L163 754 L246 754 L153 0 L70 0 Z " />
<glyph glyph-name="uni1ECA" unicode="&#x1eca;" horiz-adv-x="287" d="M70 0 L163 754 L245 754 L153 0 L70 0 Z M99 -41 Q122 -41 138 -56.5 Q154 -72 154 -95 Q154 -116 137.5 -132 Q121 -148 99 -148 Q78 -148 62.5 -132 Q47 -116 47 -94 Q47 -72 62 -56.5 Q77 -41 99 -41 Z " />
<glyph glyph-name="uni1ECC" unicode="&#x1ecc;" horiz-adv-x="887" d="M470 768 Q581 768 666 721.5 Q751 675 798 590 Q845 505 845 395 Q845 280 793 186.5 Q741 93 650 39 Q559 -15 447 -15 Q338 -15 253 32.5 Q168 80 120 165.5 Q72 251 72 359 Q72 475 124 568.5 Q176 662 267 715 Q358 768 470 768 Z M472 689 Q383 689 311 646.5 Q239 604 198 529.5 Q157 455 157 363 Q157 278 194.5 209.5 Q232 141 299 102.5 Q366 64 450 64 Q537 64 608 107.5 Q679 151 719.5 227 Q760 303 760 397 Q760 485 724.5 551 Q689 617 624 653 Q559 689 472 689 Z M435 -41 Q458 -41 473.5 -56.5 Q489 -72 489 -95 Q489 -116 473 -132 Q457 -148 435 -148 Q414 -148 398.5 -132 Q383 -116 383 -94 Q383 -72 398 -56.5 Q413 -41 435 -41 Z " />
<glyph glyph-name="uni1ECE" unicode="&#x1ece;" horiz-adv-x="887" d="M464 894 Q491 899 501 899 Q541 904 557.5 916.5 Q574 929 574 954 Q574 971 560.5 980.5 Q547 990 523 990 Q508 990 501 988.5 Q494 987 477 979 Q464 973 455 970 L450 1006 Q482 1018 505.5 1022.5 Q529 1027 554 1027 Q595 1027 619.5 1008 Q644 989 644 957 Q644 917 614.5 892.5 Q585 868 538 868 Q518 868 504 869 L495 825 L450 825 L464 894 Z M470 768 Q581 768 666 721.5 Q751 675 798 590 Q845 505 845 395 Q845 280 793 186.5 Q741 93 650 39 Q559 -15 447 -15 Q338 -15 253 32.5 Q168 80 120 165.5 Q72 251 72 359 Q72 475 124 568.5 Q176 662 267 715 Q358 768 470 768 Z M472 689 Q383 689 311 646.5 Q239 604 198 529.5 Q157 455 157 363 Q157 278 194.5 209.5 Q232 141 299 102.5 Q366 64 450 64 Q537 64 608 107.5 Q679 151 719.5 227 Q760 303 760 397 Q760 485 724.5 551 Q689 617 624 653 Q559 689 472 689 Z " />
<glyph glyph-name="uni1ED0" unicode="&#x1ed0;" horiz-adv-x="887" d="M781 1007 L640 884 L663 859 L617 818 L525 914 L400 817 L357 859 L537 997 L603 923 L713 1051 L781 1007 Z M471 768 Q579 768 664.5 721.5 Q750 675 797.5 592.5 Q845 510 845 405 Q845 284 794 188 Q743 92 652 38.5 Q561 -15 446 -15 Q338 -15 253 33 Q168 81 120 166 Q72 251 72 359 Q72 476 124 569 Q176 662 267 715 Q358 768 471 768 Z M472 689 Q383 689 311 646.5 Q239 604 198 529.5 Q157 455 157 363 Q157 278 194.5 209.5 Q232 141 299 102.5 Q366 64 450 64 Q537 64 608 107.5 Q679 151 719.5 227 Q760 303 760 397 Q760 485 724.5 551 Q689 617 624 653 Q559 689 472 689 Z " />
<glyph glyph-name="uni1ED2" unicode="&#x1ed2;" horiz-adv-x="887" d="M697 907 L649 884 L546 1022 L616 1061 L697 907 Z M320 859 L498 997 L626 859 L580 818 L488 914 L362 817 L320 859 Z M471 768 Q579 768 664.5 721.5 Q750 675 797.5 592.5 Q845 510 845 405 Q845 284 794 188 Q743 92 652 38.5 Q561 -15 446 -15 Q338 -15 253 33 Q168 81 120 166 Q72 251 72 359 Q72 476 124 569 Q176 662 267 715 Q358 768 471 768 Z M472 689 Q383 689 311 646.5 Q239 604 198 529.5 Q157 455 157 363 Q157 278 194.5 209.5 Q232 141 299 102.5 Q366 64 450 64 Q537 64 608 107.5 Q679 151 719.5 227 Q760 303 760 397 Q760 485 724.5 551 Q689 617 624 653 Q559 689 472 689 Z " />
<glyph glyph-name="uni1ED4" unicode="&#x1ed4;" horiz-adv-x="887" d="M662 960 Q703 965 719.5 977 Q736 989 736 1014 Q736 1030 722 1040 Q708 1050 685 1050 Q668 1050 661.5 1048.5 Q655 1047 638 1038 L618 1029 L611 1066 Q673 1087 715 1087 Q757 1087 781.5 1068 Q806 1049 806 1017 Q806 977 777 952.5 Q748 928 701 928 Q678 928 666 929 L657 885 L638 885 L663 859 L617 818 L525 914 L400 817 L357 859 L537 997 L616 910 L626 955 L662 960 Z M471 768 Q579 768 664.5 721.5 Q750 675 797.5 592.5 Q845 510 845 405 Q845 284 794 188 Q743 92 652 38.5 Q561 -15 446 -15 Q338 -15 253 33 Q168 81 120 166 Q72 251 72 359 Q72 476 124 569 Q176 662 267 715 Q358 768 471 768 Z M472 689 Q383 689 311 646.5 Q239 604 198 529.5 Q157 455 157 363 Q157 278 194.5 209.5 Q232 141 299 102.5 Q366 64 450 64 Q537 64 608 107.5 Q679 151 719.5 227 Q760 303 760 397 Q760 485 724.5 551 Q689 617 624 653 Q559 689 472 689 Z " />
<glyph glyph-name="uni1ED6" unicode="&#x1ed6;" horiz-adv-x="887" d="M695 1089 Q670 1048 646.5 1028.5 Q623 1009 597 1009 Q581 1009 562.5 1015.5 Q544 1022 506 1042 Q481 1055 469 1055 Q444 1055 423 1010 L373 1037 Q400 1082 421.5 1100 Q443 1118 469 1118 Q483 1118 501 1111.5 Q519 1105 556 1087 Q572 1079 582 1075 Q592 1071 598 1071 Q611 1071 621 1081 Q631 1091 646 1115 L695 1089 Z M357 859 L537 997 L663 859 L617 818 L525 914 L400 817 L357 859 Z M470 768 Q581 768 666 721.5 Q751 675 798 590 Q845 505 845 395 Q845 280 793 186.5 Q741 93 650 39 Q559 -15 447 -15 Q338 -15 253 32.5 Q168 80 120 165.5 Q72 251 72 359 Q72 475 124 568.5 Q176 662 267 715 Q358 768 470 768 Z M472 689 Q383 689 311 646.5 Q239 604 198 529.5 Q157 455 157 363 Q157 278 194.5 209.5 Q232 141 299 102.5 Q366 64 450 64 Q537 64 608 107.5 Q679 151 719.5 227 Q760 303 760 397 Q760 485 724.5 551 Q689 617 624 653 Q559 689 472 689 Z " />
<glyph glyph-name="uni1ED8" unicode="&#x1ed8;" horiz-adv-x="887" d="M357 859 L537 997 L663 859 L617 818 L525 914 L400 817 L357 859 Z M470 768 Q581 768 666 721.5 Q751 675 798 590 Q845 505 845 395 Q845 280 793 186.5 Q741 93 650 39 Q559 -15 447 -15 Q338 -15 253 32.5 Q168 80 120 165.5 Q72 251 72 359 Q72 475 124 568.5 Q176 662 267 715 Q358 768 470 768 Z M472 689 Q383 689 311 646.5 Q239 604 198 529.5 Q157 455 157 363 Q157 278 194.5 209.5 Q232 141 299 102.5 Q366 64 450 64 Q537 64 608 107.5 Q679 151 719.5 227 Q760 303 760 397 Q760 485 724.5 551 Q689 617 624 653 Q559 689 472 689 Z M435 -41 Q458 -41 473.5 -56.5 Q489 -72 489 -95 Q489 -116 473 -132 Q457 -148 435 -148 Q414 -148 398.5 -132 Q383 -116 383 -94 Q383 -72 398 -56.5 Q413 -41 435 -41 Z " />
<glyph glyph-name="uni1EDA" unicode="&#x1eda;" horiz-adv-x="887" d="M484 845 L611 996 L679 951 L525 817 L484 845 Z M868 765 L784 614 Q845 523 845 401 Q845 282 793.5 187 Q742 92 651.5 38.5 Q561 -15 447 -15 Q338 -15 253 32.5 Q168 80 120 165.5 Q72 251 72 359 Q72 476 124 569 Q176 662 267 715 Q358 768 471 768 Q553 768 622.5 741 Q692 714 742 664 L798 794 L868 765 Z M472 689 Q383 689 311 646.5 Q239 604 198 529.5 Q157 455 157 363 Q157 278 194.5 209.5 Q232 141 299 102.5 Q366 64 450 64 Q537 64 608 107.5 Q679 151 719.5 227 Q760 303 760 397 Q760 485 724.5 551 Q689 617 624 653 Q559 689 472 689 Z " />
<glyph glyph-name="uni1EDC" unicode="&#x1edc;" horiz-adv-x="887" d="M549 842 L501 817 L399 956 L468 996 L549 842 Z M868 765 L784 614 Q845 523 845 401 Q845 282 793.5 187 Q742 92 651.5 38.5 Q561 -15 447 -15 Q338 -15 253 32.5 Q168 80 120 165.5 Q72 251 72 359 Q72 476 124 569 Q176 662 267 715 Q358 768 471 768 Q553 768 622.5 741 Q692 714 742 664 L798 794 L868 765 Z M472 689 Q383 689 311 646.5 Q239 604 198 529.5 Q157 455 157 363 Q157 278 194.5 209.5 Q232 141 299 102.5 Q366 64 450 64 Q537 64 608 107.5 Q679 151 719.5 227 Q760 303 760 397 Q760 485 724.5 551 Q689 617 624 653 Q559 689 472 689 Z " />
<glyph glyph-name="uni1EDE" unicode="&#x1ede;" horiz-adv-x="887" d="M454 894 Q482 899 492 899 Q532 904 548 916.5 Q564 929 564 954 Q564 971 550.5 980.5 Q537 990 513 990 Q498 990 491 988.5 Q484 987 467 979 Q455 973 446 970 L440 1006 Q473 1018 496.5 1022.5 Q520 1027 544 1027 Q585 1027 609.5 1008 Q634 989 634 957 Q634 936 624.5 918 Q615 900 598 887 Q587 879 580.5 876 Q574 873 553.5 870 Q533 867 499 863 L485 825 L440 825 L454 894 Z M868 765 L784 614 Q845 523 845 401 Q845 282 793.5 187 Q742 92 651.5 38.5 Q561 -15 447 -15 Q338 -15 253 32.5 Q168 80 120 165.5 Q72 251 72 359 Q72 476 124 569 Q176 662 267 715 Q358 768 471 768 Q553 768 622.5 741 Q692 714 742 664 L798 794 L868 765 Z M472 689 Q383 689 311 646.5 Q239 604 198 529.5 Q157 455 157 363 Q157 278 194.5 209.5 Q232 141 299 102.5 Q366 64 450 64 Q537 64 608 107.5 Q679 151 719.5 227 Q760 303 760 397 Q760 485 724.5 551 Q689 617 624 653 Q559 689 472 689 Z " />
<glyph glyph-name="uni1EE0" unicode="&#x1ee0;" horiz-adv-x="887" d="M646 929 Q622 887 598.5 868.5 Q575 850 548 850 Q532 850 515 856 Q498 862 458 883 Q434 895 420 895 Q398 895 374 851 L324 878 Q351 922 372.5 939.5 Q394 957 420 957 Q433 957 452 950.5 Q471 944 507 927 Q538 912 549 912 Q562 912 573 921.5 Q584 931 598 955 L646 929 Z M868 765 L784 614 Q845 523 845 401 Q845 282 793.5 187 Q742 92 651.5 38.5 Q561 -15 447 -15 Q338 -15 253 32.5 Q168 80 120 165.5 Q72 251 72 359 Q72 476 124 569 Q176 662 267 715 Q358 768 471 768 Q553 768 622.5 741 Q692 714 742 664 L798 794 L868 765 Z M472 689 Q383 689 311 646.5 Q239 604 198 529.5 Q157 455 157 363 Q157 278 194.5 209.5 Q232 141 299 102.5 Q366 64 450 64 Q537 64 608 107.5 Q679 151 719.5 227 Q760 303 760 397 Q760 485 724.5 551 Q689 617 624 653 Q559 689 472 689 Z " />
<glyph glyph-name="uni1EE2" unicode="&#x1ee2;" horiz-adv-x="887" d="M868 765 L784 614 Q845 523 845 401 Q845 282 793.5 187 Q742 92 651.5 38.5 Q561 -15 447 -15 Q338 -15 253 32.5 Q168 80 120 165.5 Q72 251 72 359 Q72 476 124 569 Q176 662 267 715 Q358 768 471 768 Q553 768 622.5 741 Q692 714 742 664 L798 794 L868 765 Z M472 689 Q383 689 311 646.5 Q239 604 198 529.5 Q157 455 157 363 Q157 278 194.5 209.5 Q232 141 299 102.5 Q366 64 450 64 Q537 64 608 107.5 Q679 151 719.5 227 Q760 303 760 397 Q760 485 724.5 551 Q689 617 624 653 Q559 689 472 689 Z M435 -41 Q458 -41 473.5 -56.5 Q489 -72 489 -95 Q489 -116 473 -132 Q457 -148 435 -148 Q414 -148 398.5 -132 Q383 -116 383 -94 Q383 -72 398 -56.5 Q413 -41 435 -41 Z " />
<glyph glyph-name="uni1EE4" unicode="&#x1ee4;" horiz-adv-x="745" d="M647 292 Q640 226 627 182 Q614 138 593 106 Q556 47 497.5 16 Q439 -15 365 -15 Q288 -15 228 14.5 Q168 44 135 97 Q102 150 102 218 Q102 244 106 296 L163 754 L246 754 L189 287 Q184 252 184 227 Q184 152 232 108 Q280 64 362 64 Q404 64 441 79.5 Q478 95 504 123 Q529 151 543.5 191.5 Q558 232 566 299 L621 754 L705 754 L647 292 Z M346 -55 Q369 -55 384.5 -71 Q400 -87 400 -110 Q400 -131 384 -147 Q368 -163 346 -163 Q325 -163 309.5 -147 Q294 -131 294 -108 Q294 -86 309 -70.5 Q324 -55 346 -55 Z " />
<glyph glyph-name="uni1EE6" unicode="&#x1ee6;" horiz-adv-x="745" d="M427 894 Q454 899 463 899 Q504 904 520.5 916.5 Q537 929 537 954 Q537 971 523.5 980.5 Q510 990 486 990 Q470 990 463.5 988.5 Q457 987 440 979 Q427 973 418 970 L412 1006 Q445 1018 468.5 1022.5 Q492 1027 516 1027 Q558 1027 582.5 1008 Q607 989 607 957 Q607 917 577.5 892.5 Q548 868 501 868 Q480 868 467 869 L458 825 L412 825 L427 894 Z M647 292 Q640 226 627 182 Q614 138 593 106 Q556 47 497.5 16 Q439 -15 365 -15 Q288 -15 228 14.5 Q168 44 135 97 Q102 150 102 218 Q102 244 106 296 L163 754 L246 754 L189 287 Q184 252 184 227 Q184 152 232 108 Q280 64 362 64 Q404 64 441 79.5 Q478 95 504 123 Q529 151 543.5 191.5 Q558 232 566 299 L621 754 L705 754 L647 292 Z " />
<glyph glyph-name="uni1EE8" unicode="&#x1ee8;" horiz-adv-x="745" d="M412 845 L540 996 L608 951 L454 817 L412 845 Z M770 591 L719 616 L792 790 L863 760 L770 591 Z M647 292 Q640 226 627 182 Q614 138 593 106 Q556 47 497.5 16 Q439 -15 365 -15 Q288 -15 228 14.5 Q168 44 135 97 Q102 150 102 218 Q102 244 106 296 L163 754 L246 754 L189 287 Q184 252 184 227 Q184 152 232 108 Q280 64 362 64 Q404 64 441 79.5 Q478 95 504 123 Q529 151 543.5 191.5 Q558 232 566 299 L621 754 L705 754 L647 292 Z " />
<glyph glyph-name="uni1EEA" unicode="&#x1eea;" horiz-adv-x="745" d="M478 842 L429 817 L328 956 L398 996 L478 842 Z M770 591 L719 616 L792 790 L863 760 L770 591 Z M647 292 Q640 226 627 182 Q614 138 593 106 Q556 47 497.5 16 Q439 -15 365 -15 Q288 -15 228 14.5 Q168 44 135 97 Q102 150 102 218 Q102 244 106 296 L163 754 L246 754 L189 287 Q184 252 184 227 Q184 152 232 108 Q280 64 362 64 Q404 64 441 79.5 Q478 95 504 123 Q529 151 543.5 191.5 Q558 232 566 299 L621 754 L705 754 L647 292 Z " />
<glyph glyph-name="uni1EEC" unicode="&#x1eec;" horiz-adv-x="745" d="M428 894 Q455 899 464 899 Q505 904 521.5 916.5 Q538 929 538 954 Q538 971 524.5 980.5 Q511 990 487 990 Q472 990 465 988.5 Q458 987 441 979 L420 970 L414 1006 Q447 1018 470.5 1022.5 Q494 1027 518 1027 Q559 1027 583.5 1008 Q608 989 608 957 Q608 917 579 892.5 Q550 868 503 868 Q481 868 468 869 L459 825 L414 825 L428 894 Z M770 591 L719 616 L792 790 L863 760 L770 591 Z M647 292 Q640 226 627 182 Q614 138 593 106 Q556 47 497.5 16 Q439 -15 365 -15 Q288 -15 228 14.5 Q168 44 135 97 Q102 150 102 218 Q102 244 106 296 L163 754 L246 754 L189 287 Q184 252 184 227 Q184 152 232 108 Q280 64 362 64 Q404 64 441 79.5 Q478 95 504 123 Q529 151 543.5 191.5 Q558 232 566 299 L621 754 L705 754 L647 292 Z " />
<glyph glyph-name="uni1EEE" unicode="&#x1eee;" horiz-adv-x="745" d="M614 929 Q590 888 566 869 Q542 850 515 850 Q499 850 482 856 Q465 862 425 883 Q400 895 388 895 Q376 895 364 883.5 Q352 872 341 851 L292 878 Q318 921 340 939 Q362 957 388 957 Q401 957 419.5 950.5 Q438 944 475 927 Q490 919 499.5 915.5 Q509 912 516 912 Q529 912 540 921.5 Q551 931 565 955 L614 929 Z M770 591 L719 616 L792 790 L863 760 L770 591 Z M647 292 Q640 226 627 182 Q614 138 593 106 Q556 47 497.5 16 Q439 -15 365 -15 Q288 -15 228 14.5 Q168 44 135 97 Q102 150 102 218 Q102 244 106 296 L163 754 L246 754 L189 287 Q184 252 184 227 Q184 152 232 108 Q280 64 362 64 Q404 64 441 79.5 Q478 95 504 123 Q529 151 543.5 191.5 Q558 232 566 299 L621 754 L705 754 L647 292 Z " />
<glyph glyph-name="uni1EF0" unicode="&#x1ef0;" horiz-adv-x="745" d="M770 591 L719 616 L792 790 L863 760 L770 591 Z M647 292 Q640 226 627 182 Q614 138 593 106 Q556 47 497.5 16 Q439 -15 365 -15 Q288 -15 228 14.5 Q168 44 135 97 Q102 150 102 218 Q102 244 106 296 L163 754 L246 754 L189 287 Q184 252 184 227 Q184 152 232 108 Q280 64 362 64 Q404 64 441 79.5 Q478 95 504 123 Q529 151 543.5 191.5 Q558 232 566 299 L621 754 L705 754 L647 292 Z M364 -41 Q387 -41 402.5 -56.5 Q418 -72 418 -95 Q418 -116 402 -132 Q386 -148 364 -148 Q343 -148 327.5 -132 Q312 -116 312 -94 Q312 -71 327 -56 Q342 -41 364 -41 Z " />
<glyph glyph-name="uni1EF4" unicode="&#x1ef4;" horiz-adv-x="588" d="M217 0 L260 344 L64 754 L155 754 L311 423 L539 754 L636 754 L341 334 L301 0 L217 0 Z M250 -43 Q273 -43 288.5 -59 Q304 -75 304 -97 Q304 -118 288 -134 Q272 -150 250 -150 Q228 -150 213 -134.5 Q198 -119 198 -96 Q198 -74 213 -58.5 Q228 -43 250 -43 Z " />
<glyph glyph-name="uni1EF6" unicode="&#x1ef6;" horiz-adv-x="588" d="M341 894 Q369 899 379 899 Q419 904 435 916.5 Q451 929 451 954 Q451 971 437.5 980.5 Q424 990 400 990 Q385 990 378.5 988.5 Q372 987 354 979 Q342 973 333 970 L327 1006 Q360 1018 383.5 1022.5 Q407 1027 431 1027 Q472 1027 496.5 1008 Q521 989 521 957 Q521 917 492 892.5 Q463 868 416 868 Q394 868 381 869 L372 825 L327 825 L341 894 Z M217 0 L260 344 L64 754 L155 754 L311 423 L539 754 L636 754 L341 334 L301 0 L217 0 Z " />
<glyph glyph-name="uni1EF8" unicode="&#x1ef8;" horiz-adv-x="588" d="M533 929 Q510 888 486 869 Q462 850 435 850 Q419 850 402 856.5 Q385 863 346 883 Q321 895 307 895 Q296 895 284 883.5 Q272 872 261 851 L212 878 Q238 921 259.5 939 Q281 957 307 957 Q322 957 340 950.5 Q358 944 395 927 Q411 919 420.5 915.5 Q430 912 437 912 Q449 912 460.5 922 Q472 932 486 955 L533 929 Z M217 0 L260 344 L64 754 L155 754 L311 423 L539 754 L636 754 L341 334 L301 0 L217 0 Z " />
<glyph glyph-name="a" unicode="a" horiz-adv-x="591" d="M403 0 L411 64 Q369 22 334 5.5 Q299 -11 253 -11 Q191 -11 143 17 Q95 45 68 95.5 Q41 146 41 210 Q41 284 72 343 Q103 402 157.5 435 Q212 468 281 468 Q336 468 374.5 448.5 Q413 429 451 382 L460 457 L539 457 L483 0 L403 0 Z M288 395 Q242 395 204 371 Q166 347 144 306 Q122 265 122 215 Q122 172 141 136.5 Q160 101 193.5 81 Q227 61 268 61 Q313 61 352 86.5 Q391 112 414 154.5 Q437 197 437 246 Q437 311 395 353 Q353 395 288 395 Z " />
<glyph glyph-name="aacute" unicode="&#xe1;" horiz-adv-x="591" d="M284 563 L416 720 L484 677 L327 534 L284 563 Z M403 0 L411 64 Q369 22 334 5.5 Q299 -11 253 -11 Q191 -11 143 17 Q95 45 68 95.5 Q41 146 41 210 Q41 284 72 343 Q103 402 157.5 435 Q212 468 281 468 Q336 468 374.5 448.5 Q413 429 451 382 L460 457 L539 457 L483 0 L403 0 Z M288 395 Q242 395 204 371 Q166 347 144 306 Q122 265 122 215 Q122 172 141 136.5 Q160 101 193.5 81 Q227 61 268 61 Q313 61 352 86.5 Q391 112 414 154.5 Q437 197 437 246 Q437 311 395 353 Q353 395 288 395 Z " />
<glyph glyph-name="abreve" unicode="&#x103;" horiz-adv-x="591" d="M277 692 Q278 649 293.5 628.5 Q309 608 340 608 Q369 608 393.5 630.5 Q418 653 431 692 L490 692 Q474 625 431.5 586 Q389 547 334 547 Q297 547 268 566.5 Q239 586 225 621 Q219 637 218 647 Q217 657 217 692 L277 692 Z M403 0 L411 64 Q369 22 334 5.5 Q299 -11 253 -11 Q191 -11 143 17 Q95 45 68 95.5 Q41 146 41 210 Q41 284 72 343 Q103 402 157.5 435 Q212 468 281 468 Q336 468 374.5 448.5 Q413 429 451 382 L460 457 L539 457 L483 0 L403 0 Z M288 395 Q242 395 204 371 Q166 347 144 306 Q122 265 122 215 Q122 172 141 136.5 Q160 101 193.5 81 Q227 61 268 61 Q313 61 352 86.5 Q391 112 414 154.5 Q437 197 437 246 Q437 311 395 353 Q353 395 288 395 Z " />
<glyph glyph-name="acircumflex" unicode="&#xe2;" horiz-adv-x="591" d="M195 576 L359 725 L471 576 L429 536 L349 641 L234 534 L195 576 Z M403 0 L411 64 Q369 22 334 5.5 Q299 -11 253 -11 Q191 -11 143 17 Q95 45 68 95.5 Q41 146 41 210 Q41 284 72 343 Q103 402 157.5 435 Q212 468 281 468 Q336 468 374.5 448.5 Q413 429 451 382 L460 457 L539 457 L483 0 L403 0 Z M288 395 Q242 395 204 371 Q166 347 144 306 Q122 265 122 215 Q122 172 141 136.5 Q160 101 193.5 81 Q227 61 268 61 Q313 61 352 86.5 Q391 112 414 154.5 Q437 197 437 246 Q437 311 395 353 Q353 395 288 395 Z " />
<glyph glyph-name="adieresis" unicode="&#xe4;" horiz-adv-x="591" d="M257 667 Q276 667 289 652 Q302 637 302 616 Q302 596 287.5 581 Q273 566 253 566 Q234 566 220.5 580.5 Q207 595 207 615 Q207 637 221.5 652 Q236 667 257 667 Z M433 667 Q452 667 465 652 Q478 637 478 616 Q478 595 464 580.5 Q450 566 429 566 Q410 566 396.5 580.5 Q383 595 383 615 Q383 637 398 652 Q413 667 433 667 Z M403 0 L411 64 Q369 22 334 5.5 Q299 -11 253 -11 Q191 -11 143 17 Q95 45 68 95.5 Q41 146 41 210 Q41 284 72 343 Q103 402 157.5 435 Q212 468 281 468 Q336 468 374.5 448.5 Q413 429 451 382 L460 457 L539 457 L483 0 L403 0 Z M288 395 Q242 395 204 371 Q166 347 144 306 Q122 265 122 215 Q122 172 141 136.5 Q160 101 193.5 81 Q227 61 268 61 Q313 61 352 86.5 Q391 112 414 154.5 Q437 197 437 246 Q437 311 395 353 Q353 395 288 395 Z " />
<glyph glyph-name="agrave" unicode="&#xe0;" horiz-adv-x="591" d="M390 563 L341 534 L235 678 L305 720 L390 563 Z M403 0 L411 64 Q369 22 334 5.5 Q299 -11 253 -11 Q191 -11 143 17 Q95 45 68 95.5 Q41 146 41 210 Q41 284 72 343 Q103 402 157.5 435 Q212 468 281 468 Q336 468 374.5 448.5 Q413 429 451 382 L460 457 L539 457 L483 0 L403 0 Z M288 395 Q242 395 204 371 Q166 347 144 306 Q122 265 122 215 Q122 172 141 136.5 Q160 101 193.5 81 Q227 61 268 61 Q313 61 352 86.5 Q391 112 414 154.5 Q437 197 437 246 Q437 311 395 353 Q353 395 288 395 Z " />
<glyph glyph-name="amacron" unicode="&#x101;" horiz-adv-x="591" d="M481 584 L197 584 L203 646 L488 646 L481 584 Z M403 0 L411 64 Q369 22 334 5.5 Q299 -11 253 -11 Q191 -11 143 17 Q95 45 68 95.5 Q41 146 41 210 Q41 284 72 343 Q103 402 157.5 435 Q212 468 281 468 Q336 468 374.5 448.5 Q413 429 451 382 L460 457 L539 457 L483 0 L403 0 Z M288 395 Q242 395 204 371 Q166 347 144 306 Q122 265 122 215 Q122 172 141 136.5 Q160 101 193.5 81 Q227 61 268 61 Q313 61 352 86.5 Q391 112 414 154.5 Q437 197 437 246 Q437 311 395 353 Q353 395 288 395 Z " />
<glyph glyph-name="aogonek" unicode="&#x105;" horiz-adv-x="591" d="M463 -14 Q428 -39 412.5 -58.5 Q397 -78 397 -98 Q397 -114 407 -123.5 Q417 -133 434 -133 Q460 -133 488 -119 L473 -181 Q441 -195 407 -195 Q373 -195 349 -174 Q325 -153 325 -122 Q325 -61 423 0 L403 0 L411 64 Q369 22 334 5.5 Q299 -11 253 -11 Q191 -11 143 17 Q95 45 68 95.5 Q41 146 41 210 Q41 284 72 343 Q103 402 157.5 435 Q212 468 281 468 Q336 468 374.5 448.5 Q413 429 451 382 L460 457 L539 457 L483 0 L463 -14 Z M288 395 Q242 395 204 371 Q166 347 144 306 Q122 265 122 215 Q122 172 141 136.5 Q160 101 193.5 81 Q227 61 268 61 Q313 61 352 86.5 Q391 112 414 154.5 Q437 197 437 246 Q437 311 395 353 Q353 395 288 395 Z " />
<glyph glyph-name="aring" unicode="&#xe5;" horiz-adv-x="591" d="M342 723 Q384 723 412.5 694.5 Q441 666 441 625 Q441 585 411.5 555 Q382 525 342 525 Q302 525 273 554.5 Q244 584 244 625 Q244 666 273 694.5 Q302 723 342 723 Z M342 670 Q324 670 310.5 657 Q297 644 297 625 Q297 606 310.5 592.5 Q324 579 342 579 Q361 579 374.5 592.5 Q388 606 388 625 Q388 644 375 657 Q362 670 342 670 Z M403 0 L411 64 Q369 22 334 5.5 Q299 -11 253 -11 Q191 -11 143 17 Q95 45 68 95.5 Q41 146 41 210 Q41 284 72 343 Q103 402 157.5 435 Q212 468 281 468 Q336 468 374.5 448.5 Q413 429 451 382 L460 457 L539 457 L483 0 L403 0 Z M288 395 Q242 395 204 371 Q166 347 144 306 Q122 265 122 215 Q122 172 141 136.5 Q160 101 193.5 81 Q227 61 268 61 Q313 61 352 86.5 Q391 112 414 154.5 Q437 197 437 246 Q437 311 395 353 Q353 395 288 395 Z " />
<glyph glyph-name="aringacute" unicode="&#x1fb;" horiz-adv-x="591" d="M240 749 L372 907 L440 863 L283 721 L240 749 Z M342 723 Q384 723 412.5 694.5 Q441 666 441 625 Q441 585 411.5 555 Q382 525 342 525 Q302 525 273 554.5 Q244 584 244 625 Q244 666 273 694.5 Q302 723 342 723 Z M342 670 Q324 670 310.5 657 Q297 644 297 625 Q297 606 310.5 592.5 Q324 579 342 579 Q361 579 374.5 592.5 Q388 606 388 625 Q388 644 375 657 Q362 670 342 670 Z M403 0 L411 64 Q369 22 334 5.5 Q299 -11 253 -11 Q191 -11 143 17 Q95 45 68 95.5 Q41 146 41 210 Q41 284 72 343 Q103 402 157.5 435 Q212 468 281 468 Q336 468 374.5 448.5 Q413 429 451 382 L460 457 L539 457 L483 0 L403 0 Z M288 395 Q242 395 204 371 Q166 347 144 306 Q122 265 122 215 Q122 172 141 136.5 Q160 101 193.5 81 Q227 61 268 61 Q313 61 352 86.5 Q391 112 414 154.5 Q437 197 437 246 Q437 311 395 353 Q353 395 288 395 Z " />
<glyph glyph-name="atilde" unicode="&#xe3;" horiz-adv-x="591" d="M487 649 Q465 607 442 587.5 Q419 568 392 568 Q378 568 361.5 575 Q345 582 319 600 Q295 616 283 616 Q273 616 261.5 603.5 Q250 591 240 570 L193 597 Q218 642 238.5 659.5 Q259 677 285 677 Q297 677 316 668.5 Q335 660 355 647 Q370 638 378 633.5 Q386 629 393 629 Q405 629 415.5 639.5 Q426 650 441 675 L487 649 Z M403 0 L411 64 Q369 22 334 5.5 Q299 -11 253 -11 Q191 -11 143 17 Q95 45 68 95.5 Q41 146 41 210 Q41 284 72 343 Q103 402 157.5 435 Q212 468 281 468 Q336 468 374.5 448.5 Q413 429 451 382 L460 457 L539 457 L483 0 L403 0 Z M288 395 Q242 395 204 371 Q166 347 144 306 Q122 265 122 215 Q122 172 141 136.5 Q160 101 193.5 81 Q227 61 268 61 Q313 61 352 86.5 Q391 112 414 154.5 Q437 197 437 246 Q437 311 395 353 Q353 395 288 395 Z " />
<glyph glyph-name="ae" unicode="&#xe6;" horiz-adv-x="842" d="M434 210 Q433 203 433 194 Q433 133 474.5 95.5 Q516 58 583 58 Q624 58 655 72.5 Q686 87 714 120 L770 79 Q697 -15 579 -15 Q447 -15 393 87 Q361 34 319 9.5 Q277 -15 219 -15 Q164 -15 120 5.5 Q76 26 50.5 62 Q25 98 25 141 Q25 184 49 219.5 Q73 255 115.5 275 Q158 295 210 295 Q299 295 358 236 L362 263 L367 298 Q368 305 368 322 Q368 359 337 379 Q306 399 247 399 Q190 399 125 381 L134 454 Q199 471 255 471 Q324 471 365 450.5 Q406 430 427 385 Q460 429 500 450 Q540 471 591 471 Q653 471 700.5 441 Q748 411 774.5 357 Q801 303 801 233 L801 210 L434 210 Z M725 276 Q720 332 684 365.5 Q648 399 590 399 Q478 399 442 276 L725 276 Z M219 223 Q170 223 138 200 Q106 177 106 141 Q106 106 140 82 Q174 58 224 58 Q277 58 312 81.5 Q347 105 347 141 Q347 178 312 200.5 Q277 223 219 223 Z " />
<glyph glyph-name="aeacute" unicode="&#x1fd;" horiz-adv-x="842" d="M391 563 L523 720 L591 677 L434 534 L391 563 Z M434 210 Q433 203 433 194 Q433 133 474.5 95.5 Q516 58 583 58 Q624 58 655 72.5 Q686 87 714 120 L770 79 Q697 -15 579 -15 Q447 -15 393 87 Q361 34 319 9.5 Q277 -15 219 -15 Q164 -15 120 5.5 Q76 26 50.5 62 Q25 98 25 141 Q25 184 49 219.5 Q73 255 115.5 275 Q158 295 210 295 Q299 295 358 236 L362 263 L367 298 Q368 305 368 322 Q368 359 337 379 Q306 399 247 399 Q190 399 125 381 L134 454 Q199 471 255 471 Q324 471 365 450.5 Q406 430 427 385 Q460 429 500 450 Q540 471 591 471 Q653 471 700.5 441 Q748 411 774.5 357 Q801 303 801 233 L801 210 L434 210 Z M725 276 Q720 332 684 365.5 Q648 399 590 399 Q478 399 442 276 L725 276 Z M219 223 Q170 223 138 200 Q106 177 106 141 Q106 106 140 82 Q174 58 224 58 Q277 58 312 81.5 Q347 105 347 141 Q347 178 312 200.5 Q277 223 219 223 Z " />
<glyph glyph-name="b" unicode="b" horiz-adv-x="598" d="M173 398 Q217 437 252 452.5 Q287 468 333 468 Q395 468 444.5 439 Q494 410 522 359 Q550 308 550 244 Q550 174 518 115.5 Q486 57 431 23 Q376 -11 310 -11 Q254 -11 213.5 9.5 Q173 30 133 77 L124 0 L45 0 L147 824 L226 824 L173 398 Z M318 395 Q270 395 231 371.5 Q192 348 170 307 Q148 266 148 215 Q148 148 190.5 104.5 Q233 61 299 61 Q344 61 383.5 85.5 Q423 110 446 151 Q469 192 469 240 Q469 308 427 351.5 Q385 395 318 395 Z " />
<glyph glyph-name="c" unicode="c" horiz-adv-x="464" d="M434 324 Q398 364 364.5 381.5 Q331 399 288 399 Q241 399 203 375.5 Q165 352 143.5 310.5 Q122 269 122 217 Q122 146 166 102 Q210 58 281 58 Q317 58 345.5 69.5 Q374 81 407 110 L397 20 Q364 1 334 -7 Q304 -15 269 -15 Q203 -15 151 14.5 Q99 44 70 96 Q41 148 41 215 Q41 287 72.5 345.5 Q104 404 160 437.5 Q216 471 285 471 Q332 471 368 457.5 Q404 444 444 410 L434 324 Z " />
<glyph glyph-name="cacute" unicode="&#x107;" horiz-adv-x="464" d="M259 563 L391 720 L458 677 L301 534 L259 563 Z M434 324 Q398 364 364.5 381.5 Q331 399 288 399 Q241 399 203 375.5 Q165 352 143.5 310.5 Q122 269 122 217 Q122 146 166 102 Q210 58 281 58 Q317 58 345.5 69.5 Q374 81 407 110 L397 20 Q364 1 334 -7 Q304 -15 269 -15 Q203 -15 151 14.5 Q99 44 70 96 Q41 148 41 215 Q41 287 72.5 345.5 Q104 404 160 437.5 Q216 471 285 471 Q332 471 368 457.5 Q404 444 444 410 L434 324 Z " />
<glyph glyph-name="ccaron" unicode="&#x10d;" horiz-adv-x="464" d="M462 684 L297 534 L185 684 L228 724 L308 619 L423 725 L462 684 Z M434 324 Q398 364 364.5 381.5 Q331 399 288 399 Q241 399 203 375.5 Q165 352 143.5 310.5 Q122 269 122 217 Q122 146 166 102 Q210 58 281 58 Q317 58 345.5 69.5 Q374 81 407 110 L397 20 Q364 1 334 -7 Q304 -15 269 -15 Q203 -15 151 14.5 Q99 44 70 96 Q41 148 41 215 Q41 287 72.5 345.5 Q104 404 160 437.5 Q216 471 285 471 Q332 471 368 457.5 Q404 444 444 410 L434 324 Z " />
<glyph glyph-name="ccedilla" unicode="&#xe7;" horiz-adv-x="464" d="M434 324 Q398 364 364.5 381.5 Q331 399 288 399 Q241 399 203 375.5 Q165 352 143.5 310.5 Q122 269 122 217 Q122 146 166 102 Q210 58 281 58 Q317 58 345.5 69.5 Q374 81 407 110 L397 20 Q364 1 334 -7 Q304 -15 269 -15 Q203 -15 151 14.5 Q99 44 70 96 Q41 148 41 215 Q41 287 72.5 345.5 Q104 404 160 437.5 Q216 471 285 471 Q332 471 368 457.5 Q404 444 444 410 L434 324 Z M131 -203 L226 -53 L292 -94 L172 -232 L131 -203 Z " />
<glyph glyph-name="ccircumflex" unicode="&#x109;" horiz-adv-x="464" d="M146 576 L311 725 L423 576 L380 536 L299 641 L185 534 L146 576 Z M434 324 Q398 364 364.5 381.5 Q331 399 288 399 Q241 399 203 375.5 Q165 352 143.5 310.5 Q122 269 122 217 Q122 146 166 102 Q210 58 281 58 Q317 58 345.5 69.5 Q374 81 407 110 L397 20 Q364 1 334 -7 Q304 -15 269 -15 Q203 -15 151 14.5 Q99 44 70 96 Q41 148 41 215 Q41 287 72.5 345.5 Q104 404 160 437.5 Q216 471 285 471 Q332 471 368 457.5 Q404 444 444 410 L434 324 Z " />
<glyph glyph-name="cdotaccent" unicode="&#x10b;" horiz-adv-x="464" d="M312 667 Q332 667 345.5 652 Q359 637 359 615 Q359 595 344.5 579.5 Q330 564 310 564 Q290 564 275.5 578.5 Q261 593 261 614 Q261 636 276 651.5 Q291 667 312 667 Z M434 324 Q398 364 364.5 381.5 Q331 399 288 399 Q241 399 203 375.5 Q165 352 143.5 310.5 Q122 269 122 217 Q122 146 166 102 Q210 58 281 58 Q317 58 345.5 69.5 Q374 81 407 110 L397 20 Q364 1 334 -7 Q304 -15 269 -15 Q203 -15 151 14.5 Q99 44 70 96 Q41 148 41 215 Q41 287 72.5 345.5 Q104 404 160 437.5 Q216 471 285 471 Q332 471 368 457.5 Q404 444 444 410 L434 324 Z " />
<glyph glyph-name="d" unicode="d" horiz-adv-x="600" d="M412 0 L420 61 Q378 20 344.5 4.5 Q311 -11 264 -11 Q201 -11 150.5 18 Q100 47 71 98.5 Q42 150 42 214 Q42 285 73.5 343 Q105 401 160.5 434.5 Q216 468 284 468 Q339 468 378 447 Q417 426 458 374 L513 824 L592 824 L492 0 L412 0 Z M290 395 Q243 395 205 371.5 Q167 348 145 306.5 Q123 265 123 214 Q123 147 165.5 104 Q208 61 273 61 Q319 61 357.5 86.5 Q396 112 419 155 Q442 198 442 249 Q442 313 399.5 354 Q357 395 290 395 Z " />
<glyph glyph-name="eth" unicode="&#xf0;" horiz-adv-x="580" d="M209 832 Q239 819 286.5 790.5 Q334 762 353 746 L468 801 L513 751 L406 699 Q471 631 505.5 531.5 Q540 432 540 312 Q540 232 524.5 174.5 Q509 117 477 75 Q444 32 394.5 8.5 Q345 -15 287 -15 Q218 -15 162 16 Q106 47 74 100.5 Q42 154 42 221 Q42 290 75.5 347.5 Q109 405 167 438 Q225 471 295 471 Q353 471 389.5 452 Q426 433 459 385 Q458 460 425 539 Q392 618 342 668 L228 610 L184 659 L289 712 Q273 723 272 723 L234 747 L191 774 Q189 775 184.5 777.5 Q180 780 172 783 L209 832 Z M293 399 Q246 399 207 376 Q168 353 145.5 313 Q123 273 123 224 Q123 177 144.5 139 Q166 101 203 79.5 Q240 58 286 58 Q333 58 370.5 80.5 Q408 103 429.5 143.5 Q451 184 451 234 Q451 307 407 353 Q363 399 293 399 Z " />
<glyph glyph-name="dcaron" unicode="&#x10f;" horiz-adv-x="709" d="M671 631 L624 651 L698 828 L768 799 L671 631 Z M412 0 L420 61 Q378 20 344.5 4.5 Q311 -11 264 -11 Q201 -11 150.5 18 Q100 47 71 98.5 Q42 150 42 214 Q42 285 73.5 343 Q105 401 160.5 434.5 Q216 468 284 468 Q339 468 378 447 Q417 426 458 374 L513 824 L592 824 L492 0 L412 0 Z M290 395 Q243 395 205 371.5 Q167 348 145 306.5 Q123 265 123 214 Q123 147 165.5 104 Q208 61 273 61 Q319 61 357.5 86.5 Q396 112 419 155 Q442 198 442 249 Q442 313 399.5 354 Q357 395 290 395 Z " />
<glyph glyph-name="dslash" unicode="&#x111;" horiz-adv-x="600" d="M647 719 L640 651 L572 651 L492 0 L412 0 L420 61 Q378 20 344.5 4.5 Q311 -11 264 -11 Q201 -11 150.5 18 Q100 47 71 98.5 Q42 150 42 214 Q42 285 73.5 343 Q105 401 160.5 434.5 Q216 468 284 468 Q339 468 378 447 Q417 426 458 374 L493 651 L357 651 L365 719 L501 719 L513 824 L592 824 L580 719 L647 719 Z M290 395 Q243 395 205 371.5 Q167 348 145 306.5 Q123 265 123 214 Q123 147 165.5 104 Q208 61 273 61 Q319 61 357.5 86.5 Q396 112 419 155 Q442 198 442 249 Q442 313 399.5 354 Q357 395 290 395 Z " />
<glyph glyph-name="e" unicode="e" horiz-adv-x="530" d="M122 209 Q123 176 128.5 155.5 Q134 135 147 116 Q167 88 199 73 Q231 58 270 58 Q349 58 397 119 L458 82 Q421 32 375.5 8.5 Q330 -15 269 -15 Q201 -15 149 13 Q97 41 69 92 Q41 143 41 209 Q41 283 72 343 Q103 403 156.5 437 Q210 471 277 471 Q354 471 409 426 Q464 381 480 306 Q485 283 486.5 264 Q488 245 488 209 L122 209 Z M407 275 Q403 333 367 366 Q331 399 273 399 Q240 399 210.5 386 Q181 373 162 348 Q150 334 143 318 Q136 302 129 275 L407 275 Z " />
<glyph glyph-name="eacute" unicode="&#xe9;" horiz-adv-x="530" d="M253 563 L385 720 L452 677 L295 534 L253 563 Z M122 209 Q123 176 128.5 155.5 Q134 135 147 116 Q167 88 199 73 Q231 58 270 58 Q349 58 397 119 L458 82 Q421 32 375.5 8.5 Q330 -15 269 -15 Q201 -15 149 13 Q97 41 69 92 Q41 143 41 209 Q41 283 72 343 Q103 403 156.5 437 Q210 471 277 471 Q354 471 409 426 Q464 381 480 306 Q485 283 486.5 264 Q488 245 488 209 L122 209 Z M407 275 Q403 333 367 366 Q331 399 273 399 Q240 399 210.5 386 Q181 373 162 348 Q150 334 143 318 Q136 302 129 275 L407 275 Z " />
<glyph glyph-name="ebreve" unicode="&#x115;" horiz-adv-x="530" d="M245 692 Q246 649 262 628.5 Q278 608 310 608 Q338 608 362 630.5 Q386 653 400 692 L460 692 Q443 626 400 586.5 Q357 547 303 547 Q250 547 217.5 582 Q185 617 185 675 Q185 684 186 692 L245 692 Z M122 209 Q123 176 128.5 155.5 Q134 135 147 116 Q167 88 199 73 Q231 58 270 58 Q349 58 397 119 L458 82 Q421 32 375.5 8.5 Q330 -15 269 -15 Q201 -15 149 13 Q97 41 69 92 Q41 143 41 209 Q41 283 72 343 Q103 403 156.5 437 Q210 471 277 471 Q354 471 409 426 Q464 381 480 306 Q485 283 486.5 264 Q488 245 488 209 L122 209 Z M407 275 Q403 333 367 366 Q331 399 273 399 Q240 399 210.5 386 Q181 373 162 348 Q150 334 143 318 Q136 302 129 275 L407 275 Z " />
<glyph glyph-name="ecaron" unicode="&#x11b;" horiz-adv-x="530" d="M460 684 L296 534 L184 684 L226 724 L306 619 L421 725 L460 684 Z M122 209 Q123 176 128.5 155.5 Q134 135 147 116 Q167 88 199 73 Q231 58 270 58 Q349 58 397 119 L458 82 Q421 32 375.5 8.5 Q330 -15 269 -15 Q201 -15 149 13 Q97 41 69 92 Q41 143 41 209 Q41 283 72 343 Q103 403 156.5 437 Q210 471 277 471 Q354 471 409 426 Q464 381 480 306 Q485 283 486.5 264 Q488 245 488 209 L122 209 Z M407 275 Q403 333 367 366 Q331 399 273 399 Q240 399 210.5 386 Q181 373 162 348 Q150 334 143 318 Q136 302 129 275 L407 275 Z " />
<glyph glyph-name="ecircumflex" unicode="&#xea;" horiz-adv-x="530" d="M164 576 L328 725 L440 576 L398 536 L318 641 L202 534 L164 576 Z M122 209 Q123 176 128.5 155.5 Q134 135 147 116 Q167 88 199 73 Q231 58 270 58 Q349 58 397 119 L458 82 Q421 32 375.5 8.5 Q330 -15 269 -15 Q201 -15 149 13 Q97 41 69 92 Q41 143 41 209 Q41 283 72 343 Q103 403 156.5 437 Q210 471 277 471 Q354 471 409 426 Q464 381 480 306 Q485 283 486.5 264 Q488 245 488 209 L122 209 Z M407 275 Q403 333 367 366 Q331 399 273 399 Q240 399 210.5 386 Q181 373 162 348 Q150 334 143 318 Q136 302 129 275 L407 275 Z " />
<glyph glyph-name="edieresis" unicode="&#xeb;" horiz-adv-x="530" d="M224 667 Q243 667 256 652 Q269 637 269 616 Q269 596 254.5 581 Q240 566 220 566 Q201 566 187.5 580.5 Q174 595 174 615 Q174 637 188 652 Q202 667 224 667 Z M399 667 Q418 667 431 652 Q444 637 444 616 Q444 595 430 580.5 Q416 566 395 566 Q376 566 362.5 580.5 Q349 595 349 615 Q349 637 363.5 652 Q378 667 399 667 Z M122 209 Q123 176 128.5 155.5 Q134 135 147 116 Q167 88 199 73 Q231 58 270 58 Q349 58 397 119 L458 82 Q421 32 375.5 8.5 Q330 -15 269 -15 Q201 -15 149 13 Q97 41 69 92 Q41 143 41 209 Q41 283 72 343 Q103 403 156.5 437 Q210 471 277 471 Q354 471 409 426 Q464 381 480 306 Q485 283 486.5 264 Q488 245 488 209 L122 209 Z M407 275 Q403 333 367 366 Q331 399 273 399 Q240 399 210.5 386 Q181 373 162 348 Q150 334 143 318 Q136 302 129 275 L407 275 Z " />
<glyph glyph-name="edotaccent" unicode="&#x117;" horiz-adv-x="530" d="M310 667 Q330 667 343.5 652 Q357 637 357 615 Q357 595 342 579.5 Q327 564 307 564 Q287 564 273 578 Q259 592 259 614 Q259 636 273.5 651.5 Q288 667 310 667 Z M122 209 Q123 176 128.5 155.5 Q134 135 147 116 Q167 88 199 73 Q231 58 270 58 Q349 58 397 119 L458 82 Q421 32 375.5 8.5 Q330 -15 269 -15 Q201 -15 149 13 Q97 41 69 92 Q41 143 41 209 Q41 283 72 343 Q103 403 156.5 437 Q210 471 277 471 Q354 471 409 426 Q464 381 480 306 Q485 283 486.5 264 Q488 245 488 209 L122 209 Z M407 275 Q403 333 367 366 Q331 399 273 399 Q240 399 210.5 386 Q181 373 162 348 Q150 334 143 318 Q136 302 129 275 L407 275 Z " />
<glyph glyph-name="egrave" unicode="&#xe8;" horiz-adv-x="530" d="M356 563 L307 534 L202 678 L272 720 L356 563 Z M122 209 Q123 176 128.5 155.5 Q134 135 147 116 Q167 88 199 73 Q231 58 270 58 Q349 58 397 119 L458 82 Q421 32 375.5 8.5 Q330 -15 269 -15 Q201 -15 149 13 Q97 41 69 92 Q41 143 41 209 Q41 283 72 343 Q103 403 156.5 437 Q210 471 277 471 Q354 471 409 426 Q464 381 480 306 Q485 283 486.5 264 Q488 245 488 209 L122 209 Z M407 275 Q403 333 367 366 Q331 399 273 399 Q240 399 210.5 386 Q181 373 162 348 Q150 334 143 318 Q136 302 129 275 L407 275 Z " />
<glyph glyph-name="emacron" unicode="&#x113;" horiz-adv-x="530" d="M449 584 L164 584 L172 646 L457 646 L449 584 Z M122 209 Q123 176 128.5 155.5 Q134 135 147 116 Q167 88 199 73 Q231 58 270 58 Q349 58 397 119 L458 82 Q421 32 375.5 8.5 Q330 -15 269 -15 Q201 -15 149 13 Q97 41 69 92 Q41 143 41 209 Q41 283 72 343 Q103 403 156.5 437 Q210 471 277 471 Q354 471 409 426 Q464 381 480 306 Q485 283 486.5 264 Q488 245 488 209 L122 209 Z M407 275 Q403 333 367 366 Q331 399 273 399 Q240 399 210.5 386 Q181 373 162 348 Q150 334 143 318 Q136 302 129 275 L407 275 Z " />
<glyph glyph-name="eogonek" unicode="&#x119;" horiz-adv-x="530" d="M373 -181 Q339 -195 306 -195 Q272 -195 248.5 -173.5 Q225 -152 225 -121 Q225 -66 303 -12 Q285 -15 259 -15 Q196 -15 146.5 14 Q97 43 69 94 Q41 145 41 209 Q41 283 71.5 343 Q102 403 156 437 Q210 471 277 471 Q354 471 409 426 Q464 381 480 306 Q485 283 486.5 264 Q488 245 488 209 L122 209 Q123 176 128.5 155.5 Q134 135 147 116 Q167 88 199 73 Q231 58 270 58 Q349 58 397 119 L458 82 Q440 57 424.5 43 Q409 29 374 5 Q296 -52 296 -98 Q296 -114 306.5 -123.5 Q317 -133 333 -133 Q360 -133 388 -119 L373 -181 Z M407 275 Q403 333 367 366 Q331 399 273 399 Q240 399 210.5 386 Q181 373 162 348 Q150 334 143 318 Q136 302 129 275 L407 275 Z " />
<glyph glyph-name="uni0259" unicode="&#x259;" horiz-adv-x="534" d="M252 -15 Q176 -15 120.5 30.5 Q65 76 49 150 Q44 173 42.5 192.5 Q41 212 41 247 L407 247 Q406 280 400.5 300.5 Q395 321 382 340 Q362 368 330 383.5 Q298 399 259 399 Q180 399 132 338 L71 374 Q108 425 153 448 Q198 471 260 471 Q328 471 380 443 Q432 415 460 364.5 Q488 314 488 247 Q488 173 457 113 Q426 53 372 19 Q318 -15 252 -15 Z M255 58 Q288 58 318 71 Q348 84 367 108 Q379 123 386 139 Q393 155 400 182 L122 182 Q126 124 162 91 Q198 58 255 58 Z " />
<glyph glyph-name="f" unicode="f" horiz-adv-x="258" d="M45 0 L94 390 L32 390 L41 461 L102 461 L129 683 Q135 730 145.5 756 Q156 782 175 801 Q210 834 263 834 Q282 834 296 830.5 Q310 827 333 816 L324 744 Q309 754 298 758 Q287 762 273 762 Q242 762 227.5 740 Q213 718 206 660 L181 461 L272 461 L263 390 L173 390 L124 0 L45 0 Z " />
<glyph glyph-name="g" unicode="g" horiz-adv-x="597" d="M487 -7 Q478 -83 465 -122 Q452 -161 426 -192 Q395 -229 348.5 -248 Q302 -267 245 -267 Q191 -267 145.5 -249.5 Q100 -232 70 -199 Q46 -173 37 -143.5 Q28 -114 27 -63 L102 -63 Q103 -95 108 -112.5 Q113 -130 125 -147 Q142 -169 173 -181.5 Q204 -194 242 -194 Q279 -194 311 -182 Q343 -170 363 -148 Q380 -129 390.5 -100.5 Q401 -72 407 -24 L416 55 Q373 18 338.5 3.5 Q304 -11 260 -11 Q199 -11 149 18 Q99 47 70.5 98 Q42 149 42 212 Q42 283 74 342 Q106 401 162.5 434.5 Q219 468 287 468 Q339 468 377 448.5 Q415 429 457 381 L466 457 L545 457 L487 -7 Z M294 395 Q246 395 207 371.5 Q168 348 145.5 307.5 Q123 267 123 216 Q123 172 143 136.5 Q163 101 198 81 Q233 61 276 61 Q322 61 361 85 Q400 109 423 150.5 Q446 192 446 241 Q446 310 404 352.5 Q362 395 294 395 Z " />
<glyph glyph-name="gbreve" unicode="&#x11f;" horiz-adv-x="597" d="M280 692 Q282 649 298 628.5 Q314 608 345 608 Q374 608 397.5 630.5 Q421 653 434 692 L494 692 Q477 625 434.5 586 Q392 547 338 547 Q285 547 252.5 582 Q220 617 220 675 L220 692 L280 692 Z M488 -7 Q479 -82 466 -121 Q453 -160 426 -192 Q396 -228 349 -247.5 Q302 -267 245 -267 Q191 -267 145.5 -249.5 Q100 -232 70 -199 Q46 -173 37 -143.5 Q28 -114 27 -63 L102 -63 Q103 -95 108 -112.5 Q113 -130 125 -147 Q142 -169 173 -181.5 Q204 -194 242 -194 Q280 -194 312 -182 Q344 -170 363 -148 Q380 -129 390.5 -100.5 Q401 -72 407 -24 L416 55 Q373 18 338.5 3.5 Q304 -11 260 -11 Q199 -11 149 18 Q99 47 70.5 98 Q42 149 42 212 Q42 283 74 342 Q106 401 162.5 434.5 Q219 468 287 468 Q339 468 377 448.5 Q415 429 457 381 L466 457 L545 457 L488 -7 Z M294 395 Q246 395 207 371.5 Q168 348 145.5 307.5 Q123 267 123 216 Q123 172 143 136.5 Q163 101 198 81 Q233 61 276 61 Q322 61 361 85 Q400 109 423 150.5 Q446 192 446 241 Q446 310 404 352.5 Q362 395 294 395 Z " />
<glyph glyph-name="gcaron" unicode="&#x1e7;" horiz-adv-x="597" d="M494 684 L330 534 L218 684 L261 724 L340 619 L455 725 L494 684 Z M488 -7 Q479 -82 466 -121 Q453 -160 426 -192 Q396 -228 349 -247.5 Q302 -267 245 -267 Q191 -267 145.5 -249.5 Q100 -232 70 -199 Q46 -173 37 -143.5 Q28 -114 27 -63 L102 -63 Q103 -95 108 -112.5 Q113 -130 125 -147 Q142 -169 173 -181.5 Q204 -194 242 -194 Q280 -194 312 -182 Q344 -170 363 -148 Q380 -129 390.5 -100.5 Q401 -72 407 -24 L416 55 Q373 18 338.5 3.5 Q304 -11 260 -11 Q199 -11 149 18 Q99 47 70.5 98 Q42 149 42 212 Q42 283 74 342 Q106 401 162.5 434.5 Q219 468 287 468 Q339 468 377 448.5 Q415 429 457 381 L466 457 L545 457 L488 -7 Z M294 395 Q246 395 207 371.5 Q168 348 145.5 307.5 Q123 267 123 216 Q123 172 143 136.5 Q163 101 198 81 Q233 61 276 61 Q322 61 361 85 Q400 109 423 150.5 Q446 192 446 241 Q446 310 404 352.5 Q362 395 294 395 Z " />
<glyph glyph-name="gcircumflex" unicode="&#x11d;" horiz-adv-x="597" d="M199 576 L363 725 L475 576 L433 536 L353 641 L237 534 L199 576 Z M488 -7 Q479 -82 466 -121 Q453 -160 426 -192 Q396 -228 349 -247.5 Q302 -267 245 -267 Q191 -267 145.5 -249.5 Q100 -232 70 -199 Q46 -173 37 -143.5 Q28 -114 27 -63 L102 -63 Q103 -95 108 -112.5 Q113 -130 125 -147 Q142 -169 173 -181.5 Q204 -194 242 -194 Q280 -194 312 -182 Q344 -170 363 -148 Q380 -129 390.5 -100.5 Q401 -72 407 -24 L416 55 Q373 18 338.5 3.5 Q304 -11 260 -11 Q199 -11 149 18 Q99 47 70.5 98 Q42 149 42 212 Q42 283 74 342 Q106 401 162.5 434.5 Q219 468 287 468 Q339 468 377 448.5 Q415 429 457 381 L466 457 L545 457 L488 -7 Z M294 395 Q246 395 207 371.5 Q168 348 145.5 307.5 Q123 267 123 216 Q123 172 143 136.5 Q163 101 198 81 Q233 61 276 61 Q322 61 361 85 Q400 109 423 150.5 Q446 192 446 241 Q446 310 404 352.5 Q362 395 294 395 Z " />
<glyph glyph-name="uni0123" unicode="&#x123;" horiz-adv-x="597" d="M386 732 L434 712 L359 534 L289 564 L386 732 Z M487 -7 Q478 -83 465 -122 Q452 -161 426 -192 Q395 -229 348.5 -248 Q302 -267 245 -267 Q191 -267 145.5 -249.5 Q100 -232 70 -199 Q46 -173 37 -143.5 Q28 -114 27 -63 L102 -63 Q103 -95 108 -112.5 Q113 -130 125 -147 Q142 -169 173 -181.5 Q204 -194 242 -194 Q279 -194 311 -182 Q343 -170 363 -148 Q380 -129 390.5 -100.5 Q401 -72 407 -24 L416 55 Q373 18 338.5 3.5 Q304 -11 260 -11 Q199 -11 149 18 Q99 47 70.5 98 Q42 149 42 212 Q42 283 74 342 Q106 401 162.5 434.5 Q219 468 287 468 Q339 468 377 448.5 Q415 429 457 381 L466 457 L545 457 L487 -7 Z M294 395 Q246 395 207 371.5 Q168 348 145.5 307.5 Q123 267 123 216 Q123 172 143 136.5 Q163 101 198 81 Q233 61 276 61 Q322 61 361 85 Q400 109 423 150.5 Q446 192 446 241 Q446 310 404 352.5 Q362 395 294 395 Z " />
<glyph glyph-name="gdotaccent" unicode="&#x121;" horiz-adv-x="597" d="M345 667 Q364 667 377.5 652 Q391 637 391 615 Q391 595 376 579.5 Q361 564 341 564 Q321 564 307 578 Q293 592 293 614 Q293 636 308 651.5 Q323 667 345 667 Z M488 -7 Q479 -82 466 -121 Q453 -160 426 -192 Q396 -228 349 -247.5 Q302 -267 245 -267 Q191 -267 145.5 -249.5 Q100 -232 70 -199 Q46 -173 37 -143.5 Q28 -114 27 -63 L102 -63 Q103 -95 108 -112.5 Q113 -130 125 -147 Q142 -169 173 -181.5 Q204 -194 242 -194 Q280 -194 312 -182 Q344 -170 363 -148 Q380 -129 390.5 -100.5 Q401 -72 407 -24 L416 55 Q373 18 338.5 3.5 Q304 -11 260 -11 Q199 -11 149 18 Q99 47 70.5 98 Q42 149 42 212 Q42 283 74 342 Q106 401 162.5 434.5 Q219 468 287 468 Q339 468 377 448.5 Q415 429 457 381 L466 457 L545 457 L488 -7 Z M294 395 Q246 395 207 371.5 Q168 348 145.5 307.5 Q123 267 123 216 Q123 172 143 136.5 Q163 101 198 81 Q233 61 276 61 Q322 61 361 85 Q400 109 423 150.5 Q446 192 446 241 Q446 310 404 352.5 Q362 395 294 395 Z " />
<glyph glyph-name="h" unicode="h" horiz-adv-x="522" d="M174 406 Q212 441 241.5 454.5 Q271 468 311 468 Q374 468 413.5 433 Q453 398 453 342 Q453 317 447 276 L414 0 L334 0 L368 277 Q373 307 373 322 Q373 357 351.5 376 Q330 395 290 395 Q264 395 238.5 385 Q213 375 195 357 Q178 338 169.5 315.5 Q161 293 155 249 L124 0 L45 0 L147 824 L226 824 L174 406 Z " />
<glyph glyph-name="hbar" unicode="&#x127;" horiz-adv-x="522" d="M212 719 L348 719 L340 651 L205 651 L174 406 Q212 441 241.5 454.5 Q271 468 311 468 Q374 468 413.5 433 Q453 398 453 342 Q453 317 447 276 L414 0 L334 0 L368 277 Q373 307 373 322 Q373 357 351.5 376 Q330 395 290 395 Q264 395 238.5 385 Q213 375 195 357 Q178 338 169.5 315.5 Q161 293 155 249 L124 0 L45 0 L125 651 L58 651 L66 719 L133 719 L147 824 L226 824 L212 719 Z " />
<glyph glyph-name="hcircumflex" unicode="&#x125;" horiz-adv-x="522" d="M79 872 L259 1010 L385 871 L339 832 L249 928 L122 831 L79 872 Z M174 406 Q212 441 241.5 454.5 Q271 468 311 468 Q374 468 413.5 433 Q453 398 453 342 Q453 317 447 276 L414 0 L334 0 L368 277 Q373 307 373 322 Q373 357 351.5 376 Q330 395 290 395 Q264 395 238.5 385 Q213 375 195 357 Q178 338 169.5 315.5 Q161 293 155 249 L124 0 L45 0 L147 824 L226 824 L174 406 Z " />
<glyph glyph-name="i" unicode="i" horiz-adv-x="233" d="M167 705 Q187 705 201 691 Q215 677 215 657 Q215 636 200 621 Q185 606 165 606 Q146 606 132.5 620 Q119 634 119 654 Q119 676 133 690.5 Q147 705 167 705 Z M45 0 L102 457 L181 457 L124 0 L45 0 Z " />
<glyph glyph-name="dotlessi" unicode="&#x131;" horiz-adv-x="233" d="M45 0 L102 457 L181 457 L124 0 L45 0 Z " />
<glyph glyph-name="iacute" unicode="&#xed;" horiz-adv-x="233" d="M110 563 L226 720 L294 677 L151 534 L110 563 Z M45 0 L102 457 L181 457 L124 0 L45 0 Z " />
<glyph glyph-name="ibreve" unicode="&#x12d;" horiz-adv-x="233" d="M103 688 Q103 652 117 633 Q131 614 157 614 Q179 614 201.5 635.5 Q224 657 235 688 L292 688 Q280 648 271.5 631.5 Q263 615 247 599 Q201 553 151 553 Q116 553 90 572 Q64 591 53 626 Q47 649 46 688 L103 688 Z M45 0 L102 457 L181 457 L124 0 L45 0 Z " />
<glyph glyph-name="icircumflex" unicode="&#xee;" horiz-adv-x="233" d="M32 576 L181 725 L278 576 L235 536 L171 637 L70 534 L32 576 Z M45 0 L102 457 L181 457 L124 0 L45 0 Z " />
<glyph glyph-name="idieresis" unicode="&#xef;" horiz-adv-x="233" d="M93 667 Q112 667 125 652 Q138 637 138 616 Q138 596 123.5 581 Q109 566 89 566 Q70 566 56.5 580.5 Q43 595 43 615 Q43 637 57 652 Q71 667 93 667 Z M226 667 Q245 667 258 652 Q271 637 271 616 Q271 596 257 581 Q243 566 223 566 Q204 566 190 580.5 Q176 595 176 615 Q176 637 190.5 652 Q205 667 226 667 Z M45 0 L102 457 L181 457 L124 0 L45 0 Z " />
<glyph glyph-name="igrave" unicode="&#xec;" horiz-adv-x="233" d="M199 563 L150 534 L52 678 L119 720 L199 563 Z M45 0 L102 457 L181 457 L124 0 L45 0 Z " />
<glyph glyph-name="ij" unicode="&#x133;" horiz-adv-x="466" d="M167 705 Q187 705 201 691 Q215 677 215 657 Q215 636 200 621 Q185 606 165 606 Q146 606 132.5 620 Q119 634 119 654 Q119 676 133 690.5 Q147 705 167 705 Z M45 0 L102 457 L181 457 L124 0 L45 0 Z M397 607 Q378 607 364.5 621 Q351 635 351 655 Q351 677 365.5 691.5 Q380 706 400 706 Q420 706 433.5 692 Q447 678 447 658 Q447 638 432 622.5 Q417 607 397 607 Z M208 -263 Q170 -263 152 -251 L163 -172 Q171 -178 182.5 -182 Q194 -186 206 -186 Q233 -186 246 -169.5 Q259 -153 264 -115 L334 457 L413 457 L343 -121 Q333 -203 300 -233 Q282 -250 259.5 -256.5 Q237 -263 208 -263 Z " />
<glyph glyph-name="imacron" unicode="&#x12b;" horiz-adv-x="233" d="M264 584 L47 584 L55 646 L272 646 L264 584 Z M45 0 L102 457 L181 457 L124 0 L45 0 Z " />
<glyph glyph-name="iogonek" unicode="&#x12f;" horiz-adv-x="233" d="M166 705 Q186 705 200 691 Q214 677 214 657 Q214 636 199 621 Q184 606 164 606 Q145 606 131.5 620 Q118 634 118 654 Q118 676 132 690.5 Q146 705 166 705 Z M123 0 Q91 -35 77 -59.5 Q63 -84 63 -104 Q63 -117 71.5 -125 Q80 -133 94 -133 Q102 -133 110 -130 Q118 -127 133 -119 L119 -181 Q104 -189 93 -192 Q82 -195 68 -195 Q36 -195 15 -174.5 Q-6 -154 -6 -123 Q-6 -93 11.5 -67.5 Q29 -42 78 0 L44 0 L101 457 L180 457 L123 0 Z " />
<glyph glyph-name="itilde" unicode="&#x129;" horiz-adv-x="233" d="M306 649 Q284 607 260.5 587.5 Q237 568 211 568 Q197 568 180.5 575 Q164 582 138 600 Q114 616 101 616 Q92 616 80.5 603.5 Q69 591 59 570 L12 597 Q37 642 57.5 659.5 Q78 677 104 677 Q126 677 174 647 Q189 638 197 633.5 Q205 629 211 629 Q223 629 234.5 639.5 Q246 650 260 675 L306 649 Z M45 0 L102 457 L181 457 L124 0 L45 0 Z " />
<glyph glyph-name="j" unicode="j" horiz-adv-x="233" d="M164 607 Q145 607 131.5 621 Q118 635 118 655 Q118 677 132.5 691.5 Q147 706 167 706 Q187 706 200.5 692 Q214 678 214 658 Q214 638 199 622.5 Q184 607 164 607 Z M-25 -263 Q-63 -263 -81 -251 L-70 -172 Q-62 -178 -50.5 -182 Q-39 -186 -27 -186 Q0 -186 13 -169.5 Q26 -153 31 -115 L101 457 L180 457 L110 -121 Q100 -203 67 -233 Q49 -250 26.5 -256.5 Q4 -263 -25 -263 Z " />
<glyph glyph-name="uni0237" unicode="&#x237;" horiz-adv-x="233" d="M-25 -263 Q-63 -263 -81 -251 L-70 -172 Q-62 -178 -50.5 -182 Q-39 -186 -27 -186 Q0 -186 13 -169.5 Q26 -153 31 -115 L101 457 L180 457 L110 -121 Q100 -203 67 -233 Q49 -250 26.5 -256.5 Q4 -263 -25 -263 Z " />
<glyph glyph-name="jcircumflex" unicode="&#x135;" horiz-adv-x="233" d="M5 576 L168 725 L280 576 L238 536 L158 641 L43 534 L5 576 Z M-25 -263 Q-63 -263 -81 -251 L-70 -172 Q-62 -178 -50.5 -182 Q-39 -186 -27 -186 Q0 -186 13 -169.5 Q26 -153 31 -115 L101 457 L180 457 L110 -121 Q100 -203 67 -233 Q49 -250 26.5 -256.5 Q4 -263 -25 -263 Z " />
<glyph glyph-name="k" unicode="k" horiz-adv-x="487" d="M370 457 L479 457 L229 246 L454 0 L350 0 L151 224 L124 0 L45 0 L147 824 L226 824 L158 271 L370 457 Z " />
<glyph glyph-name="uni0137" unicode="&#x137;" horiz-adv-x="487" d="M370 457 L479 457 L229 246 L454 0 L350 0 L151 224 L124 0 L45 0 L147 824 L226 824 L158 271 L370 457 Z M165 -258 L119 -237 L192 -60 L263 -89 L165 -258 Z " />
<glyph glyph-name="kgreenlandic" unicode="&#x138;" horiz-adv-x="487" d="M370 457 L479 457 L229 246 L454 0 L350 0 L151 224 L124 0 L45 0 L102 457 L181 457 L158 271 L370 457 Z " />
<glyph glyph-name="l" unicode="l" horiz-adv-x="233" d="M45 0 L147 824 L226 824 L124 0 L45 0 Z " />
<glyph glyph-name="lacute" unicode="&#x13a;" horiz-adv-x="233" d="M149 898 L270 1048 L337 1005 L192 870 L149 898 Z M45 0 L147 824 L226 824 L124 0 L45 0 Z " />
<glyph glyph-name="lcaron" unicode="&#x13e;" horiz-adv-x="341" d="M304 631 L257 651 L331 828 L402 799 L304 631 Z M45 0 L147 824 L226 824 L124 0 L45 0 Z " />
<glyph glyph-name="uni013C" unicode="&#x13c;" horiz-adv-x="233" d="M45 0 L147 824 L226 824 L124 0 L45 0 Z M23 -258 L-25 -237 L50 -60 L120 -89 L23 -258 Z " />
<glyph glyph-name="ldot" unicode="&#x140;" horiz-adv-x="368" d="M45 0 L147 824 L226 824 L124 0 L45 0 Z M320 479 Q349 479 369.5 459 Q390 439 390 409 Q390 382 369 361.5 Q348 341 321 341 Q293 341 273 361.5 Q253 382 253 411 Q253 440 272.5 459.5 Q292 479 320 479 Z " />
<glyph glyph-name="lslash" unicode="&#x142;" horiz-adv-x="233" d="M262 527 L252 440 L172 386 L124 0 L45 0 L88 354 L9 301 L19 386 L99 441 L147 824 L226 824 L182 473 L262 527 Z " />
<glyph glyph-name="m" unicode="m" horiz-adv-x="766" d="M175 401 Q213 439 242 453.5 Q271 468 310 468 Q354 468 379.5 449.5 Q405 431 421 388 Q460 434 491 451 Q522 468 565 468 Q627 468 661.5 434.5 Q696 401 696 342 Q696 311 690 273 L657 0 L577 0 L612 279 Q616 303 616 329 Q616 360 597 377.5 Q578 395 545 395 Q520 395 496 384.5 Q472 374 455 355 Q443 340 436 320 Q429 300 424 263 L392 0 L313 0 L346 272 Q351 310 351 328 Q351 361 332.5 378 Q314 395 279 395 Q254 395 231.5 385.5 Q209 376 193 357 Q178 339 169 316.5 Q160 294 156 259 L124 0 L45 0 L102 457 L182 457 L175 401 Z " />
<glyph glyph-name="n" unicode="n" horiz-adv-x="524" d="M173 400 Q215 439 245 453.5 Q275 468 315 468 Q378 468 415.5 431.5 Q453 395 453 334 Q453 300 446 254 L416 0 L337 0 L370 267 Q374 309 374 322 Q374 358 353.5 376.5 Q333 395 294 395 Q268 395 243.5 385.5 Q219 376 200 358 Q179 338 169.5 313.5 Q160 289 154 240 L124 0 L45 0 L102 457 L181 457 L173 400 Z " />
<glyph glyph-name="nacute" unicode="&#x144;" horiz-adv-x="524" d="M236 563 L367 720 L435 677 L278 534 L236 563 Z M173 400 Q215 439 245 453.5 Q275 468 315 468 Q378 468 415.5 431.5 Q453 395 453 334 Q453 300 446 254 L416 0 L337 0 L370 267 Q374 309 374 322 Q374 358 353.5 376.5 Q333 395 294 395 Q268 395 243.5 385.5 Q219 376 200 358 Q179 338 169.5 313.5 Q160 289 154 240 L124 0 L45 0 L102 457 L181 457 L173 400 Z " />
<glyph glyph-name="napostrophe" unicode="&#x149;" horiz-adv-x="627" d="M97 560 L224 798 L285 765 L145 534 L97 560 Z M276 400 Q317 439 347.5 453.5 Q378 468 418 468 Q481 468 518.5 431.5 Q556 395 556 334 Q556 301 549 254 L518 0 L438 0 L471 267 Q477 300 477 322 Q477 358 456.5 376.5 Q436 395 397 395 Q342 395 302 358 Q281 337 271.5 312.5 Q262 288 257 240 L227 0 L148 0 L203 457 L283 457 L276 400 Z " />
<glyph glyph-name="ncaron" unicode="&#x148;" horiz-adv-x="524" d="M443 684 L279 534 L167 684 L209 724 L289 619 L405 725 L443 684 Z M173 400 Q215 439 245 453.5 Q275 468 315 468 Q378 468 415.5 431.5 Q453 395 453 334 Q453 300 446 254 L416 0 L337 0 L370 267 Q374 309 374 322 Q374 358 353.5 376.5 Q333 395 294 395 Q268 395 243.5 385.5 Q219 376 200 358 Q179 338 169.5 313.5 Q160 289 154 240 L124 0 L45 0 L102 457 L181 457 L173 400 Z " />
<glyph glyph-name="uni0146" unicode="&#x146;" horiz-adv-x="524" d="M173 400 Q215 439 245 453.5 Q275 468 315 468 Q378 468 415.5 431.5 Q453 395 453 334 Q453 300 446 254 L416 0 L337 0 L370 267 Q374 309 374 322 Q374 358 353.5 376.5 Q333 395 294 395 Q268 395 243.5 385.5 Q219 376 200 358 Q179 338 169.5 313.5 Q160 289 154 240 L124 0 L45 0 L102 457 L181 457 L173 400 Z M171 -258 L123 -237 L198 -60 L268 -89 L171 -258 Z " />
<glyph glyph-name="eng" unicode="&#x14b;" horiz-adv-x="524" d="M173 400 Q215 439 245 453.5 Q275 468 315 468 Q378 468 415.5 431.5 Q453 395 453 334 Q453 302 446 254 L428 102 Q423 57 412.5 26.5 Q402 -4 385 -23 Q364 -47 333.5 -61 Q303 -75 269 -75 Q253 -75 241 -72 Q229 -69 210 -60 L219 9 Q241 -2 266 -2 Q306 -2 324.5 23 Q343 48 351 116 L370 267 Q374 309 374 322 Q374 358 353.5 376.5 Q333 395 294 395 Q268 395 243.5 385.5 Q219 376 200 358 Q179 338 169.5 313.5 Q160 289 154 240 L124 0 L45 0 L102 457 L181 457 L173 400 Z " />
<glyph glyph-name="ntilde" unicode="&#xf1;" horiz-adv-x="524" d="M442 649 Q419 607 396.5 587.5 Q374 568 347 568 Q332 568 315.5 575 Q299 582 273 600 Q249 616 237 616 Q228 616 216 603.5 Q204 591 194 570 L148 597 Q173 642 193.5 659.5 Q214 677 240 677 Q251 677 270.5 668.5 Q290 660 310 647 Q324 638 332.5 633.5 Q341 629 348 629 Q360 629 370 639.5 Q380 650 395 675 L442 649 Z M173 400 Q215 439 245 453.5 Q275 468 315 468 Q378 468 415.5 431.5 Q453 395 453 334 Q453 300 446 254 L416 0 L337 0 L370 267 Q374 309 374 322 Q374 358 353.5 376.5 Q333 395 294 395 Q268 395 243.5 385.5 Q219 376 200 358 Q179 338 169.5 313.5 Q160 289 154 240 L124 0 L45 0 L102 457 L181 457 L173 400 Z " />
<glyph glyph-name="o" unicode="o" horiz-adv-x="580" d="M296 471 Q364 471 418 440.5 Q472 410 502 355.5 Q532 301 532 232 Q532 164 499.5 107 Q467 50 410 17.5 Q353 -15 285 -15 Q216 -15 160.5 16 Q105 47 73.5 100.5 Q42 154 42 221 Q42 290 76 347.5 Q110 405 168 438 Q226 471 296 471 Z M293 399 Q246 399 207 376 Q168 353 145.5 313 Q123 273 123 224 Q123 177 144 139 Q165 101 202.5 79.5 Q240 58 286 58 Q333 58 370.5 80.5 Q408 103 429.5 143.5 Q451 184 451 234 Q451 307 407 353 Q363 399 293 399 Z " />
<glyph glyph-name="oacute" unicode="&#xf3;" horiz-adv-x="580" d="M273 563 L406 720 L472 677 L316 534 L273 563 Z M296 471 Q364 471 418 440.5 Q472 410 502 355.5 Q532 301 532 232 Q532 164 499.5 107 Q467 50 410 17.5 Q353 -15 285 -15 Q216 -15 160.5 16 Q105 47 73.5 100.5 Q42 154 42 221 Q42 290 76 347.5 Q110 405 168 438 Q226 471 296 471 Z M293 399 Q246 399 207 376 Q168 353 145.5 313 Q123 273 123 224 Q123 177 144 139 Q165 101 202.5 79.5 Q240 58 286 58 Q333 58 370.5 80.5 Q408 103 429.5 143.5 Q451 184 451 234 Q451 307 407 353 Q363 399 293 399 Z " />
<glyph glyph-name="obreve" unicode="&#x14f;" horiz-adv-x="580" d="M251 692 Q253 649 268.5 628.5 Q284 608 315 608 Q344 608 368 630.5 Q392 653 406 692 L466 692 Q449 625 406 586 Q363 547 308 547 Q255 547 223 582 Q191 617 191 675 L191 692 L251 692 Z M296 471 Q364 471 418 440.5 Q472 410 502 355.5 Q532 301 532 232 Q532 164 499.5 107 Q467 50 410 17.5 Q353 -15 285 -15 Q216 -15 160.5 16 Q105 47 73.5 100.5 Q42 154 42 221 Q42 290 76 347.5 Q110 405 168 438 Q226 471 296 471 Z M293 399 Q246 399 207 376 Q168 353 145.5 313 Q123 273 123 224 Q123 177 144 139 Q165 101 202.5 79.5 Q240 58 286 58 Q333 58 370.5 80.5 Q408 103 429.5 143.5 Q451 184 451 234 Q451 307 407 353 Q363 399 293 399 Z " />
<glyph glyph-name="ocircumflex" unicode="&#xf4;" horiz-adv-x="580" d="M182 576 L347 725 L459 576 L416 536 L336 641 L221 534 L182 576 Z M296 471 Q364 471 418 440.5 Q472 410 502 355.5 Q532 301 532 232 Q532 164 499.5 107 Q467 50 410 17.5 Q353 -15 285 -15 Q216 -15 160.5 16 Q105 47 73.5 100.5 Q42 154 42 221 Q42 290 76 347.5 Q110 405 168 438 Q226 471 296 471 Z M293 399 Q246 399 207 376 Q168 353 145.5 313 Q123 273 123 224 Q123 177 144 139 Q165 101 202.5 79.5 Q240 58 286 58 Q333 58 370.5 80.5 Q408 103 429.5 143.5 Q451 184 451 234 Q451 307 407 353 Q363 399 293 399 Z " />
<glyph glyph-name="odieresis" unicode="&#xf6;" horiz-adv-x="580" d="M246 667 Q265 667 278.5 652 Q292 637 292 616 Q292 596 277.5 581 Q263 566 243 566 Q224 566 210.5 580.5 Q197 595 197 615 Q197 637 211 652 Q225 667 246 667 Z M421 667 Q440 667 453.5 652 Q467 637 467 616 Q467 596 452.5 581 Q438 566 418 566 Q399 566 385.5 580.5 Q372 595 372 615 Q372 637 386 652 Q400 667 421 667 Z M296 471 Q364 471 418 440.5 Q472 410 502 355.5 Q532 301 532 232 Q532 164 499.5 107 Q467 50 410 17.5 Q353 -15 285 -15 Q216 -15 160.5 16 Q105 47 73.5 100.5 Q42 154 42 221 Q42 290 76 347.5 Q110 405 168 438 Q226 471 296 471 Z M293 399 Q246 399 207 376 Q168 353 145.5 313 Q123 273 123 224 Q123 177 144 139 Q165 101 202.5 79.5 Q240 58 286 58 Q333 58 370.5 80.5 Q408 103 429.5 143.5 Q451 184 451 234 Q451 307 407 353 Q363 399 293 399 Z " />
<glyph glyph-name="ograve" unicode="&#xf2;" horiz-adv-x="580" d="M379 563 L330 534 L225 678 L295 720 L379 563 Z M296 471 Q364 471 418 440.5 Q472 410 502 355.5 Q532 301 532 232 Q532 164 499.5 107 Q467 50 410 17.5 Q353 -15 285 -15 Q216 -15 160.5 16 Q105 47 73.5 100.5 Q42 154 42 221 Q42 290 76 347.5 Q110 405 168 438 Q226 471 296 471 Z M293 399 Q246 399 207 376 Q168 353 145.5 313 Q123 273 123 224 Q123 177 144 139 Q165 101 202.5 79.5 Q240 58 286 58 Q333 58 370.5 80.5 Q408 103 429.5 143.5 Q451 184 451 234 Q451 307 407 353 Q363 399 293 399 Z " />
<glyph glyph-name="ohorn" unicode="&#x1a1;" horiz-adv-x="580" d="M607 479 L516 322 Q531 282 531 235 Q531 165 499 108 Q467 51 410.5 18 Q354 -15 285 -15 Q216 -15 160.5 16 Q105 47 73.5 100.5 Q42 154 42 221 Q42 290 75.5 347.5 Q109 405 167.5 438 Q226 471 296 471 Q414 471 484 383 L537 508 L607 479 Z M293 399 Q246 399 207 376 Q168 353 145.5 313 Q123 273 123 224 Q123 177 144 139 Q165 101 202.5 79.5 Q240 58 286 58 Q333 58 370.5 80.5 Q408 103 429 143.5 Q450 184 450 234 Q450 307 406 353 Q362 399 293 399 Z " />
<glyph glyph-name="ohungarumlaut" unicode="&#x151;" horiz-adv-x="580" d="M237 559 L349 720 L410 683 L271 534 L237 559 Z M370 559 L481 720 L541 683 L403 534 L370 559 Z M296 471 Q364 471 418 440.5 Q472 410 502 355.5 Q532 301 532 232 Q532 164 499.5 107 Q467 50 410 17.5 Q353 -15 285 -15 Q216 -15 160.5 16 Q105 47 73.5 100.5 Q42 154 42 221 Q42 290 76 347.5 Q110 405 168 438 Q226 471 296 471 Z M293 399 Q246 399 207 376 Q168 353 145.5 313 Q123 273 123 224 Q123 177 144 139 Q165 101 202.5 79.5 Q240 58 286 58 Q333 58 370.5 80.5 Q408 103 429.5 143.5 Q451 184 451 234 Q451 307 407 353 Q363 399 293 399 Z " />
<glyph glyph-name="omacron" unicode="&#x14d;" horiz-adv-x="580" d="M470 584 L185 584 L193 646 L478 646 L470 584 Z M296 471 Q364 471 418 440.5 Q472 410 502 355.5 Q532 301 532 232 Q532 164 499.5 107 Q467 50 410 17.5 Q353 -15 285 -15 Q216 -15 160.5 16 Q105 47 73.5 100.5 Q42 154 42 221 Q42 290 76 347.5 Q110 405 168 438 Q226 471 296 471 Z M293 399 Q246 399 207 376 Q168 353 145.5 313 Q123 273 123 224 Q123 177 144 139 Q165 101 202.5 79.5 Q240 58 286 58 Q333 58 370.5 80.5 Q408 103 429.5 143.5 Q451 184 451 234 Q451 307 407 353 Q363 399 293 399 Z " />
<glyph glyph-name="oslash" unicode="&#xf8;" horiz-adv-x="580" d="M6 18 L80 87 Q58 127 50 155.5 Q42 184 42 220 Q42 290 75.5 347.5 Q109 405 167.5 438 Q226 471 296 471 Q341 471 378 458 Q415 445 454 416 L527 480 L566 437 L494 372 Q517 323 524 297.5 Q531 272 531 235 Q531 165 499 108 Q467 51 410.5 18 Q354 -15 285 -15 Q196 -15 122 41 L43 -26 L6 18 Z M393 364 Q354 399 293 399 Q246 399 207 376 Q168 353 145.5 313 Q123 273 123 224 Q123 201 127 183 Q131 165 142 141 L393 364 Z M182 94 Q204 75 229 66.5 Q254 58 286 58 Q333 58 370.5 81 Q408 104 429 144.5 Q450 185 450 236 Q450 260 446 277 Q442 294 431 318 L182 94 Z " />
<glyph glyph-name="oslashacute" unicode="&#x1ff;" horiz-adv-x="580" d="M223 563 L354 720 L421 677 L264 534 L223 563 Z M6 18 L80 87 Q58 127 50 155.5 Q42 184 42 220 Q42 290 75.5 347.5 Q109 405 167.5 438 Q226 471 296 471 Q341 471 378 458 Q415 445 454 416 L527 480 L566 437 L494 372 Q517 323 524 297.5 Q531 272 531 235 Q531 165 499 108 Q467 51 410.5 18 Q354 -15 285 -15 Q196 -15 122 41 L43 -26 L6 18 Z M393 364 Q354 399 293 399 Q246 399 207 376 Q168 353 145.5 313 Q123 273 123 224 Q123 201 127 183 Q131 165 142 141 L393 364 Z M182 94 Q204 75 229 66.5 Q254 58 286 58 Q333 58 370.5 81 Q408 104 429 144.5 Q450 185 450 236 Q450 260 446 277 Q442 294 431 318 L182 94 Z " />
<glyph glyph-name="otilde" unicode="&#xf5;" horiz-adv-x="580" d="M479 649 Q457 607 433.5 587.5 Q410 568 384 568 Q369 568 352.5 575 Q336 582 310 600 Q297 609 289 612.5 Q281 616 273 616 Q264 616 252.5 603.5 Q241 591 231 570 L185 597 Q210 642 230 659.5 Q250 677 276 677 Q299 677 347 647 Q352 644 361.5 638 Q371 632 375 630.5 Q379 629 384 629 Q396 629 407.5 639.5 Q419 650 433 675 L479 649 Z M296 471 Q364 471 418 440.5 Q472 410 502 355.5 Q532 301 532 232 Q532 164 499.5 107 Q467 50 410 17.5 Q353 -15 285 -15 Q216 -15 160.5 16 Q105 47 73.5 100.5 Q42 154 42 221 Q42 290 76 347.5 Q110 405 168 438 Q226 471 296 471 Z M293 399 Q246 399 207 376 Q168 353 145.5 313 Q123 273 123 224 Q123 177 144 139 Q165 101 202.5 79.5 Q240 58 286 58 Q333 58 370.5 80.5 Q408 103 429.5 143.5 Q451 184 451 234 Q451 307 407 353 Q363 399 293 399 Z " />
<glyph glyph-name="oe" unicode="&#x153;" horiz-adv-x="949" d="M540 208 Q542 170 549 147.5 Q556 125 572 106 Q591 84 623 71 Q655 58 689 58 Q731 58 761.5 74 Q792 90 817 125 L879 87 Q840 34 795 9.5 Q750 -15 689 -15 Q621 -15 573 12 Q525 39 493 96 Q456 40 405.5 12.5 Q355 -15 287 -15 Q217 -15 161.5 16 Q106 47 74 102 Q42 157 42 225 Q42 295 75 351 Q108 407 165.5 439 Q223 471 295 471 Q367 471 419 442.5 Q471 414 505 355 Q576 471 701 471 Q763 471 809.5 442.5 Q856 414 881.5 361 Q907 308 907 238 L907 208 L540 208 Z M294 399 Q245 399 206 376.5 Q167 354 145 314 Q123 274 123 224 Q123 176 144 138.5 Q165 101 202.5 79.5 Q240 58 287 58 Q336 58 376 81.5 Q416 105 439.5 145.5 Q463 186 463 235 Q463 307 415.5 353 Q368 399 294 399 Z M831 273 Q827 334 792 366.5 Q757 399 697 399 Q638 399 598.5 366.5 Q559 334 546 273 L831 273 Z " />
<glyph glyph-name="p" unicode="p" horiz-adv-x="596" d="M173 394 Q217 437 251 452.5 Q285 468 333 468 Q394 468 443 439 Q492 410 520 358.5 Q548 307 548 244 Q548 174 515.5 115.5 Q483 57 427.5 23 Q372 -11 305 -11 Q250 -11 212.5 8.5 Q175 28 133 79 L92 -263 L12 -263 L101 457 L180 457 L173 394 Z M319 395 Q272 395 232.5 371 Q193 347 170.5 305 Q148 263 148 212 Q148 146 191 103.5 Q234 61 301 61 Q347 61 385 84.5 Q423 108 445 148 Q467 188 467 236 Q467 306 425.5 350.5 Q384 395 319 395 Z " />
<glyph glyph-name="thorn" unicode="&#xfe;" horiz-adv-x="596" d="M173 394 Q217 437 251 452.5 Q285 468 333 468 Q394 468 443 439 Q492 410 520 358.5 Q548 307 548 244 Q548 174 515.5 115.5 Q483 57 427.5 23 Q372 -11 305 -11 Q250 -11 212.5 8.5 Q175 28 133 79 L92 -263 L12 -263 L146 824 L225 824 L173 394 Z M319 395 Q272 395 232.5 371 Q193 347 170.5 305 Q148 263 148 212 Q148 146 191 103.5 Q234 61 301 61 Q347 61 385 84 Q423 107 445 147 Q467 187 467 236 Q467 306 425.5 350.5 Q384 395 319 395 Z " />
<glyph glyph-name="q" unicode="q" horiz-adv-x="599" d="M379 -263 L418 58 Q377 20 340.5 4.5 Q304 -11 257 -11 Q196 -11 146.5 18.5 Q97 48 69 99.5 Q41 151 41 215 Q41 285 73 343 Q105 401 161 434.5 Q217 468 285 468 Q342 468 381 447.5 Q420 427 458 377 L468 457 L547 457 L458 -263 L379 -263 Z M292 395 Q245 395 206 371 Q167 347 144.5 305.5 Q122 264 122 214 Q122 147 164.5 104 Q207 61 272 61 Q318 61 357.5 86 Q397 111 420.5 152.5 Q444 194 444 243 Q444 310 401.5 352.5 Q359 395 292 395 Z " />
<glyph glyph-name="r" unicode="r" horiz-adv-x="356" d="M174 405 Q208 440 235 454 Q262 468 295 468 Q316 468 331.5 462.5 Q347 457 370 442 L321 376 Q305 385 293 388.5 Q281 392 267 392 Q230 392 202 364 Q182 344 171 314.5 Q160 285 154 235 L124 0 L45 0 L102 457 L181 457 L174 405 Z " />
<glyph glyph-name="racute" unicode="&#x155;" horiz-adv-x="356" d="M182 563 L313 720 L381 677 L224 534 L182 563 Z M174 405 Q208 440 235 454 Q262 468 295 468 Q316 468 331.5 462.5 Q347 457 370 442 L321 376 Q305 385 293 388.5 Q281 392 267 392 Q230 392 202 364 Q182 344 171 314.5 Q160 285 154 235 L124 0 L45 0 L102 457 L181 457 L174 405 Z " />
<glyph glyph-name="rcaron" unicode="&#x159;" horiz-adv-x="356" d="M389 684 L225 534 L113 684 L155 724 L235 619 L350 725 L389 684 Z M174 405 Q208 440 235 454 Q262 468 295 468 Q316 468 331.5 462.5 Q347 457 370 442 L321 376 Q305 385 293 388.5 Q281 392 267 392 Q230 392 202 364 Q182 344 171 314.5 Q160 285 154 235 L124 0 L45 0 L102 457 L181 457 L174 405 Z " />
<glyph glyph-name="uni0157" unicode="&#x157;" horiz-adv-x="356" d="M175 405 Q209 440 235.5 454 Q262 468 296 468 Q317 468 332 462.5 Q347 457 370 442 L321 376 Q305 385 293 388.5 Q281 392 267 392 Q230 392 202 364 Q182 344 171 314.5 Q160 285 154 235 L124 0 L45 0 L102 457 L181 457 L175 405 Z M28 -258 L-19 -237 L55 -60 L125 -89 L28 -258 Z " />
<glyph glyph-name="s" unicode="s" horiz-adv-x="392" d="M308 365 Q264 400 221 400 Q189 400 167.5 382.5 Q146 365 146 339 Q146 316 162 300.5 Q178 285 226 262 Q291 231 314.5 202.5 Q338 174 338 127 Q338 65 292 25 Q246 -15 175 -15 Q123 -15 85.5 8 Q48 31 18 82 L78 120 Q98 87 121 72.5 Q144 58 175 58 Q211 58 233 76.5 Q255 95 255 125 Q255 143 248.5 154.5 Q242 166 224.5 177.5 Q207 189 168 208 Q112 234 88 263.5 Q64 293 64 336 Q64 395 108.5 433.5 Q153 472 221 472 Q261 472 293.5 458.5 Q326 445 358 414 L308 365 Z " />
<glyph glyph-name="sacute" unicode="&#x15b;" horiz-adv-x="392" d="M181 563 L313 720 L380 677 L223 534 L181 563 Z M308 365 Q264 400 221 400 Q189 400 167.5 382.5 Q146 365 146 339 Q146 316 162 300.5 Q178 285 226 262 Q291 231 314.5 202.5 Q338 174 338 127 Q338 65 292 25 Q246 -15 175 -15 Q123 -15 85.5 8 Q48 31 18 82 L78 120 Q98 87 121 72.5 Q144 58 175 58 Q211 58 233 76.5 Q255 95 255 125 Q255 143 248.5 154.5 Q242 166 224.5 177.5 Q207 189 168 208 Q112 234 88 263.5 Q64 293 64 336 Q64 395 108.5 433.5 Q153 472 221 472 Q261 472 293.5 458.5 Q326 445 358 414 L308 365 Z " />
<glyph glyph-name="scaron" unicode="&#x161;" horiz-adv-x="392" d="M392 684 L228 534 L116 684 L158 724 L238 619 L354 725 L392 684 Z M308 365 Q264 400 221 400 Q189 400 167.5 382.5 Q146 365 146 339 Q146 316 162 300.5 Q178 285 226 262 Q291 231 314.5 202.5 Q338 174 338 127 Q338 65 292 25 Q246 -15 175 -15 Q123 -15 85.5 8 Q48 31 18 82 L78 120 Q98 87 121 72.5 Q144 58 175 58 Q211 58 233 76.5 Q255 95 255 125 Q255 143 248.5 154.5 Q242 166 224.5 177.5 Q207 189 168 208 Q112 234 88 263.5 Q64 293 64 336 Q64 395 108.5 433.5 Q153 472 221 472 Q261 472 293.5 458.5 Q326 445 358 414 L308 365 Z " />
<glyph glyph-name="scedilla" unicode="&#x15f;" horiz-adv-x="392" d="M308 365 Q264 400 221 400 Q189 400 167.5 382.5 Q146 365 146 339 Q146 316 162 300.5 Q178 285 226 262 Q291 231 314.5 202.5 Q338 174 338 127 Q338 65 292 25 Q246 -15 175 -15 Q123 -15 85.5 8 Q48 31 18 82 L78 120 Q98 87 121 72.5 Q144 58 175 58 Q211 58 233 76.5 Q255 95 255 125 Q255 143 248.5 154.5 Q242 166 224.5 177.5 Q207 189 168 208 Q112 234 88 263.5 Q64 293 64 336 Q64 395 108.5 433.5 Q153 472 221 472 Q261 472 293.5 458.5 Q326 445 358 414 L308 365 Z M51 -203 L146 -53 L212 -94 L92 -232 L51 -203 Z " />
<glyph glyph-name="scircumflex" unicode="&#x15d;" horiz-adv-x="392" d="M96 576 L261 725 L373 576 L330 536 L250 641 L136 534 L96 576 Z M308 365 Q264 400 221 400 Q189 400 167.5 382.5 Q146 365 146 339 Q146 316 162 300.5 Q178 285 226 262 Q291 231 314.5 202.5 Q338 174 338 127 Q338 65 292 25 Q246 -15 175 -15 Q123 -15 85.5 8 Q48 31 18 82 L78 120 Q98 87 121 72.5 Q144 58 175 58 Q211 58 233 76.5 Q255 95 255 125 Q255 143 248.5 154.5 Q242 166 224.5 177.5 Q207 189 168 208 Q112 234 88 263.5 Q64 293 64 336 Q64 395 108.5 433.5 Q153 472 221 472 Q261 472 293.5 458.5 Q326 445 358 414 L308 365 Z " />
<glyph glyph-name="uni0219" unicode="&#x219;" horiz-adv-x="392" d="M308 365 Q264 400 221 400 Q189 400 167.5 382.5 Q146 365 146 339 Q146 316 162 300.5 Q178 285 226 262 Q291 231 314.5 202.5 Q338 174 338 127 Q338 65 292 25 Q246 -15 175 -15 Q123 -15 85.5 8 Q48 31 18 82 L78 120 Q98 87 121 72.5 Q144 58 175 58 Q211 58 233 76.5 Q255 95 255 125 Q255 143 248.5 154.5 Q242 166 224.5 177.5 Q207 189 168 208 Q112 234 88 263.5 Q64 293 64 336 Q64 395 108.5 433.5 Q153 472 221 472 Q261 472 293.5 458.5 Q326 445 358 414 L308 365 Z M105 -258 L59 -237 L132 -60 L203 -89 L105 -258 Z " />
<glyph glyph-name="germandbls" unicode="&#xdf;" horiz-adv-x="546" d="M45 395 L53 457 L102 457 L122 618 Q129 677 142 713.5 Q155 750 179 777 Q203 807 238 822 Q273 837 316 837 Q400 837 452 785.5 Q504 734 504 649 Q504 573 465.5 517 Q427 461 357 436 Q390 422 408 410 Q426 398 443 379 Q466 351 479 316 Q492 281 492 245 Q492 198 475.5 150.5 Q459 103 431 69 Q367 -8 260 -8 Q228 -8 188 2 L197 72 Q239 64 257 64 Q325 64 367.5 115 Q410 166 410 249 Q410 301 387.5 339 Q365 377 325 392 Q290 406 237 407 L245 468 L255 468 Q295 468 323 478.5 Q351 489 372 513 Q395 538 409 576.5 Q423 615 423 653 Q423 703 394 734 Q365 765 318 765 Q267 765 238 727 Q209 689 200 610 L124 0 L45 0 L94 395 L45 395 Z " />
<glyph glyph-name="longs" unicode="&#x17f;" horiz-adv-x="258" d="M94 390 L32 390 L41 461 L102 461 L129 683 Q135 730 145.5 756 Q156 782 175 801 Q210 834 263 834 Q282 834 296 830.5 Q310 827 333 816 L324 744 Q309 754 298 758 Q287 762 273 762 Q242 762 227.5 740 Q213 718 206 660 L124 0 L45 0 L94 390 Z " />
<glyph glyph-name="t" unicode="t" horiz-adv-x="301" d="M90 16 Q66 40 66 86 Q66 102 69 123 L105 390 L47 390 L56 461 L114 461 L138 650 L218 650 L194 461 L298 461 L289 390 L185 390 L148 120 Q147 114 147 104 Q147 60 193 60 Q207 60 224 67 Q241 74 254 87 L244 5 Q236 -2 217 -7 Q198 -12 177 -12 Q151 -12 127.5 -5 Q104 2 90 16 Z " />
<glyph glyph-name="tbar" unicode="&#x167;" horiz-adv-x="301" d="M185 390 L174 313 L266 313 L257 245 L165 245 L148 120 Q147 114 147 104 Q147 60 193 60 Q207 60 224 67 Q241 74 254 87 L244 5 Q236 -2 217 -7 Q198 -12 177 -12 Q151 -12 127.5 -5 Q104 2 90 16 Q66 40 66 86 Q66 102 69 123 L85 245 L30 245 L39 313 L95 313 L105 390 L47 390 L56 461 L114 461 L138 650 L218 650 L194 461 L298 461 L289 390 L185 390 Z " />
<glyph glyph-name="tcaron" unicode="&#x165;" horiz-adv-x="371" d="M306 579 L259 599 L333 776 L405 747 L306 579 Z M90 16 Q66 40 66 86 Q66 102 69 123 L105 390 L47 390 L56 461 L114 461 L138 650 L218 650 L194 461 L298 461 L289 390 L185 390 L148 120 Q147 114 147 104 Q147 60 193 60 Q207 60 224 67 Q241 74 254 87 L244 5 Q236 -2 217 -7 Q198 -12 177 -12 Q151 -12 127.5 -5 Q104 2 90 16 Z " />
<glyph glyph-name="uni0163" unicode="&#x163;" horiz-adv-x="301" d="M90 16 Q66 40 66 86 Q66 102 69 123 L105 390 L47 390 L56 461 L114 461 L138 650 L218 650 L194 461 L298 461 L289 390 L185 390 L148 120 Q147 114 147 104 Q147 60 193 60 Q207 60 224 67 Q241 74 254 87 L244 5 Q236 -2 217 -7 Q198 -12 177 -12 Q151 -12 127.5 -5 Q104 2 90 16 Z M64 -258 L17 -237 L92 -60 L162 -89 L64 -258 Z " />
<glyph glyph-name="u" unicode="u" horiz-adv-x="524" d="M194 -14 Q132 -14 97 21 Q62 56 62 118 Q62 156 69 202 L101 457 L180 457 L147 190 L145 168 Q142 147 142 134 Q142 98 161.5 78.5 Q181 59 219 59 Q278 59 320 104 Q338 126 348.5 152.5 Q359 179 366 240 L392 457 L471 457 L415 0 L336 0 L344 63 Q309 20 273.5 3 Q238 -14 194 -14 Z " />
<glyph glyph-name="uacute" unicode="&#xfa;" horiz-adv-x="524" d="M194 -14 Q132 -14 97 21 Q62 56 62 118 Q62 156 69 202 L101 457 L180 457 L147 190 L145 168 Q142 147 142 134 Q142 98 161.5 78.5 Q181 59 219 59 Q278 59 320 104 Q338 126 348.5 152.5 Q359 179 366 240 L392 457 L471 457 L415 0 L336 0 L344 63 Q309 20 273.5 3 Q238 -14 194 -14 Z M246 563 L378 720 L445 677 L288 534 L246 563 Z " />
<glyph glyph-name="ubreve" unicode="&#x16d;" horiz-adv-x="524" d="M194 -14 Q132 -14 97 21 Q62 56 62 118 Q62 156 69 202 L101 457 L180 457 L147 190 L145 168 Q142 147 142 134 Q142 98 161.5 78.5 Q181 59 219 59 Q278 59 320 104 Q338 126 348.5 152.5 Q359 179 366 240 L392 457 L471 457 L415 0 L336 0 L344 63 Q309 20 273.5 3 Q238 -14 194 -14 Z M245 692 Q246 649 261.5 628.5 Q277 608 308 608 Q337 608 361 630.5 Q385 653 398 692 L458 692 Q441 625 398.5 586 Q356 547 302 547 Q249 547 217 582 Q185 617 185 675 L185 692 L245 692 Z " />
<glyph glyph-name="ucircumflex" unicode="&#xfb;" horiz-adv-x="524" d="M194 -14 Q132 -14 97 21 Q62 56 62 118 Q62 156 69 202 L101 457 L180 457 L147 190 L145 168 Q142 147 142 134 Q142 98 161.5 78.5 Q181 59 219 59 Q278 59 320 104 Q338 126 348.5 152.5 Q359 179 366 240 L392 457 L471 457 L415 0 L336 0 L344 63 Q309 20 273.5 3 Q238 -14 194 -14 Z M162 576 L326 725 L438 576 L396 536 L316 641 L200 534 L162 576 Z " />
<glyph glyph-name="udieresis" unicode="&#xfc;" horiz-adv-x="524" d="M194 -14 Q132 -14 97 21 Q62 56 62 118 Q62 156 69 202 L101 457 L180 457 L147 190 L145 168 Q142 147 142 134 Q142 98 161.5 78.5 Q181 59 219 59 Q278 59 320 104 Q338 126 348.5 152.5 Q359 179 366 240 L392 457 L471 457 L415 0 L336 0 L344 63 Q309 20 273.5 3 Q238 -14 194 -14 Z M221 667 Q240 667 253 652 Q266 637 266 616 Q266 596 252 581 Q238 566 218 566 Q199 566 185 580.5 Q171 595 171 615 Q171 637 185.5 652 Q200 667 221 667 Z M396 667 Q415 667 428 652 Q441 637 441 616 Q441 596 427 581 Q413 566 393 566 Q374 566 360 580.5 Q346 595 346 615 Q346 637 360.5 652 Q375 667 396 667 Z " />
<glyph glyph-name="ugrave" unicode="&#xf9;" horiz-adv-x="524" d="M194 -14 Q132 -14 97 21 Q62 56 62 118 Q62 156 69 202 L101 457 L180 457 L147 190 L145 168 Q142 147 142 134 Q142 98 161.5 78.5 Q181 59 219 59 Q278 59 320 104 Q338 126 348.5 152.5 Q359 179 366 240 L392 457 L471 457 L415 0 L336 0 L344 63 Q309 20 273.5 3 Q238 -14 194 -14 Z M353 563 L305 534 L200 678 L270 720 L353 563 Z " />
<glyph glyph-name="uhorn" unicode="&#x1b0;" horiz-adv-x="524" d="M478 332 L553 510 L623 480 L525 311 L478 332 Z M194 -14 Q132 -14 97 21 Q62 56 62 118 Q62 156 69 202 L101 457 L180 457 L147 190 L145 168 Q142 147 142 134 Q142 98 161.5 78.5 Q181 59 219 59 Q278 59 320 104 Q338 126 348.5 152.5 Q359 179 366 240 L392 457 L471 457 L415 0 L336 0 L344 63 Q309 20 273.5 3 Q238 -14 194 -14 Z " />
<glyph glyph-name="uhungarumlaut" unicode="&#x171;" horiz-adv-x="524" d="M194 -14 Q132 -14 97 21 Q62 56 62 118 Q62 156 69 202 L101 457 L180 457 L147 190 L145 168 Q142 147 142 134 Q142 98 161.5 78.5 Q181 59 219 59 Q278 59 320 104 Q338 126 348.5 152.5 Q359 179 366 240 L392 457 L471 457 L415 0 L336 0 L344 63 Q309 20 273.5 3 Q238 -14 194 -14 Z M210 559 L322 720 L383 683 L244 534 L210 559 Z M343 559 L454 720 L514 683 L376 534 L343 559 Z " />
<glyph glyph-name="umacron" unicode="&#x16b;" horiz-adv-x="524" d="M194 -14 Q132 -14 97 21 Q62 56 62 118 Q62 156 69 202 L101 457 L180 457 L147 190 L145 168 Q142 147 142 134 Q142 98 161.5 78.5 Q181 59 219 59 Q278 59 320 104 Q338 126 348.5 152.5 Q359 179 366 240 L392 457 L471 457 L415 0 L336 0 L344 63 Q309 20 273.5 3 Q238 -14 194 -14 Z M444 584 L160 584 L167 646 L452 646 L444 584 Z " />
<glyph glyph-name="uni01C6" unicode="&#x1c6;" horiz-adv-x="1097" d="M412 0 L420 61 Q378 20 344.5 4.5 Q311 -11 264 -11 Q201 -11 150.5 18 Q100 47 71 98.5 Q42 150 42 214 Q42 285 73.5 343 Q105 401 160.5 434.5 Q216 468 284 468 Q339 468 378 447 Q417 426 458 374 L513 824 L592 824 L492 0 L412 0 Z M1048 684 L884 534 L772 684 L814 724 L894 619 L1009 725 L1048 684 Z M594 0 L937 385 L678 385 L686 457 L1093 457 L750 71 L1049 71 L1040 0 L594 0 Z M290 395 Q243 395 205 371.5 Q167 348 145 306.5 Q123 265 123 214 Q123 147 165.5 104 Q208 61 273 61 Q319 61 357.5 86.5 Q396 112 419 155 Q442 198 442 249 Q442 313 399.5 354 Q357 395 290 395 Z " />
<glyph glyph-name="uni01C9" unicode="&#x1c9;" horiz-adv-x="467" d="M45 0 L147 824 L226 824 L124 0 L45 0 Z M398 607 Q379 607 365.5 621 Q352 635 352 655 Q352 677 366.5 691.5 Q381 706 401 706 Q421 706 434.5 692 Q448 678 448 658 Q448 638 433 622.5 Q418 607 398 607 Z M209 -263 Q171 -263 153 -251 L164 -172 Q172 -178 183.5 -182 Q195 -186 207 -186 Q234 -186 247 -169.5 Q260 -153 265 -115 L335 457 L414 457 L344 -121 Q334 -203 301 -233 Q283 -250 260.5 -256.5 Q238 -263 209 -263 Z " />
<glyph glyph-name="uni01CC" unicode="&#x1cc;" horiz-adv-x="755" d="M173 400 Q215 439 245 453.5 Q275 468 315 468 Q378 468 415.5 431.5 Q453 395 453 334 Q453 300 446 254 L416 0 L337 0 L370 267 Q374 309 374 322 Q374 358 353.5 376.5 Q333 395 294 395 Q268 395 243.5 385.5 Q219 376 200 358 Q179 338 169.5 313.5 Q160 289 154 240 L124 0 L45 0 L102 457 L181 457 L173 400 Z M686 607 Q667 607 653.5 621 Q640 635 640 655 Q640 677 654.5 691.5 Q669 706 689 706 Q709 706 722.5 692 Q736 678 736 658 Q736 638 721 622.5 Q706 607 686 607 Z M497 -263 Q459 -263 441 -251 L452 -172 Q460 -178 471.5 -182 Q483 -186 495 -186 Q522 -186 535 -169.5 Q548 -153 553 -115 L623 457 L702 457 L632 -121 Q622 -203 589 -233 Q571 -250 548.5 -256.5 Q526 -263 497 -263 Z " />
<glyph glyph-name="uni01CE" unicode="&#x1ce;" horiz-adv-x="591" d="M490 684 L327 534 L215 684 L258 724 L338 619 L452 725 L490 684 Z M403 0 L411 64 Q369 22 334 5.5 Q299 -11 253 -11 Q191 -11 143 17 Q95 45 68 95.5 Q41 146 41 210 Q41 284 72 343 Q103 402 157.5 435 Q212 468 281 468 Q336 468 374.5 448.5 Q413 429 451 382 L460 457 L539 457 L483 0 L403 0 Z M288 395 Q242 395 204 371 Q166 347 144 306 Q122 265 122 215 Q122 172 141 136.5 Q160 101 193.5 81 Q227 61 268 61 Q313 61 352 86.5 Q391 112 414 154.5 Q437 197 437 246 Q437 311 395 353 Q353 395 288 395 Z " />
<glyph glyph-name="uni01D0" unicode="&#x1d0;" horiz-adv-x="233" d="M312 681 L148 533 L36 683 L79 722 L159 617 L273 723 L312 681 Z M45 0 L102 457 L181 457 L124 0 L45 0 Z " />
<glyph glyph-name="uni01D2" unicode="&#x1d2;" horiz-adv-x="580" d="M457 684 L293 534 L181 684 L223 724 L303 619 L418 725 L457 684 Z M296 471 Q364 471 418 440.5 Q472 410 502 355.5 Q532 301 532 232 Q532 164 499.5 107 Q467 50 410 17.5 Q353 -15 285 -15 Q216 -15 160.5 16 Q105 47 73.5 100.5 Q42 154 42 221 Q42 290 76 347.5 Q110 405 168 438 Q226 471 296 471 Z M293 399 Q246 399 207 376 Q168 353 145.5 313 Q123 273 123 224 Q123 177 144 139 Q165 101 202.5 79.5 Q240 58 286 58 Q333 58 370.5 80.5 Q408 103 429.5 143.5 Q451 184 451 234 Q451 307 407 353 Q363 399 293 399 Z " />
<glyph glyph-name="uni01D4" unicode="&#x1d4;" horiz-adv-x="524" d="M194 -14 Q132 -14 97 21 Q62 56 62 118 Q62 156 69 202 L101 457 L180 457 L147 190 L145 168 Q142 147 142 134 Q142 98 161.5 78.5 Q181 59 219 59 Q278 59 320 104 Q338 126 348.5 152.5 Q359 179 366 240 L392 457 L471 457 L415 0 L336 0 L344 63 Q309 20 273.5 3 Q238 -14 194 -14 Z M456 684 L292 534 L180 684 L223 724 L304 619 L418 725 L456 684 Z " />
<glyph glyph-name="uni01DD" unicode="&#x1dd;" horiz-adv-x="534" d="M252 -15 Q176 -15 120.5 30.5 Q65 76 49 150 Q44 173 42.5 192.5 Q41 212 41 247 L407 247 Q406 280 400.5 300.5 Q395 321 382 340 Q362 368 330 383.5 Q298 399 259 399 Q180 399 132 338 L71 374 Q108 425 153 448 Q198 471 260 471 Q328 471 380 443 Q432 415 460 364.5 Q488 314 488 247 Q488 173 457 113 Q426 53 372 19 Q318 -15 252 -15 Z M255 58 Q288 58 318 71 Q348 84 367 108 Q379 123 386 139 Q393 155 400 182 L122 182 Q126 124 162 91 Q198 58 255 58 Z " />
<glyph glyph-name="uni01F5" unicode="&#x1f5;" horiz-adv-x="597" d="M252 563 L384 720 L451 677 L294 534 L252 563 Z M487 -7 Q478 -83 465 -122 Q452 -161 426 -192 Q395 -229 348.5 -248 Q302 -267 245 -267 Q191 -267 145.5 -249.5 Q100 -232 70 -199 Q46 -173 37 -143.5 Q28 -114 27 -63 L102 -63 Q103 -95 108 -112.5 Q113 -130 125 -147 Q142 -169 173 -181.5 Q204 -194 242 -194 Q279 -194 311 -182 Q343 -170 363 -148 Q380 -129 390.5 -100.5 Q401 -72 407 -24 L416 55 Q373 18 338.5 3.5 Q304 -11 260 -11 Q199 -11 149 18 Q99 47 70.5 98 Q42 149 42 212 Q42 283 74 342 Q106 401 162.5 434.5 Q219 468 287 468 Q339 468 377 448.5 Q415 429 457 381 L466 457 L545 457 L487 -7 Z M294 395 Q246 395 207 371.5 Q168 348 145.5 307.5 Q123 267 123 216 Q123 172 143 136.5 Q163 101 198 81 Q233 61 276 61 Q322 61 361 85 Q400 109 423 150.5 Q446 192 446 241 Q446 310 404 352.5 Q362 395 294 395 Z " />
<glyph glyph-name="uni0201" unicode="&#x201;" horiz-adv-x="591" d="M310 559 L276 534 L138 683 L198 720 L310 559 Z M442 559 L408 534 L269 683 L330 720 L442 559 Z M403 0 L411 64 Q369 22 334 5.5 Q299 -11 253 -11 Q191 -11 143 17 Q95 45 68 95.5 Q41 146 41 210 Q41 284 72 343 Q103 402 157.5 435 Q212 468 281 468 Q336 468 374.5 448.5 Q413 429 451 382 L460 457 L539 457 L483 0 L403 0 Z M288 395 Q242 395 204 371 Q166 347 144 306 Q122 265 122 215 Q122 172 141 136.5 Q160 101 193.5 81 Q227 61 268 61 Q313 61 352 86.5 Q391 112 414 154.5 Q437 197 437 246 Q437 311 395 353 Q353 395 288 395 Z " />
<glyph glyph-name="uni021B" unicode="&#x21b;" horiz-adv-x="301" d="M90 16 Q66 40 66 86 Q66 102 69 123 L105 390 L47 390 L56 461 L114 461 L138 650 L218 650 L194 461 L298 461 L289 390 L185 390 L148 120 Q147 114 147 104 Q147 60 193 60 Q207 60 224 67 Q241 74 254 87 L244 5 Q236 -2 217 -7 Q198 -12 177 -12 Q151 -12 127.5 -5 Q104 2 90 16 Z M64 -258 L17 -237 L92 -60 L162 -89 L64 -258 Z " />
<glyph glyph-name="uni0227" unicode="&#x227;" horiz-adv-x="591" d="M344 667 Q364 667 377.5 652 Q391 637 391 615 Q391 595 376 579.5 Q361 564 341 564 Q321 564 307 578 Q293 592 293 614 Q293 636 307.5 651.5 Q322 667 344 667 Z M403 0 L411 64 Q369 22 334 5.5 Q299 -11 253 -11 Q191 -11 143 17 Q95 45 68 95.5 Q41 146 41 210 Q41 284 72 343 Q103 402 157.5 435 Q212 468 281 468 Q336 468 374.5 448.5 Q413 429 451 382 L460 457 L539 457 L483 0 L403 0 Z M288 395 Q242 395 204 371 Q166 347 144 306 Q122 265 122 215 Q122 172 141 136.5 Q160 101 193.5 81 Q227 61 268 61 Q313 61 352 86.5 Q391 112 414 154.5 Q437 197 437 246 Q437 311 395 353 Q353 395 288 395 Z " />
<glyph glyph-name="uni1EA1" unicode="&#x1ea1;" horiz-adv-x="591" d="M403 0 L411 64 Q369 22 334 5.5 Q299 -11 253 -11 Q191 -11 143 17 Q95 45 68 95.5 Q41 146 41 210 Q41 284 72 343 Q103 402 157.5 435 Q212 468 281 468 Q336 468 374.5 448.5 Q413 429 451 382 L460 457 L539 457 L483 0 L403 0 Z M288 395 Q242 395 204 371 Q166 347 144 306 Q122 265 122 215 Q122 172 141 136.5 Q160 101 193.5 81 Q227 61 268 61 Q313 61 352 86.5 Q391 112 414 154.5 Q437 197 437 246 Q437 311 395 353 Q353 395 288 395 Z M233 -53 Q256 -53 271.5 -69 Q287 -85 287 -107 Q287 -129 271 -144.5 Q255 -160 233 -160 Q212 -160 196.5 -144.5 Q181 -129 181 -106 Q181 -84 196 -68.5 Q211 -53 233 -53 Z " />
<glyph glyph-name="uni1EA3" unicode="&#x1ea3;" horiz-adv-x="591" d="M304 608 Q338 614 340 614 Q380 618 397 630.5 Q414 643 414 668 Q414 684 400 694 Q386 704 363 704 Q347 704 340.5 702.5 Q334 701 316 693 Q304 687 296 684 L289 720 Q322 732 345.5 736.5 Q369 741 393 741 Q435 741 459.5 722 Q484 703 484 671 Q484 631 455 606.5 Q426 582 379 582 Q357 582 344 583 L334 539 L289 539 L304 608 Z M403 0 L411 64 Q369 22 334 5.5 Q299 -11 253 -11 Q191 -11 143 17 Q95 45 68 95.5 Q41 146 41 210 Q41 284 72 343 Q103 402 157.5 435 Q212 468 281 468 Q336 468 374.5 448.5 Q413 429 451 382 L460 457 L539 457 L483 0 L403 0 Z M288 395 Q242 395 204 371 Q166 347 144 306 Q122 265 122 215 Q122 172 141 136.5 Q160 101 193.5 81 Q227 61 268 61 Q313 61 352 86.5 Q391 112 414 154.5 Q437 197 437 246 Q437 311 395 353 Q353 395 288 395 Z " />
<glyph glyph-name="uni1EA5" unicode="&#x1ea5;" horiz-adv-x="591" d="M599 734 L452 602 L471 576 L429 536 L349 641 L234 534 L195 576 L359 725 L420 645 L531 779 L599 734 Z M403 0 L411 64 Q369 22 334 5.5 Q299 -11 253 -11 Q191 -11 143 17 Q95 45 68 95.5 Q41 146 41 210 Q41 284 72 343 Q103 402 157.5 435 Q212 468 281 468 Q336 468 374.5 448.5 Q413 429 451 382 L460 457 L539 457 L483 0 L403 0 Z M288 395 Q242 395 204 371 Q166 347 144 306 Q122 265 122 215 Q122 172 141 136.5 Q160 101 193.5 81 Q227 61 268 61 Q313 61 352 86.5 Q391 112 414 154.5 Q437 197 437 246 Q437 311 395 353 Q353 395 288 395 Z " />
<glyph glyph-name="uni1EA7" unicode="&#x1ea7;" horiz-adv-x="591" d="M553 615 L504 591 L402 729 L472 768 L553 615 Z M175 566 L355 703 L481 565 L435 525 L344 621 L218 524 L175 566 Z M403 0 L411 64 Q369 22 334 5.5 Q299 -11 253 -11 Q191 -11 143 17 Q95 45 68 95.5 Q41 146 41 210 Q41 284 72 343 Q103 402 157.5 435 Q212 468 281 468 Q336 468 374.5 448.5 Q413 429 451 382 L460 457 L539 457 L483 0 L403 0 Z M288 395 Q242 395 204 371 Q166 347 144 306 Q122 265 122 215 Q122 172 141 136.5 Q160 101 193.5 81 Q227 61 268 61 Q313 61 352 86.5 Q391 112 414 154.5 Q437 197 437 246 Q437 311 395 353 Q353 395 288 395 Z " />
<glyph glyph-name="uni1EA9" unicode="&#x1ea9;" horiz-adv-x="591" d="M444 669 Q476 675 480 675 Q520 679 537 691.5 Q554 704 554 729 Q554 745 540 755 Q526 765 503 765 Q487 765 480.5 763.5 Q474 762 457 754 Q444 748 435 745 L429 781 Q487 802 533 802 Q575 802 599.5 783 Q624 764 624 732 Q624 692 594.5 667.5 Q565 643 518 643 Q496 643 484 644 L475 600 L453 600 L471 576 L429 536 L349 642 L234 536 L195 576 L359 725 L435 626 L444 669 Z M403 0 L411 64 Q369 22 334 5.5 Q299 -11 253 -11 Q191 -11 143 17 Q95 45 68 95.5 Q41 146 41 210 Q41 284 72 343 Q103 402 157.5 435 Q212 468 281 468 Q336 468 374.5 448.5 Q413 429 451 382 L460 457 L539 457 L483 0 L403 0 Z M288 395 Q242 395 204 371 Q166 347 144 306 Q122 265 122 215 Q122 172 141 136.5 Q160 101 193.5 81 Q227 61 268 61 Q313 61 352 86.5 Q391 112 414 154.5 Q437 197 437 246 Q437 311 395 353 Q353 395 288 395 Z " />
<glyph glyph-name="uni1EAB" unicode="&#x1eab;" horiz-adv-x="591" d="M522 811 Q500 770 477 751 Q454 732 427 732 Q413 732 396.5 739 Q380 746 354 763 Q340 772 332 775.5 Q324 779 316 779 Q308 779 296.5 766 Q285 753 275 733 L228 759 Q253 804 273.5 822 Q294 840 320 840 Q331 840 350.5 831.5 Q370 823 390 810 Q394 808 404 802 Q414 796 418.5 794.5 Q423 793 427 793 Q439 793 450.5 803.5 Q462 814 476 837 L522 811 Z M195 576 L359 725 L471 576 L429 536 L349 641 L234 534 L195 576 Z M403 0 L411 64 Q369 22 334 5.5 Q299 -11 253 -11 Q191 -11 143 17 Q95 45 68 95.5 Q41 146 41 210 Q41 284 72 343 Q103 402 157.5 435 Q212 468 281 468 Q336 468 374.5 448.5 Q413 429 451 382 L460 457 L539 457 L483 0 L403 0 Z M288 395 Q242 395 204 371 Q166 347 144 306 Q122 265 122 215 Q122 172 141 136.5 Q160 101 193.5 81 Q227 61 268 61 Q313 61 352 86.5 Q391 112 414 154.5 Q437 197 437 246 Q437 311 395 353 Q353 395 288 395 Z " />
<glyph glyph-name="uni1EAD" unicode="&#x1ead;" horiz-adv-x="591" d="M195 576 L359 725 L471 576 L429 536 L349 641 L234 534 L195 576 Z M403 0 L411 64 Q369 22 334 5.5 Q299 -11 253 -11 Q191 -11 143 17 Q95 45 68 95.5 Q41 146 41 210 Q41 284 72 343 Q103 402 157.5 435 Q212 468 281 468 Q336 468 374.5 448.5 Q413 429 451 382 L460 457 L539 457 L483 0 L403 0 Z M288 395 Q242 395 204 371 Q166 347 144 306 Q122 265 122 215 Q122 172 141 136.5 Q160 101 193.5 81 Q227 61 268 61 Q313 61 352 86.5 Q391 112 414 154.5 Q437 197 437 246 Q437 311 395 353 Q353 395 288 395 Z M287 -41 Q310 -41 325.5 -56.5 Q341 -72 341 -95 Q341 -116 325 -132 Q309 -148 287 -148 Q266 -148 250.5 -132 Q235 -116 235 -94 Q235 -72 250 -56.5 Q265 -41 287 -41 Z " />
<glyph glyph-name="uni1EAF" unicode="&#x1eaf;" horiz-adv-x="591" d="M308 679 L441 836 L507 793 L350 651 L308 679 Z M277 692 Q278 649 293.5 628.5 Q309 608 340 608 Q369 608 393.5 630.5 Q418 653 431 692 L490 692 Q474 625 431.5 586 Q389 547 334 547 Q297 547 268 566.5 Q239 586 225 621 Q219 637 218 647 Q217 657 217 692 L277 692 Z M403 0 L411 64 Q369 22 334 5.5 Q299 -11 253 -11 Q191 -11 143 17 Q95 45 68 95.5 Q41 146 41 210 Q41 284 72 343 Q103 402 157.5 435 Q212 468 281 468 Q336 468 374.5 448.5 Q413 429 451 382 L460 457 L539 457 L483 0 L403 0 Z M288 395 Q242 395 204 371 Q166 347 144 306 Q122 265 122 215 Q122 172 141 136.5 Q160 101 193.5 81 Q227 61 268 61 Q313 61 352 86.5 Q391 112 414 154.5 Q437 197 437 246 Q437 311 395 353 Q353 395 288 395 Z " />
<glyph glyph-name="uni1EB1" unicode="&#x1eb1;" horiz-adv-x="591" d="M386 677 L338 650 L232 792 L302 835 L386 677 Z M277 692 Q278 649 293.5 628.5 Q309 608 340 608 Q369 608 393.5 630.5 Q418 653 431 692 L490 692 Q474 625 431.5 586 Q389 547 334 547 Q297 547 268 566.5 Q239 586 225 621 Q219 637 218 647 Q217 657 217 692 L277 692 Z M403 0 L411 64 Q369 22 334 5.5 Q299 -11 253 -11 Q191 -11 143 17 Q95 45 68 95.5 Q41 146 41 210 Q41 284 72 343 Q103 402 157.5 435 Q212 468 281 468 Q336 468 374.5 448.5 Q413 429 451 382 L460 457 L539 457 L483 0 L403 0 Z M288 395 Q242 395 204 371 Q166 347 144 306 Q122 265 122 215 Q122 172 141 136.5 Q160 101 193.5 81 Q227 61 268 61 Q313 61 352 86.5 Q391 112 414 154.5 Q437 197 437 246 Q437 311 395 353 Q353 395 288 395 Z " />
<glyph glyph-name="uni1EB3" unicode="&#x1eb3;" horiz-adv-x="591" d="M339 733 Q363 739 375 739 Q416 744 432.5 756 Q449 768 449 793 Q449 810 435.5 819.5 Q422 829 398 829 Q382 829 375.5 827.5 Q369 826 351 818 Q339 812 330 809 L324 845 Q384 867 428 867 Q470 867 494.5 848 Q519 829 519 797 Q519 757 489.5 732 Q460 707 412 707 Q392 707 379 709 L370 664 L324 664 L339 733 Z M277 692 Q278 649 293.5 628.5 Q309 608 340 608 Q369 608 393.5 630.5 Q418 653 431 692 L490 692 Q474 625 431.5 586 Q389 547 334 547 Q297 547 268 566.5 Q239 586 225 621 Q219 637 218 647 Q217 657 217 692 L277 692 Z M403 0 L411 64 Q369 22 334 5.5 Q299 -11 253 -11 Q191 -11 143 17 Q95 45 68 95.5 Q41 146 41 210 Q41 284 72 343 Q103 402 157.5 435 Q212 468 281 468 Q336 468 374.5 448.5 Q413 429 451 382 L460 457 L539 457 L483 0 L403 0 Z M288 395 Q242 395 204 371 Q166 347 144 306 Q122 265 122 215 Q122 172 141 136.5 Q160 101 193.5 81 Q227 61 268 61 Q313 61 352 86.5 Q391 112 414 154.5 Q437 197 437 246 Q437 311 395 353 Q353 395 288 395 Z " />
<glyph glyph-name="uni1EB5" unicode="&#x1eb5;" horiz-adv-x="591" d="M506 794 Q484 753 460.5 734 Q437 715 411 715 Q396 715 379.5 722 Q363 729 337 746 Q323 755 315.5 758.5 Q308 762 301 762 Q291 762 279.5 749.5 Q268 737 258 716 L212 744 Q237 787 257.5 805 Q278 823 304 823 Q315 823 334.5 815 Q354 807 374 793 Q380 790 389 784.5 Q398 779 402 777.5 Q406 776 411 776 Q423 776 434.5 786.5 Q446 797 460 822 L506 794 Z M277 692 Q278 649 293.5 628.5 Q309 608 340 608 Q369 608 393.5 630.5 Q418 653 431 692 L490 692 Q474 625 431.5 586 Q389 547 334 547 Q297 547 268 566.5 Q239 586 225 621 Q219 637 218 647 Q217 657 217 692 L277 692 Z M403 0 L411 64 Q369 22 334 5.5 Q299 -11 253 -11 Q191 -11 143 17 Q95 45 68 95.5 Q41 146 41 210 Q41 284 72 343 Q103 402 157.5 435 Q212 468 281 468 Q336 468 374.5 448.5 Q413 429 451 382 L460 457 L539 457 L483 0 L403 0 Z M288 395 Q242 395 204 371 Q166 347 144 306 Q122 265 122 215 Q122 172 141 136.5 Q160 101 193.5 81 Q227 61 268 61 Q313 61 352 86.5 Q391 112 414 154.5 Q437 197 437 246 Q437 311 395 353 Q353 395 288 395 Z " />
<glyph glyph-name="uni1EB7" unicode="&#x1eb7;" horiz-adv-x="591" d="M277 692 Q278 649 293.5 628.5 Q309 608 340 608 Q369 608 393.5 630.5 Q418 653 431 692 L490 692 Q474 625 431.5 586 Q389 547 334 547 Q297 547 268 566.5 Q239 586 225 621 Q219 637 218 647 Q217 657 217 692 L277 692 Z M403 0 L411 64 Q369 22 334 5.5 Q299 -11 253 -11 Q191 -11 143 17 Q95 45 68 95.5 Q41 146 41 210 Q41 284 72 343 Q103 402 157.5 435 Q212 468 281 468 Q336 468 374.5 448.5 Q413 429 451 382 L460 457 L539 457 L483 0 L403 0 Z M288 395 Q242 395 204 371 Q166 347 144 306 Q122 265 122 215 Q122 172 141 136.5 Q160 101 193.5 81 Q227 61 268 61 Q313 61 352 86.5 Q391 112 414 154.5 Q437 197 437 246 Q437 311 395 353 Q353 395 288 395 Z M287 -41 Q310 -41 325.5 -56.5 Q341 -72 341 -95 Q341 -116 325 -132 Q309 -148 287 -148 Q266 -148 250.5 -132 Q235 -116 235 -94 Q235 -72 250 -56.5 Q265 -41 287 -41 Z " />
<glyph glyph-name="uni1EB9" unicode="&#x1eb9;" horiz-adv-x="530" d="M122 209 Q123 176 128.5 155.5 Q134 135 147 116 Q167 88 199 73 Q231 58 270 58 Q349 58 397 119 L458 82 Q421 32 375.5 8.5 Q330 -15 269 -15 Q201 -15 149 13 Q97 41 69 92 Q41 143 41 209 Q41 283 72 343 Q103 403 156.5 437 Q210 471 277 471 Q354 471 409 426 Q464 381 480 306 Q485 283 486.5 264 Q488 245 488 209 L122 209 Z M407 275 Q403 333 367 366 Q331 399 273 399 Q240 399 210.5 386 Q181 373 162 348 Q150 334 143 318 Q136 302 129 275 L407 275 Z M255 -41 Q278 -41 294 -56.5 Q310 -72 310 -95 Q310 -116 293.5 -132 Q277 -148 255 -148 Q234 -148 218.5 -132 Q203 -116 203 -94 Q203 -72 218 -56.5 Q233 -41 255 -41 Z " />
<glyph glyph-name="uni1EBB" unicode="&#x1ebb;" horiz-adv-x="530" d="M270 629 Q294 635 306 635 Q346 640 363 652.5 Q380 665 380 689 Q380 706 366.5 715.5 Q353 725 329 725 Q312 725 305.5 723.5 Q299 722 283 714 Q270 709 262 705 L255 741 Q316 763 359 763 Q401 763 425.5 744 Q450 725 450 693 Q450 653 420.5 628 Q391 603 345 603 Q323 603 310 605 L301 560 L255 560 L270 629 Z M122 209 Q123 176 128.5 155.5 Q134 135 147 116 Q167 88 199 73 Q231 58 270 58 Q349 58 397 119 L458 82 Q421 32 375.5 8.5 Q330 -15 269 -15 Q201 -15 149 13 Q97 41 69 92 Q41 143 41 209 Q41 283 72 343 Q103 403 156.5 437 Q210 471 277 471 Q354 471 409 426 Q464 381 480 306 Q485 283 486.5 264 Q488 245 488 209 L122 209 Z M407 275 Q403 333 367 366 Q331 399 273 399 Q240 399 210.5 386 Q181 373 162 348 Q150 334 143 318 Q136 302 129 275 L407 275 Z " />
<glyph glyph-name="uni1EBD" unicode="&#x1ebd;" horiz-adv-x="530" d="M452 649 Q429 607 406.5 587.5 Q384 568 357 568 Q343 568 326.5 575 Q310 582 284 600 Q260 616 247 616 Q238 616 226.5 603.5 Q215 591 205 570 L158 597 Q183 642 203.5 659.5 Q224 677 250 677 Q260 677 279.5 668.5 Q299 660 320 647 Q335 638 343 633.5 Q351 629 358 629 Q369 629 380 639.5 Q391 650 406 675 L452 649 Z M122 209 Q123 176 128.5 155.5 Q134 135 147 116 Q167 88 199 73 Q231 58 270 58 Q349 58 397 119 L458 82 Q421 32 375.5 8.5 Q330 -15 269 -15 Q201 -15 149 13 Q97 41 69 92 Q41 143 41 209 Q41 283 72 343 Q103 403 156.5 437 Q210 471 277 471 Q354 471 409 426 Q464 381 480 306 Q485 283 486.5 264 Q488 245 488 209 L122 209 Z M407 275 Q403 333 367 366 Q331 399 273 399 Q240 399 210.5 386 Q181 373 162 348 Q150 334 143 318 Q136 302 129 275 L407 275 Z " />
<glyph glyph-name="uni1EBF" unicode="&#x1ebf;" horiz-adv-x="530" d="M565 730 L421 601 L440 576 L398 536 L318 642 L202 536 L164 576 L328 725 L389 644 L497 774 L565 730 Z M122 209 Q123 176 128.5 155.5 Q134 135 147 116 Q167 88 199 73 Q231 58 270 58 Q349 58 397 119 L458 82 Q421 32 375.5 8.5 Q330 -15 269 -15 Q201 -15 149 13 Q97 41 69 92 Q41 143 41 209 Q41 283 72 343 Q103 403 156.5 437 Q210 471 277 471 Q354 471 409.5 426 Q465 381 480 306 Q485 283 486.5 264 Q488 245 488 209 L122 209 Z M407 275 Q403 333 367 366 Q331 399 273 399 Q240 399 210.5 386 Q181 373 162 348 Q150 334 143 318 Q136 302 129 275 L407 275 Z " />
<glyph glyph-name="uni1EC1" unicode="&#x1ec1;" horiz-adv-x="530" d="M506 612 L458 589 L356 727 L426 766 L506 612 Z M130 564 L308 702 L436 564 L390 523 L298 619 L172 522 L130 564 Z M122 209 Q123 176 128.5 155.5 Q134 135 147 116 Q167 88 199 73 Q231 58 270 58 Q349 58 397 119 L458 82 Q421 32 375.5 8.5 Q330 -15 269 -15 Q201 -15 149 13 Q97 41 69 92 Q41 143 41 209 Q41 283 72 343 Q103 403 156.5 437 Q210 471 277 471 Q354 471 409.5 426 Q465 381 480 306 Q485 283 486.5 264 Q488 245 488 209 L122 209 Z M407 275 Q403 333 367 366 Q331 399 273 399 Q240 399 210.5 386 Q181 373 162 348 Q150 334 143 318 Q136 302 129 275 L407 275 Z " />
<glyph glyph-name="uni1EC3" unicode="&#x1ec3;" horiz-adv-x="530" d="M403 679 Q410 680 441 685 Q482 690 498 702 Q514 714 514 739 Q514 755 500.5 764.5 Q487 774 463 774 Q447 774 440.5 772.5 Q434 771 417 763 Q405 757 395 755 L389 791 Q422 802 446 806.5 Q470 811 494 811 Q535 811 559.5 792 Q584 773 584 741 Q584 701 554.5 676.5 Q525 652 478 652 L444 653 L434 610 L415 610 L440 576 L398 536 L318 642 L202 536 L164 576 L328 725 L394 636 L403 679 Z M122 209 Q123 176 128.5 155.5 Q134 135 147 116 Q167 88 199 73 Q231 58 270 58 Q349 58 397 119 L458 82 Q421 32 375.5 8.5 Q330 -15 269 -15 Q201 -15 149 13 Q97 41 69 92 Q41 143 41 209 Q41 283 72 343 Q103 403 156.5 437 Q210 471 277 471 Q354 471 409.5 426 Q465 381 480 306 Q485 283 486.5 264 Q488 245 488 209 L122 209 Z M407 275 Q403 333 367 366 Q331 399 273 399 Q240 399 210.5 386 Q181 373 162 348 Q150 334 143 318 Q136 302 129 275 L407 275 Z " />
<glyph glyph-name="uni1EC5" unicode="&#x1ec5;" horiz-adv-x="530" d="M481 820 Q459 779 436.5 760 Q414 741 386 741 Q372 741 355.5 748 Q339 755 313 772 Q299 781 291.5 784.5 Q284 788 277 788 Q267 788 255.5 775.5 Q244 763 234 742 L188 770 Q213 813 233.5 831 Q254 849 279 849 Q291 849 310 841 Q329 833 349 819 Q355 816 364.5 810.5 Q374 805 378.5 803.5 Q383 802 388 802 Q399 802 410.5 812.5 Q422 823 435 846 L481 820 Z M164 576 L328 725 L440 576 L398 536 L318 641 L202 534 L164 576 Z M122 209 Q123 176 128.5 155.5 Q134 135 147 116 Q167 88 199 73 Q231 58 270 58 Q349 58 397 119 L458 82 Q421 32 375.5 8.5 Q330 -15 269 -15 Q201 -15 149 13 Q97 41 69 92 Q41 143 41 209 Q41 283 72 343 Q103 403 156.5 437 Q210 471 277 471 Q354 471 409 426 Q464 381 480 306 Q485 283 486.5 264 Q488 245 488 209 L122 209 Z M407 275 Q403 333 367 366 Q331 399 273 399 Q240 399 210.5 386 Q181 373 162 348 Q150 334 143 318 Q136 302 129 275 L407 275 Z " />
<glyph glyph-name="uni1EC7" unicode="&#x1ec7;" horiz-adv-x="530" d="M164 576 L328 725 L440 576 L398 536 L318 641 L202 534 L164 576 Z M122 209 Q123 176 128.5 155.5 Q134 135 147 116 Q167 88 199 73 Q231 58 270 58 Q349 58 397 119 L458 82 Q421 32 375.5 8.5 Q330 -15 269 -15 Q201 -15 149 13 Q97 41 69 92 Q41 143 41 209 Q41 283 72 343 Q103 403 156.5 437 Q210 471 277 471 Q354 471 409 426 Q464 381 480 306 Q485 283 486.5 264 Q488 245 488 209 L122 209 Z M407 275 Q403 333 367 366 Q331 399 273 399 Q240 399 210.5 386 Q181 373 162 348 Q150 334 143 318 Q136 302 129 275 L407 275 Z M255 -41 Q278 -41 294 -56.5 Q310 -72 310 -95 Q310 -116 293.5 -132 Q277 -148 255 -148 Q234 -148 218.5 -132 Q203 -116 203 -94 Q203 -72 218 -56.5 Q233 -41 255 -41 Z " />
<glyph glyph-name="uni1EC9" unicode="&#x1ec9;" horiz-adv-x="233" d="M145 629 Q167 635 181 635 Q221 640 237.5 652.5 Q254 665 254 689 Q254 706 240.5 715.5 Q227 725 203 725 Q188 725 181.5 723.5 Q175 722 157 714 L136 705 L130 741 Q163 753 186.5 758 Q210 763 234 763 Q275 763 299.5 744 Q324 725 324 693 Q324 653 294.5 628 Q265 603 218 603 Q198 603 184 605 L175 560 L130 560 L145 629 Z M45 0 L102 457 L181 457 L124 0 L45 0 Z " />
<glyph glyph-name="uni1ECB" unicode="&#x1ecb;" horiz-adv-x="233" d="M167 705 Q187 705 201 691 Q215 677 215 657 Q215 636 200 621 Q185 606 165 606 Q146 606 132.5 620 Q119 634 119 654 Q119 676 133 690.5 Q147 705 167 705 Z M45 0 L102 457 L181 457 L124 0 L45 0 Z M80 -45 Q103 -45 118.5 -60.5 Q134 -76 134 -99 Q134 -121 118 -137 Q102 -153 80 -153 Q59 -153 43.5 -137 Q28 -121 28 -98 Q28 -76 43 -60.5 Q58 -45 80 -45 Z " />
<glyph glyph-name="uni1ECD" unicode="&#x1ecd;" horiz-adv-x="580" d="M296 471 Q364 471 418 440.5 Q472 410 502 355.5 Q532 301 532 232 Q532 164 499.5 107 Q467 50 410 17.5 Q353 -15 285 -15 Q216 -15 160.5 16 Q105 47 73.5 100.5 Q42 154 42 221 Q42 290 76 347.5 Q110 405 168 438 Q226 471 296 471 Z M293 399 Q246 399 207 376 Q168 353 145.5 313 Q123 273 123 224 Q123 177 144 139 Q165 101 202.5 79.5 Q240 58 286 58 Q333 58 370.5 80.5 Q408 103 429.5 143.5 Q451 184 451 234 Q451 307 407 353 Q363 399 293 399 Z M281 -41 Q304 -41 320 -56.5 Q336 -72 336 -95 Q336 -116 319.5 -132 Q303 -148 281 -148 Q260 -148 244.5 -132 Q229 -116 229 -94 Q229 -72 244 -56.5 Q259 -41 281 -41 Z " />
<glyph glyph-name="uni1ECF" unicode="&#x1ecf;" horiz-adv-x="580" d="M301 608 Q331 614 337 614 Q377 618 393.5 630.5 Q410 643 410 668 Q410 685 396.5 694.5 Q383 704 359 704 Q343 704 336.5 702.5 Q330 701 313 693 Q301 687 293 684 L286 720 Q318 732 341.5 736.5 Q365 741 390 741 Q431 741 455.5 722 Q480 703 480 671 Q480 631 450.5 606.5 Q421 582 374 582 Q354 582 340 583 L331 539 L286 539 L301 608 Z M296 471 Q364 471 418 440.5 Q472 410 502 355.5 Q532 301 532 232 Q532 164 499.5 107 Q467 50 410 17.5 Q353 -15 285 -15 Q216 -15 160.5 16 Q105 47 73.5 100.5 Q42 154 42 221 Q42 290 76 347.5 Q110 405 168 438 Q226 471 296 471 Z M293 399 Q246 399 207 376 Q168 353 145.5 313 Q123 273 123 224 Q123 177 144 139 Q165 101 202.5 79.5 Q240 58 286 58 Q333 58 370.5 80.5 Q408 103 429.5 143.5 Q451 184 451 234 Q451 307 407 353 Q363 399 293 399 Z " />
<glyph glyph-name="uni1ED1" unicode="&#x1ed1;" horiz-adv-x="580" d="M576 731 L436 606 L459 576 L416 536 L336 642 L221 536 L182 576 L347 725 L403 650 L508 775 L576 731 Z M296 471 Q363 471 416.5 440.5 Q470 410 500.5 356.5 Q531 303 531 236 Q531 165 499 107.5 Q467 50 410.5 17.5 Q354 -15 284 -15 Q215 -15 160 16 Q105 47 73.5 100.5 Q42 154 42 221 Q42 290 75.5 347.5 Q109 405 167.5 438 Q226 471 296 471 Z M293 399 Q246 399 207 376 Q168 353 145.5 313 Q123 273 123 224 Q123 177 144 139 Q165 101 202.5 79.5 Q240 58 286 58 Q333 58 370.5 80.5 Q408 103 429 143.5 Q450 184 450 234 Q450 307 406 353 Q362 399 293 399 Z " />
<glyph glyph-name="uni1ED3" unicode="&#x1ed3;" horiz-adv-x="580" d="M547 617 L498 592 L397 731 L467 771 L547 617 Z M169 567 L349 705 L476 567 L429 528 L338 623 L212 527 L169 567 Z M296 471 Q363 471 416.5 440.5 Q470 410 500.5 356.5 Q531 303 531 236 Q531 165 499 107.5 Q467 50 410.5 17.5 Q354 -15 284 -15 Q215 -15 160 16 Q105 47 73.5 100.5 Q42 154 42 221 Q42 290 75.5 347.5 Q109 405 167.5 438 Q226 471 296 471 Z M293 399 Q246 399 207 376 Q168 353 145.5 313 Q123 273 123 224 Q123 177 144 139 Q165 101 202.5 79.5 Q240 58 286 58 Q333 58 370.5 80.5 Q408 103 429 143.5 Q450 184 450 234 Q450 307 406 353 Q362 399 293 399 Z " />
<glyph glyph-name="uni1ED5" unicode="&#x1ed5;" horiz-adv-x="580" d="M432 671 Q455 677 468 677 Q509 683 525 694.5 Q541 706 541 731 Q541 748 527.5 757.5 Q514 767 490 767 Q474 767 467.5 765.5 Q461 764 444 756 Q432 750 424 747 L417 783 Q450 795 473.5 800 Q497 805 521 805 Q562 805 586.5 785.5 Q611 766 611 734 Q611 694 581.5 669.5 Q552 645 505 645 Q484 645 471 646 L462 602 L438 602 L459 576 L416 536 L336 642 L221 536 L182 576 L347 725 L421 626 L432 671 Z M296 471 Q363 471 416.5 440.5 Q470 410 500.5 356.5 Q531 303 531 236 Q531 165 499 107.5 Q467 50 410.5 17.5 Q354 -15 284 -15 Q215 -15 160 16 Q105 47 73.5 100.5 Q42 154 42 221 Q42 290 75.5 347.5 Q109 405 167.5 438 Q226 471 296 471 Z M293 399 Q246 399 207 376 Q168 353 145.5 313 Q123 273 123 224 Q123 177 144 139 Q165 101 202.5 79.5 Q240 58 286 58 Q333 58 370.5 80.5 Q408 103 429 143.5 Q450 184 450 234 Q450 307 406 353 Q362 399 293 399 Z " />
<glyph glyph-name="uni1ED7" unicode="&#x1ed7;" horiz-adv-x="580" d="M502 803 Q479 762 456 743 Q433 724 407 724 Q393 724 376 731 Q359 738 333 755 Q309 771 296 771 Q288 771 276 758.5 Q264 746 254 725 L208 753 Q233 797 253 814.5 Q273 832 299 832 Q310 832 329.5 824 Q349 816 370 802 Q384 793 392.5 789 Q401 785 407 785 Q419 785 429.5 795 Q440 805 455 829 L502 803 Z M182 576 L347 725 L459 576 L416 536 L336 641 L221 534 L182 576 Z M296 471 Q364 471 418 440.5 Q472 410 502 355.5 Q532 301 532 232 Q532 164 499.5 107 Q467 50 410 17.5 Q353 -15 285 -15 Q216 -15 160.5 16 Q105 47 73.5 100.5 Q42 154 42 221 Q42 290 76 347.5 Q110 405 168 438 Q226 471 296 471 Z M293 399 Q246 399 207 376 Q168 353 145.5 313 Q123 273 123 224 Q123 177 144 139 Q165 101 202.5 79.5 Q240 58 286 58 Q333 58 370.5 80.5 Q408 103 429.5 143.5 Q451 184 451 234 Q451 307 407 353 Q363 399 293 399 Z " />
<glyph glyph-name="uni1ED9" unicode="&#x1ed9;" horiz-adv-x="580" d="M182 576 L347 725 L459 576 L416 536 L336 641 L221 534 L182 576 Z M296 471 Q364 471 418 440.5 Q472 410 502 355.5 Q532 301 532 232 Q532 164 499.5 107 Q467 50 410 17.5 Q353 -15 285 -15 Q216 -15 160.5 16 Q105 47 73.5 100.5 Q42 154 42 221 Q42 290 76 347.5 Q110 405 168 438 Q226 471 296 471 Z M293 399 Q246 399 207 376 Q168 353 145.5 313 Q123 273 123 224 Q123 177 144 139 Q165 101 202.5 79.5 Q240 58 286 58 Q333 58 370.5 80.5 Q408 103 429.5 143.5 Q451 184 451 234 Q451 307 407 353 Q363 399 293 399 Z M281 -41 Q304 -41 320 -56.5 Q336 -72 336 -95 Q336 -116 319.5 -132 Q303 -148 281 -148 Q260 -148 244.5 -132 Q229 -116 229 -94 Q229 -72 244 -56.5 Q259 -41 281 -41 Z " />
<glyph glyph-name="uni1EDB" unicode="&#x1edb;" horiz-adv-x="580" d="M294 563 L425 720 L493 677 L336 534 L294 563 Z M607 479 L516 322 Q531 282 531 235 Q531 165 499 108 Q467 51 410.5 18 Q354 -15 285 -15 Q216 -15 160.5 16 Q105 47 73.5 100.5 Q42 154 42 221 Q42 290 75.5 347.5 Q109 405 167.5 438 Q226 471 296 471 Q414 471 484 383 L537 508 L607 479 Z M293 399 Q246 399 207 376 Q168 353 145.5 313 Q123 273 123 224 Q123 177 144 139 Q165 101 202.5 79.5 Q240 58 286 58 Q333 58 370.5 80.5 Q408 103 429 143.5 Q450 184 450 234 Q450 307 406 353 Q362 399 293 399 Z " />
<glyph glyph-name="uni1EDD" unicode="&#x1edd;" horiz-adv-x="580" d="M359 563 L311 534 L205 678 L275 720 L359 563 Z M607 479 L516 322 Q531 282 531 235 Q531 165 499 108 Q467 51 410.5 18 Q354 -15 285 -15 Q216 -15 160.5 16 Q105 47 73.5 100.5 Q42 154 42 221 Q42 290 75.5 347.5 Q109 405 167.5 438 Q226 471 296 471 Q414 471 484 383 L537 508 L607 479 Z M293 399 Q246 399 207 376 Q168 353 145.5 313 Q123 273 123 224 Q123 177 144 139 Q165 101 202.5 79.5 Q240 58 286 58 Q333 58 370.5 80.5 Q408 103 429 143.5 Q450 184 450 234 Q450 307 406 353 Q362 399 293 399 Z " />
<glyph glyph-name="uni1EDF" unicode="&#x1edf;" horiz-adv-x="580" d="M297 629 Q323 635 334 635 Q374 640 390.5 652.5 Q407 665 407 689 Q407 706 393.5 715.5 Q380 725 356 725 Q341 725 334 723.5 Q327 722 310 714 L289 705 L283 741 Q317 753 340 758 Q363 763 386 763 Q428 763 452.5 744 Q477 725 477 693 Q477 653 447.5 628 Q418 603 372 603 Q350 603 337 605 L328 560 L283 560 L297 629 Z M607 479 L516 322 Q531 282 531 235 Q531 165 499 108 Q467 51 410.5 18 Q354 -15 285 -15 Q216 -15 160.5 16 Q105 47 73.5 100.5 Q42 154 42 221 Q42 290 75.5 347.5 Q109 405 167.5 438 Q226 471 296 471 Q414 471 484 383 L537 508 L607 479 Z M293 399 Q246 399 207 376 Q168 353 145.5 313 Q123 273 123 224 Q123 177 144 139 Q165 101 202.5 79.5 Q240 58 286 58 Q333 58 370.5 80.5 Q408 103 429 143.5 Q450 184 450 234 Q450 307 406 353 Q362 399 293 399 Z " />
<glyph glyph-name="uni1EE1" unicode="&#x1ee1;" horiz-adv-x="580" d="M477 649 Q454 607 431.5 587.5 Q409 568 382 568 Q368 568 351.5 575 Q335 582 308 600 Q294 610 287 613 Q280 616 272 616 Q263 616 251 603.5 Q239 591 229 570 L184 597 Q209 642 229 659.5 Q249 677 275 677 Q286 677 305.5 668.5 Q325 660 346 647 Q351 644 360.5 638 Q370 632 374 630.5 Q378 629 383 629 Q395 629 406 639.5 Q417 650 432 675 L477 649 Z M607 479 L516 322 Q531 282 531 235 Q531 165 499 108 Q467 51 410.5 18 Q354 -15 285 -15 Q216 -15 160.5 16 Q105 47 73.5 100.5 Q42 154 42 221 Q42 290 75.5 347.5 Q109 405 167.5 438 Q226 471 296 471 Q414 471 484 383 L537 508 L607 479 Z M293 399 Q246 399 207 376 Q168 353 145.5 313 Q123 273 123 224 Q123 177 144 139 Q165 101 202.5 79.5 Q240 58 286 58 Q333 58 370.5 80.5 Q408 103 429 143.5 Q450 184 450 234 Q450 307 406 353 Q362 399 293 399 Z " />
<glyph glyph-name="uni1EE3" unicode="&#x1ee3;" horiz-adv-x="580" d="M607 479 L516 322 Q531 282 531 235 Q531 165 499 108 Q467 51 410.5 18 Q354 -15 285 -15 Q216 -15 160.5 16 Q105 47 73.5 100.5 Q42 154 42 221 Q42 290 75.5 347.5 Q109 405 167.5 438 Q226 471 296 471 Q414 471 484 383 L537 508 L607 479 Z M293 399 Q246 399 207 376 Q168 353 145.5 313 Q123 273 123 224 Q123 177 144 139 Q165 101 202.5 79.5 Q240 58 286 58 Q333 58 370.5 80.5 Q408 103 429 143.5 Q450 184 450 234 Q450 307 406 353 Q362 399 293 399 Z M281 -41 Q304 -41 320 -56.5 Q336 -72 336 -95 Q336 -116 319.5 -132 Q303 -148 281 -148 Q260 -148 244.5 -132 Q229 -116 229 -94 Q229 -72 244 -56.5 Q259 -41 281 -41 Z " />
<glyph glyph-name="uni1EE5" unicode="&#x1ee5;" horiz-adv-x="524" d="M194 -14 Q132 -14 97 21 Q62 56 62 118 Q62 156 69 202 L101 457 L180 457 L147 190 L145 168 Q142 147 142 134 Q142 98 161.5 78.5 Q181 59 219 59 Q278 59 320 104 Q338 126 348.5 152.5 Q359 179 366 240 L392 457 L471 457 L415 0 L336 0 L344 63 Q309 20 273.5 3 Q238 -14 194 -14 Z M222 -49 Q245 -49 261 -64.5 Q277 -80 277 -103 Q277 -124 260.5 -140 Q244 -156 222 -156 Q201 -156 185.5 -140 Q170 -124 170 -102 Q170 -80 185 -64.5 Q200 -49 222 -49 Z " />
<glyph glyph-name="uni1EE7" unicode="&#x1ee7;" horiz-adv-x="524" d="M194 -14 Q132 -14 97 21 Q62 56 62 118 Q62 156 69 202 L101 457 L180 457 L147 190 L145 168 Q142 147 142 134 Q142 98 161.5 78.5 Q181 59 219 59 Q278 59 320 104 Q338 126 348.5 152.5 Q359 179 366 240 L392 457 L471 457 L415 0 L336 0 L344 63 Q309 20 273.5 3 Q238 -14 194 -14 Z M283 615 Q311 620 320 620 Q361 626 377 638 Q393 650 393 675 Q393 692 379.5 701.5 Q366 711 342 711 Q325 711 318.5 709.5 Q312 708 296 699 Q283 694 276 690 L269 727 Q304 739 327 743.5 Q350 748 373 748 Q414 748 438.5 729 Q463 710 463 678 Q463 638 434 613.5 Q405 589 358 589 Q337 589 323 590 L314 546 L269 546 L283 615 Z " />
<glyph glyph-name="uni1EE9" unicode="&#x1ee9;" horiz-adv-x="524" d="M478 332 L553 510 L623 480 L525 311 L478 332 Z M194 -14 Q132 -14 97 21 Q62 56 62 118 Q62 156 69 202 L101 457 L180 457 L147 190 L145 168 Q142 147 142 134 Q142 98 161.5 78.5 Q181 59 219 59 Q278 59 320 104 Q338 126 348.5 152.5 Q359 179 366 240 L392 457 L471 457 L415 0 L336 0 L344 63 Q309 20 273.5 3 Q238 -14 194 -14 Z M266 563 L398 720 L465 677 L308 534 L266 563 Z " />
<glyph glyph-name="uni1EEB" unicode="&#x1eeb;" horiz-adv-x="524" d="M478 332 L553 510 L623 480 L525 311 L478 332 Z M194 -14 Q132 -14 97 21 Q62 56 62 118 Q62 156 69 202 L101 457 L180 457 L147 190 L145 168 Q142 147 142 134 Q142 98 161.5 78.5 Q181 59 219 59 Q278 59 320 104 Q338 126 348.5 152.5 Q359 179 366 240 L392 457 L471 457 L415 0 L336 0 L344 63 Q309 20 273.5 3 Q238 -14 194 -14 Z M332 563 L284 534 L179 678 L249 720 L332 563 Z " />
<glyph glyph-name="uni1EED" unicode="&#x1eed;" horiz-adv-x="524" d="M478 332 L553 510 L623 480 L525 311 L478 332 Z M194 -14 Q132 -14 97 21 Q62 56 62 118 Q62 156 69 202 L101 457 L180 457 L147 190 L145 168 Q142 147 142 134 Q142 98 161.5 78.5 Q181 59 219 59 Q278 59 320 104 Q338 126 348.5 152.5 Q359 179 366 240 L392 457 L471 457 L415 0 L336 0 L344 63 Q309 20 273.5 3 Q238 -14 194 -14 Z M290 615 Q318 620 327 620 Q368 626 384 638 Q400 650 400 675 Q400 692 386.5 701.5 Q373 711 349 711 Q332 711 325.5 709.5 Q319 708 303 699 Q290 694 283 690 L276 727 Q311 739 334 743.5 Q357 748 380 748 Q421 748 445.5 729 Q470 710 470 678 Q470 638 441 613.5 Q412 589 365 589 Q344 589 330 590 L321 546 L276 546 L290 615 Z " />
<glyph glyph-name="uni1EEF" unicode="&#x1eef;" horiz-adv-x="524" d="M478 332 L553 510 L623 480 L525 311 L478 332 Z M194 -14 Q132 -14 97 21 Q62 56 62 118 Q62 156 69 202 L101 457 L180 457 L147 190 L145 168 Q142 147 142 134 Q142 98 161.5 78.5 Q181 59 219 59 Q278 59 320 104 Q338 126 348.5 152.5 Q359 179 366 240 L392 457 L471 457 L415 0 L336 0 L344 63 Q309 20 273.5 3 Q238 -14 194 -14 Z M451 649 Q429 607 405.5 587.5 Q382 568 356 568 Q342 568 325.5 575 Q309 582 283 600 Q269 609 261 612.5 Q253 616 245 616 Q237 616 225.5 603.5 Q214 591 204 570 L157 597 Q182 642 202.5 659.5 Q223 677 249 677 Q271 677 319 647 Q334 638 342 633.5 Q350 629 356 629 Q368 629 379.5 639.5 Q391 650 405 675 L451 649 Z " />
<glyph glyph-name="uni1EF1" unicode="&#x1ef1;" horiz-adv-x="524" d="M478 332 L553 510 L623 480 L525 311 L478 332 Z M194 -14 Q132 -14 97 21 Q62 56 62 118 Q62 156 69 202 L101 457 L180 457 L147 190 L145 168 Q142 147 142 134 Q142 98 161.5 78.5 Q181 59 219 59 Q278 59 320 104 Q338 126 348.5 152.5 Q359 179 366 240 L392 457 L471 457 L415 0 L336 0 L344 63 Q309 20 273.5 3 Q238 -14 194 -14 Z M222 -49 Q245 -49 261 -64.5 Q277 -80 277 -103 Q277 -124 260.5 -140 Q244 -156 222 -156 Q201 -156 185.5 -140 Q170 -124 170 -102 Q170 -80 185 -64.5 Q200 -49 222 -49 Z " />
<glyph glyph-name="uni1EF5" unicode="&#x1ef5;" horiz-adv-x="478" d="M1 -259 L174 43 L25 457 L110 457 L221 130 L406 457 L495 457 L92 -259 L1 -259 Z M290 -41 Q313 -41 329 -56.5 Q345 -72 345 -95 Q345 -116 328.5 -132 Q312 -148 290 -148 Q269 -148 253.5 -132 Q238 -116 238 -94 Q238 -72 253 -56.5 Q268 -41 290 -41 Z " />
<glyph glyph-name="uni1EF7" unicode="&#x1ef7;" horiz-adv-x="478" d="M252 618 Q286 624 288 624 Q329 629 345.5 641 Q362 653 362 678 Q362 695 348.5 704.5 Q335 714 311 714 Q294 714 287.5 712.5 Q281 711 264 703 Q253 697 244 694 L237 730 Q295 751 341 751 Q383 751 407.5 732 Q432 713 432 681 Q432 641 403 616.5 Q374 592 327 592 Q305 592 292 593 L283 549 L237 549 L252 618 Z M1 -259 L174 43 L25 457 L110 457 L221 130 L406 457 L495 457 L92 -259 L1 -259 Z " />
<glyph glyph-name="uni1EF9" unicode="&#x1ef9;" horiz-adv-x="478" d="M427 649 Q405 607 381.5 587.5 Q358 568 332 568 Q318 568 301.5 575 Q285 582 259 600 Q245 609 237 612.5 Q229 616 221 616 Q213 616 201.5 603.5 Q190 591 180 570 L133 597 Q158 642 178.5 659.5 Q199 677 225 677 Q247 677 295 647 Q310 638 318 633.5 Q326 629 332 629 Q344 629 355.5 639.5 Q367 650 381 675 L427 649 Z M1 -259 L174 43 L25 457 L110 457 L221 130 L406 457 L495 457 L92 -259 L1 -259 Z " />
<glyph glyph-name="uogonek" unicode="&#x173;" horiz-adv-x="524" d="M339 -195 Q305 -195 281.5 -174 Q258 -153 258 -122 Q258 -62 355 0 L336 0 L344 63 Q309 20 273.5 3 Q238 -14 194 -14 Q132 -14 97 21 Q62 56 62 118 Q62 156 69 202 L101 457 L180 457 L147 190 L145 168 Q142 147 142 134 Q142 98 161.5 78.5 Q181 59 219 59 Q280 59 320 104 Q338 126 348.5 152.5 Q359 179 366 240 L392 457 L471 457 L415 0 L395 -14 Q360 -39 344.5 -58.5 Q329 -78 329 -98 Q329 -114 339.5 -123.5 Q350 -133 366 -133 Q392 -133 420 -119 L406 -181 Q372 -195 339 -195 Z " />
<glyph glyph-name="uring" unicode="&#x16f;" horiz-adv-x="524" d="M194 -14 Q132 -14 97 21 Q62 56 62 118 Q62 156 69 202 L101 457 L180 457 L147 190 L145 168 Q142 147 142 134 Q142 98 161.5 78.5 Q181 59 219 59 Q278 59 320 104 Q338 126 348.5 152.5 Q359 179 366 240 L392 457 L471 457 L415 0 L336 0 L344 63 Q309 20 273.5 3 Q238 -14 194 -14 Z M309 723 Q350 723 378.5 694.5 Q407 666 407 625 Q407 584 378 554.5 Q349 525 309 525 Q267 525 238 554.5 Q209 584 209 625 Q209 666 238 694.5 Q267 723 309 723 Z M308 670 Q289 670 276 657 Q263 644 263 625 Q263 606 276.5 592.5 Q290 579 309 579 Q328 579 341 592.5 Q354 606 354 625 Q354 644 341 657 Q328 670 308 670 Z " />
<glyph glyph-name="utilde" unicode="&#x169;" horiz-adv-x="524" d="M194 -14 Q132 -14 97 21 Q62 56 62 118 Q62 156 69 202 L101 457 L180 457 L147 190 L145 168 Q142 147 142 134 Q142 98 161.5 78.5 Q181 59 219 59 Q278 59 320 104 Q338 126 348.5 152.5 Q359 179 366 240 L392 457 L471 457 L415 0 L336 0 L344 63 Q309 20 273.5 3 Q238 -14 194 -14 Z M454 649 Q432 607 408.5 587.5 Q385 568 359 568 Q345 568 328.5 575 Q312 582 286 600 Q272 609 264 612.5 Q256 616 248 616 Q240 616 228.5 603.5 Q217 591 207 570 L160 597 Q185 642 205.5 659.5 Q226 677 252 677 Q274 677 322 647 Q337 638 345 633.5 Q353 629 359 629 Q371 629 382.5 639.5 Q394 650 408 675 L454 649 Z " />
<glyph glyph-name="v" unicode="v" horiz-adv-x="455" d="M25 457 L107 457 L200 134 L383 457 L472 457 L179 -46 L25 457 Z " />
<glyph glyph-name="w" unicode="w" horiz-adv-x="727" d="M363 290 L179 -38 L25 457 L108 457 L202 141 L384 467 L481 141 L654 457 L745 457 L462 -38 L363 290 Z " />
<glyph glyph-name="wacute" unicode="&#x1e83;" horiz-adv-x="727" d="M333 563 L464 720 L532 677 L375 534 L333 563 Z M363 290 L179 -38 L25 457 L108 457 L202 141 L384 467 L481 141 L654 457 L745 457 L462 -38 L363 290 Z " />
<glyph glyph-name="wcircumflex" unicode="&#x175;" horiz-adv-x="727" d="M253 576 L417 725 L529 576 L487 536 L407 641 L292 534 L253 576 Z M363 290 L179 -38 L25 457 L108 457 L202 141 L384 467 L481 141 L654 457 L745 457 L462 -38 L363 290 Z " />
<glyph glyph-name="wdieresis" unicode="&#x1e85;" horiz-adv-x="727" d="M298 667 Q317 667 330.5 652 Q344 637 344 616 Q344 596 329.5 581 Q315 566 295 566 Q276 566 262.5 580.5 Q249 595 249 615 Q249 637 263 652 Q277 667 298 667 Z M475 667 Q494 667 507 652 Q520 637 520 616 Q520 596 505.5 581 Q491 566 471 566 Q452 566 438.5 580.5 Q425 595 425 615 Q425 637 439 652 Q453 667 475 667 Z M363 290 L179 -38 L25 457 L108 457 L202 141 L384 467 L481 141 L654 457 L745 457 L462 -38 L363 290 Z " />
<glyph glyph-name="wgrave" unicode="&#x1e81;" horiz-adv-x="727" d="M462 563 L414 534 L307 678 L377 720 L462 563 Z M363 290 L179 -38 L25 457 L108 457 L202 141 L384 467 L481 141 L654 457 L745 457 L462 -38 L363 290 Z " />
<glyph glyph-name="x" unicode="x" horiz-adv-x="469" d="M342 0 L228 184 L71 0 L-31 0 L186 245 L51 457 L142 457 L240 298 L373 457 L473 457 L283 238 L436 0 L342 0 Z " />
<glyph glyph-name="y" unicode="y" horiz-adv-x="478" d="M1 -259 L174 43 L25 457 L110 457 L221 130 L406 457 L495 457 L92 -259 L1 -259 Z " />
<glyph glyph-name="yacute" unicode="&#xfd;" horiz-adv-x="479" d="M220 563 L353 720 L419 677 L262 534 L220 563 Z M1 -259 L174 43 L25 457 L110 457 L221 130 L406 457 L495 457 L92 -259 L1 -259 Z " />
<glyph glyph-name="ycircumflex" unicode="&#x177;" horiz-adv-x="479" d="M132 576 L297 725 L409 576 L366 536 L286 641 L172 534 L132 576 Z M1 -259 L174 43 L25 457 L110 457 L221 130 L406 457 L495 457 L92 -259 L1 -259 Z " />
<glyph glyph-name="ydieresis" unicode="&#xff;" horiz-adv-x="479" d="M192 667 Q211 667 224 652 Q237 637 237 616 Q237 596 223 581 Q209 566 189 566 Q170 566 156 580.5 Q142 595 142 615 Q142 637 156.5 652 Q171 667 192 667 Z M368 667 Q387 667 400.5 652 Q414 637 414 616 Q414 596 399.5 581 Q385 566 365 566 Q346 566 332.5 580.5 Q319 595 319 615 Q319 637 333 652 Q347 667 368 667 Z M1 -259 L174 43 L25 457 L110 457 L221 130 L406 457 L495 457 L92 -259 L1 -259 Z " />
<glyph glyph-name="ygrave" unicode="&#x1ef3;" horiz-adv-x="478" d="M325 563 L277 534 L172 678 L241 720 L325 563 Z M1 -259 L174 43 L25 457 L110 457 L221 130 L406 457 L495 457 L92 -259 L1 -259 Z " />
<glyph glyph-name="z" unicode="z" horiz-adv-x="497" d="M-6 0 L337 385 L78 385 L87 457 L494 457 L150 71 L449 71 L440 0 L-6 0 Z " />
<glyph glyph-name="zacute" unicode="&#x17a;" horiz-adv-x="497" d="M241 563 L373 720 L441 677 L284 534 L241 563 Z M-6 0 L337 385 L78 385 L87 457 L494 457 L150 71 L449 71 L440 0 L-6 0 Z " />
<glyph glyph-name="zcaron" unicode="&#x17e;" horiz-adv-x="497" d="M449 684 L284 534 L172 684 L215 724 L295 619 L409 725 L449 684 Z M-6 0 L337 385 L78 385 L87 457 L494 457 L150 71 L449 71 L440 0 L-6 0 Z " />
<glyph glyph-name="zdotaccent" unicode="&#x17c;" horiz-adv-x="497" d="M298 667 Q318 667 332 652 Q346 637 346 615 Q346 595 331 579.5 Q316 564 296 564 Q276 564 261.5 578.5 Q247 593 247 614 Q247 636 262 651.5 Q277 667 298 667 Z M-6 0 L337 385 L78 385 L87 457 L494 457 L150 71 L449 71 L440 0 L-6 0 Z " />
<glyph glyph-name="ff" unicode="&#xfb00;" horiz-adv-x="518" d="M45 0 L94 390 L32 390 L41 461 L102 461 L129 683 Q135 730 145.5 756 Q156 782 175 801 Q210 834 263 834 Q282 834 296 830.5 Q310 827 333 816 L324 744 Q309 754 298 758 Q287 762 273 762 Q242 762 227.5 740 Q213 718 206 660 L181 461 L261 461 L252 390 L173 390 L124 0 L45 0 Z M305 0 L354 390 L292 390 L301 461 L362 461 L389 683 Q395 730 405.5 756 Q416 782 435 801 Q470 834 523 834 Q542 834 556 830.5 Q570 827 593 816 L584 744 Q558 762 533 762 Q502 762 487.5 740 Q473 718 466 660 L441 461 L532 461 L523 390 L433 390 L384 0 L305 0 Z " />
<glyph glyph-name="ffi" unicode="&#xfb03;" horiz-adv-x="753" d="M45 0 L94 390 L32 390 L41 461 L102 461 L129 683 Q135 730 145.5 756 Q156 782 175 801 Q210 834 263 834 Q282 834 296 830.5 Q310 827 333 816 L324 744 Q309 754 298 758 Q287 762 273 762 Q242 762 227.5 740 Q213 718 206 660 L181 461 L261 461 L252 390 L173 390 L124 0 L45 0 Z M305 0 L354 390 L292 390 L301 461 L362 461 L389 683 Q395 730 405.5 756 Q416 782 435 801 Q470 834 523 834 Q542 834 556 830.5 Q570 827 593 816 L584 744 Q558 762 533 762 Q502 762 487.5 740 Q473 718 466 660 L441 461 L532 461 L523 390 L433 390 L384 0 L305 0 Z M687 705 Q707 705 720.5 691 Q734 677 734 657 Q734 636 719.5 621 Q705 606 685 606 Q665 606 651.5 620 Q638 634 638 654 Q638 675 652.5 690 Q667 705 687 705 Z M565 0 L621 457 L701 457 L644 0 L565 0 Z " />
<glyph glyph-name="ffl" unicode="&#xfb04;" horiz-adv-x="753" d="M45 0 L94 390 L32 390 L41 461 L102 461 L129 683 Q135 730 145.5 756 Q156 782 175 801 Q210 834 263 834 Q282 834 296 830.5 Q310 827 333 816 L324 744 Q309 754 298 758 Q287 762 273 762 Q242 762 227.5 740 Q213 718 206 660 L181 461 L261 461 L252 390 L173 390 L124 0 L45 0 Z M305 0 L354 390 L292 390 L301 461 L362 461 L389 683 Q395 730 405.5 756 Q416 782 435 801 Q470 834 523 834 Q542 834 556 830.5 Q570 827 593 816 L584 744 Q558 762 533 762 Q502 762 487.5 740 Q473 718 466 660 L441 461 L532 461 L523 390 L433 390 L384 0 L305 0 Z M565 0 L667 824 L746 824 L644 0 L565 0 Z " />
<glyph glyph-name="fi" unicode="&#xfb01;" horiz-adv-x="493" d="M45 0 L94 390 L32 390 L41 461 L102 461 L129 683 Q135 730 145.5 756 Q156 782 175 801 Q210 834 263 834 Q282 834 296 830.5 Q310 827 333 816 L324 744 Q309 754 298 758 Q287 762 273 762 Q242 762 227.5 740 Q213 718 206 660 L181 461 L272 461 L263 390 L173 390 L124 0 L45 0 Z M427 705 Q447 705 461 691 Q475 677 475 657 Q475 636 460 621 Q445 606 425 606 Q406 606 392.5 620 Q379 634 379 654 Q379 676 393 690.5 Q407 705 427 705 Z M305 0 L362 457 L441 457 L384 0 L305 0 Z " />
<glyph glyph-name="fl" unicode="&#xfb02;" horiz-adv-x="493" d="M45 0 L94 390 L32 390 L41 461 L102 461 L129 683 Q135 730 145.5 756 Q156 782 175 801 Q210 834 263 834 Q282 834 296 830.5 Q310 827 333 816 L324 744 Q309 754 298 758 Q287 762 273 762 Q242 762 227.5 740 Q213 718 206 660 L181 461 L272 461 L263 390 L173 390 L124 0 L45 0 Z M305 0 L407 824 L486 824 L384 0 L305 0 Z " />
<glyph glyph-name="ordfeminine" unicode="&#xaa;" horiz-adv-x="405" d="M307 475 L311 502 Q287 483 268 475.5 Q249 468 223 468 Q161 468 121.5 506 Q82 544 82 605 Q82 673 126.5 716.5 Q171 760 240 760 Q300 760 338 721 L342 754 L406 754 L372 475 L307 475 Z M242 704 Q202 704 175 676.5 Q148 649 148 608 Q148 572 172 548 Q196 524 233 524 Q272 524 300.5 553.5 Q329 583 329 623 Q329 658 304.5 681 Q280 704 242 704 Z " />
<glyph glyph-name="ordmasculine" unicode="&#xba;" horiz-adv-x="406" d="M252 763 Q319 763 362.5 722 Q406 681 406 618 Q406 575 385 540.5 Q364 506 327 486 Q290 466 245 466 Q201 466 164.5 485 Q128 504 107.5 537 Q87 570 87 610 Q87 652 109 687 Q131 722 168.5 742.5 Q206 763 252 763 Z M249 706 Q207 706 180 680 Q153 654 153 614 Q153 575 180 548.5 Q207 522 247 522 Q288 522 314 548 Q340 574 340 617 Q340 656 314.5 681 Q289 706 249 706 Z " />
<glyph glyph-name="uni0410" unicode="&#x410;" horiz-adv-x="697" d="M2 0 L421 799 L654 0 L568 0 L510 210 L203 210 L94 0 L2 0 Z M401 596 L243 287 L486 287 L401 596 Z " />
<glyph glyph-name="uni0411" unicode="&#x411;" horiz-adv-x="608" d="M163 754 L559 754 L550 677 L237 677 L209 450 L284 450 Q367 450 417 438 Q467 426 495 401 Q525 375 542 332.5 Q559 290 559 247 Q559 176 532.5 120 Q506 64 454 34 Q424 16 384.5 8 Q345 0 283 0 L70 0 L163 754 Z M288 77 Q342 77 371.5 84.5 Q401 92 428 113 Q450 130 462.5 165.5 Q475 201 475 240 Q475 321 420 353 Q397 367 368.5 371.5 Q340 376 278 376 L199 376 L163 77 L288 77 Z " />
<glyph glyph-name="uni0412" unicode="&#x412;" horiz-adv-x="594" d="M297 754 Q346 754 377.5 748 Q409 742 434 728 Q471 706 492.5 662 Q514 618 514 567 Q514 447 405 391 Q438 382 455.5 373.5 Q473 365 489 349 Q514 326 527.5 291.5 Q541 257 541 215 Q541 159 516 111 Q491 63 447 35 Q418 16 379 8 Q340 0 277 0 L70 0 L163 754 L297 754 Z M263 419 Q320 419 345.5 427 Q371 435 392 458 Q412 478 422.5 506 Q433 534 433 565 Q433 593 423.5 616 Q414 639 397 653 Q379 666 356.5 671.5 Q334 677 295 677 L236 677 L205 419 L263 419 Z M283 77 Q337 77 366 84.5 Q395 92 415 112 Q435 131 446 159.5 Q457 188 457 219 Q457 251 444 278.5 Q431 306 408 321 Q386 335 359 340.5 Q332 346 279 346 L195 346 L163 77 L283 77 Z " />
<glyph glyph-name="uni0413" unicode="&#x413;" horiz-adv-x="518" d="M70 0 L163 754 L553 754 L544 677 L236 677 L153 0 L70 0 Z " />
<glyph glyph-name="uni0403" unicode="&#x403;" horiz-adv-x="518" d="M307 850 L460 997 L530 946 L351 814 L307 850 Z M70 0 L163 754 L553 754 L544 677 L236 677 L153 0 L70 0 Z " />
<glyph glyph-name="uni0490" unicode="&#x490;" horiz-adv-x="518" d="M163 754 L473 754 L483 827 L562 827 L544 677 L236 677 L153 0 L70 0 L163 754 Z " />
<glyph glyph-name="uni0414" unicode="&#x414;" horiz-adv-x="707" d="M-11 78 Q23 74 62.5 104.5 Q102 135 122 180 Q144 224 181 393.5 Q218 563 247 754 L661 754 L579 78 L643 78 L616 -145 L537 -145 L555 0 L26 0 L8 -145 L-71 -145 L-44 78 L-11 78 Z M567 676 L320 676 Q305 583 283 471 Q261 359 243 288 Q226 225 211.5 189 Q197 153 176 128 Q155 103 120 78 L494 78 L567 676 Z " />
<glyph glyph-name="uni0415" unicode="&#x415;" horiz-adv-x="528" d="M236 677 L208 446 L494 446 L485 370 L199 370 L163 77 L449 77 L440 0 L70 0 L163 754 L532 754 L522 677 L236 677 Z " />
<glyph glyph-name="uni0400" unicode="&#x400;" horiz-adv-x="528" d="M410 842 L362 817 L260 956 L330 996 L410 842 Z M236 677 L208 446 L494 446 L485 370 L199 370 L163 77 L449 77 L440 0 L70 0 L163 754 L532 754 L522 677 L236 677 Z " />
<glyph glyph-name="uni0401" unicode="&#x401;" horiz-adv-x="528" d="M272 950 Q293 950 307.5 935.5 Q322 921 322 899 Q322 877 306 860.5 Q290 844 269 844 Q248 844 233 859.5 Q218 875 218 896 Q218 919 233.5 934.5 Q249 950 272 950 Z M462 950 Q483 950 497.5 935.5 Q512 921 512 899 Q512 877 496 860.5 Q480 844 459 844 Q438 844 423 859.5 Q408 875 408 896 Q408 919 423.5 934.5 Q439 950 462 950 Z M236 677 L208 446 L494 446 L485 370 L199 370 L163 77 L449 77 L440 0 L70 0 L163 754 L532 754 L522 677 L236 677 Z " />
<glyph glyph-name="uni0416" unicode="&#x416;" horiz-adv-x="983" d="M662 385 L940 0 L834 0 L586 351 L542 351 L499 0 L418 0 L461 351 L421 351 L87 0 L-21 0 L351 385 L94 754 L193 754 L420 426 L470 426 L510 754 L592 754 L553 426 L602 426 L903 754 L1008 754 L662 385 Z " />
<glyph glyph-name="uni0417" unicode="&#x417;" horiz-adv-x="623" d="M418 396 Q493 371 529 328.5 Q565 286 565 223 Q565 108 488.5 48 Q412 -12 272 -12 Q209 -12 141 0.5 Q73 13 20 35 L33 122 Q84 97 149.5 83.5 Q215 70 278 70 Q385 70 431 108.5 Q477 147 477 219 Q477 289 420.5 324 Q364 359 276 359 L192 359 L201 433 L275 433 Q365 433 427.5 471 Q490 509 490 576 Q490 631 435 658 Q380 685 290 685 Q240 685 209.5 676.5 Q179 668 115 642 L127 733 Q176 751 221 759 Q266 767 320 767 Q432 767 503.5 719 Q575 671 575 579 Q575 520 535.5 470 Q496 420 418 396 Z " />
<glyph glyph-name="uni0418" unicode="&#x418;" horiz-adv-x="772" d="M244 754 L174 180 L735 786 L637 0 L555 0 L624 565 L65 -42 L163 754 L244 754 Z " />
<glyph glyph-name="uni0419" unicode="&#x419;" horiz-adv-x="772" d="M391 973 Q396 933 413 915 Q430 897 464 897 Q499 897 522 915.5 Q545 934 559 973 L632 973 Q615 903 569 864.5 Q523 826 457 826 Q389 826 353.5 864 Q318 902 319 973 L391 973 Z M244 754 L174 180 L735 786 L637 0 L555 0 L624 565 L65 -42 L163 754 L244 754 Z " />
<glyph glyph-name="uni040D" unicode="&#x40d;" horiz-adv-x="772" d="M511 842 L462 817 L360 956 L431 996 L511 842 Z M244 754 L174 180 L735 786 L637 0 L555 0 L624 565 L65 -42 L163 754 L244 754 Z " />
<glyph glyph-name="uni041A" unicode="&#x41a;" horiz-adv-x="643" d="M298 395 L600 0 L494 0 L201 390 L153 0 L70 0 L163 754 L245 754 L202 400 L542 754 L651 754 L298 395 Z " />
<glyph glyph-name="uni040C" unicode="&#x40c;" horiz-adv-x="643" d="M399 814 L355 850 L507 997 L577 946 L399 814 Z M298 395 L600 0 L494 0 L201 390 L153 0 L70 0 L163 754 L245 754 L202 400 L542 754 L651 754 L298 395 Z " />
<glyph glyph-name="uni041B" unicode="&#x41b;" horiz-adv-x="684" d="M554 0 L470 0 L553 676 L313 676 L310 653 Q280 480 258 377 Q236 274 214 208 Q178 99 125.5 48.5 Q73 -2 -3 -2 Q-21 -2 -37 0 L-27 80 Q-4 77 1 77 Q39 77 69 105 Q99 133 120 188 Q146 254 179 409.5 Q212 565 241 754 L646 754 L554 0 Z " />
<glyph glyph-name="uni041C" unicode="&#x41c;" horiz-adv-x="994" d="M492 165 L817 806 L926 0 L843 0 L770 554 L467 -34 L315 551 L99 0 L12 0 L325 800 L492 165 Z " />
<glyph glyph-name="uni041D" unicode="&#x41d;" horiz-adv-x="734" d="M518 0 L564 375 L199 375 L153 0 L70 0 L163 754 L245 754 L209 452 L573 452 L610 754 L694 754 L600 0 L518 0 Z " />
<glyph glyph-name="uni041E" unicode="&#x41e;" horiz-adv-x="887" d="M470 768 Q581 768 666 721.5 Q751 675 798 590 Q845 505 845 395 Q845 280 793 186.5 Q741 93 650 39 Q559 -15 447 -15 Q338 -15 253 32.5 Q168 80 120 165.5 Q72 251 72 359 Q72 475 124 568.5 Q176 662 267 715 Q358 768 470 768 Z M472 689 Q383 689 311 646.5 Q239 604 198 529.5 Q157 455 157 363 Q157 278 194.5 209.5 Q232 141 299 102.5 Q366 64 450 64 Q537 64 608 107.5 Q679 151 719.5 227 Q760 303 760 397 Q760 485 724.5 551 Q689 617 624 653 Q559 689 472 689 Z " />
<glyph glyph-name="uni041F" unicode="&#x41f;" horiz-adv-x="757" d="M716 754 L624 0 L540 0 L623 676 L236 676 L154 0 L70 0 L163 754 L716 754 Z " />
<glyph glyph-name="uni0420" unicode="&#x420;" horiz-adv-x="542" d="M306 754 Q362 754 400.5 743 Q439 732 468 707 Q498 680 514.5 641 Q531 602 531 555 Q531 491 503 440 Q475 389 425 359 Q395 343 360 336 Q325 329 270 329 L193 329 L153 0 L70 0 L163 754 L306 754 Z M276 406 Q322 406 352 415.5 Q382 425 403 445 Q424 465 435 493.5 Q446 522 446 554 Q446 614 410 645.5 Q374 677 304 677 L236 677 L203 406 L276 406 Z " />
<glyph glyph-name="uni0421" unicode="&#x421;" horiz-adv-x="727" d="M704 577 Q661 631 596.5 660 Q532 689 457 689 Q371 689 302.5 646 Q234 603 195.5 527 Q157 451 157 355 Q157 267 192.5 201 Q228 135 293 99.5 Q358 64 445 64 Q507 64 557.5 82.5 Q608 101 655 140 L643 40 Q587 10 538 -2.5 Q489 -15 433 -15 Q327 -15 245 32 Q163 79 117.5 164 Q72 249 72 357 Q72 474 121.5 568 Q171 662 258 715 Q345 768 454 768 Q531 768 593 745.5 Q655 723 715 672 L704 577 Z " />
<glyph glyph-name="uni0422" unicode="&#x422;" horiz-adv-x="473" d="M167 0 L251 677 L63 677 L72 754 L524 754 L514 677 L333 677 L250 0 L167 0 Z " />
<glyph glyph-name="uni0423" unicode="&#x423;" horiz-adv-x="600" d="M661 754 L146 0 L49 0 L273 325 L73 754 L164 754 L322 397 L564 754 L661 754 Z " />
<glyph glyph-name="uni040E" unicode="&#x40e;" horiz-adv-x="600" d="M364 826 Q296 826 260.5 864 Q225 902 226 973 L298 973 Q303 933 320.5 915 Q338 897 372 897 Q440 897 467 973 L539 973 Q522 903 476 864.5 Q430 826 364 826 Z M661 754 L146 0 L49 0 L273 325 L73 754 L164 754 L322 397 L564 754 L661 754 Z " />
<glyph glyph-name="uni0424" unicode="&#x424;" horiz-adv-x="965" d="M416 50 Q310 60 232 100.5 Q154 141 111.5 207.5 Q69 274 69 358 Q69 457 120 534 Q171 611 264 654.5 Q357 698 478 698 L496 698 L511 814 L590 814 L575 695 Q740 680 831.5 599 Q923 518 923 389 Q923 289 871.5 211.5 Q820 134 724.5 90.5 Q629 47 504 47 L495 47 L481 -61 L402 -61 L416 50 Z M487 624 L483 624 Q384 624 309.5 592 Q235 560 194.5 500 Q154 440 154 360 Q154 256 226.5 195.5 Q299 135 425 124 L487 624 Z M504 122 Q607 122 682.5 154 Q758 186 798 246.5 Q838 307 838 391 Q838 495 769 553 Q700 611 566 621 L504 122 Z " />
<glyph glyph-name="uni0425" unicode="&#x425;" horiz-adv-x="570" d="M433 0 L296 313 L81 0 L-17 0 L259 397 L101 754 L190 754 L312 473 L502 754 L601 754 L349 391 L523 0 L433 0 Z " />
<glyph glyph-name="uni0427" unicode="&#x427;" horiz-adv-x="671" d="M487 271 Q415 255 337 255 Q196 255 132 316 Q103 344 90 380.5 Q77 417 77 466 Q77 493 82 533 L111 754 L194 754 L171 553 Q166 510 166 482 Q166 422 185.5 389 Q205 356 246.5 342.5 Q288 329 359 329 Q422 329 497 353 L546 754 L629 754 L537 0 L453 0 L487 271 Z " />
<glyph glyph-name="uni0426" unicode="&#x426;" horiz-adv-x="754" d="M246 754 L163 77 L541 77 L624 754 L707 754 L624 77 L689 77 L662 -145 L583 -145 L601 0 L70 0 L163 754 L246 754 Z " />
<glyph glyph-name="uni0428" unicode="&#x428;" horiz-adv-x="1025" d="M246 754 L163 77 L449 77 L531 754 L615 754 L532 77 L818 77 L901 754 L984 754 L892 0 L70 0 L163 754 L246 754 Z " />
<glyph glyph-name="uni0429" unicode="&#x429;" horiz-adv-x="1031" d="M878 0 L70 0 L163 754 L246 754 L163 77 L449 77 L531 754 L615 754 L532 77 L818 77 L901 754 L984 754 L901 77 L966 77 L939 -145 L860 -145 L878 0 Z " />
<glyph glyph-name="uni040F" unicode="&#x40f;" horiz-adv-x="745" d="M246 754 L163 77 L539 77 L621 754 L705 754 L612 0 L381 0 L363 -145 L284 -145 L302 0 L70 0 L163 754 L246 754 Z " />
<glyph glyph-name="uni042C" unicode="&#x42c;" horiz-adv-x="605" d="M284 450 Q367 450 417 438 Q467 426 495 401 Q525 375 542 332.5 Q559 290 559 247 Q559 176 532.5 120 Q506 64 454 34 Q424 16 384.5 8 Q345 0 283 0 L70 0 L163 754 L245 754 L208 450 L284 450 Z M428 113 Q450 130 462.5 165.5 Q475 201 475 240 Q475 321 420 353 Q397 367 368.5 371.5 Q340 376 278 376 L199 376 L163 77 L288 77 Q342 77 371.5 84.5 Q401 92 428 113 Z " />
<glyph glyph-name="uni042A" unicode="&#x42a;" horiz-adv-x="730" d="M620 401 Q650 375 667.5 332.5 Q685 290 685 247 Q685 176 658.5 120 Q632 64 580 34 Q549 16 509.5 8 Q470 0 408 0 L195 0 L278 676 L54 676 L64 754 L371 754 L333 450 L409 450 Q492 450 542 438 Q592 426 620 401 Z M554 113 Q575 130 587.5 165.5 Q600 201 600 240 Q600 321 546 353 Q523 367 494 371.5 Q465 376 403 376 L324 376 L288 77 L414 77 Q468 77 497.5 84.5 Q527 92 554 113 Z " />
<glyph glyph-name="uni042B" unicode="&#x42b;" horiz-adv-x="851" d="M284 450 Q367 450 417 438 Q467 426 495 401 Q525 375 542 332.5 Q559 290 559 247 Q559 176 532.5 120 Q506 64 454 34 Q424 16 384.5 8 Q345 0 283 0 L70 0 L163 754 L245 754 L208 450 L284 450 Z M810 754 L718 0 L635 0 L728 754 L810 754 Z M428 113 Q450 130 462.5 165.5 Q475 201 475 240 Q475 321 420 353 Q397 367 368.5 371.5 Q340 376 278 376 L199 376 L163 77 L288 77 Q342 77 371.5 84.5 Q401 92 428 113 Z " />
<glyph glyph-name="uni0409" unicode="&#x409;" horiz-adv-x="1008" d="M-3 -2 Q-21 -2 -37 0 L-27 80 Q-4 77 1 77 Q39 77 69 105 Q99 133 120 188 Q146 254 179 409.5 Q212 565 241 754 L646 754 L609 450 L684 450 Q767 450 817 438 Q867 426 895 401 Q925 375 942 332.5 Q959 290 959 247 Q959 176 932.5 120 Q906 64 854 34 Q824 16 784.5 8 Q745 0 683 0 L470 0 L553 676 L313 676 L310 653 Q280 480 258 377 Q236 274 214 208 Q178 99 125.5 48.5 Q73 -2 -3 -2 Z M688 77 Q742 77 771.5 84.5 Q801 92 828 113 Q850 130 862.5 165.5 Q875 201 875 240 Q875 321 820 353 Q797 367 768.5 371.5 Q740 376 678 376 L600 376 L563 77 L688 77 Z " />
</font>
</svg>
