<?xml version="1.0" encoding="UTF-8"?>
<svg xmlns="http://www.w3.org/2000/svg" xmlns:xlink="http://www.w3.org/1999/xlink" version="1.2" >
<font id="ShellMedium">
<font-face  font-family="ShellMedium" units-per-em="1000" ascent="1050" descent="-300" font-style="normal" font-weight="500" font-stretch="normal" cap-height="754" x-height="476" underline-position="-63" underline-thickness="103" />
<missing-glyph  horiz-adv-x="283" d="" />
<glyph glyph-name="space" unicode="&#x20;" horiz-adv-x="283" d="" />
<glyph glyph-name="A" unicode="A" horiz-adv-x="740" d="M125 0 L3 0 L376 801 L736 0 L611 0 L532 183 L210 183 L125 0 Z M258 290 L486 290 L374 546 L258 290 Z " />
<glyph glyph-name="Aacute" unicode="&#xc1;" horiz-adv-x="740" d="M296 867 L452 1024 L549 956 L350 822 L296 867 Z M125 0 L3 0 L376 801 L736 0 L611 0 L532 183 L210 183 L125 0 Z M258 290 L486 290 L374 546 L258 290 Z " />
<glyph glyph-name="Abreve" unicode="&#x102;" horiz-adv-x="740" d="M285 989 Q291 950 312 931 Q333 912 370 912 Q444 912 454 989 L545 989 Q541 953 534 932 Q527 911 511 889 Q486 858 449 841.5 Q412 825 367 825 Q278 825 229 889 Q213 911 205.5 932.5 Q198 954 194 989 L285 989 Z M125 0 L3 0 L376 801 L736 0 L611 0 L532 183 L210 183 L125 0 Z M258 290 L486 290 L374 546 L258 290 Z " />
<glyph glyph-name="Acircumflex" unicode="&#xc2;" horiz-adv-x="740" d="M549 879 L475 822 L376 913 L279 822 L205 879 L376 1036 L549 879 Z M125 0 L3 0 L376 801 L736 0 L611 0 L532 183 L210 183 L125 0 Z M258 290 L486 290 L374 546 L258 290 Z " />
<glyph glyph-name="Adieresis" unicode="&#xc4;" horiz-adv-x="740" d="M268 968 Q297 968 317 947.5 Q337 927 337 898 Q337 870 316.5 849 Q296 828 268 828 Q238 828 218 848.5 Q198 869 198 899 Q198 928 218.5 948 Q239 968 268 968 Z M487 968 Q516 968 536 947.5 Q556 927 556 898 Q556 870 535.5 849 Q515 828 487 828 Q457 828 437 848.5 Q417 869 417 899 Q417 927 437.5 947.5 Q458 968 487 968 Z M125 0 L3 0 L376 801 L736 0 L611 0 L532 183 L210 183 L125 0 Z M258 290 L486 290 L374 546 L258 290 Z " />
<glyph glyph-name="Agrave" unicode="&#xc0;" horiz-adv-x="740" d="M451 867 L397 822 L198 956 L295 1024 L451 867 Z M125 0 L3 0 L376 801 L736 0 L611 0 L532 183 L210 183 L125 0 Z M258 290 L486 290 L374 546 L258 290 Z " />
<glyph glyph-name="Amacron" unicode="&#x100;" horiz-adv-x="740" d="M571 844 L168 844 L168 932 L571 932 L571 844 Z M125 0 L3 0 L376 801 L736 0 L611 0 L532 183 L210 183 L125 0 Z M258 290 L486 290 L374 546 L258 290 Z " />
<glyph glyph-name="Aogonek" unicode="&#x104;" horiz-adv-x="740" d="M125 0 L3 0 L376 801 L736 0 Q688 -41 672.5 -61.5 Q657 -82 657 -105 Q657 -121 667.5 -130.5 Q678 -140 695 -140 Q722 -140 772 -113 L756 -205 Q736 -217 717.5 -222 Q699 -227 672 -227 Q622 -227 589 -199.5 Q556 -172 556 -129 Q556 -65 645 0 L611 0 L532 183 L210 183 L125 0 Z M258 290 L486 290 L374 546 L258 290 Z " />
<glyph glyph-name="Aring" unicode="&#xc5;" horiz-adv-x="740" d="M377 1034 Q421 1034 452.5 1003 Q484 972 484 928 Q484 884 452.5 853 Q421 822 377 822 Q333 822 302 853 Q271 884 271 929 Q271 972 302.5 1003 Q334 1034 377 1034 Z M377 975 Q357 975 343 961.5 Q329 948 329 929 Q329 909 343 894.5 Q357 880 377 880 Q398 880 412 894 Q426 908 426 928 Q426 948 412 961.5 Q398 975 377 975 Z M125 0 L3 0 L376 801 L736 0 L611 0 L532 183 L210 183 L125 0 Z M258 290 L486 290 L374 546 L258 290 Z " />
<glyph glyph-name="Aringacute" unicode="&#x1fa;" horiz-adv-x="740" d="M241 1071 L398 1228 L494 1162 L295 1026 L241 1071 Z M377 1034 Q421 1034 452.5 1003 Q484 972 484 928 Q484 884 452.5 853 Q421 822 377 822 Q333 822 302 853 Q271 884 271 929 Q271 972 302.5 1003 Q334 1034 377 1034 Z M377 975 Q357 975 343 961.5 Q329 948 329 929 Q329 909 343 894.5 Q357 880 377 880 Q398 880 412 894 Q426 908 426 928 Q426 948 412 961.5 Q398 975 377 975 Z M125 0 L3 0 L376 801 L736 0 L611 0 L532 183 L210 183 L125 0 Z M258 290 L486 290 L374 546 L258 290 Z " />
<glyph glyph-name="Atilde" unicode="&#xc3;" horiz-adv-x="740" d="M193 906 Q209 928 219 939 Q235 955 257 964.5 Q279 974 302 974 Q341 974 390 948 Q426 930 435 926.5 Q444 923 454 923 Q470 923 483 934 Q496 945 515 975 L577 923 Q531 829 451 829 Q431 829 414.5 834.5 Q398 840 362 857 Q312 879 295 879 Q280 879 267.5 867.5 Q255 856 241 828 L176 883 L193 906 Z M125 0 L3 0 L376 801 L736 0 L611 0 L532 183 L210 183 L125 0 Z M258 290 L486 290 L374 546 L258 290 Z " />
<glyph glyph-name="AE" unicode="&#xc6;" horiz-adv-x="1046" d="M136 0 L11 0 L373 754 L706 754 L754 646 L454 646 L533 464 L825 464 L872 357 L581 357 L688 107 L989 107 L1035 0 L617 0 L538 180 L218 180 L136 0 Z M269 287 L493 287 L385 534 L269 287 Z " />
<glyph glyph-name="AEacute" unicode="&#x1fc;" horiz-adv-x="1046" d="M435 867 L591 1024 L687 956 L489 822 L435 867 Z M136 0 L11 0 L373 754 L706 754 L754 646 L454 646 L533 464 L825 464 L872 357 L581 357 L688 107 L989 107 L1035 0 L617 0 L538 180 L218 180 L136 0 Z M269 287 L493 287 L385 534 L269 287 Z " />
<glyph glyph-name="B" unicode="B" horiz-adv-x="591" d="M203 754 Q270 754 312 745 Q354 736 384 715 Q422 689 446 641 Q470 593 470 542 Q470 501 455 467.5 Q440 434 409 406 Q468 386 503 334.5 Q538 283 538 216 Q538 169 518.5 127 Q499 85 462 54 Q424 24 381.5 12 Q339 0 263 0 L90 0 L90 754 L203 754 Z M240 429 Q274 429 295.5 435.5 Q317 442 331 457 Q345 471 354 494.5 Q363 518 363 541 Q363 564 354 585.5 Q345 607 331 621 Q304 649 244 649 L205 649 L205 429 L240 429 Z M275 107 Q312 107 336.5 112.5 Q361 118 380 131 Q400 145 413 169.5 Q426 194 426 220 Q426 246 413.5 270.5 Q401 295 380 310 Q361 323 334 328.5 Q307 334 262 334 L205 334 L205 107 L275 107 Z " />
<glyph glyph-name="C" unicode="C" horiz-adv-x="699" d="M647 579 Q593 623 546 642 Q499 661 443 661 Q367 661 304 622.5 Q241 584 204 518.5 Q167 453 167 374 Q167 296 203.5 231.5 Q240 167 303.5 130 Q367 93 444 93 Q500 93 545.5 112.5 Q591 132 647 179 L647 42 Q551 -15 443 -15 Q337 -15 247.5 37 Q158 89 105.5 178 Q53 267 53 373 Q53 481 106.5 571.5 Q160 662 251.5 715 Q343 768 451 768 Q506 768 551.5 755.5 Q597 743 647 713 L647 579 Z " />
<glyph glyph-name="Cacute" unicode="&#x106;" horiz-adv-x="699" d="M345 867 L501 1024 L598 956 L399 822 L345 867 Z M647 579 Q593 623 546 642 Q499 661 443 661 Q367 661 304 622.5 Q241 584 204 518.5 Q167 453 167 374 Q167 296 203.5 231.5 Q240 167 303.5 130 Q367 93 444 93 Q500 93 545.5 112.5 Q591 132 647 179 L647 42 Q551 -15 443 -15 Q337 -15 247.5 37 Q158 89 105.5 178 Q53 267 53 373 Q53 481 106.5 571.5 Q160 662 251.5 715 Q343 768 451 768 Q506 768 551.5 755.5 Q597 743 647 713 L647 579 Z " />
<glyph glyph-name="Ccaron" unicode="&#x10c;" horiz-adv-x="699" d="M261 977 L336 1035 L434 944 L531 1036 L606 977 L434 822 L261 977 Z M647 579 Q593 623 546 642 Q499 661 443 661 Q367 661 304 622.5 Q241 584 204 518.5 Q167 453 167 374 Q167 296 203.5 231.5 Q240 167 303.5 130 Q367 93 444 93 Q500 93 545.5 112.5 Q591 132 647 179 L647 42 Q551 -15 443 -15 Q337 -15 247.5 37 Q158 89 105.5 178 Q53 267 53 373 Q53 481 106.5 571.5 Q160 662 251.5 715 Q343 768 451 768 Q506 768 551.5 755.5 Q597 743 647 713 L647 579 Z " />
<glyph glyph-name="Ccedilla" unicode="&#xc7;" horiz-adv-x="699" d="M647 579 Q593 623 546 642 Q499 661 443 661 Q367 661 304 622.5 Q241 584 204 518.5 Q167 453 167 374 Q167 296 203.5 231.5 Q240 167 303.5 130 Q367 93 444 93 Q500 93 545.5 112.5 Q591 132 647 179 L647 42 Q551 -15 443 -15 Q337 -15 247.5 37 Q158 89 105.5 178 Q53 267 53 373 Q53 481 106.5 571.5 Q160 662 251.5 715 Q343 768 451 768 Q506 768 551.5 755.5 Q597 743 647 713 L647 579 Z M294 -216 L397 -60 L493 -103 L365 -253 L294 -216 Z " />
<glyph glyph-name="Ccircumflex" unicode="&#x108;" horiz-adv-x="699" d="M606 879 L530 822 L432 913 L336 822 L261 879 L432 1036 L606 879 Z M647 579 Q593 623 546 642 Q499 661 443 661 Q367 661 304 622.5 Q241 584 204 518.5 Q167 453 167 374 Q167 296 203.5 231.5 Q240 167 303.5 130 Q367 93 444 93 Q500 93 545.5 112.5 Q591 132 647 179 L647 42 Q551 -15 443 -15 Q337 -15 247.5 37 Q158 89 105.5 178 Q53 267 53 373 Q53 481 106.5 571.5 Q160 662 251.5 715 Q343 768 451 768 Q506 768 551.5 755.5 Q597 743 647 713 L647 579 Z " />
<glyph glyph-name="Cdotaccent" unicode="&#x10a;" horiz-adv-x="699" d="M433 975 Q463 975 484.5 953.5 Q506 932 506 902 Q506 871 484.5 849.5 Q463 828 433 828 Q402 828 380.5 850 Q359 872 359 903 Q359 932 381 953.5 Q403 975 433 975 Z M647 579 Q593 623 546 642 Q499 661 443 661 Q367 661 304 622.5 Q241 584 204 518.5 Q167 453 167 374 Q167 296 203.5 231.5 Q240 167 303.5 130 Q367 93 444 93 Q500 93 545.5 112.5 Q591 132 647 179 L647 42 Q551 -15 443 -15 Q337 -15 247.5 37 Q158 89 105.5 178 Q53 267 53 373 Q53 481 106.5 571.5 Q160 662 251.5 715 Q343 768 451 768 Q506 768 551.5 755.5 Q597 743 647 713 L647 579 Z " />
<glyph glyph-name="D" unicode="D" horiz-adv-x="725" d="M249 754 Q346 754 409 737 Q472 720 528 680 Q598 628 635.5 550 Q673 472 673 377 Q673 281 634.5 203.5 Q596 126 522 72 Q465 31 406 15.5 Q347 0 246 0 L90 0 L90 754 L249 754 Z M255 107 Q323 107 369.5 120 Q416 133 457 162 Q506 198 532.5 254 Q559 310 559 376 Q559 443 532 500.5 Q505 558 457 593 Q420 621 372.5 633.5 Q325 646 255 646 L205 646 L205 107 L255 107 Z " />
<glyph glyph-name="Eth" unicode="&#xd0;" horiz-adv-x="725" d="M23 342 L23 441 L90 441 L90 754 L249 754 Q346 754 408.5 737 Q471 720 527 680 Q597 628 634.5 550 Q672 472 672 376 Q672 281 634 203.5 Q596 126 522 72 Q464 31 405 15.5 Q346 0 246 0 L90 0 L90 342 L23 342 Z M255 107 Q324 107 370 119.5 Q416 132 455 162 Q504 198 531 253.5 Q558 309 558 376 Q558 443 531 500.5 Q504 558 457 593 Q419 621 371.5 633.5 Q324 646 255 646 L205 646 L205 441 L366 441 L366 342 L205 342 L205 107 L255 107 Z " />
<glyph glyph-name="Dcaron" unicode="&#x10e;" horiz-adv-x="725" d="M153 977 L228 1035 L327 944 L424 1036 L497 977 L327 822 L153 977 Z M249 754 Q346 754 409 737 Q472 720 528 680 Q598 628 635.5 550 Q673 472 673 377 Q673 281 634.5 203.5 Q596 126 522 72 Q465 31 406 15.5 Q347 0 246 0 L90 0 L90 754 L249 754 Z M255 107 Q323 107 369.5 120 Q416 133 457 162 Q506 198 532.5 254 Q559 310 559 376 Q559 443 532 500.5 Q505 558 457 593 Q420 621 372.5 633.5 Q325 646 255 646 L205 646 L205 107 L255 107 Z " />
<glyph glyph-name="Dcroat" unicode="&#x110;" horiz-adv-x="725" d="M23 342 L23 441 L90 441 L90 754 L249 754 Q346 754 408.5 737 Q471 720 527 680 Q597 628 634.5 550 Q672 472 672 376 Q672 281 634 203.5 Q596 126 522 72 Q464 31 405 15.5 Q346 0 246 0 L90 0 L90 342 L23 342 Z M255 107 Q324 107 370 119.5 Q416 132 455 162 Q504 198 531 253.5 Q558 309 558 376 Q558 443 531 500.5 Q504 558 457 593 Q419 621 371.5 633.5 Q324 646 255 646 L205 646 L205 441 L366 441 L366 342 L205 342 L205 107 L255 107 Z " />
<glyph glyph-name="E" unicode="E" horiz-adv-x="565" d="M205 466 L497 466 L497 358 L205 358 L205 107 L506 107 L506 0 L90 0 L90 754 L506 754 L506 646 L205 646 L205 466 Z " />
<glyph glyph-name="Eacute" unicode="&#xc9;" horiz-adv-x="565" d="M216 867 L373 1024 L469 956 L270 822 L216 867 Z M205 466 L497 466 L497 358 L205 358 L205 107 L506 107 L506 0 L90 0 L90 754 L506 754 L506 646 L205 646 L205 466 Z " />
<glyph glyph-name="Ebreve" unicode="&#x114;" horiz-adv-x="565" d="M214 989 Q224 912 298 912 Q373 912 383 989 L473 989 Q470 953 463 932 Q456 911 440 889 Q415 858 378 841.5 Q341 825 296 825 Q207 825 158 889 Q141 912 133.5 933 Q126 954 123 989 L214 989 Z M205 466 L497 466 L497 358 L205 358 L205 107 L506 107 L506 0 L90 0 L90 754 L506 754 L506 646 L205 646 L205 466 Z " />
<glyph glyph-name="Ecaron" unicode="&#x11a;" horiz-adv-x="565" d="M125 977 L201 1035 L299 944 L397 1036 L471 977 L299 822 L125 977 Z M205 466 L497 466 L497 358 L205 358 L205 107 L506 107 L506 0 L90 0 L90 754 L506 754 L506 646 L205 646 L205 466 Z " />
<glyph glyph-name="Ecircumflex" unicode="&#xca;" horiz-adv-x="565" d="M471 879 L395 822 L297 913 L200 822 L125 879 L297 1036 L471 879 Z M205 466 L497 466 L497 358 L205 358 L205 107 L506 107 L506 0 L90 0 L90 754 L506 754 L506 646 L205 646 L205 466 Z " />
<glyph glyph-name="Edieresis" unicode="&#xcb;" horiz-adv-x="565" d="M189 968 Q218 968 238 947.5 Q258 927 258 898 Q258 870 237.5 849 Q217 828 189 828 Q159 828 139 848.5 Q119 869 119 899 Q119 928 139.5 948 Q160 968 189 968 Z M408 968 Q437 968 457 947.5 Q477 927 477 898 Q477 870 456.5 849 Q436 828 408 828 Q378 828 358 848.5 Q338 869 338 899 Q338 927 358.5 947.5 Q379 968 408 968 Z M205 466 L497 466 L497 358 L205 358 L205 107 L506 107 L506 0 L90 0 L90 754 L506 754 L506 646 L205 646 L205 466 Z " />
<glyph glyph-name="Edotaccent" unicode="&#x116;" horiz-adv-x="565" d="M298 975 Q329 975 350.5 953.5 Q372 932 372 902 Q372 871 350.5 849.5 Q329 828 298 828 Q268 828 246.5 850 Q225 872 225 903 Q225 932 247 953.5 Q269 975 298 975 Z M205 466 L497 466 L497 358 L205 358 L205 107 L506 107 L506 0 L90 0 L90 754 L506 754 L506 646 L205 646 L205 466 Z " />
<glyph glyph-name="Egrave" unicode="&#xc8;" horiz-adv-x="565" d="M401 867 L347 822 L148 956 L245 1024 L401 867 Z M205 466 L497 466 L497 358 L205 358 L205 107 L506 107 L506 0 L90 0 L90 754 L506 754 L506 646 L205 646 L205 466 Z " />
<glyph glyph-name="Emacron" unicode="&#x112;" horiz-adv-x="565" d="M498 844 L96 844 L96 932 L498 932 L498 844 Z M205 466 L497 466 L497 358 L205 358 L205 107 L506 107 L506 0 L90 0 L90 754 L506 754 L506 646 L205 646 L205 466 Z " />
<glyph glyph-name="Eogonek" unicode="&#x118;" horiz-adv-x="565" d="M205 466 L497 466 L497 358 L205 358 L205 107 L506 107 L506 0 Q458 -40 442.5 -61 Q427 -82 427 -105 Q427 -121 437.5 -130.5 Q448 -140 466 -140 Q481 -140 498 -134 Q515 -128 542 -113 L525 -205 Q507 -217 488 -222 Q469 -227 443 -227 Q392 -227 359.5 -199.5 Q327 -172 327 -129 Q327 -67 415 0 L90 0 L90 754 L506 754 L506 646 L205 646 L205 466 Z " />
<glyph glyph-name="F" unicode="F" horiz-adv-x="507" d="M205 466 L458 466 L458 358 L205 358 L205 0 L90 0 L90 754 L467 754 L467 646 L205 646 L205 466 Z " />
<glyph glyph-name="G" unicode="G" horiz-adv-x="842" d="M790 357 Q790 284 774 229.5 Q758 175 723 128 Q674 61 598 23 Q522 -15 437 -15 Q333 -15 245 37.5 Q157 90 105 179.5 Q53 269 53 375 Q53 483 105.5 573 Q158 663 248 715.5 Q338 768 446 768 Q508 768 566 749 Q624 730 672 695 Q693 680 711 663 Q729 646 756 615 L675 537 Q626 601 571.5 631 Q517 661 449 661 Q370 661 305.5 623.5 Q241 586 204 520.5 Q167 455 167 375 Q167 248 258 168 Q298 132 345.5 112.5 Q393 93 441 93 Q497 93 546.5 119 Q596 145 628.5 189 Q661 233 666 285 L478 285 L478 392 L790 392 L790 357 Z " />
<glyph glyph-name="Gbreve" unicode="&#x11e;" horiz-adv-x="842" d="M351 989 Q357 950 378 931 Q399 912 436 912 Q511 912 521 989 L611 989 Q608 953 601 932 Q594 911 577 889 Q553 858 516 841.5 Q479 825 434 825 Q345 825 296 889 Q279 911 272 932 Q265 953 261 989 L351 989 Z M790 357 Q790 284 774 229.5 Q758 175 723 128 Q674 61 598 23 Q522 -15 437 -15 Q333 -15 245 37.5 Q157 90 105 179.5 Q53 269 53 375 Q53 483 105.5 573 Q158 663 248 715.5 Q338 768 446 768 Q508 768 566 749 Q624 730 672 695 Q693 680 711 663 Q729 646 756 615 L675 537 Q626 601 571.5 631 Q517 661 449 661 Q370 661 305.5 623.5 Q241 586 204 520.5 Q167 455 167 375 Q167 248 258 168 Q298 132 345.5 112.5 Q393 93 441 93 Q497 93 546.5 119 Q596 145 628.5 189 Q661 233 666 285 L478 285 L478 392 L790 392 L790 357 Z " />
<glyph glyph-name="Gcaron" unicode="&#x1e6;" horiz-adv-x="842" d="M264 977 L339 1035 L437 944 L534 1036 L609 977 L437 822 L264 977 Z M790 357 Q790 284 774 229.5 Q758 175 723 128 Q674 61 598 23 Q522 -15 437 -15 Q333 -15 245 37.5 Q157 90 105 179.5 Q53 269 53 375 Q53 483 105.5 573 Q158 663 248 715.5 Q338 768 446 768 Q508 768 566 749 Q624 730 672 695 Q693 680 711 663 Q729 646 756 615 L675 537 Q626 601 571.5 631 Q517 661 449 661 Q370 661 305.5 623.5 Q241 586 204 520.5 Q167 455 167 375 Q167 248 258 168 Q298 132 345.5 112.5 Q393 93 441 93 Q497 93 546.5 119 Q596 145 628.5 189 Q661 233 666 285 L478 285 L478 392 L790 392 L790 357 Z " />
<glyph glyph-name="Gcircumflex" unicode="&#x11c;" horiz-adv-x="842" d="M612 879 L538 822 L440 913 L342 822 L268 879 L440 1036 L612 879 Z M790 357 Q790 284 774 229.5 Q758 175 723 128 Q674 61 598 23 Q522 -15 437 -15 Q333 -15 245 37.5 Q157 90 105 179.5 Q53 269 53 375 Q53 483 105.5 573 Q158 663 248 715.5 Q338 768 446 768 Q508 768 566 749 Q624 730 672 695 Q693 680 711 663 Q729 646 756 615 L675 537 Q626 601 571.5 631 Q517 661 449 661 Q370 661 305.5 623.5 Q241 586 204 520.5 Q167 455 167 375 Q167 248 258 168 Q298 132 345.5 112.5 Q393 93 441 93 Q497 93 546.5 119 Q596 145 628.5 189 Q661 233 666 285 L478 285 L478 392 L790 392 L790 357 Z " />
<glyph glyph-name="uni0122" unicode="&#x122;" horiz-adv-x="842" d="M790 357 Q790 284 774 229.5 Q758 175 723 128 Q674 61 598 23 Q522 -15 437 -15 Q333 -15 245 37.5 Q157 90 105 179.5 Q53 269 53 375 Q53 483 105.5 573 Q158 663 248 715.5 Q338 768 446 768 Q508 768 566 749 Q624 730 672 695 Q693 680 711 663 Q729 646 756 615 L675 537 Q626 601 571.5 631 Q517 661 449 661 Q370 661 305.5 623.5 Q241 586 204 520.5 Q167 455 167 375 Q167 248 258 168 Q298 132 345.5 112.5 Q393 93 441 93 Q497 93 546.5 119 Q596 145 628.5 189 Q661 233 666 285 L478 285 L478 392 L790 392 L790 357 Z M394 -271 L327 -244 L400 -60 L486 -93 L394 -271 Z " />
<glyph glyph-name="Gdotaccent" unicode="&#x120;" horiz-adv-x="842" d="M436 975 Q467 975 488.5 953.5 Q510 932 510 902 Q510 871 488.5 849.5 Q467 828 436 828 Q405 828 384 849.5 Q363 871 363 903 Q363 932 385 953.5 Q407 975 436 975 Z M790 357 Q790 284 774 229.5 Q758 175 723 128 Q674 61 598 23 Q522 -15 437 -15 Q333 -15 245 37.5 Q157 90 105 179.5 Q53 269 53 375 Q53 483 105.5 573 Q158 663 248 715.5 Q338 768 446 768 Q508 768 566 749 Q624 730 672 695 Q693 680 711 663 Q729 646 756 615 L675 537 Q626 601 571.5 631 Q517 661 449 661 Q370 661 305.5 623.5 Q241 586 204 520.5 Q167 455 167 375 Q167 248 258 168 Q298 132 345.5 112.5 Q393 93 441 93 Q497 93 546.5 119 Q596 145 628.5 189 Q661 233 666 285 L478 285 L478 392 L790 392 L790 357 Z " />
<glyph glyph-name="H" unicode="H" horiz-adv-x="733" d="M529 754 L643 754 L643 0 L529 0 L529 351 L205 351 L205 0 L90 0 L90 754 L205 754 L205 459 L529 459 L529 754 Z " />
<glyph glyph-name="Hbar" unicode="&#x126;" horiz-adv-x="733" d="M643 626 L721 626 L721 528 L643 528 L643 0 L529 0 L529 351 L205 351 L205 0 L90 0 L90 528 L12 528 L12 626 L90 626 L90 754 L205 754 L205 626 L529 626 L529 754 L643 754 L643 626 Z M205 459 L529 459 L529 528 L205 528 L205 459 Z " />
<glyph glyph-name="Hcircumflex" unicode="&#x124;" horiz-adv-x="733" d="M539 879 L463 822 L365 913 L269 822 L194 879 L365 1036 L539 879 Z M529 754 L643 754 L643 0 L529 0 L529 351 L205 351 L205 0 L90 0 L90 754 L205 754 L205 459 L529 459 L529 754 Z " />
<glyph glyph-name="I" unicode="I" horiz-adv-x="295" d="M90 0 L90 754 L205 754 L205 0 L90 0 Z " />
<glyph glyph-name="IJ" unicode="&#x132;" horiz-adv-x="697" d="M90 0 L90 754 L205 754 L205 0 L90 0 Z M607 266 Q607 183 595 135 Q583 87 554 53 Q495 -15 401 -15 Q362 -15 332 -6.5 Q302 2 268 24 L324 121 Q347 106 364.5 99.5 Q382 93 401 93 Q430 93 451 108 Q472 123 481 149 Q486 164 489.5 196.5 Q493 229 493 266 L493 754 L607 754 L607 266 Z " />
<glyph glyph-name="Iacute" unicode="&#xcd;" horiz-adv-x="295" d="M88 867 L237 1024 L330 956 L142 822 L88 867 Z M90 0 L90 754 L205 754 L205 0 L90 0 Z " />
<glyph glyph-name="Ibreve" unicode="&#x12c;" horiz-adv-x="295" d="M63 989 Q69 950 90 931 Q111 912 148 912 Q185 912 206 931 Q227 950 233 989 L323 989 Q320 952 312.5 931.5 Q305 911 288 889 Q265 858 228 841.5 Q191 825 146 825 Q58 825 7 889 Q-10 912 -17.5 933 Q-25 954 -27 989 L63 989 Z M92 0 L92 754 L206 754 L206 0 L92 0 Z " />
<glyph glyph-name="Icircumflex" unicode="&#xce;" horiz-adv-x="295" d="M320 879 L245 822 L147 913 L50 822 L-25 879 L147 1036 L320 879 Z M90 0 L90 754 L205 754 L205 0 L90 0 Z " />
<glyph glyph-name="Idieresis" unicode="&#xcf;" horiz-adv-x="295" d="M55 968 Q84 968 104 947.5 Q124 927 124 898 Q124 869 103.5 848.5 Q83 828 55 828 Q26 828 5.5 849 Q-15 870 -15 899 Q-15 927 5.5 947.5 Q26 968 55 968 Z M240 968 Q268 968 288 947.5 Q308 927 308 898 Q308 869 288 848.5 Q268 828 240 828 Q210 828 189.5 849 Q169 870 169 899 Q169 927 190 947.5 Q211 968 240 968 Z M90 0 L90 754 L205 754 L205 0 L90 0 Z " />
<glyph glyph-name="Idot" unicode="&#x130;" horiz-adv-x="295" d="M147 975 Q178 975 199 953.5 Q220 932 220 902 Q220 871 199 849.5 Q178 828 147 828 Q116 828 94.5 850 Q73 872 73 903 Q73 932 95 953.5 Q117 975 147 975 Z M90 0 L90 754 L205 754 L205 0 L90 0 Z " />
<glyph glyph-name="Igrave" unicode="&#xcc;" horiz-adv-x="295" d="M206 867 L151 822 L-36 956 L56 1024 L206 867 Z M89 0 L89 754 L203 754 L203 0 L89 0 Z " />
<glyph glyph-name="Imacron" unicode="&#x12a;" horiz-adv-x="295" d="M311 844 L-16 844 L-16 932 L311 932 L311 844 Z M90 0 L90 754 L205 754 L205 0 L90 0 Z " />
<glyph glyph-name="Iogonek" unicode="&#x12e;" horiz-adv-x="295" d="M205 0 Q168 -37 152 -61 Q136 -85 136 -105 Q136 -120 146.5 -129.5 Q157 -139 174 -139 Q204 -139 247 -113 L232 -203 Q213 -216 194.5 -221 Q176 -226 149 -226 Q100 -226 70 -198.5 Q40 -171 40 -127 Q40 -95 59 -64.5 Q78 -34 119 0 L90 0 L90 754 L205 754 L205 0 Z " />
<glyph glyph-name="Itilde" unicode="&#x128;" horiz-adv-x="295" d="M-34 910 Q-21 929 -11 939 Q4 955 26.5 964.5 Q49 974 71 974 Q110 974 159 948 Q196 930 205 926.5 Q214 923 225 923 Q241 923 254 934.5 Q267 946 286 975 L348 923 Q323 875 292.5 852 Q262 829 220 829 Q201 829 184 834.5 Q167 840 131 857 Q81 879 66 879 Q50 879 38 868 Q26 857 10 828 L-53 883 L-34 910 Z M90 0 L90 754 L205 754 L205 0 L90 0 Z " />
<glyph glyph-name="J" unicode="J" horiz-adv-x="410" d="M319 266 Q319 184 306.5 136 Q294 88 264 53 Q207 -15 113 -15 Q74 -15 44 -6.5 Q14 2 -20 24 L36 121 Q59 106 76.5 99.5 Q94 93 113 93 Q142 93 163 108 Q184 123 193 149 Q198 164 201.5 196.5 Q205 229 205 266 L205 754 L319 754 L319 266 Z " />
<glyph glyph-name="Jcircumflex" unicode="&#x134;" horiz-adv-x="410" d="M433 879 L357 822 L259 913 L163 822 L88 879 L259 1036 L433 879 Z M320 266 Q320 184 307.5 136 Q295 88 266 53 Q207 -15 114 -15 Q75 -15 45 -6.5 Q15 2 -19 24 L37 121 Q60 106 77.5 99.5 Q95 93 114 93 Q143 93 164 108 Q185 123 194 149 Q199 164 202.5 196.5 Q206 229 206 266 L206 754 L320 754 L320 266 Z " />
<glyph glyph-name="K" unicode="K" horiz-adv-x="662" d="M649 754 L310 412 L651 0 L499 0 L228 336 L205 312 L205 0 L90 0 L90 754 L205 754 L205 453 L497 754 L649 754 Z " />
<glyph glyph-name="uni0136" unicode="&#x136;" horiz-adv-x="662" d="M649 754 L310 412 L651 0 L499 0 L228 336 L205 312 L205 0 L90 0 L90 754 L205 754 L205 453 L497 754 L649 754 Z M315 -271 L247 -244 L321 -60 L407 -93 L315 -271 Z " />
<glyph glyph-name="L" unicode="L" horiz-adv-x="443" d="M426 107 L426 0 L90 0 L90 754 L205 754 L205 107 L426 107 Z " />
<glyph glyph-name="Lacute" unicode="&#x139;" horiz-adv-x="443" d="M95 867 L251 1024 L348 956 L149 822 L95 867 Z M426 107 L426 0 L90 0 L90 754 L205 754 L205 107 L426 107 Z " />
<glyph glyph-name="Lcaron" unicode="&#x13d;" horiz-adv-x="443" d="M341 547 L273 573 L347 757 L433 724 L341 547 Z M426 107 L426 0 L90 0 L90 754 L205 754 L205 107 L426 107 Z " />
<glyph glyph-name="uni013B" unicode="&#x13b;" horiz-adv-x="443" d="M426 107 L426 0 L90 0 L90 754 L205 754 L205 107 L426 107 Z M232 -271 L165 -244 L237 -60 L323 -93 L232 -271 Z " />
<glyph glyph-name="Ldot" unicode="&#x13f;" horiz-adv-x="443" d="M426 107 L426 0 L90 0 L90 754 L205 754 L205 107 L426 107 Z M365 472 Q402 472 427.5 446.5 Q453 421 453 384 Q453 348 427.5 322 Q402 296 365 296 Q328 296 302.5 322 Q277 348 277 385 Q277 421 303 446.5 Q329 472 365 472 Z " />
<glyph glyph-name="Lslash" unicode="&#x141;" horiz-adv-x="443" d="M350 451 L205 354 L205 107 L426 107 L426 0 L90 0 L90 293 L19 245 L19 358 L90 406 L90 754 L205 754 L205 467 L350 563 L350 451 Z " />
<glyph glyph-name="M" unicode="M" horiz-adv-x="922" d="M464 225 L732 810 L875 0 L758 0 L686 454 L463 -35 L246 455 L165 0 L47 0 L206 810 L464 225 Z " />
<glyph glyph-name="N" unicode="N" horiz-adv-x="844" d="M640 231 L640 754 L754 754 L754 -46 L205 528 L205 0 L90 0 L90 805 L640 231 Z " />
<glyph glyph-name="Nacute" unicode="&#x143;" horiz-adv-x="844" d="M348 867 L504 1024 L601 956 L402 822 L348 867 Z M640 231 L640 754 L754 754 L754 -46 L205 528 L205 0 L90 0 L90 805 L640 231 Z " />
<glyph glyph-name="Ncaron" unicode="&#x147;" horiz-adv-x="844" d="M250 977 L324 1035 L423 944 L520 1036 L594 977 L423 822 L250 977 Z M640 231 L640 754 L754 754 L754 -46 L205 528 L205 0 L90 0 L90 805 L640 231 Z " />
<glyph glyph-name="uni0145" unicode="&#x145;" horiz-adv-x="844" d="M640 231 L640 754 L754 754 L754 -46 L205 528 L205 0 L90 0 L90 805 L640 231 Z M394 -271 L328 -244 L400 -60 L486 -93 L394 -271 Z " />
<glyph glyph-name="Eng" unicode="&#x14a;" horiz-adv-x="733" d="M205 684 Q252 731 292.5 749.5 Q333 768 392 768 Q457 768 512.5 741 Q568 714 599 668 Q623 631 633 584 Q643 537 643 461 L643 59 Q643 5 632.5 -30.5 Q622 -66 600 -90 Q575 -117 528.5 -133.5 Q482 -150 431 -150 Q400 -150 375.5 -144.5 Q351 -139 314 -124 L314 -16 Q366 -38 384.5 -43.5 Q403 -49 429 -49 Q457 -49 479.5 -39.5 Q502 -30 513 -14 Q521 1 525 24 Q529 47 529 87 L529 421 Q529 492 523.5 530 Q518 568 504 596 Q487 627 452.5 644.5 Q418 662 372 662 Q327 662 292 645.5 Q257 629 238 599 Q205 548 205 407 L205 0 L90 0 L90 754 L205 754 L205 684 Z " />
<glyph glyph-name="Ntilde" unicode="&#xd1;" horiz-adv-x="844" d="M242 912 Q254 929 264 939 Q279 955 301.5 964.5 Q324 974 346 974 Q385 974 434 948 Q463 934 476 928.5 Q489 923 499 923 Q515 923 528.5 934.5 Q542 946 560 975 L623 923 Q598 875 567 852 Q536 829 495 829 Q475 829 458 834.5 Q441 840 406 857 Q358 879 340 879 Q325 879 312.5 867.5 Q300 856 286 828 L221 883 L242 912 Z M640 231 L640 754 L754 754 L754 -46 L205 528 L205 0 L90 0 L90 805 L640 231 Z " />
<glyph glyph-name="O" unicode="O" horiz-adv-x="893" d="M449 768 Q555 768 645 715 Q735 662 788 572 Q841 482 841 376 Q841 269 787.5 179.5 Q734 90 642.5 37.5 Q551 -15 443 -15 Q361 -15 282.5 21 Q204 57 148 119 Q53 225 53 380 Q53 484 107 573.5 Q161 663 252 715.5 Q343 768 449 768 Z M447 661 Q371 661 306.5 623.5 Q242 586 204.5 521.5 Q167 457 167 379 Q167 253 251 173 Q291 135 341.5 114 Q392 93 444 93 Q522 93 587 130.5 Q652 168 689.5 233 Q727 298 727 376 Q727 455 690 520.5 Q653 586 589 623.5 Q525 661 447 661 Z " />
<glyph glyph-name="Oacute" unicode="&#xd3;" horiz-adv-x="893" d="M365 867 L522 1024 L618 956 L419 822 L365 867 Z M449 768 Q555 768 645 715 Q735 662 788 572 Q841 482 841 376 Q841 269 787.5 179.5 Q734 90 642.5 37.5 Q551 -15 443 -15 Q361 -15 282.5 21 Q204 57 148 119 Q53 225 53 380 Q53 484 107 573.5 Q161 663 252 715.5 Q343 768 449 768 Z M447 661 Q371 661 306.5 623.5 Q242 586 204.5 521.5 Q167 457 167 379 Q167 253 251 173 Q291 135 341.5 114 Q392 93 444 93 Q522 93 587 130.5 Q652 168 689.5 233 Q727 298 727 376 Q727 455 690 520.5 Q653 586 589 623.5 Q525 661 447 661 Z " />
<glyph glyph-name="Obreve" unicode="&#x14e;" horiz-adv-x="893" d="M362 989 Q368 950 388.5 931 Q409 912 446 912 Q484 912 505 931 Q526 950 531 989 L621 989 Q618 953 611 932 Q604 911 588 889 Q563 858 526 841.5 Q489 825 444 825 Q355 825 306 889 Q289 912 282 933 Q275 954 272 989 L362 989 Z M449 768 Q555 768 645 715 Q735 662 788 572 Q841 482 841 376 Q841 269 787.5 179.5 Q734 90 642.5 37.5 Q551 -15 443 -15 Q361 -15 282.5 21 Q204 57 148 119 Q53 225 53 380 Q53 484 107 573.5 Q161 663 252 715.5 Q343 768 449 768 Z M447 661 Q371 661 306.5 623.5 Q242 586 204.5 521.5 Q167 457 167 379 Q167 253 251 173 Q291 135 341.5 114 Q392 93 444 93 Q522 93 587 130.5 Q652 168 689.5 233 Q727 298 727 376 Q727 455 690 520.5 Q653 586 589 623.5 Q525 661 447 661 Z " />
<glyph glyph-name="Ocircumflex" unicode="&#xd4;" horiz-adv-x="893" d="M619 879 L544 822 L445 913 L349 822 L275 879 L445 1036 L619 879 Z M449 768 Q555 768 645 715 Q735 662 788 572 Q841 482 841 376 Q841 269 787.5 179.5 Q734 90 642.5 37.5 Q551 -15 443 -15 Q361 -15 282.5 21 Q204 57 148 119 Q53 225 53 380 Q53 484 107 573.5 Q161 663 252 715.5 Q343 768 449 768 Z M447 661 Q371 661 306.5 623.5 Q242 586 204.5 521.5 Q167 457 167 379 Q167 253 251 173 Q291 135 341.5 114 Q392 93 444 93 Q522 93 587 130.5 Q652 168 689.5 233 Q727 298 727 376 Q727 455 690 520.5 Q653 586 589 623.5 Q525 661 447 661 Z " />
<glyph glyph-name="Odieresis" unicode="&#xd6;" horiz-adv-x="893" d="M338 968 Q367 968 387 947.5 Q407 927 407 898 Q407 870 386.5 849 Q366 828 338 828 Q308 828 288 848.5 Q268 869 268 899 Q268 928 288.5 948 Q309 968 338 968 Z M557 968 Q586 968 606 947.5 Q626 927 626 898 Q626 870 605.5 849 Q585 828 557 828 Q528 828 507.5 849 Q487 870 487 899 Q487 927 507.5 947.5 Q528 968 557 968 Z M449 768 Q555 768 645 715 Q735 662 788 572 Q841 482 841 376 Q841 269 787.5 179.5 Q734 90 642.5 37.5 Q551 -15 443 -15 Q361 -15 282.5 21 Q204 57 148 119 Q53 225 53 380 Q53 484 107 573.5 Q161 663 252 715.5 Q343 768 449 768 Z M447 661 Q371 661 306.5 623.5 Q242 586 204.5 521.5 Q167 457 167 379 Q167 253 251 173 Q291 135 341.5 114 Q392 93 444 93 Q522 93 587 130.5 Q652 168 689.5 233 Q727 298 727 376 Q727 455 690 520.5 Q653 586 589 623.5 Q525 661 447 661 Z " />
<glyph glyph-name="Ograve" unicode="&#xd2;" horiz-adv-x="893" d="M536 867 L481 822 L283 956 L380 1024 L536 867 Z M449 768 Q555 768 645 715 Q735 662 788 572 Q841 482 841 376 Q841 269 787.5 179.5 Q734 90 642.5 37.5 Q551 -15 443 -15 Q361 -15 282.5 21 Q204 57 148 119 Q53 225 53 380 Q53 484 107 573.5 Q161 663 252 715.5 Q343 768 449 768 Z M447 661 Q371 661 306.5 623.5 Q242 586 204.5 521.5 Q167 457 167 379 Q167 253 251 173 Q291 135 341.5 114 Q392 93 444 93 Q522 93 587 130.5 Q652 168 689.5 233 Q727 298 727 376 Q727 455 690 520.5 Q653 586 589 623.5 Q525 661 447 661 Z " />
<glyph glyph-name="Ohorn" unicode="&#x1a0;" horiz-adv-x="893" d="M857 771 L768 600 Q807 543 824 490.5 Q841 438 841 376 Q841 270 787.5 180 Q734 90 643.5 37.5 Q553 -15 446 -15 Q338 -15 248 37 Q158 89 105.5 178 Q53 267 53 373 Q53 481 106 571.5 Q159 662 250 715 Q341 768 449 768 Q523 768 592.5 740.5 Q662 713 715 662 L771 803 L857 771 Z M447 661 Q371 661 306.5 623.5 Q242 586 204.5 521.5 Q167 457 167 379 Q167 253 251 173 Q291 135 341.5 114 Q392 93 444 93 Q522 93 587 130.5 Q652 168 689.5 233 Q727 298 727 376 Q727 455 690 520.5 Q653 586 589 623.5 Q525 661 447 661 Z " />
<glyph glyph-name="Ohungarumlaut" unicode="&#x150;" horiz-adv-x="893" d="M287 867 L414 1024 L508 956 L336 822 L287 867 Z M521 867 L646 1024 L741 956 L570 822 L521 867 Z M449 768 Q555 768 645 715 Q735 662 788 572 Q841 482 841 376 Q841 269 787.5 179.5 Q734 90 642.5 37.5 Q551 -15 443 -15 Q361 -15 282.5 21 Q204 57 148 119 Q53 225 53 380 Q53 484 107 573.5 Q161 663 252 715.5 Q343 768 449 768 Z M447 661 Q371 661 306.5 623.5 Q242 586 204.5 521.5 Q167 457 167 379 Q167 253 251 173 Q291 135 341.5 114 Q392 93 444 93 Q522 93 587 130.5 Q652 168 689.5 233 Q727 298 727 376 Q727 455 690 520.5 Q653 586 589 623.5 Q525 661 447 661 Z " />
<glyph glyph-name="Omacron" unicode="&#x14c;" horiz-adv-x="893" d="M647 844 L245 844 L245 932 L647 932 L647 844 Z M449 768 Q555 768 645 715 Q735 662 788 572 Q841 482 841 376 Q841 269 787.5 179.5 Q734 90 642.5 37.5 Q551 -15 443 -15 Q361 -15 282.5 21 Q204 57 148 119 Q53 225 53 380 Q53 484 107 573.5 Q161 663 252 715.5 Q343 768 449 768 Z M447 661 Q371 661 306.5 623.5 Q242 586 204.5 521.5 Q167 457 167 379 Q167 253 251 173 Q291 135 341.5 114 Q392 93 444 93 Q522 93 587 130.5 Q652 168 689.5 233 Q727 298 727 376 Q727 455 690 520.5 Q653 586 589 623.5 Q525 661 447 661 Z " />
<glyph glyph-name="Oslash" unicode="&#xd8;" horiz-adv-x="892" d="M831 707 L750 624 Q840 511 840 375 Q840 270 786.5 180.5 Q733 91 642.5 38 Q552 -15 446 -15 Q377 -15 316.5 6 Q256 27 197 72 L116 -8 L53 56 L132 137 Q91 192 72 249.5 Q53 307 53 374 Q53 482 106 572.5 Q159 663 250 715.5 Q341 768 450 768 Q574 768 684 689 L766 772 L831 707 Z M605 614 Q532 661 449 661 Q370 661 305.5 623.5 Q241 586 204 520 Q167 454 167 373 Q167 328 177.5 294.5 Q188 261 215 216 L605 614 Z M278 150 Q322 120 361.5 106.5 Q401 93 447 93 Q523 93 587 131 Q651 169 688 234 Q725 299 725 376 Q725 426 712 467 Q699 508 670 549 L278 150 Z " />
<glyph glyph-name="Oslashacute" unicode="&#x1fe;" horiz-adv-x="892" d="M358 867 L514 1024 L610 956 L412 822 L358 867 Z M831 707 L750 624 Q840 511 840 375 Q840 270 786.5 180.5 Q733 91 642.5 38 Q552 -15 446 -15 Q377 -15 316.5 6 Q256 27 197 72 L116 -8 L53 56 L132 137 Q91 192 72 249.5 Q53 307 53 374 Q53 482 106 572.5 Q159 663 250 715.5 Q341 768 450 768 Q574 768 684 689 L766 772 L831 707 Z M605 614 Q532 661 449 661 Q370 661 305.5 623.5 Q241 586 204 520 Q167 454 167 373 Q167 328 177.5 294.5 Q188 261 215 216 L605 614 Z M278 150 Q322 120 361.5 106.5 Q401 93 447 93 Q523 93 587 131 Q651 169 688 234 Q725 299 725 376 Q725 426 712 467 Q699 508 670 549 L278 150 Z " />
<glyph glyph-name="Otilde" unicode="&#xd5;" horiz-adv-x="893" d="M275 907 Q278 911 285 921 Q292 931 301 939 Q315 955 337.5 964.5 Q360 974 382 974 Q421 974 470 948 Q499 934 512 928.5 Q525 923 536 923 Q552 923 565 934.5 Q578 946 597 975 L659 923 Q634 875 603 852 Q572 829 531 829 Q511 829 494 834.5 Q477 840 442 857 Q394 879 376 879 Q361 879 348.5 867.5 Q336 856 322 828 L258 883 L275 907 Z M449 768 Q555 768 645 715 Q735 662 788 572 Q841 482 841 376 Q841 269 787.5 179.5 Q734 90 642.5 37.5 Q551 -15 443 -15 Q361 -15 282.5 21 Q204 57 148 119 Q53 225 53 380 Q53 484 107 573.5 Q161 663 252 715.5 Q343 768 449 768 Z M447 661 Q371 661 306.5 623.5 Q242 586 204.5 521.5 Q167 457 167 379 Q167 253 251 173 Q291 135 341.5 114 Q392 93 444 93 Q522 93 587 130.5 Q652 168 689.5 233 Q727 298 727 376 Q727 455 690 520.5 Q653 586 589 623.5 Q525 661 447 661 Z " />
<glyph glyph-name="OE" unicode="&#x152;" horiz-adv-x="1183" d="M833 464 L1116 464 L1116 357 L833 357 L833 107 L1124 107 L1124 0 L719 0 L719 104 Q651 39 590 12 Q529 -15 451 -15 Q343 -15 251.5 37.5 Q160 90 106.5 179 Q53 268 53 373 Q53 481 105.5 571.5 Q158 662 248 715 Q338 768 445 768 Q526 768 589 740 Q652 712 719 645 L719 754 L1124 754 L1124 646 L833 646 L833 464 Z M443 660 Q369 660 305.5 622 Q242 584 204.5 519.5 Q167 455 167 381 Q167 302 203.5 236 Q240 170 302.5 132 Q365 94 440 94 Q516 94 580 131.5 Q644 169 682 233 Q720 297 720 374 Q720 451 682.5 517 Q645 583 581 621.5 Q517 660 443 660 Z " />
<glyph glyph-name="P" unicode="P" horiz-adv-x="539" d="M90 0 L90 754 L219 754 Q304 754 349 743.5 Q394 733 431 706 Q469 677 491 629.5 Q513 582 513 530 Q513 484 495.5 442 Q478 400 447 371 Q380 306 258 306 L205 306 L205 0 L90 0 Z M246 411 Q290 411 317.5 418 Q345 425 365 442 Q383 457 393 481 Q403 505 403 532 Q403 559 392 583 Q381 607 362 621 Q341 636 313.5 642.5 Q286 649 242 649 L205 649 L205 411 L246 411 Z " />
<glyph glyph-name="Thorn" unicode="&#xde;" horiz-adv-x="539" d="M90 0 L90 754 L205 754 L205 647 L219 647 Q306 647 350 637.5 Q394 628 431 600 Q469 571 491 523.5 Q513 476 513 424 Q513 378 495.5 335.5 Q478 293 447 264 Q382 200 258 200 L205 200 L205 0 L90 0 Z M246 305 Q290 305 317.5 312 Q345 319 365 336 Q383 351 393 375 Q403 399 403 426 Q403 453 392 477 Q381 501 362 515 Q341 531 313.5 537.5 Q286 544 242 544 L205 544 L205 305 L246 305 Z " />
<glyph glyph-name="Q" unicode="Q" horiz-adv-x="893" d="M655 46 Q608 17 554 1 Q500 -15 445 -15 Q362 -15 283 21 Q204 57 147 120 Q101 172 77 236.5 Q53 301 53 374 Q53 481 105.5 571.5 Q158 662 248.5 715 Q339 768 446 768 Q554 768 644.5 714.5 Q735 661 788 569 Q841 477 841 368 Q841 290 815 228.5 Q789 167 733 108 L858 -15 L714 -15 L655 46 Z M654 189 Q693 230 710 273.5 Q727 317 727 375 Q727 455 690 520.5 Q653 586 588.5 623.5 Q524 661 445 661 Q366 661 302.5 623.5 Q239 586 203 520.5 Q167 455 167 373 Q167 251 249 173 Q289 135 339 114 Q389 93 441 93 Q476 93 512 102 Q548 111 575 127 L398 298 L545 298 L654 189 Z " />
<glyph glyph-name="R" unicode="R" horiz-adv-x="601" d="M440 0 L225 308 L205 308 L205 0 L90 0 L90 754 L224 754 Q296 754 341.5 744 Q387 734 423 710 Q465 681 489 633.5 Q513 586 513 532 Q513 453 467 395 Q421 337 346 321 L579 0 L440 0 Z M241 408 Q317 408 355 434 Q377 450 389.5 476 Q402 502 402 531 Q402 558 390 582 Q378 606 358 620 Q338 634 311 640 Q284 646 245 646 L205 646 L205 408 L241 408 Z " />
<glyph glyph-name="Racute" unicode="&#x154;" horiz-adv-x="601" d="M197 867 L354 1024 L450 956 L251 822 L197 867 Z M440 0 L225 308 L205 308 L205 0 L90 0 L90 754 L224 754 Q296 754 341.5 744 Q387 734 423 710 Q465 681 489 633.5 Q513 586 513 532 Q513 453 467 395 Q421 337 346 321 L579 0 L440 0 Z M241 408 Q317 408 355 434 Q377 450 389.5 476 Q402 502 402 531 Q402 558 390 582 Q378 606 358 620 Q338 634 311 640 Q284 646 245 646 L205 646 L205 408 L241 408 Z " />
<glyph glyph-name="Rcaron" unicode="&#x158;" horiz-adv-x="601" d="M106 977 L181 1035 L279 944 L376 1036 L451 977 L279 822 L106 977 Z M440 0 L225 308 L205 308 L205 0 L90 0 L90 754 L224 754 Q296 754 341.5 744 Q387 734 423 710 Q465 681 489 633.5 Q513 586 513 532 Q513 453 467 395 Q421 337 346 321 L579 0 L440 0 Z M241 408 Q317 408 355 434 Q377 450 389.5 476 Q402 502 402 531 Q402 558 390 582 Q378 606 358 620 Q338 634 311 640 Q284 646 245 646 L205 646 L205 408 L241 408 Z " />
<glyph glyph-name="uni0156" unicode="&#x156;" horiz-adv-x="601" d="M440 0 L225 308 L205 308 L205 0 L90 0 L90 754 L224 754 Q296 754 341.5 744 Q387 734 423 710 Q465 681 489 633.5 Q513 586 513 532 Q513 453 467 395 Q421 337 346 321 L579 0 L440 0 Z M241 408 Q317 408 355 434 Q377 450 389.5 476 Q402 502 402 531 Q402 558 390 582 Q378 606 358 620 Q338 634 311 640 Q284 646 245 646 L205 646 L205 408 L241 408 Z M285 -271 L217 -244 L290 -60 L376 -93 L285 -271 Z " />
<glyph glyph-name="S" unicode="S" horiz-adv-x="582" d="M425 586 Q399 629 375 645 Q351 661 312 661 Q265 661 233.5 634 Q202 607 202 567 Q202 530 238 504 Q255 493 278 482.5 Q301 472 359 449 Q451 411 493.5 357.5 Q536 304 536 226 Q536 158 504.5 103 Q473 48 418 16.5 Q363 -15 294 -15 Q232 -15 181 11 Q130 37 97 86 Q78 113 68.5 139.5 Q59 166 53 208 L168 234 Q172 201 177 183.5 Q182 166 190 151 Q204 124 233.5 108.5 Q263 93 298 93 Q352 93 386.5 128.5 Q421 164 421 218 Q421 281 370 318 Q351 330 326 341 Q301 352 242 377 Q87 442 87 568 Q87 625 116.5 670.5 Q146 716 197.5 742 Q249 768 313 768 Q381 768 430 738 Q479 708 516 642 L425 586 Z " />
<glyph glyph-name="Sacute" unicode="&#x15a;" horiz-adv-x="582" d="M225 867 L382 1024 L478 956 L279 822 L225 867 Z M425 586 Q399 629 375 645 Q351 661 312 661 Q265 661 233.5 634 Q202 607 202 567 Q202 530 238 504 Q255 493 278 482.5 Q301 472 359 449 Q451 411 493.5 357.5 Q536 304 536 226 Q536 158 504.5 103 Q473 48 418 16.5 Q363 -15 294 -15 Q232 -15 181 11 Q130 37 97 86 Q78 113 68.5 139.5 Q59 166 53 208 L168 234 Q172 201 177 183.5 Q182 166 190 151 Q204 124 233.5 108.5 Q263 93 298 93 Q352 93 386.5 128.5 Q421 164 421 218 Q421 281 370 318 Q351 330 326 341 Q301 352 242 377 Q87 442 87 568 Q87 625 116.5 670.5 Q146 716 197.5 742 Q249 768 313 768 Q381 768 430 738 Q479 708 516 642 L425 586 Z " />
<glyph glyph-name="Scaron" unicode="&#x160;" horiz-adv-x="582" d="M134 977 L209 1035 L307 944 L405 1036 L479 977 L307 822 L134 977 Z M425 586 Q399 629 375 645 Q351 661 312 661 Q265 661 233.5 634 Q202 607 202 567 Q202 530 238 504 Q255 493 278 482.5 Q301 472 359 449 Q451 411 493.5 357.5 Q536 304 536 226 Q536 158 504.5 103 Q473 48 418 16.5 Q363 -15 294 -15 Q232 -15 181 11 Q130 37 97 86 Q78 113 68.5 139.5 Q59 166 53 208 L168 234 Q172 201 177 183.5 Q182 166 190 151 Q204 124 233.5 108.5 Q263 93 298 93 Q352 93 386.5 128.5 Q421 164 421 218 Q421 281 370 318 Q351 330 326 341 Q301 352 242 377 Q87 442 87 568 Q87 625 116.5 670.5 Q146 716 197.5 742 Q249 768 313 768 Q381 768 430 738 Q479 708 516 642 L425 586 Z " />
<glyph glyph-name="Scedilla" unicode="&#x15e;" horiz-adv-x="582" d="M425 586 Q399 629 375 645 Q351 661 312 661 Q265 661 233.5 634 Q202 607 202 567 Q202 530 238 504 Q255 493 278 482.5 Q301 472 359 449 Q451 411 493.5 357.5 Q536 304 536 226 Q536 158 504.5 103 Q473 48 418 16.5 Q363 -15 294 -15 Q232 -15 181 11 Q130 37 97 86 Q78 113 68.5 139.5 Q59 166 53 208 L168 234 Q172 201 177 183.5 Q182 166 190 151 Q204 124 233.5 108.5 Q263 93 298 93 Q352 93 386.5 128.5 Q421 164 421 218 Q421 281 370 318 Q351 330 326 341 Q301 352 242 377 Q87 442 87 568 Q87 625 116.5 670.5 Q146 716 197.5 742 Q249 768 313 768 Q381 768 430 738 Q479 708 516 642 L425 586 Z M192 -216 L295 -60 L391 -103 L263 -253 L192 -216 Z " />
<glyph glyph-name="Scircumflex" unicode="&#x15c;" horiz-adv-x="582" d="M479 879 L403 822 L305 913 L209 822 L134 879 L305 1036 L479 879 Z M425 586 Q399 629 375 645 Q351 661 312 661 Q265 661 233.5 634 Q202 607 202 567 Q202 530 238 504 Q255 493 278 482.5 Q301 472 359 449 Q451 411 493.5 357.5 Q536 304 536 226 Q536 158 504.5 103 Q473 48 418 16.5 Q363 -15 294 -15 Q232 -15 181 11 Q130 37 97 86 Q78 113 68.5 139.5 Q59 166 53 208 L168 234 Q172 201 177 183.5 Q182 166 190 151 Q204 124 233.5 108.5 Q263 93 298 93 Q352 93 386.5 128.5 Q421 164 421 218 Q421 281 370 318 Q351 330 326 341 Q301 352 242 377 Q87 442 87 568 Q87 625 116.5 670.5 Q146 716 197.5 742 Q249 768 313 768 Q381 768 430 738 Q479 708 516 642 L425 586 Z " />
<glyph glyph-name="uni0218" unicode="&#x218;" horiz-adv-x="582" d="M425 586 Q399 629 375 645 Q351 661 312 661 Q265 661 233.5 634 Q202 607 202 567 Q202 530 238 504 Q255 493 278 482.5 Q301 472 359 449 Q451 411 493.5 357.5 Q536 304 536 226 Q536 158 504.5 103 Q473 48 418 16.5 Q363 -15 294 -15 Q232 -15 181 11 Q130 37 97 86 Q78 113 68.5 139.5 Q59 166 53 208 L168 234 Q172 201 177 183.5 Q182 166 190 151 Q204 124 233.5 108.5 Q263 93 298 93 Q352 93 386.5 128.5 Q421 164 421 218 Q421 281 370 318 Q351 330 326 341 Q301 352 242 377 Q87 442 87 568 Q87 625 116.5 670.5 Q146 716 197.5 742 Q249 768 313 768 Q381 768 430 738 Q479 708 516 642 L425 586 Z M264 -271 L197 -244 L270 -60 L356 -93 L264 -271 Z " />
<glyph glyph-name="uni1E9E" unicode="&#x1e9e;" horiz-adv-x="715" d="M509 431 Q592 395 630.5 345.5 Q669 296 669 219 Q669 148 638 95 Q607 42 552 13.5 Q497 -15 427 -15 Q354 -15 289 10 L289 127 Q321 107 353.5 99.5 Q386 92 427 92 Q484 92 519.5 126.5 Q555 161 555 218 Q555 259 536 287 Q517 315 474.5 336 Q432 357 359 377 L490 634 Q436 661 358 661 Q274 661 235.5 617.5 Q197 574 197 478 L197 0 L82 0 L82 499 Q82 628 157 696.5 Q232 765 360 765 Q517 765 628 674 L509 431 Z " />
<glyph glyph-name="uni018F" unicode="&#x18f;" horiz-adv-x="904" d="M722 421 Q713 490 674 544.5 Q635 599 576 630 Q517 661 447 661 Q365 661 300 620.5 Q235 580 198 505 L96 554 Q148 653 243 710.5 Q338 768 449 768 Q554 768 644.5 715 Q735 662 788 572 Q841 482 841 376 Q841 270 787.5 180 Q734 90 643.5 37.5 Q553 -15 446 -15 Q339 -15 249 36.5 Q159 88 106 176 Q53 264 53 367 Q53 384 54 396 L55 421 L722 421 Z M169 332 Q180 288 185 272 Q214 193 287.5 143 Q361 93 447 93 Q515 93 574.5 124 Q634 155 673.5 209.5 Q713 264 722 332 L169 332 Z " />
<glyph glyph-name="T" unicode="T" horiz-adv-x="483" d="M184 0 L184 646 L11 646 L11 754 L471 754 L471 646 L298 646 L298 0 L184 0 Z " />
<glyph glyph-name="Tbar" unicode="&#x166;" horiz-adv-x="483" d="M298 432 L298 0 L184 0 L184 432 L45 432 L45 530 L184 530 L184 646 L11 646 L11 754 L471 754 L471 646 L298 646 L298 530 L437 530 L437 432 L298 432 Z " />
<glyph glyph-name="Tcaron" unicode="&#x164;" horiz-adv-x="483" d="M69 977 L144 1035 L242 944 L339 1036 L414 977 L242 822 L69 977 Z M184 0 L184 646 L11 646 L11 754 L471 754 L471 646 L298 646 L298 0 L184 0 Z " />
<glyph glyph-name="uni0162" unicode="&#x162;" horiz-adv-x="483" d="M184 0 L184 646 L11 646 L11 754 L471 754 L471 646 L298 646 L298 0 L184 0 Z M199 -271 L131 -244 L205 -60 L290 -93 L199 -271 Z " />
<glyph glyph-name="U" unicode="U" horiz-adv-x="738" d="M205 299 Q205 249 210 221 Q215 193 228 169 Q248 134 286.5 113.5 Q325 93 370 93 Q414 93 452 113.5 Q490 134 510 169 Q523 193 528 221 Q533 249 533 299 L533 754 L647 754 L647 269 Q647 215 633 172 Q619 129 590 92 Q551 42 492 13.5 Q433 -15 370 -15 Q305 -15 246.5 13.5 Q188 42 148 92 Q118 129 104 171.5 Q90 214 90 269 L90 754 L205 754 L205 299 Z " />
<glyph glyph-name="Uacute" unicode="&#xda;" horiz-adv-x="738" d="M288 867 L444 1024 L541 956 L342 822 L288 867 Z M205 299 Q205 249 210 221 Q215 193 228 169 Q248 134 286.5 113.5 Q325 93 370 93 Q414 93 452 113.5 Q490 134 510 169 Q523 193 528 221 Q533 249 533 299 L533 754 L647 754 L647 269 Q647 215 633 172 Q619 129 590 92 Q551 42 492 13.5 Q433 -15 370 -15 Q305 -15 246.5 13.5 Q188 42 148 92 Q118 129 104 171.5 Q90 214 90 269 L90 754 L205 754 L205 299 Z " />
<glyph glyph-name="Ubreve" unicode="&#x16c;" horiz-adv-x="738" d="M285 989 Q291 950 312 931 Q333 912 370 912 Q407 912 427.5 931 Q448 950 454 989 L545 989 Q541 953 533.5 932 Q526 911 510 889 Q485 858 448.5 841.5 Q412 825 367 825 Q279 825 228 889 Q211 912 204 933 Q197 954 194 989 L285 989 Z M205 299 Q205 249 210 221 Q215 193 228 169 Q248 134 286.5 113.5 Q325 93 370 93 Q414 93 452 113.5 Q490 134 510 169 Q523 193 528 221 Q533 249 533 299 L533 754 L647 754 L647 269 Q647 215 633 172 Q619 129 590 92 Q551 42 492 13.5 Q433 -15 370 -15 Q305 -15 246.5 13.5 Q188 42 148 92 Q118 129 104 171.5 Q90 214 90 269 L90 754 L205 754 L205 299 Z " />
<glyph glyph-name="Ucircumflex" unicode="&#xdb;" horiz-adv-x="738" d="M541 879 L467 822 L368 913 L271 822 L197 879 L368 1036 L541 879 Z M205 299 Q205 249 210 221 Q215 193 228 169 Q248 134 286.5 113.5 Q325 93 370 93 Q414 93 452 113.5 Q490 134 510 169 Q523 193 528 221 Q533 249 533 299 L533 754 L647 754 L647 269 Q647 215 633 172 Q619 129 590 92 Q551 42 492 13.5 Q433 -15 370 -15 Q305 -15 246.5 13.5 Q188 42 148 92 Q118 129 104 171.5 Q90 214 90 269 L90 754 L205 754 L205 299 Z " />
<glyph glyph-name="Udieresis" unicode="&#xdc;" horiz-adv-x="738" d="M260 968 Q289 968 309 947.5 Q329 927 329 898 Q329 870 308.5 849 Q288 828 260 828 Q230 828 210 848.5 Q190 869 190 899 Q190 928 210.5 948 Q231 968 260 968 Z M479 968 Q508 968 528 947.5 Q548 927 548 898 Q548 870 527.5 849 Q507 828 479 828 Q450 828 429.5 849 Q409 870 409 899 Q409 927 429.5 947.5 Q450 968 479 968 Z M205 299 Q205 249 210 221 Q215 193 228 169 Q248 134 286.5 113.5 Q325 93 370 93 Q414 93 452 113.5 Q490 134 510 169 Q523 193 528 221 Q533 249 533 299 L533 754 L647 754 L647 269 Q647 215 633 172 Q619 129 590 92 Q551 42 492 13.5 Q433 -15 370 -15 Q305 -15 246.5 13.5 Q188 42 148 92 Q118 129 104 171.5 Q90 214 90 269 L90 754 L205 754 L205 299 Z " />
<glyph glyph-name="Ugrave" unicode="&#xd9;" horiz-adv-x="738" d="M458 867 L403 822 L205 956 L302 1024 L458 867 Z M205 299 Q205 249 210 221 Q215 193 228 169 Q248 134 286.5 113.5 Q325 93 370 93 Q414 93 452 113.5 Q490 134 510 169 Q523 193 528 221 Q533 249 533 299 L533 754 L647 754 L647 269 Q647 215 633 172 Q619 129 590 92 Q551 42 492 13.5 Q433 -15 370 -15 Q305 -15 246.5 13.5 Q188 42 148 92 Q118 129 104 171.5 Q90 214 90 269 L90 754 L205 754 L205 299 Z " />
<glyph glyph-name="Uhorn" unicode="&#x1af;" horiz-adv-x="738" d="M740 599 L672 626 L746 810 L832 777 L740 599 Z M205 299 Q205 249 210 221 Q215 193 228 169 Q248 134 286.5 113.5 Q325 93 370 93 Q414 93 452 113.5 Q490 134 510 169 Q523 193 528 221 Q533 249 533 299 L533 754 L647 754 L647 269 Q647 215 633 172 Q619 129 590 92 Q551 42 492 13.5 Q433 -15 370 -15 Q305 -15 246.5 13.5 Q188 42 148 92 Q118 129 104 171.5 Q90 214 90 269 L90 754 L205 754 L205 299 Z " />
<glyph glyph-name="Uhungarumlaut" unicode="&#x170;" horiz-adv-x="738" d="M210 867 L336 1024 L431 956 L258 822 L210 867 Z M443 867 L570 1024 L664 956 L492 822 L443 867 Z M205 299 Q205 249 210 221 Q215 193 228 169 Q248 134 286.5 113.5 Q325 93 370 93 Q414 93 452 113.5 Q490 134 510 169 Q523 193 528 221 Q533 249 533 299 L533 754 L647 754 L647 269 Q647 215 633 172 Q619 129 590 92 Q551 42 492 13.5 Q433 -15 370 -15 Q305 -15 246.5 13.5 Q188 42 148 92 Q118 129 104 171.5 Q90 214 90 269 L90 754 L205 754 L205 299 Z " />
<glyph glyph-name="Umacron" unicode="&#x16a;" horiz-adv-x="738" d="M571 844 L168 844 L168 932 L571 932 L571 844 Z M205 299 Q205 249 210 221 Q215 193 228 169 Q248 134 286.5 113.5 Q325 93 370 93 Q414 93 452 113.5 Q490 134 510 169 Q523 193 528 221 Q533 249 533 299 L533 754 L647 754 L647 269 Q647 215 633 172 Q619 129 590 92 Q551 42 492 13.5 Q433 -15 370 -15 Q305 -15 246.5 13.5 Q188 42 148 92 Q118 129 104 171.5 Q90 214 90 269 L90 754 L205 754 L205 299 Z " />
<glyph glyph-name="Uogonek" unicode="&#x172;" horiz-adv-x="738" d="M205 299 Q205 249 210 221 Q215 193 228 169 Q248 134 286.5 113.5 Q325 93 370 93 Q414 93 452 113.5 Q490 134 510 169 Q523 193 528 221 Q533 249 533 299 L533 754 L647 754 L647 269 Q647 187 615 127 Q583 67 516 21 Q482 -3 467 -26.5 Q452 -50 452 -77 Q452 -97 462.5 -107.5 Q473 -118 492 -118 Q506 -118 523.5 -111.5 Q541 -105 568 -90 L553 -182 Q534 -195 514.5 -200 Q495 -205 469 -205 Q418 -205 385.5 -177.5 Q353 -150 353 -106 Q353 -84 363.5 -62.5 Q374 -41 399 -14 Q389 -15 375 -15 Q307 -15 248 13 Q189 41 148 92 Q118 129 104 171.5 Q90 214 90 269 L90 754 L205 754 L205 299 Z " />
<glyph glyph-name="Uring" unicode="&#x16e;" horiz-adv-x="738" d="M370 1034 Q414 1034 445 1003 Q476 972 476 928 Q476 884 445 853 Q414 822 370 822 Q326 822 294.5 853 Q263 884 263 929 Q263 972 294.5 1003 Q326 1034 370 1034 Z M370 975 Q350 975 335.5 961.5 Q321 948 321 929 Q321 909 335 894.5 Q349 880 370 880 Q390 880 404 894 Q418 908 418 928 Q418 948 404 961.5 Q390 975 370 975 Z M205 299 Q205 249 210 221 Q215 193 228 169 Q248 134 286.5 113.5 Q325 93 370 93 Q414 93 452 113.5 Q490 134 510 169 Q523 193 528 221 Q533 249 533 299 L533 754 L647 754 L647 269 Q647 215 633 172 Q619 129 590 92 Q551 42 492 13.5 Q433 -15 370 -15 Q305 -15 246.5 13.5 Q188 42 148 92 Q118 129 104 171.5 Q90 214 90 269 L90 754 L205 754 L205 299 Z " />
<glyph glyph-name="Utilde" unicode="&#x168;" horiz-adv-x="738" d="M185 906 Q201 928 211 939 Q227 955 249 964.5 Q271 974 294 974 Q333 974 382 948 Q411 934 423.5 928.5 Q436 923 446 923 Q462 923 475.5 934.5 Q489 946 507 975 L570 923 Q546 875 515 852 Q484 829 443 829 Q423 829 406.5 834.5 Q390 840 354 857 Q304 879 287 879 Q272 879 259.5 867.5 Q247 856 233 828 L168 883 L185 906 Z M205 299 Q205 249 210 221 Q215 193 228 169 Q248 134 286.5 113.5 Q325 93 370 93 Q414 93 452 113.5 Q490 134 510 169 Q523 193 528 221 Q533 249 533 299 L533 754 L647 754 L647 269 Q647 215 633 172 Q619 129 590 92 Q551 42 492 13.5 Q433 -15 370 -15 Q305 -15 246.5 13.5 Q188 42 148 92 Q118 129 104 171.5 Q90 214 90 269 L90 754 L205 754 L205 299 Z " />
<glyph glyph-name="V" unicode="V" horiz-adv-x="676" d="M547 754 L671 754 L333 -56 L3 754 L128 754 L336 232 L547 754 Z " />
<glyph glyph-name="W" unicode="W" horiz-adv-x="1060" d="M528 790 L724 250 L932 754 L1055 754 L719 -49 L525 486 L323 -49 L3 754 L127 754 L323 250 L528 790 Z " />
<glyph glyph-name="Wacute" unicode="&#x1e82;" horiz-adv-x="1060" d="M441 867 L597 1024 L694 956 L495 822 L441 867 Z M528 790 L724 250 L932 754 L1055 754 L719 -49 L525 486 L323 -49 L3 754 L127 754 L323 250 L528 790 Z " />
<glyph glyph-name="Wcircumflex" unicode="&#x174;" horiz-adv-x="1060" d="M702 879 L627 822 L529 913 L432 822 L357 879 L529 1036 L702 879 Z M528 790 L724 250 L932 754 L1055 754 L719 -49 L525 486 L323 -49 L3 754 L127 754 L323 250 L528 790 Z " />
<glyph glyph-name="Wdieresis" unicode="&#x1e84;" horiz-adv-x="1060" d="M420 968 Q449 968 469 947.5 Q489 927 489 898 Q489 869 468.5 848.5 Q448 828 420 828 Q391 828 370.5 849 Q350 870 350 899 Q350 927 370.5 947.5 Q391 968 420 968 Z M640 968 Q669 968 689 947.5 Q709 927 709 898 Q709 870 688.5 849 Q668 828 640 828 Q610 828 590 848.5 Q570 869 570 899 Q570 928 590.5 948 Q611 968 640 968 Z M528 790 L724 250 L932 754 L1055 754 L719 -49 L525 486 L323 -49 L3 754 L127 754 L323 250 L528 790 Z " />
<glyph glyph-name="Wgrave" unicode="&#x1e80;" horiz-adv-x="1060" d="M611 867 L557 822 L358 956 L454 1024 L611 867 Z M528 790 L724 250 L932 754 L1055 754 L719 -49 L525 486 L323 -49 L3 754 L127 754 L323 250 L528 790 Z " />
<glyph glyph-name="X" unicode="X" horiz-adv-x="617" d="M169 754 L314 498 L464 754 L596 754 L379 393 L606 0 L479 0 L312 288 L140 0 L11 0 L249 394 L41 754 L169 754 Z " />
<glyph glyph-name="Y" unicode="Y" horiz-adv-x="600" d="M128 754 L299 452 L473 754 L603 754 L357 325 L357 0 L243 0 L243 325 L-3 754 L128 754 Z " />
<glyph glyph-name="Yacute" unicode="&#xdd;" horiz-adv-x="600" d="M245 867 L401 1024 L498 956 L299 822 L245 867 Z M128 754 L299 452 L473 754 L603 754 L357 325 L357 0 L243 0 L243 325 L-3 754 L128 754 Z " />
<glyph glyph-name="Ycircumflex" unicode="&#x176;" horiz-adv-x="600" d="M472 879 L398 822 L299 913 L202 822 L128 879 L299 1036 L472 879 Z M128 754 L299 452 L473 754 L603 754 L357 325 L357 0 L243 0 L243 325 L-3 754 L128 754 Z " />
<glyph glyph-name="Ydieresis" unicode="&#x178;" horiz-adv-x="600" d="M191 968 Q220 968 240 947.5 Q260 927 260 898 Q260 870 239.5 849 Q219 828 191 828 Q161 828 141 848.5 Q121 869 121 899 Q121 927 141.5 947.5 Q162 968 191 968 Z M410 968 Q439 968 459 947.5 Q479 927 479 898 Q479 870 458.5 849 Q438 828 410 828 Q381 828 360.5 849 Q340 870 340 899 Q340 927 360.5 947.5 Q381 968 410 968 Z M128 754 L299 452 L473 754 L603 754 L357 325 L357 0 L243 0 L243 325 L-3 754 L128 754 Z " />
<glyph glyph-name="Ygrave" unicode="&#x1ef2;" horiz-adv-x="600" d="M382 867 L328 822 L129 956 L225 1024 L382 867 Z M128 754 L299 452 L473 754 L603 754 L357 325 L357 0 L243 0 L243 325 L-3 754 L128 754 Z " />
<glyph glyph-name="Z" unicode="Z" horiz-adv-x="625" d="M582 0 L34 0 L403 646 L94 646 L94 754 L590 754 L220 107 L582 107 L582 0 Z " />
<glyph glyph-name="Zacute" unicode="&#x179;" horiz-adv-x="625" d="M253 867 L410 1024 L506 956 L307 822 L253 867 Z M582 0 L34 0 L403 646 L94 646 L94 754 L590 754 L220 107 L582 107 L582 0 Z " />
<glyph glyph-name="Zcaron" unicode="&#x17d;" horiz-adv-x="625" d="M163 977 L237 1035 L336 944 L433 1036 L507 977 L336 822 L163 977 Z M582 0 L34 0 L403 646 L94 646 L94 754 L590 754 L220 107 L582 107 L582 0 Z " />
<glyph glyph-name="Zdotaccent" unicode="&#x17b;" horiz-adv-x="625" d="M331 975 Q362 975 383.5 953.5 Q405 932 405 902 Q405 871 383.5 849.5 Q362 828 331 828 Q300 828 279 849.5 Q258 871 258 903 Q258 932 280 953.5 Q302 975 331 975 Z M582 0 L34 0 L403 646 L94 646 L94 754 L590 754 L220 107 L582 107 L582 0 Z " />
<glyph glyph-name="uni01C4" unicode="&#x1c4;" horiz-adv-x="1244" d="M812 977 L887 1035 L985 944 L1083 1036 L1157 977 L985 822 L812 977 Z M263 754 Q360 754 423.5 737 Q487 720 542 680 Q613 628 650.5 550 Q688 472 688 377 Q688 281 649.5 203.5 Q611 126 537 72 Q480 31 421 15.5 Q362 0 261 0 L105 0 L105 754 L263 754 Z M1234 0 L686 0 L1055 646 L746 646 L746 754 L1242 754 L872 107 L1234 107 L1234 0 Z M270 107 Q339 107 385 120 Q431 133 471 162 Q520 198 547 254 Q574 310 574 376 Q574 443 547 500.5 Q520 558 471 593 Q434 621 386.5 633.5 Q339 646 270 646 L219 646 L219 107 L270 107 Z " />
<glyph glyph-name="uni01C5" unicode="&#x1c5;" horiz-adv-x="1208" d="M818 705 L894 763 L992 671 L1089 764 L1163 705 L992 549 L818 705 Z M249 754 Q346 754 409 737 Q472 720 528 680 Q598 628 635.5 550 Q673 472 673 377 Q673 281 634.5 203.5 Q596 126 522 72 Q465 31 406 15.5 Q347 0 246 0 L90 0 L90 754 L249 754 Z M255 107 Q323 107 369.5 120 Q416 133 457 162 Q506 198 532.5 254 Q559 310 559 376 Q559 443 532 500.5 Q505 558 457 593 Q420 621 372.5 633.5 Q325 646 255 646 L205 646 L205 107 L255 107 Z M1175 0 L675 0 L983 373 L740 373 L740 476 L1200 476 L893 103 L1175 103 L1175 0 Z " />
<glyph glyph-name="uni01C7" unicode="&#x1c7;" horiz-adv-x="832" d="M426 107 L426 0 L90 0 L90 754 L205 754 L205 107 L426 107 Z M815 266 Q815 183 803 135 Q791 87 762 53 Q703 -15 609 -15 Q570 -15 540 -6.5 Q510 2 476 24 L532 121 Q555 106 572.5 99.5 Q590 93 609 93 Q638 93 659 108 Q680 123 689 149 Q694 164 697.5 196.5 Q701 229 701 266 L701 754 L815 754 L815 266 Z " />
<glyph glyph-name="uni01C8" unicode="&#x1c8;" horiz-adv-x="697" d="M426 107 L426 0 L90 0 L90 754 L205 754 L205 107 L426 107 Z M573 601 Q543 601 522 622.5 Q501 644 501 673 Q501 702 522 723.5 Q543 745 572 745 Q603 745 624 724 Q645 703 645 673 Q645 644 624 622.5 Q603 601 573 601 Z M480 -266 Q442 -266 414 -253 L414 -150 Q436 -166 462 -166 Q491 -166 504.5 -148 Q518 -130 518 -85 L518 476 L628 476 L628 -112 Q628 -156 618 -184.5 Q608 -213 586 -233 Q549 -266 480 -266 Z " />
<glyph glyph-name="uni01CA" unicode="&#x1ca;" horiz-adv-x="1253" d="M640 231 L640 754 L754 754 L754 -46 L205 528 L205 0 L90 0 L90 805 L640 231 Z M1163 266 Q1163 183 1151 135 Q1139 87 1110 53 Q1051 -15 957 -15 Q918 -15 888 -6.5 Q858 2 824 24 L880 121 Q903 106 920.5 99.5 Q938 93 957 93 Q986 93 1007 108 Q1028 123 1037 149 Q1042 164 1045.5 196.5 Q1049 229 1049 266 L1049 754 L1163 754 L1163 266 Z " />
<glyph glyph-name="uni01CB" unicode="&#x1cb;" horiz-adv-x="1105" d="M640 231 L640 754 L754 754 L754 -46 L205 528 L205 0 L90 0 L90 805 L640 231 Z M981 601 Q951 601 930 622.5 Q909 644 909 673 Q909 702 930 723.5 Q951 745 980 745 Q1011 745 1032 724 Q1053 703 1053 673 Q1053 644 1032 622.5 Q1011 601 981 601 Z M888 -266 Q850 -266 822 -253 L822 -150 Q844 -166 870 -166 Q899 -166 912.5 -148 Q926 -130 926 -85 L926 476 L1036 476 L1036 -112 Q1036 -156 1026 -184.5 Q1016 -213 994 -233 Q957 -266 888 -266 Z " />
<glyph glyph-name="uni01CD" unicode="&#x1cd;" horiz-adv-x="740" d="M205 977 L280 1035 L379 944 L476 1036 L549 977 L379 822 L205 977 Z M125 0 L3 0 L376 801 L736 0 L611 0 L532 183 L210 183 L125 0 Z M258 290 L486 290 L374 546 L258 290 Z " />
<glyph glyph-name="uni01CF" unicode="&#x1cf;" horiz-adv-x="295" d="M-25 972 L51 1029 L148 938 L245 1031 L320 972 L149 816 L-25 972 Z M90 0 L90 754 L205 754 L205 0 L90 0 Z " />
<glyph glyph-name="uni01D1" unicode="&#x1d1;" horiz-adv-x="893" d="M275 977 L349 1035 L447 944 L545 1036 L619 977 L447 822 L275 977 Z M449 768 Q555 768 645 715 Q735 662 788 572 Q841 482 841 376 Q841 269 787.5 179.5 Q734 90 642.5 37.5 Q551 -15 443 -15 Q361 -15 282.5 21 Q204 57 148 119 Q53 225 53 380 Q53 484 107 573.5 Q161 663 252 715.5 Q343 768 449 768 Z M447 661 Q371 661 306.5 623.5 Q242 586 204.5 521.5 Q167 457 167 379 Q167 253 251 173 Q291 135 341.5 114 Q392 93 444 93 Q522 93 587 130.5 Q652 168 689.5 233 Q727 298 727 376 Q727 455 690 520.5 Q653 586 589 623.5 Q525 661 447 661 Z " />
<glyph glyph-name="uni01D3" unicode="&#x1d3;" horiz-adv-x="738" d="M197 977 L272 1035 L371 944 L468 1036 L541 977 L371 822 L197 977 Z M205 299 Q205 249 210 221 Q215 193 228 169 Q248 134 286.5 113.5 Q325 93 370 93 Q414 93 452 113.5 Q490 134 510 169 Q523 193 528 221 Q533 249 533 299 L533 754 L647 754 L647 269 Q647 215 633 172 Q619 129 590 92 Q551 42 492 13.5 Q433 -15 370 -15 Q305 -15 246.5 13.5 Q188 42 148 92 Q118 129 104 171.5 Q90 214 90 269 L90 754 L205 754 L205 299 Z " />
<glyph glyph-name="uni01F4" unicode="&#x1f4;" horiz-adv-x="842" d="M355 867 L512 1024 L608 956 L409 822 L355 867 Z M790 357 Q790 284 774 229.5 Q758 175 723 128 Q674 61 598 23 Q522 -15 437 -15 Q333 -15 245 37.5 Q157 90 105 179.5 Q53 269 53 375 Q53 483 105.5 573 Q158 663 248 715.5 Q338 768 446 768 Q508 768 566 749 Q624 730 672 695 Q693 680 711 663 Q729 646 756 615 L675 537 Q626 601 571.5 631 Q517 661 449 661 Q370 661 305.5 623.5 Q241 586 204 520.5 Q167 455 167 375 Q167 248 258 168 Q298 132 345.5 112.5 Q393 93 441 93 Q497 93 546.5 119 Q596 145 628.5 189 Q661 233 666 285 L478 285 L478 392 L790 392 L790 357 Z " />
<glyph glyph-name="uni0200" unicode="&#x200;" horiz-adv-x="740" d="M323 867 L276 822 L103 956 L198 1024 L323 867 Z M557 867 L510 822 L337 956 L432 1024 L557 867 Z M125 0 L3 0 L376 801 L736 0 L611 0 L532 183 L210 183 L125 0 Z M258 290 L486 290 L374 546 L258 290 Z " />
<glyph glyph-name="uni021A" unicode="&#x21a;" horiz-adv-x="483" d="M184 0 L184 646 L11 646 L11 754 L471 754 L471 646 L298 646 L298 0 L184 0 Z M199 -271 L131 -244 L205 -60 L290 -93 L199 -271 Z " />
<glyph glyph-name="uni0226" unicode="&#x226;" horiz-adv-x="740" d="M373 975 Q404 975 425 953.5 Q446 932 446 902 Q446 871 425 849.5 Q404 828 373 828 Q342 828 320.5 850 Q299 872 299 903 Q299 932 321 953.5 Q343 975 373 975 Z M125 0 L3 0 L376 801 L736 0 L611 0 L532 183 L210 183 L125 0 Z M258 290 L486 290 L374 546 L258 290 Z " />
<glyph glyph-name="uni1E1E" unicode="&#x1e1e;" horiz-adv-x="507" d="M278 975 Q309 975 330 953.5 Q351 932 351 902 Q351 871 330 849.5 Q309 828 278 828 Q247 828 226 849.5 Q205 871 205 903 Q205 932 226.5 953.5 Q248 975 278 975 Z M205 466 L458 466 L458 358 L205 358 L205 0 L90 0 L90 754 L467 754 L467 646 L205 646 L205 466 Z " />
<glyph glyph-name="uni1EA0" unicode="&#x1ea0;" horiz-adv-x="740" d="M125 0 L3 0 L376 801 L736 0 L611 0 L532 183 L210 183 L125 0 Z M258 290 L486 290 L374 546 L258 290 Z M368 -43 Q397 -43 416.5 -63 Q436 -83 436 -111 Q436 -140 416 -160 Q396 -180 368 -180 Q340 -180 320.5 -160 Q301 -140 301 -111 Q301 -83 320.5 -63 Q340 -43 368 -43 Z " />
<glyph glyph-name="uni1EA2" unicode="&#x1ea2;" horiz-adv-x="740" d="M345 925 L353 928 Q380 932 386 932 Q420 937 431 944.5 Q442 952 442 968 Q442 987 428.5 997.5 Q415 1008 390 1008 Q375 1008 369.5 1006.5 Q364 1005 348 996 L334 990 L331 988 L324 984 L304 1035 L311 1038 L314 1040 Q368 1060 412 1060 Q463 1060 495.5 1033 Q528 1006 528 965 Q528 928 502.5 907 Q477 886 431 886 L405 886 L405 843 L345 843 L345 925 Z M125 0 L3 0 L376 801 L736 0 L611 0 L532 183 L210 183 L125 0 Z M258 290 L486 290 L374 546 L258 290 Z " />
<glyph glyph-name="uni1EA4" unicode="&#x1ea4;" horiz-adv-x="740" d="M698 1032 L516 909 L549 879 L475 822 L376 913 L279 822 L205 879 L376 1036 L461 958 L602 1099 L698 1032 Z M125 0 L3 0 L376 801 L736 0 L611 0 L532 183 L210 183 L125 0 Z M258 290 L486 290 L374 546 L258 290 Z " />
<glyph glyph-name="uni1EA6" unicode="&#x1ea6;" horiz-adv-x="740" d="M626 972 L572 927 L373 1061 L470 1129 L626 972 Z M542 879 L467 822 L368 913 L271 822 L198 879 L368 1036 L542 879 Z M125 0 L3 0 L376 801 L736 0 L611 0 L532 183 L210 183 L125 0 Z M258 290 L486 290 L374 546 L258 290 Z " />
<glyph glyph-name="uni1EA8" unicode="&#x1ea8;" horiz-adv-x="740" d="M480 1002 L514 1008 Q547 1012 558.5 1019.5 Q570 1027 570 1043 Q570 1062 556 1072.5 Q542 1083 518 1083 Q502 1083 497 1081.5 Q492 1080 476 1071 Q473 1070 466.5 1066.5 Q460 1063 452 1060 L432 1111 L438 1113 L442 1114 Q493 1135 540 1135 Q591 1135 623 1108 Q655 1081 655 1040 Q655 1002 629.5 981 Q604 960 558 960 Q545 960 532 962 L532 918 L507 918 L550 879 L475 822 L376 913 L279 822 L206 879 L376 1036 L472 949 L472 1001 L480 1002 Z M125 0 L3 0 L376 801 L736 0 L611 0 L532 183 L210 183 L125 0 Z M258 290 L486 290 L374 546 L258 290 Z " />
<glyph glyph-name="uni1EAA" unicode="&#x1eaa;" horiz-adv-x="740" d="M169 1098 Q199 1141 211 1155 Q227 1171 249 1180.5 Q271 1190 294 1190 Q333 1190 382 1164 Q419 1146 428 1142.5 Q437 1139 447 1139 Q464 1139 477 1150 Q490 1161 507 1191 L570 1139 Q546 1091 515 1068 Q484 1045 443 1045 Q424 1045 406.5 1050 Q389 1055 354 1072 Q305 1095 287 1095 Q273 1095 260.5 1083.5 Q248 1072 233 1044 L169 1098 Z M549 879 L475 822 L376 913 L279 822 L205 879 L376 1036 L549 879 Z M125 0 L3 0 L376 801 L736 0 L611 0 L532 183 L210 183 L125 0 Z M258 290 L486 290 L374 546 L258 290 Z " />
<glyph glyph-name="uni1EAC" unicode="&#x1eac;" horiz-adv-x="740" d="M549 879 L475 822 L376 913 L279 822 L205 879 L376 1036 L549 879 Z M125 0 L3 0 L376 801 L736 0 L611 0 L532 183 L210 183 L125 0 Z M258 290 L486 290 L374 546 L258 290 Z M368 -43 Q397 -43 416.5 -63 Q436 -83 436 -111 Q436 -140 416 -160 Q396 -180 368 -180 Q340 -180 320.5 -160 Q301 -140 301 -111 Q301 -83 320.5 -63 Q340 -43 368 -43 Z " />
<glyph glyph-name="uni1EAE" unicode="&#x1eae;" horiz-adv-x="740" d="M319 994 L475 1151 L571 1084 L373 949 L319 994 Z M285 989 Q291 950 312 931 Q333 912 370 912 Q444 912 454 989 L545 989 Q541 953 534 932 Q527 911 511 889 Q486 858 449 841.5 Q412 825 367 825 Q278 825 229 889 Q213 911 205.5 932.5 Q198 954 194 989 L285 989 Z M125 0 L3 0 L376 801 L736 0 L611 0 L532 183 L210 183 L125 0 Z M258 290 L486 290 L374 546 L258 290 Z " />
<glyph glyph-name="uni1EB0" unicode="&#x1eb0;" horiz-adv-x="740" d="M420 998 L366 953 L167 1087 L264 1155 L420 998 Z M285 989 Q291 950 312 931 Q333 912 370 912 Q444 912 454 989 L545 989 Q541 953 534 932 Q527 911 511 889 Q486 858 449 841.5 Q412 825 367 825 Q278 825 229 889 Q213 911 205.5 932.5 Q198 954 194 989 L285 989 Z M125 0 L3 0 L376 801 L736 0 L611 0 L532 183 L210 183 L125 0 Z M258 290 L486 290 L374 546 L258 290 Z " />
<glyph glyph-name="uni1EB2" unicode="&#x1eb2;" horiz-adv-x="740" d="M340 1052 L348 1054 Q375 1059 382 1059 Q416 1064 426.5 1071 Q437 1078 437 1095 Q437 1114 423.5 1124.5 Q410 1135 385 1135 Q370 1135 365 1133.5 Q360 1132 344 1122 L330 1116 L327 1114 L320 1111 L299 1162 L306 1165 L310 1166 Q363 1187 408 1187 Q459 1187 491 1160 Q523 1133 523 1092 Q523 1054 497.5 1033 Q472 1012 426 1012 L400 1012 L400 970 L340 970 L340 1052 Z M285 989 Q291 950 312 931 Q333 912 370 912 Q444 912 454 989 L545 989 Q541 953 534 932 Q527 911 511 889 Q486 858 449 841.5 Q412 825 367 825 Q278 825 229 889 Q213 911 205.5 932.5 Q198 954 194 989 L285 989 Z M125 0 L3 0 L376 801 L736 0 L611 0 L532 183 L210 183 L125 0 Z M258 290 L486 290 L374 546 L258 290 Z " />
<glyph glyph-name="uni1EB4" unicode="&#x1eb4;" horiz-adv-x="740" d="M183 1085 Q200 1109 211 1122 Q227 1138 249 1147.5 Q271 1157 294 1157 Q333 1157 382 1131 Q419 1113 428 1109.5 Q437 1106 447 1106 Q464 1106 477 1117.5 Q490 1129 507 1158 L570 1106 Q546 1058 515 1035 Q484 1012 443 1012 Q423 1012 406 1017.5 Q389 1023 354 1040 Q304 1062 287 1062 Q273 1062 260.5 1050.5 Q248 1039 233 1011 L169 1066 L183 1085 Z M285 989 Q291 950 312 931 Q333 912 370 912 Q444 912 454 989 L545 989 Q541 953 534 932 Q527 911 511 889 Q486 858 449 841.5 Q412 825 367 825 Q278 825 229 889 Q213 911 205.5 932.5 Q198 954 194 989 L285 989 Z M125 0 L3 0 L376 801 L736 0 L611 0 L532 183 L210 183 L125 0 Z M258 290 L486 290 L374 546 L258 290 Z " />
<glyph glyph-name="uni1EB6" unicode="&#x1eb6;" horiz-adv-x="740" d="M285 989 Q291 950 312 931 Q333 912 370 912 Q444 912 454 989 L545 989 Q541 953 534 932 Q527 911 511 889 Q486 858 449 841.5 Q412 825 367 825 Q278 825 229 889 Q213 911 205.5 932.5 Q198 954 194 989 L285 989 Z M125 0 L3 0 L376 801 L736 0 L611 0 L532 183 L210 183 L125 0 Z M258 290 L486 290 L374 546 L258 290 Z M368 -43 Q397 -43 416.5 -63 Q436 -83 436 -111 Q436 -140 416 -160 Q396 -180 368 -180 Q340 -180 320.5 -160 Q301 -140 301 -111 Q301 -83 320.5 -63 Q340 -43 368 -43 Z " />
<glyph glyph-name="uni1EB8" unicode="&#x1eb8;" horiz-adv-x="565" d="M205 466 L497 466 L497 358 L205 358 L205 107 L506 107 L506 0 L90 0 L90 754 L506 754 L506 646 L205 646 L205 466 Z M281 -43 Q310 -43 329.5 -63 Q349 -83 349 -111 Q349 -140 329 -160 Q309 -180 281 -180 Q253 -180 233.5 -160 Q214 -140 214 -111 Q214 -83 233.5 -63 Q253 -43 281 -43 Z " />
<glyph glyph-name="uni1EBA" unicode="&#x1eba;" horiz-adv-x="565" d="M262 925 L270 928 Q297 932 304 932 Q337 937 348 944.5 Q359 952 359 968 Q359 987 345.5 997.5 Q332 1008 307 1008 Q292 1008 287 1006.5 Q282 1005 266 996 L252 990 L249 988 L242 984 L221 1035 L228 1038 L232 1040 Q286 1060 330 1060 Q381 1060 413 1033 Q445 1006 445 965 Q445 928 419.5 907 Q394 886 348 886 L322 886 L322 843 L262 843 L262 925 Z M205 466 L497 466 L497 358 L205 358 L205 107 L506 107 L506 0 L90 0 L90 754 L506 754 L506 646 L205 646 L205 466 Z " />
<glyph glyph-name="uni1EBC" unicode="&#x1ebc;" horiz-adv-x="565" d="M106 916 Q119 934 124 939 Q140 955 162 964.5 Q184 974 207 974 Q246 974 295 948 Q332 930 341 926.5 Q350 923 360 923 Q376 923 389.5 934.5 Q403 946 421 975 L484 923 Q459 875 428 852 Q397 829 356 829 Q336 829 319 834.5 Q302 840 267 857 Q217 879 201 879 Q186 879 173.5 867.5 Q161 856 146 828 L82 883 L106 916 Z M205 466 L497 466 L497 358 L205 358 L205 107 L506 107 L506 0 L90 0 L90 754 L506 754 L506 646 L205 646 L205 466 Z " />
<glyph glyph-name="uni1EBE" unicode="&#x1ebe;" horiz-adv-x="565" d="M619 1029 L440 907 L471 879 L395 822 L297 913 L200 822 L125 879 L297 1036 L384 957 L522 1097 L619 1029 Z M205 466 L497 466 L497 358 L205 358 L205 107 L506 107 L506 0 L90 0 L90 754 L506 754 L506 646 L205 646 L205 466 Z " />
<glyph glyph-name="uni1EC0" unicode="&#x1ec0;" horiz-adv-x="565" d="M563 972 L508 927 L310 1061 L407 1129 L563 972 Z M479 879 L403 822 L305 913 L208 822 L133 879 L305 1036 L479 879 Z M205 466 L497 466 L497 358 L205 358 L205 107 L506 107 L506 0 L90 0 L90 754 L506 754 L506 646 L205 646 L205 466 Z " />
<glyph glyph-name="uni1EC2" unicode="&#x1ec2;" horiz-adv-x="565" d="M408 996 L442 1001 Q475 1005 486 1012.5 Q497 1020 497 1037 Q497 1056 483.5 1066.5 Q470 1077 445 1077 Q430 1077 425 1075.5 Q420 1074 403 1064 Q386 1057 380 1053 L359 1104 Q366 1106 370 1109 Q427 1129 468 1129 Q519 1129 551 1102 Q583 1075 583 1033 Q583 996 557.5 975 Q532 954 486 954 Q472 954 460 955 L460 912 L435 912 L471 879 L397 822 L298 913 L201 822 L127 879 L298 1036 L400 944 L400 994 L408 996 Z M205 466 L497 466 L497 358 L205 358 L205 107 L506 107 L506 0 L90 0 L90 754 L506 754 L506 646 L205 646 L205 466 Z " />
<glyph glyph-name="uni1EC4" unicode="&#x1ec4;" horiz-adv-x="565" d="M82 1101 Q104 1131 107 1135 Q111 1141 124 1156 Q140 1172 162 1181.5 Q184 1191 207 1191 Q246 1191 295 1165 Q332 1147 341 1143.5 Q350 1140 360 1140 Q376 1140 389.5 1151.5 Q403 1163 421 1192 L484 1140 Q459 1092 428 1069 Q397 1046 356 1046 Q336 1046 319 1051.5 Q302 1057 267 1074 Q217 1096 201 1096 Q186 1096 173.5 1085 Q161 1074 146 1046 L82 1101 Z M471 879 L395 822 L297 913 L200 822 L127 879 L297 1036 L471 879 Z M205 466 L497 466 L497 358 L205 358 L205 107 L506 107 L506 0 L90 0 L90 754 L506 754 L506 646 L205 646 L205 466 Z " />
<glyph glyph-name="uni1EC6" unicode="&#x1ec6;" horiz-adv-x="565" d="M471 879 L395 822 L297 913 L200 822 L125 879 L297 1036 L471 879 Z M205 466 L497 466 L497 358 L205 358 L205 107 L506 107 L506 0 L90 0 L90 754 L506 754 L506 646 L205 646 L205 466 Z M306 -43 Q335 -43 354.5 -63 Q374 -83 374 -111 Q374 -140 354 -160 Q334 -180 306 -180 Q278 -180 258 -159.5 Q238 -139 238 -111 Q238 -83 258 -63 Q278 -43 306 -43 Z " />
<glyph glyph-name="uni1EC8" unicode="&#x1ec8;" horiz-adv-x="295" d="M114 925 L122 928 Q149 932 156 932 Q189 937 200 944.5 Q211 952 211 968 Q211 987 197.5 997.5 Q184 1008 159 1008 Q144 1008 139 1006.5 Q134 1005 118 996 L104 990 L101 988 L94 984 L73 1035 L80 1038 L84 1040 Q138 1060 182 1060 Q233 1060 265 1033 Q297 1006 297 965 Q297 928 271.5 907 Q246 886 200 886 L174 886 L174 843 L114 843 L114 925 Z M90 0 L90 754 L205 754 L205 0 L90 0 Z " />
<glyph glyph-name="uni1ECA" unicode="&#x1eca;" horiz-adv-x="295" d="M92 0 L92 754 L206 754 L206 0 L92 0 Z M147 -43 Q175 -43 195 -63 Q215 -83 215 -111 Q215 -139 195 -159.5 Q175 -180 147 -180 Q119 -180 99 -159.5 Q79 -139 79 -111 Q79 -83 99 -63 Q119 -43 147 -43 Z " />
<glyph glyph-name="uni1ECC" unicode="&#x1ecc;" horiz-adv-x="893" d="M449 768 Q555 768 645 715 Q735 662 788 572 Q841 482 841 376 Q841 269 787.5 179.5 Q734 90 642.5 37.5 Q551 -15 443 -15 Q361 -15 282.5 21 Q204 57 148 119 Q53 225 53 380 Q53 484 107 573.5 Q161 663 252 715.5 Q343 768 449 768 Z M447 661 Q371 661 306.5 623.5 Q242 586 204.5 521.5 Q167 457 167 379 Q167 253 251 173 Q291 135 341.5 114 Q392 93 444 93 Q522 93 587 130.5 Q652 168 689.5 233 Q727 298 727 376 Q727 455 690 520.5 Q653 586 589 623.5 Q525 661 447 661 Z M446 -43 Q475 -43 494.5 -63 Q514 -83 514 -111 Q514 -140 494 -160 Q474 -180 446 -180 Q418 -180 398.5 -160 Q379 -140 379 -111 Q379 -83 398.5 -63 Q418 -43 446 -43 Z " />
<glyph glyph-name="uni1ECE" unicode="&#x1ece;" horiz-adv-x="893" d="M421 925 L429 928 Q457 932 463 932 Q496 937 507.5 944.5 Q519 952 519 968 Q519 987 505 997.5 Q491 1008 467 1008 Q451 1008 446 1006.5 Q441 1005 425 996 L411 990 L408 988 L401 984 L381 1035 L388 1038 L391 1040 Q445 1060 489 1060 Q540 1060 572.5 1033 Q605 1006 605 965 Q605 928 579 907 Q553 886 507 886 L481 886 L481 843 L421 843 L421 925 Z M449 768 Q555 768 645 715 Q735 662 788 572 Q841 482 841 376 Q841 269 787.5 179.5 Q734 90 642.5 37.5 Q551 -15 443 -15 Q361 -15 282.5 21 Q204 57 148 119 Q53 225 53 380 Q53 484 107 573.5 Q161 663 252 715.5 Q343 768 449 768 Z M447 661 Q371 661 306.5 623.5 Q242 586 204.5 521.5 Q167 457 167 379 Q167 253 251 173 Q291 135 341.5 114 Q392 93 444 93 Q522 93 587 130.5 Q652 168 689.5 233 Q727 298 727 376 Q727 455 690 520.5 Q653 586 589 623.5 Q525 661 447 661 Z " />
<glyph glyph-name="uni1ED0" unicode="&#x1ed0;" horiz-adv-x="893" d="M757 1027 L584 911 L619 879 L544 822 L445 913 L349 822 L275 879 L445 1036 L528 962 L660 1095 L757 1027 Z M446 768 Q553 768 644 715.5 Q735 663 788 573 Q841 483 841 376 Q841 270 787.5 180 Q734 90 643.5 37.5 Q553 -15 446 -15 Q340 -15 250 37 Q160 89 106.5 176.5 Q53 264 53 367 Q53 456 82.5 527 Q112 598 173 657 Q227 709 300 738.5 Q373 768 446 768 Z M447 661 Q371 661 306.5 623.5 Q242 586 204.5 521.5 Q167 457 167 379 Q167 253 251 173 Q291 135 341.5 114 Q392 93 444 93 Q522 93 587 130.5 Q652 168 689.5 233 Q727 298 727 376 Q727 455 690 520.5 Q653 586 589 623.5 Q525 661 447 661 Z " />
<glyph glyph-name="uni1ED2" unicode="&#x1ed2;" horiz-adv-x="893" d="M705 958 L651 913 L452 1048 L548 1115 L705 958 Z M620 866 L546 807 L447 899 L350 807 L276 866 L447 1022 L620 866 Z M446 768 Q553 768 644 715.5 Q735 663 788 573 Q841 483 841 376 Q841 270 787.5 180 Q734 90 643.5 37.5 Q553 -15 446 -15 Q340 -15 250 37 Q160 89 106.5 176.5 Q53 264 53 367 Q53 456 82.5 527 Q112 598 173 657 Q227 709 300 738.5 Q373 768 446 768 Z M447 661 Q371 661 306.5 623.5 Q242 586 204.5 521.5 Q167 457 167 379 Q167 253 251 173 Q291 135 341.5 114 Q392 93 444 93 Q522 93 587 130.5 Q652 168 689.5 233 Q727 298 727 376 Q727 455 690 520.5 Q653 586 589 623.5 Q525 661 447 661 Z " />
<glyph glyph-name="uni1ED4" unicode="&#x1ed4;" horiz-adv-x="893" d="M565 985 L599 991 Q632 995 643 1002.5 Q654 1010 654 1026 Q654 1045 640.5 1055.5 Q627 1066 602 1066 Q587 1066 582 1064.5 Q577 1063 560 1054 Q541 1045 537 1043 L516 1094 L523 1096 L527 1097 Q577 1118 625 1118 Q676 1118 708 1091 Q740 1064 740 1023 Q740 986 714.5 965 Q689 944 643 944 Q629 944 617 945 L617 901 L594 901 L619 879 L544 822 L445 913 L348 822 L275 879 L445 1036 L557 936 L557 984 L565 985 Z M446 768 Q553 768 644 715.5 Q735 663 788 573 Q841 483 841 376 Q841 270 787.5 180 Q734 90 643.5 37.5 Q553 -15 446 -15 Q340 -15 250 37 Q160 89 106.5 176.5 Q53 264 53 367 Q53 456 82.5 527 Q112 598 173 657 Q227 709 300 738.5 Q373 768 446 768 Z M447 661 Q371 661 306.5 623.5 Q242 586 204.5 521.5 Q167 457 167 379 Q167 253 251 173 Q291 135 341.5 114 Q392 93 444 93 Q522 93 587 130.5 Q652 168 689.5 233 Q727 298 727 376 Q727 455 690 520.5 Q653 586 589 623.5 Q525 661 447 661 Z " />
<glyph glyph-name="uni1ED6" unicode="&#x1ed6;" horiz-adv-x="893" d="M263 1111 Q280 1134 289 1144 Q303 1160 325.5 1169.5 Q348 1179 371 1179 Q410 1179 459 1153 Q495 1135 504 1131.5 Q513 1128 524 1128 Q540 1128 553 1139 Q566 1150 585 1180 L647 1128 Q623 1079 592 1056.5 Q561 1034 520 1034 Q500 1034 482.5 1039 Q465 1044 431 1061 Q384 1084 365 1084 Q350 1084 337.5 1072.5 Q325 1061 311 1033 L246 1087 L263 1111 Z M619 879 L544 822 L445 913 L349 822 L275 879 L445 1036 L619 879 Z M449 768 Q555 768 645 715 Q735 662 788 572 Q841 482 841 376 Q841 269 787.5 179.5 Q734 90 642.5 37.5 Q551 -15 443 -15 Q361 -15 282.5 21 Q204 57 148 119 Q53 225 53 380 Q53 484 107 573.5 Q161 663 252 715.5 Q343 768 449 768 Z M447 661 Q371 661 306.5 623.5 Q242 586 204.5 521.5 Q167 457 167 379 Q167 253 251 173 Q291 135 341.5 114 Q392 93 444 93 Q522 93 587 130.5 Q652 168 689.5 233 Q727 298 727 376 Q727 455 690 520.5 Q653 586 589 623.5 Q525 661 447 661 Z " />
<glyph glyph-name="uni1ED8" unicode="&#x1ed8;" horiz-adv-x="893" d="M619 879 L544 822 L445 913 L349 822 L275 879 L445 1036 L619 879 Z M449 768 Q555 768 645 715 Q735 662 788 572 Q841 482 841 376 Q841 269 787.5 179.5 Q734 90 642.5 37.5 Q551 -15 443 -15 Q361 -15 282.5 21 Q204 57 148 119 Q53 225 53 380 Q53 484 107 573.5 Q161 663 252 715.5 Q343 768 449 768 Z M447 661 Q371 661 306.5 623.5 Q242 586 204.5 521.5 Q167 457 167 379 Q167 253 251 173 Q291 135 341.5 114 Q392 93 444 93 Q522 93 587 130.5 Q652 168 689.5 233 Q727 298 727 376 Q727 455 690 520.5 Q653 586 589 623.5 Q525 661 447 661 Z M446 -43 Q475 -43 494.5 -63 Q514 -83 514 -111 Q514 -140 494 -160 Q474 -180 446 -180 Q418 -180 398.5 -160 Q379 -140 379 -111 Q379 -83 398.5 -63 Q418 -43 446 -43 Z " />
<glyph glyph-name="uni1EDA" unicode="&#x1eda;" horiz-adv-x="893" d="M358 867 L514 1024 L611 956 L412 822 L358 867 Z M857 771 L768 600 Q807 543 824 490.5 Q841 438 841 376 Q841 270 787.5 180 Q734 90 643.5 37.5 Q553 -15 446 -15 Q338 -15 248 37 Q158 89 105.5 178 Q53 267 53 373 Q53 481 106 571.5 Q159 662 250 715 Q341 768 449 768 Q523 768 592.5 740.5 Q662 713 715 662 L771 803 L857 771 Z M447 661 Q371 661 306.5 623.5 Q242 586 204.5 521.5 Q167 457 167 379 Q167 253 251 173 Q291 135 341.5 114 Q392 93 444 93 Q522 93 587 130.5 Q652 168 689.5 233 Q727 298 727 376 Q727 455 690 520.5 Q653 586 589 623.5 Q525 661 447 661 Z " />
<glyph glyph-name="uni1EDC" unicode="&#x1edc;" horiz-adv-x="893" d="M528 867 L473 822 L276 956 L372 1024 L528 867 Z M857 771 L768 600 Q807 543 824 490.5 Q841 438 841 376 Q841 270 787.5 180 Q734 90 643.5 37.5 Q553 -15 446 -15 Q338 -15 248 37 Q158 89 105.5 178 Q53 267 53 373 Q53 481 106 571.5 Q159 662 250 715 Q341 768 449 768 Q523 768 592.5 740.5 Q662 713 715 662 L771 803 L857 771 Z M447 661 Q371 661 306.5 623.5 Q242 586 204.5 521.5 Q167 457 167 379 Q167 253 251 173 Q291 135 341.5 114 Q392 93 444 93 Q522 93 587 130.5 Q652 168 689.5 233 Q727 298 727 376 Q727 455 690 520.5 Q653 586 589 623.5 Q525 661 447 661 Z " />
<glyph glyph-name="uni1EDE" unicode="&#x1ede;" horiz-adv-x="893" d="M421 925 L429 928 Q457 932 463 932 Q496 937 507.5 944.5 Q519 952 519 968 Q519 987 505 997.5 Q491 1008 467 1008 Q451 1008 446 1006.5 Q441 1005 425 996 L411 990 L408 988 L401 984 L381 1035 L388 1038 L391 1040 Q445 1060 489 1060 Q540 1060 572.5 1033 Q605 1006 605 965 Q605 928 579 907 Q553 886 507 886 L481 886 L481 843 L421 843 L421 925 Z M857 771 L768 600 Q807 543 824 490.5 Q841 438 841 376 Q841 270 787.5 180 Q734 90 643.5 37.5 Q553 -15 446 -15 Q338 -15 248 37 Q158 89 105.5 178 Q53 267 53 373 Q53 481 106 571.5 Q159 662 250 715 Q341 768 449 768 Q523 768 592.5 740.5 Q662 713 715 662 L771 803 L857 771 Z M447 661 Q371 661 306.5 623.5 Q242 586 204.5 521.5 Q167 457 167 379 Q167 253 251 173 Q291 135 341.5 114 Q392 93 444 93 Q522 93 587 130.5 Q652 168 689.5 233 Q727 298 727 376 Q727 455 690 520.5 Q653 586 589 623.5 Q525 661 447 661 Z " />
<glyph glyph-name="uni1EE0" unicode="&#x1ee0;" horiz-adv-x="893" d="M267 912 Q279 929 289 939 Q303 955 325.5 964.5 Q348 974 371 974 Q410 974 459 948 Q496 930 505 926.5 Q514 923 524 923 Q540 923 553 934 Q566 945 585 975 L647 923 Q623 875 592 852 Q561 829 520 829 Q500 829 483 834.5 Q466 840 431 857 Q383 879 365 879 Q350 879 337.5 867.5 Q325 856 311 828 L246 883 L267 912 Z M857 771 L768 600 Q807 543 824 490.5 Q841 438 841 376 Q841 270 787.5 180 Q734 90 643.5 37.5 Q553 -15 446 -15 Q338 -15 248 37 Q158 89 105.5 178 Q53 267 53 373 Q53 481 106 571.5 Q159 662 250 715 Q341 768 449 768 Q523 768 592.5 740.5 Q662 713 715 662 L771 803 L857 771 Z M447 661 Q371 661 306.5 623.5 Q242 586 204.5 521.5 Q167 457 167 379 Q167 253 251 173 Q291 135 341.5 114 Q392 93 444 93 Q522 93 587 130.5 Q652 168 689.5 233 Q727 298 727 376 Q727 455 690 520.5 Q653 586 589 623.5 Q525 661 447 661 Z " />
<glyph glyph-name="uni1EE2" unicode="&#x1ee2;" horiz-adv-x="893" d="M857 771 L768 600 Q807 543 824 490.5 Q841 438 841 376 Q841 270 787.5 180 Q734 90 643.5 37.5 Q553 -15 446 -15 Q338 -15 248 37 Q158 89 105.5 178 Q53 267 53 373 Q53 481 106 571.5 Q159 662 250 715 Q341 768 449 768 Q523 768 592.5 740.5 Q662 713 715 662 L771 803 L857 771 Z M447 661 Q371 661 306.5 623.5 Q242 586 204.5 521.5 Q167 457 167 379 Q167 253 251 173 Q291 135 341.5 114 Q392 93 444 93 Q522 93 587 130.5 Q652 168 689.5 233 Q727 298 727 376 Q727 455 690 520.5 Q653 586 589 623.5 Q525 661 447 661 Z M446 -43 Q475 -43 494.5 -63 Q514 -83 514 -111 Q514 -140 494 -160 Q474 -180 446 -180 Q418 -180 398.5 -160 Q379 -140 379 -111 Q379 -83 398.5 -63 Q418 -43 446 -43 Z " />
<glyph glyph-name="uni1EE4" unicode="&#x1ee4;" horiz-adv-x="738" d="M205 299 Q205 249 210 221 Q215 193 228 169 Q248 134 286.5 113.5 Q325 93 370 93 Q414 93 452 113.5 Q490 134 510 169 Q523 193 528 221 Q533 249 533 299 L533 754 L647 754 L647 269 Q647 215 633 172 Q619 129 590 92 Q551 42 492 13.5 Q433 -15 370 -15 Q305 -15 246.5 13.5 Q188 42 148 92 Q118 129 104 171.5 Q90 214 90 269 L90 754 L205 754 L205 299 Z M368 -43 Q397 -43 416.5 -63 Q436 -83 436 -111 Q436 -140 416 -160 Q396 -180 368 -180 Q340 -180 320.5 -160 Q301 -140 301 -111 Q301 -83 320.5 -63 Q340 -43 368 -43 Z " />
<glyph glyph-name="uni1EE6" unicode="&#x1ee6;" horiz-adv-x="738" d="M334 925 L342 928 Q370 932 376 932 Q409 937 420.5 944.5 Q432 952 432 968 Q432 987 418 997.5 Q404 1008 380 1008 Q364 1008 359 1006.5 Q354 1005 338 996 L324 990 L321 988 L314 984 L294 1035 L301 1038 L304 1040 Q358 1060 402 1060 Q453 1060 485.5 1033 Q518 1006 518 965 Q518 928 492 907 Q466 886 420 886 L394 886 L394 843 L334 843 L334 925 Z M205 299 Q205 249 210 221 Q215 193 228 169 Q248 134 286.5 113.5 Q325 93 370 93 Q414 93 452 113.5 Q490 134 510 169 Q523 193 528 221 Q533 249 533 299 L533 754 L647 754 L647 269 Q647 215 633 172 Q619 129 590 92 Q551 42 492 13.5 Q433 -15 370 -15 Q305 -15 246.5 13.5 Q188 42 148 92 Q118 129 104 171.5 Q90 214 90 269 L90 754 L205 754 L205 299 Z " />
<glyph glyph-name="uni1EE8" unicode="&#x1ee8;" horiz-adv-x="738" d="M280 867 L437 1024 L533 956 L334 822 L280 867 Z M740 599 L672 626 L746 810 L832 777 L740 599 Z M205 299 Q205 249 210 221 Q215 193 228 169 Q248 134 286.5 113.5 Q325 93 370 93 Q414 93 452 113.5 Q490 134 510 169 Q523 193 528 221 Q533 249 533 299 L533 754 L647 754 L647 269 Q647 215 633 172 Q619 129 590 92 Q551 42 492 13.5 Q433 -15 370 -15 Q305 -15 246.5 13.5 Q188 42 148 92 Q118 129 104 171.5 Q90 214 90 269 L90 754 L205 754 L205 299 Z " />
<glyph glyph-name="uni1EEA" unicode="&#x1eea;" horiz-adv-x="738" d="M451 867 L397 822 L198 956 L294 1024 L451 867 Z M740 599 L672 626 L746 810 L832 777 L740 599 Z M205 299 Q205 249 210 221 Q215 193 228 169 Q248 134 286.5 113.5 Q325 93 370 93 Q414 93 452 113.5 Q490 134 510 169 Q523 193 528 221 Q533 249 533 299 L533 754 L647 754 L647 269 Q647 215 633 172 Q619 129 590 92 Q551 42 492 13.5 Q433 -15 370 -15 Q305 -15 246.5 13.5 Q188 42 148 92 Q118 129 104 171.5 Q90 214 90 269 L90 754 L205 754 L205 299 Z " />
<glyph glyph-name="uni1EEC" unicode="&#x1eec;" horiz-adv-x="738" d="M316 925 L324 928 Q351 932 358 932 Q391 937 402.5 944.5 Q414 952 414 968 Q414 987 400 997.5 Q386 1008 362 1008 Q346 1008 341 1006.5 Q336 1005 320 996 L306 990 L303 988 L296 984 L276 1035 L283 1038 L286 1040 Q340 1060 384 1060 Q435 1060 467 1033 Q499 1006 499 965 Q499 928 473.5 907 Q448 886 402 886 L376 886 L376 843 L316 843 L316 925 Z M740 599 L672 626 L746 810 L832 777 L740 599 Z M205 299 Q205 249 210 221 Q215 193 228 169 Q248 134 286.5 113.5 Q325 93 370 93 Q414 93 452 113.5 Q490 134 510 169 Q523 193 528 221 Q533 249 533 299 L533 754 L647 754 L647 269 Q647 215 633 172 Q619 129 590 92 Q551 42 492 13.5 Q433 -15 370 -15 Q305 -15 246.5 13.5 Q188 42 148 92 Q118 129 104 171.5 Q90 214 90 269 L90 754 L205 754 L205 299 Z " />
<glyph glyph-name="uni1EEE" unicode="&#x1eee;" horiz-adv-x="738" d="M185 906 Q201 928 211 939 Q227 955 249 964.5 Q271 974 294 974 Q333 974 382 948 Q411 934 423.5 928.5 Q436 923 446 923 Q462 923 475.5 934.5 Q489 946 507 975 L570 923 Q546 875 515 852 Q484 829 443 829 Q423 829 406.5 834.5 Q390 840 354 857 Q304 879 287 879 Q272 879 259.5 867.5 Q247 856 233 828 L168 883 L185 906 Z M740 599 L672 626 L746 810 L832 777 L740 599 Z M205 299 Q205 249 210 221 Q215 193 228 169 Q248 134 286.5 113.5 Q325 93 370 93 Q414 93 452 113.5 Q490 134 510 169 Q523 193 528 221 Q533 249 533 299 L533 754 L647 754 L647 269 Q647 215 633 172 Q619 129 590 92 Q551 42 492 13.5 Q433 -15 370 -15 Q305 -15 246.5 13.5 Q188 42 148 92 Q118 129 104 171.5 Q90 214 90 269 L90 754 L205 754 L205 299 Z " />
<glyph glyph-name="uni1EF0" unicode="&#x1ef0;" horiz-adv-x="738" d="M740 599 L672 626 L746 810 L832 777 L740 599 Z M205 299 Q205 249 210 221 Q215 193 228 169 Q248 134 286.5 113.5 Q325 93 370 93 Q414 93 452 113.5 Q490 134 510 169 Q523 193 528 221 Q533 249 533 299 L533 754 L647 754 L647 269 Q647 215 633 172 Q619 129 590 92 Q551 42 492 13.5 Q433 -15 370 -15 Q305 -15 246.5 13.5 Q188 42 148 92 Q118 129 104 171.5 Q90 214 90 269 L90 754 L205 754 L205 299 Z M368 -43 Q397 -43 416.5 -63 Q436 -83 436 -111 Q436 -140 416 -160 Q396 -180 368 -180 Q340 -180 320.5 -160 Q301 -140 301 -111 Q301 -83 320.5 -63 Q340 -43 368 -43 Z " />
<glyph glyph-name="uni1EF4" unicode="&#x1ef4;" horiz-adv-x="600" d="M128 754 L299 452 L473 754 L603 754 L357 325 L357 0 L243 0 L243 325 L-3 754 L128 754 Z M299 -43 Q328 -43 347.5 -63 Q367 -83 367 -111 Q367 -140 347 -160 Q327 -180 299 -180 Q271 -180 251.5 -160 Q232 -140 232 -111 Q232 -83 251.5 -63 Q271 -43 299 -43 Z " />
<glyph glyph-name="uni1EF6" unicode="&#x1ef6;" horiz-adv-x="600" d="M247 925 L255 928 Q283 932 289 932 Q322 937 333.5 944.5 Q345 952 345 968 Q345 987 331 997.5 Q317 1008 293 1008 Q277 1008 272 1006.5 Q267 1005 251 996 L237 990 L234 988 L227 984 L207 1035 L214 1038 L217 1040 Q271 1060 315 1060 Q366 1060 398.5 1033 Q431 1006 431 965 Q431 928 405 907 Q379 886 333 886 L307 886 L307 843 L247 843 L247 925 Z M128 754 L299 452 L473 754 L603 754 L357 325 L357 0 L243 0 L243 325 L-3 754 L128 754 Z " />
<glyph glyph-name="uni1EF8" unicode="&#x1ef8;" horiz-adv-x="600" d="M116 906 Q132 928 142 939 Q158 955 180 964.5 Q202 974 225 974 Q264 974 313 948 Q342 934 354.5 928.5 Q367 923 377 923 Q393 923 406.5 934.5 Q420 946 438 975 L501 923 Q477 875 446 852 Q415 829 374 829 Q354 829 337.5 834.5 Q321 840 285 857 Q235 879 218 879 Q203 879 190.5 867.5 Q178 856 164 828 L99 883 L116 906 Z M128 754 L299 452 L473 754 L603 754 L357 325 L357 0 L243 0 L243 325 L-3 754 L128 754 Z " />
<glyph glyph-name="a" unicode="a" horiz-adv-x="599" d="M529 0 L419 0 L419 50 Q381 14 348.5 -0.5 Q316 -15 273 -15 Q208 -15 156.5 18 Q105 51 75.5 108.5 Q46 166 46 238 Q46 309 75 366 Q104 423 155.5 455.5 Q207 488 270 488 Q316 488 350 472.5 Q384 457 419 420 L419 476 L529 476 L529 0 Z M290 390 Q253 390 223 370 Q193 350 175.5 315.5 Q158 281 158 238 Q158 170 194.5 127 Q231 84 289 84 Q350 84 388 126 Q426 168 426 236 Q426 304 388.5 347 Q351 390 290 390 Z " />
<glyph glyph-name="aacute" unicode="&#xe1;" horiz-adv-x="599" d="M229 585 L364 764 L467 710 L289 549 L229 585 Z M529 0 L419 0 L419 50 Q381 14 348.5 -0.5 Q316 -15 273 -15 Q208 -15 156.5 18 Q105 51 75.5 108.5 Q46 166 46 238 Q46 309 75 366 Q104 423 155.5 455.5 Q207 488 270 488 Q316 488 350 472.5 Q384 457 419 420 L419 476 L529 476 L529 0 Z M290 390 Q253 390 223 370 Q193 350 175.5 315.5 Q158 281 158 238 Q158 170 194.5 127 Q231 84 289 84 Q350 84 388 126 Q426 168 426 236 Q426 304 388.5 347 Q351 390 290 390 Z " />
<glyph glyph-name="abreve" unicode="&#x103;" horiz-adv-x="599" d="M215 713 Q221 674 241.5 655 Q262 636 299 636 Q336 636 357 655 Q378 674 384 713 L475 713 Q471 677 463.5 656.5 Q456 636 440 614 Q415 582 378.5 565.5 Q342 549 297 549 Q209 549 158 614 Q142 636 134.5 657 Q127 678 124 713 L215 713 Z M529 0 L419 0 L419 50 Q381 14 348.5 -0.5 Q316 -15 273 -15 Q208 -15 156.5 18 Q105 51 75.5 108.5 Q46 166 46 238 Q46 309 75 366 Q104 423 155.5 455.5 Q207 488 270 488 Q316 488 350 472.5 Q384 457 419 420 L419 476 L529 476 L529 0 Z M290 390 Q253 390 223 370 Q193 350 175.5 315.5 Q158 281 158 238 Q158 170 194.5 127 Q231 84 289 84 Q350 84 388 126 Q426 168 426 236 Q426 304 388.5 347 Q351 390 290 390 Z " />
<glyph glyph-name="acircumflex" unicode="&#xe2;" horiz-adv-x="599" d="M479 607 L403 549 L305 641 L209 549 L134 607 L305 764 L479 607 Z M529 0 L419 0 L419 50 Q381 14 348.5 -0.5 Q316 -15 273 -15 Q208 -15 156.5 18 Q105 51 75.5 108.5 Q46 166 46 238 Q46 309 75 366 Q104 423 155.5 455.5 Q207 488 270 488 Q316 488 350 472.5 Q384 457 419 420 L419 476 L529 476 L529 0 Z M290 390 Q253 390 223 370 Q193 350 175.5 315.5 Q158 281 158 238 Q158 170 194.5 127 Q231 84 289 84 Q350 84 388 126 Q426 168 426 236 Q426 304 388.5 347 Q351 390 290 390 Z " />
<glyph glyph-name="adieresis" unicode="&#xe4;" horiz-adv-x="599" d="M201 695 Q230 695 250 675 Q270 655 270 626 Q270 598 249.5 577 Q229 556 201 556 Q172 556 151.5 576.5 Q131 597 131 626 Q131 654 152 674.5 Q173 695 201 695 Z M406 695 Q435 695 455 675 Q475 655 475 626 Q475 598 454.5 577 Q434 556 406 556 Q376 556 356 576.5 Q336 597 336 626 Q336 654 356.5 674.5 Q377 695 406 695 Z M529 0 L419 0 L419 50 Q381 14 348.5 -0.5 Q316 -15 273 -15 Q208 -15 156.5 18 Q105 51 75.5 108.5 Q46 166 46 238 Q46 309 75 366 Q104 423 155.5 455.5 Q207 488 270 488 Q316 488 350 472.5 Q384 457 419 420 L419 476 L529 476 L529 0 Z M290 390 Q253 390 223 370 Q193 350 175.5 315.5 Q158 281 158 238 Q158 170 194.5 127 Q231 84 289 84 Q350 84 388 126 Q426 168 426 236 Q426 304 388.5 347 Q351 390 290 390 Z " />
<glyph glyph-name="agrave" unicode="&#xe0;" horiz-adv-x="599" d="M380 585 L320 549 L142 710 L245 764 L380 585 Z M529 0 L419 0 L419 50 Q381 14 348.5 -0.5 Q316 -15 273 -15 Q208 -15 156.5 18 Q105 51 75.5 108.5 Q46 166 46 238 Q46 309 75 366 Q104 423 155.5 455.5 Q207 488 270 488 Q316 488 350 472.5 Q384 457 419 420 L419 476 L529 476 L529 0 Z M290 390 Q253 390 223 370 Q193 350 175.5 315.5 Q158 281 158 238 Q158 170 194.5 127 Q231 84 289 84 Q350 84 388 126 Q426 168 426 236 Q426 304 388.5 347 Q351 390 290 390 Z " />
<glyph glyph-name="amacron" unicode="&#x101;" horiz-adv-x="599" d="M478 567 L136 567 L136 655 L478 655 L478 567 Z M529 0 L419 0 L419 50 Q381 14 348.5 -0.5 Q316 -15 273 -15 Q208 -15 156.5 18 Q105 51 75.5 108.5 Q46 166 46 238 Q46 309 75 366 Q104 423 155.5 455.5 Q207 488 270 488 Q316 488 350 472.5 Q384 457 419 420 L419 476 L529 476 L529 0 Z M290 390 Q253 390 223 370 Q193 350 175.5 315.5 Q158 281 158 238 Q158 170 194.5 127 Q231 84 289 84 Q350 84 388 126 Q426 168 426 236 Q426 304 388.5 347 Q351 390 290 390 Z " />
<glyph glyph-name="aogonek" unicode="&#x105;" horiz-adv-x="599" d="M529 0 Q485 -31 466 -53 Q447 -75 447 -96 Q447 -131 490 -131 Q518 -131 551 -122 L541 -192 Q522 -204 505.5 -209 Q489 -214 469 -214 Q423 -214 391.5 -187.5 Q360 -161 360 -123 Q360 -88 379.5 -60 Q399 -32 446 0 L419 0 L419 50 Q381 14 348.5 -0.5 Q316 -15 273 -15 Q208 -15 156.5 18 Q105 51 75.5 108.5 Q46 166 46 238 Q46 309 75 366 Q104 423 155.5 455.5 Q207 488 270 488 Q316 488 350 472.5 Q384 457 419 420 L419 476 L529 476 L529 0 Z M290 390 Q253 390 223 370 Q193 350 175.5 315.5 Q158 281 158 238 Q158 170 194.5 127 Q231 84 289 84 Q350 84 388 126 Q426 168 426 236 Q426 304 388.5 347 Q351 390 290 390 Z " />
<glyph glyph-name="aring" unicode="&#xe5;" horiz-adv-x="599" d="M303 762 Q347 762 378 730.5 Q409 699 409 655 Q409 611 378 580 Q347 549 303 549 Q259 549 228 580.5 Q197 612 197 657 Q197 700 228.5 731 Q260 762 303 762 Z M303 704 Q283 704 268.5 690 Q254 676 254 657 Q254 636 268.5 621.5 Q283 607 303 607 Q323 607 337 621 Q351 635 351 655 Q351 676 337 690 Q323 704 303 704 Z M529 0 L419 0 L419 50 Q381 14 348.5 -0.5 Q316 -15 273 -15 Q208 -15 156.5 18 Q105 51 75.5 108.5 Q46 166 46 238 Q46 309 75 366 Q104 423 155.5 455.5 Q207 488 270 488 Q316 488 350 472.5 Q384 457 419 420 L419 476 L529 476 L529 0 Z M290 390 Q253 390 223 370 Q193 350 175.5 315.5 Q158 281 158 238 Q158 170 194.5 127 Q231 84 289 84 Q350 84 388 126 Q426 168 426 236 Q426 304 388.5 347 Q351 390 290 390 Z " />
<glyph glyph-name="aringacute" unicode="&#x1fb;" horiz-adv-x="599" d="M155 765 L289 942 L392 888 L215 728 L155 765 Z M314 762 Q358 762 389 730.5 Q420 699 420 655 Q420 611 389 580 Q358 549 314 549 Q270 549 239 580.5 Q208 612 208 657 Q208 700 239.5 731 Q271 762 314 762 Z M314 704 Q294 704 280 690.5 Q266 677 266 657 Q266 635 280 621 Q294 607 314 607 Q334 607 348.5 621 Q363 635 363 655 Q363 676 348.5 690 Q334 704 314 704 Z M529 0 L419 0 L419 50 Q381 14 348.5 -0.5 Q316 -15 273 -15 Q208 -15 156.5 18 Q105 51 75.5 108.5 Q46 166 46 238 Q46 309 75 366 Q104 423 155.5 455.5 Q207 488 270 488 Q316 488 350 472.5 Q384 457 419 420 L419 476 L529 476 L529 0 Z M290 390 Q253 390 223 370 Q193 350 175.5 315.5 Q158 281 158 238 Q158 170 194.5 127 Q231 84 289 84 Q350 84 388 126 Q426 168 426 236 Q426 304 388.5 347 Q351 390 290 390 Z " />
<glyph glyph-name="atilde" unicode="&#xe3;" horiz-adv-x="599" d="M106 610 Q136 653 149 667 Q163 683 185.5 692.5 Q208 702 231 702 Q270 702 319 676 Q355 657 364 653.5 Q373 650 384 650 Q401 650 413.5 661 Q426 672 445 703 L507 651 Q483 602 452 579.5 Q421 557 380 557 Q361 557 344 562.5 Q327 568 290 585 Q244 608 225 608 Q210 608 197.5 596 Q185 584 171 556 L106 610 Z M529 0 L419 0 L419 50 Q381 14 348.5 -0.5 Q316 -15 273 -15 Q208 -15 156.5 18 Q105 51 75.5 108.5 Q46 166 46 238 Q46 309 75 366 Q104 423 155.5 455.5 Q207 488 270 488 Q316 488 350 472.5 Q384 457 419 420 L419 476 L529 476 L529 0 Z M290 390 Q253 390 223 370 Q193 350 175.5 315.5 Q158 281 158 238 Q158 170 194.5 127 Q231 84 289 84 Q350 84 388 126 Q426 168 426 236 Q426 304 388.5 347 Q351 390 290 390 Z " />
<glyph glyph-name="ae" unicode="&#xe6;" horiz-adv-x="860" d="M469 214 Q474 156 508.5 120.5 Q543 85 594 85 Q635 85 664.5 107 Q694 129 719 180 L814 128 Q797 97 785 80 Q773 63 754 47 Q722 19 676.5 2 Q631 -15 589 -15 Q540 -15 498 4 Q456 23 417 62 Q389 25 343.5 5 Q298 -15 242 -15 Q184 -15 139.5 5 Q95 25 70.5 61.5 Q46 98 46 145 Q46 218 98 262.5 Q150 307 234 307 Q268 307 295.5 300 Q323 293 358 275 Q357 320 346 344.5 Q335 369 310 379.5 Q285 390 240 390 Q209 390 181 386 Q153 382 113 373 L113 475 Q163 483 190.5 485.5 Q218 488 251 488 Q310 488 351 471.5 Q392 455 417 421 Q481 488 584 488 Q652 488 704 458 Q756 428 784 373 Q812 318 812 245 Q812 227 811 214 L469 214 Z M696 303 Q687 345 659.5 367.5 Q632 390 589 390 Q543 390 516.5 369.5 Q490 349 476 303 L696 303 Z M249 211 Q208 211 180.5 192.5 Q153 174 153 147 Q153 119 180.5 100 Q208 81 249 81 Q292 81 321.5 100.5 Q351 120 351 149 Q351 175 321 193 Q291 211 249 211 Z " />
<glyph glyph-name="aeacute" unicode="&#x1fd;" horiz-adv-x="860" d="M344 585 L478 764 L581 710 L403 549 L344 585 Z M469 214 Q474 156 508.5 120.5 Q543 85 594 85 Q635 85 664.5 107 Q694 129 719 180 L814 128 Q797 97 785 80 Q773 63 754 47 Q722 19 676.5 2 Q631 -15 589 -15 Q540 -15 498 4 Q456 23 417 62 Q389 25 343.5 5 Q298 -15 242 -15 Q184 -15 139.5 5 Q95 25 70.5 61.5 Q46 98 46 145 Q46 218 98 262.5 Q150 307 234 307 Q268 307 295.5 300 Q323 293 358 275 Q357 320 346 344.5 Q335 369 310 379.5 Q285 390 240 390 Q209 390 181 386 Q153 382 113 373 L113 475 Q163 483 190.5 485.5 Q218 488 251 488 Q310 488 351 471.5 Q392 455 417 421 Q481 488 584 488 Q652 488 704 458 Q756 428 784 373 Q812 318 812 245 Q812 227 811 214 L469 214 Z M696 303 Q687 345 659.5 367.5 Q632 390 589 390 Q543 390 516.5 369.5 Q490 349 476 303 L696 303 Z M249 211 Q208 211 180.5 192.5 Q153 174 153 147 Q153 119 180.5 100 Q208 81 249 81 Q292 81 321.5 100.5 Q351 120 351 149 Q351 175 321 193 Q291 211 249 211 Z " />
<glyph glyph-name="b" unicode="b" horiz-adv-x="599" d="M179 420 Q213 457 248 472.5 Q283 488 328 488 Q391 488 442 455.5 Q493 423 522 365.5 Q551 308 551 238 Q551 166 521.5 108.5 Q492 51 440.5 18 Q389 -15 325 -15 Q283 -15 248.5 0.5 Q214 16 179 50 L179 0 L69 0 L69 824 L179 824 L179 420 Z M308 390 Q247 390 209.5 347.5 Q172 305 172 237 Q172 169 209 126.5 Q246 84 307 84 Q364 84 402 127 Q440 170 440 234 Q440 301 402.5 345.5 Q365 390 308 390 Z " />
<glyph glyph-name="c" unicode="c" horiz-adv-x="476" d="M438 310 Q401 356 371.5 373 Q342 390 302 390 Q239 390 198 346.5 Q157 303 157 237 Q157 170 197 127 Q237 84 299 84 Q340 84 369 101 Q398 118 438 166 L438 20 Q401 0 371.5 -7.5 Q342 -15 304 -15 Q232 -15 172.5 18 Q113 51 79 108 Q45 165 45 235 Q45 305 79.5 363 Q114 421 173.5 454.5 Q233 488 305 488 Q344 488 374.5 480.5 Q405 473 438 455 L438 310 Z " />
<glyph glyph-name="cacute" unicode="&#x107;" horiz-adv-x="476" d="M206 585 L340 764 L443 710 L266 549 L206 585 Z M438 310 Q401 356 371.5 373 Q342 390 302 390 Q239 390 198 346.5 Q157 303 157 237 Q157 170 197 127 Q237 84 299 84 Q340 84 369 101 Q398 118 438 166 L438 20 Q401 0 371.5 -7.5 Q342 -15 304 -15 Q232 -15 172.5 18 Q113 51 79 108 Q45 165 45 235 Q45 305 79.5 363 Q114 421 173.5 454.5 Q233 488 305 488 Q344 488 374.5 480.5 Q405 473 438 455 L438 310 Z " />
<glyph glyph-name="ccaron" unicode="&#x10d;" horiz-adv-x="476" d="M103 705 L179 763 L277 671 L374 764 L447 705 L277 549 L103 705 Z M438 310 Q401 356 371.5 373 Q342 390 302 390 Q239 390 198 346.5 Q157 303 157 237 Q157 170 197 127 Q237 84 299 84 Q340 84 369 101 Q398 118 438 166 L438 20 Q401 0 371.5 -7.5 Q342 -15 304 -15 Q232 -15 172.5 18 Q113 51 79 108 Q45 165 45 235 Q45 305 79.5 363 Q114 421 173.5 454.5 Q233 488 305 488 Q344 488 374.5 480.5 Q405 473 438 455 L438 310 Z " />
<glyph glyph-name="ccedilla" unicode="&#xe7;" horiz-adv-x="476" d="M438 310 Q401 356 371.5 373 Q342 390 302 390 Q239 390 198 346.5 Q157 303 157 237 Q157 170 197 127 Q237 84 299 84 Q340 84 369 101 Q398 118 438 166 L438 20 Q401 0 371.5 -7.5 Q342 -15 304 -15 Q232 -15 172.5 18 Q113 51 79 108 Q45 165 45 235 Q45 305 79.5 363 Q114 421 173.5 454.5 Q233 488 305 488 Q344 488 374.5 480.5 Q405 473 438 455 L438 310 Z M159 -210 L257 -60 L347 -97 L231 -246 L159 -210 Z " />
<glyph glyph-name="ccircumflex" unicode="&#x109;" horiz-adv-x="476" d="M457 607 L381 549 L283 641 L185 549 L111 607 L283 764 L457 607 Z M438 310 Q401 356 371.5 373 Q342 390 302 390 Q239 390 198 346.5 Q157 303 157 237 Q157 170 197 127 Q237 84 299 84 Q340 84 369 101 Q398 118 438 166 L438 20 Q401 0 371.5 -7.5 Q342 -15 304 -15 Q232 -15 172.5 18 Q113 51 79 108 Q45 165 45 235 Q45 305 79.5 363 Q114 421 173.5 454.5 Q233 488 305 488 Q344 488 374.5 480.5 Q405 473 438 455 L438 310 Z " />
<glyph glyph-name="cdotaccent" unicode="&#x10b;" horiz-adv-x="476" d="M279 703 Q310 703 331.5 681.5 Q353 660 353 629 Q353 599 331.5 577.5 Q310 556 279 556 Q248 556 227 577.5 Q206 599 206 631 Q206 660 228 681.5 Q250 703 279 703 Z M438 310 Q401 356 371.5 373 Q342 390 302 390 Q239 390 198 346.5 Q157 303 157 237 Q157 170 197 127 Q237 84 299 84 Q340 84 369 101 Q398 118 438 166 L438 20 Q401 0 371.5 -7.5 Q342 -15 304 -15 Q232 -15 172.5 18 Q113 51 79 108 Q45 165 45 235 Q45 305 79.5 363 Q114 421 173.5 454.5 Q233 488 305 488 Q344 488 374.5 480.5 Q405 473 438 455 L438 310 Z " />
<glyph glyph-name="d" unicode="d" horiz-adv-x="599" d="M529 0 L419 0 L419 50 Q384 16 349.5 0.5 Q315 -15 272 -15 Q208 -15 156.5 18 Q105 51 75.5 108.5 Q46 166 46 238 Q46 309 75 366 Q104 423 155.5 455.5 Q207 488 270 488 Q315 488 350 472.5 Q385 457 419 420 L419 824 L529 824 L529 0 Z M290 390 Q253 390 223 370.5 Q193 351 175.5 316.5 Q158 282 158 240 Q158 171 194.5 127.5 Q231 84 289 84 Q350 84 388 126 Q426 168 426 236 Q426 304 388.5 347 Q351 390 290 390 Z " />
<glyph glyph-name="eth" unicode="&#xf0;" horiz-adv-x="600" d="M106 833 Q163 813 195 794 L267 753 L382 814 L420 749 L329 701 Q377 657 408.5 618.5 Q440 580 467 533 Q509 458 531.5 385 Q554 312 554 246 Q554 171 521.5 111.5 Q489 52 432 18.5 Q375 -15 302 -15 Q231 -15 172 18.5 Q113 52 79.5 109 Q46 166 46 236 Q46 306 79.5 364 Q113 422 171.5 455 Q230 488 301 488 Q322 488 338.5 486 Q355 484 377 477 Q341 540 310 580.5 Q279 621 241 655 L123 593 L87 657 L180 705 L163 716 L128 733 L88 754 L61 764 L106 833 Z M299 390 Q236 390 197 348 Q158 306 158 238 Q158 168 196.5 126 Q235 84 299 84 Q363 84 402.5 126 Q442 168 442 236 Q442 306 403 348 Q364 390 299 390 Z " />
<glyph glyph-name="dcaron" unicode="&#x10f;" horiz-adv-x="740" d="M529 0 L419 0 L419 50 Q384 16 349.5 0.5 Q315 -15 272 -15 Q208 -15 156.5 18 Q105 51 75.5 108.5 Q46 166 46 238 Q46 309 75 366 Q104 423 155.5 455.5 Q207 488 270 488 Q315 488 350 472.5 Q385 457 419 420 L419 824 L529 824 L529 0 Z M647 615 L582 642 L655 824 L739 791 L647 615 Z M290 390 Q253 390 223 370.5 Q193 351 175.5 316.5 Q158 282 158 240 Q158 171 194.5 127.5 Q231 84 289 84 Q350 84 388 126 Q426 168 426 236 Q426 304 388.5 347 Q351 390 290 390 Z " />
<glyph glyph-name="dslash" unicode="&#x111;" horiz-adv-x="599" d="M529 715 L590 715 L590 625 L529 625 L529 0 L419 0 L419 50 Q384 16 349.5 0.5 Q315 -15 272 -15 Q208 -15 156.5 18 Q105 51 75.5 108.5 Q46 166 46 238 Q46 309 75 366 Q104 423 155.5 455.5 Q207 488 270 488 Q315 488 349.5 472.5 Q384 457 419 420 L419 625 L292 625 L292 715 L419 715 L419 824 L529 824 L529 715 Z M290 390 Q253 390 223 370.5 Q193 351 175.5 316.5 Q158 282 158 240 Q158 171 195 127.5 Q232 84 290 84 Q351 84 388.5 126 Q426 168 426 236 Q426 304 388.5 347 Q351 390 290 390 Z " />
<glyph glyph-name="e" unicode="e" horiz-adv-x="553" d="M162 211 Q166 153 199 118.5 Q232 84 285 84 Q326 84 353.5 103.5 Q381 123 414 176 L506 124 Q487 91 473.5 74.5 Q460 58 442 43 Q411 15 368.5 0 Q326 -15 281 -15 Q211 -15 158 16 Q105 47 75.5 104 Q46 161 46 236 Q46 311 74.5 368 Q103 425 155.5 456.5 Q208 488 276 488 Q335 488 385 462.5 Q435 437 463 394 Q482 365 492 324 Q502 283 502 237 L502 211 L162 211 Z M389 301 Q378 343 349 366 Q320 389 278 389 Q238 389 208 365 Q178 341 168 301 L389 301 Z " />
<glyph glyph-name="eacute" unicode="&#xe9;" horiz-adv-x="553" d="M202 585 L337 764 L440 710 L263 549 L202 585 Z M162 211 Q166 153 199 118.5 Q232 84 285 84 Q326 84 353.5 103.5 Q381 123 414 176 L506 124 Q487 91 473.5 74.5 Q460 58 442 43 Q411 15 368.5 0 Q326 -15 281 -15 Q211 -15 158 16 Q105 47 75.5 104 Q46 161 46 236 Q46 311 74.5 368 Q103 425 155.5 456.5 Q208 488 276 488 Q335 488 385 462.5 Q435 437 463 394 Q482 365 492 324 Q502 283 502 237 L502 211 L162 211 Z M389 301 Q378 343 349 366 Q320 389 278 389 Q238 389 208 365 Q178 341 168 301 L389 301 Z " />
<glyph glyph-name="ebreve" unicode="&#x115;" horiz-adv-x="553" d="M191 713 Q197 674 218 655 Q239 636 276 636 Q351 636 360 713 L451 713 Q447 677 440 656 Q433 635 417 614 Q392 583 355 566 Q318 549 273 549 Q184 549 136 614 Q119 636 111.5 657 Q104 678 101 713 L191 713 Z M162 211 Q166 153 199 118.5 Q232 84 285 84 Q326 84 353.5 103.5 Q381 123 414 176 L506 124 Q487 91 473.5 74.5 Q460 58 442 43 Q411 15 368.5 0 Q326 -15 281 -15 Q211 -15 158 16 Q105 47 75.5 104 Q46 161 46 236 Q46 311 74.5 368 Q103 425 155.5 456.5 Q208 488 276 488 Q335 488 385 462.5 Q435 437 463 394 Q482 365 492 324 Q502 283 502 237 L502 211 L162 211 Z M389 301 Q378 343 349 366 Q320 389 278 389 Q238 389 208 365 Q178 341 168 301 L389 301 Z " />
<glyph glyph-name="ecaron" unicode="&#x11b;" horiz-adv-x="553" d="M107 705 L183 763 L281 671 L377 764 L452 705 L281 549 L107 705 Z M162 211 Q166 153 199 118.5 Q232 84 285 84 Q326 84 353.5 103.5 Q381 123 414 176 L506 124 Q487 91 473.5 74.5 Q460 58 442 43 Q411 15 368.5 0 Q326 -15 281 -15 Q211 -15 158 16 Q105 47 75.5 104 Q46 161 46 236 Q46 311 74.5 368 Q103 425 155.5 456.5 Q208 488 276 488 Q335 488 385 462.5 Q435 437 463 394 Q482 365 492 324 Q502 283 502 237 L502 211 L162 211 Z M389 301 Q378 343 349 366 Q320 389 278 389 Q238 389 208 365 Q178 341 168 301 L389 301 Z " />
<glyph glyph-name="ecircumflex" unicode="&#xea;" horiz-adv-x="553" d="M452 607 L377 549 L279 641 L182 549 L107 607 L279 764 L452 607 Z M162 211 Q166 153 199 118.5 Q232 84 285 84 Q326 84 353.5 103.5 Q381 123 414 176 L506 124 Q487 91 473.5 74.5 Q460 58 442 43 Q411 15 368.5 0 Q326 -15 281 -15 Q211 -15 158 16 Q105 47 75.5 104 Q46 161 46 236 Q46 311 74.5 368 Q103 425 155.5 456.5 Q208 488 276 488 Q335 488 385 462.5 Q435 437 463 394 Q482 365 492 324 Q502 283 502 237 L502 211 L162 211 Z M389 301 Q378 343 349 366 Q320 389 278 389 Q238 389 208 365 Q178 341 168 301 L389 301 Z " />
<glyph glyph-name="edieresis" unicode="&#xeb;" horiz-adv-x="553" d="M179 695 Q207 695 227 675 Q247 655 247 626 Q247 597 227 576.5 Q207 556 179 556 Q149 556 128.5 576.5 Q108 597 108 626 Q108 654 129 674.5 Q150 695 179 695 Z M382 695 Q411 695 431 675 Q451 655 451 626 Q451 598 430.5 577 Q410 556 382 556 Q352 556 332 576.5 Q312 597 312 626 Q312 654 333 674.5 Q354 695 382 695 Z M162 211 Q166 153 199 118.5 Q232 84 285 84 Q326 84 353.5 103.5 Q381 123 414 176 L506 124 Q487 91 473.5 74.5 Q460 58 442 43 Q411 15 368.5 0 Q326 -15 281 -15 Q211 -15 158 16 Q105 47 75.5 104 Q46 161 46 236 Q46 311 74.5 368 Q103 425 155.5 456.5 Q208 488 276 488 Q335 488 385 462.5 Q435 437 463 394 Q482 365 492 324 Q502 283 502 237 L502 211 L162 211 Z M389 301 Q378 343 349 366 Q320 389 278 389 Q238 389 208 365 Q178 341 168 301 L389 301 Z " />
<glyph glyph-name="edotaccent" unicode="&#x117;" horiz-adv-x="553" d="M279 703 Q310 703 331.5 681.5 Q353 660 353 629 Q353 599 331.5 577.5 Q310 556 279 556 Q248 556 227 577.5 Q206 599 206 631 Q206 660 228 681.5 Q250 703 279 703 Z M162 211 Q166 153 199 118.5 Q232 84 285 84 Q326 84 353.5 103.5 Q381 123 414 176 L506 124 Q487 91 473.5 74.5 Q460 58 442 43 Q411 15 368.5 0 Q326 -15 281 -15 Q211 -15 158 16 Q105 47 75.5 104 Q46 161 46 236 Q46 311 74.5 368 Q103 425 155.5 456.5 Q208 488 276 488 Q335 488 385 462.5 Q435 437 463 394 Q482 365 492 324 Q502 283 502 237 L502 211 L162 211 Z M389 301 Q378 343 349 366 Q320 389 278 389 Q238 389 208 365 Q178 341 168 301 L389 301 Z " />
<glyph glyph-name="egrave" unicode="&#xe8;" horiz-adv-x="553" d="M357 585 L297 549 L120 710 L223 764 L357 585 Z M162 211 Q166 153 199 118.5 Q232 84 285 84 Q326 84 353.5 103.5 Q381 123 414 176 L506 124 Q487 91 473.5 74.5 Q460 58 442 43 Q411 15 368.5 0 Q326 -15 281 -15 Q211 -15 158 16 Q105 47 75.5 104 Q46 161 46 236 Q46 311 74.5 368 Q103 425 155.5 456.5 Q208 488 276 488 Q335 488 385 462.5 Q435 437 463 394 Q482 365 492 324 Q502 283 502 237 L502 211 L162 211 Z M389 301 Q378 343 349 366 Q320 389 278 389 Q238 389 208 365 Q178 341 168 301 L389 301 Z " />
<glyph glyph-name="emacron" unicode="&#x113;" horiz-adv-x="553" d="M447 567 L105 567 L105 655 L447 655 L447 567 Z M162 211 Q166 153 199 118.5 Q232 84 285 84 Q326 84 353.5 103.5 Q381 123 414 176 L506 124 Q487 91 473.5 74.5 Q460 58 442 43 Q411 15 368.5 0 Q326 -15 281 -15 Q211 -15 158 16 Q105 47 75.5 104 Q46 161 46 236 Q46 311 74.5 368 Q103 425 155.5 456.5 Q208 488 276 488 Q335 488 385 462.5 Q435 437 463 394 Q482 365 492 324 Q502 283 502 237 L502 211 L162 211 Z M389 301 Q378 343 349 366 Q320 389 278 389 Q238 389 208 365 Q178 341 168 301 L389 301 Z " />
<glyph glyph-name="eogonek" unicode="&#x119;" horiz-adv-x="553" d="M162 211 Q166 153 199 118.5 Q232 84 285 84 Q326 84 353.5 103.5 Q381 123 414 176 L506 124 Q479 77 456.5 55 Q434 33 381 -1 Q342 -27 323.5 -50 Q305 -73 305 -97 Q305 -113 316.5 -122 Q328 -131 348 -131 Q376 -131 409 -122 L400 -192 Q381 -204 364.5 -209 Q348 -214 327 -214 Q280 -214 249 -188 Q218 -162 218 -123 Q218 -92 235.5 -64 Q253 -36 286 -14 L272 -14 Q225 -14 183 5 Q116 33 81 92.5 Q46 152 46 236 Q46 311 74.5 368 Q103 425 155.5 456.5 Q208 488 276 488 Q335 488 385 462.5 Q435 437 463 394 Q482 365 492 324 Q502 283 502 237 L502 211 L162 211 Z M389 301 Q378 343 349 366 Q320 389 278 389 Q238 389 208 365 Q178 341 168 301 L389 301 Z " />
<glyph glyph-name="uni0259" unicode="&#x259;" horiz-adv-x="552" d="M276 -15 Q217 -15 167 10.5 Q117 36 89 79 Q70 108 60 149 Q50 190 50 236 L50 262 L390 262 Q386 320 353 354.5 Q320 389 267 389 Q226 389 198.5 369.5 Q171 350 138 297 L46 349 Q65 382 78.5 398.5 Q92 415 110 430 Q141 458 183.5 473 Q226 488 271 488 Q341 488 394 457 Q447 426 476.5 369 Q506 312 506 237 Q506 162 477.5 105 Q449 48 396.5 16.5 Q344 -15 276 -15 Z M274 84 Q314 84 344 108 Q374 132 384 172 L163 172 Q174 130 203 107 Q232 84 274 84 Z " />
<glyph glyph-name="f" unicode="f" horiz-adv-x="296" d="M73 0 L73 373 L34 373 L34 476 L73 476 L73 659 Q73 706 80.5 736 Q88 766 105 785 Q124 809 158 823 Q192 837 229 837 Q249 837 264.5 833.5 Q280 830 303 820 L303 709 Q272 724 260 728 Q248 732 233 732 Q204 732 193.5 711.5 Q183 691 183 632 L183 476 L303 476 L303 373 L183 373 L183 0 L73 0 Z " />
<glyph glyph-name="g" unicode="g" horiz-adv-x="598" d="M529 11 Q529 -58 520 -96.5 Q511 -135 488 -168 Q457 -212 408 -236 Q359 -260 299 -260 Q240 -260 189 -237.5 Q138 -215 107 -175 Q90 -152 81.5 -125.5 Q73 -99 67 -52 L174 -52 Q182 -86 191 -104 Q200 -122 217 -134 Q255 -162 298 -162 Q329 -162 356.5 -148.5 Q384 -135 398 -113 Q419 -79 419 -14 L419 53 Q385 18 349 1.5 Q313 -15 269 -15 Q206 -15 155 17 Q104 49 75.5 106 Q47 163 47 234 Q47 307 76 364.5 Q105 422 155.5 455 Q206 488 270 488 Q314 488 352 470.5 Q390 453 419 421 L419 476 L529 476 L529 11 Z M290 390 Q231 390 195 348 Q159 306 159 236 Q159 197 169 169.5 Q179 142 199 122 Q217 104 241 94 Q265 84 290 84 Q350 84 387 126 Q424 168 424 236 Q424 305 387 347.5 Q350 390 290 390 Z " />
<glyph glyph-name="gbreve" unicode="&#x11f;" horiz-adv-x="598" d="M207 713 Q213 674 234 655 Q255 636 292 636 Q329 636 349.5 655 Q370 674 376 713 L467 713 Q463 677 455.5 656.5 Q448 636 432 614 Q407 582 370.5 565.5 Q334 549 289 549 Q201 549 150 614 Q134 636 126.5 657 Q119 678 116 713 L207 713 Z M529 11 Q529 -58 520 -96.5 Q511 -135 488 -168 Q457 -212 408 -236 Q359 -260 299 -260 Q240 -260 189 -237.5 Q138 -215 107 -175 Q90 -152 81.5 -125.5 Q73 -99 67 -52 L174 -52 Q182 -86 191 -104 Q200 -122 217 -134 Q255 -162 298 -162 Q329 -162 356.5 -148.5 Q384 -135 398 -113 Q419 -79 419 -14 L419 53 Q385 18 349 1.5 Q313 -15 269 -15 Q206 -15 155 17 Q104 49 75.5 106 Q47 163 47 234 Q47 307 76 364.5 Q105 422 155.5 455 Q206 488 270 488 Q314 488 352 470.5 Q390 453 419 421 L419 476 L529 476 L529 11 Z M290 390 Q231 390 195 348 Q159 306 159 236 Q159 197 169 169.5 Q179 142 199 122 Q217 104 241 94 Q265 84 290 84 Q350 84 387 126 Q424 168 424 236 Q424 305 387 347.5 Q350 390 290 390 Z " />
<glyph glyph-name="gcaron" unicode="&#x1e7;" horiz-adv-x="598" d="M119 705 L194 763 L293 671 L390 764 L463 705 L293 549 L119 705 Z M529 11 Q529 -58 520 -96.5 Q511 -135 488 -168 Q457 -212 408 -236 Q359 -260 299 -260 Q240 -260 189 -237.5 Q138 -215 107 -175 Q90 -152 81.5 -125.5 Q73 -99 67 -52 L174 -52 Q182 -86 191 -104 Q200 -122 217 -134 Q255 -162 298 -162 Q329 -162 356.5 -148.5 Q384 -135 398 -113 Q419 -79 419 -14 L419 53 Q385 18 349 1.5 Q313 -15 269 -15 Q206 -15 155 17 Q104 49 75.5 106 Q47 163 47 234 Q47 307 76 364.5 Q105 422 155.5 455 Q206 488 270 488 Q314 488 352 470.5 Q390 453 419 421 L419 476 L529 476 L529 11 Z M290 390 Q231 390 195 348 Q159 306 159 236 Q159 197 169 169.5 Q179 142 199 122 Q217 104 241 94 Q265 84 290 84 Q350 84 387 126 Q424 168 424 236 Q424 305 387 347.5 Q350 390 290 390 Z " />
<glyph glyph-name="gcircumflex" unicode="&#x11d;" horiz-adv-x="598" d="M479 607 L405 549 L306 641 L209 549 L134 607 L306 764 L479 607 Z M529 11 Q529 -58 520 -96.5 Q511 -135 488 -168 Q457 -212 408 -236 Q359 -260 299 -260 Q240 -260 189 -237.5 Q138 -215 107 -175 Q90 -152 81.5 -125.5 Q73 -99 67 -52 L174 -52 Q182 -86 191 -104 Q200 -122 217 -134 Q255 -162 298 -162 Q329 -162 356.5 -148.5 Q384 -135 398 -113 Q419 -79 419 -14 L419 53 Q385 18 349 1.5 Q313 -15 269 -15 Q206 -15 155 17 Q104 49 75.5 106 Q47 163 47 234 Q47 307 76 364.5 Q105 422 155.5 455 Q206 488 270 488 Q314 488 352 470.5 Q390 453 419 421 L419 476 L529 476 L529 11 Z M290 390 Q231 390 195 348 Q159 306 159 236 Q159 197 169 169.5 Q179 142 199 122 Q217 104 241 94 Q265 84 290 84 Q350 84 387 126 Q424 168 424 236 Q424 305 387 347.5 Q350 390 290 390 Z " />
<glyph glyph-name="uni0123" unicode="&#x123;" horiz-adv-x="598" d="M327 758 L392 731 L320 549 L235 582 L327 758 Z M529 11 Q529 -58 520 -96.5 Q511 -135 488 -168 Q457 -212 408 -236 Q359 -260 299 -260 Q240 -260 189 -237.5 Q138 -215 107 -175 Q90 -152 81.5 -125.5 Q73 -99 67 -52 L174 -52 Q182 -86 191 -104 Q200 -122 217 -134 Q255 -162 298 -162 Q329 -162 356.5 -148.5 Q384 -135 398 -113 Q419 -79 419 -14 L419 53 Q385 18 349 1.5 Q313 -15 269 -15 Q206 -15 155 17 Q104 49 75.5 106 Q47 163 47 234 Q47 307 76 364.5 Q105 422 155.5 455 Q206 488 270 488 Q314 488 352 470.5 Q390 453 419 421 L419 476 L529 476 L529 11 Z M290 390 Q231 390 195 348 Q159 306 159 236 Q159 197 169 169.5 Q179 142 199 122 Q217 104 241 94 Q265 84 290 84 Q350 84 387 126 Q424 168 424 236 Q424 305 387 347.5 Q350 390 290 390 Z " />
<glyph glyph-name="gdotaccent" unicode="&#x121;" horiz-adv-x="598" d="M292 703 Q322 703 343.5 681.5 Q365 660 365 629 Q365 599 343.5 577.5 Q322 556 292 556 Q261 556 239.5 578 Q218 600 218 631 Q218 660 240 681.5 Q262 703 292 703 Z M529 11 Q529 -58 520 -96.5 Q511 -135 488 -168 Q457 -212 408 -236 Q359 -260 299 -260 Q240 -260 189 -237.5 Q138 -215 107 -175 Q90 -152 81.5 -125.5 Q73 -99 67 -52 L174 -52 Q182 -86 191 -104 Q200 -122 217 -134 Q255 -162 298 -162 Q329 -162 356.5 -148.5 Q384 -135 398 -113 Q419 -79 419 -14 L419 53 Q385 18 349 1.5 Q313 -15 269 -15 Q206 -15 155 17 Q104 49 75.5 106 Q47 163 47 234 Q47 307 76 364.5 Q105 422 155.5 455 Q206 488 270 488 Q314 488 352 470.5 Q390 453 419 421 L419 476 L529 476 L529 11 Z M290 390 Q231 390 195 348 Q159 306 159 236 Q159 197 169 169.5 Q179 142 199 122 Q217 104 241 94 Q265 84 290 84 Q350 84 387 126 Q424 168 424 236 Q424 305 387 347.5 Q350 390 290 390 Z " />
<glyph glyph-name="h" unicode="h" horiz-adv-x="548" d="M179 436 Q210 464 240 476 Q270 488 308 488 Q350 488 387 470.5 Q424 453 446 424 Q464 400 471 370.5 Q478 341 478 292 L478 0 L368 0 L368 281 Q368 338 347.5 364 Q327 390 283 390 Q255 390 232.5 379.5 Q210 369 198 350 Q179 322 179 229 L179 0 L69 0 L69 824 L179 824 L179 436 Z " />
<glyph glyph-name="hbar" unicode="&#x127;" horiz-adv-x="548" d="M179 715 L307 715 L307 625 L179 625 L179 436 Q211 464 240.5 476 Q270 488 308 488 Q351 488 388 470.5 Q425 453 446 424 Q464 400 471 370.5 Q478 341 478 292 L478 0 L368 0 L368 281 Q368 338 348 364 Q328 390 284 390 Q255 390 232.5 379.5 Q210 369 198 350 Q179 322 179 229 L179 0 L69 0 L69 625 L9 625 L9 715 L69 715 L69 824 L179 824 L179 715 Z " />
<glyph glyph-name="hcircumflex" unicode="&#x125;" horiz-adv-x="548" d="M397 918 L322 859 L224 951 L127 859 L52 918 L224 1074 L397 918 Z M180 436 Q211 464 241 476 Q271 488 310 488 Q352 488 389 471 Q426 454 447 424 Q465 400 472 370.5 Q479 341 479 292 L479 0 L370 0 L370 281 Q370 338 349.5 364 Q329 390 284 390 Q256 390 233.5 379.5 Q211 369 199 350 Q180 322 180 229 L180 0 L70 0 L70 824 L180 824 L180 436 Z " />
<glyph glyph-name="i" unicode="i" horiz-adv-x="249" d="M124 745 Q155 745 176 724 Q197 703 197 673 Q197 644 176 622.5 Q155 601 125 601 Q95 601 74 622.5 Q53 644 53 673 Q53 702 74 723.5 Q95 745 124 745 Z M70 0 L70 476 L180 476 L180 0 L70 0 Z " />
<glyph glyph-name="dotlessi" unicode="&#x131;" horiz-adv-x="249" d="M69 0 L69 476 L179 476 L179 0 L69 0 Z " />
<glyph glyph-name="iacute" unicode="&#xed;" horiz-adv-x="249" d="M73 585 L197 764 L295 710 L133 549 L73 585 Z M69 0 L69 476 L179 476 L179 0 L69 0 Z " />
<glyph glyph-name="ibreve" unicode="&#x12d;" horiz-adv-x="249" d="M47 713 Q55 669 72 652.5 Q89 636 127 636 Q163 636 178 651.5 Q193 667 202 713 L292 713 Q288 676 281.5 655 Q275 634 261 614 Q240 583 204 566 Q168 549 123 549 Q32 549 -12 614 Q-27 635 -33 655 Q-39 675 -43 713 L47 713 Z M70 0 L70 476 L180 476 L180 0 L70 0 Z " />
<glyph glyph-name="icircumflex" unicode="&#xee;" horiz-adv-x="249" d="M289 607 L214 549 L123 641 L34 549 L-41 607 L123 764 L289 607 Z M69 0 L69 476 L179 476 L179 0 L69 0 Z " />
<glyph glyph-name="idieresis" unicode="&#xef;" horiz-adv-x="249" d="M36 695 Q65 695 85 675 Q105 655 105 626 Q105 598 84.5 577 Q64 556 36 556 Q7 556 -13.5 576.5 Q-34 597 -34 626 Q-34 654 -13 674.5 Q8 695 36 695 Z M214 695 Q243 695 263 675 Q283 655 283 626 Q283 598 262.5 577 Q242 556 214 556 Q184 556 164 576.5 Q144 597 144 626 Q144 654 164.5 674.5 Q185 695 214 695 Z M69 0 L69 476 L179 476 L179 0 L69 0 Z " />
<glyph glyph-name="igrave" unicode="&#xec;" horiz-adv-x="249" d="M175 585 L114 549 L-47 710 L52 764 L175 585 Z M69 0 L69 476 L179 476 L179 0 L69 0 Z " />
<glyph glyph-name="ij" unicode="&#x133;" horiz-adv-x="507" d="M124 745 Q155 745 176 724 Q197 703 197 673 Q197 644 176 622.5 Q155 601 125 601 Q95 601 74 622.5 Q53 644 53 673 Q53 702 74 723.5 Q95 745 124 745 Z M70 0 L70 476 L180 476 L180 0 L70 0 Z M383 601 Q353 601 332 622.5 Q311 644 311 673 Q311 702 332 723.5 Q353 745 382 745 Q413 745 434 724 Q455 703 455 673 Q455 644 434 622.5 Q413 601 383 601 Z M290 -266 Q252 -266 224 -253 L224 -150 Q246 -166 272 -166 Q301 -166 314.5 -148 Q328 -130 328 -85 L328 476 L438 476 L438 -112 Q438 -156 428 -184.5 Q418 -213 396 -233 Q359 -266 290 -266 Z " />
<glyph glyph-name="imacron" unicode="&#x12b;" horiz-adv-x="249" d="M273 567 L-24 567 L-24 655 L273 655 L273 567 Z M70 0 L70 476 L180 476 L180 0 L70 0 Z " />
<glyph glyph-name="iogonek" unicode="&#x12f;" horiz-adv-x="249" d="M123 745 Q154 745 174.5 724 Q195 703 195 673 Q195 643 174.5 622 Q154 601 124 601 Q94 601 73 622.5 Q52 644 52 673 Q52 702 73 723.5 Q94 745 123 745 Z M179 476 L179 0 Q147 -23 133.5 -45 Q120 -67 120 -95 Q120 -132 160 -132 Q174 -132 185.5 -130 Q197 -128 216 -122 L206 -192 Q188 -203 173 -207.5 Q158 -212 139 -212 Q91 -212 62 -185.5 Q33 -159 33 -116 Q33 -85 51 -56.5 Q69 -28 107 0 L69 0 L69 476 L179 476 Z " />
<glyph glyph-name="itilde" unicode="&#x129;" horiz-adv-x="249" d="M-76 610 Q-67 622 -62.5 629 Q-58 636 -55 640 Q-55 640 -34 667 Q-19 683 4 692.5 Q27 702 49 702 Q88 702 137 676 Q173 657 182 653.5 Q191 650 202 650 Q219 650 231.5 661 Q244 672 263 703 L325 651 Q301 602 270 579.5 Q239 557 198 557 Q179 557 162 562.5 Q145 568 108 585 Q62 608 43 608 Q28 608 15.5 596 Q3 584 -12 556 L-76 610 Z M70 0 L70 476 L180 476 L180 0 L70 0 Z " />
<glyph glyph-name="j" unicode="j" horiz-adv-x="249" d="M125 601 Q95 601 74 622.5 Q53 644 53 673 Q53 702 74 723.5 Q95 745 124 745 Q155 745 176 724 Q197 703 197 673 Q197 644 176 622.5 Q155 601 125 601 Z M32 -266 Q-6 -266 -34 -253 L-34 -150 Q-12 -166 14 -166 Q43 -166 56.5 -148 Q70 -130 70 -85 L70 476 L180 476 L180 -112 Q180 -156 170 -184.5 Q160 -213 138 -233 Q101 -266 32 -266 Z " />
<glyph glyph-name="uni0237" unicode="&#x237;" horiz-adv-x="249" d="M32 -266 Q-6 -266 -34 -253 L-34 -150 Q-12 -166 14 -166 Q43 -166 56.5 -148 Q70 -130 70 -85 L70 476 L180 476 L180 -112 Q180 -156 170 -184.5 Q160 -213 138 -233 Q101 -266 32 -266 Z " />
<glyph glyph-name="jcircumflex" unicode="&#x135;" horiz-adv-x="249" d="M297 607 L223 549 L124 641 L27 549 L-47 607 L124 764 L297 607 Z M32 -266 Q-6 -266 -34 -253 L-34 -150 Q-12 -166 14 -166 Q43 -166 56.5 -148 Q70 -130 70 -85 L70 476 L180 476 L180 -112 Q180 -156 170 -184.5 Q160 -213 138 -233 Q101 -266 32 -266 Z " />
<glyph glyph-name="k" unicode="k" horiz-adv-x="497" d="M332 476 L480 476 L273 276 L495 0 L353 0 L195 200 L179 183 L179 0 L69 0 L69 824 L179 824 L179 322 L332 476 Z " />
<glyph glyph-name="uni0137" unicode="&#x137;" horiz-adv-x="497" d="M332 476 L480 476 L273 276 L495 0 L353 0 L195 200 L179 183 L179 0 L69 0 L69 824 L179 824 L179 322 L332 476 Z M227 -269 L162 -243 L235 -60 L319 -93 L227 -269 Z " />
<glyph glyph-name="kgreenlandic" unicode="&#x138;" horiz-adv-x="497" d="M332 476 L480 476 L273 276 L495 0 L353 0 L195 200 L179 183 L179 0 L69 0 L69 476 L179 476 L179 322 L332 476 Z " />
<glyph glyph-name="l" unicode="l" horiz-adv-x="249" d="M69 0 L69 824 L179 824 L179 0 L69 0 Z " />
<glyph glyph-name="lacute" unicode="&#x13a;" horiz-adv-x="249" d="M69 892 L211 1042 L301 977 L121 847 L69 892 Z M69 0 L69 802 L179 802 L179 0 L69 0 Z " />
<glyph glyph-name="lcaron" unicode="&#x13e;" horiz-adv-x="390" d="M69 0 L69 824 L179 824 L179 0 L69 0 Z M297 615 L232 642 L305 824 L389 791 L297 615 Z " />
<glyph glyph-name="uni013C" unicode="&#x13c;" horiz-adv-x="249" d="M69 0 L69 824 L179 824 L179 0 L69 0 Z M80 -269 L15 -243 L88 -60 L172 -93 L80 -269 Z " />
<glyph glyph-name="ldot" unicode="&#x140;" horiz-adv-x="425" d="M69 0 L69 824 L179 824 L179 0 L69 0 Z M337 472 Q373 472 399 446.5 Q425 421 425 384 Q425 348 399 322 Q373 296 337 296 Q300 296 274.5 322 Q249 348 249 385 Q249 421 275 446.5 Q301 472 337 472 Z " />
<glyph glyph-name="lslash" unicode="&#x142;" horiz-adv-x="298" d="M203 368 L203 0 L94 0 L94 313 L23 263 L23 373 L94 423 L94 824 L203 824 L203 477 L276 527 L276 418 L203 368 Z " />
<glyph glyph-name="m" unicode="m" horiz-adv-x="790" d="M179 432 Q210 465 233.5 476.5 Q257 488 293 488 Q333 488 365.5 470 Q398 452 420 418 Q472 488 560 488 Q605 488 643 468 Q681 448 698 414 Q721 368 721 294 L721 0 L611 0 L611 264 Q611 332 594.5 361 Q578 390 538 390 Q492 390 471.5 355.5 Q451 321 451 245 L451 0 L341 0 L341 263 Q341 328 323.5 359 Q306 390 268 390 Q245 390 224.5 378 Q204 366 194 347 Q179 317 179 245 L179 0 L69 0 L69 476 L179 476 L179 432 Z " />
<glyph glyph-name="n" unicode="n" horiz-adv-x="548" d="M179 432 Q212 464 239.5 476 Q267 488 308 488 Q353 488 390.5 471 Q428 454 449 424 Q464 400 471 369 Q478 338 478 292 L478 0 L368 0 L368 266 Q368 304 365 323.5 Q362 343 354 356 Q343 372 324 381 Q305 390 280 390 Q224 390 201.5 353.5 Q179 317 179 229 L179 0 L69 0 L69 476 L179 476 L179 432 Z " />
<glyph glyph-name="nacute" unicode="&#x144;" horiz-adv-x="548" d="M192 585 L327 764 L429 710 L253 549 L192 585 Z M179 432 Q212 464 239.5 476 Q267 488 308 488 Q353 488 390.5 471 Q428 454 449 424 Q464 400 471 369 Q478 338 478 292 L478 0 L368 0 L368 266 Q368 304 365 323.5 Q362 343 354 356 Q343 372 324 381 Q305 390 280 390 Q224 390 201.5 353.5 Q179 317 179 229 L179 0 L69 0 L69 476 L179 476 L179 432 Z " />
<glyph glyph-name="napostrophe" unicode="&#x149;" horiz-adv-x="701" d="M131 469 L56 499 L172 786 L270 748 L131 469 Z M332 432 Q365 464 393 476 Q421 488 462 488 Q507 488 544.5 470.5 Q582 453 602 424 Q618 400 625 370 Q632 340 632 292 L632 0 L522 0 L522 266 Q522 304 519 323.5 Q516 343 507 356 Q497 372 478 381 Q459 390 434 390 Q378 390 355 354 Q332 318 332 229 L332 0 L223 0 L223 476 L332 476 L332 432 Z " />
<glyph glyph-name="ncaron" unicode="&#x148;" horiz-adv-x="548" d="M90 705 L165 763 L263 671 L360 764 L435 705 L263 549 L90 705 Z M179 432 Q212 464 239.5 476 Q267 488 308 488 Q353 488 390.5 471 Q428 454 449 424 Q464 400 471 369 Q478 338 478 292 L478 0 L368 0 L368 266 Q368 304 365 323.5 Q362 343 354 356 Q343 372 324 381 Q305 390 280 390 Q224 390 201.5 353.5 Q179 317 179 229 L179 0 L69 0 L69 476 L179 476 L179 432 Z " />
<glyph glyph-name="uni0146" unicode="&#x146;" horiz-adv-x="548" d="M179 432 Q212 464 239.5 476 Q267 488 308 488 Q353 488 390.5 471 Q428 454 449 424 Q464 400 471 369 Q478 338 478 292 L478 0 L368 0 L368 266 Q368 304 365 323.5 Q362 343 354 356 Q343 372 324 381 Q305 390 280 390 Q224 390 201.5 353.5 Q179 317 179 229 L179 0 L69 0 L69 476 L179 476 L179 432 Z M245 -269 L179 -243 L252 -60 L337 -93 L245 -269 Z " />
<glyph glyph-name="eng" unicode="&#x14b;" horiz-adv-x="548" d="M179 432 Q212 463 240.5 475.5 Q269 488 308 488 Q353 488 390.5 471 Q428 454 449 424 Q464 400 471 369 Q478 338 478 292 L478 28 Q478 -18 470.5 -48 Q463 -78 446 -98 Q427 -122 393.5 -136 Q360 -150 322 -150 Q302 -150 287 -146.5 Q272 -143 249 -133 L249 -21 Q278 -36 290.5 -40.5 Q303 -45 319 -45 Q348 -45 358 -24.5 Q368 -4 368 54 L368 266 Q368 303 365 322.5 Q362 342 354 356 Q344 372 324.5 381 Q305 390 280 390 Q224 390 201.5 353.5 Q179 317 179 229 L179 0 L69 0 L69 476 L179 476 L179 432 Z " />
<glyph glyph-name="ntilde" unicode="&#xf1;" horiz-adv-x="548" d="M66 610 Q81 630 84 636 Q102 661 107 667 Q123 683 145.5 692.5 Q168 702 190 702 Q229 702 278 676 Q315 657 324 653.5 Q333 650 344 650 Q360 650 373.5 661.5 Q387 673 405 703 L467 651 Q442 602 411 579.5 Q380 557 339 557 Q320 557 303 562.5 Q286 568 250 585 Q203 608 184 608 Q169 608 156.5 596 Q144 584 129 556 L66 610 Z M179 432 Q212 464 239.5 476 Q267 488 308 488 Q353 488 390.5 471 Q428 454 449 424 Q465 400 471.5 369.5 Q478 339 478 292 L478 0 L368 0 L368 266 Q368 304 365 323.5 Q362 343 354 356 Q343 372 324 381 Q305 390 280 390 Q224 390 201.5 353.5 Q179 317 179 229 L179 0 L69 0 L69 476 L179 476 L179 432 Z " />
<glyph glyph-name="o" unicode="o" horiz-adv-x="600" d="M299 488 Q370 488 428.5 455 Q487 422 520.5 364.5 Q554 307 554 237 Q554 167 520.5 109.5 Q487 52 428 18.5 Q369 -15 298 -15 Q228 -15 170.5 18.5 Q113 52 79.5 111 Q46 170 46 241 Q46 308 80 364.5 Q114 421 172 454.5 Q230 488 299 488 Z M299 390 Q236 390 197 348 Q158 306 158 238 Q158 168 196.5 126 Q235 84 299 84 Q363 84 402.5 126 Q442 168 442 236 Q442 306 403 348 Q364 390 299 390 Z " />
<glyph glyph-name="oacute" unicode="&#xf3;" horiz-adv-x="600" d="M226 585 L360 764 L463 710 L287 549 L226 585 Z M299 488 Q370 488 428.5 455 Q487 422 520.5 364.5 Q554 307 554 237 Q554 167 520.5 109.5 Q487 52 428 18.5 Q369 -15 298 -15 Q228 -15 170.5 18.5 Q113 52 79.5 111 Q46 170 46 241 Q46 308 80 364.5 Q114 421 172 454.5 Q230 488 299 488 Z M299 390 Q236 390 197 348 Q158 306 158 238 Q158 168 196.5 126 Q235 84 299 84 Q363 84 402.5 126 Q442 168 442 236 Q442 306 403 348 Q364 390 299 390 Z " />
<glyph glyph-name="obreve" unicode="&#x14f;" horiz-adv-x="600" d="M215 713 Q221 674 241.5 655 Q262 636 299 636 Q337 636 358 655 Q379 674 384 713 L475 713 Q471 677 464 656 Q457 635 441 614 Q416 583 379 566 Q342 549 297 549 Q209 549 159 614 Q143 636 135.5 657 Q128 678 125 713 L215 713 Z M299 488 Q370 488 428.5 455 Q487 422 520.5 364.5 Q554 307 554 237 Q554 167 520.5 109.5 Q487 52 428 18.5 Q369 -15 298 -15 Q228 -15 170.5 18.5 Q113 52 79.5 111 Q46 170 46 241 Q46 308 80 364.5 Q114 421 172 454.5 Q230 488 299 488 Z M299 390 Q236 390 197 348 Q158 306 158 238 Q158 168 196.5 126 Q235 84 299 84 Q363 84 402.5 126 Q442 168 442 236 Q442 306 403 348 Q364 390 299 390 Z " />
<glyph glyph-name="ocircumflex" unicode="&#xf4;" horiz-adv-x="600" d="M472 607 L397 549 L298 641 L202 549 L128 607 L298 764 L472 607 Z M299 488 Q370 488 428.5 455 Q487 422 520.5 364.5 Q554 307 554 237 Q554 167 520.5 109.5 Q487 52 428 18.5 Q369 -15 298 -15 Q228 -15 170.5 18.5 Q113 52 79.5 111 Q46 170 46 241 Q46 308 80 364.5 Q114 421 172 454.5 Q230 488 299 488 Z M299 390 Q236 390 197 348 Q158 306 158 238 Q158 168 196.5 126 Q235 84 299 84 Q363 84 402.5 126 Q442 168 442 236 Q442 306 403 348 Q364 390 299 390 Z " />
<glyph glyph-name="odieresis" unicode="&#xf6;" horiz-adv-x="600" d="M198 695 Q227 695 247 675 Q267 655 267 626 Q267 598 246.5 577 Q226 556 198 556 Q168 556 148 576.5 Q128 597 128 626 Q128 654 148.5 674.5 Q169 695 198 695 Z M402 695 Q431 695 451 675 Q471 655 471 626 Q471 597 450.5 576.5 Q430 556 402 556 Q373 556 352.5 576.5 Q332 597 332 626 Q332 654 353 674.5 Q374 695 402 695 Z M299 488 Q370 488 428.5 455 Q487 422 520.5 364.5 Q554 307 554 237 Q554 167 520.5 109.5 Q487 52 428 18.5 Q369 -15 298 -15 Q228 -15 170.5 18.5 Q113 52 79.5 111 Q46 170 46 241 Q46 308 80 364.5 Q114 421 172 454.5 Q230 488 299 488 Z M299 390 Q236 390 197 348 Q158 306 158 238 Q158 168 196.5 126 Q235 84 299 84 Q363 84 402.5 126 Q442 168 442 236 Q442 306 403 348 Q364 390 299 390 Z " />
<glyph glyph-name="ograve" unicode="&#xf2;" horiz-adv-x="600" d="M381 585 L321 549 L144 710 L246 764 L381 585 Z M299 488 Q370 488 428.5 455 Q487 422 520.5 364.5 Q554 307 554 237 Q554 167 520.5 109.5 Q487 52 428 18.5 Q369 -15 298 -15 Q228 -15 170.5 18.5 Q113 52 79.5 111 Q46 170 46 241 Q46 308 80 364.5 Q114 421 172 454.5 Q230 488 299 488 Z M299 390 Q236 390 197 348 Q158 306 158 238 Q158 168 196.5 126 Q235 84 299 84 Q363 84 402.5 126 Q442 168 442 236 Q442 306 403 348 Q364 390 299 390 Z " />
<glyph glyph-name="ohorn" unicode="&#x1a1;" horiz-adv-x="600" d="M621 497 L536 331 Q554 283 554 237 Q554 168 520.5 110 Q487 52 429 18.5 Q371 -15 301 -15 Q230 -15 171.5 18.5 Q113 52 79.5 109.5 Q46 167 46 237 Q46 307 79.5 364.5 Q113 422 171 455 Q229 488 299 488 Q355 488 403.5 467.5 Q452 447 488 407 L537 530 L621 497 Z M299 390 Q236 390 197 348 Q158 306 158 238 Q158 168 196.5 126 Q235 84 299 84 Q363 84 402.5 126 Q442 168 442 236 Q442 306 403 348 Q364 390 299 390 Z " />
<glyph glyph-name="ohungarumlaut" unicode="&#x151;" horiz-adv-x="600" d="M160 585 L279 764 L372 710 L209 549 L160 585 Z M364 585 L483 764 L575 710 L412 549 L364 585 Z M299 488 Q370 488 428.5 455 Q487 422 520.5 364.5 Q554 307 554 237 Q554 167 520.5 109.5 Q487 52 428 18.5 Q369 -15 298 -15 Q228 -15 170.5 18.5 Q113 52 79.5 111 Q46 170 46 241 Q46 308 80 364.5 Q114 421 172 454.5 Q230 488 299 488 Z M299 390 Q236 390 197 348 Q158 306 158 238 Q158 168 196.5 126 Q235 84 299 84 Q363 84 402.5 126 Q442 168 442 236 Q442 306 403 348 Q364 390 299 390 Z " />
<glyph glyph-name="omacron" unicode="&#x14d;" horiz-adv-x="600" d="M471 567 L129 567 L129 655 L471 655 L471 567 Z M299 488 Q370 488 428.5 455 Q487 422 520.5 364.5 Q554 307 554 237 Q554 167 520.5 109.5 Q487 52 428 18.5 Q369 -15 298 -15 Q228 -15 170.5 18.5 Q113 52 79.5 111 Q46 170 46 241 Q46 308 80 364.5 Q114 421 172 454.5 Q230 488 299 488 Z M299 390 Q236 390 197 348 Q158 306 158 238 Q158 168 196.5 126 Q235 84 299 84 Q363 84 402.5 126 Q442 168 442 236 Q442 306 403 348 Q364 390 299 390 Z " />
<glyph glyph-name="oslash" unicode="&#xf8;" horiz-adv-x="600" d="M574 464 L502 392 Q554 321 554 236 Q554 167 520.5 109.5 Q487 52 429 18.5 Q371 -15 302 -15 Q213 -15 145 36 L72 -34 L23 17 L95 88 Q47 157 47 238 Q47 307 81 364.5 Q115 422 173 455 Q231 488 301 488 Q343 488 378.5 477.5 Q414 467 450 442 L524 516 L574 464 Z M371 367 Q335 382 301 382 Q237 382 198 342 Q159 302 159 236 Q159 216 162 201.5 Q165 187 174 165 L371 367 Z M224 111 Q243 100 260.5 95 Q278 90 301 90 Q364 90 403 130 Q442 170 442 236 Q442 259 437.5 277.5 Q433 296 423 318 L224 111 Z " />
<glyph glyph-name="oslashacute" unicode="&#x1ff;" horiz-adv-x="600" d="M250 585 L384 764 L487 710 L310 549 L250 585 Z M574 464 L502 392 Q554 321 554 236 Q554 167 520.5 109.5 Q487 52 429 18.5 Q371 -15 302 -15 Q213 -15 145 36 L72 -34 L23 17 L95 88 Q47 157 47 238 Q47 307 81 364.5 Q115 422 173 455 Q231 488 301 488 Q343 488 378.5 477.5 Q414 467 450 442 L524 516 L574 464 Z M371 367 Q335 382 301 382 Q237 382 198 342 Q159 302 159 236 Q159 216 162 201.5 Q165 187 174 165 L371 367 Z M224 111 Q243 100 260.5 95 Q278 90 301 90 Q364 90 403 130 Q442 170 442 236 Q442 259 437.5 277.5 Q433 296 423 318 L224 111 Z " />
<glyph glyph-name="otilde" unicode="&#xf5;" horiz-adv-x="600" d="M123 627 Q142 655 154 667 Q168 683 190.5 692.5 Q213 702 235 702 Q274 702 323 676 Q360 657 369 653.5 Q378 650 389 650 Q405 650 418.5 661.5 Q432 673 450 703 L512 651 Q487 602 456.5 579.5 Q426 557 384 557 Q365 557 349 562 Q333 567 295 585 Q248 608 229 608 Q214 608 201.5 596 Q189 584 175 556 L111 610 L123 627 Z M299 488 Q370 488 428.5 455 Q487 422 520.5 364.5 Q554 307 554 237 Q554 167 520.5 109.5 Q487 52 428 18.5 Q369 -15 298 -15 Q228 -15 170.5 18.5 Q113 52 79.5 111 Q46 170 46 241 Q46 308 80 364.5 Q114 421 172 454.5 Q230 488 299 488 Z M299 390 Q236 390 197 348 Q158 306 158 238 Q158 168 196.5 126 Q235 84 299 84 Q363 84 402.5 126 Q442 168 442 236 Q442 306 403 348 Q364 390 299 390 Z " />
<glyph glyph-name="oe" unicode="&#x153;" horiz-adv-x="953" d="M557 211 Q561 156 597 120 Q633 84 686 84 Q726 84 756.5 106.5 Q787 129 811 177 L905 123 Q822 -15 678 -15 Q623 -15 572.5 10 Q522 35 493 77 Q416 -15 297 -15 Q229 -15 171 18.5 Q113 52 79.5 109.5 Q46 167 46 235 Q46 305 80 363 Q114 421 173 454.5 Q232 488 303 488 Q423 488 493 395 Q558 488 673 488 Q730 488 779.5 466 Q829 444 858 405 Q878 376 891 330.5 Q904 285 904 240 L904 211 L557 211 Z M297 389 Q235 389 197 348 Q159 307 159 238 Q159 165 195.5 124.5 Q232 84 297 84 Q363 84 400 124.5 Q437 165 437 236 Q437 307 400 348 Q363 389 297 389 Z M788 301 Q778 344 750.5 366.5 Q723 389 678 389 Q632 389 605 368 Q578 347 565 301 L788 301 Z " />
<glyph glyph-name="p" unicode="p" horiz-adv-x="599" d="M69 476 L179 476 L179 424 Q214 458 248 473 Q282 488 325 488 Q389 488 440.5 455 Q492 422 521.5 364.5 Q551 307 551 235 Q551 165 522 108 Q493 51 442 18 Q391 -15 328 -15 Q284 -15 249 1 Q214 17 179 53 L179 -259 L69 -259 L69 476 Z M308 390 Q247 390 209.5 347.5 Q172 305 172 237 Q172 169 209.5 126.5 Q247 84 307 84 Q364 84 402 127 Q440 170 440 234 Q440 302 403 346 Q366 390 308 390 Z " />
<glyph glyph-name="thorn" unicode="&#xfe;" horiz-adv-x="599" d="M69 824 L179 824 L179 424 Q213 458 247.5 473 Q282 488 325 488 Q389 488 440.5 455 Q492 422 521.5 364.5 Q551 307 551 235 Q551 165 522 108 Q493 51 442 18 Q391 -15 328 -15 Q283 -15 248.5 1 Q214 17 179 53 L179 -259 L69 -259 L69 824 Z M308 390 Q247 390 209.5 347.5 Q172 305 172 237 Q172 169 209.5 126.5 Q247 84 307 84 Q364 84 402 127 Q440 170 440 234 Q440 302 403 346 Q366 390 308 390 Z " />
<glyph glyph-name="q" unicode="q" horiz-adv-x="599" d="M419 53 Q384 17 349 1 Q314 -15 270 -15 Q207 -15 156 18 Q105 51 75.5 108 Q46 165 46 235 Q46 307 75.5 364.5 Q105 422 156.5 455 Q208 488 272 488 Q315 488 349.5 473 Q384 458 419 424 L419 476 L529 476 L529 -259 L419 -259 L419 53 Z M290 390 Q253 390 223 370.5 Q193 351 175.5 316.5 Q158 282 158 240 Q158 172 195.5 128 Q233 84 289 84 Q350 84 388 126 Q426 168 426 236 Q426 305 388.5 347.5 Q351 390 290 390 Z " />
<glyph glyph-name="r" unicode="r" horiz-adv-x="374" d="M179 433 Q209 465 232.5 477 Q256 489 288 489 Q314 489 333 483 Q352 477 380 460 L329 359 Q310 373 297 378 Q284 383 268 383 Q222 383 200.5 349.5 Q179 316 179 246 L179 0 L69 0 L69 476 L179 476 L179 433 Z " />
<glyph glyph-name="racute" unicode="&#x155;" horiz-adv-x="374" d="M128 585 L262 764 L366 710 L189 549 L128 585 Z M179 433 Q209 465 232.5 477 Q256 489 288 489 Q314 489 333 483 Q352 477 380 460 L329 359 Q310 373 297 378 Q284 383 268 383 Q222 383 200.5 349.5 Q179 316 179 246 L179 0 L69 0 L69 476 L179 476 L179 433 Z " />
<glyph glyph-name="rcaron" unicode="&#x159;" horiz-adv-x="374" d="M29 705 L105 763 L202 671 L299 764 L374 705 L203 549 L29 705 Z M179 433 Q209 465 232.5 477 Q256 489 288 489 Q314 489 333 483 Q352 477 380 460 L329 359 Q310 373 297 378 Q284 383 268 383 Q222 383 200.5 349.5 Q179 316 179 246 L179 0 L69 0 L69 476 L179 476 L179 433 Z " />
<glyph glyph-name="uni0157" unicode="&#x157;" horiz-adv-x="374" d="M179 433 Q209 465 232.5 477 Q256 489 288 489 Q314 489 333 483 Q352 477 380 460 L329 359 Q310 373 297 378 Q284 383 268 383 Q222 383 200.5 349.5 Q179 316 179 246 L179 0 L69 0 L69 476 L179 476 L179 433 Z M116 -269 L51 -243 L124 -60 L208 -93 L116 -269 Z " />
<glyph glyph-name="s" unicode="s" horiz-adv-x="406" d="M255 346 Q244 369 231 379.5 Q218 390 201 390 Q186 390 175.5 380 Q165 370 165 356 Q165 341 177.5 330 Q190 319 228 302 Q292 271 319 253 Q376 214 376 146 Q376 101 353.5 64 Q331 27 292.5 6 Q254 -15 207 -15 Q87 -15 37 103 L131 146 Q150 110 166.5 97 Q183 84 208 84 Q233 84 248.5 97.5 Q264 111 264 134 Q264 151 258 160.5 Q252 170 231 182 Q210 194 155 221 Q103 246 82.5 273.5 Q62 301 62 345 Q62 407 104 447.5 Q146 488 210 488 Q257 488 289.5 465.5 Q322 443 346 394 L255 346 Z " />
<glyph glyph-name="sacute" unicode="&#x15b;" horiz-adv-x="406" d="M130 585 L264 764 L367 710 L190 549 L130 585 Z M255 346 Q244 369 231 379.5 Q218 390 201 390 Q186 390 175.5 380 Q165 370 165 356 Q165 341 177.5 330 Q190 319 228 302 Q292 271 319 253 Q376 214 376 146 Q376 101 353.5 64 Q331 27 292.5 6 Q254 -15 207 -15 Q87 -15 37 103 L131 146 Q150 110 166.5 97 Q183 84 208 84 Q233 84 248.5 97.5 Q264 111 264 134 Q264 151 258 160.5 Q252 170 231 182 Q210 194 155 221 Q103 246 82.5 273.5 Q62 301 62 345 Q62 407 104 447.5 Q146 488 210 488 Q257 488 289.5 465.5 Q322 443 346 394 L255 346 Z " />
<glyph glyph-name="scaron" unicode="&#x161;" horiz-adv-x="406" d="M31 705 L106 763 L203 671 L301 764 L375 705 L205 549 L31 705 Z M254 346 Q243 369 230.5 379.5 Q218 390 201 390 Q186 390 175.5 380 Q165 370 165 356 Q165 341 177.5 330 Q190 319 228 302 Q292 271 319 253 Q376 214 376 146 Q376 101 353.5 64 Q331 27 292.5 6 Q254 -15 207 -15 Q87 -15 37 103 L131 146 Q150 110 166.5 97 Q183 84 208 84 Q233 84 248.5 97.5 Q264 111 264 134 Q264 151 258 160.5 Q252 170 231 182 Q210 194 155 221 Q103 246 82.5 273.5 Q62 301 62 345 Q62 407 104 447.5 Q146 488 210 488 Q257 488 289.5 465.5 Q322 443 346 394 L254 346 Z " />
<glyph glyph-name="scedilla" unicode="&#x15f;" horiz-adv-x="406" d="M255 346 Q244 369 231 379.5 Q218 390 201 390 Q186 390 175.5 380 Q165 370 165 356 Q165 341 177.5 330 Q190 319 228 302 Q292 271 319 253 Q376 214 376 146 Q376 101 353.5 64 Q331 27 292.5 6 Q254 -15 207 -15 Q87 -15 37 103 L131 146 Q150 110 166.5 97 Q183 84 208 84 Q233 84 248.5 97.5 Q264 111 264 134 Q264 151 258 160.5 Q252 170 231 182 Q210 194 155 221 Q103 246 82.5 273.5 Q62 301 62 345 Q62 407 104 447.5 Q146 488 210 488 Q257 488 289.5 465.5 Q322 443 346 394 L255 346 Z M79 -210 L176 -60 L267 -97 L150 -246 L79 -210 Z " />
<glyph glyph-name="scircumflex" unicode="&#x15d;" horiz-adv-x="406" d="M375 607 L301 549 L202 641 L105 549 L31 607 L202 764 L375 607 Z M254 346 Q243 369 230.5 379.5 Q218 390 201 390 Q186 390 175.5 380 Q165 370 165 356 Q165 341 177.5 330 Q190 319 228 302 Q292 271 319 253 Q376 214 376 146 Q376 101 353.5 64 Q331 27 292.5 6 Q254 -15 207 -15 Q87 -15 37 103 L131 146 Q150 110 166.5 97 Q183 84 208 84 Q233 84 248.5 97.5 Q264 111 264 134 Q264 151 258 160.5 Q252 170 231 182 Q210 194 155 221 Q103 246 82.5 273.5 Q62 301 62 345 Q62 407 104 447.5 Q146 488 210 488 Q257 488 289.5 465.5 Q322 443 346 394 L254 346 Z " />
<glyph glyph-name="uni0219" unicode="&#x219;" horiz-adv-x="406" d="M255 346 Q244 369 231 379.5 Q218 390 201 390 Q186 390 175.5 380 Q165 370 165 356 Q165 341 177.5 330 Q190 319 228 302 Q292 271 319 253 Q376 214 376 146 Q376 101 353.5 64 Q331 27 292.5 6 Q254 -15 207 -15 Q87 -15 37 103 L131 146 Q150 110 166.5 97 Q183 84 208 84 Q233 84 248.5 97.5 Q264 111 264 134 Q264 151 258 160.5 Q252 170 231 182 Q210 194 155 221 Q103 246 82.5 273.5 Q62 301 62 345 Q62 407 104 447.5 Q146 488 210 488 Q257 488 289.5 465.5 Q322 443 346 394 L255 346 Z M174 -269 L108 -243 L182 -60 L266 -93 L174 -269 Z " />
<glyph glyph-name="germandbls" unicode="&#xdf;" horiz-adv-x="621" d="M31 377 L31 476 L70 476 L70 596 Q70 700 114 758 Q141 795 189.5 816 Q238 837 294 837 Q358 837 408.5 810 Q459 783 487.5 735 Q516 687 516 627 Q516 530 436 476 Q500 448 537.5 387 Q575 326 575 252 Q575 182 538.5 121 Q502 60 437 23 Q400 1 364 -7.5 Q328 -16 276 -16 L276 90 Q318 92 342.5 98 Q367 104 391 120 Q425 143 444 178.5 Q463 214 463 255 Q463 298 443 333 Q423 368 389 385 Q366 397 343 403 Q320 409 276 414 L276 514 Q310 515 328.5 520 Q347 525 364 538 Q384 553 396 579 Q408 605 408 632 Q408 679 376.5 709 Q345 739 295 739 Q260 739 234 725 Q208 711 195 686 Q188 672 184 632 Q180 592 180 541 L180 0 L70 0 L70 377 L31 377 Z " />
<glyph glyph-name="longs" unicode="&#x17f;" horiz-adv-x="296" d="M73 373 L34 373 L34 476 L73 476 L73 659 Q73 706 80.5 736 Q88 766 105 785 Q124 809 158 823 Q192 837 229 837 Q249 837 264.5 833.5 Q280 830 303 820 L303 709 Q272 724 260 728 Q248 732 233 732 Q204 732 193.5 711.5 Q183 691 183 632 L183 0 L73 0 L73 373 Z " />
<glyph glyph-name="t" unicode="t" horiz-adv-x="310" d="M231 86 Q243 86 258.5 91.5 Q274 97 289 110 L289 9 Q256 -14 203 -14 Q137 -14 107 23 Q90 42 83.5 73 Q77 104 77 154 L77 376 L31 376 L31 476 L77 476 L77 650 L187 650 L187 476 L285 476 L285 376 L187 376 L187 136 Q187 112 195 99 Q203 86 231 86 Z " />
<glyph glyph-name="tbar" unicode="&#x167;" horiz-adv-x="311" d="M232 86 Q244 86 259.5 91.5 Q275 97 290 110 L290 9 Q257 -14 204 -14 Q141 -14 108 23 Q91 42 84.5 73 Q78 104 78 154 L78 208 L31 208 L31 297 L78 297 L78 376 L32 376 L32 476 L78 476 L78 650 L188 650 L188 476 L286 476 L286 376 L188 376 L188 297 L282 297 L282 208 L188 208 L188 136 Q188 112 196 99 Q204 86 232 86 Z " />
<glyph glyph-name="tcaron" unicode="&#x165;" horiz-adv-x="394" d="M303 531 L236 557 L310 740 L394 707 L303 531 Z M231 86 Q243 86 258.5 91.5 Q274 97 289 110 L289 9 Q256 -14 203 -14 Q137 -14 107 23 Q90 42 83.5 73 Q77 104 77 154 L77 376 L31 376 L31 476 L77 476 L77 650 L187 650 L187 476 L285 476 L285 376 L187 376 L187 136 Q187 112 195 99 Q203 86 231 86 Z " />
<glyph glyph-name="uni0163" unicode="&#x163;" horiz-adv-x="310" d="M231 86 Q243 86 258.5 91.5 Q274 97 289 110 L289 9 Q256 -14 203 -14 Q137 -14 107 23 Q90 42 83.5 73 Q77 104 77 154 L77 376 L31 376 L31 476 L77 476 L77 650 L187 650 L187 476 L285 476 L285 376 L187 376 L187 136 Q187 112 195 99 Q203 86 231 86 Z M119 -269 L53 -243 L127 -60 L210 -93 L119 -269 Z " />
<glyph glyph-name="u" unicode="u" horiz-adv-x="545" d="M475 476 L475 0 L365 0 L365 41 Q341 14 308.5 -0.5 Q276 -15 240 -15 Q153 -15 106 42 Q84 70 76.5 105.5 Q69 141 69 200 L69 476 L179 476 L179 197 Q179 135 200 109.5 Q221 84 270 84 Q318 84 341.5 113 Q365 142 365 202 L365 476 L475 476 Z " />
<glyph glyph-name="uacute" unicode="&#xfa;" horiz-adv-x="545" d="M475 476 L475 0 L365 0 L365 41 Q341 14 308.5 -0.5 Q276 -15 240 -15 Q153 -15 106 42 Q84 70 76.5 105.5 Q69 141 69 200 L69 476 L179 476 L179 197 Q179 135 200 109.5 Q221 84 270 84 Q318 84 341.5 113 Q365 142 365 202 L365 476 L475 476 Z M208 585 L342 764 L445 710 L268 549 L208 585 Z " />
<glyph glyph-name="ubreve" unicode="&#x16d;" horiz-adv-x="545" d="M475 476 L475 0 L365 0 L365 41 Q341 14 308.5 -0.5 Q276 -15 240 -15 Q153 -15 106 42 Q84 70 76.5 105.5 Q69 141 69 200 L69 476 L179 476 L179 197 Q179 135 200 109.5 Q221 84 270 84 Q318 84 341.5 113 Q365 142 365 202 L365 476 L475 476 Z M195 713 Q201 674 222 655 Q243 636 280 636 Q317 636 337.5 655 Q358 674 364 713 L455 713 Q451 676 444 655.5 Q437 635 420 614 Q396 583 359 566 Q322 549 277 549 Q189 549 138 614 Q122 636 114.5 657 Q107 678 104 713 L195 713 Z " />
<glyph glyph-name="ucircumflex" unicode="&#xfb;" horiz-adv-x="545" d="M475 476 L475 0 L365 0 L365 41 Q341 14 308.5 -0.5 Q276 -15 240 -15 Q153 -15 106 42 Q84 70 76.5 105.5 Q69 141 69 200 L69 476 L179 476 L179 197 Q179 135 200 109.5 Q221 84 270 84 Q318 84 341.5 113 Q365 142 365 202 L365 476 L475 476 Z M454 607 L380 549 L282 641 L184 549 L110 607 L282 764 L454 607 Z " />
<glyph glyph-name="udieresis" unicode="&#xfc;" horiz-adv-x="545" d="M475 476 L475 0 L365 0 L365 41 Q341 14 308.5 -0.5 Q276 -15 240 -15 Q153 -15 106 42 Q84 70 76.5 105.5 Q69 141 69 200 L69 476 L179 476 L179 197 Q179 135 200 109.5 Q221 84 270 84 Q318 84 341.5 113 Q365 142 365 202 L365 476 L475 476 Z M179 695 Q208 695 228 675 Q248 655 248 626 Q248 598 227.5 577 Q207 556 179 556 Q149 556 129 576.5 Q109 597 109 626 Q109 654 129.5 674.5 Q150 695 179 695 Z M383 695 Q412 695 432 675 Q452 655 452 626 Q452 597 431.5 576.5 Q411 556 383 556 Q354 556 333.5 576.5 Q313 597 313 626 Q313 654 334 674.5 Q355 695 383 695 Z " />
<glyph glyph-name="ugrave" unicode="&#xf9;" horiz-adv-x="545" d="M475 476 L475 0 L365 0 L365 41 Q341 14 308.5 -0.5 Q276 -15 240 -15 Q153 -15 106 42 Q84 70 76.5 105.5 Q69 141 69 200 L69 476 L179 476 L179 197 Q179 135 200 109.5 Q221 84 270 84 Q318 84 341.5 113 Q365 142 365 202 L365 476 L475 476 Z M345 585 L285 549 L108 710 L211 764 L345 585 Z " />
<glyph glyph-name="uhorn" unicode="&#x1b0;" horiz-adv-x="545" d="M650 462 L558 286 L493 313 L566 495 L650 462 Z M365 476 L475 476 L475 0 L365 0 L365 41 Q341 14 308.5 -0.5 Q276 -15 240 -15 Q153 -15 106 42 Q84 70 76.5 105.5 Q69 141 69 200 L69 476 L179 476 L179 197 Q179 135 200 109.5 Q221 84 270 84 Q318 84 341.5 113 Q365 142 365 202 L365 476 Z " />
<glyph glyph-name="uhungarumlaut" unicode="&#x171;" horiz-adv-x="545" d="M475 476 L475 0 L365 0 L365 41 Q341 14 308.5 -0.5 Q276 -15 240 -15 Q153 -15 106 42 Q84 70 76.5 105.5 Q69 141 69 200 L69 476 L179 476 L179 197 Q179 135 200 109.5 Q221 84 270 84 Q318 84 341.5 113 Q365 142 365 202 L365 476 L475 476 Z M133 585 L252 764 L345 710 L182 549 L133 585 Z M337 585 L455 764 L548 710 L385 549 L337 585 Z " />
<glyph glyph-name="umacron" unicode="&#x16b;" horiz-adv-x="545" d="M475 476 L475 0 L365 0 L365 41 Q341 14 308.5 -0.5 Q276 -15 240 -15 Q153 -15 106 42 Q84 70 76.5 105.5 Q69 141 69 200 L69 476 L179 476 L179 197 Q179 135 200 109.5 Q221 84 270 84 Q318 84 341.5 113 Q365 142 365 202 L365 476 L475 476 Z M448 567 L106 567 L106 655 L448 655 L448 567 Z " />
<glyph glyph-name="uni01C6" unicode="&#x1c6;" horiz-adv-x="1076" d="M520 0 L410 0 L410 50 Q375 16 340.5 0.5 Q306 -15 263 -15 Q199 -15 147.5 18 Q96 51 66.5 108.5 Q37 166 37 238 Q37 309 66 366 Q95 423 146.5 455.5 Q198 488 261 488 Q306 488 341 472.5 Q376 457 410 420 L410 824 L520 824 L520 0 Z M632 705 L707 763 L806 671 L903 764 L976 705 L806 549 L632 705 Z M1042 0 L542 0 L850 373 L608 373 L608 476 L1067 476 L759 103 L1042 103 L1042 0 Z M281 390 Q244 390 214 370.5 Q184 351 166.5 316.5 Q149 282 149 240 Q149 171 185.5 127.5 Q222 84 280 84 Q341 84 379 126 Q417 168 417 236 Q417 304 379.5 347 Q342 390 281 390 Z " />
<glyph glyph-name="uni01C9" unicode="&#x1c9;" horiz-adv-x="507" d="M69 0 L69 824 L179 824 L179 0 L69 0 Z M383 601 Q353 601 332 622.5 Q311 644 311 673 Q311 702 332 723.5 Q353 745 382 745 Q413 745 434 724 Q455 703 455 673 Q455 644 434 622.5 Q413 601 383 601 Z M290 -266 Q252 -266 224 -253 L224 -150 Q246 -166 272 -166 Q301 -166 314.5 -148 Q328 -130 328 -85 L328 476 L438 476 L438 -112 Q438 -156 428 -184.5 Q418 -213 396 -233 Q359 -266 290 -266 Z " />
<glyph glyph-name="uni01CC" unicode="&#x1cc;" horiz-adv-x="803" d="M179 432 Q212 464 239.5 476 Q267 488 308 488 Q353 488 390.5 471 Q428 454 449 424 Q464 400 471 369 Q478 338 478 292 L478 0 L368 0 L368 266 Q368 304 365 323.5 Q362 343 354 356 Q343 372 324 381 Q305 390 280 390 Q224 390 201.5 353.5 Q179 317 179 229 L179 0 L69 0 L69 476 L179 476 L179 432 Z M679 601 Q649 601 628 622.5 Q607 644 607 673 Q607 702 628 723.5 Q649 745 678 745 Q709 745 730 724 Q751 703 751 673 Q751 644 730 622.5 Q709 601 679 601 Z M586 -266 Q548 -266 520 -253 L520 -150 Q542 -166 568 -166 Q597 -166 610.5 -148 Q624 -130 624 -85 L624 476 L734 476 L734 -112 Q734 -156 724 -184.5 Q714 -213 692 -233 Q655 -266 586 -266 Z " />
<glyph glyph-name="uni01CE" unicode="&#x1ce;" horiz-adv-x="599" d="M134 705 L209 763 L307 671 L405 764 L479 705 L307 549 L134 705 Z M529 0 L419 0 L419 50 Q381 14 348.5 -0.5 Q316 -15 273 -15 Q208 -15 156.5 18 Q105 51 75.5 108.5 Q46 166 46 238 Q46 309 75 366 Q104 423 155.5 455.5 Q207 488 270 488 Q316 488 350 472.5 Q384 457 419 420 L419 476 L529 476 L529 0 Z M290 390 Q253 390 223 370 Q193 350 175.5 315.5 Q158 281 158 238 Q158 170 194.5 127 Q231 84 289 84 Q350 84 388 126 Q426 168 426 236 Q426 304 388.5 347 Q351 390 290 390 Z " />
<glyph glyph-name="uni01D0" unicode="&#x1d0;" horiz-adv-x="249" d="M-49 705 L27 763 L124 671 L221 764 L296 705 L125 549 L-49 705 Z M69 0 L69 476 L179 476 L179 0 L69 0 Z " />
<glyph glyph-name="uni01D2" unicode="&#x1d2;" horiz-adv-x="600" d="M128 705 L202 763 L301 671 L398 764 L472 705 L301 549 L128 705 Z M299 488 Q370 488 428.5 455 Q487 422 520.5 364.5 Q554 307 554 237 Q554 167 520.5 109.5 Q487 52 428 18.5 Q369 -15 298 -15 Q228 -15 170.5 18.5 Q113 52 79.5 111 Q46 170 46 241 Q46 308 80 364.5 Q114 421 172 454.5 Q230 488 299 488 Z M299 390 Q236 390 197 348 Q158 306 158 238 Q158 168 196.5 126 Q235 84 299 84 Q363 84 402.5 126 Q442 168 442 236 Q442 306 403 348 Q364 390 299 390 Z " />
<glyph glyph-name="uni01D4" unicode="&#x1d4;" horiz-adv-x="545" d="M475 476 L475 0 L365 0 L365 41 Q341 14 308.5 -0.5 Q276 -15 240 -15 Q153 -15 106 42 Q84 70 76.5 105.5 Q69 141 69 200 L69 476 L179 476 L179 197 Q179 135 200 109.5 Q221 84 270 84 Q318 84 341.5 113 Q365 142 365 202 L365 476 L475 476 Z M102 705 L177 763 L275 671 L372 764 L446 705 L276 549 L102 705 Z " />
<glyph glyph-name="uni01DD" unicode="&#x1dd;" horiz-adv-x="553" d="M391 269 Q386 328 352.5 362.5 Q319 397 267 397 Q226 397 199 377.5 Q172 358 139 304 L46 356 Q65 388 78.5 405 Q92 422 110 437 Q142 465 183.5 480 Q225 495 270 495 Q340 495 393.5 463 Q447 431 476.5 372.5 Q506 314 506 237 Q506 160 477.5 102 Q449 44 397.5 12 Q346 -20 277 -20 Q218 -20 166.5 6.5 Q115 33 88 78 Q50 142 50 242 Q50 257 51 269 L391 269 Z M163 166 Q175 123 203.5 100.5 Q232 78 275 78 Q315 78 344 101.5 Q373 125 384 166 L163 166 Z " />
<glyph glyph-name="uni01F5" unicode="&#x1f5;" horiz-adv-x="598" d="M247 585 L382 764 L485 710 L308 549 L247 585 Z M529 11 Q529 -58 520 -96.5 Q511 -135 488 -168 Q457 -212 408 -236 Q359 -260 299 -260 Q240 -260 189 -237.5 Q138 -215 107 -175 Q90 -152 81.5 -125.5 Q73 -99 67 -52 L174 -52 Q182 -86 191 -104 Q200 -122 217 -134 Q255 -162 298 -162 Q329 -162 356.5 -148.5 Q384 -135 398 -113 Q419 -79 419 -14 L419 53 Q385 18 349 1.5 Q313 -15 269 -15 Q206 -15 155 17 Q104 49 75.5 106 Q47 163 47 234 Q47 307 76 364.5 Q105 422 155.5 455 Q206 488 270 488 Q314 488 352 470.5 Q390 453 419 421 L419 476 L529 476 L529 11 Z M290 390 Q231 390 195 348 Q159 306 159 236 Q159 197 169 169.5 Q179 142 199 122 Q217 104 241 94 Q265 84 290 84 Q350 84 387 126 Q424 168 424 236 Q424 305 387 347.5 Q350 390 290 390 Z " />
<glyph glyph-name="uni0201" unicode="&#x201;" horiz-adv-x="599" d="M281 588 L233 542 L61 677 L156 745 L281 588 Z M515 588 L467 542 L294 677 L389 745 L515 588 Z M529 0 L419 0 L419 50 Q381 14 348.5 -0.5 Q316 -15 273 -15 Q208 -15 156.5 18 Q105 51 75.5 108.5 Q46 166 46 238 Q46 309 75 366 Q104 423 155.5 455.5 Q207 488 270 488 Q316 488 350 472.5 Q384 457 419 420 L419 476 L529 476 L529 0 Z M290 390 Q253 390 223 370 Q193 350 175.5 315.5 Q158 281 158 238 Q158 170 194.5 127 Q231 84 289 84 Q350 84 388 126 Q426 168 426 236 Q426 304 388.5 347 Q351 390 290 390 Z " />
<glyph glyph-name="uni021B" unicode="&#x21b;" horiz-adv-x="310" d="M231 86 Q243 86 258.5 91.5 Q274 97 289 110 L289 9 Q256 -14 203 -14 Q137 -14 107 23 Q90 42 83.5 73 Q77 104 77 154 L77 376 L31 376 L31 476 L77 476 L77 650 L187 650 L187 476 L285 476 L285 376 L187 376 L187 136 Q187 112 195 99 Q203 86 231 86 Z M119 -269 L53 -243 L127 -60 L210 -93 L119 -269 Z " />
<glyph glyph-name="uni0227" unicode="&#x227;" horiz-adv-x="599" d="M299 703 Q330 703 351.5 681.5 Q373 660 373 629 Q373 599 351.5 577.5 Q330 556 299 556 Q269 556 247.5 578 Q226 600 226 631 Q226 660 248 681.5 Q270 703 299 703 Z M529 0 L419 0 L419 50 Q381 14 348.5 -0.5 Q316 -15 273 -15 Q208 -15 156.5 18 Q105 51 75.5 108.5 Q46 166 46 238 Q46 309 75 366 Q104 423 155.5 455.5 Q207 488 270 488 Q316 488 350 472.5 Q384 457 419 420 L419 476 L529 476 L529 0 Z M290 390 Q253 390 223 370 Q193 350 175.5 315.5 Q158 281 158 238 Q158 170 194.5 127 Q231 84 289 84 Q350 84 388 126 Q426 168 426 236 Q426 304 388.5 347 Q351 390 290 390 Z " />
<glyph glyph-name="uni1EA1" unicode="&#x1ea1;" horiz-adv-x="599" d="M529 0 L419 0 L419 50 Q381 14 348.5 -0.5 Q316 -15 273 -15 Q208 -15 156.5 18 Q105 51 75.5 108.5 Q46 166 46 238 Q46 309 75 366 Q104 423 155.5 455.5 Q207 488 270 488 Q316 488 350 472.5 Q384 457 419 420 L419 476 L529 476 L529 0 Z M290 390 Q253 390 223 370 Q193 350 175.5 315.5 Q158 281 158 238 Q158 170 194.5 127 Q231 84 289 84 Q350 84 388 126 Q426 168 426 236 Q426 304 388.5 347 Q351 390 290 390 Z M298 -43 Q327 -43 346.5 -63 Q366 -83 366 -111 Q366 -140 346 -160 Q326 -180 298 -180 Q270 -180 250.5 -160 Q231 -140 231 -111 Q231 -83 250.5 -63 Q270 -43 298 -43 Z " />
<glyph glyph-name="uni1EA3" unicode="&#x1ea3;" horiz-adv-x="599" d="M246 645 L254 647 Q281 652 288 652 Q321 657 332.5 664.5 Q344 672 344 688 Q344 707 330 717.5 Q316 728 292 728 Q276 728 271 726.5 Q266 725 250 715 L236 710 L233 707 L226 704 L206 755 L212 758 L216 759 Q268 780 314 780 Q365 780 397 753 Q429 726 429 685 Q429 648 403.5 627 Q378 606 332 606 L306 606 L306 563 L246 563 L246 645 Z M529 0 L419 0 L419 50 Q381 14 348.5 -0.5 Q316 -15 273 -15 Q208 -15 156.5 18 Q105 51 75.5 108.5 Q46 166 46 238 Q46 309 75 366 Q104 423 155.5 455.5 Q207 488 270 488 Q316 488 350 472.5 Q384 457 419 420 L419 476 L529 476 L529 0 Z M290 390 Q253 390 223 370 Q193 350 175.5 315.5 Q158 281 158 238 Q158 170 194.5 127 Q231 84 289 84 Q350 84 388 126 Q426 168 426 236 Q426 304 388.5 347 Q351 390 290 390 Z " />
<glyph glyph-name="uni1EA5" unicode="&#x1ea5;" horiz-adv-x="599" d="M605 784 L444 638 L479 607 L403 548 L305 641 L209 548 L134 607 L305 763 L389 688 L502 838 L605 784 Z M529 0 L419 0 L419 50 Q381 14 348.5 -0.5 Q316 -15 273 -15 Q208 -15 156.5 18 Q105 51 75.5 108.5 Q46 166 46 238 Q46 309 75 366 Q104 423 155.5 455.5 Q207 488 270 488 Q316 488 350 472.5 Q384 457 419 420 L419 476 L529 476 L529 0 Z M290 390 Q253 390 223 370 Q193 350 175.5 315.5 Q158 281 158 238 Q158 170 194.5 127 Q231 84 289 84 Q350 84 388 126 Q426 168 426 236 Q426 304 388.5 347 Q351 390 290 390 Z " />
<glyph glyph-name="uni1EA7" unicode="&#x1ea7;" horiz-adv-x="599" d="M537 681 L483 636 L284 771 L381 838 L537 681 Z M452 589 L377 531 L279 623 L182 530 L107 589 L279 745 L452 589 Z M529 0 L419 0 L419 50 Q381 14 348.5 -0.5 Q316 -15 273 -15 Q208 -15 156.5 18 Q105 51 75.5 108.5 Q46 166 46 238 Q46 309 75 366 Q104 423 155.5 455.5 Q207 488 270 488 Q316 488 350 472.5 Q384 457 419 420 L419 476 L529 476 L529 0 Z M290 390 Q253 390 223 370 Q193 350 175.5 315.5 Q158 281 158 238 Q158 170 194.5 127 Q231 84 289 84 Q350 84 388 126 Q426 168 426 236 Q426 304 388.5 347 Q351 390 290 390 Z " />
<glyph glyph-name="uni1EA9" unicode="&#x1ea9;" horiz-adv-x="599" d="M425 714 L459 720 Q492 724 503 731 Q514 738 514 755 Q514 774 500.5 784 Q487 794 462 794 Q447 794 441 792.5 Q435 791 420 783 Q417 781 410.5 778 Q404 775 397 772 L376 822 L383 825 L386 826 Q436 846 485 846 Q536 846 568 819.5 Q600 793 600 751 Q600 714 574.5 693 Q549 672 503 672 L477 672 L477 629 L454 629 L479 607 L405 548 L306 641 L209 548 L134 607 L306 763 L417 663 L417 712 L425 714 Z M529 0 L419 0 L419 50 Q381 14 348.5 -0.5 Q316 -15 273 -15 Q208 -15 156.5 18 Q105 51 75.5 108.5 Q46 166 46 238 Q46 309 75 366 Q104 423 155.5 455.5 Q207 488 270 488 Q316 488 350 472.5 Q384 457 419 420 L419 476 L529 476 L529 0 Z M290 390 Q253 390 223 370 Q193 350 175.5 315.5 Q158 281 158 238 Q158 170 194.5 127 Q231 84 289 84 Q350 84 388 126 Q426 168 426 236 Q426 304 388.5 347 Q351 390 290 390 Z " />
<glyph glyph-name="uni1EAB" unicode="&#x1eab;" horiz-adv-x="599" d="M98 829 Q130 872 141 885 Q157 901 179 910.5 Q201 920 224 920 Q263 920 312 894 Q348 876 357 872.5 Q366 869 376 869 Q393 869 405.5 880 Q418 891 437 922 L499 870 Q453 776 373 776 Q353 776 336.5 781 Q320 786 284 803 Q235 826 217 826 Q202 826 189.5 814.5 Q177 803 163 775 L98 829 Z M479 607 L403 549 L305 641 L209 549 L134 607 L305 764 L479 607 Z M529 0 L419 0 L419 50 Q381 14 348.5 -0.5 Q316 -15 273 -15 Q208 -15 156.5 18 Q105 51 75.5 108.5 Q46 166 46 238 Q46 309 75 366 Q104 423 155.5 455.5 Q207 488 270 488 Q316 488 350 472.5 Q384 457 419 420 L419 476 L529 476 L529 0 Z M290 390 Q253 390 223 370 Q193 350 175.5 315.5 Q158 281 158 238 Q158 170 194.5 127 Q231 84 289 84 Q350 84 388 126 Q426 168 426 236 Q426 304 388.5 347 Q351 390 290 390 Z " />
<glyph glyph-name="uni1EAD" unicode="&#x1ead;" horiz-adv-x="599" d="M479 607 L403 549 L305 641 L209 549 L134 607 L305 764 L479 607 Z M529 0 L419 0 L419 50 Q381 14 348.5 -0.5 Q316 -15 273 -15 Q208 -15 156.5 18 Q105 51 75.5 108.5 Q46 166 46 238 Q46 309 75 366 Q104 423 155.5 455.5 Q207 488 270 488 Q316 488 350 472.5 Q384 457 419 420 L419 476 L529 476 L529 0 Z M290 390 Q253 390 223 370 Q193 350 175.5 315.5 Q158 281 158 238 Q158 170 194.5 127 Q231 84 289 84 Q350 84 388 126 Q426 168 426 236 Q426 304 388.5 347 Q351 390 290 390 Z M298 -43 Q327 -43 346.5 -63 Q366 -83 366 -111 Q366 -140 346 -160 Q326 -180 298 -180 Q270 -180 250.5 -160 Q231 -140 231 -111 Q231 -83 250.5 -63 Q270 -43 298 -43 Z " />
<glyph glyph-name="uni1EAF" unicode="&#x1eaf;" horiz-adv-x="599" d="M251 706 L385 885 L488 831 L311 670 L251 706 Z M215 713 Q221 674 241.5 655 Q262 636 299 636 Q336 636 357 655 Q378 674 384 713 L475 713 Q471 677 463.5 656.5 Q456 636 440 614 Q415 582 378.5 565.5 Q342 549 297 549 Q209 549 158 614 Q142 636 134.5 657 Q127 678 124 713 L215 713 Z M529 0 L419 0 L419 50 Q381 14 348.5 -0.5 Q316 -15 273 -15 Q208 -15 156.5 18 Q105 51 75.5 108.5 Q46 166 46 238 Q46 309 75 366 Q104 423 155.5 455.5 Q207 488 270 488 Q316 488 350 472.5 Q384 457 419 420 L419 476 L529 476 L529 0 Z M290 390 Q253 390 223 370 Q193 350 175.5 315.5 Q158 281 158 238 Q158 170 194.5 127 Q231 84 289 84 Q350 84 388 126 Q426 168 426 236 Q426 304 388.5 347 Q351 390 290 390 Z " />
<glyph glyph-name="uni1EB1" unicode="&#x1eb1;" horiz-adv-x="599" d="M348 714 L288 678 L111 838 L214 893 L348 714 Z M215 713 Q221 674 241.5 655 Q262 636 299 636 Q336 636 357 655 Q378 674 384 713 L475 713 Q471 677 463.5 656.5 Q456 636 440 614 Q415 582 378.5 565.5 Q342 549 297 549 Q209 549 158 614 Q142 636 134.5 657 Q127 678 124 713 L215 713 Z M529 0 L419 0 L419 50 Q381 14 348.5 -0.5 Q316 -15 273 -15 Q208 -15 156.5 18 Q105 51 75.5 108.5 Q46 166 46 238 Q46 309 75 366 Q104 423 155.5 455.5 Q207 488 270 488 Q316 488 350 472.5 Q384 457 419 420 L419 476 L529 476 L529 0 Z M290 390 Q253 390 223 370 Q193 350 175.5 315.5 Q158 281 158 238 Q158 170 194.5 127 Q231 84 289 84 Q350 84 388 126 Q426 168 426 236 Q426 304 388.5 347 Q351 390 290 390 Z " />
<glyph glyph-name="uni1EB3" unicode="&#x1eb3;" horiz-adv-x="599" d="M268 774 L276 776 L310 782 Q343 787 354 793.5 Q365 800 365 817 Q365 836 351.5 846.5 Q338 857 313 857 Q298 857 293 855.5 Q288 854 271 844 L247 833 L227 884 L234 887 L237 888 Q289 909 336 909 Q386 909 418.5 882 Q451 855 451 814 Q451 777 425 755.5 Q399 734 354 734 L328 734 L328 692 L268 692 L268 774 Z M215 713 Q221 674 241.5 655 Q262 636 299 636 Q336 636 357 655 Q378 674 384 713 L475 713 Q471 677 463.5 656.5 Q456 636 440 614 Q415 582 378.5 565.5 Q342 549 297 549 Q209 549 158 614 Q142 636 134.5 657 Q127 678 124 713 L215 713 Z M529 0 L419 0 L419 50 Q381 14 348.5 -0.5 Q316 -15 273 -15 Q208 -15 156.5 18 Q105 51 75.5 108.5 Q46 166 46 238 Q46 309 75 366 Q104 423 155.5 455.5 Q207 488 270 488 Q316 488 350 472.5 Q384 457 419 420 L419 476 L529 476 L529 0 Z M290 390 Q253 390 223 370 Q193 350 175.5 315.5 Q158 281 158 238 Q158 170 194.5 127 Q231 84 289 84 Q350 84 388 126 Q426 168 426 236 Q426 304 388.5 347 Q351 390 290 390 Z " />
<glyph glyph-name="uni1EB5" unicode="&#x1eb5;" horiz-adv-x="599" d="M98 792 Q130 835 141 847 Q157 864 179 873.5 Q201 883 224 883 Q263 883 312 857 Q348 839 357 835.5 Q366 832 376 832 Q393 832 405.5 843 Q418 854 437 885 L499 833 Q476 785 445 762 Q414 739 373 739 Q353 739 336.5 744 Q320 749 284 766 Q235 789 217 789 Q202 789 189.5 777.5 Q177 766 163 738 L98 792 Z M215 713 Q221 674 241.5 655 Q262 636 299 636 Q336 636 357 655 Q378 674 384 713 L475 713 Q471 677 463.5 656.5 Q456 636 440 614 Q415 582 378.5 565.5 Q342 549 297 549 Q209 549 158 614 Q142 636 134.5 657 Q127 678 124 713 L215 713 Z M529 0 L419 0 L419 50 Q381 14 348.5 -0.5 Q316 -15 273 -15 Q208 -15 156.5 18 Q105 51 75.5 108.5 Q46 166 46 238 Q46 309 75 366 Q104 423 155.5 455.5 Q207 488 270 488 Q316 488 350 472.5 Q384 457 419 420 L419 476 L529 476 L529 0 Z M290 390 Q253 390 223 370 Q193 350 175.5 315.5 Q158 281 158 238 Q158 170 194.5 127 Q231 84 289 84 Q350 84 388 126 Q426 168 426 236 Q426 304 388.5 347 Q351 390 290 390 Z " />
<glyph glyph-name="uni1EB7" unicode="&#x1eb7;" horiz-adv-x="599" d="M215 713 Q221 674 241.5 655 Q262 636 299 636 Q336 636 357 655 Q378 674 384 713 L475 713 Q471 677 463.5 656.5 Q456 636 440 614 Q415 582 378.5 565.5 Q342 549 297 549 Q209 549 158 614 Q142 636 134.5 657 Q127 678 124 713 L215 713 Z M529 0 L419 0 L419 50 Q381 14 348.5 -0.5 Q316 -15 273 -15 Q208 -15 156.5 18 Q105 51 75.5 108.5 Q46 166 46 238 Q46 309 75 366 Q104 423 155.5 455.5 Q207 488 270 488 Q316 488 350 472.5 Q384 457 419 420 L419 476 L529 476 L529 0 Z M290 390 Q253 390 223 370 Q193 350 175.5 315.5 Q158 281 158 238 Q158 170 194.5 127 Q231 84 289 84 Q350 84 388 126 Q426 168 426 236 Q426 304 388.5 347 Q351 390 290 390 Z M298 -43 Q327 -43 346.5 -63 Q366 -83 366 -111 Q366 -140 346 -160 Q326 -180 298 -180 Q270 -180 250.5 -160 Q231 -140 231 -111 Q231 -83 250.5 -63 Q270 -43 298 -43 Z " />
<glyph glyph-name="uni1EB9" unicode="&#x1eb9;" horiz-adv-x="553" d="M162 211 Q166 153 199 118.5 Q232 84 285 84 Q326 84 353.5 103.5 Q381 123 414 176 L506 124 Q487 91 473.5 74.5 Q460 58 442 43 Q411 15 368.5 0 Q326 -15 281 -15 Q211 -15 158 16 Q105 47 75.5 104 Q46 161 46 236 Q46 311 74.5 368 Q103 425 155.5 456.5 Q208 488 276 488 Q335 488 385 462.5 Q435 437 463 394 Q482 365 492 324 Q502 283 502 237 L502 211 L162 211 Z M389 301 Q378 343 349 366 Q320 389 278 389 Q238 389 208 365 Q178 341 168 301 L389 301 Z M275 -43 Q303 -43 322.5 -63 Q342 -83 342 -111 Q342 -140 322.5 -160 Q303 -180 275 -180 Q247 -180 227 -160 Q207 -140 207 -111 Q207 -83 227 -63 Q247 -43 275 -43 Z " />
<glyph glyph-name="uni1EBB" unicode="&#x1ebb;" horiz-adv-x="553" d="M226 642 L268 649 Q301 654 312 661 Q323 668 323 685 Q323 704 309.5 714 Q296 724 271 724 Q256 724 251 722.5 Q246 721 229 712 L206 701 L185 751 L192 755 L195 756 Q246 776 294 776 Q345 776 377 749.5 Q409 723 409 681 Q409 644 383.5 623 Q358 602 312 602 L286 602 L286 559 L226 559 L226 642 Z M162 211 Q166 153 199 118.5 Q232 84 285 84 Q326 84 353.5 103.5 Q381 123 414 176 L506 124 Q487 91 473.5 74.5 Q460 58 442 43 Q411 15 368.5 0 Q326 -15 281 -15 Q211 -15 158 16 Q105 47 75.5 104 Q46 161 46 236 Q46 311 74.5 368 Q103 425 155.5 456.5 Q208 488 276 488 Q335 488 385 462.5 Q435 437 463 394 Q482 365 492 324 Q502 283 502 237 L502 211 L162 211 Z M389 301 Q378 343 349 366 Q320 389 278 389 Q238 389 208 365 Q178 341 168 301 L389 301 Z " />
<glyph glyph-name="uni1EBD" unicode="&#x1ebd;" horiz-adv-x="553" d="M88 627 Q107 655 119 667 Q133 683 155.5 692.5 Q178 702 200 702 Q239 702 288 676 Q325 657 334 653.5 Q343 650 354 650 Q370 650 383.5 661.5 Q397 673 415 703 L477 651 Q452 602 421.5 579.5 Q391 557 349 557 Q330 557 313 562.5 Q296 568 260 585 Q213 608 194 608 Q179 608 166.5 596 Q154 584 140 556 L76 610 L88 627 Z M162 211 Q166 153 199 118.5 Q232 84 285 84 Q326 84 353.5 103.5 Q381 123 414 176 L506 124 Q487 91 473.5 74.5 Q460 58 442 43 Q411 15 368.5 0 Q326 -15 281 -15 Q211 -15 158 16 Q105 47 75.5 104 Q46 161 46 236 Q46 311 74.5 368 Q103 425 155.5 456.5 Q208 488 276 488 Q335 488 385 462.5 Q435 437 463 394 Q482 365 492 324 Q502 283 502 237 L502 211 L162 211 Z M389 301 Q378 343 349 366 Q320 389 278 389 Q238 389 208 365 Q178 341 168 301 L389 301 Z " />
<glyph glyph-name="uni1EBF" unicode="&#x1ebf;" horiz-adv-x="553" d="M579 779 L421 635 L452 607 L377 548 L279 641 L182 548 L107 607 L279 763 L365 685 L476 832 L579 779 Z M162 211 Q166 153 199 118.5 Q232 84 285 84 Q326 84 353.5 103.5 Q381 123 414 176 L506 124 Q487 91 473.5 74.5 Q460 58 442 43 Q411 15 368.5 0 Q326 -15 281 -15 Q211 -15 158 16 Q105 47 75.5 104 Q46 161 46 236 Q46 311 74.5 368 Q103 425 155.5 456.5 Q208 488 276 488 Q335 488 385 462.5 Q435 437 463 394 Q482 365 492 324 Q502 283 502 237 L502 211 L162 211 Z M389 301 Q378 343 349 366 Q320 389 278 389 Q238 389 208 365 Q178 341 168 301 L389 301 Z " />
<glyph glyph-name="uni1EC1" unicode="&#x1ec1;" horiz-adv-x="553" d="M539 695 L485 650 L286 784 L382 852 L539 695 Z M454 602 L380 545 L281 637 L184 545 L110 602 L281 759 L454 602 Z M162 211 Q166 153 199 118.5 Q232 84 285 84 Q326 84 353.5 103.5 Q381 123 414 176 L506 124 Q487 91 473.5 74.5 Q460 58 442 43 Q411 15 368.5 0 Q326 -15 281 -15 Q211 -15 158 16 Q105 47 75.5 104 Q46 161 46 236 Q46 311 74.5 368 Q103 425 155.5 456.5 Q208 488 276 488 Q335 488 385 462.5 Q435 437 463 394 Q482 365 492 324 Q502 283 502 237 L502 211 L162 211 Z M389 301 Q378 343 349 366 Q320 389 278 389 Q238 389 208 365 Q178 341 168 301 L389 301 Z " />
<glyph glyph-name="uni1EC3" unicode="&#x1ec3;" horiz-adv-x="553" d="M397 729 Q424 733 431 733 Q464 738 475 745.5 Q486 753 486 770 Q486 788 472.5 798.5 Q459 809 434 809 Q419 809 414 807.5 Q409 806 392 797 L379 791 L375 789 L368 785 L348 836 L355 840 L358 841 Q412 861 457 861 Q507 861 539.5 834.5 Q572 808 572 766 Q572 729 546.5 708 Q521 687 475 687 L449 687 L449 644 L410 644 L452 606 L377 548 L279 641 L182 548 L107 606 L279 763 L389 663 L389 727 L397 729 Z M162 211 Q166 153 199 118.5 Q232 84 285 84 Q326 84 353.5 103.5 Q381 123 414 176 L506 124 Q487 91 473.5 74.5 Q460 58 442 43 Q411 15 368.5 0 Q326 -15 281 -15 Q211 -15 158 16 Q105 47 75.5 104 Q46 161 46 236 Q46 311 74.5 368 Q103 425 155.5 456.5 Q208 488 276 488 Q335 488 385 462.5 Q435 437 463 394 Q482 365 492 324 Q502 283 502 237 L502 211 L162 211 Z M389 301 Q378 343 349 366 Q320 389 278 389 Q238 389 208 365 Q178 341 168 301 L389 301 Z " />
<glyph glyph-name="uni1EC5" unicode="&#x1ec5;" horiz-adv-x="553" d="M76 826 Q92 850 101 862 Q110 874 119 883 Q133 899 155 908.5 Q177 918 200 918 Q239 918 288 892 Q325 873 334 869.5 Q343 866 354 866 Q370 866 383.5 877.5 Q397 889 415 919 L477 867 Q452 818 421.5 795.5 Q391 773 349 773 Q329 773 312 778 Q295 783 260 801 Q213 824 194 824 Q179 824 166.5 812 Q154 800 140 772 L76 826 Z M452 607 L377 549 L279 641 L182 549 L107 607 L279 764 L452 607 Z M162 211 Q166 153 199 118.5 Q232 84 285 84 Q326 84 353.5 103.5 Q381 123 414 176 L506 124 Q487 91 473.5 74.5 Q460 58 442 43 Q411 15 368.5 0 Q326 -15 281 -15 Q211 -15 158 16 Q105 47 75.5 104 Q46 161 46 236 Q46 311 74.5 368 Q103 425 155.5 456.5 Q208 488 276 488 Q335 488 385 462.5 Q435 437 463 394 Q482 365 492 324 Q502 283 502 237 L502 211 L162 211 Z M389 301 Q378 343 349 366 Q320 389 278 389 Q238 389 208 365 Q178 341 168 301 L389 301 Z " />
<glyph glyph-name="uni1EC7" unicode="&#x1ec7;" horiz-adv-x="553" d="M452 607 L377 549 L279 641 L182 549 L107 607 L279 764 L452 607 Z M162 211 Q166 153 199 118.5 Q232 84 285 84 Q326 84 353.5 103.5 Q381 123 414 176 L506 124 Q487 91 473.5 74.5 Q460 58 442 43 Q411 15 368.5 0 Q326 -15 281 -15 Q211 -15 158 16 Q105 47 75.5 104 Q46 161 46 236 Q46 311 74.5 368 Q103 425 155.5 456.5 Q208 488 276 488 Q335 488 385 462.5 Q435 437 463 394 Q482 365 492 324 Q502 283 502 237 L502 211 L162 211 Z M389 301 Q378 343 349 366 Q320 389 278 389 Q238 389 208 365 Q178 341 168 301 L389 301 Z M275 -43 Q303 -43 322.5 -63 Q342 -83 342 -111 Q342 -140 322.5 -160 Q303 -180 275 -180 Q247 -180 227 -160 Q207 -140 207 -111 Q207 -83 227 -63 Q247 -43 275 -43 Z " />
<glyph glyph-name="uni1EC9" unicode="&#x1ec9;" horiz-adv-x="249" d="M95 625 Q127 631 137 632 Q170 637 181 644 Q192 651 192 668 Q192 687 178.5 697 Q165 707 140 707 Q125 707 120 705.5 Q115 704 98 695 L75 684 L54 734 L61 738 L64 739 Q114 759 163 759 Q214 759 246 732.5 Q278 706 278 664 Q278 627 252.5 606 Q227 585 181 585 L155 585 L155 542 L95 542 L95 625 Z M69 0 L69 476 L179 476 L179 0 L69 0 Z " />
<glyph glyph-name="uni1ECB" unicode="&#x1ecb;" horiz-adv-x="249" d="M124 745 Q155 745 176 724 Q197 703 197 673 Q197 644 176 622.5 Q155 601 125 601 Q95 601 74 622.5 Q53 644 53 673 Q53 702 74 723.5 Q95 745 124 745 Z M70 0 L70 476 L180 476 L180 0 L70 0 Z M124 -43 Q153 -43 172.5 -63 Q192 -83 192 -111 Q192 -140 172 -160 Q152 -180 124 -180 Q96 -180 76 -159.5 Q56 -139 56 -111 Q56 -83 76 -63 Q96 -43 124 -43 Z " />
<glyph glyph-name="uni1ECD" unicode="&#x1ecd;" horiz-adv-x="600" d="M299 488 Q370 488 428.5 455 Q487 422 520.5 364.5 Q554 307 554 237 Q554 167 520.5 109.5 Q487 52 428 18.5 Q369 -15 298 -15 Q228 -15 170.5 18.5 Q113 52 79.5 111 Q46 170 46 241 Q46 308 80 364.5 Q114 421 172 454.5 Q230 488 299 488 Z M299 390 Q236 390 197 348 Q158 306 158 238 Q158 168 196.5 126 Q235 84 299 84 Q363 84 402.5 126 Q442 168 442 236 Q442 306 403 348 Q364 390 299 390 Z M299 -43 Q328 -43 347.5 -63 Q367 -83 367 -111 Q367 -140 347 -160 Q327 -180 299 -180 Q271 -180 251.5 -160 Q232 -140 232 -111 Q232 -83 251.5 -63 Q271 -43 299 -43 Z " />
<glyph glyph-name="uni1ECF" unicode="&#x1ecf;" horiz-adv-x="600" d="M272 627 Q277 628 290 630.5 Q303 633 314 634 Q348 639 359 646 Q370 653 370 670 Q370 689 356 699.5 Q342 710 318 710 Q302 710 297 708.5 Q292 707 276 697 L252 686 L232 737 L238 740 L242 741 Q294 762 340 762 Q391 762 423 735 Q455 708 455 667 Q455 630 429.5 609 Q404 588 358 588 L332 588 L332 545 L272 545 L272 627 Z M299 488 Q370 488 428.5 455 Q487 422 520.5 364.5 Q554 307 554 237 Q554 167 520.5 109.5 Q487 52 428 18.5 Q369 -15 298 -15 Q228 -15 170.5 18.5 Q113 52 79.5 111 Q46 170 46 241 Q46 308 80 364.5 Q114 421 172 454.5 Q230 488 299 488 Z M299 390 Q236 390 197 348 Q158 306 158 238 Q158 168 196.5 126 Q235 84 299 84 Q363 84 402.5 126 Q442 168 442 236 Q442 306 403 348 Q364 390 299 390 Z " />
<glyph glyph-name="uni1ED1" unicode="&#x1ed1;" horiz-adv-x="600" d="M621 766 L459 618 L472 607 L397 548 L298 641 L202 548 L128 607 L298 763 L405 668 L519 820 L621 766 Z M299 488 Q370 488 428.5 455 Q487 422 520.5 364.5 Q554 307 554 237 Q554 167 520.5 109.5 Q487 52 428 18.5 Q369 -15 298 -15 Q228 -15 170.5 18.5 Q113 52 79.5 111 Q46 170 46 241 Q46 308 80 364.5 Q114 421 172 454.5 Q230 488 299 488 Z M299 390 Q236 390 197 348 Q158 306 158 238 Q158 168 196.5 126 Q235 84 299 84 Q363 84 402.5 126 Q442 168 442 236 Q442 306 403 348 Q364 390 299 390 Z " />
<glyph glyph-name="uni1ED3" unicode="&#x1ed3;" horiz-adv-x="600" d="M558 689 L504 644 L305 779 L402 846 L558 689 Z M475 597 L399 539 L301 631 L203 539 L130 597 L301 753 L475 597 Z M297 488 Q369 488 428 455 Q487 422 520.5 364.5 Q554 307 554 237 Q554 167 520.5 109.5 Q487 52 428.5 18.5 Q370 -15 299 -15 Q230 -15 172 18.5 Q114 52 80 109 Q46 166 46 233 Q46 304 79.5 362.5 Q113 421 170.5 454.5 Q228 488 297 488 Z M299 390 Q236 390 197 348 Q158 306 158 238 Q158 168 196.5 126 Q235 84 299 84 Q363 84 402.5 126 Q442 168 442 236 Q442 306 403 348 Q364 390 299 390 Z " />
<glyph glyph-name="uni1ED5" unicode="&#x1ed5;" horiz-adv-x="600" d="M427 712 Q449 715 461 718 Q494 722 505 729.5 Q516 737 516 754 Q516 773 502.5 783 Q489 793 464 793 Q449 793 444 791.5 Q439 790 423 781 L399 770 L379 820 L389 825 Q446 845 487 845 Q538 845 570 818.5 Q602 792 602 749 Q602 712 576.5 691 Q551 670 505 670 L479 671 L479 628 L449 628 L472 607 L397 548 L299 641 L202 548 L128 607 L298 763 L419 654 L419 711 L427 712 Z M297 488 Q369 488 428 455 Q487 422 520.5 364.5 Q554 307 554 237 Q554 167 520.5 109.5 Q487 52 428.5 18.5 Q370 -15 299 -15 Q230 -15 172 18.5 Q114 52 80 109 Q46 166 46 233 Q46 304 79.5 362.5 Q113 421 170.5 454.5 Q228 488 297 488 Z M299 390 Q236 390 197 348 Q158 306 158 238 Q158 168 196.5 126 Q235 84 299 84 Q363 84 402.5 126 Q442 168 442 236 Q442 306 403 348 Q364 390 299 390 Z " />
<glyph glyph-name="uni1ED7" unicode="&#x1ed7;" horiz-adv-x="600" d="M99 819 Q129 862 142 876 Q158 892 180 901.5 Q202 911 224 911 Q263 911 312 885 Q348 867 357 863.5 Q366 860 377 860 Q394 860 407 871 Q420 882 438 912 L501 860 Q476 812 445 789.5 Q414 767 373 767 Q354 767 336.5 772 Q319 777 284 794 Q237 817 218 817 Q203 817 190.5 805 Q178 793 164 765 L99 819 Z M472 607 L397 549 L298 641 L202 549 L128 607 L298 764 L472 607 Z M299 488 Q370 488 428.5 455 Q487 422 520.5 364.5 Q554 307 554 237 Q554 167 520.5 109.5 Q487 52 428 18.5 Q369 -15 298 -15 Q228 -15 170.5 18.5 Q113 52 79.5 111 Q46 170 46 241 Q46 308 80 364.5 Q114 421 172 454.5 Q230 488 299 488 Z M299 390 Q236 390 197 348 Q158 306 158 238 Q158 168 196.5 126 Q235 84 299 84 Q363 84 402.5 126 Q442 168 442 236 Q442 306 403 348 Q364 390 299 390 Z " />
<glyph glyph-name="uni1ED9" unicode="&#x1ed9;" horiz-adv-x="600" d="M472 607 L397 549 L298 641 L202 549 L128 607 L298 764 L472 607 Z M299 488 Q370 488 428.5 455 Q487 422 520.5 364.5 Q554 307 554 237 Q554 167 520.5 109.5 Q487 52 428 18.5 Q369 -15 298 -15 Q228 -15 170.5 18.5 Q113 52 79.5 111 Q46 170 46 241 Q46 308 80 364.5 Q114 421 172 454.5 Q230 488 299 488 Z M299 390 Q236 390 197 348 Q158 306 158 238 Q158 168 196.5 126 Q235 84 299 84 Q363 84 402.5 126 Q442 168 442 236 Q442 306 403 348 Q364 390 299 390 Z M299 -43 Q328 -43 347.5 -63 Q367 -83 367 -111 Q367 -140 347 -160 Q327 -180 299 -180 Q271 -180 251.5 -160 Q232 -140 232 -111 Q232 -83 251.5 -63 Q271 -43 299 -43 Z " />
<glyph glyph-name="uni1EDB" unicode="&#x1edb;" horiz-adv-x="600" d="M249 585 L383 764 L486 710 L310 549 L249 585 Z M621 497 L536 331 Q554 283 554 237 Q554 168 520.5 110 Q487 52 429 18.5 Q371 -15 301 -15 Q230 -15 171.5 18.5 Q113 52 79.5 109.5 Q46 167 46 237 Q46 307 79.5 364.5 Q113 422 171 455 Q229 488 299 488 Q355 488 403.5 467.5 Q452 447 488 407 L537 530 L621 497 Z M299 390 Q236 390 197 348 Q158 306 158 238 Q158 168 196.5 126 Q235 84 299 84 Q363 84 402.5 126 Q442 168 442 236 Q442 306 403 348 Q364 390 299 390 Z " />
<glyph glyph-name="uni1EDD" unicode="&#x1edd;" horiz-adv-x="600" d="M350 585 L290 549 L113 710 L217 764 L350 585 Z M621 497 L536 331 Q554 283 554 237 Q554 168 520.5 110 Q487 52 429 18.5 Q371 -15 301 -15 Q230 -15 171.5 18.5 Q113 52 79.5 109.5 Q46 167 46 237 Q46 307 79.5 364.5 Q113 422 171 455 Q229 488 299 488 Q355 488 403.5 467.5 Q452 447 488 407 L537 530 L621 497 Z M299 390 Q236 390 197 348 Q158 306 158 238 Q158 168 196.5 126 Q235 84 299 84 Q363 84 402.5 126 Q442 168 442 236 Q442 306 403 348 Q364 390 299 390 Z " />
<glyph glyph-name="uni1EDF" unicode="&#x1edf;" horiz-adv-x="600" d="M269 678 L277 680 Q303 685 311 685 Q345 690 355.5 697 Q366 704 366 721 Q366 740 352.5 750 Q339 760 314 760 Q299 760 294 758.5 Q289 757 272 748 L249 737 L228 788 L235 791 L238 792 Q288 812 337 812 Q388 812 420 785.5 Q452 759 452 718 Q452 680 426.5 659 Q401 638 355 638 L329 638 L329 596 L269 596 L269 678 Z M621 497 L536 331 Q554 283 554 237 Q554 168 520.5 110 Q487 52 429 18.5 Q371 -15 301 -15 Q230 -15 171.5 18.5 Q113 52 79.5 109.5 Q46 167 46 237 Q46 307 79.5 364.5 Q113 422 171 455 Q229 488 299 488 Q355 488 403.5 467.5 Q452 447 488 407 L537 530 L621 497 Z M299 390 Q236 390 197 348 Q158 306 158 238 Q158 168 196.5 126 Q235 84 299 84 Q363 84 402.5 126 Q442 168 442 236 Q442 306 403 348 Q364 390 299 390 Z " />
<glyph glyph-name="uni1EE1" unicode="&#x1ee1;" horiz-adv-x="600" d="M99 610 Q130 653 142 667 Q157 683 179.5 692.5 Q202 702 224 702 Q263 702 312 676 Q348 657 357 653.5 Q366 650 377 650 Q394 650 407 661.5 Q420 673 438 703 L501 651 Q476 602 445 579.5 Q414 557 373 557 Q354 557 337 562.5 Q320 568 284 585 Q237 608 218 608 Q203 608 190.5 596 Q178 584 164 556 L99 610 Z M621 497 L536 331 Q554 283 554 237 Q554 168 520.5 110 Q487 52 429 18.5 Q371 -15 301 -15 Q230 -15 171.5 18.5 Q113 52 79.5 109.5 Q46 167 46 237 Q46 307 79.5 364.5 Q113 422 171 455 Q229 488 299 488 Q355 488 403.5 467.5 Q452 447 488 407 L537 530 L621 497 Z M299 390 Q236 390 197 348 Q158 306 158 238 Q158 168 196.5 126 Q235 84 299 84 Q363 84 402.5 126 Q442 168 442 236 Q442 306 403 348 Q364 390 299 390 Z " />
<glyph glyph-name="uni1EE3" unicode="&#x1ee3;" horiz-adv-x="600" d="M621 497 L536 331 Q554 283 554 237 Q554 168 520.5 110 Q487 52 429 18.5 Q371 -15 301 -15 Q230 -15 171.5 18.5 Q113 52 79.5 109.5 Q46 167 46 237 Q46 307 79.5 364.5 Q113 422 171 455 Q229 488 299 488 Q355 488 403.5 467.5 Q452 447 488 407 L537 530 L621 497 Z M299 390 Q236 390 197 348 Q158 306 158 238 Q158 168 196.5 126 Q235 84 299 84 Q363 84 402.5 126 Q442 168 442 236 Q442 306 403 348 Q364 390 299 390 Z M299 -43 Q328 -43 347.5 -63 Q367 -83 367 -111 Q367 -140 347 -160 Q327 -180 299 -180 Q271 -180 251.5 -160 Q232 -140 232 -111 Q232 -83 251.5 -63 Q271 -43 299 -43 Z " />
<glyph glyph-name="uni1EE5" unicode="&#x1ee5;" horiz-adv-x="545" d="M475 476 L475 0 L365 0 L365 41 Q341 14 308.5 -0.5 Q276 -15 240 -15 Q153 -15 106 42 Q84 70 76.5 105.5 Q69 141 69 200 L69 476 L179 476 L179 197 Q179 135 200 109.5 Q221 84 270 84 Q318 84 341.5 113 Q365 142 365 202 L365 476 L475 476 Z M271 -43 Q299 -43 319 -63 Q339 -83 339 -111 Q339 -139 319 -159.5 Q299 -180 271 -180 Q243 -180 223 -159.5 Q203 -139 203 -111 Q203 -83 223 -63 Q243 -43 271 -43 Z " />
<glyph glyph-name="uni1EE7" unicode="&#x1ee7;" horiz-adv-x="545" d="M475 476 L475 0 L365 0 L365 41 Q341 14 308.5 -0.5 Q276 -15 240 -15 Q153 -15 106 42 Q84 70 76.5 105.5 Q69 141 69 200 L69 476 L179 476 L179 197 Q179 135 200 109.5 Q221 84 270 84 Q318 84 341.5 113 Q365 142 365 202 L365 476 L475 476 Z M244 640 Q268 645 286 646 Q319 651 330 658.5 Q341 666 341 683 Q341 701 327.5 711.5 Q314 722 289 722 Q274 722 268.5 720.5 Q263 719 247 710 L224 698 L203 749 L210 753 L214 754 Q268 774 312 774 Q363 774 395 747 Q427 720 427 679 Q427 642 401.5 621 Q376 600 330 600 L304 600 L304 557 L244 557 L244 640 Z " />
<glyph glyph-name="uni1EE9" unicode="&#x1ee9;" horiz-adv-x="545" d="M650 462 L558 286 L493 313 L566 495 L650 462 Z M365 476 L475 476 L475 0 L365 0 L365 41 Q341 14 308.5 -0.5 Q276 -15 240 -15 Q153 -15 106 42 Q84 70 76.5 105.5 Q69 141 69 200 L69 476 L179 476 L179 197 Q179 135 200 109.5 Q221 84 270 84 Q318 84 341.5 113 Q365 142 365 202 L365 476 Z M222 585 L356 764 L459 710 L282 549 L222 585 Z " />
<glyph glyph-name="uni1EEB" unicode="&#x1eeb;" horiz-adv-x="545" d="M650 462 L558 286 L493 313 L566 495 L650 462 Z M365 476 L475 476 L475 0 L365 0 L365 41 Q341 14 308.5 -0.5 Q276 -15 240 -15 Q153 -15 106 42 Q84 70 76.5 105.5 Q69 141 69 200 L69 476 L179 476 L179 197 Q179 135 200 109.5 Q221 84 270 84 Q318 84 341.5 113 Q365 142 365 202 L365 476 Z M323 585 L263 549 L86 710 L189 764 L323 585 Z " />
<glyph glyph-name="uni1EED" unicode="&#x1eed;" horiz-adv-x="545" d="M650 462 L558 286 L493 313 L566 495 L650 462 Z M365 476 L475 476 L475 0 L365 0 L365 41 Q341 14 308.5 -0.5 Q276 -15 240 -15 Q153 -15 106 42 Q84 70 76.5 105.5 Q69 141 69 200 L69 476 L179 476 L179 197 Q179 135 200 109.5 Q221 84 270 84 Q318 84 341.5 113 Q365 142 365 202 L365 476 Z M244 640 Q268 645 286 646 Q319 651 330 658.5 Q341 666 341 683 Q341 701 327.5 711.5 Q314 722 289 722 Q274 722 268.5 720.5 Q263 719 247 710 L224 698 L203 749 L210 753 L214 754 Q268 774 312 774 Q363 774 395 747 Q427 720 427 679 Q427 642 401.5 621 Q376 600 330 600 L304 600 L304 557 L244 557 L244 640 Z " />
<glyph glyph-name="uni1EEF" unicode="&#x1eef;" horiz-adv-x="545" d="M650 462 L558 286 L493 313 L566 495 L650 462 Z M365 476 L475 476 L475 0 L365 0 L365 41 Q341 14 308.5 -0.5 Q276 -15 240 -15 Q153 -15 106 42 Q84 70 76.5 105.5 Q69 141 69 200 L69 476 L179 476 L179 197 Q179 135 200 109.5 Q221 84 270 84 Q318 84 341.5 113 Q365 142 365 202 L365 476 Z M71 610 Q80 622 84.5 629 Q89 636 92 640 Q92 640 113 667 Q129 683 151.5 692.5 Q174 702 196 702 Q235 702 284 676 Q321 657 330 653.5 Q339 650 349 650 Q366 650 379 661.5 Q392 673 410 703 L473 651 Q448 602 417 579.5 Q386 557 345 557 Q326 557 309 562.5 Q292 568 256 585 Q209 608 190 608 Q175 608 162.5 596 Q150 584 135 556 L71 610 Z " />
<glyph glyph-name="uni1EF1" unicode="&#x1ef1;" horiz-adv-x="545" d="M650 462 L558 286 L493 313 L566 495 L650 462 Z M365 476 L475 476 L475 0 L365 0 L365 41 Q341 14 308.5 -0.5 Q276 -15 240 -15 Q153 -15 106 42 Q84 70 76.5 105.5 Q69 141 69 200 L69 476 L179 476 L179 197 Q179 135 200 109.5 Q221 84 270 84 Q318 84 341.5 113 Q365 142 365 202 L365 476 Z M271 -43 Q299 -43 319 -63 Q339 -83 339 -111 Q339 -139 319 -159.5 Q299 -180 271 -180 Q243 -180 223 -159.5 Q203 -139 203 -111 Q203 -83 223 -63 Q243 -43 271 -43 Z " />
<glyph glyph-name="uni1EF5" unicode="&#x1ef5;" horiz-adv-x="542" d="M133 476 L278 202 L414 476 L538 476 L159 -259 L34 -259 L219 89 L6 476 L133 476 Z M312 -130 Q340 -130 360 -150 Q380 -170 380 -198 Q380 -226 360 -246.5 Q340 -267 312 -267 Q284 -267 264 -246.5 Q244 -226 244 -198 Q244 -170 264 -150 Q284 -130 312 -130 Z " />
<glyph glyph-name="uni1EF7" unicode="&#x1ef7;" horiz-adv-x="542" d="M241 642 L249 644 Q276 649 283 649 Q316 654 327 661 Q338 668 338 685 Q338 704 324.5 714 Q311 724 286 724 Q271 724 266 722.5 Q261 721 244 712 L231 706 L227 704 L220 701 L200 751 L207 755 L210 756 Q260 776 308 776 Q359 776 391.5 749.5 Q424 723 424 681 Q424 644 398.5 623 Q373 602 327 602 L301 602 L301 559 L241 559 L241 642 Z M133 476 L278 202 L414 476 L538 476 L159 -259 L34 -259 L219 89 L6 476 L133 476 Z " />
<glyph glyph-name="uni1EF9" unicode="&#x1ef9;" horiz-adv-x="542" d="M71 610 Q96 646 114 667 Q128 683 150.5 692.5 Q173 702 195 702 Q234 702 285 676 Q319 658 329 654 Q339 650 349 650 Q366 650 378.5 661 Q391 672 410 703 L472 651 Q449 603 418 580 Q387 557 345 557 Q326 557 309.5 562.5 Q293 568 257 585 Q208 608 190 608 Q175 608 163 596 Q151 584 136 556 L71 610 Z M133 476 L278 202 L414 476 L538 476 L159 -259 L34 -259 L219 89 L6 476 L133 476 Z " />
<glyph glyph-name="uogonek" unicode="&#x173;" horiz-adv-x="545" d="M436 -131 Q464 -131 497 -122 L487 -192 Q468 -204 451.5 -209 Q435 -214 415 -214 Q369 -214 337.5 -187.5 Q306 -161 306 -123 Q306 -88 325.5 -60 Q345 -32 392 0 L365 0 L365 41 Q341 14 308.5 -0.5 Q276 -15 240 -15 Q153 -15 106 42 Q84 70 76.5 105.5 Q69 141 69 200 L69 476 L179 476 L179 197 Q179 135 200 109.5 Q221 84 270 84 Q318 84 341.5 113 Q365 142 365 202 L365 476 L475 476 L475 0 Q431 -31 412 -53 Q393 -75 393 -96 Q393 -131 436 -131 Z " />
<glyph glyph-name="uring" unicode="&#x16f;" horiz-adv-x="545" d="M475 476 L475 0 L365 0 L365 41 Q341 14 308.5 -0.5 Q276 -15 240 -15 Q153 -15 106 42 Q84 70 76.5 105.5 Q69 141 69 200 L69 476 L179 476 L179 197 Q179 135 200 109.5 Q221 84 270 84 Q318 84 341.5 113 Q365 142 365 202 L365 476 L475 476 Z M279 762 Q323 762 354 730.5 Q385 699 385 655 Q385 611 354 580 Q323 549 279 549 Q235 549 204 580.5 Q173 612 173 657 Q173 700 204.5 731 Q236 762 279 762 Z M279 704 Q259 704 245 690.5 Q231 677 231 657 Q231 635 245 621 Q259 607 279 607 Q299 607 313.5 621 Q328 635 328 655 Q328 676 313.5 690 Q299 704 279 704 Z " />
<glyph glyph-name="utilde" unicode="&#x169;" horiz-adv-x="546" d="M475 476 L475 0 L365 0 L365 41 Q341 14 308.5 -0.5 Q276 -15 240 -15 Q153 -15 106 42 Q84 70 76.5 105.5 Q69 141 69 200 L69 476 L179 476 L179 197 Q179 135 200 109.5 Q221 84 270 84 Q318 84 341.5 113 Q365 142 365 202 L365 476 L475 476 Z M74 610 Q83 622 87.5 629 Q92 636 95 640 Q95 640 116 667 Q132 683 154.5 692.5 Q177 702 199 702 Q238 702 287 676 Q324 657 333 653.5 Q342 650 352 650 Q369 650 382 661.5 Q395 673 413 703 L476 651 Q451 602 420 579.5 Q389 557 348 557 Q329 557 312 562.5 Q295 568 259 585 Q212 608 193 608 Q178 608 165.5 596 Q153 584 138 556 L74 610 Z " />
<glyph glyph-name="v" unicode="v" horiz-adv-x="502" d="M374 476 L497 476 L251 -33 L6 476 L129 476 L252 209 L374 476 Z " />
<glyph glyph-name="w" unicode="w" horiz-adv-x="773" d="M388 519 L523 205 L646 476 L768 476 L520 -36 L388 271 L254 -36 L6 476 L129 476 L253 205 L388 519 Z " />
<glyph glyph-name="wacute" unicode="&#x1e83;" horiz-adv-x="773" d="M337 585 L470 764 L574 710 L397 549 L337 585 Z M388 519 L523 205 L646 476 L768 476 L520 -36 L388 271 L254 -36 L6 476 L129 476 L253 205 L388 519 Z " />
<glyph glyph-name="wcircumflex" unicode="&#x175;" horiz-adv-x="773" d="M559 607 L485 549 L386 641 L289 549 L215 607 L386 764 L559 607 Z M388 519 L523 205 L646 476 L768 476 L520 -36 L388 271 L254 -36 L6 476 L129 476 L253 205 L388 519 Z " />
<glyph glyph-name="wdieresis" unicode="&#x1e85;" horiz-adv-x="773" d="M286 695 Q315 695 335 675 Q355 655 355 626 Q355 598 334.5 577 Q314 556 286 556 Q256 556 236 576.5 Q216 597 216 626 Q216 654 236.5 674.5 Q257 695 286 695 Z M489 695 Q518 695 538 675 Q558 655 558 626 Q558 597 537.5 576.5 Q517 556 489 556 Q460 556 439.5 576.5 Q419 597 419 626 Q419 654 440 674.5 Q461 695 489 695 Z M388 519 L523 205 L646 476 L768 476 L520 -36 L388 271 L254 -36 L6 476 L129 476 L253 205 L388 519 Z " />
<glyph glyph-name="wgrave" unicode="&#x1e81;" horiz-adv-x="773" d="M438 585 L377 549 L201 710 L304 764 L438 585 Z M388 519 L523 205 L646 476 L768 476 L520 -36 L388 271 L254 -36 L6 476 L129 476 L253 205 L388 519 Z " />
<glyph glyph-name="x" unicode="x" horiz-adv-x="558" d="M177 476 L283 337 L391 476 L525 476 L349 258 L553 0 L423 0 L283 177 L140 0 L6 0 L217 258 L46 476 L177 476 Z " />
<glyph glyph-name="y" unicode="y" horiz-adv-x="542" d="M133 476 L278 202 L414 476 L538 476 L159 -259 L34 -259 L219 89 L6 476 L133 476 Z " />
<glyph glyph-name="yacute" unicode="&#xfd;" horiz-adv-x="542" d="M221 585 L355 764 L459 710 L281 549 L221 585 Z M133 476 L278 202 L414 476 L538 476 L159 -259 L34 -259 L219 89 L6 476 L133 476 Z " />
<glyph glyph-name="ycircumflex" unicode="&#x177;" horiz-adv-x="542" d="M444 607 L370 549 L271 641 L174 549 L99 607 L271 764 L444 607 Z M133 476 L278 202 L414 476 L538 476 L159 -259 L34 -259 L219 89 L6 476 L133 476 Z " />
<glyph glyph-name="ydieresis" unicode="&#xff;" horiz-adv-x="542" d="M171 695 Q200 695 220 675 Q240 655 240 626 Q240 598 219.5 577 Q199 556 171 556 Q141 556 121 576.5 Q101 597 101 626 Q101 654 121.5 674.5 Q142 695 171 695 Z M374 695 Q403 695 423 675 Q443 655 443 626 Q443 598 422.5 577 Q402 556 374 556 Q344 556 324 576.5 Q304 597 304 626 Q304 654 325 674.5 Q346 695 374 695 Z M133 476 L278 202 L414 476 L538 476 L159 -259 L34 -259 L219 89 L6 476 L133 476 Z " />
<glyph glyph-name="ygrave" unicode="&#x1ef3;" horiz-adv-x="542" d="M323 585 L262 549 L85 710 L189 764 L323 585 Z M133 476 L278 202 L414 476 L538 476 L159 -259 L34 -259 L219 89 L6 476 L133 476 Z " />
<glyph glyph-name="z" unicode="z" horiz-adv-x="542" d="M510 0 L9 0 L318 373 L75 373 L75 476 L534 476 L227 103 L510 103 L510 0 Z " />
<glyph glyph-name="zacute" unicode="&#x17a;" horiz-adv-x="542" d="M220 585 L355 764 L458 710 L281 549 L220 585 Z M510 0 L9 0 L318 373 L75 373 L75 476 L534 476 L227 103 L510 103 L510 0 Z " />
<glyph glyph-name="zcaron" unicode="&#x17e;" horiz-adv-x="542" d="M122 705 L197 763 L295 671 L392 764 L467 705 L295 549 L122 705 Z M510 0 L9 0 L318 373 L75 373 L75 476 L534 476 L227 103 L510 103 L510 0 Z " />
<glyph glyph-name="zdotaccent" unicode="&#x17c;" horiz-adv-x="542" d="M294 703 Q324 703 345.5 681.5 Q367 660 367 629 Q367 599 345.5 577.5 Q324 556 294 556 Q263 556 241.5 578 Q220 600 220 631 Q220 660 242 681.5 Q264 703 294 703 Z M510 0 L9 0 L318 373 L75 373 L75 476 L534 476 L227 103 L510 103 L510 0 Z " />
<glyph glyph-name="ff" unicode="&#xfb00;" horiz-adv-x="579" d="M73 0 L73 373 L34 373 L34 476 L73 476 L73 659 Q73 706 80.5 736 Q88 766 105 785 Q124 809 158 823 Q192 837 229 837 Q249 837 264.5 833.5 Q280 830 303 820 L303 709 Q272 724 260 728 Q248 732 233 732 Q204 732 193.5 711.5 Q183 691 183 632 L183 476 L272 476 L272 373 L183 373 L183 0 L73 0 Z M355 0 L355 373 L315 373 L315 476 L355 476 L355 659 Q355 706 362.5 736 Q370 766 386 785 Q405 809 439 823 Q473 837 511 837 Q531 837 546 833.5 Q561 830 584 820 L584 709 Q554 724 541.5 728 Q529 732 514 732 Q485 732 474.5 711 Q464 690 464 632 L464 476 L584 476 L584 373 L464 373 L464 0 L355 0 Z " />
<glyph glyph-name="ffi" unicode="&#xfb03;" horiz-adv-x="812" d="M73 0 L73 373 L34 373 L34 476 L73 476 L73 659 Q73 706 80.5 736 Q88 766 105 785 Q124 809 158 823 Q192 837 229 837 Q249 837 264.5 833.5 Q280 830 303 820 L303 709 Q272 724 260 728 Q248 732 233 732 Q204 732 193.5 711.5 Q183 691 183 632 L183 476 L272 476 L272 373 L183 373 L183 0 L73 0 Z M355 0 L355 373 L315 373 L315 476 L355 476 L355 659 Q355 706 362.5 736 Q370 766 386 785 Q405 809 439 823 Q473 837 511 837 Q531 837 546 833.5 Q561 830 584 820 L584 709 Q554 724 541.5 728 Q529 732 514 732 Q485 732 474.5 711 Q464 690 464 632 L464 476 L584 476 L584 373 L464 373 L464 0 L355 0 Z M687 745 Q718 745 738.5 724 Q759 703 759 673 Q759 643 738.5 622 Q718 601 688 601 Q658 601 637 622 Q616 643 616 673 Q616 702 637 723.5 Q658 745 687 745 Z M633 0 L633 476 L742 476 L742 0 L633 0 Z " />
<glyph glyph-name="ffl" unicode="&#xfb04;" horiz-adv-x="811" d="M73 0 L73 373 L34 373 L34 476 L73 476 L73 659 Q73 706 80.5 736.5 Q88 767 105 786 Q124 810 158 824 Q192 838 228 838 Q248 838 263.5 834 Q279 830 303 820 L303 709 Q273 724 260 728 Q247 732 233 732 Q204 732 193.5 711.5 Q183 691 183 632 L183 476 L272 476 L272 373 L183 373 L183 0 L73 0 Z M355 0 L355 373 L315 373 L315 476 L355 476 L355 659 Q355 706 362.5 736.5 Q370 767 386 786 Q405 810 439 824 Q473 838 511 838 Q531 838 546.5 834.5 Q562 831 584 820 L584 709 Q556 723 543 727.5 Q530 732 514 732 Q485 732 474.5 711 Q464 690 464 632 L464 476 L584 476 L584 373 L464 373 L464 0 L355 0 Z M633 0 L633 824 L742 824 L742 0 L633 0 Z " />
<glyph glyph-name="fi" unicode="&#xfb01;" horiz-adv-x="530" d="M73 0 L73 373 L34 373 L34 476 L73 476 L73 659 Q73 706 80.5 736 Q88 766 105 785 Q124 809 158 823 Q192 837 229 837 Q249 837 264.5 833.5 Q280 830 303 820 L303 709 Q272 724 260 728 Q248 732 233 732 Q204 732 193.5 711.5 Q183 691 183 632 L183 476 L303 476 L303 373 L183 373 L183 0 L73 0 Z M406 745 Q436 745 457 724 Q478 703 478 673 Q478 644 457 622.5 Q436 601 407 601 Q377 601 355.5 622.5 Q334 644 334 673 Q334 702 355.5 723.5 Q377 745 406 745 Z M351 0 L351 476 L461 476 L461 0 L351 0 Z " />
<glyph glyph-name="fl" unicode="&#xfb02;" horiz-adv-x="530" d="M73 0 L73 373 L34 373 L34 476 L73 476 L73 659 Q73 706 80.5 736.5 Q88 767 105 786 Q124 810 158 824 Q192 838 229 838 Q249 838 264.5 834.5 Q280 831 303 820 L303 709 Q274 724 261 728 Q248 732 233 732 Q204 732 193.5 711.5 Q183 691 183 632 L183 476 L303 476 L303 373 L183 373 L183 0 L73 0 Z M351 0 L351 824 L461 824 L461 0 L351 0 Z " />
<glyph glyph-name="ordfeminine" unicode="&#xaa;" horiz-adv-x="409" d="M349 452 L277 452 L277 479 Q255 460 235 452 Q215 444 189 444 Q127 444 86.5 487 Q46 530 46 597 Q46 639 64.5 673.5 Q83 708 115 727.5 Q147 747 186 747 Q214 747 235.5 738 Q257 729 277 709 L277 739 L349 739 L349 452 Z M200 684 Q166 684 143 659 Q120 634 120 597 Q120 557 142 531.5 Q164 506 199 506 Q235 506 258 530.5 Q281 555 281 594 Q281 634 258 659 Q235 684 200 684 Z " />
<glyph glyph-name="ordmasculine" unicode="&#xba;" horiz-adv-x="410" d="M205 747 Q249 747 285.5 727 Q322 707 343 672 Q364 637 364 596 Q364 554 343 519 Q322 484 285 464 Q248 444 203 444 Q160 444 124 464.5 Q88 485 67 520 Q46 555 46 598 Q46 638 67.5 672.5 Q89 707 125.5 727 Q162 747 205 747 Z M206 685 Q167 685 143.5 661 Q120 637 120 597 Q120 555 143 530.5 Q166 506 205 506 Q244 506 267 530.5 Q290 555 290 596 Q290 637 267 661 Q244 685 206 685 Z " />
<glyph glyph-name="uni0410" unicode="&#x410;" horiz-adv-x="740" d="M125 0 L3 0 L376 801 L736 0 L611 0 L532 183 L210 183 L125 0 Z M258 290 L486 290 L374 546 L258 290 Z " />
<glyph glyph-name="uni0411" unicode="&#x411;" horiz-adv-x="615" d="M91 754 L489 754 L489 646 L206 646 L206 462 L318 462 Q443 462 505.5 403 Q568 344 568 228 Q568 181 554.5 140 Q541 99 516 72 Q483 35 432 17.5 Q381 0 305 0 L91 0 L91 754 Z M286 107 Q349 107 381.5 118 Q414 129 433 155 Q455 184 455 227 Q455 299 412.5 327 Q370 355 286 355 L206 355 L206 107 L286 107 Z " />
<glyph glyph-name="uni0412" unicode="&#x412;" horiz-adv-x="591" d="M203 754 Q270 754 312 745 Q354 736 384 715 Q422 689 446 641 Q470 593 470 542 Q470 501 455 467.5 Q440 434 409 406 Q468 386 503 334.5 Q538 283 538 216 Q538 169 518.5 127 Q499 85 462 54 Q424 24 381.5 12 Q339 0 263 0 L90 0 L90 754 L203 754 Z M240 429 Q274 429 295.5 435.5 Q317 442 331 457 Q345 471 354 494.5 Q363 518 363 541 Q363 564 354 585.5 Q345 607 331 621 Q304 649 244 649 L205 649 L205 429 L240 429 Z M275 107 Q312 107 336.5 112.5 Q361 118 380 131 Q400 145 413 169.5 Q426 194 426 220 Q426 246 413.5 270.5 Q401 295 380 310 Q361 323 334 328.5 Q307 334 262 334 L205 334 L205 107 L275 107 Z " />
<glyph glyph-name="uni0413" unicode="&#x413;" horiz-adv-x="515" d="M499 754 L499 646 L205 646 L205 0 L90 0 L90 754 L499 754 Z " />
<glyph glyph-name="uni0403" unicode="&#x403;" horiz-adv-x="515" d="M212 867 L368 1024 L465 956 L266 822 L212 867 Z M499 754 L499 646 L205 646 L205 0 L90 0 L90 754 L499 754 Z " />
<glyph glyph-name="uni0490" unicode="&#x490;" horiz-adv-x="515" d="M499 824 L499 646 L205 646 L205 0 L90 0 L90 754 L385 754 L385 824 L499 824 Z " />
<glyph glyph-name="uni0414" unicode="&#x414;" horiz-adv-x="825" d="M67 108 Q100 108 131.5 132 Q163 156 181 194 Q224 282 237 754 L698 754 L698 108 L764 108 L764 -145 L658 -145 L658 0 L139 0 L139 -145 L32 -145 L32 108 L67 108 Z M583 646 L345 646 Q343 573 337 476.5 Q331 380 324 329 Q313 244 294 195 Q275 146 231 108 L583 108 L583 646 Z " />
<glyph glyph-name="uni0415" unicode="&#x415;" horiz-adv-x="565" d="M205 466 L497 466 L497 358 L205 358 L205 107 L506 107 L506 0 L90 0 L90 754 L506 754 L506 646 L205 646 L205 466 Z " />
<glyph glyph-name="uni0400" unicode="&#x400;" horiz-adv-x="565" d="M401 867 L347 822 L148 956 L245 1024 L401 867 Z M205 466 L497 466 L497 358 L205 358 L205 107 L506 107 L506 0 L90 0 L90 754 L506 754 L506 646 L205 646 L205 466 Z " />
<glyph glyph-name="uni0401" unicode="&#x401;" horiz-adv-x="565" d="M189 968 Q218 968 238 947.5 Q258 927 258 898 Q258 870 237.5 849 Q217 828 189 828 Q159 828 139 848.5 Q119 869 119 899 Q119 928 139.5 948 Q160 968 189 968 Z M408 968 Q437 968 457 947.5 Q477 927 477 898 Q477 870 456.5 849 Q436 828 408 828 Q378 828 358 848.5 Q338 869 338 899 Q338 927 358.5 947.5 Q379 968 408 968 Z M205 466 L497 466 L497 358 L205 358 L205 107 L506 107 L506 0 L90 0 L90 754 L506 754 L506 646 L205 646 L205 466 Z " />
<glyph glyph-name="uni0416" unicode="&#x416;" horiz-adv-x="1095" d="M446 324 L160 0 L10 0 L371 401 L26 754 L171 754 L490 417 L490 754 L605 754 L605 417 L923 754 L1069 754 L723 401 L1084 0 L935 0 L649 324 L605 280 L605 0 L490 0 L490 279 L446 324 Z " />
<glyph glyph-name="uni0417" unicode="&#x417;" horiz-adv-x="650" d="M251 441 Q334 441 376 457 Q412 470 430 493.5 Q448 517 448 547 Q448 601 397.5 631 Q347 661 261 661 Q206 661 162.5 651 Q119 641 63 615 L63 733 Q107 750 162.5 759 Q218 768 276 768 Q400 768 476.5 720.5 Q553 673 563 589 Q564 582 564 567 Q564 531 550 498.5 Q536 466 510 442 Q493 427 476.5 417.5 Q460 408 433 397 Q508 372 543.5 334 Q579 296 587 235 Q589 217 589 208 Q589 161 569 118 Q549 75 513 47 Q473 15 419 0 Q365 -15 290 -15 Q224 -15 161 -4.5 Q98 6 55 25 L55 155 Q150 93 279 93 Q371 93 421.5 125 Q472 157 472 216 Q472 282 417.5 313 Q363 344 250 344 L192 344 L192 441 L251 441 Z " />
<glyph glyph-name="uni0418" unicode="&#x418;" horiz-adv-x="792" d="M702 799 L702 0 L590 0 L590 513 L91 -51 L91 754 L205 754 L205 235 L702 799 Z " />
<glyph glyph-name="uni0419" unicode="&#x419;" horiz-adv-x="792" d="M409 825 Q318 825 271 889 Q255 911 247.5 932.5 Q240 954 236 989 L327 989 Q333 950 353.5 931 Q374 912 411 912 Q486 912 496 989 L587 989 Q583 952 576 931 Q569 910 553 889 Q528 858 491 841.5 Q454 825 409 825 Z M702 799 L702 0 L590 0 L590 513 L91 -51 L91 754 L205 754 L205 235 L702 799 Z " />
<glyph glyph-name="uni040D" unicode="&#x40d;" horiz-adv-x="792" d="M457 822 L258 956 L355 1024 L511 867 L457 822 Z M702 799 L702 0 L590 0 L590 513 L91 -51 L91 754 L205 754 L205 235 L702 799 Z " />
<glyph glyph-name="uni041A" unicode="&#x41a;" horiz-adv-x="662" d="M649 754 L310 412 L651 0 L499 0 L228 336 L205 312 L205 0 L90 0 L90 754 L205 754 L205 453 L497 754 L649 754 Z " />
<glyph glyph-name="uni040C" unicode="&#x40c;" horiz-adv-x="662" d="M266 867 L422 1024 L519 956 L320 822 L266 867 Z M649 754 L310 412 L651 0 L499 0 L228 336 L205 312 L205 0 L90 0 L90 754 L205 754 L205 453 L497 754 L649 754 Z " />
<glyph glyph-name="uni041B" unicode="&#x41b;" horiz-adv-x="756" d="M665 0 L550 0 L550 646 L321 646 Q314 493 306 401 Q298 309 286 241 Q263 114 212.5 56 Q162 -2 74 -2 Q53 -2 35 0 L36 108 Q55 105 63 105 Q98 105 123.5 130.5 Q149 156 163 205 Q180 265 193.5 413.5 Q207 562 213 754 L665 754 L665 0 Z " />
<glyph glyph-name="uni041C" unicode="&#x41c;" horiz-adv-x="922" d="M464 225 L732 810 L875 0 L758 0 L686 454 L463 -35 L246 455 L165 0 L47 0 L206 810 L464 225 Z " />
<glyph glyph-name="uni041D" unicode="&#x41d;" horiz-adv-x="733" d="M529 754 L643 754 L643 0 L529 0 L529 351 L205 351 L205 0 L90 0 L90 754 L205 754 L205 459 L529 459 L529 754 Z " />
<glyph glyph-name="uni041E" unicode="&#x41e;" horiz-adv-x="893" d="M449 768 Q555 768 645 715 Q735 662 788 572 Q841 482 841 376 Q841 269 787.5 179.5 Q734 90 642.5 37.5 Q551 -15 443 -15 Q361 -15 282.5 21 Q204 57 148 119 Q53 225 53 380 Q53 484 107 573.5 Q161 663 252 715.5 Q343 768 449 768 Z M447 661 Q371 661 306.5 623.5 Q242 586 204.5 521.5 Q167 457 167 379 Q167 253 251 173 Q291 135 341.5 114 Q392 93 444 93 Q522 93 587 130.5 Q652 168 689.5 233 Q727 298 727 376 Q727 455 690 520.5 Q653 586 589 623.5 Q525 661 447 661 Z " />
<glyph glyph-name="uni041F" unicode="&#x41f;" horiz-adv-x="755" d="M550 0 L550 646 L205 646 L205 0 L90 0 L90 754 L665 754 L665 0 L550 0 Z " />
<glyph glyph-name="uni0420" unicode="&#x420;" horiz-adv-x="539" d="M90 0 L90 754 L219 754 Q304 754 349 743.5 Q394 733 431 706 Q469 677 491 629.5 Q513 582 513 530 Q513 484 495.5 442 Q478 400 447 371 Q380 306 258 306 L205 306 L205 0 L90 0 Z M246 411 Q290 411 317.5 418 Q345 425 365 442 Q383 457 393 481 Q403 505 403 532 Q403 559 392 583 Q381 607 362 621 Q341 636 313.5 642.5 Q286 649 242 649 L205 649 L205 411 L246 411 Z " />
<glyph glyph-name="uni0421" unicode="&#x421;" horiz-adv-x="699" d="M647 579 Q593 623 546 642 Q499 661 443 661 Q367 661 304 622.5 Q241 584 204 518.5 Q167 453 167 374 Q167 296 203.5 231.5 Q240 167 303.5 130 Q367 93 444 93 Q500 93 545.5 112.5 Q591 132 647 179 L647 42 Q551 -15 443 -15 Q337 -15 247.5 37 Q158 89 105.5 178 Q53 267 53 373 Q53 481 106.5 571.5 Q160 662 251.5 715 Q343 768 451 768 Q506 768 551.5 755.5 Q597 743 647 713 L647 579 Z " />
<glyph glyph-name="uni0422" unicode="&#x422;" horiz-adv-x="483" d="M184 0 L184 646 L11 646 L11 754 L471 754 L471 646 L298 646 L298 0 L184 0 Z " />
<glyph glyph-name="uni0423" unicode="&#x423;" horiz-adv-x="632" d="M650 754 L200 0 L74 0 L275 330 L32 754 L163 754 L342 439 L522 754 L650 754 Z " />
<glyph glyph-name="uni040E" unicode="&#x40e;" horiz-adv-x="632" d="M345 825 Q254 825 207 889 Q191 911 183.5 932.5 Q176 954 172 989 L263 989 Q269 950 289.5 931 Q310 912 347 912 Q422 912 432 989 L523 989 Q519 952 512 931 Q505 910 489 889 Q464 858 427 841.5 Q390 825 345 825 Z M650 754 L200 0 L74 0 L275 330 L32 754 L163 754 L342 439 L522 754 L650 754 Z " />
<glyph glyph-name="uni0424" unicode="&#x424;" horiz-adv-x="980" d="M433 44 Q365 49 313.5 59.5 Q262 70 222 89 Q132 132 86 205.5 Q40 279 40 377 Q40 459 74 525 Q108 591 171 634 Q221 668 284 685.5 Q347 703 433 708 L433 814 L543 814 L543 708 Q612 703 663.5 692.5 Q715 682 756 663 Q845 621 891.5 547 Q938 473 938 374 Q938 291 904 224.5 Q870 158 806 116 Q755 83 692.5 66 Q630 49 543 44 L543 -61 L433 -61 L433 44 Z M433 606 Q370 601 328 588 Q286 575 247 551 Q202 522 178 478 Q154 434 154 377 Q154 304 192.5 252.5 Q231 201 301 173 Q349 154 433 148 L433 606 Z M543 148 Q610 153 653 164 Q696 175 732 200 Q776 230 799.5 275 Q823 320 823 376 Q823 449 785 501.5 Q747 554 677 580 Q627 598 543 606 L543 148 Z " />
<glyph glyph-name="uni0425" unicode="&#x425;" horiz-adv-x="617" d="M169 754 L314 498 L464 754 L596 754 L379 393 L606 0 L479 0 L312 288 L140 0 L11 0 L249 394 L41 754 L169 754 Z " />
<glyph glyph-name="uni0427" unicode="&#x427;" horiz-adv-x="701" d="M496 252 Q432 242 397.5 238.5 Q363 235 328 235 Q259 235 203 252.5 Q147 270 112 302 Q84 328 69 361.5 Q54 395 47 445 Q44 468 42 521 L42 754 L156 754 L156 537 Q156 491 159 468 Q167 403 211 372.5 Q255 342 342 342 Q405 342 496 364 L496 754 L611 754 L611 0 L496 0 L496 252 Z " />
<glyph glyph-name="uni0426" unicode="&#x426;" horiz-adv-x="773" d="M205 754 L205 107 L558 107 L558 754 L673 754 L673 107 L739 107 L739 -145 L635 -145 L635 0 L90 0 L90 754 L205 754 Z " />
<glyph glyph-name="uni0428" unicode="&#x428;" horiz-adv-x="1065" d="M205 754 L205 107 L475 107 L475 754 L590 754 L590 107 L860 107 L860 754 L975 754 L975 0 L90 0 L90 754 L205 754 Z " />
<glyph glyph-name="uni0429" unicode="&#x429;" horiz-adv-x="1075" d="M1041 107 L1041 -145 L937 -145 L937 0 L90 0 L90 754 L205 754 L205 107 L475 107 L475 754 L590 754 L590 107 L860 107 L860 754 L975 754 L975 107 L1041 107 Z " />
<glyph glyph-name="uni040F" unicode="&#x40f;" horiz-adv-x="763" d="M205 754 L205 107 L558 107 L558 754 L673 754 L673 0 L433 0 L433 -145 L329 -145 L329 0 L90 0 L90 754 L205 754 Z " />
<glyph glyph-name="uni042C" unicode="&#x42c;" horiz-adv-x="596" d="M91 754 L206 754 L206 462 L318 462 Q443 462 505.5 403 Q568 344 568 228 Q568 181 554.5 140 Q541 99 516 72 Q483 35 432 17.5 Q381 0 305 0 L91 0 L91 754 Z M286 107 Q349 107 381.5 118 Q414 129 433 155 Q455 184 455 227 Q455 299 412.5 327 Q370 355 286 355 L207 355 L207 107 L286 107 Z " />
<glyph glyph-name="uni042A" unicode="&#x42a;" horiz-adv-x="746" d="M240 646 L15 646 L15 754 L355 754 L355 462 L467 462 Q592 462 654.5 403 Q717 344 717 228 Q717 181 703.5 140 Q690 99 665 72 Q631 35 580 17.5 Q529 0 454 0 L240 0 L240 646 Z M435 107 Q498 107 530.5 118 Q563 129 582 155 Q604 184 604 227 Q604 299 561.5 327 Q519 355 435 355 L356 355 L356 107 L435 107 Z " />
<glyph glyph-name="uni042B" unicode="&#x42b;" horiz-adv-x="886" d="M91 754 L206 754 L206 462 L318 462 Q443 462 505.5 403 Q568 344 568 228 Q568 181 554.5 140 Q541 99 516 72 Q483 35 432 17.5 Q381 0 305 0 L91 0 L91 754 Z M681 0 L681 754 L796 754 L796 0 L681 0 Z M286 107 Q349 107 381.5 118 Q414 129 433 155 Q455 184 455 227 Q455 299 412.5 327 Q370 355 286 355 L206 355 L206 107 L286 107 Z " />
<glyph glyph-name="uni0409" unicode="&#x409;" horiz-adv-x="1053" d="M74 -2 Q53 -2 35 0 L36 108 Q55 105 63 105 Q98 105 123.5 130.5 Q149 156 163 205 Q180 265 193.5 413.5 Q207 562 213 754 L664 754 L664 462 L776 462 Q901 462 963.5 403 Q1026 344 1026 228 Q1026 181 1012.5 140 Q999 99 974 72 Q940 35 889 17.5 Q838 0 763 0 L549 0 L549 646 L321 646 Q314 493 306 401 Q298 309 286 241 Q263 114 212.5 56 Q162 -2 74 -2 Z M744 107 Q807 107 839.5 118 Q872 129 891 155 Q913 184 913 227 Q913 299 870.5 327 Q828 355 744 355 L664 355 L664 107 L744 107 Z " />
<glyph glyph-name="uni040A" unicode="&#x40a;" horiz-adv-x="1070" d="M788 447 Q838 447 873 440 Q908 433 936 417 Q986 388 1015 336.5 Q1044 285 1044 224 Q1044 162 1015 111 Q986 60 935 31 Q906 15 870.5 7.5 Q835 0 785 0 L565 0 L565 331 L208 331 L208 0 L94 0 L94 754 L208 754 L208 438 L565 438 L565 754 L680 754 L680 447 L788 447 Z M767 107 Q805 107 828 111 Q851 115 869 124 Q897 140 913.5 166.5 Q930 193 930 224 Q930 254 913.5 281.5 Q897 309 869 323 Q852 333 829.5 336.5 Q807 340 767 340 L680 340 L680 107 L767 107 Z " />
<glyph glyph-name="uni0405" unicode="&#x405;" horiz-adv-x="582" d="M425 586 Q399 629 375 645 Q351 661 312 661 Q265 661 233.5 634 Q202 607 202 567 Q202 530 238 504 Q255 493 278 482.5 Q301 472 359 449 Q451 411 493.5 357.5 Q536 304 536 226 Q536 158 504.5 103 Q473 48 418 16.5 Q363 -15 294 -15 Q232 -15 181 11 Q130 37 97 86 Q78 113 68.5 139.5 Q59 166 53 208 L168 234 Q172 201 177 183.5 Q182 166 190 151 Q204 124 233.5 108.5 Q263 93 298 93 Q352 93 386.5 128.5 Q421 164 421 218 Q421 281 370 318 Q351 330 326 341 Q301 352 242 377 Q87 442 87 568 Q87 625 116.5 670.5 Q146 716 197.5 742 Q249 768 313 768 Q381 768 430 738 Q479 708 516 642 L425 586 Z " />
<glyph glyph-name="uni0404" unicode="&#x404;" horiz-adv-x="758" d="M174 333 Q188 222 261 157.5 Q334 93 453 93 Q527 93 587.5 116.5 Q648 140 706 191 L706 62 Q651 25 582 5 Q513 -15 439 -15 Q327 -15 239.5 35 Q152 85 103 174.5 Q54 264 54 377 Q54 490 103.5 579 Q153 668 242 718 Q331 768 445 768 Q511 768 566.5 753.5 Q622 739 682 705 L682 572 Q623 619 568.5 640 Q514 661 450 661 Q341 661 270 603 Q199 545 174 435 L553 435 L553 333 L174 333 Z " />
<glyph glyph-name="uni042D" unicode="&#x42d;" horiz-adv-x="758" d="M321 -15 Q247 -15 178 5 Q109 25 54 62 L54 191 Q112 140 172.5 116.5 Q233 93 307 93 Q429 93 504.5 155.5 Q580 218 586 333 L208 333 L208 435 L586 435 Q570 542 495 601.5 Q420 661 310 661 Q246 661 192 640 Q138 619 79 572 L79 705 Q138 739 193.5 753.5 Q249 768 315 768 Q429 768 518 718 Q607 668 656.5 579 Q706 490 706 377 Q706 264 657 174.5 Q608 85 520.5 35 Q433 -15 321 -15 Z " />
<glyph glyph-name="uni0406" unicode="&#x406;" horiz-adv-x="295" d="M90 0 L90 754 L205 754 L205 0 L90 0 Z " />
<glyph glyph-name="uni0407" unicode="&#x407;" horiz-adv-x="295" d="M55 968 Q84 968 104 947.5 Q124 927 124 898 Q124 869 103.5 848.5 Q83 828 55 828 Q26 828 5.5 849 Q-15 870 -15 899 Q-15 927 5.5 947.5 Q26 968 55 968 Z M240 968 Q268 968 288 947.5 Q308 927 308 898 Q308 869 288 848.5 Q268 828 240 828 Q210 828 189.5 849 Q169 870 169 899 Q169 927 190 947.5 Q211 968 240 968 Z M90 0 L90 754 L205 754 L205 0 L90 0 Z " />
<glyph glyph-name="uni0408" unicode="&#x408;" horiz-adv-x="410" d="M319 266 Q319 184 306.5 136 Q294 88 264 53 Q207 -15 113 -15 Q74 -15 44 -6.5 Q14 2 -20 24 L36 121 Q59 106 76.5 99.5 Q94 93 113 93 Q142 93 163 108 Q184 123 193 149 Q198 164 201.5 196.5 Q205 229 205 266 L205 754 L319 754 L319 266 Z " />
</font>
</svg>
