<?xml version="1.0" encoding="UTF-8"?>
<svg xmlns="http://www.w3.org/2000/svg" xmlns:xlink="http://www.w3.org/1999/xlink" version="1.2" >
<font id="ShellCondensedMedium">
<font-face  font-family="ShellCondensedMedium" units-per-em="1000" ascent="1050" descent="-300" font-style="normal" font-weight="500" font-stretch="normal" cap-height="754" x-height="505" underline-position="-56" underline-thickness="89" />
<missing-glyph  horiz-adv-x="210" d="" />
<glyph glyph-name="space" unicode="&#x20;" horiz-adv-x="210" d="" />
<glyph glyph-name="A" unicode="A" horiz-adv-x="407" d="M406 0 L305 0 L277 147 L128 147 L98 0 L1 0 L165 754 L244 754 L406 0 Z M240 346 Q230 399 219 478.5 Q208 558 203 607 Q187 456 160 322 L141 225 L262 225 L240 346 Z " />
<glyph glyph-name="Aacute" unicode="&#xc1;" horiz-adv-x="407" d="M163 862 L268 965 L321 906 L199 822 L163 862 Z M165 754 L244 754 L406 0 L305 0 L277 147 L128 147 L98 0 L1 0 L165 754 Z M262 225 L240 346 Q230 399 219 478.5 Q208 558 203 607 Q187 456 160 322 L141 225 L262 225 Z " />
<glyph glyph-name="Abreve" unicode="&#x102;" horiz-adv-x="407" d="M202 825 Q143 825 110 855.5 Q77 886 71 945 L133 945 Q139 914 156 901 Q173 888 206 888 Q237 888 253 901 Q269 914 275 945 L337 945 Q330 880 299 852.5 Q268 825 202 825 Z M165 754 L244 754 L406 0 L305 0 L277 147 L128 147 L98 0 L1 0 L165 754 Z M262 225 L240 346 Q230 399 219 478.5 Q208 558 203 607 Q187 456 160 322 L141 225 L262 225 Z " />
<glyph glyph-name="Acircumflex" unicode="&#xc2;" horiz-adv-x="407" d="M79 868 L203 977 L329 873 L287 822 L203 892 L120 822 L79 868 Z M165 754 L244 754 L406 0 L305 0 L277 147 L128 147 L98 0 L1 0 L165 754 Z M262 225 L240 346 Q230 399 219 478.5 Q208 558 203 607 Q187 456 160 322 L141 225 L262 225 Z " />
<glyph glyph-name="Adieresis" unicode="&#xc4;" horiz-adv-x="407" d="M111 941 Q134 941 150 925 Q166 909 166 886 Q166 862 150 845.5 Q134 829 111 829 Q87 829 70.5 845.5 Q54 862 54 886 Q54 909 70.5 925 Q87 941 111 941 Z M297 941 Q320 941 336.5 925 Q353 909 353 886 Q353 862 336.5 845.5 Q320 829 297 829 Q274 829 257.5 845.5 Q241 862 241 886 Q241 909 257.5 925 Q274 941 297 941 Z M406 0 L305 0 L277 147 L128 147 L98 0 L1 0 L165 754 L244 754 L406 0 Z M240 346 Q230 399 219 478.5 Q208 558 203 607 Q187 456 160 322 L141 225 L262 225 L240 346 Z " />
<glyph glyph-name="Agrave" unicode="&#xc0;" horiz-adv-x="407" d="M87 906 L140 965 L245 862 L209 822 L87 906 Z M165 754 L244 754 L406 0 L305 0 L277 147 L128 147 L98 0 L1 0 L165 754 Z M262 225 L240 346 Q230 399 219 478.5 Q208 558 203 607 Q187 456 160 322 L141 225 L262 225 Z " />
<glyph glyph-name="Amacron" unicode="&#x100;" horiz-adv-x="407" d="M331 906 L331 836 L77 836 L77 906 L331 906 Z M406 0 L305 0 L277 147 L128 147 L98 0 L1 0 L165 754 L244 754 L406 0 Z M240 346 Q230 399 219 478.5 Q208 558 203 607 Q187 456 160 322 L141 225 L262 225 L240 346 Z " />
<glyph glyph-name="Aogonek" unicode="&#x104;" horiz-adv-x="407" d="M406 0 Q382 -21 369 -42.5 Q356 -64 356 -81 Q356 -98 366 -107 Q376 -116 394 -116 Q419 -116 443 -107 L443 -165 Q418 -175 389 -175 Q346 -175 321 -154 Q296 -133 296 -97 Q296 -72 308 -51 Q320 -30 350 0 L305 0 L277 147 L128 147 L98 0 L1 0 L165 754 L244 754 L406 0 Z M240 346 Q230 399 219 478.5 Q208 558 203 607 Q187 456 160 322 L141 225 L262 225 L240 346 Z " />
<glyph glyph-name="Aring" unicode="&#xc5;" horiz-adv-x="407" d="M205 985 Q238 985 262 961 Q286 937 286 903 Q286 869 261.5 844.5 Q237 820 203 820 Q169 820 145 844.5 Q121 869 121 904 Q121 938 145.5 961.5 Q170 985 205 985 Z M203 935 Q190 935 181 925.5 Q172 916 172 903 Q172 889 181 880 Q190 871 203 871 Q216 871 225.5 880.5 Q235 890 235 903 Q235 916 225.5 925.5 Q216 935 203 935 Z M406 0 L305 0 L277 147 L128 147 L98 0 L1 0 L165 754 L244 754 L406 0 Z M240 346 Q230 399 219 478.5 Q208 558 203 607 Q187 456 160 322 L141 225 L262 225 L240 346 Z " />
<glyph glyph-name="Aringacute" unicode="&#x1fa;" horiz-adv-x="407" d="M125 920 L89 960 L194 1063 L247 1005 L125 920 Z M207 940 Q240 940 264 916 Q288 892 288 858 Q288 824 264 799.5 Q240 775 206 775 Q171 775 147 799.5 Q123 824 123 859 Q123 893 147.5 916.5 Q172 940 207 940 Z M206 889 Q193 889 183.5 880 Q174 871 174 858 Q174 845 183.5 835.5 Q193 826 206 826 Q219 826 228 835.5 Q237 845 237 858 Q237 871 228 880 Q219 889 206 889 Z M406 0 L305 0 L277 147 L128 147 L98 0 L1 0 L165 754 L244 754 L406 0 Z M240 346 Q230 399 219 478.5 Q208 558 203 607 Q187 456 160 322 L141 225 L262 225 L240 346 Z " />
<glyph glyph-name="Atilde" unicode="&#xc3;" horiz-adv-x="407" d="M259 825 Q247 825 236.5 828.5 Q226 832 202 844 Q172 859 157 859 Q139 859 138 832 L80 832 Q82 880 100 906 Q118 932 151 932 Q163 932 173.5 928.5 Q184 925 214 912 Q247 897 259 897 Q275 897 275 924 L333 924 Q333 878 313.5 851.5 Q294 825 259 825 Z M165 754 L244 754 L406 0 L305 0 L277 147 L128 147 L98 0 L1 0 L165 754 Z M262 225 L240 346 Q230 399 219 478.5 Q208 558 203 607 Q187 456 160 322 L141 225 L262 225 Z " />
<glyph glyph-name="AE" unicode="&#xc6;" horiz-adv-x="577" d="M429 668 L266 668 L318 428 L467 428 L486 342 L338 342 L395 86 L556 86 L575 0 L314 0 L284 148 L128 148 L99 0 L1 0 L160 754 L411 754 L429 668 Z M234 397 Q214 493 203 610 Q202 581 189 491 Q176 401 162 327 L142 224 L270 224 L234 397 Z " />
<glyph glyph-name="AEacute" unicode="&#x1fc;" horiz-adv-x="577" d="M251 822 L214 862 L319 965 L373 906 L251 822 Z M429 668 L266 668 L318 428 L467 428 L486 342 L338 342 L395 86 L556 86 L575 0 L314 0 L284 148 L128 148 L99 0 L1 0 L160 754 L411 754 L429 668 Z M234 397 Q214 493 203 610 Q202 581 189 491 Q176 401 162 327 L142 224 L270 224 L234 397 Z " />
<glyph glyph-name="B" unicode="B" horiz-adv-x="411" d="M195 754 Q277 754 317 704.5 Q357 655 357 554 Q357 478 336 440 Q315 402 262 383 Q290 372 304.5 363.5 Q319 355 329 344 Q368 301 368 208 Q368 102 324.5 51 Q281 0 191 0 L58 0 L58 754 L195 754 Z M160 421 Q214 421 236.5 450.5 Q259 480 259 550 Q259 672 171 672 Q160 672 154 671 L154 421 L160 421 Z M154 87 Q189 88 205.5 92.5 Q222 97 234 108 Q263 137 263 211 Q263 283 239 312 Q215 341 154 341 L154 87 Z " />
<glyph glyph-name="C" unicode="C" horiz-adv-x="381" d="M354 650 Q331 661 317 665 Q303 669 288 669 Q253 669 224 647.5 Q195 626 179 588 Q150 521 150 367 Q150 88 294 88 Q310 88 322.5 91.5 Q335 95 354 104 L354 11 Q332 -2 315 -6 Q298 -10 271 -10 Q43 -10 43 364 Q43 567 98.5 665.5 Q154 764 269 764 Q294 764 311.5 759.5 Q329 755 354 741 L354 650 Z " />
<glyph glyph-name="Cacute" unicode="&#x106;" horiz-adv-x="381" d="M240 822 L202 862 L307 965 L360 906 L240 822 Z M354 650 Q331 661 317 665 Q303 669 288 669 Q253 669 224 647.5 Q195 626 179 588 Q150 521 150 367 Q150 88 294 88 Q310 88 322.5 91.5 Q335 95 354 104 L354 11 Q332 -2 315 -6 Q298 -10 271 -10 Q43 -10 43 364 Q43 567 98.5 665.5 Q154 764 269 764 Q294 764 311.5 759.5 Q329 755 354 741 L354 650 Z " />
<glyph glyph-name="Ccaron" unicode="&#x10c;" horiz-adv-x="381" d="M162 977 L244 907 L328 977 L368 930 L244 822 L120 924 L162 977 Z M354 650 Q331 661 317 665 Q303 669 288 669 Q253 669 224 647.5 Q195 626 179 588 Q150 521 150 367 Q150 88 294 88 Q310 88 322.5 91.5 Q335 95 354 104 L354 11 Q332 -2 315 -6 Q298 -10 271 -10 Q43 -10 43 364 Q43 567 98.5 665.5 Q154 764 269 764 Q294 764 311.5 759.5 Q329 755 354 741 L354 650 Z " />
<glyph glyph-name="Ccedilla" unicode="&#xc7;" horiz-adv-x="381" d="M354 650 Q331 661 317 665 Q303 669 288 669 Q253 669 224 647.5 Q195 626 179 588 Q150 521 150 367 Q150 88 294 88 Q310 88 322.5 91.5 Q335 95 354 104 L354 11 Q332 -2 315 -6 Q298 -10 271 -10 Q43 -10 43 364 Q43 567 98.5 665.5 Q154 764 269 764 Q294 764 311.5 759.5 Q329 755 354 741 L354 650 Z M207 -214 L158 -189 L219 -46 L289 -80 L207 -214 Z " />
<glyph glyph-name="Ccircumflex" unicode="&#x108;" horiz-adv-x="381" d="M319 822 L236 892 L153 822 L112 868 L236 977 L362 873 L319 822 Z M354 650 Q331 661 317 665 Q303 669 288 669 Q253 669 224 647.5 Q195 626 179 588 Q150 521 150 367 Q150 88 294 88 Q310 88 322.5 91.5 Q335 95 354 104 L354 11 Q332 -2 315 -6 Q298 -10 271 -10 Q43 -10 43 364 Q43 567 98.5 665.5 Q154 764 269 764 Q294 764 311.5 759.5 Q329 755 354 741 L354 650 Z " />
<glyph glyph-name="Cdotaccent" unicode="&#x10a;" horiz-adv-x="381" d="M246 946 Q270 946 287 929 Q304 912 304 888 Q304 863 287 846 Q270 829 245 829 Q220 829 203 846 Q186 863 186 888 Q186 912 203.5 929 Q221 946 246 946 Z M354 650 Q331 661 317 665 Q303 669 288 669 Q253 669 224 647.5 Q195 626 179 588 Q150 521 150 367 Q150 88 294 88 Q310 88 322.5 91.5 Q335 95 354 104 L354 11 Q332 -2 315 -6 Q298 -10 271 -10 Q43 -10 43 364 Q43 567 98.5 665.5 Q154 764 269 764 Q294 764 311.5 759.5 Q329 755 354 741 L354 650 Z " />
<glyph glyph-name="D" unicode="D" horiz-adv-x="464" d="M182 754 Q248 754 286 738.5 Q324 723 354 685 Q390 637 405.5 564 Q421 491 421 366 Q421 247 404 174.5 Q387 102 349 60 Q318 28 270.5 14 Q223 0 140 0 L58 0 L58 754 L182 754 Z M159 88 Q222 88 255 112 Q288 136 301.5 194.5 Q315 253 315 365 Q315 483 302 547.5 Q289 612 258.5 640 Q228 668 172 668 L159 668 L159 88 Z " />
<glyph glyph-name="Eth" unicode="&#xd0;" horiz-adv-x="464" d="M183 754 Q248 754 286 738.5 Q324 723 354 685 Q390 637 405.5 563.5 Q421 490 421 366 Q421 246 404 174 Q387 102 349 60 Q318 28 270.5 14 Q223 0 140 0 L58 0 L58 373 L1 373 L1 451 L58 451 L58 754 L183 754 Z M159 88 Q222 88 255 112 Q288 136 301.5 194.5 Q315 253 315 365 Q315 483 302 547.5 Q289 612 258.5 640 Q228 668 172 668 L159 668 L159 451 L258 451 L258 373 L159 373 L159 88 Z " />
<glyph glyph-name="Dcaron" unicode="&#x10e;" horiz-adv-x="464" d="M120 977 L203 907 L287 977 L328 930 L203 822 L78 924 L120 977 Z M182 754 Q248 754 286 738.5 Q324 723 354 685 Q390 637 405.5 564 Q421 491 421 366 Q421 247 404 174.5 Q387 102 349 60 Q318 28 270.5 14 Q223 0 140 0 L58 0 L58 754 L182 754 Z M159 88 Q222 88 255 112 Q288 136 301.5 194.5 Q315 253 315 365 Q315 483 302 547.5 Q289 612 258.5 640 Q228 668 172 668 L159 668 L159 88 Z " />
<glyph glyph-name="Dcroat" unicode="&#x110;" horiz-adv-x="464" d="M58 373 L1 373 L1 451 L58 451 L58 754 L183 754 Q248 754 286 738.5 Q324 723 354 685 Q390 637 405.5 563.5 Q421 490 421 366 Q421 246 404 174 Q387 102 349 60 Q318 28 270.5 14 Q223 0 140 0 L58 0 L58 373 Z M159 88 Q222 88 255 112 Q288 136 301.5 194.5 Q315 253 315 365 Q315 483 302 547.5 Q289 612 258.5 640 Q228 668 172 668 L159 668 L159 451 L258 451 L258 373 L159 373 L159 88 Z " />
<glyph glyph-name="E" unicode="E" horiz-adv-x="363" d="M328 668 L159 668 L159 428 L308 428 L308 342 L159 342 L159 86 L328 86 L328 0 L58 0 L58 754 L328 754 L328 668 Z " />
<glyph glyph-name="Eacute" unicode="&#xc9;" horiz-adv-x="363" d="M140 862 L245 965 L298 906 L177 822 L140 862 Z M58 754 L328 754 L328 668 L159 668 L159 428 L308 428 L308 342 L159 342 L159 86 L328 86 L328 0 L58 0 L58 754 Z " />
<glyph glyph-name="Ebreve" unicode="&#x114;" horiz-adv-x="363" d="M325 945 Q318 881 287 853 Q256 825 191 825 Q72 825 60 945 L122 945 Q128 914 144.5 901 Q161 888 194 888 Q225 888 241 901 Q257 914 263 945 L325 945 Z M328 668 L159 668 L159 428 L308 428 L308 342 L159 342 L159 86 L328 86 L328 0 L58 0 L58 754 L328 754 L328 668 Z " />
<glyph glyph-name="Ecaron" unicode="&#x11a;" horiz-adv-x="363" d="M110 977 L193 907 L277 977 L318 930 L193 822 L68 924 L110 977 Z M328 668 L159 668 L159 428 L308 428 L308 342 L159 342 L159 86 L328 86 L328 0 L58 0 L58 754 L328 754 L328 668 Z " />
<glyph glyph-name="Ecircumflex" unicode="&#xca;" horiz-adv-x="363" d="M68 868 L192 977 L318 873 L275 822 L192 892 L108 822 L68 868 Z M58 754 L328 754 L328 668 L159 668 L159 428 L308 428 L308 342 L159 342 L159 86 L328 86 L328 0 L58 0 L58 754 Z " />
<glyph glyph-name="Edieresis" unicode="&#xcb;" horiz-adv-x="363" d="M101 941 Q124 941 140 925 Q156 909 156 886 Q156 862 140 845.5 Q124 829 101 829 Q77 829 60.5 845.5 Q44 862 44 886 Q44 909 60.5 925 Q77 941 101 941 Z M287 941 Q310 941 326 925 Q342 909 342 886 Q342 862 326 845.5 Q310 829 287 829 Q263 829 247 845.5 Q231 862 231 886 Q231 909 247 925 Q263 941 287 941 Z M328 668 L160 668 L160 428 L310 428 L310 342 L160 342 L160 86 L328 86 L328 0 L59 0 L59 754 L328 754 L328 668 Z " />
<glyph glyph-name="Edotaccent" unicode="&#x116;" horiz-adv-x="363" d="M193 946 Q217 946 234 929 Q251 912 251 888 Q251 863 234 846 Q217 829 193 829 Q168 829 151 846 Q134 863 134 888 Q134 912 151 929 Q168 946 193 946 Z M328 668 L159 668 L159 428 L308 428 L308 342 L159 342 L159 86 L328 86 L328 0 L58 0 L58 754 L328 754 L328 668 Z " />
<glyph glyph-name="Egrave" unicode="&#xc8;" horiz-adv-x="363" d="M95 906 L148 965 L253 862 L217 822 L95 906 Z M58 754 L328 754 L328 668 L159 668 L159 428 L308 428 L308 342 L159 342 L159 86 L328 86 L328 0 L58 0 L58 754 Z " />
<glyph glyph-name="Emacron" unicode="&#x112;" horiz-adv-x="363" d="M320 906 L320 836 L66 836 L66 906 L320 906 Z M328 668 L159 668 L159 428 L308 428 L308 342 L159 342 L159 86 L328 86 L328 0 L58 0 L58 754 L328 754 L328 668 Z " />
<glyph glyph-name="Eogonek" unicode="&#x118;" horiz-adv-x="363" d="M328 668 L159 668 L159 428 L308 428 L308 342 L159 342 L159 86 L328 86 L328 0 Q305 -20 291.5 -42 Q278 -64 278 -81 Q278 -98 288 -107 Q298 -116 316 -116 Q341 -116 365 -107 L365 -165 Q350 -171 338.5 -173 Q327 -175 311 -175 Q268 -175 243 -154 Q218 -133 218 -97 Q218 -72 230 -51 Q242 -30 272 0 L58 0 L58 754 L328 754 L328 668 Z " />
<glyph glyph-name="F" unicode="F" horiz-adv-x="349" d="M329 668 L159 668 L159 429 L312 429 L312 344 L159 344 L159 0 L58 0 L58 754 L329 754 L329 668 Z " />
<glyph glyph-name="G" unicode="G" horiz-adv-x="466" d="M423 397 Q423 298 420 245.5 Q417 193 409 147 Q395 67 353.5 28.5 Q312 -10 242 -10 Q169 -10 126 28.5 Q83 67 63 150.5 Q43 234 43 374 Q43 612 93 689 Q139 764 236 764 Q311 764 352.5 728.5 Q394 693 417 609 L322 570 Q310 629 291.5 652 Q273 675 236 675 Q201 675 182.5 648.5 Q164 622 156 558 Q148 494 148 376 Q148 260 156 197.5 Q164 135 183 109.5 Q202 84 238 84 Q271 84 290.5 102.5 Q310 121 318.5 162.5 Q327 204 327 275 L327 311 L238 311 L238 397 L423 397 Z " />
<glyph glyph-name="Gbreve" unicode="&#x11e;" horiz-adv-x="466" d="M366 945 Q360 881 329 853 Q298 825 233 825 Q174 825 140 855.5 Q106 886 102 945 L164 945 Q169 914 185.5 901 Q202 888 235 888 Q267 888 282.5 901 Q298 914 304 945 L366 945 Z M423 397 Q423 298 420 245.5 Q417 193 409 147 Q395 67 353.5 28.5 Q312 -10 242 -10 Q169 -10 126 28.5 Q83 67 63 150.5 Q43 234 43 374 Q43 612 93 689 Q139 764 236 764 Q311 764 352.5 728.5 Q394 693 417 609 L322 570 Q310 629 291.5 652 Q273 675 236 675 Q201 675 182.5 648.5 Q164 622 156 558 Q148 494 148 376 Q148 260 156 197.5 Q164 135 183 109.5 Q202 84 238 84 Q271 84 290.5 102.5 Q310 121 318.5 162.5 Q327 204 327 275 L327 311 L238 311 L238 397 L423 397 Z " />
<glyph glyph-name="Gcaron" unicode="&#x1e6;" horiz-adv-x="466" d="M155 977 L238 907 L322 977 L363 930 L238 822 L113 924 L155 977 Z M423 397 Q423 298 420 245.5 Q417 193 409 147 Q395 67 353.5 28.5 Q312 -10 242 -10 Q169 -10 126 28.5 Q83 67 63 150.5 Q43 234 43 374 Q43 612 93 689 Q139 764 236 764 Q311 764 352.5 728.5 Q394 693 417 609 L322 570 Q310 629 291.5 652 Q273 675 236 675 Q201 675 182.5 648.5 Q164 622 156 558 Q148 494 148 376 Q148 260 156 197.5 Q164 135 183 109.5 Q202 84 238 84 Q271 84 290.5 102.5 Q310 121 318.5 162.5 Q327 204 327 275 L327 311 L238 311 L238 397 L423 397 Z " />
<glyph glyph-name="Gcircumflex" unicode="&#x11c;" horiz-adv-x="466" d="M320 822 L237 892 L154 822 L113 868 L237 977 L363 873 L320 822 Z M423 397 Q423 298 420 245.5 Q417 193 409 147 Q395 67 353.5 28.5 Q312 -10 242 -10 Q169 -10 126 28.5 Q83 67 63 150.5 Q43 234 43 374 Q43 612 93 689 Q139 764 236 764 Q311 764 352.5 728.5 Q394 693 417 609 L322 570 Q310 629 291.5 652 Q273 675 236 675 Q201 675 182.5 648.5 Q164 622 156 558 Q148 494 148 376 Q148 260 156 197.5 Q164 135 183 109.5 Q202 84 238 84 Q271 84 290.5 102.5 Q310 121 318.5 162.5 Q327 204 327 275 L327 311 L238 311 L238 397 L423 397 Z " />
<glyph glyph-name="uni0122" unicode="&#x122;" horiz-adv-x="466" d="M423 397 Q423 298 420 245.5 Q417 193 409 147 Q395 67 353.5 28.5 Q312 -10 242 -10 Q169 -10 126 28.5 Q83 67 63 150.5 Q43 234 43 374 Q43 612 93 689 Q139 764 236 764 Q311 764 352.5 728.5 Q394 693 417 609 L322 570 Q310 629 291.5 652 Q273 675 236 675 Q201 675 182.5 648.5 Q164 622 156 558 Q148 494 148 376 Q148 260 156 197.5 Q164 135 183 109.5 Q202 84 238 84 Q271 84 290.5 102.5 Q310 121 318.5 162.5 Q327 204 327 275 L327 311 L238 311 L238 397 L423 397 Z M216 -219 L166 -199 L214 -52 L287 -79 L216 -219 Z " />
<glyph glyph-name="Gdotaccent" unicode="&#x120;" horiz-adv-x="466" d="M240 946 Q263 946 280 929 Q297 912 297 888 Q297 863 280 846 Q263 829 238 829 Q214 829 197 846 Q180 863 180 888 Q180 912 197.5 929 Q215 946 240 946 Z M423 397 Q423 298 420 245.5 Q417 193 409 147 Q395 67 353.5 28.5 Q312 -10 242 -10 Q169 -10 126 28.5 Q83 67 63 150.5 Q43 234 43 374 Q43 612 93 689 Q139 764 236 764 Q311 764 352.5 728.5 Q394 693 417 609 L322 570 Q310 629 291.5 652 Q273 675 236 675 Q201 675 182.5 648.5 Q164 622 156 558 Q148 494 148 376 Q148 260 156 197.5 Q164 135 183 109.5 Q202 84 238 84 Q271 84 290.5 102.5 Q310 121 318.5 162.5 Q327 204 327 275 L327 311 L238 311 L238 397 L423 397 Z " />
<glyph glyph-name="H" unicode="H" horiz-adv-x="468" d="M159 459 L307 459 L307 754 L409 754 L409 0 L307 0 L307 373 L159 373 L159 0 L58 0 L58 754 L159 754 L159 459 Z " />
<glyph glyph-name="Hbar" unicode="&#x126;" horiz-adv-x="468" d="M409 616 L452 616 L452 538 L409 538 L409 0 L307 0 L307 373 L159 373 L159 0 L58 0 L58 538 L15 538 L15 616 L58 616 L58 754 L159 754 L159 616 L307 616 L307 754 L409 754 L409 616 Z M307 459 L307 538 L159 538 L159 459 L307 459 Z " />
<glyph glyph-name="Hcircumflex" unicode="&#x124;" horiz-adv-x="468" d="M316 822 L234 892 L150 822 L110 868 L234 977 L359 873 L316 822 Z M159 459 L307 459 L307 754 L409 754 L409 0 L307 0 L307 373 L159 373 L159 0 L58 0 L58 754 L159 754 L159 459 Z " />
<glyph glyph-name="I" unicode="I" horiz-adv-x="218" d="M159 0 L58 0 L58 754 L159 754 L159 0 Z " />
<glyph glyph-name="IJ" unicode="&#x132;" horiz-adv-x="506" d="M159 0 L58 0 L58 754 L159 754 L159 0 Z M447 175 Q447 126 441.5 97 Q436 68 421 47 Q404 20 371.5 5 Q339 -10 298 -10 Q249 -10 211 10 L211 112 Q236 96 249.5 91 Q263 86 279 86 Q300 86 316 97 Q332 108 339 127 Q344 138 345 152 Q346 166 346 210 L346 754 L447 754 L447 175 Z " />
<glyph glyph-name="Iacute" unicode="&#xcd;" horiz-adv-x="218" d="M68 862 L173 965 L226 906 L104 822 L68 862 Z M58 754 L159 754 L159 0 L58 0 L58 754 Z " />
<glyph glyph-name="Ibreve" unicode="&#x12c;" horiz-adv-x="218" d="M242 945 Q235 881 203.5 853 Q172 825 107 825 Q-12 825 -24 945 L38 945 Q44 914 61 901 Q78 888 111 888 Q142 888 158 901 Q174 914 180 945 L242 945 Z M159 0 L58 0 L58 754 L159 754 L159 0 Z " />
<glyph glyph-name="Icircumflex" unicode="&#xce;" horiz-adv-x="218" d="M192 822 L108 892 L25 822 L-16 868 L108 977 L234 873 L192 822 Z M159 0 L58 0 L58 754 L159 754 L159 0 Z " />
<glyph glyph-name="Idieresis" unicode="&#xcf;" horiz-adv-x="218" d="M36 941 Q59 941 75.5 925 Q92 909 92 886 Q92 862 75.5 845.5 Q59 829 36 829 Q13 829 -3.5 845.5 Q-20 862 -20 886 Q-20 909 -3.5 925 Q13 941 36 941 Z M184 941 Q207 941 223.5 925 Q240 909 240 886 Q240 862 223.5 845.5 Q207 829 184 829 Q161 829 144.5 845.5 Q128 862 128 886 Q128 909 144.5 925 Q161 941 184 941 Z M160 0 L59 0 L59 754 L160 754 L160 0 Z " />
<glyph glyph-name="Idot" unicode="&#x130;" horiz-adv-x="218" d="M110 946 Q133 946 150 929 Q167 912 167 888 Q167 863 150 846 Q133 829 110 829 Q85 829 68 846 Q51 863 51 888 Q51 912 68 929 Q85 946 110 946 Z M160 0 L59 0 L59 754 L160 754 L160 0 Z " />
<glyph glyph-name="Igrave" unicode="&#xcc;" horiz-adv-x="218" d="M-8 906 L45 965 L150 862 L114 822 L-8 906 Z M58 754 L159 754 L159 0 L58 0 L58 754 Z " />
<glyph glyph-name="Imacron" unicode="&#x12a;" horiz-adv-x="218" d="M228 906 L228 836 L-7 836 L-7 906 L228 906 Z M159 0 L58 0 L58 754 L159 754 L159 0 Z " />
<glyph glyph-name="Iogonek" unicode="&#x12e;" horiz-adv-x="218" d="M160 0 Q142 -9 129 -31.5 Q116 -54 116 -78 Q116 -116 157 -116 Q171 -116 195 -107 L195 -165 Q180 -171 170 -173 Q160 -175 146 -175 Q106 -175 81 -153.5 Q56 -132 56 -96 Q56 -67 68 -44.5 Q80 -22 107 0 L59 0 L59 754 L160 754 L160 0 Z " />
<glyph glyph-name="Itilde" unicode="&#x128;" horiz-adv-x="218" d="M160 825 Q148 825 138 828.5 Q128 832 104 844 Q74 859 59 859 Q49 859 45 852.5 Q41 846 40 832 L-18 832 Q-16 880 2 906 Q20 932 53 932 Q65 932 75.5 928.5 Q86 925 115 912 Q149 897 159 897 Q168 897 172 903.5 Q176 910 176 924 L235 924 Q235 877 215 851 Q195 825 160 825 Z M58 754 L159 754 L159 0 L58 0 L58 754 Z " />
<glyph glyph-name="J" unicode="J" horiz-adv-x="293" d="M234 175 Q234 127 228 98 Q222 69 208 47 Q190 20 157.5 5 Q125 -10 85 -10 Q36 -10 -2 10 L-2 112 Q24 96 37 91 Q50 86 66 86 Q87 86 102.5 97 Q118 108 125 127 Q130 138 131 152 Q132 166 132 210 L132 754 L234 754 L234 175 Z " />
<glyph glyph-name="Jcircumflex" unicode="&#x134;" horiz-adv-x="293" d="M267 822 L184 892 L101 822 L60 868 L184 977 L310 873 L267 822 Z M234 175 Q234 127 228 98 Q222 69 208 47 Q190 20 157.5 5 Q125 -10 85 -10 Q36 -10 -2 10 L-2 112 Q24 96 37 91 Q50 86 66 86 Q87 86 102.5 97 Q118 108 125 127 Q130 138 131 152 Q132 166 132 210 L132 754 L234 754 L234 175 Z " />
<glyph glyph-name="K" unicode="K" horiz-adv-x="420" d="M159 754 L159 0 L58 0 L58 754 L159 754 Z M415 0 L301 0 L159 389 L301 754 L402 754 L254 389 L415 0 Z " />
<glyph glyph-name="uni0136" unicode="&#x136;" horiz-adv-x="420" d="M159 754 L159 0 L58 0 L58 754 L159 754 Z M415 0 L301 0 L159 389 L301 754 L402 754 L254 389 L415 0 Z M198 -52 L271 -79 L200 -219 L150 -199 L198 -52 Z " />
<glyph glyph-name="L" unicode="L" horiz-adv-x="331" d="M159 86 L325 86 L325 0 L58 0 L58 754 L159 754 L159 86 Z " />
<glyph glyph-name="Lacute" unicode="&#x139;" horiz-adv-x="331" d="M108 822 L71 862 L176 965 L229 906 L108 822 Z M159 86 L325 86 L325 0 L58 0 L58 754 L159 754 L159 86 Z " />
<glyph glyph-name="Lcaron" unicode="&#x13d;" horiz-adv-x="331" d="M264 602 L214 623 L262 768 L334 741 L264 602 Z M159 86 L325 86 L325 0 L58 0 L58 754 L159 754 L159 86 Z " />
<glyph glyph-name="uni013B" unicode="&#x13b;" horiz-adv-x="331" d="M159 86 L325 86 L325 0 L58 0 L58 754 L159 754 L159 86 Z M171 -219 L120 -199 L168 -52 L241 -79 L171 -219 Z " />
<glyph glyph-name="Ldot" unicode="&#x13f;" horiz-adv-x="331" d="M159 86 L325 86 L325 0 L58 0 L58 754 L159 754 L159 86 Z M272 450 Q301 450 322.5 428.5 Q344 407 344 377 Q344 348 322.5 326.5 Q301 305 271 305 Q241 305 220 326.5 Q199 348 199 379 Q199 408 220.5 429 Q242 450 272 450 Z " />
<glyph glyph-name="Lslash" unicode="&#x141;" horiz-adv-x="331" d="M159 329 L159 86 L325 86 L325 0 L58 0 L58 268 L0 221 L0 319 L58 365 L58 754 L159 754 L159 426 L285 522 L285 425 L159 329 Z " />
<glyph glyph-name="M" unicode="M" horiz-adv-x="570" d="M246 446 Q266 364 287 209 L289 228 L304 315 L316 398 L328 452 L386 754 L475 754 L545 0 L446 0 L429 255 L427 313 L423 414 L420 506 L419 519 Q412 469 410 455 Q406 438 392 355 L386 329 L323 0 L255 0 L195 285 Q187 318 175.5 388 Q164 458 156 519 L127 0 L32 0 L94 754 L181 754 L246 446 Z " />
<glyph glyph-name="N" unicode="N" horiz-adv-x="467" d="M254 453 Q273 395 296.5 312.5 Q320 230 331 181 Q319 265 314 323.5 Q309 382 307 472 L307 754 L409 754 L409 0 L314 0 L200 339 Q190 369 179 405.5 Q168 442 162 467 Q159 476 146 541 Q142 554 137 580 L141 542 Q141 532 143 506 L146 466 L151 373 L153 329 L158 0 L58 0 L58 754 L153 754 L254 453 Z " />
<glyph glyph-name="Nacute" unicode="&#x143;" horiz-adv-x="467" d="M229 822 L192 862 L297 965 L350 906 L229 822 Z M254 453 Q273 395 296.5 312.5 Q320 230 331 181 Q319 265 314 323.5 Q309 382 307 472 L307 754 L409 754 L409 0 L314 0 L200 339 Q190 369 179 405.5 Q168 442 162 467 Q159 476 146 541 Q142 554 137 580 L141 542 Q141 532 143 506 L146 466 L151 373 L153 329 L158 0 L58 0 L58 754 L153 754 L254 453 Z " />
<glyph glyph-name="Ncaron" unicode="&#x147;" horiz-adv-x="467" d="M151 977 L234 907 L318 977 L358 930 L234 822 L110 924 L151 977 Z M254 453 Q273 395 296.5 312.5 Q320 230 331 181 Q319 265 314 323.5 Q309 382 307 472 L307 754 L409 754 L409 0 L314 0 L200 339 Q190 369 179 405.5 Q168 442 162 467 Q159 476 146 541 Q142 554 137 580 L141 542 Q141 532 143 506 L146 466 L151 373 L153 329 L158 0 L58 0 L58 754 L153 754 L254 453 Z " />
<glyph glyph-name="uni0145" unicode="&#x145;" horiz-adv-x="467" d="M254 453 Q273 395 296.5 312.5 Q320 230 331 181 Q319 265 314 323.5 Q309 382 307 472 L307 754 L409 754 L409 0 L314 0 L200 339 Q190 369 179 405.5 Q168 442 162 467 Q159 476 146 541 Q142 554 137 580 L141 542 Q141 532 143 506 L146 466 L151 373 L153 329 L158 0 L58 0 L58 754 L153 754 L254 453 Z M212 -219 L162 -199 L210 -52 L283 -79 L212 -219 Z " />
<glyph glyph-name="Eng" unicode="&#x14a;" horiz-adv-x="468" d="M159 667 Q186 720 215.5 742 Q245 764 287 764 Q325 764 354.5 742 Q384 720 397 680 Q409 643 409 537 L409 84 Q409 9 402.5 -27.5 Q396 -64 379 -93 Q362 -121 334 -135.5 Q306 -150 271 -150 Q251 -150 237.5 -146.5 Q224 -143 202 -131 L202 -43 Q218 -53 229 -57 Q240 -61 252 -61 Q268 -61 280 -53.5 Q292 -46 298 -32 Q304 -20 305 -3.5 Q306 13 307 88 L307 504 Q307 582 299 611 Q284 671 238 671 Q215 671 196.5 653.5 Q178 636 169 606 Q165 588 162 548 Q159 508 159 464 L159 0 L58 0 L58 754 L159 754 L159 667 Z " />
<glyph glyph-name="Ntilde" unicode="&#xd1;" horiz-adv-x="467" d="M359 924 Q360 878 340 851.5 Q320 825 285 825 Q273 825 262.5 828.5 Q252 832 228 844 Q198 859 183 859 Q165 859 164 832 L106 832 Q107 880 126 906 Q145 932 177 932 Q189 932 199.5 928.5 Q210 925 240 912 Q273 897 285 897 Q293 897 297 903.5 Q301 910 302 924 L359 924 Z M254 453 Q273 395 296.5 312.5 Q320 230 331 181 Q319 265 314 323.5 Q309 382 307 472 L307 754 L409 754 L409 0 L314 0 L200 339 Q190 369 179 405.5 Q168 442 162 467 Q159 476 146 541 Q142 554 137 580 L141 542 Q141 532 143 506 L146 466 L151 373 L153 329 L158 0 L58 0 L58 754 L153 754 L254 453 Z " />
<glyph glyph-name="O" unicode="O" horiz-adv-x="478" d="M237 764 Q288 764 327 743 Q366 722 386 684 Q412 634 423.5 560 Q435 486 435 358 Q435 224 415.5 144 Q396 64 354 27 Q312 -10 242 -10 Q190 -10 149.5 12.5 Q109 35 89 75 Q64 123 53.5 198.5 Q43 274 43 394 Q43 499 52.5 562 Q62 625 84 671 Q128 764 237 764 Z M238 672 Q189 672 167 615 Q157 588 153 533 Q149 478 149 374 Q149 258 157 196.5 Q165 135 184.5 109.5 Q204 84 240 84 Q301 84 316 164 Q329 232 329 348 Q329 483 321.5 550.5 Q314 618 295 645 Q276 672 238 672 Z " />
<glyph glyph-name="Oacute" unicode="&#xd3;" horiz-adv-x="478" d="M191 862 L296 965 L349 906 L227 822 L191 862 Z M242 -10 Q190 -10 149.5 12.5 Q109 35 89 75 Q64 123 53.5 198.5 Q43 274 43 394 Q43 499 52.5 562 Q62 625 84 671 Q128 764 237 764 Q288 764 327 743 Q366 722 386 684 Q412 634 423.5 560 Q435 486 435 358 Q435 224 415.5 144 Q396 64 354 27 Q312 -10 242 -10 Z M240 84 Q301 84 316 164 Q329 232 329 348 Q329 483 321.5 550.5 Q314 618 295 645 Q276 672 238 672 Q189 672 167 615 Q157 588 153 533 Q149 478 149 374 Q149 258 157 196.5 Q165 135 184.5 109.5 Q204 84 240 84 Z " />
<glyph glyph-name="Obreve" unicode="&#x14e;" horiz-adv-x="478" d="M372 945 Q365 881 333.5 853 Q302 825 237 825 Q118 825 106 945 L168 945 Q174 914 191 901 Q208 888 241 888 Q272 888 288 901 Q304 914 310 945 L372 945 Z M237 764 Q288 764 327 743 Q366 722 386 684 Q412 634 423.5 560 Q435 486 435 358 Q435 224 415.5 144 Q396 64 354 27 Q312 -10 242 -10 Q190 -10 149.5 12.5 Q109 35 89 75 Q64 123 53.5 198.5 Q43 274 43 394 Q43 499 52.5 562 Q62 625 84 671 Q128 764 237 764 Z M238 672 Q189 672 167 615 Q157 588 153 533 Q149 478 149 374 Q149 258 157 196.5 Q165 135 184.5 109.5 Q204 84 240 84 Q301 84 316 164 Q329 232 329 348 Q329 483 321.5 550.5 Q314 618 295 645 Q276 672 238 672 Z " />
<glyph glyph-name="Ocircumflex" unicode="&#xd4;" horiz-adv-x="478" d="M115 868 L240 977 L364 873 L322 822 L240 892 L156 822 L115 868 Z M242 -10 Q190 -10 149.5 12.5 Q109 35 89 75 Q64 123 53.5 198.5 Q43 274 43 394 Q43 499 52.5 562 Q62 625 84 671 Q128 764 237 764 Q288 764 327 743 Q366 722 386 684 Q412 634 423.5 560 Q435 486 435 358 Q435 224 415.5 144 Q396 64 354 27 Q312 -10 242 -10 Z M240 84 Q301 84 316 164 Q329 232 329 348 Q329 483 321.5 550.5 Q314 618 295 645 Q276 672 238 672 Q189 672 167 615 Q157 588 153 533 Q149 478 149 374 Q149 258 157 196.5 Q165 135 184.5 109.5 Q204 84 240 84 Z " />
<glyph glyph-name="Odieresis" unicode="&#xd6;" horiz-adv-x="478" d="M146 941 Q169 941 185 925 Q201 909 201 886 Q201 862 185 845.5 Q169 829 146 829 Q122 829 105.5 845.5 Q89 862 89 886 Q89 909 105.5 925 Q122 941 146 941 Z M333 941 Q356 941 372.5 925 Q389 909 389 886 Q389 862 372.5 845.5 Q356 829 333 829 Q310 829 293.5 845.5 Q277 862 277 886 Q277 909 293.5 925 Q310 941 333 941 Z M237 764 Q288 764 327 743 Q366 722 386 684 Q412 634 423.5 560 Q435 486 435 358 Q435 224 415.5 144 Q396 64 354 27 Q312 -10 242 -10 Q190 -10 149.5 12.5 Q109 35 89 75 Q64 123 53.5 198.5 Q43 274 43 394 Q43 499 52.5 562 Q62 625 84 671 Q128 764 237 764 Z M238 672 Q189 672 167 615 Q157 588 153 533 Q149 478 149 374 Q149 258 157 196.5 Q165 135 184.5 109.5 Q204 84 240 84 Q301 84 316 164 Q329 232 329 348 Q329 483 321.5 550.5 Q314 618 295 645 Q276 672 238 672 Z " />
<glyph glyph-name="Ograve" unicode="&#xd2;" horiz-adv-x="478" d="M130 906 L183 965 L288 862 L252 822 L130 906 Z M242 -10 Q190 -10 149.5 12.5 Q109 35 89 75 Q64 123 53.5 198.5 Q43 274 43 394 Q43 499 52.5 562 Q62 625 84 671 Q128 764 237 764 Q288 764 327 743 Q366 722 386 684 Q412 634 423.5 560 Q435 486 435 358 Q435 224 415.5 144 Q396 64 354 27 Q312 -10 242 -10 Z M240 84 Q301 84 316 164 Q329 232 329 348 Q329 483 321.5 550.5 Q314 618 295 645 Q276 672 238 672 Q189 672 167 615 Q157 588 153 533 Q149 478 149 374 Q149 258 157 196.5 Q165 135 184.5 109.5 Q204 84 240 84 Z " />
<glyph glyph-name="Ohorn" unicode="&#x1a0;" horiz-adv-x="478" d="M242 -10 Q190 -10 149.5 12.5 Q109 35 89 75 Q66 123 54.5 200 Q43 277 43 394 Q43 498 52 560.5 Q61 623 84 671 Q105 717 143.5 740.5 Q182 764 236 764 Q286 764 325 744 Q364 724 384 688 L410 767 L484 740 L415 606 Q435 526 435 365 Q435 227 416 145.5 Q397 64 355 27 Q313 -10 242 -10 Z M240 84 Q301 84 316 164 Q329 232 329 348 Q329 483 321.5 550.5 Q314 618 295 645 Q276 672 238 672 Q189 672 167 615 Q157 588 153 533 Q149 478 149 374 Q149 258 157 196.5 Q165 135 184.5 109.5 Q204 84 240 84 Z " />
<glyph glyph-name="Ohungarumlaut" unicode="&#x150;" horiz-adv-x="478" d="M172 822 L129 855 L215 974 L278 927 L172 822 Z M323 822 L280 855 L365 974 L428 927 L323 822 Z M237 764 Q288 764 327 743 Q366 722 386 684 Q412 634 423.5 560 Q435 486 435 358 Q435 224 415.5 144 Q396 64 354 27 Q312 -10 242 -10 Q190 -10 149.5 12.5 Q109 35 89 75 Q64 123 53.5 198.5 Q43 274 43 394 Q43 499 52.5 562 Q62 625 84 671 Q128 764 237 764 Z M238 672 Q189 672 167 615 Q157 588 153 533 Q149 478 149 374 Q149 258 157 196.5 Q165 135 184.5 109.5 Q204 84 240 84 Q301 84 316 164 Q329 232 329 348 Q329 483 321.5 550.5 Q314 618 295 645 Q276 672 238 672 Z " />
<glyph glyph-name="Omacron" unicode="&#x14c;" horiz-adv-x="478" d="M366 906 L366 836 L112 836 L112 906 L366 906 Z M237 764 Q288 764 327 743 Q366 722 386 684 Q412 634 423.5 560 Q435 486 435 358 Q435 224 415.5 144 Q396 64 354 27 Q312 -10 242 -10 Q190 -10 149.5 12.5 Q109 35 89 75 Q64 123 53.5 198.5 Q43 274 43 394 Q43 499 52.5 562 Q62 625 84 671 Q128 764 237 764 Z M238 672 Q189 672 167 615 Q157 588 153 533 Q149 478 149 374 Q149 258 157 196.5 Q165 135 184.5 109.5 Q204 84 240 84 Q301 84 316 164 Q329 232 329 348 Q329 483 321.5 550.5 Q314 618 295 645 Q276 672 238 672 Z " />
<glyph glyph-name="Oslash" unicode="&#xd8;" horiz-adv-x="478" d="M408 629 Q423 569 428.5 515.5 Q434 462 434 372 Q434 259 425 194 Q416 129 394 82 Q352 -10 244 -10 Q200 -10 164 6 Q128 22 104 53 L64 -27 L8 3 L69 127 Q42 215 42 402 Q42 536 61 614.5 Q80 693 122.5 728.5 Q165 764 236 764 Q282 764 314.5 749.5 Q347 735 372 703 L407 773 L464 741 L408 629 Z M307 611 Q300 642 283 657 Q266 672 237 672 Q186 672 165 616 Q156 590 152 537 Q148 484 148 388 Q148 314 153 261 L307 611 Z M167 142 Q177 114 196 99 Q215 84 241 84 Q273 84 291 103 Q309 122 316 163 Q328 230 328 339 Q328 357 325 462 L324 492 L167 142 Z " />
<glyph glyph-name="Oslashacute" unicode="&#x1fe;" horiz-adv-x="478" d="M193 822 L157 862 L262 965 L315 906 L193 822 Z M408 629 Q423 569 428.5 515.5 Q434 462 434 372 Q434 259 425 194 Q416 129 394 82 Q352 -10 244 -10 Q200 -10 164 6 Q128 22 104 53 L64 -27 L8 3 L69 127 Q42 215 42 402 Q42 536 61 614.5 Q80 693 122.5 728.5 Q165 764 236 764 Q282 764 314.5 749.5 Q347 735 372 703 L407 773 L464 741 L408 629 Z M307 611 Q300 642 283 657 Q266 672 237 672 Q186 672 165 616 Q156 590 152 537 Q148 484 148 388 Q148 314 153 261 L307 611 Z M167 142 Q177 114 196 99 Q215 84 241 84 Q273 84 291 103 Q309 122 316 163 Q328 230 328 339 Q328 357 325 462 L324 492 L167 142 Z " />
<glyph glyph-name="Otilde" unicode="&#xd5;" horiz-adv-x="478" d="M298 825 Q286 825 276 828.5 Q266 832 242 844 Q210 859 197 859 Q187 859 183 853 Q179 847 177 832 L120 832 Q122 880 140 906 Q158 932 191 932 Q203 932 212 929 Q221 926 253 912 Q287 897 297 897 Q314 897 314 924 L373 924 Q373 877 353 851 Q333 825 298 825 Z M242 -10 Q190 -10 149.5 12.5 Q109 35 89 75 Q64 123 53.5 198.5 Q43 274 43 394 Q43 499 52.5 562 Q62 625 84 671 Q128 764 237 764 Q288 764 327 743 Q366 722 386 684 Q412 634 423.5 560 Q435 486 435 358 Q435 224 415.5 144 Q396 64 354 27 Q312 -10 242 -10 Z M240 84 Q301 84 316 164 Q329 232 329 348 Q329 483 321.5 550.5 Q314 618 295 645 Q276 672 238 672 Q189 672 167 615 Q157 588 153 533 Q149 478 149 374 Q149 258 157 196.5 Q165 135 184.5 109.5 Q204 84 240 84 Z " />
<glyph glyph-name="OE" unicode="&#x152;" horiz-adv-x="637" d="M589 668 L423 668 L423 428 L575 428 L575 342 L423 342 L423 86 L594 86 L594 0 L332 0 L332 59 Q310 22 284 6 Q258 -10 218 -10 Q174 -10 139 13.5 Q104 37 84 80 Q43 163 43 371 Q43 486 54.5 567 Q66 648 88 688 Q109 725 142.5 744.5 Q176 764 217 764 Q257 764 282.5 748.5 Q308 733 328 696 L328 754 L589 754 L589 668 Z M240 675 Q206 675 185.5 645.5 Q165 616 156 551.5 Q147 487 147 377 Q147 268 156 204 Q165 140 185.5 111 Q206 82 240 82 Q295 82 313 151 Q321 181 324 229.5 Q327 278 327 372 Q327 483 323.5 533.5 Q320 584 310 615 Q300 644 282 659.5 Q264 675 240 675 Z " />
<glyph glyph-name="P" unicode="P" horiz-adv-x="397" d="M191 754 Q231 754 255 749 Q279 744 301 730 Q337 707 356 660.5 Q375 614 375 548 Q375 390 275 349 Q253 340 228.5 337 Q204 334 159 334 L159 0 L58 0 L58 754 L191 754 Z M270 538 Q270 605 246.5 636.5 Q223 668 173 668 L159 668 L159 421 Q208 421 230 435 Q270 459 270 538 Z " />
<glyph glyph-name="Thorn" unicode="&#xde;" horiz-adv-x="397" d="M159 649 L191 649 Q231 649 255 644 Q279 639 301 625 Q337 602 356 555.5 Q375 509 375 443 Q375 283 275 244 Q253 236 228.5 232.5 Q204 229 159 228 L159 0 L58 0 L58 754 L159 754 L159 649 Z M168 315 Q223 315 246.5 342.5 Q270 370 270 433 Q270 500 246.5 531.5 Q223 563 173 563 L159 563 L159 315 L168 315 Z " />
<glyph glyph-name="Q" unicode="Q" horiz-adv-x="478" d="M340 17 Q316 2 293.5 -4 Q271 -10 243 -10 Q192 -10 152 12.5 Q112 35 90 76 Q66 125 54.5 203.5 Q43 282 43 403 Q43 507 52 566.5 Q61 626 84 673 Q126 764 235 764 Q310 764 353 725 Q396 686 415.5 598.5 Q435 511 435 359 Q435 252 425 185.5 Q415 119 392 77 L457 -11 L392 -58 L340 17 Z M319 180 Q325 218 327 254 Q329 290 329 342 Q329 478 321.5 547 Q314 616 294.5 643.5 Q275 671 236 671 Q211 671 194.5 658 Q178 645 167 616 Q149 564 149 400 Q149 271 157 204.5 Q165 138 184 111 Q203 84 240 84 Q262 84 280 98 L216 191 L277 240 L319 180 Z " />
<glyph glyph-name="R" unicode="R" horiz-adv-x="421" d="M191 754 Q233 754 257.5 747.5 Q282 741 302 725 Q333 702 349.5 658.5 Q366 615 366 557 Q366 463 321 402 Q309 387 296 379 Q283 371 262 366 L400 0 L297 0 L159 368 L159 0 L58 0 L58 754 L191 754 Z M159 419 Q189 420 205.5 424 Q222 428 233 437 Q250 451 259 477.5 Q268 504 268 540 Q268 577 260.5 606.5 Q253 636 240 650 Q229 661 214 665.5 Q199 670 175 670 L159 670 L159 419 Z " />
<glyph glyph-name="Racute" unicode="&#x154;" horiz-adv-x="421" d="M168 822 L131 862 L236 965 L290 906 L168 822 Z M191 754 Q233 754 257.5 747.5 Q282 741 302 725 Q333 702 349.5 658.5 Q366 615 366 557 Q366 463 321 402 Q309 387 296 379 Q283 371 262 366 L400 0 L297 0 L159 368 L159 0 L58 0 L58 754 L191 754 Z M159 419 Q189 420 205.5 424 Q222 428 233 437 Q250 451 259 477.5 Q268 504 268 540 Q268 577 260.5 606.5 Q253 636 240 650 Q229 661 214 665.5 Q199 670 175 670 L159 670 L159 419 Z " />
<glyph glyph-name="Rcaron" unicode="&#x158;" horiz-adv-x="421" d="M102 977 L185 907 L269 977 L310 930 L185 822 L60 924 L102 977 Z M191 754 Q233 754 257.5 747.5 Q282 741 302 725 Q333 702 349.5 658.5 Q366 615 366 557 Q366 463 321 402 Q309 387 296 379 Q283 371 262 366 L400 0 L297 0 L159 368 L159 0 L58 0 L58 754 L191 754 Z M159 419 Q189 420 205.5 424 Q222 428 233 437 Q250 451 259 477.5 Q268 504 268 540 Q268 577 260.5 606.5 Q253 636 240 650 Q229 661 214 665.5 Q199 670 175 670 L159 670 L159 419 Z " />
<glyph glyph-name="uni0156" unicode="&#x156;" horiz-adv-x="421" d="M191 754 Q233 754 257.5 747.5 Q282 741 302 725 Q333 702 349.5 658.5 Q366 615 366 557 Q366 463 321 402 Q309 387 296 379 Q283 371 262 366 L400 0 L297 0 L159 368 L159 0 L58 0 L58 754 L191 754 Z M159 419 Q189 420 205.5 424 Q222 428 233 437 Q250 451 259 477.5 Q268 504 268 540 Q268 577 260.5 606.5 Q253 636 240 650 Q229 661 214 665.5 Q199 670 175 670 L159 670 L159 419 Z M205 -219 L154 -199 L202 -52 L275 -79 L205 -219 Z " />
<glyph glyph-name="S" unicode="S" horiz-adv-x="373" d="M308 638 Q284 657 265.5 664.5 Q247 672 226 672 Q185 672 159.5 644 Q134 616 134 572 Q134 545 141.5 525.5 Q149 506 170.5 480 Q192 454 238 408 Q272 374 288 354 Q304 334 314 313 Q345 256 345 190 Q345 132 322.5 86.5 Q300 41 260 15.5 Q220 -10 169 -10 Q135 -10 109.5 -1.5 Q84 7 59 26 L59 127 Q88 105 110 96 Q132 87 157 87 Q197 87 221 115 Q245 143 245 190 Q245 231 227 263.5 Q209 296 159 345 Q110 394 92 414.5 Q74 435 61 460 Q35 509 35 572 Q35 660 81 712 Q127 764 206 764 Q237 764 259 758.5 Q281 753 310 738 L308 638 Z " />
<glyph glyph-name="Sacute" unicode="&#x15a;" horiz-adv-x="373" d="M190 822 L154 862 L259 965 L312 906 L190 822 Z M308 638 Q284 657 265.5 664.5 Q247 672 226 672 Q185 672 159.5 644 Q134 616 134 572 Q134 545 141.5 525.5 Q149 506 170.5 480 Q192 454 238 408 Q272 374 288 354 Q304 334 314 313 Q345 256 345 190 Q345 132 322.5 86.5 Q300 41 260 15.5 Q220 -10 169 -10 Q135 -10 109.5 -1.5 Q84 7 59 26 L59 127 Q88 105 110 96 Q132 87 157 87 Q197 87 221 115 Q245 143 245 190 Q245 231 227 263.5 Q209 296 159 345 Q110 394 92 414.5 Q74 435 61 460 Q35 509 35 572 Q35 660 81 712 Q127 764 206 764 Q237 764 259 758.5 Q281 753 310 738 L308 638 Z " />
<glyph glyph-name="Scaron" unicode="&#x160;" horiz-adv-x="373" d="M112 977 L195 907 L279 977 L320 930 L195 822 L70 924 L112 977 Z M308 638 Q284 657 265.5 664.5 Q247 672 226 672 Q185 672 159.5 644 Q134 616 134 572 Q134 545 141.5 525.5 Q149 506 170.5 480 Q192 454 238 408 Q272 374 288 354 Q304 334 314 313 Q345 256 345 190 Q345 132 322.5 86.5 Q300 41 260 15.5 Q220 -10 169 -10 Q135 -10 109.5 -1.5 Q84 7 59 26 L59 127 Q88 105 110 96 Q132 87 157 87 Q197 87 221 115 Q245 143 245 190 Q245 231 227 263.5 Q209 296 159 345 Q110 394 92 414.5 Q74 435 61 460 Q35 509 35 572 Q35 660 81 712 Q127 764 206 764 Q237 764 259 758.5 Q281 753 310 738 L308 638 Z " />
<glyph glyph-name="Scedilla" unicode="&#x15e;" horiz-adv-x="373" d="M308 638 Q284 657 265.5 664.5 Q247 672 226 672 Q185 672 159.5 644 Q134 616 134 572 Q134 545 141.5 525.5 Q149 506 170.5 480 Q192 454 238 408 Q272 374 288 354 Q304 334 314 313 Q345 256 345 190 Q345 132 322.5 86.5 Q300 41 260 15.5 Q220 -10 169 -10 Q135 -10 109.5 -1.5 Q84 7 59 26 L59 127 Q88 105 110 96 Q132 87 157 87 Q197 87 221 115 Q245 143 245 190 Q245 231 227 263.5 Q209 296 159 345 Q110 394 92 414.5 Q74 435 61 460 Q35 509 35 572 Q35 660 81 712 Q127 764 206 764 Q237 764 259 758.5 Q281 753 310 738 L308 638 Z M145 -214 L96 -189 L157 -46 L227 -80 L145 -214 Z " />
<glyph glyph-name="Scircumflex" unicode="&#x15c;" horiz-adv-x="373" d="M281 822 L198 892 L114 822 L73 868 L198 977 L323 873 L281 822 Z M308 638 Q284 657 265.5 664.5 Q247 672 226 672 Q185 672 159.5 644 Q134 616 134 572 Q134 545 141.5 525.5 Q149 506 170.5 480 Q192 454 238 408 Q272 374 288 354 Q304 334 314 313 Q345 256 345 190 Q345 132 322.5 86.5 Q300 41 260 15.5 Q220 -10 169 -10 Q135 -10 109.5 -1.5 Q84 7 59 26 L59 127 Q88 105 110 96 Q132 87 157 87 Q197 87 221 115 Q245 143 245 190 Q245 231 227 263.5 Q209 296 159 345 Q110 394 92 414.5 Q74 435 61 460 Q35 509 35 572 Q35 660 81 712 Q127 764 206 764 Q237 764 259 758.5 Q281 753 310 738 L308 638 Z " />
<glyph glyph-name="uni0218" unicode="&#x218;" horiz-adv-x="373" d="M308 638 Q284 657 265.5 664.5 Q247 672 226 672 Q185 672 159.5 644 Q134 616 134 572 Q134 545 141.5 525.5 Q149 506 170.5 480 Q192 454 238 408 Q272 374 288 354 Q304 334 314 313 Q345 256 345 190 Q345 132 322.5 86.5 Q300 41 260 15.5 Q220 -10 169 -10 Q135 -10 109.5 -1.5 Q84 7 59 26 L59 127 Q88 105 110 96 Q132 87 157 87 Q197 87 221 115 Q245 143 245 190 Q245 231 227 263.5 Q209 296 159 345 Q110 394 92 414.5 Q74 435 61 460 Q35 509 35 572 Q35 660 81 712 Q127 764 206 764 Q237 764 259 758.5 Q281 753 310 738 L308 638 Z M154 -219 L103 -199 L151 -52 L224 -79 L154 -219 Z " />
<glyph glyph-name="uni1E9E" unicode="&#x1e9e;" horiz-adv-x="478" d="M333 415 Q393 380 424 325.5 Q455 271 455 201 Q455 135 427.5 88 Q400 41 357 17.5 Q314 -6 267 -6 Q226 -6 207 2 L207 110 Q234 88 267 88 Q350 88 350 198 Q350 257 319 299 Q288 341 221 371 L318 659 Q303 665 280.5 669 Q258 673 236 673 Q204 673 187 662 Q170 651 163 625 Q156 599 156 549 L156 0 L56 0 L56 521 Q56 597 61 633.5 Q66 670 82 698 Q99 729 138.5 746.5 Q178 764 223 764 Q278 764 326 753 Q374 742 434 714 L333 415 Z " />
<glyph glyph-name="uni018F" unicode="&#x18f;" horiz-adv-x="478" d="M329 428 Q329 458 324 515 Q319 572 314 601 Q308 635 288.5 653.5 Q269 672 238 672 Q200 672 181 642.5 Q162 613 151 536 L50 554 Q67 665 111.5 714.5 Q156 764 237 764 Q288 764 327 743 Q366 722 386 684 Q412 634 423.5 560.5 Q435 487 435 363 Q435 226 416 145 Q397 64 355 27 Q313 -10 242 -10 Q190 -10 150.5 12 Q111 34 89 75 Q64 122 54.5 194 Q45 266 44 407 L329 406 L329 428 Z M149 290 Q149 247 155.5 202.5 Q162 158 173 131 Q181 109 199 96.5 Q217 84 240 84 Q265 84 283.5 98.5 Q302 113 310 138 Q318 165 323.5 206 Q329 247 329 285 L327 336 L151 336 L149 290 Z " />
<glyph glyph-name="T" unicode="T" horiz-adv-x="327" d="M329 664 L215 664 L215 0 L115 0 L115 664 L-2 664 L-2 754 L329 754 L329 664 Z " />
<glyph glyph-name="Tbar" unicode="&#x166;" horiz-adv-x="327" d="M215 486 L215 0 L115 0 L115 486 L12 486 L12 564 L115 564 L115 664 L-2 664 L-2 754 L329 754 L329 664 L215 664 L215 564 L314 564 L314 486 L215 486 Z " />
<glyph glyph-name="Tcaron" unicode="&#x164;" horiz-adv-x="327" d="M81 977 L164 907 L247 977 L288 930 L164 822 L38 924 L81 977 Z M329 664 L215 664 L215 0 L115 0 L115 664 L-2 664 L-2 754 L329 754 L329 664 Z " />
<glyph glyph-name="uni0162" unicode="&#x162;" horiz-adv-x="327" d="M329 664 L215 664 L215 0 L115 0 L115 664 L-2 664 L-2 754 L329 754 L329 664 Z M134 -219 L84 -199 L132 -52 L205 -79 L134 -219 Z " />
<glyph glyph-name="U" unicode="U" horiz-adv-x="462" d="M157 221 Q157 178 159.5 155 Q162 132 168 121 Q186 86 233 86 Q285 86 298 128 Q305 146 305 207 L305 754 L405 754 L405 207 Q405 137 396.5 100.5 Q388 64 366 40 Q322 -10 229 -10 Q117 -10 78 68 Q67 91 62.5 125 Q58 159 58 221 L58 754 L157 754 L157 221 Z " />
<glyph glyph-name="Uacute" unicode="&#xda;" horiz-adv-x="462" d="M190 862 L295 965 L348 906 L227 822 L190 862 Z M229 -10 Q117 -10 78 68 Q67 91 62.5 125 Q58 159 58 221 L58 754 L157 754 L157 221 Q157 178 159.5 155 Q162 132 168 121 Q186 86 233 86 Q285 86 298 128 Q305 146 305 207 L305 754 L405 754 L405 207 Q405 137 396.5 100.5 Q388 64 366 40 Q322 -10 229 -10 Z " />
<glyph glyph-name="Ubreve" unicode="&#x16c;" horiz-adv-x="462" d="M364 945 Q357 881 325.5 853 Q294 825 229 825 Q110 825 98 945 L160 945 Q166 914 183 901 Q200 888 233 888 Q264 888 280 901 Q296 914 302 945 L364 945 Z M157 221 Q157 178 159.5 155 Q162 132 168 121 Q186 86 233 86 Q285 86 298 128 Q305 146 305 207 L305 754 L405 754 L405 207 Q405 137 396.5 100.5 Q388 64 366 40 Q322 -10 229 -10 Q117 -10 78 68 Q67 91 62.5 125 Q58 159 58 221 L58 754 L157 754 L157 221 Z " />
<glyph glyph-name="Ucircumflex" unicode="&#xdb;" horiz-adv-x="462" d="M314 822 L232 892 L148 822 L107 868 L232 977 L356 873 L314 822 Z M157 221 Q157 178 159.5 155 Q162 132 168 121 Q186 86 233 86 Q285 86 298 128 Q305 146 305 207 L305 754 L405 754 L405 207 Q405 137 396.5 100.5 Q388 64 366 40 Q322 -10 229 -10 Q117 -10 78 68 Q67 91 62.5 125 Q58 159 58 221 L58 754 L157 754 L157 221 Z " />
<glyph glyph-name="Udieresis" unicode="&#xdc;" horiz-adv-x="462" d="M138 941 Q161 941 177 925 Q193 909 193 886 Q193 862 177 845.5 Q161 829 138 829 Q114 829 97.5 845.5 Q81 862 81 886 Q81 909 97.5 925 Q114 941 138 941 Z M325 941 Q348 941 364.5 925 Q381 909 381 886 Q381 862 364.5 845.5 Q348 829 325 829 Q302 829 285.5 845.5 Q269 862 269 886 Q269 909 285.5 925 Q302 941 325 941 Z M157 221 Q157 178 159.5 155 Q162 132 168 121 Q186 86 233 86 Q285 86 298 128 Q305 146 305 207 L305 754 L405 754 L405 207 Q405 137 396.5 100.5 Q388 64 366 40 Q322 -10 229 -10 Q117 -10 78 68 Q67 91 62.5 125 Q58 159 58 221 L58 754 L157 754 L157 221 Z " />
<glyph glyph-name="Ugrave" unicode="&#xd9;" horiz-adv-x="462" d="M122 906 L175 965 L280 862 L244 822 L122 906 Z M229 -10 Q117 -10 78 68 Q67 91 62.5 125 Q58 159 58 221 L58 754 L157 754 L157 221 Q157 178 159.5 155 Q162 132 168 121 Q186 86 233 86 Q285 86 298 128 Q305 146 305 207 L305 754 L405 754 L405 207 Q405 137 396.5 100.5 Q388 64 366 40 Q322 -10 229 -10 Z " />
<glyph glyph-name="Uhorn" unicode="&#x1af;" horiz-adv-x="462" d="M436 631 L484 776 L557 749 L486 609 L436 631 Z M229 -10 Q117 -10 78 68 Q67 91 62.5 125 Q58 159 58 221 L58 754 L157 754 L157 221 Q157 178 159.5 155 Q162 132 168 121 Q186 86 233 86 Q285 86 298 128 Q305 146 305 207 L305 754 L405 754 L405 207 Q405 137 396.5 100.5 Q388 64 366 40 Q322 -10 229 -10 Z " />
<glyph glyph-name="Uhungarumlaut" unicode="&#x170;" horiz-adv-x="462" d="M164 822 L121 855 L207 974 L270 927 L164 822 Z M315 822 L272 855 L357 974 L420 927 L315 822 Z M157 221 Q157 178 159.5 155 Q162 132 168 121 Q186 86 233 86 Q285 86 298 128 Q305 146 305 207 L305 754 L405 754 L405 207 Q405 137 396.5 100.5 Q388 64 366 40 Q322 -10 229 -10 Q117 -10 78 68 Q67 91 62.5 125 Q58 159 58 221 L58 754 L157 754 L157 221 Z " />
<glyph glyph-name="Umacron" unicode="&#x16a;" horiz-adv-x="462" d="M358 906 L358 836 L104 836 L104 906 L358 906 Z M157 221 Q157 178 159.5 155 Q162 132 168 121 Q186 86 233 86 Q285 86 298 128 Q305 146 305 207 L305 754 L405 754 L405 207 Q405 137 396.5 100.5 Q388 64 366 40 Q322 -10 229 -10 Q117 -10 78 68 Q67 91 62.5 125 Q58 159 58 221 L58 754 L157 754 L157 221 Z " />
<glyph glyph-name="Uogonek" unicode="&#x172;" horiz-adv-x="462" d="M157 221 Q157 178 159.5 155 Q162 132 168 121 Q186 86 233 86 Q285 86 298 128 Q305 146 305 207 L305 754 L405 754 L405 207 Q406 149 400 115.5 Q394 82 379 58.5 Q364 35 333 10 Q309 -8 298.5 -27 Q288 -46 288 -71 Q288 -107 327 -107 Q350 -107 374 -98 L374 -156 Q349 -166 321 -166 Q278 -166 253 -145 Q228 -124 228 -88 Q228 -66 237 -46.5 Q246 -27 267 -7 Q241 -10 224 -10 Q173 -10 135 10.5 Q97 31 78 68 Q67 91 62.5 125 Q58 159 58 221 L58 754 L157 754 L157 221 Z " />
<glyph glyph-name="Uring" unicode="&#x16e;" horiz-adv-x="462" d="M233 985 Q266 985 290 961 Q314 937 314 903 Q314 869 290 844.5 Q266 820 232 820 Q198 820 173.5 844.5 Q149 869 149 904 Q149 938 173.5 961.5 Q198 985 233 985 Z M232 935 Q219 935 209.5 925.5 Q200 916 200 903 Q200 890 209.5 880.5 Q219 871 232 871 Q245 871 254 880.5 Q263 890 263 903 Q263 916 254 925.5 Q245 935 232 935 Z M157 221 Q157 178 159.5 155 Q162 132 168 121 Q186 86 233 86 Q285 86 298 128 Q305 146 305 207 L305 754 L405 754 L405 207 Q405 137 396.5 100.5 Q388 64 366 40 Q322 -10 229 -10 Q117 -10 78 68 Q67 91 62.5 125 Q58 159 58 221 L58 754 L157 754 L157 221 Z " />
<glyph glyph-name="Utilde" unicode="&#x168;" horiz-adv-x="462" d="M283 825 Q271 825 260.5 828.5 Q250 832 226 844 Q196 859 181 859 Q171 859 167 852.5 Q163 846 162 832 L104 832 Q105 880 124 906 Q143 932 175 932 Q187 932 197.5 928.5 Q208 925 237 912 Q271 897 283 897 Q291 897 294.5 903 Q298 909 299 924 L357 924 Q357 878 337.5 851.5 Q318 825 283 825 Z M229 -10 Q117 -10 78 68 Q67 91 62.5 125 Q58 159 58 221 L58 754 L157 754 L157 221 Q157 178 159.5 155 Q162 132 168 121 Q186 86 233 86 Q285 86 298 128 Q305 146 305 207 L305 754 L405 754 L405 207 Q405 137 396.5 100.5 Q388 64 366 40 Q322 -10 229 -10 Z " />
<glyph glyph-name="V" unicode="V" horiz-adv-x="370" d="M144 476 L151 425 L167 315 Q171 286 172 284 Q179 234 185 186 Q189 213 189 221 L202 308 Q213 369 220 424 L228 476 L277 754 L372 754 L224 0 L144 0 L-2 754 L98 754 L144 476 Z " />
<glyph glyph-name="W" unicode="W" horiz-adv-x="592" d="M150 403 Q158 355 161.5 328 Q165 301 167 276 L173 211 L175 186 Q189 327 205 427 L259 754 L337 754 L388 437 Q413 271 418 192 Q432 345 450 459 L494 754 L590 754 L458 0 L379 0 L325 325 L316 382 L306 458 Q306 459 299 522 L296 559 Q294 533 293 527 L286 454 L283 434 Q282 426 280 410 Q278 394 277 382 L268 325 L212 0 L131 0 L1 754 L99 754 L150 403 Z " />
<glyph glyph-name="Wacute" unicode="&#x1e82;" horiz-adv-x="592" d="M253 822 L217 862 L322 965 L375 906 L253 822 Z M150 403 Q158 355 161.5 328 Q165 301 167 276 L173 211 L175 186 Q189 327 205 427 L259 754 L337 754 L388 437 Q413 271 418 192 Q432 345 450 459 L494 754 L590 754 L458 0 L379 0 L325 325 L316 382 L306 458 Q306 459 299 522 L296 559 Q294 533 293 527 L286 454 L283 434 Q282 426 280 410 Q278 394 277 382 L268 325 L212 0 L131 0 L1 754 L99 754 L150 403 Z " />
<glyph glyph-name="Wcircumflex" unicode="&#x174;" horiz-adv-x="592" d="M379 822 L296 892 L212 822 L172 868 L296 977 L421 873 L379 822 Z M150 403 Q158 355 161.5 328 Q165 301 167 276 L173 211 L175 186 Q189 327 205 427 L259 754 L337 754 L388 437 Q413 271 418 192 Q432 345 450 459 L494 754 L590 754 L458 0 L379 0 L325 325 L316 382 L306 458 Q306 459 299 522 L296 559 Q294 533 293 527 L286 454 L283 434 Q282 426 280 410 Q278 394 277 382 L268 325 L212 0 L131 0 L1 754 L99 754 L150 403 Z " />
<glyph glyph-name="Wdieresis" unicode="&#x1e84;" horiz-adv-x="592" d="M203 941 Q226 941 242.5 925 Q259 909 259 886 Q259 862 242.5 845.5 Q226 829 203 829 Q180 829 163.5 845.5 Q147 862 147 886 Q147 909 163.5 925 Q180 941 203 941 Z M390 941 Q413 941 429 925 Q445 909 445 886 Q445 862 429 845.5 Q413 829 390 829 Q366 829 349.5 845.5 Q333 862 333 886 Q333 909 349.5 925 Q366 941 390 941 Z M150 403 Q158 355 161.5 328 Q165 301 167 276 L173 211 L175 186 Q189 327 205 427 L259 754 L337 754 L388 437 Q413 271 418 192 Q432 345 450 459 L494 754 L590 754 L458 0 L379 0 L325 325 L316 382 L306 458 Q306 459 299 522 L296 559 Q294 533 293 527 L286 454 L283 434 Q282 426 280 410 Q278 394 277 382 L268 325 L212 0 L131 0 L1 754 L99 754 L150 403 Z " />
<glyph glyph-name="Wgrave" unicode="&#x1e80;" horiz-adv-x="592" d="M338 822 L217 906 L270 965 L375 862 L338 822 Z M150 403 Q158 355 161.5 328 Q165 301 167 276 L173 211 L175 186 Q189 327 205 427 L259 754 L337 754 L388 437 Q413 271 418 192 Q432 345 450 459 L494 754 L590 754 L458 0 L379 0 L325 325 L316 382 L306 458 Q306 459 299 522 L296 559 Q294 533 293 527 L286 454 L283 434 Q282 426 280 410 Q278 394 277 382 L268 325 L212 0 L131 0 L1 754 L99 754 L150 403 Z " />
<glyph glyph-name="X" unicode="X" horiz-adv-x="375" d="M158 608 Q192 510 194 481 Q201 512 227 599 L276 754 L377 754 L238 383 L377 0 L276 0 L226 144 Q209 191 200.5 221.5 Q192 252 188 281 Q184 250 180 235 Q178 229 173 212 Q168 195 157 165 L149 137 L105 0 L-2 0 L141 383 L7 754 L105 754 L158 608 Z " />
<glyph glyph-name="Y" unicode="Y" horiz-adv-x="385" d="M155 590 Q159 573 166 555 Q184 498 190.5 471.5 Q197 445 203 406 Q209 444 215 469 Q217 483 225 515 Q228 533 234 557 L240 583 L281 754 L388 754 L257 324 L257 0 L155 0 L155 324 L-2 754 L105 754 L155 590 Z " />
<glyph glyph-name="Yacute" unicode="&#xdd;" horiz-adv-x="385" d="M159 862 L264 965 L318 906 L195 822 L159 862 Z M155 324 L-2 754 L105 754 L155 590 Q159 573 166 555 Q184 498 190.5 471.5 Q197 445 203 406 Q209 444 215 469 Q217 483 225 515 Q228 533 234 557 L240 583 L281 754 L388 754 L257 324 L257 0 L155 0 L155 324 Z " />
<glyph glyph-name="Ycircumflex" unicode="&#x176;" horiz-adv-x="385" d="M276 822 L193 892 L110 822 L69 868 L193 977 L318 873 L276 822 Z M155 590 Q159 573 166 555 Q184 498 190.5 471.5 Q197 445 203 406 Q209 444 215 469 Q217 483 225 515 Q228 533 234 557 L240 583 L281 754 L388 754 L257 324 L257 0 L155 0 L155 324 L-2 754 L105 754 L155 590 Z " />
<glyph glyph-name="Ydieresis" unicode="&#x178;" horiz-adv-x="385" d="M101 941 Q124 941 140 925 Q156 909 156 886 Q156 862 140 845.5 Q124 829 101 829 Q77 829 60.5 845.5 Q44 862 44 886 Q44 909 60.5 925 Q77 941 101 941 Z M287 941 Q310 941 326 925 Q342 909 342 886 Q342 862 326 845.5 Q310 829 287 829 Q263 829 247 845.5 Q231 862 231 886 Q231 909 247 925 Q263 941 287 941 Z M155 590 Q159 573 166 555 Q184 498 190.5 471.5 Q197 445 203 406 Q209 444 215 469 Q217 483 225 515 Q228 533 234 557 L240 583 L281 754 L388 754 L257 324 L257 0 L155 0 L155 324 L-2 754 L105 754 L155 590 Z " />
<glyph glyph-name="Ygrave" unicode="&#x1ef2;" horiz-adv-x="385" d="M114 906 L167 965 L272 862 L235 822 L114 906 Z M155 324 L-2 754 L105 754 L155 590 Q159 573 166 555 Q184 498 190.5 471.5 Q197 445 203 406 Q209 444 215 469 Q217 483 225 515 Q228 533 234 557 L240 583 L281 754 L388 754 L257 324 L257 0 L155 0 L155 324 Z " />
<glyph glyph-name="Z" unicode="Z" horiz-adv-x="377" d="M145 89 L358 89 L358 0 L12 0 L241 668 L40 668 L40 754 L371 754 L145 89 Z " />
<glyph glyph-name="Zacute" unicode="&#x179;" horiz-adv-x="377" d="M194 822 L158 862 L263 965 L316 906 L194 822 Z M145 89 L358 89 L358 0 L12 0 L241 668 L40 668 L40 754 L371 754 L145 89 Z " />
<glyph glyph-name="Zcaron" unicode="&#x17d;" horiz-adv-x="377" d="M121 977 L205 907 L288 977 L329 930 L205 822 L79 924 L121 977 Z M145 89 L358 89 L358 0 L12 0 L241 668 L40 668 L40 754 L371 754 L145 89 Z " />
<glyph glyph-name="Zdotaccent" unicode="&#x17b;" horiz-adv-x="377" d="M206 946 Q229 946 246 929 Q263 912 263 888 Q263 864 246 846.5 Q229 829 205 829 Q180 829 163 846 Q146 863 146 888 Q146 912 163.5 929 Q181 946 206 946 Z M145 89 L358 89 L358 0 L12 0 L241 668 L40 668 L40 754 L371 754 L145 89 Z " />
<glyph glyph-name="uni01C4" unicode="&#x1c4;" horiz-adv-x="842" d="M586 977 L669 907 L753 977 L793 930 L669 822 L544 924 L586 977 Z M182 754 Q248 754 286 738.5 Q324 723 354 685 Q390 637 405.5 564 Q421 491 421 366 Q421 247 404 174.5 Q387 102 349 60 Q318 28 270.5 14 Q223 0 140 0 L58 0 L58 754 L182 754 Z M609 89 L824 89 L824 0 L477 0 L705 668 L504 668 L504 754 L836 754 L609 89 Z M159 88 Q222 88 255 112 Q288 136 301.5 194.5 Q315 253 315 365 Q315 483 302 547.5 Q289 612 258.5 640 Q228 668 172 668 L159 668 L159 88 Z " />
<glyph glyph-name="uni01C5" unicode="&#x1c5;" horiz-adv-x="801" d="M567 758 L640 676 L718 758 L764 720 L641 581 L515 720 L567 758 Z M182 754 Q248 754 286 738.5 Q324 723 354 685 Q390 637 405.5 564 Q421 491 421 366 Q421 247 404 174.5 Q387 102 349 60 Q318 28 270.5 14 Q223 0 140 0 L58 0 L58 754 L182 754 Z M159 88 Q222 88 255 112 Q288 136 301.5 194.5 Q315 253 315 365 Q315 483 302 547.5 Q289 612 258.5 640 Q228 668 172 668 L159 668 L159 88 Z M617 85 L777 85 L777 0 L479 0 L654 423 L493 423 L493 505 L786 505 L617 85 Z " />
<glyph glyph-name="uni01C7" unicode="&#x1c7;" horiz-adv-x="623" d="M159 86 L325 86 L325 0 L58 0 L58 754 L159 754 L159 86 Z M605 175 Q605 127 599 98 Q593 69 579 47 Q561 20 528.5 5 Q496 -10 455 -10 Q406 -10 368 10 L368 112 Q393 96 406.5 91 Q420 86 436 86 Q457 86 473 97 Q489 108 496 127 Q501 138 502 152 Q503 166 503 210 L503 754 L605 754 L605 175 Z " />
<glyph glyph-name="uni01C8" unicode="&#x1c8;" horiz-adv-x="538" d="M159 86 L325 86 L325 0 L58 0 L58 754 L159 754 L159 86 Z M436 720 Q462 720 480 701.5 Q498 683 498 657 Q498 630 479.5 611.5 Q461 593 435 593 Q409 593 390.5 611.5 Q372 630 372 657 Q372 683 390.5 701.5 Q409 720 436 720 Z M380 -216 Q342 -216 320 -205 L320 -114 Q328 -124 339 -128.5 Q350 -133 360 -133 Q380 -133 386 -120 Q392 -107 392 -76 L392 505 L486 505 L486 -78 Q486 -117 479.5 -142.5 Q473 -168 458 -186 Q433 -216 380 -216 Z " />
<glyph glyph-name="uni01CA" unicode="&#x1ca;" horiz-adv-x="759" d="M254 453 Q273 395 296.5 312.5 Q320 230 331 181 Q319 265 314 323.5 Q309 382 307 472 L307 754 L409 754 L409 0 L314 0 L200 339 Q190 369 179 405.5 Q168 442 162 467 Q159 476 146 541 Q142 554 137 580 L141 542 Q141 532 143 506 L146 466 L151 373 L153 329 L158 0 L58 0 L58 754 L153 754 L254 453 Z M701 175 Q701 127 695 98 Q689 69 675 47 Q657 20 624.5 5 Q592 -10 551 -10 Q502 -10 464 10 L464 112 Q489 96 502.5 91 Q516 86 532 86 Q553 86 569 97 Q585 108 592 127 Q597 138 598 152 Q599 166 599 210 L599 754 L701 754 L701 175 Z " />
<glyph glyph-name="uni01CB" unicode="&#x1cb;" horiz-adv-x="666" d="M254 453 Q273 395 296.5 312.5 Q320 230 331 181 Q319 265 314 323.5 Q309 382 307 472 L307 754 L409 754 L409 0 L314 0 L200 339 Q190 369 179 405.5 Q168 442 162 467 Q159 476 146 541 Q142 554 137 580 L141 542 Q141 532 143 506 L146 466 L151 373 L153 329 L158 0 L58 0 L58 754 L153 754 L254 453 Z M564 720 Q590 720 608 701.5 Q626 683 626 657 Q626 630 607.5 611.5 Q589 593 563 593 Q537 593 518.5 611.5 Q500 630 500 657 Q500 683 518.5 701.5 Q537 720 564 720 Z M508 -216 Q470 -216 448 -205 L448 -114 Q456 -124 467 -128.5 Q478 -133 488 -133 Q508 -133 514 -120 Q520 -107 520 -76 L520 505 L614 505 L614 -78 Q614 -117 607.5 -142.5 Q601 -168 586 -186 Q561 -216 508 -216 Z " />
<glyph glyph-name="uni01CD" unicode="&#x1cd;" horiz-adv-x="407" d="M121 977 L205 907 L288 977 L329 930 L205 822 L79 924 L121 977 Z M406 0 L305 0 L277 147 L128 147 L98 0 L1 0 L165 754 L244 754 L406 0 Z M240 346 Q230 399 219 478.5 Q208 558 203 607 Q187 456 160 322 L141 225 L262 225 L240 346 Z " />
<glyph glyph-name="uni01CF" unicode="&#x1cf;" horiz-adv-x="218" d="M26 977 L110 907 L193 977 L234 930 L110 822 L-16 924 L26 977 Z M159 0 L58 0 L58 754 L159 754 L159 0 Z " />
<glyph glyph-name="uni01D1" unicode="&#x1d1;" horiz-adv-x="478" d="M156 977 L240 907 L323 977 L364 930 L240 822 L114 924 L156 977 Z M237 764 Q288 764 327 743 Q366 722 386 684 Q412 634 423.5 560 Q435 486 435 358 Q435 224 415.5 144 Q396 64 354 27 Q312 -10 242 -10 Q190 -10 149.5 12.5 Q109 35 89 75 Q64 123 53.5 198.5 Q43 274 43 394 Q43 499 52.5 562 Q62 625 84 671 Q128 764 237 764 Z M238 672 Q189 672 167 615 Q157 588 153 533 Q149 478 149 374 Q149 258 157 196.5 Q165 135 184.5 109.5 Q204 84 240 84 Q301 84 316 164 Q329 232 329 348 Q329 483 321.5 550.5 Q314 618 295 645 Q276 672 238 672 Z " />
<glyph glyph-name="uni01D3" unicode="&#x1d3;" horiz-adv-x="462" d="M149 977 L232 907 L315 977 L356 930 L232 822 L107 924 L149 977 Z M157 221 Q157 178 159.5 155 Q162 132 168 121 Q186 86 233 86 Q285 86 298 128 Q305 146 305 207 L305 754 L405 754 L405 207 Q405 137 396.5 100.5 Q388 64 366 40 Q322 -10 229 -10 Q117 -10 78 68 Q67 91 62.5 125 Q58 159 58 221 L58 754 L157 754 L157 221 Z " />
<glyph glyph-name="uni01F4" unicode="&#x1f4;" horiz-adv-x="466" d="M221 822 L184 862 L289 965 L344 906 L221 822 Z M423 397 Q423 298 420 245.5 Q417 193 409 147 Q395 67 353.5 28.5 Q312 -10 242 -10 Q169 -10 126 28.5 Q83 67 63 150.5 Q43 234 43 374 Q43 612 93 689 Q139 764 236 764 Q311 764 352.5 728.5 Q394 693 417 609 L322 570 Q310 629 291.5 652 Q273 675 236 675 Q201 675 182.5 648.5 Q164 622 156 558 Q148 494 148 376 Q148 260 156 197.5 Q164 135 183 109.5 Q202 84 238 84 Q271 84 290.5 102.5 Q310 121 318.5 162.5 Q327 204 327 275 L327 311 L238 311 L238 397 L423 397 Z " />
<glyph glyph-name="uni0200" unicode="&#x200;" horiz-adv-x="407" d="M119 822 L14 927 L77 974 L163 855 L119 822 Z M270 822 L165 927 L227 974 L313 855 L270 822 Z M406 0 L305 0 L277 147 L128 147 L98 0 L1 0 L165 754 L244 754 L406 0 Z M240 346 Q230 399 219 478.5 Q208 558 203 607 Q187 456 160 322 L141 225 L262 225 L240 346 Z " />
<glyph glyph-name="uni021A" unicode="&#x21a;" horiz-adv-x="327" d="M329 664 L215 664 L215 0 L115 0 L115 664 L-2 664 L-2 754 L329 754 L329 664 Z M134 -219 L84 -199 L132 -52 L205 -79 L134 -219 Z " />
<glyph glyph-name="uni0226" unicode="&#x226;" horiz-adv-x="407" d="M206 946 Q229 946 246 929 Q263 912 263 888 Q263 863 246 846 Q229 829 205 829 Q180 829 163 846 Q146 863 146 888 Q146 912 163.5 929 Q181 946 206 946 Z M406 0 L305 0 L277 147 L128 147 L98 0 L1 0 L165 754 L244 754 L406 0 Z M240 346 Q230 399 219 478.5 Q208 558 203 607 Q187 456 160 322 L141 225 L262 225 L240 346 Z " />
<glyph glyph-name="uni1E1E" unicode="&#x1e1e;" horiz-adv-x="349" d="M193 946 Q217 946 234 929 Q251 912 251 888 Q251 863 234 846 Q217 829 193 829 Q168 829 151 846 Q134 863 134 888 Q134 912 151 929 Q168 946 193 946 Z M329 668 L159 668 L159 429 L312 429 L312 344 L159 344 L159 0 L58 0 L58 754 L329 754 L329 668 Z " />
<glyph glyph-name="uni1EA0" unicode="&#x1ea0;" horiz-adv-x="407" d="M165 754 L244 754 L406 0 L305 0 L277 147 L128 147 L98 0 L1 0 L165 754 Z M262 225 L240 346 Q230 399 219 478.5 Q208 558 203 607 Q187 456 160 322 L141 225 L262 225 Z M193 -180 Q168 -180 150 -162.5 Q132 -145 132 -119 Q132 -94 149.5 -76.5 Q167 -59 193 -59 Q218 -59 235.5 -77 Q253 -95 253 -120 Q253 -145 235.5 -162.5 Q218 -180 193 -180 Z " />
<glyph glyph-name="uni1EA2" unicode="&#x1ea2;" horiz-adv-x="407" d="M182 927 Q198 930 214 932 Q245 936 256.5 945 Q268 954 268 973 Q268 993 254.5 1005 Q241 1017 216 1017 Q203 1017 196.5 1015.5 Q190 1014 176 1006 Q174 1004 160 998 L148 1032 Q199 1052 236 1052 Q278 1052 304.5 1029 Q331 1006 331 970 Q331 938 310 920 Q289 902 252 902 Q237 902 223 903 L223 862 L182 862 L182 927 Z M165 754 L244 754 L406 0 L305 0 L277 147 L128 147 L98 0 L1 0 L165 754 Z M262 225 L240 346 Q230 399 219 478.5 Q208 558 203 607 Q187 456 160 322 L141 225 L262 225 Z " />
<glyph glyph-name="uni1EA4" unicode="&#x1ea4;" horiz-adv-x="407" d="M79 868 L203 977 L273 920 L371 1015 L425 956 L319 883 L329 873 L287 822 L203 892 L120 822 L79 868 Z M165 754 L244 754 L406 0 L305 0 L277 147 L128 147 L98 0 L1 0 L165 754 Z M262 225 L240 346 Q230 399 219 478.5 Q208 558 203 607 Q187 456 160 322 L141 225 L262 225 Z " />
<glyph glyph-name="uni1EA6" unicode="&#x1ea6;" horiz-adv-x="407" d="M226 996 L283 1051 L378 941 L341 901 L226 996 Z M80 868 L204 977 L329 873 L287 822 L204 892 L121 822 L80 868 Z M166 754 L245 754 L406 0 L306 0 L278 147 L128 147 L99 0 L2 0 L166 754 Z M263 225 L241 346 Q230 404 219 483.5 Q208 563 205 607 Q186 447 160 322 L142 225 L263 225 Z " />
<glyph glyph-name="uni1EA8" unicode="&#x1ea8;" horiz-adv-x="407" d="M79 868 L203 977 L287 907 L287 951 L319 957 Q350 962 361.5 970.5 Q373 979 373 998 Q373 1018 359.5 1030 Q346 1042 321 1042 Q308 1042 302 1040 Q296 1038 281 1029 L266 1022 L253 1057 Q303 1077 341 1077 Q383 1077 409.5 1054 Q436 1031 436 994 Q436 963 415.5 945 Q395 927 358 927 L328 928 L328 886 L313 886 L329 873 L286 822 L203 892 L120 822 L79 868 Z M165 754 L244 754 L406 0 L305 0 L277 147 L128 147 L98 0 L1 0 L165 754 Z M262 225 L240 346 Q230 399 219 478.5 Q208 558 203 607 Q187 456 160 322 L141 225 L262 225 Z " />
<glyph glyph-name="uni1EAA" unicode="&#x1eaa;" horiz-adv-x="407" d="M255 981 Q243 981 233 984.5 Q223 988 199 1000 Q169 1015 154 1015 Q144 1015 140 1009 Q136 1003 134 988 L77 988 Q79 1036 97 1062 Q115 1088 148 1088 Q160 1088 169 1085 Q178 1082 210 1068 Q244 1053 254 1053 Q263 1053 267 1059.5 Q271 1066 271 1080 L330 1080 Q330 1033 310 1007 Q290 981 255 981 Z M79 868 L203 977 L329 873 L287 822 L203 892 L120 822 L79 868 Z M165 754 L244 754 L406 0 L305 0 L277 147 L128 147 L98 0 L1 0 L165 754 Z M262 225 L240 346 Q230 399 219 478.5 Q208 558 203 607 Q187 456 160 322 L141 225 L262 225 Z " />
<glyph glyph-name="uni1EAC" unicode="&#x1eac;" horiz-adv-x="407" d="M79 868 L203 977 L329 873 L287 822 L203 892 L120 822 L79 868 Z M165 754 L244 754 L406 0 L305 0 L277 147 L128 147 L98 0 L1 0 L165 754 Z M262 225 L240 346 Q230 399 219 478.5 Q208 558 203 607 Q187 456 160 322 L141 225 L262 225 Z M193 -180 Q168 -180 150 -162.5 Q132 -145 132 -119 Q132 -94 149.5 -76.5 Q167 -59 193 -59 Q218 -59 235.5 -77 Q253 -95 253 -120 Q253 -145 235.5 -162.5 Q218 -180 193 -180 Z " />
<glyph glyph-name="uni1EAE" unicode="&#x1eae;" horiz-adv-x="407" d="M166 954 L271 1057 L324 998 L203 913 L166 954 Z M202 825 Q143 825 110 855.5 Q77 886 71 945 L133 945 Q139 914 156 901 Q173 888 206 888 Q237 888 253 901 Q269 914 275 945 L337 945 Q330 880 299 852.5 Q268 825 202 825 Z M165 754 L244 754 L406 0 L305 0 L277 147 L128 147 L98 0 L1 0 L165 754 Z M262 225 L240 346 Q230 399 219 478.5 Q208 558 203 607 Q187 456 160 322 L141 225 L262 225 Z " />
<glyph glyph-name="uni1EB0" unicode="&#x1eb0;" horiz-adv-x="407" d="M84 998 L138 1057 L243 954 L206 913 L84 998 Z M202 825 Q143 825 110 855.5 Q77 886 71 945 L133 945 Q139 914 156 901 Q173 888 206 888 Q237 888 253 901 Q269 914 275 945 L337 945 Q330 880 299 852.5 Q268 825 202 825 Z M165 754 L244 754 L406 0 L305 0 L277 147 L128 147 L98 0 L1 0 L165 754 Z M262 225 L240 346 Q230 399 219 478.5 Q208 558 203 607 Q187 456 160 322 L141 225 L262 225 Z " />
<glyph glyph-name="uni1EB2" unicode="&#x1eb2;" horiz-adv-x="407" d="M186 992 Q202 996 218 998 Q249 1002 260.5 1011 Q272 1020 272 1038 Q272 1059 258.5 1071 Q245 1083 220 1083 Q207 1083 202 1081 Q197 1079 181 1071 L165 1063 L153 1097 Q201 1118 241 1118 Q282 1118 309 1095 Q336 1072 336 1035 Q336 1003 315 985 Q294 967 257 967 L227 968 L227 928 L186 928 L186 992 Z M202 825 Q143 825 110 855.5 Q77 886 71 945 L133 945 Q139 914 156 901 Q173 888 206 888 Q237 888 253 901 Q269 914 275 945 L337 945 Q330 880 299 852.5 Q268 825 202 825 Z M165 754 L244 754 L406 0 L305 0 L277 147 L128 147 L98 0 L1 0 L165 754 Z M262 225 L240 346 Q230 399 219 478.5 Q208 558 203 607 Q187 456 160 322 L141 225 L262 225 Z " />
<glyph glyph-name="uni1EB4" unicode="&#x1eb4;" horiz-adv-x="407" d="M257 967 Q245 967 235 970.5 Q225 974 200 986 Q173 1001 155 1001 Q145 1001 141 994.5 Q137 988 136 974 L78 974 Q80 1022 98.5 1048.5 Q117 1075 149 1075 Q161 1075 171 1071.5 Q181 1068 211 1054 Q243 1040 257 1040 Q265 1040 268.5 1046 Q272 1052 273 1067 L331 1067 Q332 1021 312 994 Q292 967 257 967 Z M202 825 Q143 825 110 855.5 Q77 886 71 945 L133 945 Q139 914 156 901 Q173 888 206 888 Q237 888 253 901 Q269 914 275 945 L337 945 Q330 880 299 852.5 Q268 825 202 825 Z M165 754 L244 754 L406 0 L305 0 L277 147 L128 147 L98 0 L1 0 L165 754 Z M262 225 L240 346 Q230 399 219 478.5 Q208 558 203 607 Q187 456 160 322 L141 225 L262 225 Z " />
<glyph glyph-name="uni1EB6" unicode="&#x1eb6;" horiz-adv-x="407" d="M202 825 Q143 825 110 855.5 Q77 886 71 945 L133 945 Q139 914 156 901 Q173 888 206 888 Q237 888 253 901 Q269 914 275 945 L337 945 Q330 880 299 852.5 Q268 825 202 825 Z M165 754 L244 754 L406 0 L305 0 L277 147 L128 147 L98 0 L1 0 L165 754 Z M262 225 L240 346 Q230 399 219 478.5 Q208 558 203 607 Q187 456 160 322 L141 225 L262 225 Z M193 -180 Q168 -180 150 -162.5 Q132 -145 132 -119 Q132 -94 149.5 -76.5 Q167 -59 193 -59 Q218 -59 235.5 -77 Q253 -95 253 -120 Q253 -145 235.5 -162.5 Q218 -180 193 -180 Z " />
<glyph glyph-name="uni1EB8" unicode="&#x1eb8;" horiz-adv-x="363" d="M58 754 L328 754 L328 668 L159 668 L159 428 L308 428 L308 342 L159 342 L159 86 L328 86 L328 0 L58 0 L58 754 Z M171 -180 Q146 -180 128 -162.5 Q110 -145 110 -119 Q110 -94 127.5 -76.5 Q145 -59 171 -59 Q195 -59 213 -77 Q231 -95 231 -120 Q231 -145 213 -162.5 Q195 -180 171 -180 Z " />
<glyph glyph-name="uni1EBA" unicode="&#x1eba;" horiz-adv-x="363" d="M154 927 Q169 930 185 932 Q216 936 228 945 Q240 954 240 973 Q240 993 226 1005 Q212 1017 188 1017 Q174 1017 168.5 1015.5 Q163 1014 148 1006 Q146 1004 132 998 L120 1032 Q171 1052 208 1052 Q249 1052 276 1029 Q303 1006 303 970 Q303 938 282 920 Q261 902 224 902 L194 903 L194 862 L154 862 L154 927 Z M58 754 L328 754 L328 668 L159 668 L159 428 L308 428 L308 342 L159 342 L159 86 L328 86 L328 0 L58 0 L58 754 Z " />
<glyph glyph-name="uni1EBC" unicode="&#x1ebc;" horiz-adv-x="363" d="M234 825 Q222 825 211.5 828.5 Q201 832 177 844 Q147 859 132 859 Q114 859 113 832 L55 832 Q57 881 75.5 906.5 Q94 932 127 932 Q138 932 148.5 928.5 Q159 925 189 912 Q223 897 233 897 Q250 897 250 924 L308 924 Q308 878 288.5 851.5 Q269 825 234 825 Z M59 754 L328 754 L328 668 L160 668 L160 428 L310 428 L310 342 L160 342 L160 86 L328 86 L328 0 L59 0 L59 754 Z " />
<glyph glyph-name="uni1EBE" unicode="&#x1ebe;" horiz-adv-x="363" d="M68 868 L192 977 L259 922 L358 1019 L411 962 L303 885 L318 873 L275 822 L192 892 L108 822 L68 868 Z M58 754 L328 754 L328 668 L159 668 L159 428 L308 428 L308 342 L159 342 L159 86 L328 86 L328 0 L58 0 L58 754 Z " />
<glyph glyph-name="uni1EC0" unicode="&#x1ec0;" horiz-adv-x="363" d="M215 996 L272 1051 L367 941 L330 901 L215 996 Z M69 868 L193 977 L318 873 L276 822 L193 892 L110 822 L69 868 Z M59 754 L328 754 L328 668 L160 668 L160 428 L310 428 L310 342 L160 342 L160 86 L328 86 L328 0 L59 0 L59 754 Z " />
<glyph glyph-name="uni1EC2" unicode="&#x1ec2;" horiz-adv-x="363" d="M68 868 L192 977 L275 909 L275 951 Q290 955 306 957 Q337 961 348.5 970 Q360 979 360 998 Q360 1018 346.5 1030 Q333 1042 308 1042 Q295 1042 289.5 1040.5 Q284 1039 269 1031 Q267 1029 262.5 1027 Q258 1025 253 1023 L241 1057 Q290 1077 329 1077 Q370 1077 397 1054 Q424 1031 424 994 Q424 963 403 945 Q382 927 346 927 L315 928 L315 887 L301 887 L316 873 L275 822 L192 892 L108 822 L68 868 Z M58 754 L328 754 L328 668 L159 668 L159 428 L308 428 L308 342 L159 342 L159 86 L328 86 L328 0 L58 0 L58 754 Z " />
<glyph glyph-name="uni1EC4" unicode="&#x1ec4;" horiz-adv-x="363" d="M234 990 Q222 990 211.5 993.5 Q201 997 177 1009 Q147 1024 132 1024 Q114 1024 113 997 L55 997 Q57 1046 75.5 1071.5 Q94 1097 127 1097 Q138 1097 148.5 1093.5 Q159 1090 189 1077 Q223 1062 233 1062 Q250 1062 250 1089 L308 1089 Q308 1043 288.5 1016.5 Q269 990 234 990 Z M69 868 L193 977 L319 873 L276 822 L193 892 L110 822 L69 868 Z M59 754 L328 754 L328 668 L160 668 L160 428 L310 428 L310 342 L160 342 L160 86 L328 86 L328 0 L59 0 L59 754 Z " />
<glyph glyph-name="uni1EC6" unicode="&#x1ec6;" horiz-adv-x="363" d="M68 868 L192 977 L318 873 L275 822 L192 892 L108 822 L68 868 Z M58 754 L328 754 L328 668 L159 668 L159 428 L308 428 L308 342 L159 342 L159 86 L328 86 L328 0 L58 0 L58 754 Z M171 -180 Q146 -180 128 -162.5 Q110 -145 110 -119 Q110 -94 127.5 -76.5 Q145 -59 171 -59 Q195 -59 213 -77 Q231 -95 231 -120 Q231 -145 213 -162.5 Q195 -180 171 -180 Z " />
<glyph glyph-name="uni1EC8" unicode="&#x1ec8;" horiz-adv-x="218" d="M87 927 Q103 930 119 932 Q150 936 161.5 945 Q173 954 173 973 Q173 993 159.5 1005 Q146 1017 121 1017 Q108 1017 102.5 1015.5 Q97 1014 81 1006 Q79 1004 66 998 L53 1032 Q104 1052 141 1052 Q183 1052 209.5 1029 Q236 1006 236 970 Q236 938 215 920 Q194 902 157 902 Q142 902 128 903 L128 862 L87 862 L87 927 Z M59 754 L160 754 L160 0 L59 0 L59 754 Z " />
<glyph glyph-name="uni1ECA" unicode="&#x1eca;" horiz-adv-x="218" d="M58 754 L159 754 L159 0 L58 0 L58 754 Z M98 -180 Q73 -180 55 -162.5 Q37 -145 37 -119 Q37 -94 54.5 -76.5 Q72 -59 98 -59 Q123 -59 140.5 -77 Q158 -95 158 -120 Q158 -145 140.5 -162.5 Q123 -180 98 -180 Z " />
<glyph glyph-name="uni1ECC" unicode="&#x1ecc;" horiz-adv-x="478" d="M242 -10 Q190 -10 149.5 12.5 Q109 35 89 75 Q64 123 53.5 198.5 Q43 274 43 394 Q43 499 52.5 562 Q62 625 84 671 Q128 764 237 764 Q288 764 327 743 Q366 722 386 684 Q412 634 423.5 560 Q435 486 435 358 Q435 224 415.5 144 Q396 64 354 27 Q312 -10 242 -10 Z M240 84 Q301 84 316 164 Q329 232 329 348 Q329 483 321.5 550.5 Q314 618 295 645 Q276 672 238 672 Q189 672 167 615 Q157 588 153 533 Q149 478 149 374 Q149 258 157 196.5 Q165 135 184.5 109.5 Q204 84 240 84 Z M228 -180 Q203 -180 185 -162.5 Q167 -145 167 -119 Q167 -94 184.5 -76.5 Q202 -59 228 -59 Q253 -59 270.5 -77 Q288 -95 288 -120 Q288 -145 270.5 -162.5 Q253 -180 228 -180 Z " />
<glyph glyph-name="uni1ECE" unicode="&#x1ece;" horiz-adv-x="478" d="M209 927 Q225 930 241 932 Q272 936 283.5 945 Q295 954 295 973 Q295 993 281.5 1005 Q268 1017 243 1017 Q230 1017 224 1015.5 Q218 1014 203 1006 Q201 1004 188 998 L175 1032 Q226 1052 263 1052 Q305 1052 331.5 1029 Q358 1006 358 970 Q358 938 337 920 Q316 902 279 902 Q264 902 250 903 L250 862 L209 862 L209 927 Z M242 -10 Q190 -10 149.5 12.5 Q109 35 89 75 Q64 123 53.5 198.5 Q43 274 43 394 Q43 499 52.5 562 Q62 625 84 671 Q128 764 237 764 Q288 764 327 743 Q366 722 386 684 Q412 634 423.5 560 Q435 486 435 358 Q435 224 415.5 144 Q396 64 354 27 Q312 -10 242 -10 Z M240 84 Q301 84 316 164 Q329 232 329 348 Q329 483 321.5 550.5 Q314 618 295 645 Q276 672 238 672 Q189 672 167 615 Q157 588 153 533 Q149 478 149 374 Q149 258 157 196.5 Q165 135 184.5 109.5 Q204 84 240 84 Z " />
<glyph glyph-name="uni1ED0" unicode="&#x1ed0;" horiz-adv-x="478" d="M115 868 L240 977 L307 921 L410 1020 L463 963 L351 884 L364 873 L322 822 L240 892 L156 822 L115 868 Z M242 -10 Q190 -10 149.5 12.5 Q109 35 89 75 Q64 123 53.5 198.5 Q43 274 43 394 Q43 499 52.5 562 Q62 625 84 671 Q128 764 237 764 Q288 764 327 743 Q366 722 386 684 Q412 635 423.5 562 Q435 489 435 370 Q435 229 416 146.5 Q397 64 355 27 Q313 -10 242 -10 Z M240 84 Q301 84 316 164 Q329 232 329 348 Q329 483 321.5 550.5 Q314 618 295 645 Q276 672 238 672 Q189 672 167 615 Q157 588 153 533 Q149 478 149 374 Q149 258 157 196.5 Q165 135 184.5 109.5 Q204 84 240 84 Z " />
<glyph glyph-name="uni1ED2" unicode="&#x1ed2;" horiz-adv-x="478" d="M261 996 L318 1051 L413 941 L376 901 L261 996 Z M115 868 L239 977 L364 873 L322 822 L239 892 L156 822 L115 868 Z M242 -10 Q190 -10 149.5 12.5 Q109 35 89 75 Q64 123 53.5 198.5 Q43 274 43 394 Q43 499 52.5 562 Q62 625 84 671 Q128 764 237 764 Q288 764 327 743 Q366 722 386 684 Q412 635 423.5 562 Q435 489 435 370 Q435 229 416 146.5 Q397 64 355 27 Q313 -10 242 -10 Z M240 84 Q301 84 316 164 Q329 232 329 348 Q329 483 321.5 550.5 Q314 618 295 645 Q276 672 238 672 Q189 672 167 615 Q157 588 153 533 Q149 478 149 374 Q149 258 157 196.5 Q165 135 184.5 109.5 Q204 84 240 84 Z " />
<glyph glyph-name="uni1ED4" unicode="&#x1ed4;" horiz-adv-x="478" d="M114 868 L238 977 L325 905 L325 953 L357 957 Q389 962 400 970.5 Q411 979 411 998 Q411 1018 397.5 1030 Q384 1042 359 1042 Q346 1042 340.5 1040.5 Q335 1039 320 1031 Q317 1029 304 1023 L292 1058 Q321 1069 339.5 1073 Q358 1077 380 1077 Q421 1077 448 1054 Q475 1031 475 994 Q475 963 454 945.5 Q433 928 397 928 L366 928 L366 887 L348 887 L364 873 L322 822 L238 892 L155 822 L114 868 Z M242 -10 Q190 -10 149.5 12.5 Q109 35 89 75 Q64 123 53.5 198.5 Q43 274 43 394 Q43 499 52.5 562 Q62 625 84 671 Q128 764 237 764 Q288 764 327 743 Q366 722 386 684 Q412 635 423.5 562 Q435 489 435 370 Q435 229 416 146.5 Q397 64 355 27 Q313 -10 242 -10 Z M240 84 Q301 84 316 164 Q329 232 329 348 Q329 483 321.5 550.5 Q314 618 295 645 Q276 672 238 672 Q189 672 167 615 Q157 588 153 533 Q149 478 149 374 Q149 258 157 196.5 Q165 135 184.5 109.5 Q204 84 240 84 Z " />
<glyph glyph-name="uni1ED6" unicode="&#x1ed6;" horiz-adv-x="478" d="M290 982 Q278 982 268 985.5 Q258 989 234 1001 Q204 1016 189 1016 Q179 1016 175 1010 Q171 1004 169 989 L112 989 Q113 1037 132 1063 Q151 1089 183 1089 Q195 1089 205.5 1085.5 Q216 1082 245 1069 Q279 1054 290 1054 Q299 1054 302.5 1060 Q306 1066 307 1081 L365 1081 Q365 1034 345 1008 Q325 982 290 982 Z M115 868 L240 977 L364 873 L322 822 L240 892 L156 822 L115 868 Z M242 -10 Q190 -10 149.5 12.5 Q109 35 89 75 Q64 123 53.5 198.5 Q43 274 43 394 Q43 499 52.5 562 Q62 625 84 671 Q128 764 237 764 Q288 764 327 743 Q366 722 386 684 Q412 634 423.5 560 Q435 486 435 358 Q435 224 415.5 144 Q396 64 354 27 Q312 -10 242 -10 Z M240 84 Q301 84 316 164 Q329 232 329 348 Q329 483 321.5 550.5 Q314 618 295 645 Q276 672 238 672 Q189 672 167 615 Q157 588 153 533 Q149 478 149 374 Q149 258 157 196.5 Q165 135 184.5 109.5 Q204 84 240 84 Z " />
<glyph glyph-name="uni1ED8" unicode="&#x1ed8;" horiz-adv-x="478" d="M115 868 L240 977 L364 873 L322 822 L240 892 L156 822 L115 868 Z M242 -10 Q190 -10 149.5 12.5 Q109 35 89 75 Q64 123 53.5 198.5 Q43 274 43 394 Q43 499 52.5 562 Q62 625 84 671 Q128 764 237 764 Q288 764 327 743 Q366 722 386 684 Q412 634 423.5 560 Q435 486 435 358 Q435 224 415.5 144 Q396 64 354 27 Q312 -10 242 -10 Z M240 84 Q301 84 316 164 Q329 232 329 348 Q329 483 321.5 550.5 Q314 618 295 645 Q276 672 238 672 Q189 672 167 615 Q157 588 153 533 Q149 478 149 374 Q149 258 157 196.5 Q165 135 184.5 109.5 Q204 84 240 84 Z M228 -180 Q203 -180 185 -162.5 Q167 -145 167 -119 Q167 -94 184.5 -76.5 Q202 -59 228 -59 Q253 -59 270.5 -77 Q288 -95 288 -120 Q288 -145 270.5 -162.5 Q253 -180 228 -180 Z " />
<glyph glyph-name="uni1EDA" unicode="&#x1eda;" horiz-adv-x="478" d="M198 862 L303 965 L356 906 L234 822 L198 862 Z M242 -10 Q190 -10 149.5 12.5 Q109 35 89 75 Q66 123 54.5 200 Q43 277 43 394 Q43 498 52 560.5 Q61 623 84 671 Q105 717 143.5 740.5 Q182 764 236 764 Q286 764 325 744 Q364 724 384 688 L410 767 L484 740 L415 606 Q435 526 435 365 Q435 227 416 145.5 Q397 64 355 27 Q313 -10 242 -10 Z M240 84 Q301 84 316 164 Q329 232 329 348 Q329 483 321.5 550.5 Q314 618 295 645 Q276 672 238 672 Q189 672 167 615 Q157 588 153 533 Q149 478 149 374 Q149 258 157 196.5 Q165 135 184.5 109.5 Q204 84 240 84 Z " />
<glyph glyph-name="uni1EDC" unicode="&#x1edc;" horiz-adv-x="478" d="M122 906 L175 965 L280 862 L244 822 L122 906 Z M242 -10 Q190 -10 149.5 12.5 Q109 35 89 75 Q66 123 54.5 200 Q43 277 43 394 Q43 498 52 560.5 Q61 623 84 671 Q105 717 143.5 740.5 Q182 764 236 764 Q286 764 325 744 Q364 724 384 688 L410 767 L484 740 L415 606 Q435 526 435 365 Q435 227 416 145.5 Q397 64 355 27 Q313 -10 242 -10 Z M240 84 Q301 84 316 164 Q329 232 329 348 Q329 483 321.5 550.5 Q314 618 295 645 Q276 672 238 672 Q189 672 167 615 Q157 588 153 533 Q149 478 149 374 Q149 258 157 196.5 Q165 135 184.5 109.5 Q204 84 240 84 Z " />
<glyph glyph-name="uni1EDE" unicode="&#x1ede;" horiz-adv-x="478" d="M218 927 Q234 930 250 932 Q281 936 292.5 945 Q304 954 304 973 Q304 993 290.5 1005 Q277 1017 252 1017 Q239 1017 233 1015.5 Q227 1014 212 1006 Q210 1004 197 998 L184 1032 Q235 1052 272 1052 Q314 1052 340.5 1029 Q367 1006 367 970 Q367 938 346 920 Q325 902 288 902 Q273 902 259 903 L259 862 L218 862 L218 927 Z M242 -10 Q190 -10 149.5 12.5 Q109 35 89 75 Q66 123 54.5 200 Q43 277 43 394 Q43 498 52 560.5 Q61 623 84 671 Q105 717 143.5 740.5 Q182 764 236 764 Q286 764 325 744 Q364 724 384 688 L410 767 L484 740 L415 606 Q435 526 435 365 Q435 227 416 145.5 Q397 64 355 27 Q313 -10 242 -10 Z M240 84 Q301 84 316 164 Q329 232 329 348 Q329 483 321.5 550.5 Q314 618 295 645 Q276 672 238 672 Q189 672 167 615 Q157 588 153 533 Q149 478 149 374 Q149 258 157 196.5 Q165 135 184.5 109.5 Q204 84 240 84 Z " />
<glyph glyph-name="uni1EE0" unicode="&#x1ee0;" horiz-adv-x="478" d="M290 825 Q278 825 268 828.5 Q258 832 234 844 Q204 859 189 859 Q179 859 175 853 Q171 847 169 832 L112 832 Q113 880 132 906 Q151 932 183 932 Q195 932 205.5 928.5 Q216 925 245 912 Q279 897 290 897 Q299 897 302.5 903 Q306 909 307 924 L365 924 Q365 877 345 851 Q325 825 290 825 Z M242 -10 Q190 -10 149.5 12.5 Q109 35 89 75 Q66 123 54.5 200 Q43 277 43 394 Q43 498 52 560.5 Q61 623 84 671 Q105 717 143.5 740.5 Q182 764 236 764 Q286 764 325 744 Q364 724 384 688 L410 767 L484 740 L415 606 Q435 526 435 365 Q435 227 416 145.5 Q397 64 355 27 Q313 -10 242 -10 Z M240 84 Q301 84 316 164 Q329 232 329 348 Q329 483 321.5 550.5 Q314 618 295 645 Q276 672 238 672 Q189 672 167 615 Q157 588 153 533 Q149 478 149 374 Q149 258 157 196.5 Q165 135 184.5 109.5 Q204 84 240 84 Z " />
<glyph glyph-name="uni1EE2" unicode="&#x1ee2;" horiz-adv-x="478" d="M242 -10 Q190 -10 149.5 12.5 Q109 35 89 75 Q66 123 54.5 200 Q43 277 43 394 Q43 498 52 560.5 Q61 623 84 671 Q105 717 143.5 740.5 Q182 764 236 764 Q286 764 325 744 Q364 724 384 688 L410 767 L484 740 L415 606 Q435 526 435 365 Q435 227 416 145.5 Q397 64 355 27 Q313 -10 242 -10 Z M240 84 Q301 84 316 164 Q329 232 329 348 Q329 483 321.5 550.5 Q314 618 295 645 Q276 672 238 672 Q189 672 167 615 Q157 588 153 533 Q149 478 149 374 Q149 258 157 196.5 Q165 135 184.5 109.5 Q204 84 240 84 Z M228 -180 Q203 -180 185 -162.5 Q167 -145 167 -119 Q167 -94 184.5 -76.5 Q202 -59 228 -59 Q253 -59 270.5 -77 Q288 -95 288 -120 Q288 -145 270.5 -162.5 Q253 -180 228 -180 Z " />
<glyph glyph-name="uni1EE4" unicode="&#x1ee4;" horiz-adv-x="462" d="M229 -10 Q117 -10 78 68 Q67 91 62.5 125 Q58 159 58 221 L58 754 L157 754 L157 221 Q157 178 159.5 155 Q162 132 168 121 Q186 86 233 86 Q285 86 298 128 Q305 146 305 207 L305 754 L405 754 L405 207 Q405 137 396.5 100.5 Q388 64 366 40 Q322 -10 229 -10 Z M220 -180 Q195 -180 177 -162.5 Q159 -145 159 -119 Q159 -94 176.5 -76.5 Q194 -59 220 -59 Q245 -59 262.5 -77 Q280 -95 280 -120 Q280 -145 262.5 -162.5 Q245 -180 220 -180 Z " />
<glyph glyph-name="uni1EE6" unicode="&#x1ee6;" horiz-adv-x="462" d="M202 927 Q218 930 234 932 Q265 936 276.5 945 Q288 954 288 973 Q288 993 274.5 1005 Q261 1017 236 1017 Q223 1017 217.5 1015.5 Q212 1014 197 1006 Q195 1004 181 998 L168 1032 Q219 1052 257 1052 Q298 1052 324.5 1029 Q351 1006 351 970 Q351 938 330 920 Q309 902 272 902 L243 903 L243 862 L202 862 L202 927 Z M229 -10 Q117 -10 78 68 Q67 91 62.5 125 Q58 159 58 221 L58 754 L157 754 L157 221 Q157 178 159.5 155 Q162 132 168 121 Q186 86 233 86 Q285 86 298 128 Q305 146 305 207 L305 754 L405 754 L405 207 Q405 137 396.5 100.5 Q388 64 366 40 Q322 -10 229 -10 Z " />
<glyph glyph-name="uni1EE8" unicode="&#x1ee8;" horiz-adv-x="462" d="M190 862 L295 965 L348 906 L226 822 L190 862 Z M436 631 L484 776 L557 749 L486 609 L436 631 Z M229 -10 Q117 -10 78 68 Q67 91 62.5 125 Q58 159 58 221 L58 754 L157 754 L157 221 Q157 178 159.5 155 Q162 132 168 121 Q186 86 233 86 Q285 86 298 128 Q305 146 305 207 L305 754 L405 754 L405 207 Q405 137 396.5 100.5 Q388 64 366 40 Q322 -10 229 -10 Z " />
<glyph glyph-name="uni1EEA" unicode="&#x1eea;" horiz-adv-x="462" d="M114 906 L167 965 L272 862 L236 822 L114 906 Z M436 631 L484 776 L557 749 L486 609 L436 631 Z M229 -10 Q117 -10 78 68 Q67 91 62.5 125 Q58 159 58 221 L58 754 L157 754 L157 221 Q157 178 159.5 155 Q162 132 168 121 Q186 86 233 86 Q285 86 298 128 Q305 146 305 207 L305 754 L405 754 L405 207 Q405 137 396.5 100.5 Q388 64 366 40 Q322 -10 229 -10 Z " />
<glyph glyph-name="uni1EEC" unicode="&#x1eec;" horiz-adv-x="462" d="M214 927 Q229 930 245 932 Q276 936 287.5 945 Q299 954 299 973 Q299 993 285.5 1005 Q272 1017 247 1017 Q234 1017 228.5 1015.5 Q223 1014 208 1006 Q206 1004 201.5 1002 Q197 1000 192 998 L180 1032 Q229 1052 268 1052 Q309 1052 336 1029 Q363 1006 363 970 Q363 938 342 920 Q321 902 284 902 L254 903 L254 862 L214 862 L214 927 Z M436 631 L484 776 L557 749 L486 609 L436 631 Z M229 -10 Q117 -10 78 68 Q67 91 62.5 125 Q58 159 58 221 L58 754 L157 754 L157 221 Q157 178 159.5 155 Q162 132 168 121 Q186 86 233 86 Q285 86 298 128 Q305 146 305 207 L305 754 L405 754 L405 207 Q405 137 396.5 100.5 Q388 64 366 40 Q322 -10 229 -10 Z " />
<glyph glyph-name="uni1EEE" unicode="&#x1eee;" horiz-adv-x="462" d="M283 825 Q271 825 260.5 828.5 Q250 832 226 844 Q196 859 181 859 Q171 859 167 852.5 Q163 846 162 832 L104 832 Q105 880 124 906 Q143 932 175 932 Q187 932 197.5 928.5 Q208 925 237 912 Q271 897 283 897 Q291 897 294.5 903 Q298 909 299 924 L357 924 Q358 878 338 851.5 Q318 825 283 825 Z M436 631 L484 776 L557 749 L486 609 L436 631 Z M229 -10 Q117 -10 78 68 Q67 91 62.5 125 Q58 159 58 221 L58 754 L157 754 L157 221 Q157 178 159.5 155 Q162 132 168 121 Q186 86 233 86 Q285 86 298 128 Q305 146 305 207 L305 754 L405 754 L405 207 Q405 137 396.5 100.5 Q388 64 366 40 Q322 -10 229 -10 Z " />
<glyph glyph-name="uni1EF0" unicode="&#x1ef0;" horiz-adv-x="462" d="M436 631 L484 776 L557 749 L486 609 L436 631 Z M229 -10 Q117 -10 78 68 Q67 91 62.5 125 Q58 159 58 221 L58 754 L157 754 L157 221 Q157 178 159.5 155 Q162 132 168 121 Q186 86 233 86 Q285 86 298 128 Q305 146 305 207 L305 754 L405 754 L405 207 Q405 137 396.5 100.5 Q388 64 366 40 Q322 -10 229 -10 Z M220 -180 Q195 -180 177 -162.5 Q159 -145 159 -119 Q159 -94 176.5 -76.5 Q194 -59 220 -59 Q245 -59 262.5 -77 Q280 -95 280 -120 Q280 -145 262.5 -162.5 Q245 -180 220 -180 Z " />
<glyph glyph-name="uni1EF4" unicode="&#x1ef4;" horiz-adv-x="385" d="M155 324 L-2 754 L105 754 L155 590 Q159 573 166 555 Q184 498 190.5 471.5 Q197 445 203 406 Q209 444 215 469 Q217 483 225 515 Q228 533 234 557 L240 583 L281 754 L388 754 L257 324 L257 0 L155 0 L155 324 Z M208 -180 Q183 -180 165 -162.5 Q147 -145 147 -119 Q147 -94 164.5 -76.5 Q182 -59 208 -59 Q233 -59 250.5 -77 Q268 -95 268 -120 Q268 -145 250.5 -162.5 Q233 -180 208 -180 Z " />
<glyph glyph-name="uni1EF6" unicode="&#x1ef6;" horiz-adv-x="385" d="M168 927 Q184 930 200 932 Q231 936 242.5 945 Q254 954 254 973 Q254 993 240.5 1005 Q227 1017 202 1017 Q189 1017 183.5 1015.5 Q178 1014 163 1006 Q161 1004 147 998 L134 1032 Q185 1052 223 1052 Q264 1052 291 1029 Q318 1006 318 970 Q318 938 297 920 Q276 902 238 902 L209 903 L209 862 L168 862 L168 927 Z M155 324 L-2 754 L105 754 L155 590 Q159 573 166 555 Q184 498 190.5 471.5 Q197 445 203 406 Q209 444 215 469 Q217 483 225 515 Q228 533 234 557 L240 583 L281 754 L388 754 L257 324 L257 0 L155 0 L155 324 Z " />
<glyph glyph-name="uni1EF8" unicode="&#x1ef8;" horiz-adv-x="385" d="M245 825 Q233 825 222.5 828.5 Q212 832 189 844 Q156 859 142 859 Q124 859 124 832 L67 832 Q68 880 86.5 906 Q105 932 137 932 Q149 932 159 929 Q169 926 199 912 Q233 897 244 897 Q261 897 261 924 L320 924 Q320 877 300 851 Q280 825 245 825 Z M155 324 L-2 754 L105 754 L155 590 Q159 573 166 555 Q184 498 190.5 471.5 Q197 445 203 406 Q209 444 215 469 Q217 483 225 515 Q228 533 234 557 L240 583 L281 754 L388 754 L257 324 L257 0 L155 0 L155 324 Z " />
<glyph glyph-name="a" unicode="a" horiz-adv-x="394" d="M247 0 L247 66 Q227 24 207.5 8 Q188 -8 155 -8 Q92 -8 63 56.5 Q34 121 34 259 Q34 325 40.5 370.5 Q47 416 61 447 Q75 478 99.5 495.5 Q124 513 155 513 Q187 513 208 498 Q229 483 247 449 L247 505 L341 505 L341 0 L247 0 Z M191 428 Q157 428 143.5 389 Q130 350 130 255 Q130 156 143.5 116.5 Q157 77 191 77 Q223 77 237 117.5 Q251 158 251 253 Q251 346 237 387 Q223 428 191 428 Z " />
<glyph glyph-name="aacute" unicode="&#xe1;" horiz-adv-x="394" d="M154 609 L235 758 L303 715 L203 581 L154 609 Z M155 -8 Q92 -8 63 56.5 Q34 121 34 259 Q34 325 40.5 370.5 Q47 416 61 447 Q75 478 99.5 495.5 Q124 513 155 513 Q187 513 208 498 Q229 483 247 449 L247 505 L341 505 L341 0 L247 0 L247 66 Q227 24 207.5 8 Q188 -8 155 -8 Z M191 77 Q223 77 237 117.5 Q251 158 251 253 Q251 346 237 387 Q223 428 191 428 Q157 428 143.5 389 Q130 350 130 255 Q130 156 143.5 116.5 Q157 77 191 77 Z " />
<glyph glyph-name="abreve" unicode="&#x103;" horiz-adv-x="394" d="M199 583 Q140 583 108.5 615 Q77 647 73 713 L136 713 Q139 643 198 643 Q227 643 240.5 659 Q254 675 259 713 L321 713 Q317 645 288 614 Q259 583 199 583 Z M155 -8 Q92 -8 63 56.5 Q34 121 34 259 Q34 325 40.5 370.5 Q47 416 61 447 Q75 478 99.5 495.5 Q124 513 155 513 Q187 513 208 498 Q229 483 247 449 L247 505 L341 505 L341 0 L247 0 L247 66 Q227 24 207.5 8 Q188 -8 155 -8 Z M191 77 Q223 77 237 117.5 Q251 158 251 253 Q251 346 237 387 Q223 428 191 428 Q157 428 143.5 389 Q130 350 130 255 Q130 156 143.5 116.5 Q157 77 191 77 Z " />
<glyph glyph-name="acircumflex" unicode="&#xe2;" horiz-adv-x="394" d="M73 619 L199 758 L322 619 L276 581 L198 663 L125 581 L73 619 Z M155 -8 Q92 -8 63 56.5 Q34 121 34 259 Q34 325 40.5 370.5 Q47 416 61 447 Q75 478 99.5 495.5 Q124 513 155 513 Q187 513 208 498 Q229 483 247 449 L247 505 L341 505 L341 0 L247 0 L247 66 Q227 24 207.5 8 Q188 -8 155 -8 Z M191 77 Q223 77 237 117.5 Q251 158 251 253 Q251 346 237 387 Q223 428 191 428 Q157 428 143.5 389 Q130 350 130 255 Q130 156 143.5 116.5 Q157 77 191 77 Z " />
<glyph glyph-name="adieresis" unicode="&#xe4;" horiz-adv-x="394" d="M112 697 Q134 697 150.5 680.5 Q167 664 167 641 Q167 617 150.5 600.5 Q134 584 111 584 Q87 584 70.5 600.5 Q54 617 54 641 Q54 664 71 680.5 Q88 697 112 697 Z M284 697 Q306 697 322.5 680.5 Q339 664 339 641 Q339 617 322.5 600.5 Q306 584 283 584 Q259 584 242.5 600.5 Q226 617 226 641 Q226 664 243 680.5 Q260 697 284 697 Z M247 0 L247 66 Q227 24 207.5 8 Q188 -8 155 -8 Q92 -8 63 56.5 Q34 121 34 259 Q34 325 40.5 370.5 Q47 416 61 447 Q75 478 99.5 495.5 Q124 513 155 513 Q187 513 208 498 Q229 483 247 449 L247 505 L341 505 L341 0 L247 0 Z M191 428 Q157 428 143.5 389 Q130 350 130 255 Q130 156 143.5 116.5 Q157 77 191 77 Q223 77 237 117.5 Q251 158 251 253 Q251 346 237 387 Q223 428 191 428 Z " />
<glyph glyph-name="agrave" unicode="&#xe0;" horiz-adv-x="394" d="M101 715 L167 758 L250 609 L200 581 L101 715 Z M155 -8 Q92 -8 63 56.5 Q34 121 34 259 Q34 325 40.5 370.5 Q47 416 61 447 Q75 478 99.5 495.5 Q124 513 155 513 Q187 513 208 498 Q229 483 247 449 L247 505 L341 505 L341 0 L247 0 L247 66 Q227 24 207.5 8 Q188 -8 155 -8 Z M191 77 Q223 77 237 117.5 Q251 158 251 253 Q251 346 237 387 Q223 428 191 428 Q157 428 143.5 389 Q130 350 130 255 Q130 156 143.5 116.5 Q157 77 191 77 Z " />
<glyph glyph-name="amacron" unicode="&#x101;" horiz-adv-x="394" d="M320 676 L320 606 L73 606 L73 676 L320 676 Z M247 0 L247 66 Q227 24 207.5 8 Q188 -8 155 -8 Q92 -8 63 56.5 Q34 121 34 259 Q34 325 40.5 370.5 Q47 416 61 447 Q75 478 99.5 495.5 Q124 513 155 513 Q187 513 208 498 Q229 483 247 449 L247 505 L341 505 L341 0 L247 0 Z M191 428 Q157 428 143.5 389 Q130 350 130 255 Q130 156 143.5 116.5 Q157 77 191 77 Q223 77 237 117.5 Q251 158 251 253 Q251 346 237 387 Q223 428 191 428 Z " />
<glyph glyph-name="aogonek" unicode="&#x105;" horiz-adv-x="394" d="M341 0 Q319 -20 305.5 -42 Q292 -64 292 -81 Q292 -98 302 -107 Q312 -116 330 -116 Q355 -116 379 -107 L379 -165 Q363 -171 352 -173 Q341 -175 325 -175 Q282 -175 257 -154 Q232 -133 232 -97 Q232 -72 243.5 -51 Q255 -30 286 0 L247 0 L247 66 Q227 24 207.5 8 Q188 -8 155 -8 Q92 -8 63 56.5 Q34 121 34 259 Q34 325 40.5 370.5 Q47 416 61 447 Q75 478 99.5 495.5 Q124 513 155 513 Q187 513 208 498 Q229 483 247 449 L247 505 L341 505 L341 0 Z M191 428 Q157 428 143.5 389 Q130 350 130 255 Q130 156 143.5 116.5 Q157 77 191 77 Q223 77 237 117.5 Q251 158 251 253 Q251 346 237 387 Q223 428 191 428 Z " />
<glyph glyph-name="aring" unicode="&#xe5;" horiz-adv-x="394" d="M200 733 Q232 733 255.5 709.5 Q279 686 279 653 Q279 619 255.5 595.5 Q232 572 199 572 Q165 572 141.5 595.5 Q118 619 118 653 Q118 687 141.5 710 Q165 733 200 733 Z M199 687 Q185 687 175 677.5 Q165 668 165 654 Q165 640 175 630 Q185 620 199 620 Q213 620 222.5 630 Q232 640 232 654 Q232 667 222 677 Q212 687 199 687 Z M247 0 L247 66 Q227 24 207.5 8 Q188 -8 155 -8 Q92 -8 63 56.5 Q34 121 34 259 Q34 325 40.5 370.5 Q47 416 61 447 Q75 478 99.5 495.5 Q124 513 155 513 Q187 513 208 498 Q229 483 247 449 L247 505 L341 505 L341 0 L247 0 Z M191 428 Q157 428 143.5 389 Q130 350 130 255 Q130 156 143.5 116.5 Q157 77 191 77 Q223 77 237 117.5 Q251 158 251 253 Q251 346 237 387 Q223 428 191 428 Z " />
<glyph glyph-name="aringacute" unicode="&#x1fb;" horiz-adv-x="394" d="M81 742 L164 890 L231 847 L131 713 L81 742 Z M200 733 Q232 733 255.5 709.5 Q279 686 279 653 Q279 619 255.5 595.5 Q232 572 199 572 Q165 572 141.5 595.5 Q118 619 118 653 Q118 687 141.5 710 Q165 733 200 733 Z M199 687 Q185 687 175 677.5 Q165 668 165 654 Q165 640 175 630 Q185 620 199 620 Q213 620 222.5 630 Q232 640 232 654 Q232 667 222 677 Q212 687 199 687 Z M247 0 L247 66 Q227 24 207.5 8 Q188 -8 155 -8 Q92 -8 63 56.5 Q34 121 34 259 Q34 325 40.5 370.5 Q47 416 61 447 Q75 478 99.5 495.5 Q124 513 155 513 Q187 513 208 498 Q229 483 247 449 L247 505 L341 505 L341 0 L247 0 Z M191 428 Q157 428 143.5 389 Q130 350 130 255 Q130 156 143.5 116.5 Q157 77 191 77 Q223 77 237 117.5 Q251 158 251 253 Q251 346 237 387 Q223 428 191 428 Z " />
<glyph glyph-name="atilde" unicode="&#xe3;" horiz-adv-x="394" d="M252 588 Q240 588 230 590.5 Q220 593 206 600 Q185 611 174.5 615 Q164 619 156 619 Q146 619 140.5 612.5 Q135 606 133 592 L75 592 Q79 644 97 667 Q115 690 151 690 Q166 690 179 686 Q192 682 216 669 Q235 658 250 658 Q259 658 263.5 664 Q268 670 270 687 L327 687 Q323 632 306 610 Q289 588 252 588 Z M155 -8 Q92 -8 63 56.5 Q34 121 34 259 Q34 325 40.5 370.5 Q47 416 61 447 Q75 478 99.5 495.5 Q124 513 155 513 Q187 513 208 498 Q229 483 247 449 L247 505 L341 505 L341 0 L247 0 L247 66 Q227 24 207.5 8 Q188 -8 155 -8 Z M191 77 Q223 77 237 117.5 Q251 158 251 253 Q251 346 237 387 Q223 428 191 428 Q157 428 143.5 389 Q130 350 130 255 Q130 156 143.5 116.5 Q157 77 191 77 Z " />
<glyph glyph-name="ae" unicode="&#xe6;" horiz-adv-x="571" d="M59 488 Q91 503 112 508 Q133 513 160 513 Q207 513 233.5 498.5 Q260 484 280 449 Q300 483 325.5 498 Q351 513 389 513 Q461 513 499 450.5 Q537 388 537 269 L537 233 L329 233 Q330 171 336 135.5 Q342 100 355.5 85 Q369 70 392 70 Q417 70 432 93 Q447 116 447 155 L447 173 L537 173 Q532 79 497 35.5 Q462 -8 391 -8 Q345 -8 316.5 11 Q288 30 271 71 Q251 28 225.5 10 Q200 -8 158 -8 Q97 -8 65.5 33 Q34 74 34 153 Q34 236 66 280.5 Q98 325 158 325 Q209 325 237 293 L236 315 Q236 332 235 336 Q234 361 230.5 375 Q227 389 219 399 Q210 410 192.5 416.5 Q175 423 153 423 Q128 423 106 416 Q84 409 59 393 L59 488 Z M443 323 Q443 377 428.5 406.5 Q414 436 386 436 Q359 436 344.5 406.5 Q330 377 330 323 L330 301 L443 301 L443 323 Z M185 252 Q128 252 128 165 Q128 115 142 91.5 Q156 68 185 68 Q213 68 228.5 91.5 Q244 115 244 158 Q244 252 185 252 Z " />
<glyph glyph-name="aeacute" unicode="&#x1fd;" horiz-adv-x="571" d="M223 609 L304 758 L372 715 L272 581 L223 609 Z M59 488 Q91 503 112 508 Q133 513 160 513 Q207 513 233.5 498.5 Q260 484 280 449 Q300 483 325.5 498 Q351 513 389 513 Q461 513 499 450.5 Q537 388 537 269 L537 233 L329 233 Q330 171 336 135.5 Q342 100 355.5 85 Q369 70 392 70 Q417 70 432 93 Q447 116 447 155 L447 173 L537 173 Q532 79 497 35.5 Q462 -8 391 -8 Q345 -8 316.5 11 Q288 30 271 71 Q251 28 225.5 10 Q200 -8 158 -8 Q97 -8 65.5 33 Q34 74 34 153 Q34 236 66 280.5 Q98 325 158 325 Q209 325 237 293 L236 315 Q236 332 235 336 Q234 361 230.5 375 Q227 389 219 399 Q210 410 192.5 416.5 Q175 423 153 423 Q128 423 106 416 Q84 409 59 393 L59 488 Z M443 323 Q443 377 428.5 406.5 Q414 436 386 436 Q359 436 344.5 406.5 Q330 377 330 323 L330 301 L443 301 L443 323 Z M185 252 Q128 252 128 165 Q128 115 142 91.5 Q156 68 185 68 Q213 68 228.5 91.5 Q244 115 244 158 Q244 252 185 252 Z " />
<glyph glyph-name="b" unicode="b" horiz-adv-x="394" d="M147 449 Q167 485 186.5 499 Q206 513 237 513 Q301 513 330.5 452 Q360 391 360 259 Q360 121 331 56.5 Q302 -8 240 -8 Q206 -8 186.5 8 Q167 24 147 66 L147 0 L53 0 L53 828 L147 828 L147 449 Z M203 428 Q171 428 158 388.5 Q145 349 145 253 Q145 156 158 116.5 Q171 77 203 77 Q237 77 250.5 115.5 Q264 154 264 250 Q264 318 258.5 356 Q253 394 239.5 411 Q226 428 203 428 Z " />
<glyph glyph-name="c" unicode="c" horiz-adv-x="286" d="M259 400 Q248 414 238 419 Q228 424 212 424 Q172 424 154 383.5 Q136 343 136 257 Q136 167 154.5 123.5 Q173 80 211 80 Q224 80 234.5 84 Q245 88 259 99 L259 12 Q237 1 220.5 -3.5 Q204 -8 184 -8 Q34 -8 34 249 Q34 384 70.5 448.5 Q107 513 185 513 Q208 513 223.5 509.5 Q239 506 259 496 L259 400 Z " />
<glyph glyph-name="cacute" unicode="&#x107;" horiz-adv-x="286" d="M133 609 L215 758 L283 715 L183 581 L133 609 Z M259 400 Q248 414 238 419 Q228 424 212 424 Q172 424 154 383.5 Q136 343 136 257 Q136 167 154.5 123.5 Q173 80 211 80 Q224 80 234.5 84 Q245 88 259 99 L259 12 Q237 1 220.5 -3.5 Q204 -8 184 -8 Q34 -8 34 249 Q34 384 70.5 448.5 Q107 513 185 513 Q208 513 223.5 509.5 Q239 506 259 496 L259 400 Z " />
<glyph glyph-name="ccaron" unicode="&#x10d;" horiz-adv-x="286" d="M101 758 L173 676 L251 758 L298 720 L175 581 L49 720 L101 758 Z M259 400 Q248 414 238 419 Q228 424 212 424 Q172 424 154 383.5 Q136 343 136 257 Q136 167 154.5 123.5 Q173 80 211 80 Q224 80 234.5 84 Q245 88 259 99 L259 12 Q237 1 220.5 -3.5 Q204 -8 184 -8 Q34 -8 34 249 Q34 384 70.5 448.5 Q107 513 185 513 Q208 513 223.5 509.5 Q239 506 259 496 L259 400 Z " />
<glyph glyph-name="ccedilla" unicode="&#xe7;" horiz-adv-x="286" d="M259 400 Q248 414 238 419 Q228 424 212 424 Q172 424 154 383.5 Q136 343 136 257 Q136 167 154.5 123.5 Q173 80 211 80 Q224 80 234.5 84 Q245 88 259 99 L259 12 Q237 1 220.5 -3.5 Q204 -8 184 -8 Q34 -8 34 249 Q34 384 70.5 448.5 Q107 513 185 513 Q208 513 223.5 509.5 Q239 506 259 496 L259 400 Z M138 -215 L94 -193 L157 -51 L223 -82 L138 -215 Z " />
<glyph glyph-name="ccircumflex" unicode="&#x109;" horiz-adv-x="286" d="M249 581 L172 663 L99 581 L46 619 L173 758 L296 619 L249 581 Z M259 400 Q248 414 238 419 Q228 424 212 424 Q172 424 154 383.5 Q136 343 136 257 Q136 167 154.5 123.5 Q173 80 211 80 Q224 80 234.5 84 Q245 88 259 99 L259 12 Q237 1 220.5 -3.5 Q204 -8 184 -8 Q34 -8 34 249 Q34 384 70.5 448.5 Q107 513 185 513 Q208 513 223.5 509.5 Q239 506 259 496 L259 400 Z " />
<glyph glyph-name="cdotaccent" unicode="&#x10b;" horiz-adv-x="286" d="M171 703 Q194 703 211.5 685.5 Q229 668 229 644 Q229 619 212 601.5 Q195 584 171 584 Q146 584 128.5 601.5 Q111 619 111 644 Q111 669 128.5 686 Q146 703 171 703 Z M259 400 Q248 414 238 419 Q228 424 212 424 Q172 424 154 383.5 Q136 343 136 257 Q136 167 154.5 123.5 Q173 80 211 80 Q224 80 234.5 84 Q245 88 259 99 L259 12 Q237 1 220.5 -3.5 Q204 -8 184 -8 Q34 -8 34 249 Q34 384 70.5 448.5 Q107 513 185 513 Q208 513 223.5 509.5 Q239 506 259 496 L259 400 Z " />
<glyph glyph-name="d" unicode="d" horiz-adv-x="394" d="M247 0 L247 66 Q227 24 207.5 8 Q188 -8 155 -8 Q92 -8 63 56.5 Q34 121 34 259 Q34 391 63.5 452 Q93 513 157 513 Q188 513 207.5 499 Q227 485 247 449 L247 828 L341 828 L341 0 L247 0 Z M191 428 Q157 428 143.5 389 Q130 350 130 255 Q130 156 143.5 116.5 Q157 77 191 77 Q223 77 237 117.5 Q251 158 251 253 Q251 346 237 387 Q223 428 191 428 Z " />
<glyph glyph-name="eth" unicode="&#xf0;" horiz-adv-x="385" d="M94 832 Q119 815 145 792.5 Q171 770 186 754 L271 815 L308 758 L228 703 Q351 549 351 260 Q351 122 313 57 Q275 -8 193 -8 Q111 -8 72.5 55 Q34 118 34 253 Q34 386 72.5 449.5 Q111 513 192 513 Q203 513 225 510 Q209 584 159 657 L72 597 L37 649 L122 706 Q75 750 42 773 L94 832 Z M194 428 Q161 428 147.5 388.5 Q134 349 134 252 Q134 155 147.5 116 Q161 77 195 77 Q229 77 242 115.5 Q255 154 255 250 Q255 318 249.5 356 Q244 394 230.5 411 Q217 428 194 428 Z " />
<glyph glyph-name="dcaron" unicode="&#x10f;" horiz-adv-x="505" d="M432 672 L386 690 L436 837 L505 811 L432 672 Z M247 0 L247 66 Q227 24 207.5 8 Q188 -8 155 -8 Q92 -8 63 56.5 Q34 121 34 259 Q34 391 63.5 452 Q93 513 157 513 Q188 513 207.5 499 Q227 485 247 449 L247 828 L341 828 L341 0 L247 0 Z M191 428 Q157 428 143.5 389 Q130 350 130 255 Q130 156 143.5 116.5 Q157 77 191 77 Q223 77 237 117.5 Q251 158 251 253 Q251 346 237 387 Q223 428 191 428 Z " />
<glyph glyph-name="dslash" unicode="&#x111;" horiz-adv-x="394" d="M155 -8 Q92 -8 63 56.5 Q34 121 34 259 Q34 391 63.5 452 Q93 513 157 513 Q188 513 207.5 499 Q227 485 247 449 L247 633 L146 633 L146 699 L247 699 L247 828 L341 828 L341 699 L392 699 L392 633 L341 633 L341 0 L247 0 L247 66 Q227 24 207.5 8 Q188 -8 155 -8 Z M191 77 Q223 77 237 117.5 Q251 158 251 253 Q251 346 237 387 Q223 428 191 428 Q157 428 143.5 389 Q130 350 130 255 Q130 156 143.5 116.5 Q157 77 191 77 Z " />
<glyph glyph-name="e" unicode="e" horiz-adv-x="368" d="M334 171 Q332 133 328.5 112.5 Q325 92 315 70 Q299 34 265 13 Q231 -8 189 -8 Q141 -8 106.5 16.5 Q72 41 55 86 Q34 151 34 251 Q34 319 42.5 366 Q51 413 70 447 Q86 477 118 495 Q150 513 186 513 Q296 513 328 371 Q338 325 338 234 L125 234 Q127 148 142 110 Q157 72 190 72 Q246 72 247 171 L334 171 Z M243 301 Q239 353 233 381.5 Q227 410 215.5 422 Q204 434 184 434 Q165 434 153.5 422 Q142 410 135.5 381.5 Q129 353 125 301 L243 301 Z " />
<glyph glyph-name="eacute" unicode="&#xe9;" horiz-adv-x="368" d="M140 609 L223 758 L289 715 L191 581 L140 609 Z M189 -8 Q141 -8 106.5 16.5 Q72 41 55 86 Q34 151 34 251 Q34 319 42.5 366 Q51 413 70 447 Q86 477 118 495 Q150 513 186 513 Q296 513 328 371 Q338 325 338 234 L125 234 Q127 148 142 110 Q157 72 190 72 Q246 72 247 171 L334 171 Q332 133 328.5 112.5 Q325 92 315 70 Q299 34 265 13 Q231 -8 189 -8 Z M243 301 Q239 353 233 381.5 Q227 410 215.5 422 Q204 434 184 434 Q165 434 153.5 422 Q142 410 135.5 381.5 Q129 353 125 301 L243 301 Z " />
<glyph glyph-name="ebreve" unicode="&#x115;" horiz-adv-x="368" d="M305 713 Q302 646 272.5 614.5 Q243 583 183 583 Q124 583 93 615 Q62 647 58 713 L120 713 Q121 679 137 661 Q153 643 182 643 Q211 643 224.5 659 Q238 675 243 713 L305 713 Z M334 171 Q332 133 328.5 112.5 Q325 92 315 70 Q299 34 265 13 Q231 -8 189 -8 Q141 -8 106.5 16.5 Q72 41 55 86 Q34 151 34 251 Q34 319 42.5 366 Q51 413 70 447 Q86 477 118 495 Q150 513 186 513 Q296 513 328 371 Q338 325 338 234 L125 234 Q127 148 142 110 Q157 72 190 72 Q246 72 247 171 L334 171 Z M243 301 Q239 353 233 381.5 Q227 410 215.5 422 Q204 434 184 434 Q165 434 153.5 422 Q142 410 135.5 381.5 Q129 353 125 301 L243 301 Z " />
<glyph glyph-name="ecaron" unicode="&#x11b;" horiz-adv-x="368" d="M112 758 L184 676 L262 758 L310 720 L186 581 L60 720 L112 758 Z M334 171 Q332 133 328.5 112.5 Q325 92 315 70 Q299 34 265 13 Q231 -8 189 -8 Q141 -8 106.5 16.5 Q72 41 55 86 Q34 151 34 251 Q34 319 42.5 366 Q51 413 70 447 Q86 477 118 495 Q150 513 186 513 Q296 513 328 371 Q338 325 338 234 L125 234 Q127 148 142 110 Q157 72 190 72 Q246 72 247 171 L334 171 Z M243 301 Q239 353 233 381.5 Q227 410 215.5 422 Q204 434 184 434 Q165 434 153.5 422 Q142 410 135.5 381.5 Q129 353 125 301 L243 301 Z " />
<glyph glyph-name="ecircumflex" unicode="&#xea;" horiz-adv-x="368" d="M60 619 L186 758 L310 619 L262 581 L184 663 L112 581 L60 619 Z M189 -8 Q141 -8 106.5 16.5 Q72 41 55 86 Q34 151 34 251 Q34 319 42.5 366 Q51 413 70 447 Q86 477 118 495 Q150 513 186 513 Q296 513 328 371 Q338 325 338 234 L125 234 Q127 148 142 110 Q157 72 190 72 Q246 72 247 171 L334 171 Q332 133 328.5 112.5 Q325 92 315 70 Q299 34 265 13 Q231 -8 189 -8 Z M243 301 Q239 353 233 381.5 Q227 410 215.5 422 Q204 434 184 434 Q165 434 153.5 422 Q142 410 135.5 381.5 Q129 353 125 301 L243 301 Z " />
<glyph glyph-name="edieresis" unicode="&#xeb;" horiz-adv-x="368" d="M102 697 Q124 697 140.5 680.5 Q157 664 157 641 Q157 617 140.5 600.5 Q124 584 101 584 Q77 584 60.5 600.5 Q44 617 44 641 Q44 664 61 680.5 Q78 697 102 697 Z M272 697 Q295 697 311.5 680.5 Q328 664 328 641 Q328 617 311.5 600.5 Q295 584 271 584 Q248 584 231.5 600.5 Q215 617 215 641 Q215 664 232 680.5 Q249 697 272 697 Z M334 171 Q332 133 328.5 112.5 Q325 92 315 70 Q299 34 265 13 Q231 -8 189 -8 Q141 -8 106.5 16.5 Q72 41 55 86 Q34 151 34 251 Q34 319 42.5 366 Q51 413 70 447 Q86 477 118 495 Q150 513 186 513 Q296 513 328 371 Q338 325 338 234 L125 234 Q127 148 142 110 Q157 72 190 72 Q246 72 247 171 L334 171 Z M243 301 Q239 353 233 381.5 Q227 410 215.5 422 Q204 434 184 434 Q165 434 153.5 422 Q142 410 135.5 381.5 Q129 353 125 301 L243 301 Z " />
<glyph glyph-name="edotaccent" unicode="&#x117;" horiz-adv-x="368" d="M186 703 Q210 703 227.5 685.5 Q245 668 245 644 Q245 619 228 601.5 Q211 584 186 584 Q161 584 144 601.5 Q127 619 127 644 Q127 669 144.5 686 Q162 703 186 703 Z M334 171 Q332 133 328.5 112.5 Q325 92 315 70 Q299 34 265 13 Q231 -8 189 -8 Q141 -8 106.5 16.5 Q72 41 55 86 Q34 151 34 251 Q34 319 42.5 366 Q51 413 70 447 Q86 477 118 495 Q150 513 186 513 Q296 513 328 371 Q338 325 338 234 L125 234 Q127 148 142 110 Q157 72 190 72 Q246 72 247 171 L334 171 Z M243 301 Q239 353 233 381.5 Q227 410 215.5 422 Q204 434 184 434 Q165 434 153.5 422 Q142 410 135.5 381.5 Q129 353 125 301 L243 301 Z " />
<glyph glyph-name="egrave" unicode="&#xe8;" horiz-adv-x="368" d="M88 715 L155 758 L237 609 L186 581 L88 715 Z M189 -8 Q141 -8 106.5 16.5 Q72 41 55 86 Q34 151 34 251 Q34 319 42.5 366 Q51 413 70 447 Q86 477 118 495 Q150 513 186 513 Q296 513 328 371 Q338 325 338 234 L125 234 Q127 148 142 110 Q157 72 190 72 Q246 72 247 171 L334 171 Q332 133 328.5 112.5 Q325 92 315 70 Q299 34 265 13 Q231 -8 189 -8 Z M243 301 Q239 353 233 381.5 Q227 410 215.5 422 Q204 434 184 434 Q165 434 153.5 422 Q142 410 135.5 381.5 Q129 353 125 301 L243 301 Z " />
<glyph glyph-name="emacron" unicode="&#x113;" horiz-adv-x="368" d="M307 676 L307 606 L61 606 L61 676 L307 676 Z M334 171 Q332 133 328.5 112.5 Q325 92 315 70 Q299 34 265 13 Q231 -8 189 -8 Q141 -8 106.5 16.5 Q72 41 55 86 Q34 151 34 251 Q34 319 42.5 366 Q51 413 70 447 Q86 477 118 495 Q150 513 186 513 Q296 513 328 371 Q338 325 338 234 L125 234 Q127 148 142 110 Q157 72 190 72 Q246 72 247 171 L334 171 Z M243 301 Q239 353 233 381.5 Q227 410 215.5 422 Q204 434 184 434 Q165 434 153.5 422 Q142 410 135.5 381.5 Q129 353 125 301 L243 301 Z " />
<glyph glyph-name="eogonek" unicode="&#x119;" horiz-adv-x="368" d="M334 171 Q331 107 316.5 74 Q302 41 263 9 Q240 -10 225.5 -35 Q211 -60 211 -82 Q211 -98 221.5 -107 Q232 -116 250 -116 Q275 -116 298 -107 L298 -165 Q273 -175 244 -175 Q202 -175 176.5 -154 Q151 -133 151 -98 Q151 -72 163.5 -49.5 Q176 -27 203 -5 L180 -7 Q148 -7 119.5 8.5 Q91 24 72 52 Q34 108 34 250 Q34 319 42.5 366.5 Q51 414 70 447 Q86 477 118 495 Q150 513 186 513 Q294 513 328 371 Q338 309 338 234 L125 234 Q127 148 142 110 Q157 72 190 72 Q246 72 247 171 L334 171 Z M243 301 Q237 377 224.5 405.5 Q212 434 184 434 Q155 434 142.5 405.5 Q130 377 125 301 L243 301 Z " />
<glyph glyph-name="uni0259" unicode="&#x259;" horiz-adv-x="368" d="M37 334 Q39 372 43.5 393 Q48 414 58 435 Q73 471 107 492 Q141 513 183 513 Q230 513 265 488 Q300 463 316 419 Q338 356 338 253 Q338 121 302 58 Q285 28 253.5 10 Q222 -8 185 -8 Q77 -8 44 133 Q34 184 34 270 L246 270 Q245 356 230 394.5 Q215 433 182 433 Q126 433 124 334 L37 334 Z M129 203 Q133 151 139.5 123 Q146 95 157.5 83 Q169 71 188 71 Q217 71 229.5 99 Q242 127 246 203 L129 203 Z " />
<glyph glyph-name="f" unicode="f" horiz-adv-x="245" d="M63 681 Q63 731 68.5 755.5 Q74 780 88 801 Q117 838 177 838 Q194 838 207 835.5 Q220 833 241 826 L241 728 Q228 734 219.5 736.5 Q211 739 201 739 Q186 739 175 732 Q164 725 160 712 Q158 698 157 640 L157 505 L236 505 L236 432 L157 432 L157 0 L63 0 L63 432 L17 432 L17 505 L63 505 L63 681 Z " />
<glyph glyph-name="g" unicode="g" horiz-adv-x="394" d="M342 -16 Q342 -77 337.5 -105 Q333 -133 320 -154 Q302 -182 268 -197 Q234 -212 189 -212 Q119 -212 80 -174 Q41 -136 41 -69 Q41 -60 42 -53 L132 -53 Q132 -94 146.5 -114 Q161 -134 192 -134 Q212 -134 225.5 -124.5 Q239 -115 244 -97 Q249 -72 249 -36 L249 62 Q232 26 210.5 9 Q189 -8 157 -8 Q129 -8 105 7 Q81 22 67 47 Q50 79 42 126.5 Q34 174 34 246 Q34 388 63 450.5 Q92 513 157 513 Q188 513 207.5 498.5 Q227 484 249 445 L249 505 L342 505 L342 -16 Z M186 428 Q157 428 143.5 387.5 Q130 347 130 258 Q130 159 144.5 118 Q159 77 194 77 Q225 77 237.5 114.5 Q250 152 250 247 Q250 341 235 384.5 Q220 428 186 428 Z " />
<glyph glyph-name="gbreve" unicode="&#x11f;" horiz-adv-x="394" d="M327 713 Q323 644 292.5 613.5 Q262 583 197 583 Q135 583 104.5 614 Q74 645 69 713 L131 713 Q134 642 199 642 Q231 642 245.5 658 Q260 674 264 713 L327 713 Z M342 -16 Q342 -77 337.5 -105 Q333 -133 320 -154 Q302 -182 268 -197 Q234 -212 189 -212 Q119 -212 80 -174 Q41 -136 41 -69 Q41 -60 42 -53 L132 -53 Q132 -94 146.5 -114 Q161 -134 192 -134 Q212 -134 225.5 -124.5 Q239 -115 244 -97 Q249 -72 249 -36 L249 62 Q232 26 210.5 9 Q189 -8 157 -8 Q129 -8 105 7 Q81 22 67 47 Q50 79 42 126.5 Q34 174 34 246 Q34 388 63 450.5 Q92 513 157 513 Q188 513 207.5 498.5 Q227 484 249 445 L249 505 L342 505 L342 -16 Z M186 428 Q157 428 143.5 387.5 Q130 347 130 258 Q130 159 144.5 118 Q159 77 194 77 Q225 77 237.5 114.5 Q250 152 250 247 Q250 341 235 384.5 Q220 428 186 428 Z " />
<glyph glyph-name="gcaron" unicode="&#x1e7;" horiz-adv-x="394" d="M125 758 L198 676 L276 758 L323 720 L199 581 L73 720 L125 758 Z M342 -16 Q342 -77 337.5 -105 Q333 -133 320 -154 Q302 -182 268 -197 Q234 -212 189 -212 Q119 -212 80 -174 Q41 -136 41 -69 Q41 -60 42 -53 L132 -53 Q132 -94 146.5 -114 Q161 -134 192 -134 Q212 -134 225.5 -124.5 Q239 -115 244 -97 Q249 -72 249 -36 L249 62 Q232 26 210.5 9 Q189 -8 157 -8 Q129 -8 105 7 Q81 22 67 47 Q50 79 42 126.5 Q34 174 34 246 Q34 388 63 450.5 Q92 513 157 513 Q188 513 207.5 498.5 Q227 484 249 445 L249 505 L342 505 L342 -16 Z M186 428 Q157 428 143.5 387.5 Q130 347 130 258 Q130 159 144.5 118 Q159 77 194 77 Q225 77 237.5 114.5 Q250 152 250 247 Q250 341 235 384.5 Q220 428 186 428 Z " />
<glyph glyph-name="gcircumflex" unicode="&#x11d;" horiz-adv-x="394" d="M276 581 L198 663 L125 581 L73 619 L199 758 L323 619 L276 581 Z M342 -16 Q342 -77 337.5 -105 Q333 -133 320 -154 Q302 -182 268 -197 Q234 -212 189 -212 Q119 -212 80 -174 Q41 -136 41 -69 Q41 -60 42 -53 L132 -53 Q132 -94 146.5 -114 Q161 -134 192 -134 Q212 -134 225.5 -124.5 Q239 -115 244 -97 Q249 -72 249 -36 L249 62 Q232 26 210.5 9 Q189 -8 157 -8 Q129 -8 105 7 Q81 22 67 47 Q50 79 42 126.5 Q34 174 34 246 Q34 388 63 450.5 Q92 513 157 513 Q188 513 207.5 498.5 Q227 484 249 445 L249 505 L342 505 L342 -16 Z M186 428 Q157 428 143.5 387.5 Q130 347 130 258 Q130 159 144.5 118 Q159 77 194 77 Q225 77 237.5 114.5 Q250 152 250 247 Q250 341 235 384.5 Q220 428 186 428 Z " />
<glyph glyph-name="uni0123" unicode="&#x123;" horiz-adv-x="394" d="M227 746 L271 728 L223 581 L154 607 L227 746 Z M342 -16 Q342 -77 337.5 -105 Q333 -133 320 -154 Q302 -182 268 -197 Q234 -212 189 -212 Q119 -212 80 -174 Q41 -136 41 -69 Q41 -60 42 -53 L132 -53 Q132 -94 146.5 -114 Q161 -134 192 -134 Q212 -134 225.5 -124.5 Q239 -115 244 -97 Q249 -72 249 -36 L249 62 Q232 26 210.5 9 Q189 -8 157 -8 Q129 -8 105 7 Q81 22 67 47 Q50 79 42 126.5 Q34 174 34 246 Q34 388 63 450.5 Q92 513 157 513 Q188 513 207.5 498.5 Q227 484 249 445 L249 505 L342 505 L342 -16 Z M186 428 Q157 428 143.5 387.5 Q130 347 130 258 Q130 159 144.5 118 Q159 77 194 77 Q225 77 237.5 114.5 Q250 152 250 247 Q250 341 235 384.5 Q220 428 186 428 Z " />
<glyph glyph-name="gdotaccent" unicode="&#x121;" horiz-adv-x="394" d="M199 703 Q223 703 240.5 685.5 Q258 668 258 644 Q258 619 241 601.5 Q224 584 199 584 Q174 584 156.5 601.5 Q139 619 139 644 Q139 669 156.5 686 Q174 703 199 703 Z M342 -16 Q342 -77 337.5 -105 Q333 -133 320 -154 Q302 -182 268 -197 Q234 -212 189 -212 Q119 -212 80 -174 Q41 -136 41 -69 Q41 -60 42 -53 L132 -53 Q132 -94 146.5 -114 Q161 -134 192 -134 Q212 -134 225.5 -124.5 Q239 -115 244 -97 Q249 -72 249 -36 L249 62 Q232 26 210.5 9 Q189 -8 157 -8 Q129 -8 105 7 Q81 22 67 47 Q50 79 42 126.5 Q34 174 34 246 Q34 388 63 450.5 Q92 513 157 513 Q188 513 207.5 498.5 Q227 484 249 445 L249 505 L342 505 L342 -16 Z M186 428 Q157 428 143.5 387.5 Q130 347 130 258 Q130 159 144.5 118 Q159 77 194 77 Q225 77 237.5 114.5 Q250 152 250 247 Q250 341 235 384.5 Q220 428 186 428 Z " />
<glyph glyph-name="h" unicode="h" horiz-adv-x="405" d="M147 447 Q169 483 192.5 498 Q216 513 251 513 Q283 513 307 498 Q331 483 341 457 Q353 432 353 359 L353 0 L259 0 L259 338 Q259 390 246.5 411 Q234 432 205 432 Q174 432 160.5 408 Q147 384 147 327 L147 0 L53 0 L53 828 L147 828 L147 447 Z " />
<glyph glyph-name="hbar" unicode="&#x127;" horiz-adv-x="405" d="M147 633 L147 447 Q169 483 192 498 Q215 513 250 513 Q281 513 305 498 Q329 483 340 457 Q351 434 351 359 L351 0 L258 0 L258 338 Q258 389 246 410.5 Q234 432 205 432 Q174 432 160.5 408 Q147 384 147 327 L147 0 L53 0 L53 633 L2 633 L2 699 L53 699 L53 828 L147 828 L147 699 L247 699 L247 633 L147 633 Z " />
<glyph glyph-name="hcircumflex" unicode="&#x125;" horiz-adv-x="405" d="M221 881 L138 951 L54 881 L14 928 L138 1037 L263 933 L221 881 Z M146 447 Q168 483 191.5 498 Q215 513 250 513 Q281 513 305 498 Q329 483 340 457 Q351 434 351 359 L351 0 L258 0 L258 338 Q258 390 245.5 411 Q233 432 203 432 Q172 432 159 408 Q146 384 146 327 L146 0 L52 0 L52 828 L146 828 L146 447 Z " />
<glyph glyph-name="i" unicode="i" horiz-adv-x="199" d="M97 720 Q123 720 141 701.5 Q159 683 159 657 Q159 630 140.5 611.5 Q122 593 96 593 Q70 593 51.5 611.5 Q33 630 33 657 Q33 683 51.5 701.5 Q70 720 97 720 Z M147 0 L53 0 L53 505 L147 505 L147 0 Z " />
<glyph glyph-name="dotlessi" unicode="&#x131;" horiz-adv-x="199" d="M147 0 L53 0 L53 505 L147 505 L147 0 Z " />
<glyph glyph-name="iacute" unicode="&#xed;" horiz-adv-x="199" d="M63 609 L146 758 L212 715 L114 581 L63 609 Z M53 505 L147 505 L147 0 L53 0 L53 505 Z " />
<glyph glyph-name="ibreve" unicode="&#x12d;" horiz-adv-x="199" d="M216 713 Q212 647 184 615 Q156 583 102 583 Q-7 583 -17 713 L45 713 Q46 680 61.5 661 Q77 642 102 642 Q126 642 138 658 Q150 674 154 713 L216 713 Z M147 0 L53 0 L53 505 L147 505 L147 0 Z " />
<glyph glyph-name="icircumflex" unicode="&#xee;" horiz-adv-x="199" d="M177 581 L99 663 L27 581 L-25 619 L101 758 L225 619 L177 581 Z M146 0 L52 0 L52 505 L146 505 L146 0 Z " />
<glyph glyph-name="idieresis" unicode="&#xef;" horiz-adv-x="199" d="M25 697 Q47 697 63.5 680.5 Q80 664 80 641 Q80 617 63.5 600.5 Q47 584 24 584 Q0 584 -16.5 600.5 Q-33 617 -33 641 Q-33 664 -16 680.5 Q1 697 25 697 Z M176 697 Q199 697 215.5 680.5 Q232 664 232 641 Q232 617 215.5 600.5 Q199 584 175 584 Q152 584 135.5 600.5 Q119 617 119 641 Q119 664 136 680.5 Q153 697 176 697 Z M147 0 L53 0 L53 505 L147 505 L147 0 Z " />
<glyph glyph-name="igrave" unicode="&#xec;" horiz-adv-x="199" d="M-12 715 L54 758 L137 609 L87 581 L-12 715 Z M53 505 L147 505 L147 0 L53 0 L53 505 Z " />
<glyph glyph-name="ij" unicode="&#x133;" horiz-adv-x="396" d="M97 720 Q123 720 141 701.5 Q159 683 159 657 Q159 630 140.5 611.5 Q122 593 96 593 Q70 593 51.5 611.5 Q33 630 33 657 Q33 683 51.5 701.5 Q70 720 97 720 Z M147 0 L53 0 L53 505 L147 505 L147 0 Z M294 720 Q320 720 338 701.5 Q356 683 356 657 Q356 630 337.5 611.5 Q319 593 293 593 Q267 593 248.5 611.5 Q230 630 230 657 Q230 683 248.5 701.5 Q267 720 294 720 Z M238 -216 Q200 -216 178 -205 L178 -114 Q186 -124 197 -128.5 Q208 -133 218 -133 Q238 -133 244 -120 Q250 -107 250 -76 L250 505 L344 505 L344 -78 Q344 -117 337.5 -142.5 Q331 -168 316 -186 Q291 -216 238 -216 Z " />
<glyph glyph-name="imacron" unicode="&#x12b;" horiz-adv-x="199" d="M207 676 L207 606 L-9 606 L-9 676 L207 676 Z M146 0 L52 0 L52 505 L146 505 L146 0 Z " />
<glyph glyph-name="iogonek" unicode="&#x12f;" horiz-adv-x="199" d="M97 720 Q123 720 141 701.5 Q159 683 159 657 Q159 630 140.5 611.5 Q122 593 96 593 Q70 593 51.5 611.5 Q33 630 33 657 Q33 683 51.5 701.5 Q70 720 97 720 Z M146 505 L146 0 Q129 -13 117 -37 Q105 -61 105 -82 Q105 -116 140 -116 Q160 -116 184 -107 L184 -165 Q159 -175 134 -175 Q94 -175 69.5 -153.5 Q45 -132 45 -97 Q45 -71 57.5 -48.5 Q70 -26 98 0 L53 0 L53 505 L146 505 Z " />
<glyph glyph-name="itilde" unicode="&#x129;" horiz-adv-x="199" d="M150 588 Q138 588 128 590.5 Q118 593 104 600 Q83 611 72.5 615 Q62 619 54 619 Q35 619 32 592 L-27 592 Q-22 644 -4.5 667 Q13 690 50 690 Q64 690 77 686 Q90 682 114 669 Q134 658 148 658 Q157 658 161.5 664 Q166 670 168 687 L225 687 Q221 632 204 610 Q187 588 150 588 Z M52 505 L146 505 L146 0 L52 0 L52 505 Z " />
<glyph glyph-name="j" unicode="j" horiz-adv-x="199" d="M97 720 Q123 720 141 701.5 Q159 683 159 657 Q159 630 140.5 611.5 Q122 593 96 593 Q70 593 51.5 611.5 Q33 630 33 657 Q33 683 51.5 701.5 Q70 720 97 720 Z M41 -216 Q3 -216 -19 -205 L-19 -114 Q-11 -124 0 -128.5 Q11 -133 21 -133 Q41 -133 47 -120 Q53 -107 53 -76 L53 505 L147 505 L147 -78 Q147 -117 140.5 -142.5 Q134 -168 119 -186 Q94 -216 41 -216 Z " />
<glyph glyph-name="uni0237" unicode="&#x237;" horiz-adv-x="199" d="M41 -216 Q3 -216 -19 -205 L-19 -114 Q-11 -124 0 -128.5 Q11 -133 21 -133 Q41 -133 47 -120 Q53 -107 53 -76 L53 505 L147 505 L147 -78 Q147 -117 140.5 -142.5 Q134 -168 119 -186 Q94 -216 41 -216 Z " />
<glyph glyph-name="jcircumflex" unicode="&#x135;" horiz-adv-x="199" d="M173 581 L95 663 L23 581 L-29 619 L96 758 L220 619 L173 581 Z M40 -216 Q2 -216 -20 -205 L-20 -114 Q-12 -124 -1 -128.5 Q10 -133 20 -133 Q39 -133 45.5 -120 Q52 -107 52 -76 L52 505 L146 505 L146 -78 Q146 -117 139.5 -142.5 Q133 -168 118 -186 Q92 -216 40 -216 Z " />
<glyph glyph-name="k" unicode="k" horiz-adv-x="391" d="M147 280 L266 505 L371 505 L242 280 L388 0 L278 0 L147 268 L147 0 L53 0 L53 828 L147 828 L147 280 Z " />
<glyph glyph-name="uni0137" unicode="&#x137;" horiz-adv-x="391" d="M147 280 L266 505 L371 505 L242 280 L388 0 L278 0 L147 268 L147 0 L53 0 L53 828 L147 828 L147 280 Z M185 -217 L141 -198 L191 -51 L260 -78 L185 -217 Z " />
<glyph glyph-name="kgreenlandic" unicode="&#x138;" horiz-adv-x="391" d="M147 280 L266 505 L371 505 L242 280 L388 0 L278 0 L147 268 L147 0 L53 0 L53 505 L147 505 L147 280 Z " />
<glyph glyph-name="l" unicode="l" horiz-adv-x="199" d="M147 0 L53 0 L53 828 L147 828 L147 0 Z " />
<glyph glyph-name="lacute" unicode="&#x13a;" horiz-adv-x="199" d="M95 859 L59 901 L164 1002 L217 944 L95 859 Z M147 0 L53 0 L53 810 L147 810 L147 0 Z " />
<glyph glyph-name="lcaron" unicode="&#x13e;" horiz-adv-x="310" d="M236 672 L192 690 L242 837 L311 811 L236 672 Z M147 0 L53 0 L53 828 L147 828 L147 0 Z " />
<glyph glyph-name="uni013C" unicode="&#x13c;" horiz-adv-x="199" d="M147 0 L53 0 L53 828 L147 828 L147 0 Z M67 -217 L21 -198 L71 -51 L140 -78 L67 -217 Z " />
<glyph glyph-name="ldot" unicode="&#x140;" horiz-adv-x="344" d="M147 0 L53 0 L53 828 L147 828 L147 0 Z M272 450 Q301 450 322.5 428.5 Q344 407 344 377 Q344 348 322.5 326.5 Q301 305 271 305 Q241 305 220 326.5 Q199 348 199 379 Q199 408 220.5 429 Q242 450 272 450 Z " />
<glyph glyph-name="lslash" unicode="&#x142;" horiz-adv-x="217" d="M156 391 L156 0 L62 0 L62 339 L0 289 L0 375 L62 425 L62 828 L156 828 L156 477 L217 529 L217 443 L156 391 Z " />
<glyph glyph-name="m" unicode="m" horiz-adv-x="610" d="M147 443 Q167 480 191.5 496.5 Q216 513 249 513 Q286 513 308 497 Q330 481 344 443 Q364 481 388 497 Q412 513 449 513 Q502 513 530 484 Q558 455 558 402 L558 0 L464 0 L464 332 Q464 389 453.5 408.5 Q443 428 414 428 Q396 428 382.5 420 Q369 412 364 399 Q359 389 357.5 375 Q356 361 356 332 L356 0 L260 0 L260 332 Q260 386 248 407 Q236 428 206 428 Q190 428 177 421 Q164 414 157 401 Q147 387 147 332 L147 0 L53 0 L53 505 L147 505 L147 443 Z " />
<glyph glyph-name="n" unicode="n" horiz-adv-x="405" d="M147 447 Q169 483 192.5 498 Q216 513 251 513 Q283 513 307 498 Q331 483 341 457 Q353 432 353 359 L353 0 L259 0 L259 338 Q259 390 246.5 411 Q234 432 205 432 Q174 432 160.5 408 Q147 384 147 327 L147 0 L53 0 L53 505 L147 505 L147 447 Z " />
<glyph glyph-name="nacute" unicode="&#x144;" horiz-adv-x="405" d="M155 609 L237 758 L304 715 L206 581 L155 609 Z M147 447 Q169 483 192.5 498 Q216 513 251 513 Q283 513 307 498 Q331 483 341 457 Q353 432 353 359 L353 0 L259 0 L259 338 Q259 390 246.5 411 Q234 432 205 432 Q174 432 160.5 408 Q147 384 147 327 L147 0 L53 0 L53 505 L147 505 L147 447 Z " />
<glyph glyph-name="napostrophe" unicode="&#x149;" horiz-adv-x="499" d="M96 488 L45 503 L112 777 L193 754 L96 488 Z M242 447 Q264 483 287 498 Q310 513 345 513 Q376 513 400.5 498 Q425 483 435 457 Q446 434 446 359 L446 0 L354 0 L354 338 Q354 390 341.5 411 Q329 432 299 432 Q268 432 255 408 Q242 384 242 327 L242 0 L148 0 L148 505 L242 505 L242 447 Z " />
<glyph glyph-name="ncaron" unicode="&#x148;" horiz-adv-x="405" d="M127 758 L199 676 L277 758 L323 720 L200 581 L75 720 L127 758 Z M147 447 Q169 483 192.5 498 Q216 513 251 513 Q283 513 307 498 Q331 483 341 457 Q353 432 353 359 L353 0 L259 0 L259 338 Q259 390 246.5 411 Q234 432 205 432 Q174 432 160.5 408 Q147 384 147 327 L147 0 L53 0 L53 505 L147 505 L147 447 Z " />
<glyph glyph-name="uni0146" unicode="&#x146;" horiz-adv-x="405" d="M147 447 Q169 483 192.5 498 Q216 513 251 513 Q283 513 307 498 Q331 483 341 457 Q353 432 353 359 L353 0 L259 0 L259 338 Q259 390 246.5 411 Q234 432 205 432 Q174 432 160.5 408 Q147 384 147 327 L147 0 L53 0 L53 505 L147 505 L147 447 Z M174 -217 L129 -198 L179 -51 L247 -78 L174 -217 Z " />
<glyph glyph-name="eng" unicode="&#x14b;" horiz-adv-x="405" d="M147 447 Q169 483 192 498 Q215 513 250 513 Q282 513 306 498 Q330 483 341 457 Q353 432 353 359 L353 7 Q353 -43 347.5 -68 Q342 -93 328 -113 Q315 -131 291.5 -140.5 Q268 -150 238 -150 Q222 -150 208.5 -147.5 Q195 -145 175 -138 L175 -40 Q186 -45 196 -48 Q206 -51 215 -51 Q230 -51 241 -44 Q252 -37 255 -24 Q258 -14 258.5 0.5 Q259 15 259 49 L259 338 Q259 390 246.5 411 Q234 432 205 432 Q174 432 160.5 408 Q147 384 147 327 L147 0 L53 0 L53 505 L147 505 L147 447 Z " />
<glyph glyph-name="ntilde" unicode="&#xf1;" horiz-adv-x="405" d="M329 687 Q325 632 308 610 Q291 588 253 588 Q233 588 208 600 Q183 613 174 616 Q165 619 157 619 Q147 619 142 613 Q137 607 134 592 L77 592 Q80 643 98.5 666.5 Q117 690 153 690 Q168 690 181 685.5 Q194 681 217 669 Q239 658 252 658 Q261 658 265 664 Q269 670 272 687 L329 687 Z M147 447 Q169 483 192.5 498 Q216 513 251 513 Q283 513 307 498 Q331 483 341 457 Q353 432 353 359 L353 0 L259 0 L259 338 Q259 390 246.5 411 Q234 432 205 432 Q174 432 160.5 408 Q147 384 147 327 L147 0 L53 0 L53 505 L147 505 L147 447 Z " />
<glyph glyph-name="o" unicode="o" horiz-adv-x="385" d="M192 513 Q275 513 313 449.5 Q351 386 351 249 Q351 119 312 55.5 Q273 -8 193 -8 Q112 -8 73 56 Q34 120 34 253 Q34 386 73 449.5 Q112 513 192 513 Z M194 428 Q161 428 147.5 389 Q134 350 134 253 Q134 156 147.5 117.5 Q161 79 195 79 Q229 79 242 117 Q255 155 255 251 Q255 318 249.5 356 Q244 394 230.5 411 Q217 428 194 428 Z " />
<glyph glyph-name="oacute" unicode="&#xf3;" horiz-adv-x="385" d="M149 609 L231 758 L298 715 L199 581 L149 609 Z M193 -8 Q112 -8 73 56 Q34 120 34 253 Q34 386 73 449.5 Q112 513 192 513 Q275 513 313 449.5 Q351 386 351 249 Q351 119 312 55.5 Q273 -8 193 -8 Z M195 79 Q229 79 242 117 Q255 155 255 251 Q255 318 249.5 356 Q244 394 230.5 411 Q217 428 194 428 Q161 428 147.5 389 Q134 350 134 253 Q134 156 147.5 117.5 Q161 79 195 79 Z " />
<glyph glyph-name="obreve" unicode="&#x14f;" horiz-adv-x="385" d="M316 713 Q313 645 284 614 Q255 583 194 583 Q135 583 104.5 615 Q74 647 69 713 L131 713 Q132 679 148 661 Q164 643 193 643 Q223 643 236.5 659 Q250 675 254 713 L316 713 Z M192 513 Q275 513 313 449.5 Q351 386 351 249 Q351 119 312 55.5 Q273 -8 193 -8 Q112 -8 73 56 Q34 120 34 253 Q34 386 73 449.5 Q112 513 192 513 Z M194 428 Q161 428 147.5 389 Q134 350 134 253 Q134 156 147.5 117.5 Q161 79 195 79 Q229 79 242 117 Q255 155 255 251 Q255 318 249.5 356 Q244 394 230.5 411 Q217 428 194 428 Z " />
<glyph glyph-name="ocircumflex" unicode="&#xf4;" horiz-adv-x="385" d="M69 619 L194 758 L318 619 L271 581 L193 663 L121 581 L69 619 Z M193 -8 Q112 -8 73 56 Q34 120 34 253 Q34 386 73 449.5 Q112 513 192 513 Q275 513 313 449.5 Q351 386 351 249 Q351 119 312 55.5 Q273 -8 193 -8 Z M195 79 Q229 79 242 117 Q255 155 255 251 Q255 318 249.5 356 Q244 394 230.5 411 Q217 428 194 428 Q161 428 147.5 389 Q134 350 134 253 Q134 156 147.5 117.5 Q161 79 195 79 Z " />
<glyph glyph-name="odieresis" unicode="&#xf6;" horiz-adv-x="385" d="M107 697 Q130 697 146.5 680.5 Q163 664 163 641 Q163 617 146.5 600.5 Q130 584 106 584 Q83 584 66.5 600.5 Q50 617 50 641 Q50 664 67 680.5 Q84 697 107 697 Z M279 697 Q302 697 318 680.5 Q334 664 334 641 Q334 617 318 600.5 Q302 584 278 584 Q254 584 237.5 600.5 Q221 617 221 641 Q221 664 238 680.5 Q255 697 279 697 Z M192 513 Q275 513 313 449.5 Q351 386 351 249 Q351 119 312 55.5 Q273 -8 193 -8 Q112 -8 73 56 Q34 120 34 253 Q34 386 73 449.5 Q112 513 192 513 Z M194 428 Q161 428 147.5 389 Q134 350 134 253 Q134 156 147.5 117.5 Q161 79 195 79 Q229 79 242 117 Q255 155 255 251 Q255 318 249.5 356 Q244 394 230.5 411 Q217 428 194 428 Z " />
<glyph glyph-name="ograve" unicode="&#xf2;" horiz-adv-x="385" d="M99 715 L167 758 L249 609 L199 581 L99 715 Z M193 -8 Q112 -8 73 56 Q34 120 34 253 Q34 386 73 449.5 Q112 513 192 513 Q275 513 313 449.5 Q351 386 351 249 Q351 119 312 55.5 Q273 -8 193 -8 Z M195 79 Q229 79 242 117 Q255 155 255 251 Q255 318 249.5 356 Q244 394 230.5 411 Q217 428 194 428 Q161 428 147.5 389 Q134 350 134 253 Q134 156 147.5 117.5 Q161 79 195 79 Z " />
<glyph glyph-name="ohorn" unicode="&#x1a1;" horiz-adv-x="385" d="M193 -8 Q112 -8 73 56 Q34 120 34 253 Q34 386 73 449.5 Q112 513 192 513 Q275 513 312 450 L342 541 L411 515 L340 379 Q351 324 351 249 Q351 119 312.5 55.5 Q274 -8 193 -8 Z M195 79 Q229 79 242 117 Q255 155 255 251 Q255 318 249.5 356 Q244 394 230.5 411 Q217 428 194 428 Q161 428 147.5 389 Q134 350 134 253 Q134 156 147.5 117.5 Q161 79 195 79 Z " />
<glyph glyph-name="ohungarumlaut" unicode="&#x151;" horiz-adv-x="385" d="M101 605 L169 758 L233 721 L146 581 L101 605 Z M229 605 L298 758 L360 721 L273 581 L229 605 Z M192 513 Q275 513 313 449.5 Q351 386 351 249 Q351 119 312 55.5 Q273 -8 193 -8 Q112 -8 73 56 Q34 120 34 253 Q34 386 73 449.5 Q112 513 192 513 Z M194 428 Q161 428 147.5 389 Q134 350 134 253 Q134 156 147.5 117.5 Q161 79 195 79 Q229 79 242 117 Q255 155 255 251 Q255 318 249.5 356 Q244 394 230.5 411 Q217 428 194 428 Z " />
<glyph glyph-name="omacron" unicode="&#x14d;" horiz-adv-x="385" d="M315 676 L315 606 L69 606 L69 676 L315 676 Z M192 513 Q275 513 313 449.5 Q351 386 351 249 Q351 119 312 55.5 Q273 -8 193 -8 Q112 -8 73 56 Q34 120 34 253 Q34 386 73 449.5 Q112 513 192 513 Z M194 428 Q161 428 147.5 389 Q134 350 134 253 Q134 156 147.5 117.5 Q161 79 195 79 Q229 79 242 117 Q255 155 255 251 Q255 318 249.5 356 Q244 394 230.5 411 Q217 428 194 428 Z " />
<glyph glyph-name="oslash" unicode="&#xf8;" horiz-adv-x="385" d="M330 409 Q351 356 351 241 Q351 114 312.5 53 Q274 -8 192 -8 Q158 -8 133.5 2 Q109 12 89 33 L55 -17 L8 17 L54 90 Q42 141 38 174 Q34 207 34 258 Q34 390 71.5 451.5 Q109 513 191 513 Q225 513 248.5 504 Q272 495 296 471 L328 522 L376 490 L330 409 Z M238 392 Q229 428 191 428 Q159 428 146 392.5 Q133 357 133 272 L134 207 L238 392 Z M148 111 Q160 72 195 72 Q218 72 231 87.5 Q244 103 249 139 Q254 175 254 241 L252 301 L148 111 Z " />
<glyph glyph-name="oslashacute" unicode="&#x1ff;" horiz-adv-x="385" d="M118 609 L200 758 L267 715 L167 581 L118 609 Z M330 409 Q351 356 351 241 Q351 114 312.5 53 Q274 -8 192 -8 Q158 -8 133.5 2 Q109 12 89 33 L55 -17 L8 17 L54 90 Q42 141 38 174 Q34 207 34 258 Q34 390 71.5 451.5 Q109 513 191 513 Q225 513 248.5 504 Q272 495 296 471 L328 522 L376 490 L330 409 Z M238 392 Q229 428 191 428 Q159 428 146 392.5 Q133 357 133 272 L134 207 L238 392 Z M148 111 Q160 72 195 72 Q218 72 231 87.5 Q244 103 249 139 Q254 175 254 241 L252 301 L148 111 Z " />
<glyph glyph-name="otilde" unicode="&#xf5;" horiz-adv-x="385" d="M247 588 Q226 588 201 600 Q181 610 170 614.5 Q159 619 151 619 Q132 619 129 592 L70 592 Q75 644 92.5 667 Q110 690 147 690 Q162 690 175 685.5 Q188 681 211 669 Q231 658 245 658 Q255 658 259 664 Q263 670 266 687 L322 687 Q318 632 301 610 Q284 588 247 588 Z M193 -8 Q112 -8 73 56 Q34 120 34 253 Q34 386 73 449.5 Q112 513 192 513 Q275 513 313 449.5 Q351 386 351 249 Q351 119 312 55.5 Q273 -8 193 -8 Z M195 79 Q229 79 242 117 Q255 155 255 251 Q255 318 249.5 356 Q244 394 230.5 411 Q217 428 194 428 Q161 428 147.5 389 Q134 350 134 253 Q134 156 147.5 117.5 Q161 79 195 79 Z " />
<glyph glyph-name="oe" unicode="&#x153;" horiz-adv-x="592" d="M556 171 Q552 85 513.5 38.5 Q475 -8 408 -8 Q369 -8 345 7.5 Q321 23 298 61 Q279 23 255 7.5 Q231 -8 190 -8 Q110 -8 72 57.5 Q34 123 34 259 Q34 397 76 455 Q93 481 125 497 Q157 513 192 513 Q270 513 299 446 Q317 481 343 497 Q369 513 409 513 Q512 513 545 384 Q558 332 558 234 L345 234 Q349 144 363.5 108.5 Q378 73 410 73 Q438 73 453.5 98 Q469 123 469 171 L556 171 Z M462 298 Q460 373 446.5 404 Q433 435 402 435 Q388 435 376 425.5 Q364 416 356 399 Q351 386 349 366 Q347 346 347 298 L462 298 Z M192 428 Q160 428 145 385.5 Q130 343 130 253 Q130 161 145 119 Q160 77 193 77 Q225 77 240 119.5 Q255 162 255 251 Q255 343 240 385.5 Q225 428 192 428 Z " />
<glyph glyph-name="p" unicode="p" horiz-adv-x="394" d="M147 505 L147 440 Q166 481 187 497 Q208 513 240 513 Q302 513 331 449 Q360 385 360 246 Q360 114 330.5 53 Q301 -8 237 -8 Q206 -8 186.5 6 Q167 20 147 56 L147 -207 L53 -207 L53 505 L147 505 Z M203 428 Q171 428 157.5 388 Q144 348 144 253 Q144 158 157.5 117.5 Q171 77 203 77 Q237 77 250.5 115.5 Q264 154 264 250 Q264 318 258.5 356 Q253 394 239.5 411 Q226 428 203 428 Z " />
<glyph glyph-name="thorn" unicode="&#xfe;" horiz-adv-x="394" d="M147 828 L147 440 Q166 481 187 497 Q208 513 240 513 Q302 513 331 449 Q360 385 360 246 Q360 114 330.5 53 Q301 -8 237 -8 Q206 -8 186.5 6 Q167 20 147 56 L147 -207 L53 -207 L53 828 L147 828 Z M203 428 Q171 428 157.5 388 Q144 348 144 253 Q144 158 157.5 117.5 Q171 77 203 77 Q237 77 250.5 115.5 Q264 154 264 250 Q264 318 258.5 356 Q253 394 239.5 411 Q226 428 203 428 Z " />
<glyph glyph-name="q" unicode="q" horiz-adv-x="394" d="M247 56 Q227 20 207.5 6 Q188 -8 157 -8 Q93 -8 63.5 53 Q34 114 34 246 Q34 385 63 449 Q92 513 155 513 Q187 513 207.5 497 Q228 481 247 440 L247 505 L341 505 L341 -207 L247 -207 L247 56 Z M191 428 Q157 428 143.5 389 Q130 350 130 255 Q130 156 143.5 116.5 Q157 77 191 77 Q223 77 237 117.5 Q251 158 251 253 Q251 346 237 387 Q223 428 191 428 Z " />
<glyph glyph-name="r" unicode="r" horiz-adv-x="267" d="M147 442 Q167 480 192.5 497.5 Q218 515 255 518 L255 419 Q247 420 238 420 Q192 420 171 395 Q156 381 151.5 363 Q147 345 147 306 L147 0 L53 0 L53 505 L147 505 L147 442 Z " />
<glyph glyph-name="racute" unicode="&#x155;" horiz-adv-x="267" d="M97 609 L180 758 L246 715 L148 581 L97 609 Z M147 442 Q167 480 192.5 497.5 Q218 515 255 518 L255 419 Q247 420 238 420 Q192 420 171 395 Q156 381 151.5 363 Q147 345 147 306 L147 0 L53 0 L53 505 L147 505 L147 442 Z " />
<glyph glyph-name="rcaron" unicode="&#x159;" horiz-adv-x="267" d="M72 758 L145 676 L223 758 L270 720 L146 581 L20 720 L72 758 Z M147 442 Q167 480 192.5 497.5 Q218 515 255 518 L255 419 Q247 420 238 420 Q192 420 171 395 Q156 381 151.5 363 Q147 345 147 306 L147 0 L53 0 L53 505 L147 505 L147 442 Z " />
<glyph glyph-name="uni0157" unicode="&#x157;" horiz-adv-x="267" d="M147 442 Q167 480 192.5 497.5 Q218 515 255 518 L255 419 Q247 420 238 420 Q192 420 171 395 Q156 381 151.5 363 Q147 345 147 306 L147 0 L53 0 L53 505 L147 505 L147 442 Z M86 -217 L41 -198 L90 -51 L159 -78 L86 -217 Z " />
<glyph glyph-name="s" unicode="s" horiz-adv-x="294" d="M247 408 Q215 433 176 433 Q150 433 133 417 Q116 401 116 376 Q116 356 130.5 337 Q145 318 182 290 Q234 250 252.5 219 Q271 188 271 141 Q271 73 232 32.5 Q193 -8 127 -8 Q104 -8 87.5 -3 Q71 2 45 16 L45 106 Q69 90 85.5 83.5 Q102 77 122 77 Q152 77 168.5 94 Q185 111 185 140 Q185 164 173.5 181 Q162 198 128 224 Q69 270 48.5 302 Q28 334 28 379 Q28 440 66 479 Q104 518 164 518 Q188 518 206.5 513 Q225 508 247 495 L247 408 Z " />
<glyph glyph-name="sacute" unicode="&#x15b;" horiz-adv-x="294" d="M104 609 L185 758 L253 715 L154 581 L104 609 Z M247 408 Q215 433 176 433 Q150 433 133 417 Q116 401 116 376 Q116 356 130.5 337 Q145 318 182 290 Q234 250 252.5 219 Q271 188 271 141 Q271 73 232 32.5 Q193 -8 127 -8 Q104 -8 87.5 -3 Q71 2 45 16 L45 106 Q69 90 85.5 83.5 Q102 77 122 77 Q152 77 168.5 94 Q185 111 185 140 Q185 164 173.5 181 Q162 198 128 224 Q69 270 48.5 302 Q28 334 28 379 Q28 440 66 479 Q104 518 164 518 Q188 518 206.5 513 Q225 508 247 495 L247 408 Z " />
<glyph glyph-name="scaron" unicode="&#x161;" horiz-adv-x="294" d="M75 758 L147 676 L225 758 L272 720 L148 581 L23 720 L75 758 Z M247 408 Q215 433 176 433 Q150 433 133 417 Q116 401 116 376 Q116 356 130.5 337 Q145 318 182 290 Q234 250 252.5 219 Q271 188 271 141 Q271 73 232 32.5 Q193 -8 127 -8 Q104 -8 87.5 -3 Q71 2 45 16 L45 106 Q69 90 85.5 83.5 Q102 77 122 77 Q152 77 168.5 94 Q185 111 185 140 Q185 164 173.5 181 Q162 198 128 224 Q69 270 48.5 302 Q28 334 28 379 Q28 440 66 479 Q104 518 164 518 Q188 518 206.5 513 Q225 508 247 495 L247 408 Z " />
<glyph glyph-name="scedilla" unicode="&#x15f;" horiz-adv-x="294" d="M247 408 Q215 433 176 433 Q150 433 133 417 Q116 401 116 376 Q116 356 130.5 337 Q145 318 182 290 Q234 250 252.5 219 Q271 188 271 141 Q271 73 232 32.5 Q193 -8 127 -8 Q104 -8 87.5 -3 Q71 2 45 16 L45 106 Q69 90 85.5 83.5 Q102 77 122 77 Q152 77 168.5 94 Q185 111 185 140 Q185 164 173.5 181 Q162 198 128 224 Q69 270 48.5 302 Q28 334 28 379 Q28 440 66 479 Q104 518 164 518 Q188 518 206.5 513 Q225 508 247 495 L247 408 Z M104 -215 L61 -193 L123 -51 L189 -82 L104 -215 Z " />
<glyph glyph-name="scircumflex" unicode="&#x15d;" horiz-adv-x="294" d="M225 581 L147 663 L75 581 L23 619 L148 758 L272 619 L225 581 Z M247 408 Q215 433 176 433 Q150 433 133 417 Q116 401 116 376 Q116 356 130.5 337 Q145 318 182 290 Q234 250 252.5 219 Q271 188 271 141 Q271 73 232 32.5 Q193 -8 127 -8 Q104 -8 87.5 -3 Q71 2 45 16 L45 106 Q69 90 85.5 83.5 Q102 77 122 77 Q152 77 168.5 94 Q185 111 185 140 Q185 164 173.5 181 Q162 198 128 224 Q69 270 48.5 302 Q28 334 28 379 Q28 440 66 479 Q104 518 164 518 Q188 518 206.5 513 Q225 508 247 495 L247 408 Z " />
<glyph glyph-name="uni0219" unicode="&#x219;" horiz-adv-x="294" d="M247 408 Q215 433 176 433 Q150 433 133 417 Q116 401 116 376 Q116 356 130.5 337 Q145 318 182 290 Q234 250 252.5 219 Q271 188 271 141 Q271 73 232 32.5 Q193 -8 127 -8 Q104 -8 87.5 -3 Q71 2 45 16 L45 106 Q69 90 85.5 83.5 Q102 77 122 77 Q152 77 168.5 94 Q185 111 185 140 Q185 164 173.5 181 Q162 198 128 224 Q69 270 48.5 302 Q28 334 28 379 Q28 440 66 479 Q104 518 164 518 Q188 518 206.5 513 Q225 508 247 495 L247 408 Z M111 -217 L67 -198 L115 -51 L184 -78 L111 -217 Z " />
<glyph glyph-name="germandbls" unicode="&#xdf;" horiz-adv-x="412" d="M53 670 Q53 723 60.5 752 Q68 781 87 805 Q106 828 134.5 838.5 Q163 849 205 849 Q288 849 325 806.5 Q362 764 362 670 Q362 605 345 568 Q328 531 292 515 Q329 504 347 482.5 Q365 461 372 415.5 Q379 370 379 279 Q379 163 366.5 104 Q354 45 322 22 Q290 -1 227 -1 L191 0 L191 86 L205 86 Q234 86 249 101.5 Q264 117 270 155.5 Q276 194 276 268 Q276 345 272.5 379.5 Q269 414 259 434 Q248 454 230.5 462.5 Q213 471 181 472 L181 557 L193 557 Q233 557 249.5 580.5 Q266 604 266 660 Q266 712 252 734.5 Q238 757 206 757 Q190 757 177 750 Q164 743 158 731 Q151 719 149 702 Q147 685 147 650 L147 0 L53 0 L53 670 Z " />
<glyph glyph-name="longs" unicode="&#x17f;" horiz-adv-x="245" d="M63 681 Q63 731 68.5 755.5 Q74 780 88 801 Q117 838 177 838 Q194 838 207 835.5 Q220 833 241 826 L241 728 Q228 734 219.5 736.5 Q211 739 201 739 Q186 739 175 732 Q164 725 160 712 Q158 698 157 640 L157 0 L63 0 L63 432 L17 432 L17 505 L63 505 L63 681 Z " />
<glyph glyph-name="t" unicode="t" horiz-adv-x="255" d="M167 -8 Q120 -8 97 17 Q79 35 72.5 57.5 Q66 80 66 113 L66 433 L15 433 L15 505 L66 505 L66 646 L160 646 L160 505 L236 505 L236 433 L160 433 L160 123 Q160 96 167.5 86 Q175 76 191 76 Q213 76 238 103 L238 16 Q226 4 206.5 -2 Q187 -8 167 -8 Z " />
<glyph glyph-name="tbar" unicode="&#x167;" horiz-adv-x="255" d="M191 76 Q213 76 238 103 L238 16 Q226 4 206.5 -2 Q187 -8 167 -8 Q120 -8 97 17 Q79 35 72.5 57.5 Q66 80 66 113 L66 290 L15 290 L15 357 L66 357 L66 433 L15 433 L15 505 L66 505 L66 646 L160 646 L160 505 L236 505 L236 433 L160 433 L160 357 L231 357 L231 290 L160 290 L160 123 Q160 96 167.5 86 Q175 76 191 76 Z " />
<glyph glyph-name="tcaron" unicode="&#x165;" horiz-adv-x="327" d="M254 545 L209 564 L258 711 L327 684 L254 545 Z M167 -8 Q120 -8 97 17 Q79 35 72.5 57.5 Q66 80 66 113 L66 433 L15 433 L15 505 L66 505 L66 646 L160 646 L160 505 L236 505 L236 433 L160 433 L160 123 Q160 96 167.5 86 Q175 76 191 76 Q213 76 238 103 L238 16 Q226 4 206.5 -2 Q187 -8 167 -8 Z " />
<glyph glyph-name="uni0163" unicode="&#x163;" horiz-adv-x="255" d="M167 -8 Q120 -8 97 17 Q79 35 72.5 57.5 Q66 80 66 113 L66 433 L15 433 L15 505 L66 505 L66 646 L160 646 L160 505 L236 505 L236 433 L160 433 L160 123 Q160 96 167.5 86 Q175 76 191 76 Q213 76 238 103 L238 16 Q226 4 206.5 -2 Q187 -8 167 -8 Z M109 -217 L64 -198 L114 -51 L183 -78 L109 -217 Z " />
<glyph glyph-name="u" unicode="u" horiz-adv-x="406" d="M155 -8 Q125 -8 102 5.5 Q79 19 69 43 Q53 79 53 142 L53 505 L147 505 L147 173 Q147 122 158.5 99.5 Q170 77 199 77 Q231 77 245.5 100.5 Q260 124 260 179 L260 505 L354 505 L354 0 L260 0 L260 58 Q239 22 214 7 Q189 -8 155 -8 Z " />
<glyph glyph-name="uacute" unicode="&#xfa;" horiz-adv-x="406" d="M155 -8 Q125 -8 102 5.5 Q79 19 69 43 Q53 79 53 142 L53 505 L147 505 L147 173 Q147 122 158.5 99.5 Q170 77 199 77 Q231 77 245.5 100.5 Q260 124 260 179 L260 505 L354 505 L354 0 L260 0 L260 58 Q239 22 214 7 Q189 -8 155 -8 Z M160 609 L243 758 L309 715 L210 581 L160 609 Z " />
<glyph glyph-name="ubreve" unicode="&#x16d;" horiz-adv-x="406" d="M155 -8 Q125 -8 102 5.5 Q79 19 69 43 Q53 79 53 142 L53 505 L147 505 L147 173 Q147 122 158.5 99.5 Q170 77 199 77 Q231 77 245.5 100.5 Q260 124 260 179 L260 505 L354 505 L354 0 L260 0 L260 58 Q239 22 214 7 Q189 -8 155 -8 Z M328 713 Q324 645 295 614 Q266 583 206 583 Q147 583 116 615 Q85 647 80 713 L142 713 Q147 643 206 643 Q234 643 247.5 659 Q261 675 266 713 L328 713 Z " />
<glyph glyph-name="ucircumflex" unicode="&#xfb;" horiz-adv-x="406" d="M155 -8 Q125 -8 102 5.5 Q79 19 69 43 Q53 79 53 142 L53 505 L147 505 L147 173 Q147 122 158.5 99.5 Q170 77 199 77 Q231 77 245.5 100.5 Q260 124 260 179 L260 505 L354 505 L354 0 L260 0 L260 58 Q239 22 214 7 Q189 -8 155 -8 Z M281 581 L204 663 L131 581 L79 619 L205 758 L329 619 L281 581 Z " />
<glyph glyph-name="udieresis" unicode="&#xfc;" horiz-adv-x="406" d="M155 -8 Q125 -8 102 5.5 Q79 19 69 43 Q53 79 53 142 L53 505 L147 505 L147 173 Q147 122 158.5 99.5 Q170 77 199 77 Q231 77 245.5 100.5 Q260 124 260 179 L260 505 L354 505 L354 0 L260 0 L260 58 Q239 22 214 7 Q189 -8 155 -8 Z M119 697 Q141 697 157.5 680.5 Q174 664 174 641 Q174 617 157.5 600.5 Q141 584 118 584 Q94 584 77.5 600.5 Q61 617 61 641 Q61 664 78 680.5 Q95 697 119 697 Z M289 697 Q312 697 328.5 680.5 Q345 664 345 641 Q345 617 328.5 600.5 Q312 584 288 584 Q265 584 248.5 600.5 Q232 617 232 641 Q232 664 249 680.5 Q266 697 289 697 Z " />
<glyph glyph-name="ugrave" unicode="&#xf9;" horiz-adv-x="406" d="M155 -8 Q125 -8 102 5.5 Q79 19 69 43 Q53 79 53 142 L53 505 L147 505 L147 173 Q147 122 158.5 99.5 Q170 77 199 77 Q231 77 245.5 100.5 Q260 124 260 179 L260 505 L354 505 L354 0 L260 0 L260 58 Q239 22 214 7 Q189 -8 155 -8 Z M260 609 L210 581 L111 715 L177 758 L260 609 Z " />
<glyph glyph-name="uhorn" unicode="&#x1b0;" horiz-adv-x="406" d="M392 364 L442 511 L511 484 L437 345 L392 364 Z M155 -8 Q125 -8 102 5.5 Q79 19 69 43 Q53 79 53 142 L53 505 L147 505 L147 173 Q147 122 158.5 99.5 Q170 77 199 77 Q231 77 245.5 100.5 Q260 124 260 179 L260 505 L354 505 L354 0 L260 0 L260 58 Q239 22 214 7 Q189 -8 155 -8 Z " />
<glyph glyph-name="uhungarumlaut" unicode="&#x171;" horiz-adv-x="406" d="M155 -8 Q125 -8 102 5.5 Q79 19 69 43 Q53 79 53 142 L53 505 L147 505 L147 173 Q147 122 158.5 99.5 Q170 77 199 77 Q231 77 245.5 100.5 Q260 124 260 179 L260 505 L354 505 L354 0 L260 0 L260 58 Q239 22 214 7 Q189 -8 155 -8 Z M108 605 L177 758 L241 721 L154 581 L108 605 Z M236 605 L305 758 L368 721 L281 581 L236 605 Z " />
<glyph glyph-name="umacron" unicode="&#x16b;" horiz-adv-x="406" d="M155 -8 Q125 -8 102 5.5 Q79 19 69 43 Q53 79 53 142 L53 505 L147 505 L147 173 Q147 122 158.5 99.5 Q170 77 199 77 Q231 77 245.5 100.5 Q260 124 260 179 L260 505 L354 505 L354 0 L260 0 L260 58 Q239 22 214 7 Q189 -8 155 -8 Z M327 676 L327 606 L80 606 L80 676 L327 676 Z " />
<glyph glyph-name="uni01C6" unicode="&#x1c6;" horiz-adv-x="731" d="M247 0 L247 66 Q227 24 207.5 8 Q188 -8 155 -8 Q92 -8 63 56.5 Q34 121 34 259 Q34 391 63.5 452 Q93 513 157 513 Q188 513 207.5 499 Q227 485 247 449 L247 828 L341 828 L341 0 L247 0 Z M497 758 L568 676 L646 758 L694 720 L571 581 L444 720 L497 758 Z M547 85 L707 85 L707 0 L409 0 L584 423 L423 423 L423 505 L716 505 L547 85 Z M191 428 Q157 428 143.5 389 Q130 350 130 255 Q130 156 143.5 116.5 Q157 77 191 77 Q223 77 237 117.5 Q251 158 251 253 Q251 346 237 387 Q223 428 191 428 Z " />
<glyph glyph-name="uni01C9" unicode="&#x1c9;" horiz-adv-x="397" d="M147 0 L53 0 L53 828 L147 828 L147 0 Z M295 720 Q321 720 339 701.5 Q357 683 357 657 Q357 630 338.5 611.5 Q320 593 294 593 Q268 593 249.5 611.5 Q231 630 231 657 Q231 683 249.5 701.5 Q268 720 295 720 Z M239 -216 Q201 -216 179 -205 L179 -114 Q187 -124 198 -128.5 Q209 -133 219 -133 Q239 -133 245 -120 Q251 -107 251 -76 L251 505 L345 505 L345 -78 Q345 -117 338.5 -142.5 Q332 -168 317 -186 Q292 -216 239 -216 Z " />
<glyph glyph-name="uni01CC" unicode="&#x1cc;" horiz-adv-x="602" d="M147 447 Q169 483 192.5 498 Q216 513 251 513 Q283 513 307 498 Q331 483 341 457 Q353 432 353 359 L353 0 L259 0 L259 338 Q259 390 246.5 411 Q234 432 205 432 Q174 432 160.5 408 Q147 384 147 327 L147 0 L53 0 L53 505 L147 505 L147 447 Z M500 720 Q526 720 544 701.5 Q562 683 562 657 Q562 630 543.5 611.5 Q525 593 499 593 Q473 593 454.5 611.5 Q436 630 436 657 Q436 683 454.5 701.5 Q473 720 500 720 Z M444 -216 Q406 -216 384 -205 L384 -114 Q392 -124 403 -128.5 Q414 -133 424 -133 Q444 -133 450 -120 Q456 -107 456 -76 L456 505 L550 505 L550 -78 Q550 -117 543.5 -142.5 Q537 -168 522 -186 Q497 -216 444 -216 Z " />
<glyph glyph-name="uni01CE" unicode="&#x1ce;" horiz-adv-x="394" d="M125 758 L198 676 L276 758 L322 720 L199 581 L73 720 L125 758 Z M247 0 L247 66 Q227 24 207.5 8 Q188 -8 155 -8 Q92 -8 63 56.5 Q34 121 34 259 Q34 325 40.5 370.5 Q47 416 61 447 Q75 478 99.5 495.5 Q124 513 155 513 Q187 513 208 498 Q229 483 247 449 L247 505 L341 505 L341 0 L247 0 Z M191 428 Q157 428 143.5 389 Q130 350 130 255 Q130 156 143.5 116.5 Q157 77 191 77 Q223 77 237 117.5 Q251 158 251 253 Q251 346 237 387 Q223 428 191 428 Z " />
<glyph glyph-name="uni01D0" unicode="&#x1d0;" horiz-adv-x="199" d="M27 758 L99 676 L177 758 L225 720 L101 581 L-25 720 L27 758 Z M147 0 L53 0 L53 505 L147 505 L147 0 Z " />
<glyph glyph-name="uni01D2" unicode="&#x1d2;" horiz-adv-x="385" d="M120 758 L192 676 L270 758 L318 720 L193 581 L68 720 L120 758 Z M192 513 Q275 513 313 449.5 Q351 386 351 249 Q351 119 312 55.5 Q273 -8 193 -8 Q112 -8 73 56 Q34 120 34 253 Q34 386 73 449.5 Q112 513 192 513 Z M194 428 Q161 428 147.5 389 Q134 350 134 253 Q134 156 147.5 117.5 Q161 79 195 79 Q229 79 242 117 Q255 155 255 251 Q255 318 249.5 356 Q244 394 230.5 411 Q217 428 194 428 Z " />
<glyph glyph-name="uni01D4" unicode="&#x1d4;" horiz-adv-x="406" d="M155 -8 Q125 -8 102 5.5 Q79 19 69 43 Q53 79 53 142 L53 505 L147 505 L147 173 Q147 122 158.5 99.5 Q170 77 199 77 Q231 77 245.5 100.5 Q260 124 260 179 L260 505 L354 505 L354 0 L260 0 L260 58 Q239 22 214 7 Q189 -8 155 -8 Z M131 758 L204 676 L281 758 L329 720 L205 581 L79 720 L131 758 Z " />
<glyph glyph-name="uni01DD" unicode="&#x1dd;" horiz-adv-x="368" d="M37 334 Q39 372 43.5 393 Q48 414 58 435 Q73 471 107 492 Q141 513 183 513 Q230 513 265 488 Q300 463 316 419 Q338 356 338 253 Q338 121 302 58 Q285 28 253.5 10 Q222 -8 185 -8 Q77 -8 44 133 Q34 184 34 270 L246 270 Q245 356 230 394.5 Q215 433 182 433 Q126 433 124 334 L37 334 Z M129 203 Q133 151 139.5 123 Q146 95 157.5 83 Q169 71 188 71 Q217 71 229.5 99 Q242 127 246 203 L129 203 Z " />
<glyph glyph-name="uni01F5" unicode="&#x1f5;" horiz-adv-x="394" d="M113 609 L195 758 L262 715 L164 581 L113 609 Z M342 -16 Q342 -77 337.5 -105 Q333 -133 320 -154 Q302 -182 268 -197 Q234 -212 189 -212 Q119 -212 80 -174 Q41 -136 41 -69 Q41 -60 42 -53 L132 -53 Q132 -94 146.5 -114 Q161 -134 192 -134 Q212 -134 225.5 -124.5 Q239 -115 244 -97 Q249 -72 249 -36 L249 62 Q232 26 210.5 9 Q189 -8 157 -8 Q129 -8 105 7 Q81 22 67 47 Q50 79 42 126.5 Q34 174 34 246 Q34 388 63 450.5 Q92 513 157 513 Q188 513 207.5 498.5 Q227 484 249 445 L249 505 L342 505 L342 -16 Z M186 428 Q157 428 143.5 387.5 Q130 347 130 258 Q130 159 144.5 118 Q159 77 194 77 Q225 77 237.5 114.5 Q250 152 250 247 Q250 341 235 384.5 Q220 428 186 428 Z " />
<glyph glyph-name="uni0201" unicode="&#x201;" horiz-adv-x="394" d="M190 605 L145 581 L58 721 L121 758 L190 605 Z M318 605 L272 581 L185 721 L249 758 L318 605 Z M247 0 L247 66 Q227 24 207.5 8 Q188 -8 155 -8 Q92 -8 63 56.5 Q34 121 34 259 Q34 325 40.5 370.5 Q47 416 61 447 Q75 478 99.5 495.5 Q124 513 155 513 Q187 513 208 498 Q229 483 247 449 L247 505 L341 505 L341 0 L247 0 Z M191 428 Q157 428 143.5 389 Q130 350 130 255 Q130 156 143.5 116.5 Q157 77 191 77 Q223 77 237 117.5 Q251 158 251 253 Q251 346 237 387 Q223 428 191 428 Z " />
<glyph glyph-name="uni021B" unicode="&#x21b;" horiz-adv-x="255" d="M167 -8 Q120 -8 97 17 Q79 35 72.5 57.5 Q66 80 66 113 L66 433 L15 433 L15 505 L66 505 L66 646 L160 646 L160 505 L236 505 L236 433 L160 433 L160 123 Q160 96 167.5 86 Q175 76 191 76 Q213 76 238 103 L238 16 Q226 4 206.5 -2 Q187 -8 167 -8 Z M109 -217 L64 -198 L114 -51 L183 -78 L109 -217 Z " />
<glyph glyph-name="uni0227" unicode="&#x227;" horiz-adv-x="394" d="M202 703 Q226 703 243.5 685.5 Q261 668 261 644 Q261 619 244 601.5 Q227 584 202 584 Q177 584 159.5 601.5 Q142 619 142 644 Q142 669 159.5 686 Q177 703 202 703 Z M247 0 L247 66 Q227 24 207.5 8 Q188 -8 155 -8 Q92 -8 63 56.5 Q34 121 34 259 Q34 325 40.5 370.5 Q47 416 61 447 Q75 478 99.5 495.5 Q124 513 155 513 Q187 513 208 498 Q229 483 247 449 L247 505 L341 505 L341 0 L247 0 Z M191 428 Q157 428 143.5 389 Q130 350 130 255 Q130 156 143.5 116.5 Q157 77 191 77 Q223 77 237 117.5 Q251 158 251 253 Q251 346 237 387 Q223 428 191 428 Z " />
<glyph glyph-name="uni1EA1" unicode="&#x1ea1;" horiz-adv-x="394" d="M155 -8 Q92 -8 63 56.5 Q34 121 34 259 Q34 325 40.5 370.5 Q47 416 61 447 Q75 478 99.5 495.5 Q124 513 155 513 Q187 513 208 498 Q229 483 247 449 L247 505 L341 505 L341 0 L247 0 L247 66 Q227 24 207.5 8 Q188 -8 155 -8 Z M191 77 Q223 77 237 117.5 Q251 158 251 253 Q251 346 237 387 Q223 428 191 428 Q157 428 143.5 389 Q130 350 130 255 Q130 156 143.5 116.5 Q157 77 191 77 Z M186 -180 Q161 -180 143 -162 Q125 -144 125 -119 Q125 -94 143 -76.5 Q161 -59 186 -59 Q211 -59 228.5 -77 Q246 -95 246 -120 Q246 -145 228.5 -162.5 Q211 -180 186 -180 Z " />
<glyph glyph-name="uni1EA3" unicode="&#x1ea3;" horiz-adv-x="394" d="M158 649 L190 653 Q222 658 233 667 Q244 676 244 695 Q244 715 230.5 727 Q217 739 192 739 Q179 739 173.5 737 Q168 735 153 727 Q137 719 137 719 L124 754 Q174 774 212 774 Q254 774 280.5 751 Q307 728 307 692 Q307 660 286 642 Q265 624 228 624 L199 624 L199 583 L158 583 L158 649 Z M155 -8 Q92 -8 63 56.5 Q34 121 34 259 Q34 325 40.5 370.5 Q47 416 61 447 Q75 478 99.5 495.5 Q124 513 155 513 Q187 513 208 498 Q229 483 247 449 L247 505 L341 505 L341 0 L247 0 L247 66 Q227 24 207.5 8 Q188 -8 155 -8 Z M191 77 Q223 77 237 117.5 Q251 158 251 253 Q251 346 237 387 Q223 428 191 428 Q157 428 143.5 389 Q130 350 130 255 Q130 156 143.5 116.5 Q157 77 191 77 Z " />
<glyph glyph-name="uni1EA5" unicode="&#x1ea5;" horiz-adv-x="394" d="M73 618 L199 758 L267 681 L332 799 L399 756 L308 634 L322 618 L276 580 L198 663 L125 580 L73 618 Z M155 -8 Q92 -8 63 56.5 Q34 121 34 259 Q34 325 40.5 370.5 Q47 416 61 447 Q75 478 99.5 495.5 Q124 513 155 513 Q187 513 208 498 Q229 483 247 449 L247 505 L341 505 L341 0 L247 0 L247 66 Q227 24 207.5 8 Q188 -8 155 -8 Z M191 77 Q223 77 237 117.5 Q251 158 251 253 Q251 346 237 387 Q223 428 191 428 Q157 428 143.5 389 Q130 350 130 255 Q130 156 143.5 116.5 Q157 77 191 77 Z " />
<glyph glyph-name="uni1EA7" unicode="&#x1ea7;" horiz-adv-x="394" d="M223 783 L282 834 L375 699 L333 662 L223 783 Z M74 618 L200 758 L324 618 L276 580 L199 663 L127 580 L74 618 Z M155 -8 Q92 -8 63 56.5 Q34 121 34 259 Q34 325 40.5 370.5 Q47 416 61 447 Q75 478 99.5 495.5 Q124 513 155 513 Q187 513 208 498 Q229 483 247 449 L247 505 L341 505 L341 0 L247 0 L247 66 Q227 24 207.5 8 Q188 -8 155 -8 Z M191 77 Q223 77 237 117.5 Q251 158 251 253 Q251 346 237 387 Q223 428 191 428 Q157 428 143.5 389 Q130 350 130 255 Q130 156 143.5 116.5 Q157 77 191 77 Z " />
<glyph glyph-name="uni1EA9" unicode="&#x1ea9;" horiz-adv-x="394" d="M73 618 L199 758 L281 666 L281 701 L313 705 Q345 710 356 718.5 Q367 727 367 746 Q367 766 353.5 778 Q340 790 315 790 Q301 790 296 788.5 Q291 787 276 779 Q269 774 260 771 L247 805 Q277 817 295.5 821 Q314 825 336 825 Q377 825 404 802 Q431 779 431 742 Q431 711 410 693.5 Q389 676 353 676 L322 676 L322 635 L307 635 L322 618 L276 580 L198 663 L125 580 L73 618 Z M155 -8 Q92 -8 63 56.5 Q34 121 34 259 Q34 325 40.5 370.5 Q47 416 61 447 Q75 478 99.5 495.5 Q124 513 155 513 Q187 513 208 498 Q229 483 247 449 L247 505 L341 505 L341 0 L247 0 L247 66 Q227 24 207.5 8 Q188 -8 155 -8 Z M191 77 Q223 77 237 117.5 Q251 158 251 253 Q251 346 237 387 Q223 428 191 428 Q157 428 143.5 389 Q130 350 130 255 Q130 156 143.5 116.5 Q157 77 191 77 Z " />
<glyph glyph-name="uni1EAB" unicode="&#x1eab;" horiz-adv-x="394" d="M247 764 Q227 764 202 776 Q195 780 181 786.5 Q167 793 162 794.5 Q157 796 151 796 Q141 796 136 789.5 Q131 783 129 768 L71 768 Q75 820 93 843.5 Q111 867 147 867 Q161 867 175 862.5 Q189 858 211 845 Q233 834 246 834 Q255 834 259 840 Q263 846 267 863 L323 863 Q318 808 301 786 Q284 764 247 764 Z M73 619 L199 758 L322 619 L276 581 L198 663 L125 581 L73 619 Z M155 -8 Q92 -8 63 56.5 Q34 121 34 259 Q34 325 40.5 370.5 Q47 416 61 447 Q75 478 99.5 495.5 Q124 513 155 513 Q187 513 208 498 Q229 483 247 449 L247 505 L341 505 L341 0 L247 0 L247 66 Q227 24 207.5 8 Q188 -8 155 -8 Z M191 77 Q223 77 237 117.5 Q251 158 251 253 Q251 346 237 387 Q223 428 191 428 Q157 428 143.5 389 Q130 350 130 255 Q130 156 143.5 116.5 Q157 77 191 77 Z " />
<glyph glyph-name="uni1EAD" unicode="&#x1ead;" horiz-adv-x="394" d="M73 619 L199 758 L322 619 L276 581 L198 663 L125 581 L73 619 Z M155 -8 Q92 -8 63 56.5 Q34 121 34 259 Q34 325 40.5 370.5 Q47 416 61 447 Q75 478 99.5 495.5 Q124 513 155 513 Q187 513 208 498 Q229 483 247 449 L247 505 L341 505 L341 0 L247 0 L247 66 Q227 24 207.5 8 Q188 -8 155 -8 Z M191 77 Q223 77 237 117.5 Q251 158 251 253 Q251 346 237 387 Q223 428 191 428 Q157 428 143.5 389 Q130 350 130 255 Q130 156 143.5 116.5 Q157 77 191 77 Z M186 -180 Q161 -180 143 -162 Q125 -144 125 -119 Q125 -94 143 -76.5 Q161 -59 186 -59 Q211 -59 228.5 -77 Q246 -95 246 -120 Q246 -145 228.5 -162.5 Q211 -180 186 -180 Z " />
<glyph glyph-name="uni1EAF" unicode="&#x1eaf;" horiz-adv-x="394" d="M157 701 L240 849 L306 806 L207 671 L157 701 Z M199 583 Q140 583 108.5 615 Q77 647 73 713 L136 713 Q139 643 198 643 Q227 643 240.5 659 Q254 675 259 713 L321 713 Q317 645 288 614 Q259 583 199 583 Z M155 -8 Q92 -8 63 56.5 Q34 121 34 259 Q34 325 40.5 370.5 Q47 416 61 447 Q75 478 99.5 495.5 Q124 513 155 513 Q187 513 208 498 Q229 483 247 449 L247 505 L341 505 L341 0 L247 0 L247 66 Q227 24 207.5 8 Q188 -8 155 -8 Z M191 77 Q223 77 237 117.5 Q251 158 251 253 Q251 346 237 387 Q223 428 191 428 Q157 428 143.5 389 Q130 350 130 255 Q130 156 143.5 116.5 Q157 77 191 77 Z " />
<glyph glyph-name="uni1EB1" unicode="&#x1eb1;" horiz-adv-x="394" d="M92 815 L158 859 L241 710 L191 680 L92 815 Z M199 583 Q140 583 108.5 615 Q77 647 73 713 L136 713 Q139 643 198 643 Q227 643 240.5 659 Q254 675 259 713 L321 713 Q317 645 288 614 Q259 583 199 583 Z M155 -8 Q92 -8 63 56.5 Q34 121 34 259 Q34 325 40.5 370.5 Q47 416 61 447 Q75 478 99.5 495.5 Q124 513 155 513 Q187 513 208 498 Q229 483 247 449 L247 505 L341 505 L341 0 L247 0 L247 66 Q227 24 207.5 8 Q188 -8 155 -8 Z M191 77 Q223 77 237 117.5 Q251 158 251 253 Q251 346 237 387 Q223 428 191 428 Q157 428 143.5 389 Q130 350 130 255 Q130 156 143.5 116.5 Q157 77 191 77 Z " />
<glyph glyph-name="uni1EB3" unicode="&#x1eb3;" horiz-adv-x="394" d="M176 750 Q192 754 208 756 Q239 760 250.5 769 Q262 778 262 797 Q262 817 248.5 829 Q235 841 210 841 Q197 841 191.5 839 Q186 837 171 829 L155 822 L142 855 Q192 876 231 876 Q272 876 298.5 853 Q325 830 325 793 Q325 761 304 743 Q283 725 246 725 Q232 725 217 727 L217 686 L176 686 L176 750 Z M199 583 Q140 583 108.5 615 Q77 647 73 713 L136 713 Q139 643 198 643 Q227 643 240.5 659 Q254 675 259 713 L321 713 Q317 645 288 614 Q259 583 199 583 Z M155 -8 Q92 -8 63 56.5 Q34 121 34 259 Q34 325 40.5 370.5 Q47 416 61 447 Q75 478 99.5 495.5 Q124 513 155 513 Q187 513 208 498 Q229 483 247 449 L247 505 L341 505 L341 0 L247 0 L247 66 Q227 24 207.5 8 Q188 -8 155 -8 Z M191 77 Q223 77 237 117.5 Q251 158 251 253 Q251 346 237 387 Q223 428 191 428 Q157 428 143.5 389 Q130 350 130 255 Q130 156 143.5 116.5 Q157 77 191 77 Z " />
<glyph glyph-name="uni1EB5" unicode="&#x1eb5;" horiz-adv-x="394" d="M247 738 Q227 738 202 750 Q183 760 171.5 765 Q160 770 151 770 Q141 770 136 763.5 Q131 757 129 742 L71 742 Q75 794 93 817.5 Q111 841 147 841 Q161 841 175 836.5 Q189 832 211 819 Q233 808 246 808 Q255 808 259 814 Q263 820 267 837 L323 837 Q318 782 301 760 Q284 738 247 738 Z M199 583 Q140 583 108.5 615 Q77 647 73 713 L136 713 Q139 643 198 643 Q227 643 240.5 659 Q254 675 259 713 L321 713 Q317 645 288 614 Q259 583 199 583 Z M155 -8 Q92 -8 63 56.5 Q34 121 34 259 Q34 325 40.5 370.5 Q47 416 61 447 Q75 478 99.5 495.5 Q124 513 155 513 Q187 513 208 498 Q229 483 247 449 L247 505 L341 505 L341 0 L247 0 L247 66 Q227 24 207.5 8 Q188 -8 155 -8 Z M191 77 Q223 77 237 117.5 Q251 158 251 253 Q251 346 237 387 Q223 428 191 428 Q157 428 143.5 389 Q130 350 130 255 Q130 156 143.5 116.5 Q157 77 191 77 Z " />
<glyph glyph-name="uni1EB7" unicode="&#x1eb7;" horiz-adv-x="394" d="M199 583 Q140 583 108.5 615 Q77 647 73 713 L136 713 Q139 643 198 643 Q227 643 240.5 659 Q254 675 259 713 L321 713 Q317 645 288 614 Q259 583 199 583 Z M155 -8 Q92 -8 63 56.5 Q34 121 34 259 Q34 325 40.5 370.5 Q47 416 61 447 Q75 478 99.5 495.5 Q124 513 155 513 Q187 513 208 498 Q229 483 247 449 L247 505 L341 505 L341 0 L247 0 L247 66 Q227 24 207.5 8 Q188 -8 155 -8 Z M191 77 Q223 77 237 117.5 Q251 158 251 253 Q251 346 237 387 Q223 428 191 428 Q157 428 143.5 389 Q130 350 130 255 Q130 156 143.5 116.5 Q157 77 191 77 Z M186 -180 Q161 -180 143 -162 Q125 -144 125 -119 Q125 -94 143 -76.5 Q161 -59 186 -59 Q211 -59 228.5 -77 Q246 -95 246 -120 Q246 -145 228.5 -162.5 Q211 -180 186 -180 Z " />
<glyph glyph-name="uni1EB9" unicode="&#x1eb9;" horiz-adv-x="368" d="M189 -8 Q141 -8 106.5 16.5 Q72 41 55 86 Q34 151 34 251 Q34 319 42.5 366 Q51 413 70 447 Q86 477 118 495 Q150 513 186 513 Q296 513 328 371 Q338 325 338 234 L125 234 Q127 148 142 110 Q157 72 190 72 Q246 72 247 171 L334 171 Q332 133 328.5 112.5 Q325 92 315 70 Q299 34 265 13 Q231 -8 189 -8 Z M243 301 Q239 353 233 381.5 Q227 410 215.5 422 Q204 434 184 434 Q165 434 153.5 422 Q142 410 135.5 381.5 Q129 353 125 301 L243 301 Z M186 -180 Q161 -180 143 -162 Q125 -144 125 -119 Q125 -94 143 -76.5 Q161 -59 186 -59 Q211 -59 228.5 -77 Q246 -95 246 -120 Q246 -145 228.5 -162.5 Q211 -180 186 -180 Z " />
<glyph glyph-name="uni1EBB" unicode="&#x1ebb;" horiz-adv-x="368" d="M158 649 L190 653 Q222 658 233 667 Q244 676 244 695 Q244 715 230.5 727 Q217 739 192 739 Q179 739 173.5 737 Q168 735 153 727 Q137 719 137 719 L124 754 Q174 774 212 774 Q254 774 280.5 751 Q307 728 307 692 Q307 660 286 642 Q265 624 228 624 L199 624 L199 583 L158 583 L158 649 Z M189 -8 Q141 -8 106.5 16.5 Q72 41 55 86 Q34 151 34 251 Q34 319 42.5 366 Q51 413 70 447 Q86 477 118 495 Q150 513 186 513 Q296 513 328 371 Q338 325 338 234 L125 234 Q127 148 142 110 Q157 72 190 72 Q246 72 247 171 L334 171 Q332 133 328.5 112.5 Q325 92 315 70 Q299 34 265 13 Q231 -8 189 -8 Z M243 301 Q239 353 233 381.5 Q227 410 215.5 422 Q204 434 184 434 Q165 434 153.5 422 Q142 410 135.5 381.5 Q129 353 125 301 L243 301 Z " />
<glyph glyph-name="uni1EBD" unicode="&#x1ebd;" horiz-adv-x="368" d="M235 588 Q214 588 189 600 Q169 610 158 614.5 Q147 619 139 619 Q129 619 123.5 612.5 Q118 606 116 592 L58 592 Q62 644 80 667 Q98 690 134 690 Q149 690 162.5 685.5 Q176 681 199 669 Q218 658 234 658 Q242 658 246.5 664 Q251 670 253 687 L311 687 Q306 632 289 610 Q272 588 235 588 Z M189 -8 Q141 -8 106.5 16.5 Q72 41 55 86 Q34 151 34 251 Q34 319 42.5 366 Q51 413 70 447 Q86 477 118 495 Q150 513 186 513 Q296 513 328 371 Q338 325 338 234 L125 234 Q127 148 142 110 Q157 72 190 72 Q246 72 247 171 L334 171 Q332 133 328.5 112.5 Q325 92 315 70 Q299 34 265 13 Q231 -8 189 -8 Z M243 301 Q239 353 233 381.5 Q227 410 215.5 422 Q204 434 184 434 Q165 434 153.5 422 Q142 410 135.5 381.5 Q129 353 125 301 L243 301 Z " />
<glyph glyph-name="uni1EBF" unicode="&#x1ebf;" horiz-adv-x="368" d="M60 618 L186 758 L254 681 L322 805 L390 760 L296 634 L310 618 L262 580 L184 663 L112 580 L60 618 Z M189 -8 Q109 -8 71.5 54 Q34 116 34 250 Q34 318 42.5 365.5 Q51 413 70 447 Q86 477 118 495 Q150 513 186 513 Q296 513 328 371 Q338 325 338 234 L125 234 Q127 148 142 110 Q157 72 190 72 Q246 72 247 171 L334 171 Q332 133 328.5 112.5 Q325 92 315 70 Q299 34 265 13 Q231 -8 189 -8 Z M243 301 Q239 353 233 381.5 Q227 410 215.5 422 Q204 434 184 434 Q165 434 153.5 422 Q142 410 135.5 381.5 Q129 353 125 301 L243 301 Z " />
<glyph glyph-name="uni1EC1" unicode="&#x1ec1;" horiz-adv-x="368" d="M209 783 L268 834 L361 699 L319 662 L209 783 Z M60 618 L186 758 L310 618 L262 580 L185 663 L113 580 L60 618 Z M189 -8 Q109 -8 71.5 54 Q34 116 34 250 Q34 318 42.5 365.5 Q51 413 70 447 Q86 477 118 495 Q150 513 186 513 Q296 513 328 371 Q339 318 338 234 L125 234 Q127 148 142.5 110 Q158 72 190 72 Q247 72 247 171 L336 171 Q333 133 329 112 Q325 91 315 70 Q299 34 265 13 Q231 -8 189 -8 Z M243 301 Q239 353 233 381.5 Q227 410 215.5 422 Q204 434 184 434 Q156 434 143.5 405.5 Q131 377 125 301 L243 301 Z " />
<glyph glyph-name="uni1EC3" unicode="&#x1ec3;" horiz-adv-x="368" d="M61 618 L186 758 L273 660 L273 703 L305 707 Q337 712 348 720.5 Q359 729 359 748 Q359 768 345.5 780 Q332 792 307 792 Q293 792 288 790.5 Q283 789 268 781 L252 773 L240 807 Q268 819 286.5 823 Q305 827 328 827 Q369 827 396 804 Q423 781 423 745 Q423 714 402 696 Q381 678 345 678 L314 678 L314 637 L294 637 L310 618 L263 580 L185 663 L113 580 L61 618 Z M189 -8 Q109 -8 71.5 54 Q34 116 34 250 Q34 318 42.5 365.5 Q51 413 70 447 Q86 477 118 495 Q150 513 186 513 Q296 513 328 371 Q338 325 338 234 L125 234 Q127 148 142 110 Q157 72 190 72 Q246 72 247 171 L334 171 Q332 133 328.5 112.5 Q325 92 315 70 Q299 34 265 13 Q231 -8 189 -8 Z M243 301 Q239 353 233 381.5 Q227 410 215.5 422 Q204 434 184 434 Q165 434 153.5 422 Q142 410 135.5 381.5 Q129 353 125 301 L243 301 Z " />
<glyph glyph-name="uni1EC5" unicode="&#x1ec5;" horiz-adv-x="368" d="M235 773 Q214 773 189 785 Q168 796 157.5 800.5 Q147 805 139 805 Q129 805 123.5 798.5 Q118 792 116 777 L58 777 Q62 829 80 852.5 Q98 876 134 876 Q149 876 162 871.5 Q175 867 199 854 Q218 843 234 843 Q242 843 246.5 849.5 Q251 856 253 872 L311 872 Q306 817 289 795 Q272 773 235 773 Z M60 619 L186 758 L310 619 L262 581 L184 663 L112 581 L60 619 Z M189 -8 Q141 -8 106.5 16.5 Q72 41 55 86 Q34 151 34 251 Q34 319 42.5 366 Q51 413 70 447 Q86 477 118 495 Q150 513 186 513 Q296 513 328 371 Q338 325 338 234 L125 234 Q127 148 142 110 Q157 72 190 72 Q246 72 247 171 L334 171 Q332 133 328.5 112.5 Q325 92 315 70 Q299 34 265 13 Q231 -8 189 -8 Z M243 301 Q239 353 233 381.5 Q227 410 215.5 422 Q204 434 184 434 Q165 434 153.5 422 Q142 410 135.5 381.5 Q129 353 125 301 L243 301 Z " />
<glyph glyph-name="uni1EC7" unicode="&#x1ec7;" horiz-adv-x="368" d="M60 619 L186 758 L310 619 L262 581 L184 663 L112 581 L60 619 Z M189 -8 Q141 -8 106.5 16.5 Q72 41 55 86 Q34 151 34 251 Q34 319 42.5 366 Q51 413 70 447 Q86 477 118 495 Q150 513 186 513 Q296 513 328 371 Q338 325 338 234 L125 234 Q127 148 142 110 Q157 72 190 72 Q246 72 247 171 L334 171 Q332 133 328.5 112.5 Q325 92 315 70 Q299 34 265 13 Q231 -8 189 -8 Z M243 301 Q239 353 233 381.5 Q227 410 215.5 422 Q204 434 184 434 Q165 434 153.5 422 Q142 410 135.5 381.5 Q129 353 125 301 L243 301 Z M174 -180 Q149 -180 131 -162.5 Q113 -145 113 -119 Q113 -94 130.5 -76.5 Q148 -59 174 -59 Q199 -59 216.5 -77 Q234 -95 234 -120 Q234 -145 216.5 -162.5 Q199 -180 174 -180 Z " />
<glyph glyph-name="uni1EC9" unicode="&#x1ec9;" horiz-adv-x="199" d="M79 649 L111 653 Q143 658 154 667 Q165 676 165 695 Q165 715 151.5 727 Q138 739 113 739 Q100 739 94 737 Q88 735 73 727 Q67 723 58 719 L45 754 Q95 774 133 774 Q175 774 201.5 751 Q228 728 228 692 Q228 660 207 642 Q186 624 149 624 L120 624 L120 583 L79 583 L79 649 Z M52 505 L146 505 L146 0 L52 0 L52 505 Z " />
<glyph glyph-name="uni1ECB" unicode="&#x1ecb;" horiz-adv-x="199" d="M96 593 Q70 593 51.5 611.5 Q33 630 33 657 Q33 683 51.5 701.5 Q70 720 97 720 Q123 720 141 701.5 Q159 683 159 657 Q159 630 140.5 611.5 Q122 593 96 593 Z M53 505 L147 505 L147 0 L53 0 L53 505 Z M99 -180 Q74 -180 56 -162 Q38 -144 38 -119 Q38 -94 56 -76.5 Q74 -59 99 -59 Q124 -59 141.5 -77 Q159 -95 159 -120 Q159 -145 141.5 -162.5 Q124 -180 99 -180 Z " />
<glyph glyph-name="uni1ECD" unicode="&#x1ecd;" horiz-adv-x="385" d="M193 -8 Q112 -8 73 56 Q34 120 34 253 Q34 386 73 449.5 Q112 513 192 513 Q275 513 313 449.5 Q351 386 351 249 Q351 119 312 55.5 Q273 -8 193 -8 Z M195 79 Q229 79 242 117 Q255 155 255 251 Q255 318 249.5 356 Q244 394 230.5 411 Q217 428 194 428 Q161 428 147.5 389 Q134 350 134 253 Q134 156 147.5 117.5 Q161 79 195 79 Z M182 -180 Q157 -180 139 -162.5 Q121 -145 121 -119 Q121 -94 138.5 -76.5 Q156 -59 182 -59 Q207 -59 224.5 -77 Q242 -95 242 -120 Q242 -145 224.5 -162.5 Q207 -180 182 -180 Z " />
<glyph glyph-name="uni1ECF" unicode="&#x1ecf;" horiz-adv-x="385" d="M171 649 L202 653 Q234 658 245.5 667 Q257 676 257 695 Q257 715 243 727 Q229 739 205 739 Q191 739 185.5 737 Q180 735 165 727 Q159 723 149 719 L137 754 Q187 774 225 774 Q266 774 293 751 Q320 728 320 692 Q320 660 299 642 Q278 624 241 624 L211 624 L211 583 L171 583 L171 649 Z M193 -8 Q112 -8 73 56 Q34 120 34 253 Q34 386 73 449.5 Q112 513 192 513 Q275 513 313 449.5 Q351 386 351 249 Q351 119 312 55.5 Q273 -8 193 -8 Z M195 79 Q229 79 242 117 Q255 155 255 251 Q255 318 249.5 356 Q244 394 230.5 411 Q217 428 194 428 Q161 428 147.5 389 Q134 350 134 253 Q134 156 147.5 117.5 Q161 79 195 79 Z " />
<glyph glyph-name="uni1ED1" unicode="&#x1ed1;" horiz-adv-x="385" d="M69 618 L194 758 L263 680 L333 807 L401 764 L305 634 L318 618 L271 580 L193 663 L121 580 L69 618 Z M192 -8 Q112 -8 73 56 Q34 120 34 253 Q34 386 73 449.5 Q112 513 193 513 Q274 513 312.5 450.5 Q351 388 351 257 Q351 120 312.5 56 Q274 -8 192 -8 Z M195 79 Q229 79 242 117 Q255 155 255 251 Q255 318 249.5 356 Q244 394 230.5 411 Q217 428 194 428 Q161 428 147.5 389 Q134 350 134 253 Q134 156 147.5 117.5 Q161 79 195 79 Z " />
<glyph glyph-name="uni1ED3" unicode="&#x1ed3;" horiz-adv-x="385" d="M217 783 L276 834 L369 699 L327 662 L217 783 Z M68 618 L194 758 L318 618 L270 580 L193 663 L121 580 L68 618 Z M192 -8 Q111 -8 72.5 55.5 Q34 119 34 253 Q34 386 73 449.5 Q112 513 192 513 Q272 513 311 450 Q350 387 350 257 Q350 120 312 56 Q274 -8 192 -8 Z M194 79 Q227 79 240.5 117.5 Q254 156 254 251 Q254 350 240.5 389 Q227 428 194 428 Q161 428 147.5 389 Q134 350 134 253 Q134 157 147.5 118 Q161 79 194 79 Z " />
<glyph glyph-name="uni1ED5" unicode="&#x1ed5;" horiz-adv-x="385" d="M69 618 L194 758 L283 659 L283 699 Q308 704 314 705 Q346 710 357 718.5 Q368 727 368 746 Q368 766 354.5 778 Q341 790 316 790 Q303 790 297.5 788 Q292 786 277 777 L261 771 L249 805 Q276 816 296 820.5 Q316 825 337 825 Q378 825 405 802 Q432 779 432 742 Q432 711 411 693 Q390 675 354 675 L323 676 L323 635 L304 635 L318 618 L271 580 L193 663 L121 580 L69 618 Z M192 -8 Q112 -8 73 56 Q34 120 34 253 Q34 386 73 449.5 Q112 513 193 513 Q274 513 312.5 450.5 Q351 388 351 257 Q351 120 312.5 56 Q274 -8 192 -8 Z M195 79 Q229 79 242 117 Q255 155 255 251 Q255 318 249.5 356 Q244 394 230.5 411 Q217 428 194 428 Q161 428 147.5 389 Q134 350 134 253 Q134 156 147.5 117.5 Q161 79 195 79 Z " />
<glyph glyph-name="uni1ED7" unicode="&#x1ed7;" horiz-adv-x="385" d="M243 770 Q222 770 198 782 Q173 795 164.5 798 Q156 801 147 801 Q137 801 132 795 Q127 789 124 774 L67 774 Q70 825 88 848.5 Q106 872 142 872 Q157 872 170.5 867.5 Q184 863 207 851 Q227 840 242 840 Q251 840 255 846 Q259 852 262 869 L319 869 Q315 814 298 792 Q281 770 243 770 Z M69 619 L194 758 L318 619 L271 581 L193 663 L121 581 L69 619 Z M193 -8 Q112 -8 73 56 Q34 120 34 253 Q34 386 73 449.5 Q112 513 192 513 Q275 513 313 449.5 Q351 386 351 249 Q351 119 312 55.5 Q273 -8 193 -8 Z M195 79 Q229 79 242 117 Q255 155 255 251 Q255 318 249.5 356 Q244 394 230.5 411 Q217 428 194 428 Q161 428 147.5 389 Q134 350 134 253 Q134 156 147.5 117.5 Q161 79 195 79 Z " />
<glyph glyph-name="uni1ED9" unicode="&#x1ed9;" horiz-adv-x="385" d="M69 619 L194 758 L318 619 L271 581 L193 663 L121 581 L69 619 Z M193 -8 Q112 -8 73 56 Q34 120 34 253 Q34 386 73 449.5 Q112 513 192 513 Q275 513 313 449.5 Q351 386 351 249 Q351 119 312 55.5 Q273 -8 193 -8 Z M195 79 Q229 79 242 117 Q255 155 255 251 Q255 318 249.5 356 Q244 394 230.5 411 Q217 428 194 428 Q161 428 147.5 389 Q134 350 134 253 Q134 156 147.5 117.5 Q161 79 195 79 Z M182 -180 Q157 -180 139 -162.5 Q121 -145 121 -119 Q121 -94 138.5 -76.5 Q156 -59 182 -59 Q207 -59 224.5 -77 Q242 -95 242 -120 Q242 -145 224.5 -162.5 Q207 -180 182 -180 Z " />
<glyph glyph-name="uni1EDB" unicode="&#x1edb;" horiz-adv-x="385" d="M171 609 L253 758 L320 715 L220 581 L171 609 Z M193 -8 Q112 -8 73 56 Q34 120 34 253 Q34 386 73 449.5 Q112 513 192 513 Q275 513 312 450 L342 541 L411 515 L340 379 Q351 324 351 249 Q351 119 312.5 55.5 Q274 -8 193 -8 Z M195 79 Q229 79 242 117 Q255 155 255 251 Q255 318 249.5 356 Q244 394 230.5 411 Q217 428 194 428 Q161 428 147.5 389 Q134 350 134 253 Q134 156 147.5 117.5 Q161 79 195 79 Z " />
<glyph glyph-name="uni1EDD" unicode="&#x1edd;" horiz-adv-x="385" d="M66 715 L132 758 L215 609 L164 581 L66 715 Z M193 -8 Q112 -8 73 56 Q34 120 34 253 Q34 386 73 449.5 Q112 513 192 513 Q275 513 312 450 L342 541 L411 515 L340 379 Q351 324 351 249 Q351 119 312.5 55.5 Q274 -8 193 -8 Z M195 79 Q229 79 242 117 Q255 155 255 251 Q255 318 249.5 356 Q244 394 230.5 411 Q217 428 194 428 Q161 428 147.5 389 Q134 350 134 253 Q134 156 147.5 117.5 Q161 79 195 79 Z " />
<glyph glyph-name="uni1EDF" unicode="&#x1edf;" horiz-adv-x="385" d="M175 649 L207 653 Q239 658 250 667 Q261 676 261 695 Q261 715 247.5 727 Q234 739 209 739 Q196 739 190 737 Q184 735 169 727 Q161 722 154 719 L141 754 Q191 774 229 774 Q271 774 297.5 751 Q324 728 324 692 Q324 660 303 642 Q282 624 245 624 L216 624 L216 583 L175 583 L175 649 Z M193 -8 Q112 -8 73 56 Q34 120 34 253 Q34 386 73 449.5 Q112 513 192 513 Q275 513 312 450 L342 541 L411 515 L340 379 Q351 324 351 249 Q351 119 312.5 55.5 Q274 -8 193 -8 Z M195 79 Q229 79 242 117 Q255 155 255 251 Q255 318 249.5 356 Q244 394 230.5 411 Q217 428 194 428 Q161 428 147.5 389 Q134 350 134 253 Q134 156 147.5 117.5 Q161 79 195 79 Z " />
<glyph glyph-name="uni1EE1" unicode="&#x1ee1;" horiz-adv-x="385" d="M243 588 Q223 588 198 600 Q173 613 164 616 Q155 619 147 619 Q137 619 132 613 Q127 607 124 592 L67 592 Q70 643 88 666.5 Q106 690 142 690 Q157 690 170.5 685.5 Q184 681 207 669 Q227 658 242 658 Q251 658 255 664 Q259 670 262 687 L319 687 Q315 632 298 610 Q281 588 243 588 Z M193 -8 Q112 -8 73 56 Q34 120 34 253 Q34 386 73 449.5 Q112 513 192 513 Q275 513 312 450 L342 541 L411 515 L340 379 Q351 324 351 249 Q351 119 312.5 55.5 Q274 -8 193 -8 Z M195 79 Q229 79 242 117 Q255 155 255 251 Q255 318 249.5 356 Q244 394 230.5 411 Q217 428 194 428 Q161 428 147.5 389 Q134 350 134 253 Q134 156 147.5 117.5 Q161 79 195 79 Z " />
<glyph glyph-name="uni1EE3" unicode="&#x1ee3;" horiz-adv-x="385" d="M193 -8 Q112 -8 73 56 Q34 120 34 253 Q34 386 73 449.5 Q112 513 192 513 Q275 513 312 450 L342 541 L411 515 L340 379 Q351 324 351 249 Q351 119 312.5 55.5 Q274 -8 193 -8 Z M195 79 Q229 79 242 117 Q255 155 255 251 Q255 318 249.5 356 Q244 394 230.5 411 Q217 428 194 428 Q161 428 147.5 389 Q134 350 134 253 Q134 156 147.5 117.5 Q161 79 195 79 Z M182 -180 Q157 -180 139 -162.5 Q121 -145 121 -119 Q121 -94 138.5 -76.5 Q156 -59 182 -59 Q207 -59 224.5 -77 Q242 -95 242 -120 Q242 -145 224.5 -162.5 Q207 -180 182 -180 Z " />
<glyph glyph-name="uni1EE5" unicode="&#x1ee5;" horiz-adv-x="406" d="M155 -8 Q125 -8 102 5.5 Q79 19 69 43 Q53 79 53 142 L53 505 L147 505 L147 173 Q147 122 158.5 99.5 Q170 77 199 77 Q231 77 245.5 100.5 Q260 124 260 179 L260 505 L354 505 L354 0 L260 0 L260 58 Q239 22 214 7 Q189 -8 155 -8 Z M208 -59 Q232 -59 250 -77 Q268 -95 268 -120 Q268 -145 250 -162.5 Q232 -180 208 -180 Q182 -180 164.5 -162.5 Q147 -145 147 -119 Q147 -94 164.5 -76.5 Q182 -59 208 -59 Z " />
<glyph glyph-name="uni1EE7" unicode="&#x1ee7;" horiz-adv-x="406" d="M155 -8 Q125 -8 102 5.5 Q79 19 69 43 Q53 79 53 142 L53 505 L147 505 L147 173 Q147 122 158.5 99.5 Q170 77 199 77 Q231 77 245.5 100.5 Q260 124 260 179 L260 505 L354 505 L354 0 L260 0 L260 58 Q239 22 214 7 Q189 -8 155 -8 Z M183 649 L215 653 Q247 658 258 667 Q269 676 269 695 Q269 715 255.5 727 Q242 739 217 739 Q204 739 198.5 737 Q193 735 178 727 Q162 719 162 719 L149 754 Q199 774 238 774 Q279 774 305.5 751 Q332 728 332 692 Q332 660 311 642 Q290 624 253 624 L224 624 L224 583 L183 583 L183 649 Z " />
<glyph glyph-name="uni1EE9" unicode="&#x1ee9;" horiz-adv-x="406" d="M392 364 L442 511 L511 484 L437 345 L392 364 Z M155 -8 Q125 -8 102 5.5 Q79 19 69 43 Q53 79 53 142 L53 505 L147 505 L147 173 Q147 122 158.5 99.5 Q170 77 199 77 Q231 77 245.5 100.5 Q260 124 260 179 L260 505 L354 505 L354 0 L260 0 L260 58 Q239 22 214 7 Q189 -8 155 -8 Z M182 609 L265 758 L331 715 L232 581 L182 609 Z " />
<glyph glyph-name="uni1EEB" unicode="&#x1eeb;" horiz-adv-x="406" d="M392 364 L442 511 L511 484 L437 345 L392 364 Z M155 -8 Q125 -8 102 5.5 Q79 19 69 43 Q53 79 53 142 L53 505 L147 505 L147 173 Q147 122 158.5 99.5 Q170 77 199 77 Q231 77 245.5 100.5 Q260 124 260 179 L260 505 L354 505 L354 0 L260 0 L260 58 Q239 22 214 7 Q189 -8 155 -8 Z M246 609 L196 581 L97 715 L163 758 L246 609 Z " />
<glyph glyph-name="uni1EED" unicode="&#x1eed;" horiz-adv-x="406" d="M392 364 L442 511 L511 484 L437 345 L392 364 Z M155 -8 Q125 -8 102 5.5 Q79 19 69 43 Q53 79 53 142 L53 505 L147 505 L147 173 Q147 122 158.5 99.5 Q170 77 199 77 Q231 77 245.5 100.5 Q260 124 260 179 L260 505 L354 505 L354 0 L260 0 L260 58 Q239 22 214 7 Q189 -8 155 -8 Z M186 649 L218 653 Q250 658 261 667 Q272 676 272 695 Q272 715 258.5 727 Q245 739 220 739 Q207 739 201.5 737 Q196 735 181 727 Q165 719 165 719 L152 754 Q202 774 241 774 Q282 774 308.5 751 Q335 728 335 692 Q335 660 314 642 Q293 624 256 624 L227 624 L227 583 L186 583 L186 649 Z " />
<glyph glyph-name="uni1EEF" unicode="&#x1eef;" horiz-adv-x="406" d="M392 364 L442 511 L511 484 L437 345 L392 364 Z M155 -8 Q125 -8 102 5.5 Q79 19 69 43 Q53 79 53 142 L53 505 L147 505 L147 173 Q147 122 158.5 99.5 Q170 77 199 77 Q231 77 245.5 100.5 Q260 124 260 179 L260 505 L354 505 L354 0 L260 0 L260 58 Q239 22 214 7 Q189 -8 155 -8 Z M330 687 Q326 632 309 610 Q292 588 255 588 Q234 588 209 600 Q188 611 177.5 615 Q167 619 159 619 Q140 619 137 592 L78 592 Q83 644 100.5 667 Q118 690 155 690 Q170 690 183 685.5 Q196 681 219 669 Q239 658 253 658 Q263 658 267 664 Q271 670 273 687 L330 687 Z " />
<glyph glyph-name="uni1EF1" unicode="&#x1ef1;" horiz-adv-x="406" d="M392 364 L442 511 L511 484 L437 345 L392 364 Z M155 -8 Q125 -8 102 5.5 Q79 19 69 43 Q53 79 53 142 L53 505 L147 505 L147 173 Q147 122 158.5 99.5 Q170 77 199 77 Q231 77 245.5 100.5 Q260 124 260 179 L260 505 L354 505 L354 0 L260 0 L260 58 Q239 22 214 7 Q189 -8 155 -8 Z M208 -59 Q232 -59 250 -77 Q268 -95 268 -120 Q268 -145 250 -162.5 Q232 -180 208 -180 Q182 -180 164.5 -162.5 Q147 -145 147 -119 Q147 -94 164.5 -76.5 Q182 -59 208 -59 Z " />
<glyph glyph-name="uni1EF5" unicode="&#x1ef5;" horiz-adv-x="368" d="M138 41 L3 505 L108 505 L183 153 L270 505 L364 505 L158 -207 L60 -207 L138 41 Z M266 -180 Q241 -180 223 -162.5 Q205 -145 205 -119 Q205 -94 222.5 -76.5 Q240 -59 266 -59 Q290 -59 307.5 -77 Q325 -95 325 -120 Q325 -145 307.5 -162.5 Q290 -180 266 -180 Z " />
<glyph glyph-name="uni1EF7" unicode="&#x1ef7;" horiz-adv-x="368" d="M168 649 L200 653 Q232 658 243 667 Q254 676 254 695 Q254 715 240.5 727 Q227 739 202 739 Q189 739 183.5 737 Q178 735 163 727 Q147 719 147 719 L134 754 Q184 774 223 774 Q264 774 291 751 Q318 728 318 692 Q318 660 297 642 Q276 624 238 624 L209 624 L209 583 L168 583 L168 649 Z M138 41 L3 505 L108 505 L183 153 L270 505 L364 505 L158 -207 L60 -207 L138 41 Z " />
<glyph glyph-name="uni1EF9" unicode="&#x1ef9;" horiz-adv-x="368" d="M235 588 Q223 588 213 590.5 Q203 593 189 600 Q168 611 157.5 615 Q147 619 139 619 Q129 619 123.5 612.5 Q118 606 116 592 L58 592 Q62 644 80 667 Q98 690 134 690 Q149 690 162 686 Q175 682 199 669 Q218 658 233 658 Q242 658 246.5 664 Q251 670 253 687 L310 687 Q306 632 289 610 Q272 588 235 588 Z M138 41 L3 505 L108 505 L183 153 L270 505 L364 505 L158 -207 L60 -207 L138 41 Z " />
<glyph glyph-name="uogonek" unicode="&#x173;" horiz-adv-x="406" d="M342 -116 Q367 -116 391 -107 L391 -165 Q366 -175 337 -175 Q294 -175 269 -154 Q244 -133 244 -97 Q244 -72 256 -51 Q268 -30 298 0 L260 0 L260 58 Q239 22 214 7 Q189 -8 155 -8 Q125 -8 102 5.5 Q79 19 69 43 Q53 79 53 142 L53 505 L147 505 L147 173 Q147 122 158.5 99.5 Q170 77 199 77 Q231 77 245.5 100.5 Q260 124 260 179 L260 505 L354 505 L354 0 Q330 -21 317 -42.5 Q304 -64 304 -81 Q304 -98 314 -107 Q324 -116 342 -116 Z " />
<glyph glyph-name="uring" unicode="&#x16f;" horiz-adv-x="406" d="M155 -8 Q125 -8 102 5.5 Q79 19 69 43 Q53 79 53 142 L53 505 L147 505 L147 173 Q147 122 158.5 99.5 Q170 77 199 77 Q231 77 245.5 100.5 Q260 124 260 179 L260 505 L354 505 L354 0 L260 0 L260 58 Q239 22 214 7 Q189 -8 155 -8 Z M206 733 Q239 733 262.5 709.5 Q286 686 286 653 Q286 619 262.5 595.5 Q239 572 205 572 Q171 572 147 595.5 Q123 619 123 653 Q123 687 147 710 Q171 733 206 733 Z M206 687 Q191 687 181 677.5 Q171 668 171 654 Q171 640 180.5 630 Q190 620 205 620 Q219 620 228.5 630 Q238 640 238 654 Q238 668 228.5 677.5 Q219 687 206 687 Z " />
<glyph glyph-name="utilde" unicode="&#x169;" horiz-adv-x="406" d="M155 -8 Q125 -8 102 5.5 Q79 19 69 43 Q53 79 53 142 L53 505 L147 505 L147 173 Q147 122 158.5 99.5 Q170 77 199 77 Q231 77 245.5 100.5 Q260 124 260 179 L260 505 L354 505 L354 0 L260 0 L260 58 Q239 22 214 7 Q189 -8 155 -8 Z M329 687 Q325 632 308 610 Q291 588 254 588 Q233 588 208 600 Q187 611 176.5 615 Q166 619 158 619 Q139 619 136 592 L77 592 Q82 644 99.5 667 Q117 690 154 690 Q169 690 182 685.5 Q195 681 218 669 Q238 658 252 658 Q262 658 266 664 Q270 670 272 687 L329 687 Z " />
<glyph glyph-name="v" unicode="v" horiz-adv-x="339" d="M140 346 Q148 311 158.5 238.5 Q169 166 172 123 L175 140 L186 216 Q188 222 191 245 L210 346 L244 505 L334 505 L202 0 L140 0 L3 505 L103 505 L140 346 Z " />
<glyph glyph-name="w" unicode="w" horiz-adv-x="507" d="M134 342 Q145 282 150 246.5 Q155 211 162 142 Q169 209 173.5 237 Q178 265 189 319 L224 505 L290 505 L323 319 Q335 259 338.5 234 Q342 209 348 142 Q361 259 373 319 L408 505 L499 505 L381 0 L316 0 L278 193 Q269 239 262 295 Q262 296 260 321 L258 344 Q258 352 255 371 Q253 316 234 201 L195 0 L131 0 L8 505 L106 505 L134 342 Z " />
<glyph glyph-name="wacute" unicode="&#x1e83;" horiz-adv-x="507" d="M180 609 L261 758 L329 715 L229 581 L180 609 Z M134 342 Q145 282 150 246.5 Q155 211 162 142 Q169 209 173.5 237 Q178 265 189 319 L224 505 L290 505 L323 319 Q335 259 338.5 234 Q342 209 348 142 Q361 259 373 319 L408 505 L499 505 L381 0 L316 0 L278 193 Q269 239 262 295 Q262 296 260 321 L258 344 Q258 352 255 371 Q253 316 234 201 L195 0 L131 0 L8 505 L106 505 L134 342 Z " />
<glyph glyph-name="wcircumflex" unicode="&#x175;" horiz-adv-x="507" d="M331 581 L253 663 L182 581 L129 619 L255 758 L379 619 L331 581 Z M134 342 Q145 282 150 246.5 Q155 211 162 142 Q169 209 173.5 237 Q178 265 189 319 L224 505 L290 505 L323 319 Q335 259 338.5 234 Q342 209 348 142 Q361 259 373 319 L408 505 L499 505 L381 0 L316 0 L278 193 Q269 239 262 295 Q262 296 260 321 L258 344 Q258 352 255 371 Q253 316 234 201 L195 0 L131 0 L8 505 L106 505 L134 342 Z " />
<glyph glyph-name="wdieresis" unicode="&#x1e85;" horiz-adv-x="507" d="M169 697 Q192 697 208.5 680.5 Q225 664 225 641 Q225 617 208.5 600.5 Q192 584 168 584 Q145 584 128.5 600.5 Q112 617 112 641 Q112 664 129 680.5 Q146 697 169 697 Z M340 697 Q363 697 379 680.5 Q395 664 395 641 Q395 617 379 600.5 Q363 584 339 584 Q315 584 299 600.5 Q283 617 283 641 Q283 664 299.5 680.5 Q316 697 340 697 Z M134 342 Q145 282 150 246.5 Q155 211 162 142 Q169 209 173.5 237 Q178 265 189 319 L224 505 L290 505 L323 319 Q335 259 338.5 234 Q342 209 348 142 Q361 259 373 319 L408 505 L499 505 L381 0 L316 0 L278 193 Q269 239 262 295 Q262 296 260 321 L258 344 Q258 352 255 371 Q253 316 234 201 L195 0 L131 0 L8 505 L106 505 L134 342 Z " />
<glyph glyph-name="wgrave" unicode="&#x1e81;" horiz-adv-x="507" d="M329 609 L278 581 L180 715 L246 758 L329 609 Z M134 342 Q145 282 150 246.5 Q155 211 162 142 Q169 209 173.5 237 Q178 265 189 319 L224 505 L290 505 L323 319 Q335 259 338.5 234 Q342 209 348 142 Q361 259 373 319 L408 505 L499 505 L381 0 L316 0 L278 193 Q269 239 262 295 Q262 296 260 321 L258 344 Q258 352 255 371 Q253 316 234 201 L195 0 L131 0 L8 505 L106 505 L134 342 Z " />
<glyph glyph-name="x" unicode="x" horiz-adv-x="375" d="M158 408 Q172 379 184 332 Q189 353 195.5 373 Q202 393 212 416 L249 505 L347 505 L233 267 L372 0 L260 0 L216 97 Q193 151 186.5 169 Q180 187 177 205 Q174 171 146 105 L101 0 L3 0 L130 267 L3 505 L113 505 L158 408 Z " />
<glyph glyph-name="y" unicode="y" horiz-adv-x="368" d="M183 153 L270 505 L364 505 L158 -207 L60 -207 L138 41 L3 505 L108 505 L183 153 Z " />
<glyph glyph-name="yacute" unicode="&#xfd;" horiz-adv-x="368" d="M155 609 L237 758 L304 715 L206 581 L155 609 Z M138 41 L3 505 L108 505 L183 153 L270 505 L364 505 L158 -207 L60 -207 L138 41 Z " />
<glyph glyph-name="ycircumflex" unicode="&#x177;" horiz-adv-x="368" d="M262 581 L184 663 L112 581 L60 619 L185 758 L310 619 L262 581 Z M183 153 L270 505 L364 505 L158 -207 L60 -207 L138 41 L3 505 L108 505 L183 153 Z " />
<glyph glyph-name="ydieresis" unicode="&#xff;" horiz-adv-x="368" d="M99 697 Q122 697 138.5 680.5 Q155 664 155 641 Q155 617 138.5 600.5 Q122 584 98 584 Q75 584 58.5 600.5 Q42 617 42 641 Q42 664 59 680.5 Q76 697 99 697 Z M270 697 Q293 697 309 680.5 Q325 664 325 641 Q325 617 309 600.5 Q293 584 269 584 Q245 584 228.5 600.5 Q212 617 212 641 Q212 664 229 680.5 Q246 697 270 697 Z M183 153 L270 505 L364 505 L158 -207 L60 -207 L138 41 L3 505 L108 505 L183 153 Z " />
<glyph glyph-name="ygrave" unicode="&#x1ef3;" horiz-adv-x="368" d="M110 715 L176 758 L259 609 L208 581 L110 715 Z M138 41 L3 505 L108 505 L183 153 L270 505 L364 505 L158 -207 L60 -207 L138 41 Z " />
<glyph glyph-name="z" unicode="z" horiz-adv-x="337" d="M153 85 L313 85 L313 0 L15 0 L190 423 L28 423 L28 505 L321 505 L153 85 Z " />
<glyph glyph-name="zacute" unicode="&#x17a;" horiz-adv-x="337" d="M123 609 L206 758 L272 715 L174 581 L123 609 Z M153 85 L313 85 L313 0 L15 0 L190 423 L28 423 L28 505 L321 505 L153 85 Z " />
<glyph glyph-name="zcaron" unicode="&#x17e;" horiz-adv-x="337" d="M102 758 L174 676 L252 758 L299 720 L176 581 L50 720 L102 758 Z M153 85 L313 85 L313 0 L15 0 L190 423 L28 423 L28 505 L321 505 L153 85 Z " />
<glyph glyph-name="zdotaccent" unicode="&#x17c;" horiz-adv-x="337" d="M176 703 Q200 703 217.5 685.5 Q235 668 235 644 Q235 619 217.5 601.5 Q200 584 175 584 Q150 584 133 601.5 Q116 619 116 644 Q116 668 134 685.5 Q152 703 176 703 Z M153 85 L313 85 L313 0 L15 0 L190 423 L28 423 L28 505 L321 505 L153 85 Z " />
<glyph glyph-name="ff" unicode="&#xfb00;" horiz-adv-x="455" d="M63 681 Q63 731 68.5 755.5 Q74 780 88 801 Q117 838 177 838 Q195 838 207.5 835.5 Q220 833 241 826 L241 728 Q220 739 202 739 Q186 739 175 732 Q164 725 160 712 Q158 698 157 640 L157 505 L202 505 L202 432 L157 432 L157 0 L63 0 L63 432 L17 432 L17 505 L63 505 L63 681 Z M275 681 Q275 732 280 756.5 Q285 781 299 801 Q328 838 389 838 Q405 838 418 835.5 Q431 833 451 826 L451 728 Q430 739 412 739 Q396 739 385.5 732 Q375 725 372 712 Q370 698 368 640 L368 505 L446 505 L446 432 L368 432 L368 0 L275 0 L275 432 L232 432 L232 505 L275 505 L275 681 Z " />
<glyph glyph-name="ffi" unicode="&#xfb03;" horiz-adv-x="632" d="M63 681 Q63 731 68.5 755.5 Q74 780 88 801 Q117 838 177 838 Q195 838 207.5 835.5 Q220 833 241 826 L241 728 Q220 739 202 739 Q186 739 175 732 Q164 725 160 712 Q158 698 157 640 L157 505 L202 505 L202 432 L157 432 L157 0 L63 0 L63 432 L17 432 L17 505 L63 505 L63 681 Z M275 681 Q275 732 280 756.5 Q285 781 299 801 Q328 838 389 838 Q405 838 418 835.5 Q431 833 451 826 L451 728 Q430 739 412 739 Q396 739 385.5 732 Q375 725 372 712 Q370 698 368 640 L368 505 L446 505 L446 432 L368 432 L368 0 L275 0 L275 432 L232 432 L232 505 L275 505 L275 681 Z M530 720 Q556 720 574 701.5 Q592 683 592 657 Q592 630 573.5 611.5 Q555 593 529 593 Q503 593 484.5 611.5 Q466 630 466 657 Q466 683 484.5 701.5 Q503 720 530 720 Z M579 0 L485 0 L485 505 L579 505 L579 0 Z " />
<glyph glyph-name="ffl" unicode="&#xfb04;" horiz-adv-x="632" d="M63 681 Q63 731 68.5 755.5 Q74 780 88 801 Q117 838 177 838 Q195 838 207.5 835.5 Q220 833 241 826 L241 728 Q220 739 202 739 Q186 739 175 732 Q164 725 160 712 Q158 698 157 640 L157 505 L202 505 L202 432 L157 432 L157 0 L63 0 L63 432 L17 432 L17 505 L63 505 L63 681 Z M275 681 Q275 732 280 756.5 Q285 781 299 801 Q328 838 389 838 Q405 838 418 835.5 Q431 833 451 826 L451 728 Q430 739 412 739 Q396 739 385.5 732 Q375 725 372 712 Q370 698 368 640 L368 505 L446 505 L446 432 L368 432 L368 0 L275 0 L275 432 L232 432 L232 505 L275 505 L275 681 Z M579 0 L485 0 L485 828 L579 828 L579 0 Z " />
<glyph glyph-name="fi" unicode="&#xfb01;" horiz-adv-x="421" d="M63 681 Q63 731 68.5 755.5 Q74 780 88 801 Q117 838 177 838 Q194 838 207 835.5 Q220 833 241 826 L241 728 Q228 734 219.5 736.5 Q211 739 201 739 Q186 739 175 732 Q164 725 160 712 Q158 698 157 640 L157 505 L236 505 L236 432 L157 432 L157 0 L63 0 L63 432 L17 432 L17 505 L63 505 L63 681 Z M319 720 Q345 720 363 701.5 Q381 683 381 657 Q381 630 362.5 611.5 Q344 593 318 593 Q292 593 273 611.5 Q254 630 254 657 Q254 683 273 701.5 Q292 720 319 720 Z M368 0 L275 0 L275 505 L368 505 L368 0 Z " />
<glyph glyph-name="fl" unicode="&#xfb02;" horiz-adv-x="421" d="M63 681 Q63 731 68.5 755.5 Q74 780 88 801 Q117 838 177 838 Q194 838 207 835.5 Q220 833 241 826 L241 728 Q228 734 219.5 736.5 Q211 739 201 739 Q186 739 175 732 Q164 725 160 712 Q158 698 157 640 L157 505 L236 505 L236 432 L157 432 L157 0 L63 0 L63 432 L17 432 L17 505 L63 505 L63 681 Z M368 0 L275 0 L275 828 L368 828 L368 0 Z " />
<glyph glyph-name="ordfeminine" unicode="&#xaa;" horiz-adv-x="302" d="M174 421 L169 419 Q139 403 125 403 Q114 403 96.5 412.5 Q79 422 71 433 Q43 470 43 582 Q43 699 75 733 Q83 743 99 751 Q115 759 125 759 Q142 759 169 744 L174 741 L174 755 L243 755 L243 408 L174 408 L174 421 Z M146 698 Q129 698 121 672.5 Q113 647 113 591 Q113 521 120.5 492.5 Q128 464 146 464 Q163 464 170 490.5 Q177 517 177 585 Q177 648 170 673 Q163 698 146 698 Z M264 371 L264 312 L38 312 L38 371 L264 371 Z " />
<glyph glyph-name="ordmasculine" unicode="&#xba;" horiz-adv-x="302" d="M154 759 Q258 759 258 577 Q258 493 231 449 Q204 405 154 405 Q100 405 72.5 450 Q45 495 45 582 Q45 668 73 713.5 Q101 759 154 759 Z M153 694 Q134 694 124.5 664.5 Q115 635 115 580 Q115 529 124.5 499.5 Q134 470 151 470 Q168 470 177 499 Q186 528 186 581 Q186 634 177.5 664 Q169 694 153 694 Z M264 371 L264 312 L38 312 L38 371 L264 371 Z " />
<glyph glyph-name="uni0410" unicode="&#x410;" horiz-adv-x="407" d="M406 0 L305 0 L277 147 L128 147 L98 0 L1 0 L165 754 L244 754 L406 0 Z M240 346 Q230 399 219 478.5 Q208 558 203 607 Q187 456 160 322 L141 225 L262 225 L240 346 Z " />
<glyph glyph-name="uni0411" unicode="&#x411;" horiz-adv-x="406" d="M314 754 L314 668 L159 668 L159 426 L184 426 Q270 426 316 370 Q362 314 362 209 Q362 143 342.5 94.5 Q323 46 289 25 Q268 11 243 5.5 Q218 0 181 0 L58 0 L58 754 L314 754 Z M176 86 Q220 86 237.5 113.5 Q255 141 255 210 Q255 276 238 305 Q221 334 183 334 L159 334 L159 86 L176 86 Z " />
<glyph glyph-name="uni0412" unicode="&#x412;" horiz-adv-x="411" d="M195 754 Q277 754 317 704.5 Q357 655 357 554 Q357 478 336 440 Q315 402 262 383 Q290 372 304.5 363.5 Q319 355 329 344 Q368 301 368 208 Q368 102 324.5 51 Q281 0 191 0 L58 0 L58 754 L195 754 Z M160 421 Q214 421 236.5 450.5 Q259 480 259 550 Q259 672 171 672 Q160 672 154 671 L154 421 L160 421 Z M154 87 Q189 88 205.5 92.5 Q222 97 234 108 Q263 137 263 211 Q263 283 239 312 Q215 341 154 341 L154 87 Z " />
<glyph glyph-name="uni0413" unicode="&#x413;" horiz-adv-x="325" d="M323 754 L323 668 L163 668 L163 0 L61 0 L61 754 L323 754 Z " />
<glyph glyph-name="uni0403" unicode="&#x403;" horiz-adv-x="325" d="M160 811 L115 852 L229 973 L295 915 L160 811 Z M323 754 L323 668 L163 668 L163 0 L61 0 L61 754 L323 754 Z " />
<glyph glyph-name="uni0490" unicode="&#x490;" horiz-adv-x="333" d="M163 660 L163 0 L61 0 L61 754 L221 754 L221 836 L323 836 L323 660 L163 660 Z " />
<glyph glyph-name="uni0414" unicode="&#x414;" horiz-adv-x="510" d="M86 -124 L-9 -124 L-9 86 L34 86 Q51 112 60 184 L138 754 L428 754 L428 86 L478 86 L478 -124 L383 -124 L383 0 L86 0 L86 -124 Z M226 666 L160 165 Q154 116 144 86 L327 86 L327 666 L226 666 Z " />
<glyph glyph-name="uni0415" unicode="&#x415;" horiz-adv-x="363" d="M328 668 L159 668 L159 428 L308 428 L308 342 L159 342 L159 86 L328 86 L328 0 L58 0 L58 754 L328 754 L328 668 Z " />
<glyph glyph-name="uni0400" unicode="&#x400;" horiz-adv-x="363" d="M217 822 L95 906 L148 965 L253 862 L217 822 Z M328 668 L159 668 L159 428 L308 428 L308 342 L159 342 L159 86 L328 86 L328 0 L58 0 L58 754 L328 754 L328 668 Z " />
<glyph glyph-name="uni0401" unicode="&#x401;" horiz-adv-x="365" d="M107 937 Q131 937 148.5 919.5 Q166 902 166 878 Q166 853 149 835.5 Q132 818 106 818 Q83 818 65 835.5 Q47 853 47 877 Q47 902 65 919.5 Q83 937 107 937 Z M276 937 Q299 937 316.5 919.5 Q334 902 334 878 Q334 853 317 835.5 Q300 818 275 818 Q251 818 233.5 835.5 Q216 853 216 877 Q216 902 233.5 919.5 Q251 937 276 937 Z M328 668 L159 668 L159 428 L308 428 L308 342 L159 342 L159 86 L328 86 L328 0 L58 0 L58 754 L328 754 L328 668 Z " />
<glyph glyph-name="uni0416" unicode="&#x416;" horiz-adv-x="634" d="M107 0 L0 0 L177 399 L8 754 L112 754 L266 408 L266 754 L367 754 L367 408 L521 754 L625 754 L455 399 L633 0 L525 0 L367 389 L367 0 L266 0 L266 389 L107 0 Z " />
<glyph glyph-name="uni0417" unicode="&#x417;" horiz-adv-x="407" d="M45 746 Q94 766 151 766 Q201 766 242 752 Q283 738 307 713 Q329 692 342 654 Q355 616 355 574 Q355 516 333.5 475.5 Q312 435 267 410 Q290 398 302.5 388.5 Q315 379 325 365 Q344 340 354.5 301.5 Q365 263 365 220 Q365 167 349 119.5 Q333 72 305 44 Q280 18 239 3.5 Q198 -11 151 -11 Q124 -11 99 -6.5 Q74 -2 35 9 L35 116 Q68 99 92.5 92.5 Q117 86 147 86 Q204 86 233 120 Q262 154 262 220 Q262 255 251.5 284 Q241 313 223 330 Q204 348 180 354 Q156 360 103 360 L103 450 Q154 450 183 461 Q214 472 232 499.5 Q250 527 250 565 Q250 670 145 670 Q116 670 93 663.5 Q70 657 45 642 L45 746 Z " />
<glyph glyph-name="uni0418" unicode="&#x418;" horiz-adv-x="467" d="M308 0 L314 329 L315 373 Q317 393 319 435 L321 466 L325 542 Q326 546 327.5 559 Q329 572 330 580 Q325 554 321 541 Q308 476 300.5 448.5 Q293 421 267 339 L153 0 L58 0 L58 754 L159 754 L159 472 Q157 383 152.5 324.5 Q148 266 136 181 Q146 227 168.5 307 Q191 387 212 453 L314 754 L409 754 L409 0 L308 0 Z " />
<glyph glyph-name="uni0419" unicode="&#x419;" horiz-adv-x="496" d="M374 949 Q369 889 332.5 853.5 Q296 818 238 818 Q180 818 144 853 Q108 888 102 949 L168 949 Q185 888 236 888 Q263 888 281.5 903.5 Q300 919 307 949 L374 949 Z M308 0 L314 329 L315 373 Q317 393 319 435 L321 466 L325 542 Q326 546 327.5 559 Q329 572 330 580 Q325 554 321 541 Q308 476 300.5 448.5 Q293 421 267 339 L153 0 L58 0 L58 754 L159 754 L159 472 Q157 383 152.5 324.5 Q148 266 136 181 Q146 227 168.5 307 Q191 387 212 453 L314 754 L409 754 L409 0 L308 0 Z " />
<glyph glyph-name="uni040D" unicode="&#x40d;" horiz-adv-x="467" d="M262 822 L141 906 L194 965 L299 862 L262 822 Z M308 0 L314 329 L315 373 Q317 393 319 435 L321 466 L325 542 Q326 546 327.5 559 Q329 572 330 580 Q325 554 321 541 Q308 476 300.5 448.5 Q293 421 267 339 L153 0 L58 0 L58 754 L159 754 L159 472 Q157 383 152.5 324.5 Q148 266 136 181 Q146 227 168.5 307 Q191 387 212 453 L314 754 L409 754 L409 0 L308 0 Z " />
<glyph glyph-name="uni041A" unicode="&#x41a;" horiz-adv-x="420" d="M159 754 L159 0 L58 0 L58 754 L159 754 Z M415 0 L301 0 L159 389 L301 754 L402 754 L254 389 L415 0 Z " />
<glyph glyph-name="uni040C" unicode="&#x40c;" horiz-adv-x="427" d="M210 811 L166 852 L279 973 L346 915 L210 811 Z M159 754 L159 0 L58 0 L58 754 L159 754 Z M415 0 L301 0 L159 389 L301 754 L402 754 L254 389 L415 0 Z " />
<glyph glyph-name="uni041B" unicode="&#x41b;" horiz-adv-x="479" d="M316 0 L316 669 L219 669 L153 169 Q143 94 127 59 Q111 24 80 11.5 Q49 -1 -14 0 L-14 86 Q13 86 24.5 92 Q36 98 42.5 118.5 Q49 139 56 191 L134 754 L418 754 L418 0 L316 0 Z " />
<glyph glyph-name="uni041C" unicode="&#x41c;" horiz-adv-x="570" d="M246 446 Q266 364 287 209 L289 228 L304 315 L316 398 L328 452 L386 754 L475 754 L545 0 L446 0 L429 255 L427 313 L423 414 L420 506 L419 519 Q412 469 410 455 Q406 438 392 355 L386 329 L323 0 L255 0 L195 285 Q187 318 175.5 388 Q164 458 156 519 L127 0 L32 0 L94 754 L181 754 L246 446 Z " />
<glyph glyph-name="uni041D" unicode="&#x41d;" horiz-adv-x="468" d="M159 459 L307 459 L307 754 L409 754 L409 0 L307 0 L307 373 L159 373 L159 0 L58 0 L58 754 L159 754 L159 459 Z " />
<glyph glyph-name="uni041E" unicode="&#x41e;" horiz-adv-x="478" d="M237 764 Q288 764 327 743 Q366 722 386 684 Q412 634 423.5 560 Q435 486 435 358 Q435 224 415.5 144 Q396 64 354 27 Q312 -10 242 -10 Q190 -10 149.5 12.5 Q109 35 89 75 Q64 123 53.5 198.5 Q43 274 43 394 Q43 499 52.5 562 Q62 625 84 671 Q128 764 237 764 Z M238 672 Q189 672 167 615 Q157 588 153 533 Q149 478 149 374 Q149 258 157 196.5 Q165 135 184.5 109.5 Q204 84 240 84 Q301 84 316 164 Q329 232 329 348 Q329 483 321.5 550.5 Q314 618 295 645 Q276 672 238 672 Z " />
<glyph glyph-name="uni041F" unicode="&#x41f;" horiz-adv-x="484" d="M324 0 L324 668 L159 668 L159 0 L58 0 L58 754 L426 754 L426 0 L324 0 Z " />
<glyph glyph-name="uni0420" unicode="&#x420;" horiz-adv-x="397" d="M191 754 Q231 754 255 749 Q279 744 301 730 Q337 707 356 660.5 Q375 614 375 548 Q375 388 275 349 Q252 341 227 337.5 Q202 334 159 334 L159 0 L58 0 L58 754 L191 754 Z M190 423 Q228 424 249 454 Q270 484 270 538 Q270 605 246.5 636.5 Q223 668 173 668 L159 668 L159 421 L168 421 L190 423 Z " />
<glyph glyph-name="uni0421" unicode="&#x421;" horiz-adv-x="381" d="M354 650 Q331 661 317 665 Q303 669 288 669 Q253 669 224 647.5 Q195 626 179 588 Q150 521 150 367 Q150 88 294 88 Q310 88 322.5 91.5 Q335 95 354 104 L354 11 Q332 -2 315 -6 Q298 -10 271 -10 Q43 -10 43 364 Q43 567 98.5 665.5 Q154 764 269 764 Q294 764 311.5 759.5 Q329 755 354 741 L354 650 Z " />
<glyph glyph-name="uni0422" unicode="&#x422;" horiz-adv-x="327" d="M329 664 L215 664 L215 0 L115 0 L115 664 L-2 664 L-2 754 L329 754 L329 664 Z " />
<glyph glyph-name="uni0423" unicode="&#x423;" horiz-adv-x="412" d="M61 0 L173 323 L12 754 L123 754 L197 531 Q212 485 224 432 Q230 473 249 532 L315 754 L420 754 L159 0 L61 0 Z " />
<glyph glyph-name="uni040E" unicode="&#x40e;" horiz-adv-x="412" d="M366 949 Q361 888 324.5 853 Q288 818 231 818 Q173 818 136.5 853 Q100 888 95 949 L160 949 Q177 888 228 888 Q283 888 301 949 L366 949 Z M61 0 L173 323 L12 754 L123 754 L197 531 Q214 477 224 432 Q230 470 249 532 L315 754 L420 754 L159 0 L61 0 Z " />
<glyph glyph-name="uni0424" unicode="&#x424;" horiz-adv-x="634" d="M269 64 Q157 73 99 152.5 Q41 232 41 377 Q41 522 99 602 Q157 682 269 690 L269 815 L365 815 L365 690 Q477 682 535 602 Q593 522 593 377 Q593 232 535 152.5 Q477 73 365 64 L365 -60 L269 -60 L269 64 Z M269 612 Q205 605 175 548 Q145 491 145 377 Q145 264 175 206.5 Q205 149 269 142 L269 612 Z M365 142 Q429 149 459 206.5 Q489 264 489 377 Q489 491 459 548 Q429 605 365 612 L365 142 Z " />
<glyph glyph-name="uni0425" unicode="&#x425;" horiz-adv-x="375" d="M158 608 Q192 510 194 481 Q201 512 227 599 L276 754 L377 754 L238 383 L377 0 L276 0 L226 144 Q209 191 200.5 221.5 Q192 252 188 281 Q184 250 180 235 Q178 229 173 212 Q168 195 157 165 L149 137 L105 0 L-2 0 L141 383 L7 754 L105 754 L158 608 Z " />
<glyph glyph-name="uni0427" unicode="&#x427;" horiz-adv-x="457" d="M294 220 Q283 219 260 219 Q185 219 137 240.5 Q89 262 63 307 Q46 338 41 371 Q36 404 36 485 L36 754 L138 754 L138 498 Q138 430 141.5 403.5 Q145 377 156 355 Q167 335 193 323 Q219 311 255 311 Q270 311 294 314 L294 754 L395 754 L395 0 L294 0 L294 220 Z " />
<glyph glyph-name="uni0426" unicode="&#x426;" horiz-adv-x="510" d="M479 -124 L384 -124 L384 0 L61 0 L61 754 L163 754 L163 86 L328 86 L328 754 L429 754 L429 86 L479 86 L479 -124 Z " />
<glyph glyph-name="uni0428" unicode="&#x428;" horiz-adv-x="707" d="M406 754 L406 86 L546 86 L546 754 L647 754 L647 0 L61 0 L61 754 L163 754 L163 86 L304 86 L304 754 L406 754 Z " />
<glyph glyph-name="uni0429" unicode="&#x429;" horiz-adv-x="729" d="M61 754 L163 754 L163 86 L304 86 L304 754 L406 754 L406 86 L546 86 L546 754 L647 754 L647 86 L697 86 L697 -124 L602 -124 L602 0 L61 0 L61 754 Z " />
<glyph glyph-name="uni040F" unicode="&#x40f;" horiz-adv-x="489" d="M61 754 L163 754 L163 86 L328 86 L328 754 L429 754 L429 0 L293 0 L293 -124 L198 -124 L198 0 L61 0 L61 754 Z " />
<glyph glyph-name="uni042C" unicode="&#x42c;" horiz-adv-x="391" d="M159 754 L159 426 L184 426 Q270 426 316.5 370 Q363 314 363 209 Q363 143 343.5 95 Q324 47 289 25 Q269 12 244 6 Q219 0 181 0 L58 0 L58 754 L159 754 Z M176 86 Q221 86 239 113.5 Q257 141 257 210 Q257 276 239.5 305 Q222 334 183 334 L159 334 L159 86 L176 86 Z " />
<glyph glyph-name="uni042A" unicode="&#x42a;" horiz-adv-x="432" d="M2 668 L2 754 L201 754 L201 426 L226 426 Q312 426 358.5 370 Q405 314 405 209 Q405 143 385.5 95 Q366 47 331 25 Q311 12 285.5 6 Q260 0 223 0 L99 0 L99 668 L2 668 Z M218 86 Q263 86 280.5 113.5 Q298 141 298 210 Q298 276 281 305 Q264 334 225 334 L201 334 L201 86 L218 86 Z " />
<glyph glyph-name="uni042B" unicode="&#x42b;" horiz-adv-x="590" d="M159 754 L159 426 L184 426 Q270 426 316.5 370 Q363 314 363 209 Q363 143 343.5 95 Q324 47 289 25 Q269 12 244 6 Q219 0 181 0 L58 0 L58 754 L159 754 Z M431 0 L431 754 L532 754 L532 0 L431 0 Z M176 86 Q221 86 239 113.5 Q257 141 257 210 Q257 276 239.5 305 Q222 334 183 334 L159 334 L159 86 L176 86 Z " />
<glyph glyph-name="uni0409" unicode="&#x409;" horiz-adv-x="644" d="M219 669 L153 169 Q143 94 127.5 59 Q112 24 80.5 11.5 Q49 -1 -14 0 L-14 85 Q14 86 25 92 Q36 98 42.5 118 Q49 138 56 190 L134 754 L418 754 L418 426 Q429 427 443 427 Q529 427 575 371 Q621 315 621 209 Q621 143 602 95 Q583 47 548 25 Q528 12 502.5 6 Q477 0 440 0 L316 0 L316 669 L219 669 Z M435 86 Q480 86 497.5 113.5 Q515 141 515 211 Q515 277 498 306.5 Q481 336 442 336 L418 336 L418 86 L435 86 Z " />
<glyph glyph-name="uni040A" unicode="&#x40a;" horiz-adv-x="635" d="M409 423 Q420 424 434 424 Q520 424 566 368 Q612 312 612 208 Q612 143 593 95 Q574 47 539 25 Q519 12 493.5 6 Q468 0 431 0 L307 0 L307 337 L159 337 L159 0 L58 0 L58 754 L159 754 L159 423 L307 423 L307 754 L409 754 L409 423 Z M426 87 Q471 87 488.5 114.5 Q506 142 506 212 Q506 278 489 307.5 Q472 337 433 337 L409 337 L409 87 L426 87 Z " />
<glyph glyph-name="uni0405" unicode="&#x405;" horiz-adv-x="373" d="M308 638 Q284 657 265.5 664.5 Q247 672 226 672 Q185 672 159.5 644 Q134 616 134 572 Q134 545 141.5 525.5 Q149 506 170.5 480 Q192 454 238 408 Q272 374 288 354 Q304 334 314 313 Q345 256 345 190 Q345 132 322.5 86.5 Q300 41 260 15.5 Q220 -10 169 -10 Q135 -10 109.5 -1.5 Q84 7 59 26 L59 127 Q88 105 110 96 Q132 87 157 87 Q197 87 221 115 Q245 143 245 190 Q245 231 227 263.5 Q209 296 159 345 Q110 394 92 414.5 Q74 435 61 460 Q35 509 35 572 Q35 660 81 712 Q127 764 206 764 Q237 764 259 758.5 Q281 753 310 738 L308 638 Z " />
<glyph glyph-name="uni0404" unicode="&#x404;" horiz-adv-x="419" d="M149 359 Q154 283 160 241 Q166 199 177 169 Q195 125 224 104.5 Q253 84 298 84 Q323 84 344 88.5 Q365 93 392 106 L392 9 Q367 -2 345.5 -6 Q324 -10 296 -10 Q229 -10 175.5 20 Q122 50 92 104 Q41 196 41 368 Q41 554 93 646 Q123 703 175 733.5 Q227 764 292 764 Q318 764 338 759 Q358 754 381 742 L381 649 Q354 662 334 667 Q314 672 294 672 Q252 672 220 645 Q188 618 172 568 Q165 548 160.5 522.5 Q156 497 150 445 L341 445 L341 359 L149 359 Z " />
<glyph glyph-name="uni042D" unicode="&#x42d;" horiz-adv-x="419" d="M78 445 L269 445 Q262 506 256.5 534 Q251 562 241 585 Q223 627 193 649.5 Q163 672 125 672 Q105 672 85.5 667 Q66 662 38 649 L38 742 Q61 754 81.5 759 Q102 764 128 764 Q193 764 244.5 733.5 Q296 703 327 646 Q379 554 379 368 Q379 196 328 104 Q297 50 243.5 20 Q190 -10 123 -10 Q95 -10 73.5 -6 Q52 -2 27 9 L27 106 Q54 93 75 88.5 Q96 84 121 84 Q171 84 201.5 109 Q232 134 249 189 Q265 244 270 359 L78 359 L78 445 Z " />
<glyph glyph-name="uni0406" unicode="&#x406;" horiz-adv-x="218" d="M159 0 L58 0 L58 754 L159 754 L159 0 Z " />
<glyph glyph-name="uni0407" unicode="&#x407;" horiz-adv-x="223" d="M34 937 Q58 937 75.5 919.5 Q93 902 93 878 Q93 853 76 835.5 Q59 818 33 818 Q9 818 -8.5 835.5 Q-26 853 -26 877 Q-26 902 -8.5 919.5 Q9 937 34 937 Z M191 937 Q215 937 232.5 919.5 Q250 902 250 878 Q250 853 233 835.5 Q216 818 190 818 Q166 818 148.5 835.5 Q131 853 131 877 Q131 902 148.5 919.5 Q166 937 191 937 Z M60 0 L60 754 L162 754 L162 0 L60 0 Z " />
<glyph glyph-name="uni0408" unicode="&#x408;" horiz-adv-x="293" d="M234 175 Q234 127 228 98 Q222 69 208 47 Q190 20 157.5 5 Q125 -10 85 -10 Q36 -10 -2 10 L-2 112 Q24 96 37 91 Q50 86 66 86 Q87 86 102.5 97 Q118 108 125 127 Q130 138 131 152 Q132 166 132 210 L132 754 L234 754 L234 175 Z " />
<glyph glyph-name="uni040B" unicode="&#x40b;" horiz-adv-x="505" d="M93 669 L1 669 L1 754 L332 754 L332 669 L194 669 L194 435 Q219 457 246.5 467 Q274 477 311 477 Q353 477 384.5 462.5 Q416 448 429 421 Q440 401 443.5 378.5 Q447 356 447 311 L447 0 L344 0 L344 294 Q344 352 330 373 Q316 394 277 394 Q233 394 213.5 368.5 Q194 343 194 284 L194 0 L93 0 L93 669 Z " />
<glyph glyph-name="uni042E" unicode="&#x42e;" horiz-adv-x="719" d="M244 423 Q249 497 257 545.5 Q265 594 280 628 Q307 693 355 729 Q403 765 461 765 Q510 765 554 737.5 Q598 710 624 664 Q677 570 677 379 Q677 181 624 88 Q599 42 555 15.5 Q511 -11 461 -11 Q397 -11 347 31 Q297 73 271 148 Q249 219 244 337 L163 337 L163 0 L61 0 L61 754 L163 754 L163 423 L244 423 Z M461 672 Q349 672 349 380 Q349 88 460 88 Q515 88 543 157.5 Q571 227 571 363 Q571 523 544.5 597.5 Q518 672 461 672 Z " />
<glyph glyph-name="uni042F" unicode="&#x42f;" horiz-adv-x="421" d="M261 0 L261 368 L123 0 L20 0 L158 366 Q137 371 124 379 Q111 387 99 402 Q54 461 54 557 Q54 615 71 658.5 Q88 702 119 725 Q139 741 163 747.5 Q187 754 229 754 L363 754 L363 0 L261 0 Z M245 670 Q219 670 203.5 664.5 Q188 659 177 646 Q166 631 159.5 603 Q153 575 153 540 Q153 504 162 477 Q171 450 188 437 Q199 428 215 424 Q231 420 261 419 L261 670 L245 670 Z " />
<glyph glyph-name="uni0402" unicode="&#x402;" horiz-adv-x="505" d="M93 669 L1 669 L1 754 L332 754 L332 669 L194 669 L194 435 Q219 457 246.5 467 Q274 477 311 477 Q353 477 384.5 462.5 Q416 448 429 421 Q440 401 443.5 378.5 Q447 356 447 311 L447 -207 L344 -207 L344 294 Q344 352 330 373 Q316 394 277 394 Q233 394 213.5 368.5 Q194 343 194 284 L194 0 L93 0 L93 669 Z " />
<glyph glyph-name="uni0492" unicode="&#x492;" horiz-adv-x="349" d="M311 344 L159 344 L159 0 L58 0 L58 344 L7 344 L7 429 L58 429 L58 754 L329 754 L329 668 L159 668 L159 429 L311 429 L311 344 Z " />
<glyph glyph-name="uni0496" unicode="&#x496;" horiz-adv-x="634" d="M667 -115 L574 -115 L574 0 L524 0 L367 389 L367 0 L266 0 L266 389 L110 0 L0 0 L177 399 L8 754 L110 754 L266 408 L266 754 L367 754 L367 408 L524 754 L625 754 L455 399 L590 95 L667 95 L667 -115 Z " />
<glyph glyph-name="uni049A" unicode="&#x49a;" horiz-adv-x="420" d="M159 754 L159 0 L58 0 L58 754 L159 754 Z M462 69 L462 -141 L367 -141 L367 0 L301 0 L159 389 L301 754 L403 754 L255 389 L386 69 L462 69 Z " />
<glyph glyph-name="uni049C" unicode="&#x49c;" horiz-adv-x="488" d="M163 754 L163 438 L193 438 L193 601 L252 601 L252 440 L368 753 L476 753 L334 397 L484 -1 L373 -1 L254 344 L252 344 L252 165 L193 165 L193 353 L163 353 L163 0 L61 0 L61 754 L163 754 Z " />
<glyph glyph-name="uni04A2" unicode="&#x4a2;" horiz-adv-x="468" d="M480 -142 L385 -142 L385 0 L307 0 L307 373 L159 373 L159 0 L58 0 L58 754 L159 754 L159 459 L307 459 L307 754 L409 754 L409 68 L480 68 L480 -142 Z " />
<glyph glyph-name="uni04AE" unicode="&#x4ae;" horiz-adv-x="385" d="M155 590 Q159 573 166 555 Q184 498 190.5 471.5 Q197 445 203 406 Q209 444 215 469 Q217 483 225 515 Q228 533 234 557 L240 583 L281 754 L388 754 L257 324 L257 0 L155 0 L155 324 L-2 754 L105 754 L155 590 Z " />
<glyph glyph-name="uni04B0" unicode="&#x4b0;" horiz-adv-x="385" d="M357 173 L257 173 L257 0 L155 0 L155 173 L55 173 L55 243 L155 243 L155 324 L-2 754 L105 754 L155 589 L165 554 Q183 498 189.5 471.5 Q196 445 203 405 L214 469 L218 489 L233 556 L240 583 L281 754 L388 754 L257 324 L257 243 L357 243 L357 173 Z " />
<glyph glyph-name="uni04B2" unicode="&#x4b2;" horiz-adv-x="375" d="M411 -141 L316 -141 L316 0 L276 0 L226 144 Q209 191 200.5 221.5 Q192 252 188 281 Q183 248 180 235 Q178 229 173 212 Q168 195 157 165 L149 137 L105 0 L-2 0 L141 383 L7 754 L105 754 L158 608 Q192 510 194 481 Q201 512 227 599 L276 754 L377 754 L238 383 L353 69 L411 69 L411 -141 Z " />
<glyph glyph-name="uni04B6" unicode="&#x4b6;" horiz-adv-x="457" d="M294 221 Q283 219 260 219 Q185 219 137 240.5 Q89 262 63 307 Q46 338 41 371 Q36 404 36 485 L36 754 L138 754 L138 498 Q138 430 141.5 403.5 Q145 377 156 355 Q167 335 193 323 Q219 311 255 311 Q270 311 294 314 L294 754 L395 754 L395 68 L466 68 L466 -142 L371 -142 L371 0 L294 0 L294 221 Z " />
<glyph glyph-name="uni04B8" unicode="&#x4b8;" horiz-adv-x="457" d="M301 221 Q289 219 262 219 L252 219 L252 76 L193 76 L193 225 Q112 243 77 294.5 Q42 346 42 450 Q42 472 43 484 L43 754 L145 754 L145 497 Q144 412 154 376.5 Q164 341 193 325 L193 484 L252 484 L252 311 L264 311 Q277 311 301 314 L301 754 L402 754 L402 0 L301 0 L301 221 Z " />
<glyph glyph-name="uni04BA" unicode="&#x4ba;" horiz-adv-x="472" d="M163 754 L163 434 Q187 457 214.5 467 Q242 477 280 477 Q319 477 348.5 464 Q378 451 394 426 Q406 408 410.5 383 Q415 358 415 311 L415 0 L311 0 L311 294 Q311 334 305.5 355.5 Q300 377 286 385.5 Q272 394 246 394 Q222 394 203.5 384.5 Q185 375 174 358 Q163 339 163 284 L163 0 L61 0 L61 754 L163 754 Z " />
<glyph glyph-name="uni04C0" unicode="&#x4c0;" horiz-adv-x="218" d="M159 0 L58 0 L58 754 L159 754 L159 0 Z " />
<glyph glyph-name="uni04D8" unicode="&#x4d8;" horiz-adv-x="478" d="M329 428 Q329 458 324 515 Q319 572 314 601 Q308 635 288.5 653.5 Q269 672 238 672 Q200 672 181 642.5 Q162 613 151 536 L50 554 Q67 665 111.5 714.5 Q156 764 237 764 Q288 764 327 743 Q366 722 386 684 Q412 634 423.5 560.5 Q435 487 435 363 Q435 226 416 145 Q397 64 355 27 Q313 -10 242 -10 Q190 -10 150.5 12 Q111 34 89 75 Q64 122 54.5 194 Q45 266 44 407 L329 406 L329 428 Z M149 290 Q149 247 155.5 202.5 Q162 158 173 131 Q181 109 199 96.5 Q217 84 240 84 Q265 84 283.5 98.5 Q302 113 310 138 Q318 165 323.5 206 Q329 247 329 285 L327 336 L151 336 L149 290 Z " />
</font>
</svg>
