<?xml version="1.0" encoding="UTF-8"?>
<svg xmlns="http://www.w3.org/2000/svg" xmlns:xlink="http://www.w3.org/1999/xlink" version="1.2" >
<font id="ShellBook">
<font-face  font-family="ShellBook" units-per-em="1000" ascent="1050" descent="-300" font-style="normal" font-weight="400" font-stretch="normal" cap-height="754" x-height="469" underline-position="-73" underline-thickness="78" />
<missing-glyph  horiz-adv-x="1130" d="" />
<glyph glyph-name="space" unicode="&#x20;" horiz-adv-x="260" d="" />
<glyph glyph-name="A" unicode="A" horiz-adv-x="686" d="M182 214 L92 0 L0 0 L347 790 L686 0 L593 0 L504 214 L182 214 Z M346 593 L217 292 L471 292 L346 593 Z " />
<glyph glyph-name="Aacute" unicode="&#xc1;" horiz-adv-x="686" d="M333 814 L285 850 L419 997 L495 946 L333 814 Z M182 214 L92 0 L0 0 L347 790 L686 0 L593 0 L504 214 L182 214 Z M346 593 L217 292 L471 292 L346 593 Z " />
<glyph glyph-name="Abreve" unicode="&#x102;" horiz-adv-x="686" d="M262 973 Q273 933 292.5 915 Q312 897 346 897 Q380 897 400.5 916 Q421 935 431 973 L503 973 Q496 904 454 865 Q412 826 346 826 Q308 826 275.5 840.5 Q243 855 221 881 Q206 900 199.5 920 Q193 940 190 973 L262 973 Z M182 214 L92 0 L0 0 L347 790 L686 0 L593 0 L504 214 L182 214 Z M346 593 L217 292 L471 292 L346 593 Z " />
<glyph glyph-name="Acircumflex" unicode="&#xc2;" horiz-adv-x="686" d="M349 996 L508 861 L449 815 L349 901 L251 815 L192 861 L349 996 Z M182 214 L92 0 L0 0 L347 790 L686 0 L593 0 L504 214 L182 214 Z M346 593 L217 292 L471 292 L346 593 Z " />
<glyph glyph-name="Adieresis" unicode="&#xc4;" horiz-adv-x="686" d="M241 959 Q264 959 281 942 Q298 925 298 902 Q298 878 281 861 Q264 844 241 844 Q217 844 200 861 Q183 878 183 903 Q183 926 200 942.5 Q217 959 241 959 Z M455 959 Q479 959 496 942 Q513 925 513 902 Q513 878 496 861 Q479 844 455 844 Q432 844 415 861 Q398 878 398 903 Q398 926 415 942.5 Q432 959 455 959 Z M182 214 L92 0 L0 0 L347 790 L686 0 L593 0 L504 214 L182 214 Z M346 593 L217 292 L471 292 L346 593 Z " />
<glyph glyph-name="Agrave" unicode="&#xc0;" horiz-adv-x="686" d="M273 997 L409 850 L360 814 L198 946 L273 997 Z M182 214 L92 0 L0 0 L347 790 L686 0 L593 0 L504 214 L182 214 Z M346 593 L217 292 L471 292 L346 593 Z " />
<glyph glyph-name="Amacron" unicode="&#x100;" horiz-adv-x="686" d="M512 931 L512 861 L181 861 L181 931 L512 931 Z M182 214 L92 0 L0 0 L347 790 L686 0 L593 0 L504 214 L182 214 Z M346 593 L217 292 L471 292 L346 593 Z " />
<glyph glyph-name="Aogonek" unicode="&#x104;" horiz-adv-x="686" d="M686 0 Q600 -54 600 -101 Q600 -119 613 -132 Q626 -145 645 -145 Q673 -145 707 -127 L698 -195 Q683 -206 669 -210 Q655 -214 633 -214 Q587 -214 555.5 -185.5 Q524 -157 524 -115 Q524 -81 544 -55 Q564 -29 611 0 L593 0 L504 214 L182 214 L92 0 L0 0 L347 790 L686 0 Z M346 593 L217 292 L471 292 L346 593 Z " />
<glyph glyph-name="Aring" unicode="&#xc5;" horiz-adv-x="686" d="M346 1012 Q389 1012 419 982.5 Q449 953 449 911 Q449 869 419 838.5 Q389 808 347 808 Q304 808 274 838 Q244 868 244 912 Q244 953 274 982.5 Q304 1012 346 1012 Z M347 957 Q327 957 313 943.5 Q299 930 299 911 Q299 891 313 877 Q327 863 347 863 Q366 863 379.5 877 Q393 891 393 911 Q393 931 380 944 Q367 957 347 957 Z M182 214 L92 0 L0 0 L347 790 L686 0 L593 0 L504 214 L182 214 Z M346 593 L217 292 L471 292 L346 593 Z " />
<glyph glyph-name="Aringacute" unicode="&#x1fa;" horiz-adv-x="686" d="M234 971 L185 1007 L321 1154 L397 1103 L234 971 Z M346 1012 Q389 1012 419 982.5 Q449 953 449 911 Q449 869 419 838.5 Q389 808 347 808 Q304 808 274 838 Q244 868 244 912 Q244 953 274 982.5 Q304 1012 346 1012 Z M347 957 Q327 957 313 943.5 Q299 930 299 911 Q299 891 313 877 Q327 863 347 863 Q366 863 379.5 877 Q393 891 393 911 Q393 931 380 944 Q367 957 347 957 Z M182 214 L92 0 L0 0 L347 790 L686 0 L593 0 L504 214 L182 214 Z M346 593 L217 292 L471 292 L346 593 Z " />
<glyph glyph-name="Atilde" unicode="&#xc3;" horiz-adv-x="686" d="M183 881 Q203 920 228.5 941 Q254 962 284 962 Q299 962 313.5 957 Q328 952 356 938 Q399 915 417 915 Q432 915 444 926 Q456 937 469 964 L518 927 Q497 885 472 865 Q447 845 414 845 Q399 845 382.5 850.5 Q366 856 341 869 Q314 883 301 887.5 Q288 892 278 892 Q264 892 255 882.5 Q246 873 232 843 L183 881 Z M182 214 L92 0 L0 0 L347 790 L686 0 L593 0 L504 214 L182 214 Z M346 593 L217 292 L471 292 L346 593 Z " />
<glyph glyph-name="AE" unicode="&#xc6;" horiz-adv-x="985" d="M182 211 L93 0 L0 0 L336 754 L667 754 L699 676 L395 676 L489 450 L786 450 L820 372 L523 372 L645 78 L951 78 L985 0 L591 0 L503 211 L182 211 Z M345 586 L218 289 L470 289 L345 586 Z " />
<glyph glyph-name="AEacute" unicode="&#x1fc;" horiz-adv-x="985" d="M436 814 L388 850 L522 997 L598 946 L436 814 Z M182 211 L93 0 L0 0 L336 754 L667 754 L699 676 L395 676 L489 450 L786 450 L820 372 L523 372 L645 78 L951 78 L985 0 L591 0 L503 211 L182 211 Z M345 586 L218 289 L470 289 L345 586 Z " />
<glyph glyph-name="B" unicode="B" horiz-adv-x="583" d="M90 754 L227 754 Q287 754 327 743 Q367 732 398 707 Q430 680 449 638 Q468 596 468 550 Q468 502 451 469 Q434 436 393 403 Q421 395 438.5 386 Q456 377 471 363 Q501 337 518.5 296 Q536 255 536 211 Q536 164 516 123 Q496 82 459 52 Q424 23 383.5 11.5 Q343 0 279 0 L90 0 L90 754 Z M238 421 Q281 421 303.5 427.5 Q326 434 346 451 Q385 487 385 548 Q385 579 375 605 Q365 631 346 647 Q328 663 303.5 669.5 Q279 676 241 676 L175 676 L175 421 L238 421 Z M271 78 Q322 78 350.5 85.5 Q379 93 402 112 Q426 131 438.5 157 Q451 183 451 214 Q451 249 434 279.5 Q417 310 389 327 Q366 340 337.5 345 Q309 350 260 350 L175 350 L175 78 L271 78 Z " />
<glyph glyph-name="C" unicode="C" horiz-adv-x="713" d="M664 588 Q609 640 554.5 663.5 Q500 687 436 687 Q354 687 284.5 644.5 Q215 602 173.5 530 Q132 458 132 373 Q132 290 173.5 219.5 Q215 149 285 107.5 Q355 66 437 66 Q500 66 555 89.5 Q610 113 664 164 L664 60 Q609 22 554 4 Q499 -14 437 -14 Q332 -14 242.5 38.5 Q153 91 100 180.5 Q47 270 47 374 Q47 480 100.5 570 Q154 660 244.5 713 Q335 766 442 766 Q504 766 555.5 749 Q607 732 664 692 L664 588 Z " />
<glyph glyph-name="Cacute" unicode="&#x106;" horiz-adv-x="713" d="M421 814 L373 850 L508 997 L584 946 L421 814 Z M664 588 Q609 640 554.5 663.5 Q500 687 436 687 Q354 687 284.5 644.5 Q215 602 173.5 530 Q132 458 132 373 Q132 290 173.5 219.5 Q215 149 285 107.5 Q355 66 437 66 Q500 66 555 89.5 Q610 113 664 164 L664 60 Q609 22 554 4 Q499 -14 437 -14 Q332 -14 242.5 38.5 Q153 91 100 180.5 Q47 270 47 374 Q47 480 100.5 570 Q154 660 244.5 713 Q335 766 442 766 Q504 766 555.5 749 Q607 732 664 692 L664 588 Z " />
<glyph glyph-name="Ccaron" unicode="&#x10c;" horiz-adv-x="713" d="M437 815 L279 949 L339 996 L437 911 L537 996 L596 949 L437 815 Z M664 588 Q609 640 554.5 663.5 Q500 687 436 687 Q354 687 284.5 644.5 Q215 602 173.5 530 Q132 458 132 373 Q132 290 173.5 219.5 Q215 149 285 107.5 Q355 66 437 66 Q500 66 555 89.5 Q610 113 664 164 L664 60 Q609 22 554 4 Q499 -14 437 -14 Q332 -14 242.5 38.5 Q153 91 100 180.5 Q47 270 47 374 Q47 480 100.5 570 Q154 660 244.5 713 Q335 766 442 766 Q504 766 555.5 749 Q607 732 664 692 L664 588 Z " />
<glyph glyph-name="Ccedilla" unicode="&#xc7;" horiz-adv-x="713" d="M664 588 Q609 640 554.5 663.5 Q500 687 436 687 Q354 687 284.5 644.5 Q215 602 173.5 530 Q132 458 132 373 Q132 290 173.5 219.5 Q215 149 285 107.5 Q355 66 437 66 Q500 66 554.5 89.5 Q609 113 664 164 L664 60 Q608 22 553.5 4 Q499 -14 437 -14 Q332 -14 242.5 38.5 Q153 91 100 180.5 Q47 270 47 374 Q47 480 100.5 570 Q154 660 244.5 713 Q335 766 442 766 Q504 766 555.5 749 Q607 732 664 692 L664 588 Z M356 -236 L298 -207 L400 -53 L480 -89 L356 -236 Z " />
<glyph glyph-name="Ccircumflex" unicode="&#x108;" horiz-adv-x="713" d="M436 996 L596 861 L536 815 L436 901 L337 815 L279 861 L436 996 Z M664 588 Q609 640 554.5 663.5 Q500 687 436 687 Q354 687 284.5 644.5 Q215 602 173.5 530 Q132 458 132 373 Q132 290 173.5 219.5 Q215 149 285 107.5 Q355 66 437 66 Q500 66 555 89.5 Q610 113 664 164 L664 60 Q609 22 554 4 Q499 -14 437 -14 Q332 -14 242.5 38.5 Q153 91 100 180.5 Q47 270 47 374 Q47 480 100.5 570 Q154 660 244.5 713 Q335 766 442 766 Q504 766 555.5 749 Q607 732 664 692 L664 588 Z " />
<glyph glyph-name="Cdotaccent" unicode="&#x10a;" horiz-adv-x="713" d="M436 960 Q461 960 479 942.5 Q497 925 497 901 Q497 876 479.5 858 Q462 840 437 840 Q412 840 394 858 Q376 876 376 901 Q376 925 393.5 942.5 Q411 960 436 960 Z M664 588 Q609 640 554.5 663.5 Q500 687 436 687 Q354 687 284.5 644.5 Q215 602 173.5 530 Q132 458 132 373 Q132 290 173.5 219.5 Q215 149 285 107.5 Q355 66 437 66 Q500 66 555 89.5 Q610 113 664 164 L664 60 Q609 22 554 4 Q499 -14 437 -14 Q332 -14 242.5 38.5 Q153 91 100 180.5 Q47 270 47 374 Q47 480 100.5 570 Q154 660 244.5 713 Q335 766 442 766 Q504 766 555.5 749 Q607 732 664 692 L664 588 Z " />
<glyph glyph-name="D" unicode="D" horiz-adv-x="699" d="M90 754 L245 754 Q337 754 402.5 733.5 Q468 713 522 667 Q586 615 619 540.5 Q652 466 652 377 Q652 288 618.5 214 Q585 140 520 87 Q464 40 399.5 20 Q335 0 244 0 L90 0 L90 754 Z M249 78 Q318 78 370 94.5 Q422 111 464 147 Q514 188 540.5 247.5 Q567 307 567 376 Q567 446 540.5 506 Q514 566 466 607 Q423 642 370.5 659 Q318 676 249 676 L175 676 L175 78 L249 78 Z " />
<glyph glyph-name="Eth" unicode="&#xd0;" horiz-adv-x="699" d="M92 368 L16 368 L16 444 L92 444 L92 754 L245 754 Q336 754 401.5 733.5 Q467 713 521 667 Q585 615 618 540 Q651 465 651 376 Q651 288 617.5 214 Q584 140 519 87 Q463 40 399 20 Q335 0 244 0 L92 0 L92 368 Z M249 78 Q318 78 369.5 94.5 Q421 111 463 147 Q513 188 539.5 247.5 Q566 307 566 376 Q566 446 539.5 506.5 Q513 567 464 607 Q422 642 369.5 659 Q317 676 249 676 L176 676 L176 444 L356 444 L356 368 L176 368 L176 78 L249 78 Z " />
<glyph glyph-name="Dcaron" unicode="&#x10e;" horiz-adv-x="699" d="M313 815 L155 949 L215 996 L313 911 L412 996 L471 949 L313 815 Z M90 754 L245 754 Q337 754 402.5 733.5 Q468 713 522 667 Q586 615 619 540.5 Q652 466 652 377 Q652 288 618.5 214 Q585 140 520 87 Q464 40 399.5 20 Q335 0 244 0 L90 0 L90 754 Z M249 78 Q318 78 370 94.5 Q422 111 464 147 Q514 188 540.5 247.5 Q567 307 567 376 Q567 446 540.5 506 Q514 566 466 607 Q423 642 370.5 659 Q318 676 249 676 L175 676 L175 78 L249 78 Z " />
<glyph glyph-name="Dcroat" unicode="&#x110;" horiz-adv-x="699" d="M92 368 L16 368 L16 444 L92 444 L92 754 L245 754 Q336 754 401.5 733.5 Q467 713 521 667 Q585 615 618 540 Q651 465 651 376 Q651 288 617.5 214 Q584 140 519 87 Q463 40 399 20 Q335 0 244 0 L92 0 L92 368 Z M249 78 Q318 78 369.5 94.5 Q421 111 463 147 Q513 188 539.5 247.5 Q566 307 566 376 Q566 446 539.5 506.5 Q513 567 464 607 Q422 642 369.5 659 Q317 676 249 676 L176 676 L176 444 L356 444 L356 368 L176 368 L176 78 L249 78 Z " />
<glyph glyph-name="E" unicode="E" horiz-adv-x="530" d="M175 676 L175 451 L472 451 L472 373 L175 373 L175 78 L480 78 L480 0 L90 0 L90 754 L480 754 L480 676 L175 676 Z " />
<glyph glyph-name="Eacute" unicode="&#xc9;" horiz-adv-x="530" d="M267 814 L218 850 L353 997 L428 946 L267 814 Z M175 676 L175 451 L472 451 L472 373 L175 373 L175 78 L480 78 L480 0 L90 0 L90 754 L480 754 L480 676 L175 676 Z " />
<glyph glyph-name="Ebreve" unicode="&#x114;" horiz-adv-x="530" d="M201 973 Q212 933 231.5 915 Q251 897 285 897 Q352 897 370 973 L442 973 Q435 904 393 865 Q351 826 285 826 Q247 826 215 840.5 Q183 855 160 881 Q145 900 138.5 920 Q132 940 129 973 L201 973 Z M175 676 L175 451 L472 451 L472 373 L175 373 L175 78 L480 78 L480 0 L90 0 L90 754 L480 754 L480 676 L175 676 Z " />
<glyph glyph-name="Ecaron" unicode="&#x11a;" horiz-adv-x="530" d="M286 815 L128 949 L188 996 L286 911 L385 996 L444 949 L286 815 Z M175 676 L175 451 L472 451 L472 373 L175 373 L175 78 L480 78 L480 0 L90 0 L90 754 L480 754 L480 676 L175 676 Z " />
<glyph glyph-name="Ecircumflex" unicode="&#xca;" horiz-adv-x="530" d="M285 996 L444 861 L384 815 L285 901 L185 815 L128 861 L285 996 Z M175 676 L175 451 L472 451 L472 373 L175 373 L175 78 L480 78 L480 0 L90 0 L90 754 L480 754 L480 676 L175 676 Z " />
<glyph glyph-name="Edieresis" unicode="&#xcb;" horiz-adv-x="530" d="M179 959 Q202 959 219 942 Q236 925 236 902 Q236 878 219 861 Q202 844 179 844 Q155 844 138 861 Q121 878 121 903 Q121 926 138 942.5 Q155 959 179 959 Z M393 959 Q417 959 434 942 Q451 925 451 902 Q451 878 434 861 Q417 844 393 844 Q370 844 353 861 Q336 878 336 903 Q336 926 353 942.5 Q370 959 393 959 Z M175 676 L175 451 L472 451 L472 373 L175 373 L175 78 L480 78 L480 0 L90 0 L90 754 L480 754 L480 676 L175 676 Z " />
<glyph glyph-name="Edotaccent" unicode="&#x116;" horiz-adv-x="530" d="M285 960 Q310 960 328 942.5 Q346 925 346 901 Q346 876 328.5 858 Q311 840 286 840 Q261 840 243 858 Q225 876 225 901 Q225 925 242.5 942.5 Q260 960 285 960 Z M175 676 L175 451 L472 451 L472 373 L175 373 L175 78 L480 78 L480 0 L90 0 L90 754 L480 754 L480 676 L175 676 Z " />
<glyph glyph-name="Egrave" unicode="&#xc8;" horiz-adv-x="530" d="M215 997 L349 850 L301 814 L139 946 L215 997 Z M175 676 L175 451 L472 451 L472 373 L175 373 L175 78 L480 78 L480 0 L90 0 L90 754 L480 754 L480 676 L175 676 Z " />
<glyph glyph-name="Emacron" unicode="&#x112;" horiz-adv-x="530" d="M451 931 L451 861 L120 861 L120 931 L451 931 Z M175 676 L175 451 L472 451 L472 373 L175 373 L175 78 L480 78 L480 0 L90 0 L90 754 L480 754 L480 676 L175 676 Z " />
<glyph glyph-name="Eogonek" unicode="&#x118;" horiz-adv-x="530" d="M480 0 Q395 -55 395 -101 Q395 -119 408.5 -132 Q422 -145 441 -145 Q466 -145 502 -127 L494 -195 Q477 -206 463 -210 Q449 -214 428 -214 Q382 -214 351 -185.5 Q320 -157 320 -115 Q320 -81 340 -55 Q360 -29 407 0 L90 0 L90 754 L480 754 L480 676 L175 676 L175 451 L472 451 L472 373 L175 373 L175 78 L480 78 L480 0 Z " />
<glyph glyph-name="F" unicode="F" horiz-adv-x="475" d="M175 676 L175 451 L425 451 L425 373 L175 373 L175 0 L90 0 L90 754 L433 754 L433 676 L175 676 Z " />
<glyph glyph-name="G" unicode="G" horiz-adv-x="838" d="M791 379 L791 359 Q791 296 781.5 251 Q772 206 751 168 Q705 85 619 35.5 Q533 -14 434 -14 Q330 -14 241 39 Q152 92 99.5 181.5 Q47 271 47 375 Q47 481 100 571 Q153 661 243.5 713.5 Q334 766 441 766 Q504 766 563.5 746 Q623 726 671 689 Q693 674 711.5 655 Q730 636 758 602 L696 546 Q640 620 579.5 653.5 Q519 687 442 687 Q357 687 286 645 Q215 603 173.5 531 Q132 459 132 374 Q132 292 173.5 221 Q215 150 284.5 108 Q354 66 435 66 Q505 66 570 101.5 Q635 137 670 194 Q684 217 691 241 Q698 265 701 301 L477 301 L477 379 L791 379 Z " />
<glyph glyph-name="Gbreve" unicode="&#x11e;" horiz-adv-x="838" d="M362 973 Q371 933 391 915 Q411 897 445 897 Q512 897 530 973 L602 973 Q594 903 552.5 864.5 Q511 826 445 826 Q407 826 374.5 840.5 Q342 855 321 881 Q306 901 299 920.5 Q292 940 289 973 L362 973 Z M791 379 L791 359 Q791 296 781.5 251 Q772 206 751 168 Q705 85 619 35.5 Q533 -14 434 -14 Q330 -14 241 39 Q152 92 99.5 181.5 Q47 271 47 375 Q47 481 100 571 Q153 661 243.5 713.5 Q334 766 441 766 Q504 766 563.5 746 Q623 726 671 689 Q693 674 711.5 655 Q730 636 758 602 L696 546 Q640 620 579.5 653.5 Q519 687 442 687 Q357 687 286 645 Q215 603 173.5 531 Q132 459 132 374 Q132 292 173.5 221 Q215 150 284.5 108 Q354 66 435 66 Q505 66 570 101.5 Q635 137 670 194 Q684 217 691 241 Q698 265 701 301 L477 301 L477 379 L791 379 Z " />
<glyph glyph-name="Gcaron" unicode="&#x1e6;" horiz-adv-x="838" d="M446 815 L287 949 L347 996 L446 911 L546 996 L603 949 L446 815 Z M791 379 L791 359 Q791 296 781.5 251 Q772 206 751 168 Q705 85 619 35.5 Q533 -14 434 -14 Q330 -14 241 39 Q152 92 99.5 181.5 Q47 271 47 375 Q47 481 100 571 Q153 661 243.5 713.5 Q334 766 441 766 Q504 766 563.5 746 Q623 726 671 689 Q693 674 711.5 655 Q730 636 758 602 L696 546 Q640 620 579.5 653.5 Q519 687 442 687 Q357 687 286 645 Q215 603 173.5 531 Q132 459 132 374 Q132 292 173.5 221 Q215 150 284.5 108 Q354 66 435 66 Q505 66 570 101.5 Q635 137 670 194 Q684 217 691 241 Q698 265 701 301 L477 301 L477 379 L791 379 Z " />
<glyph glyph-name="Gcircumflex" unicode="&#x11c;" horiz-adv-x="838" d="M445 996 L603 861 L544 815 L445 901 L346 815 L287 861 L445 996 Z M791 379 L791 359 Q791 296 781.5 251 Q772 206 751 168 Q705 85 619 35.5 Q533 -14 434 -14 Q330 -14 241 39 Q152 92 99.5 181.5 Q47 271 47 375 Q47 481 100 571 Q153 661 243.5 713.5 Q334 766 441 766 Q504 766 563.5 746 Q623 726 671 689 Q693 674 711.5 655 Q730 636 758 602 L696 546 Q640 620 579.5 653.5 Q519 687 442 687 Q357 687 286 645 Q215 603 173.5 531 Q132 459 132 374 Q132 292 173.5 221 Q215 150 284.5 108 Q354 66 435 66 Q505 66 570 101.5 Q635 137 670 194 Q684 217 691 241 Q698 265 701 301 L477 301 L477 379 L791 379 Z " />
<glyph glyph-name="uni0122" unicode="&#x122;" horiz-adv-x="838" d="M791 379 L791 359 Q791 296 781.5 251 Q772 206 751 168 Q705 85 619 35.5 Q533 -14 434 -14 Q330 -14 241 39 Q152 92 99.5 181.5 Q47 271 47 375 Q47 481 100 571 Q153 661 243.5 713.5 Q334 766 441 766 Q504 766 563.5 746 Q623 726 671 689 Q693 674 711.5 655 Q730 636 758 602 L696 546 Q640 620 579.5 653.5 Q519 687 442 687 Q357 687 286 645 Q215 603 173.5 531 Q132 459 132 374 Q132 292 173.5 221 Q215 150 284.5 108 Q354 66 435 66 Q505 66 570 101.5 Q635 137 670 194 Q684 217 691 241 Q698 265 701 301 L477 301 L477 379 L791 379 Z M487 -87 L398 -259 L340 -241 L401 -60 L487 -87 Z " />
<glyph glyph-name="Gdotaccent" unicode="&#x120;" horiz-adv-x="838" d="M445 960 Q470 960 488 942.5 Q506 925 506 901 Q506 876 488.5 858 Q471 840 446 840 Q421 840 403 858 Q385 876 385 901 Q385 925 402.5 942.5 Q420 960 445 960 Z M791 379 L791 359 Q791 296 781.5 251 Q772 206 751 168 Q705 85 619 35.5 Q533 -14 434 -14 Q330 -14 241 39 Q152 92 99.5 181.5 Q47 271 47 375 Q47 481 100 571 Q153 661 243.5 713.5 Q334 766 441 766 Q504 766 563.5 746 Q623 726 671 689 Q693 674 711.5 655 Q730 636 758 602 L696 546 Q640 620 579.5 653.5 Q519 687 442 687 Q357 687 286 645 Q215 603 173.5 531 Q132 459 132 374 Q132 292 173.5 221 Q215 150 284.5 108 Q354 66 435 66 Q505 66 570 101.5 Q635 137 670 194 Q684 217 691 241 Q698 265 701 301 L477 301 L477 379 L791 379 Z " />
<glyph glyph-name="H" unicode="H" horiz-adv-x="734" d="M559 446 L559 754 L644 754 L644 0 L559 0 L559 368 L175 368 L175 0 L90 0 L90 754 L175 754 L175 446 L559 446 Z " />
<glyph glyph-name="Hbar" unicode="&#x126;" horiz-adv-x="734" d="M644 754 L644 640 L719 640 L719 564 L644 564 L644 0 L559 0 L559 368 L175 368 L175 0 L90 0 L90 564 L15 564 L15 640 L90 640 L90 754 L175 754 L175 640 L559 640 L559 754 L644 754 Z M175 564 L175 446 L559 446 L559 564 L175 564 Z " />
<glyph glyph-name="Hcircumflex" unicode="&#x124;" horiz-adv-x="734" d="M366 996 L525 861 L466 815 L366 901 L268 815 L209 861 L366 996 Z M559 446 L559 754 L644 754 L644 0 L559 0 L559 368 L175 368 L175 0 L90 0 L90 754 L175 754 L175 446 L559 446 Z " />
<glyph glyph-name="I" unicode="I" horiz-adv-x="266" d="M175 0 L90 0 L90 754 L175 754 L175 0 Z " />
<glyph glyph-name="IJ" unicode="&#x132;" horiz-adv-x="605" d="M175 0 L90 0 L90 754 L175 754 L175 0 Z M514 145 Q514 75 502.5 35.5 Q491 -4 461 -33 Q439 -54 409.5 -66 Q380 -78 348 -78 Q313 -78 281 -65 Q249 -52 212 -23 L259 43 Q287 18 305 9.5 Q323 1 346 1 Q390 1 409.5 35.5 Q429 70 429 145 L429 754 L514 754 L514 145 Z " />
<glyph glyph-name="Iacute" unicode="&#xcd;" horiz-adv-x="266" d="M127 814 L78 846 L186 997 L262 946 L127 814 Z M175 0 L90 0 L90 754 L175 754 L175 0 Z " />
<glyph glyph-name="Ibreve" unicode="&#x12c;" horiz-adv-x="266" d="M49 973 Q58 933 78 915 Q98 897 132 897 Q199 897 217 973 L289 973 Q281 903 239.5 864.5 Q198 826 132 826 Q94 826 61.5 840.5 Q29 855 8 881 Q-7 901 -14 920.5 Q-21 940 -24 973 L49 973 Z M175 0 L90 0 L90 754 L175 754 L175 0 Z " />
<glyph glyph-name="Icircumflex" unicode="&#xce;" horiz-adv-x="266" d="M132 996 L271 861 L216 815 L132 901 L47 815 L-7 861 L132 996 Z M175 0 L90 0 L90 754 L175 754 L175 0 Z " />
<glyph glyph-name="Idieresis" unicode="&#xcf;" horiz-adv-x="266" d="M56 959 Q80 959 97 942 Q114 925 114 902 Q114 878 97 861 Q80 844 56 844 Q33 844 16 861 Q-1 878 -1 903 Q-1 926 16 942.5 Q33 959 56 959 Z M209 959 Q233 959 250 942 Q267 925 267 902 Q267 878 250 861 Q233 844 209 844 Q185 844 168 861 Q151 878 151 903 Q151 926 168 942.5 Q185 959 209 959 Z M175 0 L90 0 L90 754 L175 754 L175 0 Z " />
<glyph glyph-name="Idot" unicode="&#x130;" horiz-adv-x="266" d="M132 960 Q157 960 175 942.5 Q193 925 193 901 Q193 876 175.5 858 Q158 840 133 840 Q108 840 90 858 Q72 876 72 901 Q72 925 89.5 942.5 Q107 960 132 960 Z M175 0 L90 0 L90 754 L175 754 L175 0 Z " />
<glyph glyph-name="Igrave" unicode="&#xcc;" horiz-adv-x="266" d="M78 997 L186 846 L138 814 L2 946 L78 997 Z M175 0 L90 0 L90 754 L175 754 L175 0 Z " />
<glyph glyph-name="Imacron" unicode="&#x12a;" horiz-adv-x="266" d="M253 931 L253 861 L12 861 L12 931 L253 931 Z M175 0 L90 0 L90 754 L175 754 L175 0 Z " />
<glyph glyph-name="Iogonek" unicode="&#x12e;" horiz-adv-x="266" d="M176 0 Q153 -26 138 -54.5 Q123 -83 123 -102 Q123 -119 135 -129.5 Q147 -140 166 -140 Q178 -140 187.5 -137 Q197 -134 211 -125 L205 -193 Q188 -202 175.5 -205.5 Q163 -209 148 -209 Q107 -209 79 -181.5 Q51 -154 51 -113 Q51 -82 67 -57.5 Q83 -33 125 0 L92 0 L92 754 L176 754 L176 0 Z " />
<glyph glyph-name="Itilde" unicode="&#x128;" horiz-adv-x="266" d="M-34 881 Q-14 920 11.5 941 Q37 962 67 962 Q82 962 96.5 957 Q111 952 139 938 Q182 915 200 915 Q215 915 227 926 Q239 937 252 964 L301 927 Q263 845 198 845 Q182 845 165.5 850.5 Q149 856 124 869 Q97 883 84 887.5 Q71 892 61 892 Q47 892 38 882.5 Q29 873 15 843 L-34 881 Z M175 0 L90 0 L90 754 L175 754 L175 0 Z " />
<glyph glyph-name="J" unicode="J" horiz-adv-x="332" d="M242 145 Q242 75 230 35.5 Q218 -4 189 -33 Q166 -54 137 -66 Q108 -78 76 -78 Q40 -78 7.5 -65 Q-25 -52 -60 -23 L-14 43 Q14 18 32 9.5 Q50 1 73 1 Q117 1 137 35.5 Q157 70 157 145 L157 754 L242 754 L242 145 Z " />
<glyph glyph-name="Jcircumflex" unicode="&#x134;" horiz-adv-x="332" d="M194 996 L354 861 L294 815 L194 901 L96 815 L37 861 L194 996 Z M242 145 Q242 75 230 35.5 Q218 -4 189 -33 Q166 -54 137 -66 Q108 -78 76 -78 Q40 -78 7.5 -65 Q-25 -52 -60 -23 L-14 43 Q14 18 32 9.5 Q50 1 73 1 Q117 1 137 35.5 Q157 70 157 145 L157 754 L242 754 L242 145 Z " />
<glyph glyph-name="K" unicode="K" horiz-adv-x="627" d="M496 754 L609 754 L255 402 L620 0 L505 0 L197 346 L175 324 L175 0 L90 0 L90 754 L175 754 L175 431 L496 754 Z " />
<glyph glyph-name="uni0136" unicode="&#x136;" horiz-adv-x="627" d="M496 754 L609 754 L255 402 L620 0 L505 0 L197 346 L175 324 L175 0 L90 0 L90 754 L175 754 L175 431 L496 754 Z M382 -87 L293 -259 L235 -241 L296 -60 L382 -87 Z " />
<glyph glyph-name="L" unicode="L" horiz-adv-x="390" d="M175 78 L382 78 L382 0 L90 0 L90 754 L175 754 L175 78 Z " />
<glyph glyph-name="Lacute" unicode="&#x139;" horiz-adv-x="390" d="M129 814 L80 850 L215 997 L290 946 L129 814 Z M175 78 L382 78 L382 0 L90 0 L90 754 L175 754 L175 78 Z " />
<glyph glyph-name="Lcaron" unicode="&#x13d;" horiz-adv-x="390" d="M381 730 L293 558 L235 577 L295 757 L381 730 Z M175 78 L382 78 L382 0 L90 0 L90 754 L175 754 L175 78 Z " />
<glyph glyph-name="uni013B" unicode="&#x13b;" horiz-adv-x="390" d="M175 78 L382 78 L382 0 L90 0 L90 754 L175 754 L175 78 Z M290 -87 L201 -259 L144 -241 L205 -60 L290 -87 Z " />
<glyph glyph-name="Ldot" unicode="&#x13f;" horiz-adv-x="390" d="M175 78 L382 78 L382 0 L90 0 L90 754 L175 754 L175 78 Z M330 457 Q360 457 381 436 Q402 415 402 384 Q402 355 381 333.5 Q360 312 330 312 Q300 312 279 333.5 Q258 355 258 385 Q258 414 279 435.5 Q300 457 330 457 Z " />
<glyph glyph-name="Lslash" unicode="&#x141;" horiz-adv-x="390" d="M303 536 L303 450 L175 359 L175 78 L382 78 L382 0 L90 0 L90 322 L15 270 L15 355 L90 408 L90 754 L175 754 L175 445 L303 536 Z " />
<glyph glyph-name="M" unicode="M" horiz-adv-x="936" d="M180 796 L469 159 L765 797 L881 0 L796 0 L725 524 L469 -32 L216 524 L141 0 L55 0 L180 796 Z " />
<glyph glyph-name="N" unicode="N" horiz-adv-x="852" d="M90 785 L677 169 L677 754 L762 754 L762 -34 L175 581 L175 0 L90 0 L90 785 Z " />
<glyph glyph-name="Nacute" unicode="&#x143;" horiz-adv-x="852" d="M409 814 L360 850 L495 997 L571 946 L409 814 Z M90 785 L677 169 L677 754 L762 754 L762 -34 L175 581 L175 0 L90 0 L90 785 Z " />
<glyph glyph-name="Ncaron" unicode="&#x147;" horiz-adv-x="852" d="M427 815 L268 949 L328 996 L427 911 L525 996 L584 949 L427 815 Z M90 785 L677 169 L677 754 L762 754 L762 -34 L175 581 L175 0 L90 0 L90 785 Z " />
<glyph glyph-name="uni0145" unicode="&#x145;" horiz-adv-x="852" d="M90 785 L677 169 L677 754 L762 754 L762 -34 L175 581 L175 0 L90 0 L90 785 Z M471 -87 L382 -259 L324 -241 L385 -60 L471 -87 Z " />
<glyph glyph-name="Eng" unicode="&#x14a;" horiz-adv-x="734" d="M175 754 L175 657 Q224 717 272.5 741.5 Q321 766 390 766 Q457 766 514.5 738.5 Q572 711 602 663 Q624 628 634 581 Q644 534 644 462 L644 192 Q644 123 633.5 77.5 Q623 32 601 2 Q572 -37 526.5 -57.5 Q481 -78 425 -78 Q400 -78 380.5 -75 Q361 -72 331 -62 L331 19 Q362 9 380.5 5 Q399 1 421 1 Q457 1 486.5 10.5 Q516 20 531 37 Q547 55 553 84.5 Q559 114 559 175 L559 478 Q559 538 553 570 Q547 602 531 625 Q511 654 470.5 670.5 Q430 687 381 687 Q321 687 276.5 664 Q232 641 209 598 Q191 564 183 520 Q175 476 175 409 L175 0 L90 0 L90 754 L175 754 Z " />
<glyph glyph-name="Ntilde" unicode="&#xd1;" horiz-adv-x="852" d="M267 881 Q287 920 312.5 941 Q338 962 366 962 Q381 962 396 957 Q411 952 438 938 Q484 915 501 915 Q516 915 527.5 926 Q539 937 553 964 L601 927 Q581 885 555.5 865 Q530 845 497 845 Q469 845 424 869 Q398 882 384.5 887 Q371 892 360 892 Q346 892 337 882.5 Q328 873 314 843 L267 881 Z M90 785 L677 169 L677 754 L762 754 L762 -34 L175 581 L175 0 L90 0 L90 785 Z " />
<glyph glyph-name="O" unicode="O" horiz-adv-x="879" d="M441 766 Q546 766 636 713 Q726 660 779 570.5 Q832 481 832 376 Q832 270 778.5 180.5 Q725 91 634 38.5 Q543 -14 436 -14 Q356 -14 278 21.5 Q200 57 145 119 Q47 228 47 381 Q47 483 101 572 Q155 661 245.5 713.5 Q336 766 441 766 Z M440 687 Q357 687 286 645.5 Q215 604 173.5 533.5 Q132 463 132 381 Q132 242 228 151 Q271 111 326 88.5 Q381 66 437 66 Q522 66 593 107.5 Q664 149 705.5 220 Q747 291 747 376 Q747 461 706 532 Q665 603 594.5 645 Q524 687 440 687 Z " />
<glyph glyph-name="Oacute" unicode="&#xd3;" horiz-adv-x="879" d="M429 814 L381 850 L516 997 L592 946 L429 814 Z M441 766 Q546 766 636 713 Q726 660 779 570.5 Q832 481 832 376 Q832 270 778.5 180.5 Q725 91 634 38.5 Q543 -14 436 -14 Q356 -14 278 21.5 Q200 57 145 119 Q47 228 47 381 Q47 483 101 572 Q155 661 245.5 713.5 Q336 766 441 766 Z M440 687 Q357 687 286 645.5 Q215 604 173.5 533.5 Q132 463 132 381 Q132 242 228 151 Q271 111 326 88.5 Q381 66 437 66 Q522 66 593 107.5 Q664 149 705.5 220 Q747 291 747 376 Q747 461 706 532 Q665 603 594.5 645 Q524 687 440 687 Z " />
<glyph glyph-name="Obreve" unicode="&#x14e;" horiz-adv-x="879" d="M355 973 Q365 933 384.5 915 Q404 897 438 897 Q506 897 524 973 L597 973 Q588 903 546.5 864.5 Q505 826 440 826 Q401 826 369 840.5 Q337 855 315 881 Q300 901 293 920.5 Q286 940 284 973 L355 973 Z M441 766 Q546 766 636 713 Q726 660 779 570.5 Q832 481 832 376 Q832 270 778.5 180.5 Q725 91 634 38.5 Q543 -14 436 -14 Q356 -14 278 21.5 Q200 57 145 119 Q47 228 47 381 Q47 483 101 572 Q155 661 245.5 713.5 Q336 766 441 766 Z M440 687 Q357 687 286 645.5 Q215 604 173.5 533.5 Q132 463 132 381 Q132 242 228 151 Q271 111 326 88.5 Q381 66 437 66 Q522 66 593 107.5 Q664 149 705.5 220 Q747 291 747 376 Q747 461 706 532 Q665 603 594.5 645 Q524 687 440 687 Z " />
<glyph glyph-name="Ocircumflex" unicode="&#xd4;" horiz-adv-x="879" d="M438 996 L598 861 L538 815 L438 901 L340 815 L281 861 L438 996 Z M441 766 Q546 766 636 713 Q726 660 779 570.5 Q832 481 832 376 Q832 270 778.5 180.5 Q725 91 634 38.5 Q543 -14 436 -14 Q356 -14 278 21.5 Q200 57 145 119 Q47 228 47 381 Q47 483 101 572 Q155 661 245.5 713.5 Q336 766 441 766 Z M440 687 Q357 687 286 645.5 Q215 604 173.5 533.5 Q132 463 132 381 Q132 242 228 151 Q271 111 326 88.5 Q381 66 437 66 Q522 66 593 107.5 Q664 149 705.5 220 Q747 291 747 376 Q747 461 706 532 Q665 603 594.5 645 Q524 687 440 687 Z " />
<glyph glyph-name="Odieresis" unicode="&#xd6;" horiz-adv-x="879" d="M332 959 Q356 959 373 942 Q390 925 390 902 Q390 878 373 861 Q356 844 332 844 Q309 844 292 861 Q275 878 275 903 Q275 926 292 942.5 Q309 959 332 959 Z M547 959 Q571 959 588 942 Q605 925 605 902 Q605 878 588 861 Q571 844 547 844 Q523 844 506 861 Q489 878 489 903 Q489 926 506 942.5 Q523 959 547 959 Z M441 766 Q546 766 636 713 Q726 660 779 570.5 Q832 481 832 376 Q832 270 778.5 180.5 Q725 91 634 38.5 Q543 -14 436 -14 Q356 -14 278 21.5 Q200 57 145 119 Q47 228 47 381 Q47 483 101 572 Q155 661 245.5 713.5 Q336 766 441 766 Z M440 687 Q357 687 286 645.5 Q215 604 173.5 533.5 Q132 463 132 381 Q132 242 228 151 Q271 111 326 88.5 Q381 66 437 66 Q522 66 593 107.5 Q664 149 705.5 220 Q747 291 747 376 Q747 461 706 532 Q665 603 594.5 645 Q524 687 440 687 Z " />
<glyph glyph-name="Ograve" unicode="&#xd2;" horiz-adv-x="879" d="M366 997 L502 850 L453 814 L290 946 L366 997 Z M441 766 Q546 766 636 713 Q726 660 779 570.5 Q832 481 832 376 Q832 270 778.5 180.5 Q725 91 634 38.5 Q543 -14 436 -14 Q356 -14 278 21.5 Q200 57 145 119 Q47 228 47 381 Q47 483 101 572 Q155 661 245.5 713.5 Q336 766 441 766 Z M440 687 Q357 687 286 645.5 Q215 604 173.5 533.5 Q132 463 132 381 Q132 242 228 151 Q271 111 326 88.5 Q381 66 437 66 Q522 66 593 107.5 Q664 149 705.5 220 Q747 291 747 376 Q747 461 706 532 Q665 603 594.5 645 Q524 687 440 687 Z " />
<glyph glyph-name="Ohorn" unicode="&#x1a0;" horiz-adv-x="879" d="M763 602 Q800 531 816 477.5 Q832 424 832 368 Q832 267 778 179 Q724 91 634 38.5 Q544 -14 440 -14 Q334 -14 243.5 38.5 Q153 91 100 180 Q47 269 47 374 Q47 480 100.5 570 Q154 660 244.5 713 Q335 766 441 766 Q517 766 588.5 736.5 Q660 707 714 653 L758 799 L836 775 L763 602 Z M440 687 Q357 687 286 645.5 Q215 604 173.5 533.5 Q132 463 132 381 Q132 242 228 151 Q271 111 326 88.5 Q381 66 437 66 Q522 66 593 107.5 Q664 149 705.5 220 Q747 291 747 376 Q747 461 706 532 Q665 603 594.5 645 Q524 687 440 687 Z " />
<glyph glyph-name="Ohungarumlaut" unicode="&#x150;" horiz-adv-x="879" d="M359 818 L319 850 L453 997 L524 956 L359 818 Z M548 818 L507 850 L641 997 L713 956 L548 818 Z M441 766 Q546 766 636 713 Q726 660 779 570.5 Q832 481 832 376 Q832 270 778.5 180.5 Q725 91 634 38.5 Q543 -14 436 -14 Q356 -14 278 21.5 Q200 57 145 119 Q47 228 47 381 Q47 483 101 572 Q155 661 245.5 713.5 Q336 766 441 766 Z M440 687 Q357 687 286 645.5 Q215 604 173.5 533.5 Q132 463 132 381 Q132 242 228 151 Q271 111 326 88.5 Q381 66 437 66 Q522 66 593 107.5 Q664 149 705.5 220 Q747 291 747 376 Q747 461 706 532 Q665 603 594.5 645 Q524 687 440 687 Z " />
<glyph glyph-name="Omacron" unicode="&#x14c;" horiz-adv-x="879" d="M606 931 L606 861 L273 861 L273 931 L606 931 Z M441 766 Q546 766 636 713 Q726 660 779 570.5 Q832 481 832 376 Q832 270 778.5 180.5 Q725 91 634 38.5 Q543 -14 436 -14 Q356 -14 278 21.5 Q200 57 145 119 Q47 228 47 381 Q47 483 101 572 Q155 661 245.5 713.5 Q336 766 441 766 Z M440 687 Q357 687 286 645.5 Q215 604 173.5 533.5 Q132 463 132 381 Q132 242 228 151 Q271 111 326 88.5 Q381 66 437 66 Q522 66 593 107.5 Q664 149 705.5 220 Q747 291 747 376 Q747 461 706 532 Q665 603 594.5 645 Q524 687 440 687 Z " />
<glyph glyph-name="Oslash" unicode="&#xd8;" horiz-adv-x="883" d="M136 129 Q88 194 68.5 250 Q49 306 49 375 Q49 481 102 570.5 Q155 660 245.5 713 Q336 766 442 766 Q557 766 655 702 L688 679 L775 766 L824 716 L739 631 Q791 562 812 505 Q833 448 833 376 Q833 271 780 181.5 Q727 92 636.5 39 Q546 -14 441 -14 Q370 -14 313 6.5 Q256 27 185 79 L98 -8 L47 42 L136 129 Z M628 623 Q586 656 540.5 671.5 Q495 687 441 687 Q357 687 286.5 645 Q216 603 174.5 531.5 Q133 460 133 375 Q133 323 146.5 281.5 Q160 240 195 188 L628 623 Z M245 139 Q281 106 335 86 Q389 66 443 66 Q525 66 595 108 Q665 150 706.5 221 Q748 292 748 375 Q748 431 732 477 Q716 523 680 573 L245 139 Z " />
<glyph glyph-name="Oslashacute" unicode="&#x1fe;" horiz-adv-x="883" d="M421 814 L373 850 L507 997 L583 946 L421 814 Z M136 129 Q88 194 68.5 250 Q49 306 49 375 Q49 481 102 570.5 Q155 660 245.5 713 Q336 766 442 766 Q557 766 655 702 L688 679 L775 766 L824 716 L739 631 Q791 562 812 505 Q833 448 833 376 Q833 271 780 181.5 Q727 92 636.5 39 Q546 -14 441 -14 Q370 -14 313 6.5 Q256 27 185 79 L98 -8 L47 42 L136 129 Z M628 623 Q586 656 540.5 671.5 Q495 687 441 687 Q357 687 286.5 645 Q216 603 174.5 531.5 Q133 460 133 375 Q133 323 146.5 281.5 Q160 240 195 188 L628 623 Z M245 139 Q281 106 335 86 Q389 66 443 66 Q525 66 595 108 Q665 150 706.5 221 Q748 292 748 375 Q748 431 732 477 Q716 523 680 573 L245 139 Z " />
<glyph glyph-name="Otilde" unicode="&#xd5;" horiz-adv-x="879" d="M284 881 Q304 920 329.5 941 Q355 962 384 962 Q400 962 414 957.5 Q428 953 457 938 Q500 915 518 915 Q533 915 545 926 Q557 937 570 964 L618 927 Q598 885 572.5 865 Q547 845 515 845 Q500 845 483.5 850.5 Q467 856 442 869 Q415 882 402 887 Q389 892 379 892 Q364 892 355 882.5 Q346 873 332 843 L284 881 Z M441 766 Q546 766 636 713 Q726 660 779 570.5 Q832 481 832 376 Q832 270 778.5 180.5 Q725 91 634 38.5 Q543 -14 436 -14 Q356 -14 278 21.5 Q200 57 145 119 Q47 228 47 381 Q47 483 101 572 Q155 661 245.5 713.5 Q336 766 441 766 Z M440 687 Q357 687 286 645.5 Q215 604 173.5 533.5 Q132 463 132 381 Q132 242 228 151 Q271 111 326 88.5 Q381 66 437 66 Q522 66 593 107.5 Q664 149 705.5 220 Q747 291 747 376 Q747 461 706 532 Q665 603 594.5 645 Q524 687 440 687 Z " />
<glyph glyph-name="OE" unicode="&#x152;" horiz-adv-x="1176" d="M827 676 L827 451 L1120 451 L1120 373 L827 373 L827 78 L1128 78 L1128 0 L742 0 L742 145 Q628 -14 442 -14 Q336 -14 245 38.5 Q154 91 100.5 180.5 Q47 270 47 375 Q47 481 100 571 Q153 661 242.5 713.5 Q332 766 438 766 Q533 766 607 727 Q681 688 742 606 L742 754 L1128 754 L1128 676 L827 676 Z M437 687 Q356 687 286 645 Q216 603 174 532.5 Q132 462 132 381 Q132 295 173 223 Q214 151 283 108.5 Q352 66 434 66 Q518 66 588.5 107.5 Q659 149 700.5 220 Q742 291 742 375 Q742 459 701 531 Q660 603 590 645 Q520 687 437 687 Z " />
<glyph glyph-name="P" unicode="P" horiz-adv-x="502" d="M175 0 L90 0 L90 754 L227 754 Q297 754 340.5 742 Q384 730 417 701 Q450 672 468.5 630.5 Q487 589 487 542 Q487 443 423.5 386.5 Q360 330 249 330 L175 330 L175 0 Z M243 407 Q320 407 362.5 442.5 Q405 478 405 542 Q405 573 394 599 Q383 625 363 642 Q341 660 312 668 Q283 676 237 676 L175 676 L175 407 L243 407 Z " />
<glyph glyph-name="Thorn" unicode="&#xde;" horiz-adv-x="502" d="M175 0 L90 0 L90 754 L175 754 L175 647 L227 647 Q297 647 341 635.5 Q385 624 417 596 Q450 568 468.5 525.5 Q487 483 487 436 Q487 338 423 281.5 Q359 225 249 225 L175 225 L175 0 Z M243 302 Q320 302 362.5 337 Q405 372 405 436 Q405 466 394 492.5 Q383 519 363 536 Q341 554 311.5 562 Q282 570 237 570 L175 570 L175 302 L243 302 Z " />
<glyph glyph-name="Q" unicode="Q" horiz-adv-x="880" d="M729 -8 L666 60 Q563 -14 437 -14 Q332 -14 242 38.5 Q152 91 99.5 180 Q47 269 47 374 Q47 480 100 570 Q153 660 243.5 713 Q334 766 440 766 Q546 766 636 713 Q726 660 779 569.5 Q832 479 832 372 Q832 295 806.5 233.5 Q781 172 723 107 L836 -8 L729 -8 Z M664 167 Q708 217 727.5 265 Q747 313 747 374 Q747 460 706 532 Q665 604 594.5 645.5 Q524 687 440 687 Q355 687 284.5 645.5 Q214 604 173 532 Q132 460 132 374 Q132 308 156 251.5 Q180 195 226 151 Q270 111 325 88.5 Q380 66 436 66 Q531 66 607 120 L425 303 L534 303 L664 167 Z " />
<glyph glyph-name="R" unicode="R" horiz-adv-x="553" d="M527 0 L424 0 L197 330 L175 330 L175 0 L90 0 L90 754 L212 754 Q276 754 318 744.5 Q360 735 393 713 Q432 687 454.5 641.5 Q477 596 477 542 Q477 456 425 400 Q373 344 287 337 L527 0 Z M228 405 Q308 405 351 440.5 Q394 476 394 542 Q394 577 379.5 606 Q365 635 339 651 Q299 676 225 676 L175 676 L175 405 L228 405 Z " />
<glyph glyph-name="Racute" unicode="&#x154;" horiz-adv-x="553" d="M247 814 L199 850 L334 997 L410 946 L247 814 Z M527 0 L424 0 L197 330 L175 330 L175 0 L90 0 L90 754 L212 754 Q276 754 318 744.5 Q360 735 393 713 Q432 687 454.5 641.5 Q477 596 477 542 Q477 456 425 400 Q373 344 287 337 L527 0 Z M228 405 Q308 405 351 440.5 Q394 476 394 542 Q394 577 379.5 606 Q365 635 339 651 Q299 676 225 676 L175 676 L175 405 L228 405 Z " />
<glyph glyph-name="Rcaron" unicode="&#x158;" horiz-adv-x="553" d="M262 815 L103 949 L163 996 L262 911 L360 996 L419 949 L262 815 Z M527 0 L424 0 L197 330 L175 330 L175 0 L90 0 L90 754 L212 754 Q276 754 318 744.5 Q360 735 393 713 Q432 687 454.5 641.5 Q477 596 477 542 Q477 456 425 400 Q373 344 287 337 L527 0 Z M228 405 Q308 405 351 440.5 Q394 476 394 542 Q394 577 379.5 606 Q365 635 339 651 Q299 676 225 676 L175 676 L175 405 L228 405 Z " />
<glyph glyph-name="uni0156" unicode="&#x156;" horiz-adv-x="553" d="M527 0 L424 0 L197 330 L175 330 L175 0 L90 0 L90 754 L212 754 Q276 754 318 744.5 Q360 735 393 713 Q432 687 454.5 641.5 Q477 596 477 542 Q477 456 425 400 Q373 344 287 337 L527 0 Z M228 405 Q308 405 351 440.5 Q394 476 394 542 Q394 577 379.5 606 Q365 635 339 651 Q299 676 225 676 L175 676 L175 405 L228 405 Z M337 -87 L249 -259 L191 -241 L251 -60 L337 -87 Z " />
<glyph glyph-name="S" unicode="S" horiz-adv-x="570" d="M426 606 Q398 652 369 669.5 Q340 687 296 687 Q243 687 207.5 653.5 Q172 620 172 571 Q172 522 219 489 Q239 476 264 464 Q289 452 349 426 Q440 386 480 337.5 Q520 289 520 218 Q520 154 488.5 101 Q457 48 402 17 Q347 -14 280 -14 Q192 -14 131 37.5 Q70 89 49 181 L130 203 Q137 174 143.5 158 Q150 142 160 127 Q181 98 213.5 82 Q246 66 284 66 Q325 66 360 85.5 Q395 105 415 139 Q435 173 435 214 Q435 283 373 321 Q352 334 326.5 346.5 Q301 359 240 386 Q158 423 122.5 466.5 Q87 510 87 572 Q87 627 114.5 671 Q142 715 190 740.5 Q238 766 298 766 Q424 766 493 649 L426 606 Z " />
<glyph glyph-name="Sacute" unicode="&#x15a;" horiz-adv-x="570" d="M286 814 L237 850 L373 997 L449 946 L286 814 Z M426 606 Q398 652 369 669.5 Q340 687 296 687 Q243 687 207.5 653.5 Q172 620 172 571 Q172 522 219 489 Q239 476 264 464 Q289 452 349 426 Q440 386 480 337.5 Q520 289 520 218 Q520 154 488.5 101 Q457 48 402 17 Q347 -14 280 -14 Q192 -14 131 37.5 Q70 89 49 181 L130 203 Q137 174 143.5 158 Q150 142 160 127 Q181 98 213.5 82 Q246 66 284 66 Q325 66 360 85.5 Q395 105 415 139 Q435 173 435 214 Q435 283 373 321 Q352 334 326.5 346.5 Q301 359 240 386 Q158 423 122.5 466.5 Q87 510 87 572 Q87 627 114.5 671 Q142 715 190 740.5 Q238 766 298 766 Q424 766 493 649 L426 606 Z " />
<glyph glyph-name="Scaron" unicode="&#x160;" horiz-adv-x="570" d="M301 815 L141 949 L201 996 L301 911 L399 996 L458 949 L301 815 Z M426 606 Q398 652 369 669.5 Q340 687 296 687 Q243 687 207.5 653.5 Q172 620 172 571 Q172 522 219 489 Q239 476 264 464 Q289 452 349 426 Q440 386 480 337.5 Q520 289 520 218 Q520 154 488.5 101 Q457 48 402 17 Q347 -14 280 -14 Q192 -14 131 37.5 Q70 89 49 181 L130 203 Q137 174 143.5 158 Q150 142 160 127 Q181 98 213.5 82 Q246 66 284 66 Q325 66 360 85.5 Q395 105 415 139 Q435 173 435 214 Q435 283 373 321 Q352 334 326.5 346.5 Q301 359 240 386 Q158 423 122.5 466.5 Q87 510 87 572 Q87 627 114.5 671 Q142 715 190 740.5 Q238 766 298 766 Q424 766 493 649 L426 606 Z " />
<glyph glyph-name="Scedilla" unicode="&#x15e;" horiz-adv-x="570" d="M426 606 Q398 652 369 669.5 Q340 687 296 687 Q243 687 207.5 653.5 Q172 620 172 571 Q172 522 219 489 Q239 476 264 464 Q289 452 349 426 Q440 386 480 337.5 Q520 289 520 218 Q520 154 488.5 101 Q457 48 402 17 Q347 -14 280 -14 Q192 -14 131 37.5 Q70 89 49 181 L130 203 Q137 174 143.5 158 Q150 142 160 127 Q181 98 213.5 82 Q246 66 284 66 Q325 66 360 85.5 Q395 105 415 139 Q435 173 435 214 Q435 283 373 321 Q352 334 326.5 346.5 Q301 359 240 386 Q158 423 122.5 466.5 Q87 510 87 572 Q87 627 114.5 671 Q142 715 190 740.5 Q238 766 298 766 Q424 766 493 649 L426 606 Z M220 -236 L164 -207 L264 -53 L346 -89 L220 -236 Z " />
<glyph glyph-name="Scircumflex" unicode="&#x15c;" horiz-adv-x="570" d="M298 996 L458 861 L398 815 L298 901 L200 815 L141 861 L298 996 Z M426 606 Q398 652 369 669.5 Q340 687 296 687 Q243 687 207.5 653.5 Q172 620 172 571 Q172 522 219 489 Q239 476 264 464 Q289 452 349 426 Q440 386 480 337.5 Q520 289 520 218 Q520 154 488.5 101 Q457 48 402 17 Q347 -14 280 -14 Q192 -14 131 37.5 Q70 89 49 181 L130 203 Q137 174 143.5 158 Q150 142 160 127 Q181 98 213.5 82 Q246 66 284 66 Q325 66 360 85.5 Q395 105 415 139 Q435 173 435 214 Q435 283 373 321 Q352 334 326.5 346.5 Q301 359 240 386 Q158 423 122.5 466.5 Q87 510 87 572 Q87 627 114.5 671 Q142 715 190 740.5 Q238 766 298 766 Q424 766 493 649 L426 606 Z " />
<glyph glyph-name="uni0218" unicode="&#x218;" horiz-adv-x="570" d="M426 606 Q398 652 369 669.5 Q340 687 296 687 Q243 687 207.5 653.5 Q172 620 172 571 Q172 522 219 489 Q239 476 264 464 Q289 452 349 426 Q440 386 480 337.5 Q520 289 520 218 Q520 154 488.5 101 Q457 48 402 17 Q347 -14 280 -14 Q192 -14 131 37.5 Q70 89 49 181 L130 203 Q137 174 143.5 158 Q150 142 160 127 Q181 98 213.5 82 Q246 66 284 66 Q325 66 360 85.5 Q395 105 415 139 Q435 173 435 214 Q435 283 373 321 Q352 334 326.5 346.5 Q301 359 240 386 Q158 423 122.5 466.5 Q87 510 87 572 Q87 627 114.5 671 Q142 715 190 740.5 Q238 766 298 766 Q424 766 493 649 L426 606 Z M337 -87 L249 -259 L191 -241 L251 -60 L337 -87 Z " />
<glyph glyph-name="uni1E9E" unicode="&#x1e9e;" horiz-adv-x="713" d="M489 433 Q564 407 610.5 352.5 Q657 298 657 221 Q657 152 626.5 98.5 Q596 45 542 15.5 Q488 -14 421 -14 Q377 -14 337 -4.5 Q297 5 268 23 L268 122 Q302 90 338.5 78 Q375 66 424 66 Q464 66 497.5 85.5 Q531 105 550.5 140.5 Q570 176 570 221 Q570 275 537.5 308 Q505 341 466 356 Q427 371 371 385 L508 651 Q479 666 438.5 676 Q398 686 358 686 Q297 686 254 662 Q211 638 193 593 Q181 564 177.5 530.5 Q174 497 174 421 L174 0 L89 0 L89 445 Q89 531 95.5 571.5 Q102 612 122 649 Q152 706 211 735.5 Q270 765 355 765 Q428 765 494.5 742.5 Q561 720 615 679 L489 433 Z " />
<glyph glyph-name="uni018F" unicode="&#x18f;" horiz-adv-x="897" d="M755 395 Q747 479 705.5 545.5 Q664 612 597 649.5 Q530 687 450 687 Q365 687 296.5 646.5 Q228 606 181 529 L105 562 Q161 659 251.5 712.5 Q342 766 450 766 Q555 766 645 713 Q735 660 788 570 Q841 480 841 375 Q841 271 787.5 181.5 Q734 92 644 39 Q554 -14 449 -14 Q343 -14 253 38 Q163 90 109.5 178.5 Q56 267 56 371 Q56 385 58 395 L755 395 Z M147 318 Q160 246 204 188.5 Q248 131 312 98.5 Q376 66 449 66 Q522 66 586 98.5 Q650 131 693 188 Q736 245 750 318 L147 318 Z " />
<glyph glyph-name="T" unicode="T" horiz-adv-x="464" d="M275 0 L190 0 L190 676 L8 676 L8 754 L458 754 L458 676 L275 676 L275 0 Z " />
<glyph glyph-name="Tbar" unicode="&#x166;" horiz-adv-x="480" d="M432 461 L281 461 L281 0 L197 0 L197 461 L46 461 L46 537 L197 537 L197 676 L15 676 L15 754 L464 754 L464 676 L281 676 L281 537 L432 537 L432 461 Z " />
<glyph glyph-name="Tcaron" unicode="&#x164;" horiz-adv-x="464" d="M234 815 L75 949 L134 996 L234 911 L332 996 L391 949 L234 815 Z M275 0 L190 0 L190 676 L8 676 L8 754 L458 754 L458 676 L275 676 L275 0 Z " />
<glyph glyph-name="uni0162" unicode="&#x162;" horiz-adv-x="464" d="M275 0 L190 0 L190 676 L8 676 L8 754 L458 754 L458 676 L275 676 L275 0 Z M281 -87 L193 -259 L136 -241 L195 -60 L281 -87 Z " />
<glyph glyph-name="U" unicode="U" horiz-adv-x="718" d="M175 292 Q175 234 180.5 203 Q186 172 200 147 Q222 111 266 88.5 Q310 66 359 66 Q408 66 451.5 88.5 Q495 111 518 147 Q532 171 537 202 Q542 233 542 292 L542 754 L627 754 L627 269 Q627 207 615.5 166 Q604 125 577 90 Q540 42 481.5 14 Q423 -14 359 -14 Q294 -14 235.5 14 Q177 42 140 90 Q113 125 101.5 166 Q90 207 90 269 L90 754 L175 754 L175 292 Z " />
<glyph glyph-name="Uacute" unicode="&#xda;" horiz-adv-x="718" d="M346 814 L297 850 L432 997 L507 946 L346 814 Z M175 292 Q175 234 180.5 203 Q186 172 200 147 Q222 111 266 88.5 Q310 66 359 66 Q408 66 451.5 88.5 Q495 111 518 147 Q532 171 537 202 Q542 233 542 292 L542 754 L627 754 L627 269 Q627 207 615.5 166 Q604 125 577 90 Q540 42 481.5 14 Q423 -14 359 -14 Q294 -14 235.5 14 Q177 42 140 90 Q113 125 101.5 166 Q90 207 90 269 L90 754 L175 754 L175 292 Z " />
<glyph glyph-name="Ubreve" unicode="&#x16c;" horiz-adv-x="718" d="M275 973 Q285 933 304.5 915 Q324 897 358 897 Q427 897 443 973 L515 973 Q508 904 466 865 Q424 826 358 826 Q320 826 288 840.5 Q256 855 234 881 Q219 900 212.5 919.5 Q206 939 202 973 L275 973 Z M175 292 Q175 234 180.5 203 Q186 172 200 147 Q222 111 266 88.5 Q310 66 359 66 Q408 66 451.5 88.5 Q495 111 518 147 Q532 171 537 202 Q542 233 542 292 L542 754 L627 754 L627 269 Q627 207 615.5 166 Q604 125 577 90 Q540 42 481.5 14 Q423 -14 359 -14 Q294 -14 235.5 14 Q177 42 140 90 Q113 125 101.5 166 Q90 207 90 269 L90 754 L175 754 L175 292 Z " />
<glyph glyph-name="Ucircumflex" unicode="&#xdb;" horiz-adv-x="718" d="M358 996 L518 861 L458 815 L358 901 L259 815 L201 861 L358 996 Z M175 292 Q175 234 180.5 203 Q186 172 200 147 Q222 111 266 88.5 Q310 66 359 66 Q408 66 451.5 88.5 Q495 111 518 147 Q532 171 537 202 Q542 233 542 292 L542 754 L627 754 L627 269 Q627 207 615.5 166 Q604 125 577 90 Q540 42 481.5 14 Q423 -14 359 -14 Q294 -14 235.5 14 Q177 42 140 90 Q113 125 101.5 166 Q90 207 90 269 L90 754 L175 754 L175 292 Z " />
<glyph glyph-name="Udieresis" unicode="&#xdc;" horiz-adv-x="718" d="M252 959 Q276 959 293 942 Q310 925 310 902 Q310 878 293 861 Q276 844 252 844 Q228 844 211 861 Q194 878 194 903 Q194 926 211 942.5 Q228 959 252 959 Z M467 959 Q490 959 507 942 Q524 925 524 902 Q524 878 507 861 Q490 844 467 844 Q443 844 426 861 Q409 878 409 903 Q409 926 426 942.5 Q443 959 467 959 Z M175 292 Q175 234 180.5 203 Q186 172 200 147 Q222 111 266 88.5 Q310 66 359 66 Q408 66 451.5 88.5 Q495 111 518 147 Q532 171 537 202 Q542 233 542 292 L542 754 L627 754 L627 269 Q627 207 615.5 166 Q604 125 577 90 Q540 42 481.5 14 Q423 -14 359 -14 Q294 -14 235.5 14 Q177 42 140 90 Q113 125 101.5 166 Q90 207 90 269 L90 754 L175 754 L175 292 Z " />
<glyph glyph-name="Ugrave" unicode="&#xd9;" horiz-adv-x="718" d="M289 997 L425 850 L376 814 L214 946 L289 997 Z M175 292 Q175 234 180.5 203 Q186 172 200 147 Q222 111 266 88.5 Q310 66 359 66 Q408 66 451.5 88.5 Q495 111 518 147 Q532 171 537 202 Q542 233 542 292 L542 754 L627 754 L627 269 Q627 207 615.5 166 Q604 125 577 90 Q540 42 481.5 14 Q423 -14 359 -14 Q294 -14 235.5 14 Q177 42 140 90 Q113 125 101.5 166 Q90 207 90 269 L90 754 L175 754 L175 292 Z " />
<glyph glyph-name="Uhorn" unicode="&#x1af;" horiz-adv-x="718" d="M730 600 L672 618 L732 799 L818 772 L730 600 Z M175 292 Q175 234 180.5 203 Q186 172 200 147 Q222 111 266 88.5 Q310 66 359 66 Q408 66 451.5 88.5 Q495 111 518 147 Q532 171 537 202 Q542 233 542 292 L542 754 L627 754 L627 269 Q627 207 615.5 166 Q604 125 577 90 Q540 42 481.5 14 Q423 -14 359 -14 Q294 -14 235.5 14 Q177 42 140 90 Q113 125 101.5 166 Q90 207 90 269 L90 754 L175 754 L175 292 Z " />
<glyph glyph-name="Uhungarumlaut" unicode="&#x170;" horiz-adv-x="718" d="M271 818 L231 850 L365 997 L436 956 L271 818 Z M460 818 L419 850 L553 997 L625 956 L460 818 Z M175 292 Q175 234 180.5 203 Q186 172 200 147 Q222 111 266 88.5 Q310 66 359 66 Q408 66 451.5 88.5 Q495 111 518 147 Q532 171 537 202 Q542 233 542 292 L542 754 L627 754 L627 269 Q627 207 615.5 166 Q604 125 577 90 Q540 42 481.5 14 Q423 -14 359 -14 Q294 -14 235.5 14 Q177 42 140 90 Q113 125 101.5 166 Q90 207 90 269 L90 754 L175 754 L175 292 Z " />
<glyph glyph-name="Umacron" unicode="&#x16a;" horiz-adv-x="718" d="M524 931 L524 861 L193 861 L193 931 L524 931 Z M175 292 Q175 234 180.5 203 Q186 172 200 147 Q222 111 266 88.5 Q310 66 359 66 Q408 66 451.5 88.5 Q495 111 518 147 Q532 171 537 202 Q542 233 542 292 L542 754 L627 754 L627 269 Q627 207 615.5 166 Q604 125 577 90 Q540 42 481.5 14 Q423 -14 359 -14 Q294 -14 235.5 14 Q177 42 140 90 Q113 125 101.5 166 Q90 207 90 269 L90 754 L175 754 L175 292 Z " />
<glyph glyph-name="Uogonek" unicode="&#x172;" horiz-adv-x="718" d="M547 -188 Q530 -198 516 -202 Q502 -206 480 -206 Q435 -206 404 -177.5 Q373 -149 373 -107 Q373 -78 388.5 -55 Q404 -32 445 0 Q418 -8 401.5 -11 Q385 -14 363 -14 Q295 -14 236.5 13.5 Q178 41 140 90 Q113 126 101.5 166.5 Q90 207 90 269 L90 754 L175 754 L175 292 Q175 234 180.5 203 Q186 172 200 147 Q222 111 266 88.5 Q310 66 359 66 Q408 66 451.5 88.5 Q495 111 518 147 Q532 171 537 202 Q542 233 542 292 L542 754 L627 754 L627 269 Q626 211 618.5 175 Q611 139 591 109 Q571 79 532 42 Q447 -40 447 -89 Q447 -111 460 -124 Q473 -137 493 -137 Q521 -137 555 -119 L547 -188 Z " />
<glyph glyph-name="Uring" unicode="&#x16e;" horiz-adv-x="718" d="M358 1012 Q401 1012 431 982.5 Q461 953 461 911 Q461 868 431 838 Q401 808 359 808 Q316 808 286.5 838 Q257 868 257 912 Q257 953 287 982.5 Q317 1012 358 1012 Z M359 957 Q339 957 325.5 943.5 Q312 930 312 911 Q312 891 325.5 877 Q339 863 359 863 Q378 863 392 877.5 Q406 892 406 911 Q406 930 392.5 943.5 Q379 957 359 957 Z M175 292 Q175 234 180.5 203 Q186 172 200 147 Q222 111 266 88.5 Q310 66 359 66 Q408 66 451.5 88.5 Q495 111 518 147 Q532 171 537 202 Q542 233 542 292 L542 754 L627 754 L627 269 Q627 207 615.5 166 Q604 125 577 90 Q540 42 481.5 14 Q423 -14 359 -14 Q294 -14 235.5 14 Q177 42 140 90 Q113 125 101.5 166 Q90 207 90 269 L90 754 L175 754 L175 292 Z " />
<glyph glyph-name="Utilde" unicode="&#x168;" horiz-adv-x="718" d="M192 881 Q212 920 237.5 941 Q263 962 293 962 Q308 962 322.5 957 Q337 952 365 938 Q408 915 427 915 Q442 915 453.5 926 Q465 937 478 964 L527 927 Q489 845 424 845 Q408 845 391.5 850.5 Q375 856 350 869 Q322 883 310 887.5 Q298 892 287 892 Q273 892 264 882.5 Q255 873 241 843 L192 881 Z M175 292 Q175 234 180.5 203 Q186 172 200 147 Q222 111 266 88.5 Q310 66 359 66 Q408 66 451.5 88.5 Q495 111 518 147 Q532 171 537 202 Q542 233 542 292 L542 754 L627 754 L627 269 Q627 207 615.5 166 Q604 125 577 90 Q540 42 481.5 14 Q423 -14 359 -14 Q294 -14 235.5 14 Q177 42 140 90 Q113 125 101.5 166 Q90 207 90 269 L90 754 L175 754 L175 292 Z " />
<glyph glyph-name="V" unicode="V" horiz-adv-x="611" d="M306 180 L520 754 L611 754 L305 -44 L0 754 L93 754 L306 180 Z " />
<glyph glyph-name="W" unicode="W" horiz-adv-x="1064" d="M293 189 L529 792 L751 189 L973 754 L1064 754 L749 -38 L527 564 L289 -38 L0 754 L92 754 L293 189 Z " />
<glyph glyph-name="Wacute" unicode="&#x1e82;" horiz-adv-x="1064" d="M427 850 L562 997 L637 946 L476 814 L427 850 Z M293 189 L529 792 L751 189 L973 754 L1064 754 L749 -38 L527 564 L289 -38 L0 754 L92 754 L293 189 Z " />
<glyph glyph-name="Wcircumflex" unicode="&#x174;" horiz-adv-x="1064" d="M531 996 L690 861 L631 815 L531 901 L433 815 L374 861 L531 996 Z M293 189 L529 792 L751 189 L973 754 L1064 754 L749 -38 L527 564 L289 -38 L0 754 L92 754 L293 189 Z " />
<glyph glyph-name="Wdieresis" unicode="&#x1e84;" horiz-adv-x="1064" d="M425 959 Q449 959 466 942 Q483 925 483 902 Q483 878 466 861 Q449 844 425 844 Q401 844 384 861 Q367 878 367 903 Q367 926 384 942.5 Q401 959 425 959 Z M640 959 Q663 959 680 942 Q697 925 697 902 Q697 878 680 861 Q663 844 640 844 Q616 844 599 861 Q582 878 582 903 Q582 926 599 942.5 Q616 959 640 959 Z M293 189 L529 792 L751 189 L973 754 L1064 754 L749 -38 L527 564 L289 -38 L0 754 L92 754 L293 189 Z " />
<glyph glyph-name="Wgrave" unicode="&#x1e80;" horiz-adv-x="1064" d="M637 850 L589 814 L427 946 L503 997 L637 850 Z M293 189 L529 792 L751 189 L973 754 L1064 754 L749 -38 L527 564 L289 -38 L0 754 L92 754 L293 189 Z " />
<glyph glyph-name="X" unicode="X" horiz-adv-x="553" d="M27 754 L123 754 L279 470 L438 754 L534 754 L327 390 L545 0 L451 0 L278 310 L103 0 L8 0 L231 390 L27 754 Z " />
<glyph glyph-name="Y" unicode="Y" horiz-adv-x="581" d="M0 754 L97 754 L289 417 L484 754 L582 754 L331 324 L331 0 L246 0 L246 324 L0 754 Z " />
<glyph glyph-name="Yacute" unicode="&#xdd;" horiz-adv-x="581" d="M277 814 L228 850 L364 997 L440 946 L277 814 Z M0 754 L97 754 L289 417 L484 754 L582 754 L331 324 L331 0 L246 0 L246 324 L0 754 Z " />
<glyph glyph-name="Ycircumflex" unicode="&#x176;" horiz-adv-x="581" d="M290 996 L449 861 L389 815 L290 901 L191 815 L132 861 L290 996 Z M0 754 L97 754 L289 417 L484 754 L582 754 L331 324 L331 0 L246 0 L246 324 L0 754 Z " />
<glyph glyph-name="Ydieresis" unicode="&#x178;" horiz-adv-x="581" d="M183 959 Q207 959 224 942 Q241 925 241 902 Q241 878 224 861 Q207 844 183 844 Q159 844 142 861 Q125 878 125 903 Q125 926 142 942.5 Q159 959 183 959 Z M398 959 Q421 959 438 942 Q455 925 455 902 Q455 878 438 861 Q421 844 398 844 Q374 844 357 861 Q340 878 340 903 Q340 926 357 942.5 Q374 959 398 959 Z M0 754 L97 754 L289 417 L484 754 L582 754 L331 324 L331 0 L246 0 L246 324 L0 754 Z " />
<glyph glyph-name="Ygrave" unicode="&#x1ef2;" horiz-adv-x="581" d="M395 850 L347 814 L185 946 L261 997 L395 850 Z M97 754 L289 417 L484 754 L582 754 L331 324 L331 0 L246 0 L246 324 L0 754 L97 754 Z " />
<glyph glyph-name="Z" unicode="Z" horiz-adv-x="589" d="M559 78 L559 0 L19 0 L429 676 L72 676 L72 754 L570 754 L158 78 L559 78 Z " />
<glyph glyph-name="Zacute" unicode="&#x179;" horiz-adv-x="589" d="M299 814 L251 850 L386 997 L462 946 L299 814 Z M559 78 L559 0 L19 0 L429 676 L72 676 L72 754 L570 754 L158 78 L559 78 Z " />
<glyph glyph-name="Zcaron" unicode="&#x17d;" horiz-adv-x="589" d="M314 815 L155 949 L215 996 L314 911 L412 996 L471 949 L314 815 Z M559 78 L559 0 L19 0 L429 676 L72 676 L72 754 L570 754 L158 78 L559 78 Z " />
<glyph glyph-name="Zdotaccent" unicode="&#x17b;" horiz-adv-x="589" d="M313 960 Q338 960 356 942.5 Q374 925 374 901 Q374 876 356.5 858 Q339 840 313 840 Q288 840 270.5 858 Q253 876 253 901 Q253 925 270.5 942.5 Q288 960 313 960 Z M559 78 L559 0 L19 0 L429 676 L72 676 L72 754 L570 754 L158 78 L559 78 Z " />
<glyph glyph-name="uni01C4" unicode="&#x1c4;" horiz-adv-x="1287" d="M854 949 L914 996 L1012 911 L1112 996 L1171 949 L1012 815 L854 949 Z M245 754 Q337 754 402.5 733.5 Q468 713 522 667 Q586 615 619 540.5 Q652 466 652 377 Q652 288 618.5 214 Q585 140 520 87 Q464 40 399.5 20 Q335 0 244 0 L90 0 L90 754 L245 754 Z M1258 0 L718 0 L1129 676 L771 676 L771 754 L1268 754 L858 78 L1258 78 L1258 0 Z M249 78 Q318 78 370 94.5 Q422 111 464 147 Q514 188 540.5 247.5 Q567 307 567 376 Q567 446 540.5 506 Q514 566 466 607 Q423 642 370.5 659 Q318 676 249 676 L175 676 L175 78 L249 78 Z " />
<glyph glyph-name="uni01C5" unicode="&#x1c5;" horiz-adv-x="1207" d="M245 754 Q337 754 402.5 733.5 Q468 713 522 667 Q586 615 619 540.5 Q652 466 652 377 Q652 288 618.5 214 Q585 140 520 87 Q464 40 399.5 20 Q335 0 244 0 L90 0 L90 754 L245 754 Z M815 697 L872 741 L972 649 L1071 741 L1128 697 L972 550 L815 697 Z M249 78 Q318 78 370 94.5 Q422 111 464 147 Q514 188 540.5 247.5 Q567 307 567 376 Q567 446 540.5 506 Q514 566 466 607 Q423 642 370.5 659 Q318 676 249 676 L175 676 L175 78 L249 78 Z M1188 0 L702 0 L1042 394 L765 394 L765 469 L1202 469 L864 75 L1188 75 L1188 0 Z " />
<glyph glyph-name="uni01C7" unicode="&#x1c7;" horiz-adv-x="721" d="M382 78 L382 0 L90 0 L90 754 L175 754 L175 78 L382 78 Z M706 145 Q706 75 694.5 35.5 Q683 -4 653 -33 Q631 -54 601.5 -66 Q572 -78 540 -78 Q505 -78 473 -65 Q441 -52 405 -23 L451 43 Q479 18 497 9.5 Q515 1 538 1 Q582 1 601.5 35.5 Q621 70 621 145 L621 754 L706 754 L706 145 Z " />
<glyph glyph-name="uni01C8" unicode="&#x1c8;" horiz-adv-x="618" d="M175 78 L382 78 L382 0 L90 0 L90 754 L175 754 L175 78 Z M505 589 Q481 589 464 606 Q447 623 447 647 Q447 670 464 687 Q481 704 505 704 Q529 704 546 687 Q563 670 563 646 Q563 623 546 606 Q529 589 505 589 Z M423 -263 Q390 -263 369 -251 L369 -171 Q389 -186 415 -186 Q443 -186 453.5 -168 Q464 -150 464 -105 L464 469 L545 469 L545 -110 Q545 -153 537 -181.5 Q529 -210 511 -231 Q479 -263 423 -263 Z " />
<glyph glyph-name="uni01CA" unicode="&#x1ca;" horiz-adv-x="1184" d="M677 169 L677 754 L762 754 L762 -34 L175 581 L175 0 L90 0 L90 785 L677 169 Z M1094 145 Q1094 75 1082 35.5 Q1070 -4 1041 -33 Q1018 -54 989 -66 Q960 -78 928 -78 Q893 -78 861 -65 Q829 -52 792 -23 L838 43 Q866 18 884 9.5 Q902 1 925 1 Q969 1 989 35.5 Q1009 70 1009 145 L1009 754 L1094 754 L1094 145 Z " />
<glyph glyph-name="uni01CB" unicode="&#x1cb;" horiz-adv-x="1081" d="M90 785 L677 169 L677 754 L762 754 L762 -34 L175 581 L175 0 L90 0 L90 785 Z M968 589 Q944 589 927 606 Q910 623 910 647 Q910 670 927 687 Q944 704 968 704 Q992 704 1009 687 Q1026 670 1026 646 Q1026 623 1009 606 Q992 589 968 589 Z M886 -263 Q853 -263 832 -251 L832 -171 Q852 -186 878 -186 Q906 -186 916.5 -168 Q927 -150 927 -105 L927 469 L1008 469 L1008 -110 Q1008 -153 1000 -181.5 Q992 -210 974 -231 Q942 -263 886 -263 Z " />
<glyph glyph-name="uni01CD" unicode="&#x1cd;" horiz-adv-x="686" d="M349 815 L190 949 L250 996 L349 911 L447 996 L506 949 L349 815 Z M182 214 L92 0 L0 0 L347 790 L686 0 L593 0 L504 214 L182 214 Z M346 593 L217 292 L471 292 L346 593 Z " />
<glyph glyph-name="uni01CF" unicode="&#x1cf;" horiz-adv-x="266" d="M133 815 L-26 949 L34 996 L133 911 L232 996 L290 949 L133 815 Z M175 0 L90 0 L90 754 L175 754 L175 0 Z " />
<glyph glyph-name="uni01D1" unicode="&#x1d1;" horiz-adv-x="879" d="M441 815 L281 949 L341 996 L441 911 L539 996 L598 949 L441 815 Z M441 766 Q546 766 636 713 Q726 660 779 570.5 Q832 481 832 376 Q832 270 778.5 180.5 Q725 91 634 38.5 Q543 -14 436 -14 Q356 -14 278 21.5 Q200 57 145 119 Q47 228 47 381 Q47 483 101 572 Q155 661 245.5 713.5 Q336 766 441 766 Z M440 687 Q357 687 286 645.5 Q215 604 173.5 533.5 Q132 463 132 381 Q132 242 228 151 Q271 111 326 88.5 Q381 66 437 66 Q522 66 593 107.5 Q664 149 705.5 220 Q747 291 747 376 Q747 461 706 532 Q665 603 594.5 645 Q524 687 440 687 Z " />
<glyph glyph-name="uni01D3" unicode="&#x1d3;" horiz-adv-x="718" d="M359 815 L201 949 L261 996 L359 911 L459 996 L518 949 L359 815 Z M175 292 Q175 234 180.5 203 Q186 172 200 147 Q222 111 266 88.5 Q310 66 359 66 Q408 66 451.5 88.5 Q495 111 518 147 Q532 171 537 202 Q542 233 542 292 L542 754 L627 754 L627 269 Q627 207 615.5 166 Q604 125 577 90 Q540 42 481.5 14 Q423 -14 359 -14 Q294 -14 235.5 14 Q177 42 140 90 Q113 125 101.5 166 Q90 207 90 269 L90 754 L175 754 L175 292 Z " />
<glyph glyph-name="uni01F4" unicode="&#x1f4;" horiz-adv-x="838" d="M428 814 L380 850 L514 997 L591 946 L428 814 Z M791 379 L791 359 Q791 296 781.5 251 Q772 206 751 168 Q705 85 619 35.5 Q533 -14 434 -14 Q330 -14 241 39 Q152 92 99.5 181.5 Q47 271 47 375 Q47 481 100 571 Q153 661 243.5 713.5 Q334 766 441 766 Q504 766 563.5 746 Q623 726 671 689 Q693 674 711.5 655 Q730 636 758 602 L696 546 Q640 620 579.5 653.5 Q519 687 442 687 Q357 687 286 645 Q215 603 173.5 531 Q132 459 132 374 Q132 292 173.5 221 Q215 150 284.5 108 Q354 66 435 66 Q505 66 570 101.5 Q635 137 670 194 Q684 217 691 241 Q698 265 701 301 L477 301 L477 379 L791 379 Z " />
<glyph glyph-name="uni0200" unicode="&#x200;" horiz-adv-x="686" d="M307 850 L268 818 L102 956 L174 997 L307 850 Z M496 850 L455 818 L290 956 L363 997 L496 850 Z M182 214 L92 0 L0 0 L347 790 L686 0 L593 0 L504 214 L182 214 Z M346 593 L217 292 L471 292 L346 593 Z " />
<glyph glyph-name="uni021A" unicode="&#x21a;" horiz-adv-x="464" d="M190 0 L190 676 L8 676 L8 754 L458 754 L458 676 L275 676 L275 0 L190 0 Z M193 -259 L136 -241 L195 -60 L281 -87 L193 -259 Z " />
<glyph glyph-name="uni0226" unicode="&#x226;" horiz-adv-x="686" d="M346 960 Q371 960 389 942.5 Q407 925 407 901 Q407 876 389.5 858 Q372 840 347 840 Q322 840 304 858 Q286 876 286 901 Q286 925 303.5 942.5 Q321 960 346 960 Z M182 214 L92 0 L0 0 L347 790 L686 0 L593 0 L504 214 L182 214 Z M346 593 L217 292 L471 292 L346 593 Z " />
<glyph glyph-name="uni1E1E" unicode="&#x1e1e;" horiz-adv-x="475" d="M261 960 Q286 960 304 942.5 Q322 925 322 901 Q322 876 304.5 858 Q287 840 262 840 Q237 840 219 858 Q201 876 201 901 Q201 925 218.5 942.5 Q236 960 261 960 Z M175 451 L425 451 L425 373 L175 373 L175 0 L90 0 L90 754 L433 754 L433 676 L175 676 L175 451 Z " />
<glyph glyph-name="uni1EA0" unicode="&#x1ea0;" horiz-adv-x="686" d="M182 214 L92 0 L0 0 L347 790 L686 0 L593 0 L504 214 L182 214 Z M346 593 L217 292 L471 292 L346 593 Z M342 -68 Q366 -68 383 -85 Q400 -102 400 -125 Q400 -149 383 -166 Q366 -183 342 -183 Q319 -183 302 -166 Q285 -149 285 -124 Q285 -101 302 -84.5 Q319 -68 342 -68 Z " />
<glyph glyph-name="uni1EA2" unicode="&#x1ea2;" horiz-adv-x="686" d="M320 920 Q347 925 355 925 Q391 930 404.5 939.5 Q418 949 418 970 Q418 992 402 1004 Q386 1016 358 1016 Q343 1016 337 1014.5 Q331 1013 314 1005 L296 996 L281 1032 Q312 1044 334.5 1048.5 Q357 1053 381 1053 Q428 1053 458 1028.5 Q488 1004 488 965 Q488 932 464.5 913 Q441 894 400 894 Q379 894 365 895 L365 851 L320 851 L320 920 Z M182 214 L92 0 L0 0 L347 790 L686 0 L593 0 L504 214 L182 214 Z M346 593 L217 292 L471 292 L346 593 Z " />
<glyph glyph-name="uni1EA4" unicode="&#x1ea4;" horiz-adv-x="686" d="M628 1010 L477 887 L508 861 L449 815 L349 901 L251 815 L192 861 L349 996 L429 928 L553 1061 L628 1010 Z M182 214 L92 0 L0 0 L347 790 L686 0 L593 0 L504 214 L182 214 Z M346 593 L217 292 L471 292 L346 593 Z " />
<glyph glyph-name="uni1EA6" unicode="&#x1ea6;" horiz-adv-x="686" d="M573 925 L524 889 L363 1022 L438 1072 L573 925 Z M501 861 L441 815 L342 901 L243 815 L184 861 L342 996 L501 861 Z M182 214 L92 0 L0 0 L347 790 L686 0 L593 0 L504 214 L182 214 Z M346 593 L217 292 L471 292 L346 593 Z " />
<glyph glyph-name="uni1EA8" unicode="&#x1ea8;" horiz-adv-x="686" d="M479 967 Q516 972 529 981 Q542 990 542 1010 Q542 1032 526.5 1044.5 Q511 1057 483 1057 Q466 1057 460 1055.5 Q454 1054 438 1045 Q428 1040 420 1037 L406 1074 Q438 1085 460 1089.5 Q482 1094 505 1094 Q552 1094 582 1069.5 Q612 1045 612 1006 Q612 973 588.5 954 Q565 935 524 935 L489 936 L489 893 L471 893 L508 861 L449 815 L350 901 L251 815 L192 861 L350 996 L444 915 L444 962 L479 967 Z M182 214 L92 0 L0 0 L347 790 L686 0 L593 0 L504 214 L182 214 Z M346 593 L217 292 L471 292 L346 593 Z " />
<glyph glyph-name="uni1EAA" unicode="&#x1eaa;" horiz-adv-x="686" d="M176 1027 Q196 1067 221.5 1088 Q247 1109 277 1109 Q292 1109 306.5 1104 Q321 1099 349 1085 Q394 1062 410 1062 Q426 1062 437 1072.5 Q448 1083 462 1110 L511 1074 Q491 1032 465.5 1012 Q440 992 407 992 Q379 992 334 1016 Q308 1029 295 1033.5 Q282 1038 271 1038 Q257 1038 248 1029 Q239 1020 225 990 L176 1027 Z M508 861 L449 815 L349 901 L251 815 L192 861 L349 996 L508 861 Z M182 214 L92 0 L0 0 L347 790 L686 0 L593 0 L504 214 L182 214 Z M346 593 L217 292 L471 292 L346 593 Z " />
<glyph glyph-name="uni1EAC" unicode="&#x1eac;" horiz-adv-x="686" d="M508 861 L449 815 L349 901 L251 815 L192 861 L349 996 L508 861 Z M182 214 L92 0 L0 0 L347 790 L686 0 L593 0 L504 214 L182 214 Z M346 593 L217 292 L471 292 L346 593 Z M342 -68 Q366 -68 383 -85 Q400 -102 400 -125 Q400 -149 383 -166 Q366 -183 342 -183 Q319 -183 302 -166 Q285 -149 285 -124 Q285 -101 302 -84.5 Q319 -68 342 -68 Z " />
<glyph glyph-name="uni1EAE" unicode="&#x1eae;" horiz-adv-x="686" d="M299 981 L434 1127 L511 1077 L348 945 L299 981 Z M262 973 Q273 933 292.5 915 Q312 897 346 897 Q380 897 400.5 916 Q421 935 431 973 L503 973 Q496 904 454 865 Q412 826 346 826 Q308 826 275.5 840.5 Q243 855 221 881 Q206 900 199.5 920 Q193 940 190 973 L262 973 Z M182 214 L92 0 L0 0 L347 790 L686 0 L593 0 L504 214 L182 214 Z M346 593 L217 292 L471 292 L346 593 Z " />
<glyph glyph-name="uni1EB0" unicode="&#x1eb0;" horiz-adv-x="686" d="M385 970 L337 933 L175 1066 L251 1116 L385 970 Z M262 973 Q273 933 292.5 915 Q312 897 346 897 Q380 897 400.5 916 Q421 935 431 973 L503 973 Q496 904 454 865 Q412 826 346 826 Q308 826 275.5 840.5 Q243 855 221 881 Q206 900 199.5 920 Q193 940 190 973 L262 973 Z M182 214 L92 0 L0 0 L347 790 L686 0 L593 0 L504 214 L182 214 Z M346 593 L217 292 L471 292 L346 593 Z " />
<glyph glyph-name="uni1EB2" unicode="&#x1eb2;" horiz-adv-x="686" d="M320 1011 Q344 1017 355 1017 Q391 1022 404.5 1031.5 Q418 1041 418 1061 Q418 1083 402 1095 Q386 1107 358 1107 Q343 1107 337 1105.5 Q331 1104 314 1096 L296 1087 L281 1123 Q313 1135 335 1140 Q357 1145 381 1145 Q428 1145 458 1120.5 Q488 1096 488 1057 Q488 1023 464.5 1004 Q441 985 400 985 Q379 985 365 986 L365 942 L320 942 L320 1011 Z M262 973 Q273 933 292.5 915 Q312 897 346 897 Q380 897 400.5 916 Q421 935 431 973 L503 973 Q496 904 454 865 Q412 826 346 826 Q308 826 275.5 840.5 Q243 855 221 881 Q206 900 199.5 920 Q193 940 190 973 L262 973 Z M182 214 L92 0 L0 0 L347 790 L686 0 L593 0 L504 214 L182 214 Z M346 593 L217 292 L471 292 L346 593 Z " />
<glyph glyph-name="uni1EB4" unicode="&#x1eb4;" horiz-adv-x="686" d="M176 1043 Q196 1082 221.5 1102.5 Q247 1123 277 1123 Q293 1123 307.5 1118 Q322 1113 349 1099 Q394 1077 410 1077 Q426 1077 437.5 1087.5 Q449 1098 462 1125 L511 1089 Q491 1047 465.5 1027 Q440 1007 407 1007 Q377 1007 334 1031 Q308 1044 295 1048.5 Q282 1053 271 1053 Q257 1053 248 1044 Q239 1035 225 1005 L176 1043 Z M262 973 Q273 933 292.5 915 Q312 897 346 897 Q380 897 400.5 916 Q421 935 431 973 L503 973 Q496 904 454 865 Q412 826 346 826 Q308 826 275.5 840.5 Q243 855 221 881 Q206 900 199.5 920 Q193 940 190 973 L262 973 Z M182 214 L92 0 L0 0 L347 790 L686 0 L593 0 L504 214 L182 214 Z M346 593 L217 292 L471 292 L346 593 Z " />
<glyph glyph-name="uni1EB6" unicode="&#x1eb6;" horiz-adv-x="686" d="M262 973 Q273 933 292.5 915 Q312 897 346 897 Q380 897 400.5 916 Q421 935 431 973 L503 973 Q496 904 454 865 Q412 826 346 826 Q308 826 275.5 840.5 Q243 855 221 881 Q206 900 199.5 920 Q193 940 190 973 L262 973 Z M182 214 L92 0 L0 0 L347 790 L686 0 L593 0 L504 214 L182 214 Z M346 593 L217 292 L471 292 L346 593 Z M342 -68 Q366 -68 383 -85 Q400 -102 400 -125 Q400 -149 383 -166 Q366 -183 342 -183 Q319 -183 302 -166 Q285 -149 285 -124 Q285 -101 302 -84.5 Q319 -68 342 -68 Z " />
<glyph glyph-name="uni1EB8" unicode="&#x1eb8;" horiz-adv-x="530" d="M175 451 L472 451 L472 373 L175 373 L175 78 L480 78 L480 0 L90 0 L90 754 L480 754 L480 676 L175 676 L175 451 Z M264 -68 Q288 -68 305 -85 Q322 -102 322 -125 Q322 -149 305 -166 Q288 -183 264 -183 Q241 -183 224 -166 Q207 -149 207 -124 Q207 -101 224 -84.5 Q241 -68 264 -68 Z " />
<glyph glyph-name="uni1EBA" unicode="&#x1eba;" horiz-adv-x="530" d="M269 920 Q296 925 304 925 Q341 930 354 939.5 Q367 949 367 970 Q367 992 351 1004 Q335 1016 307 1016 Q292 1016 286 1014.5 Q280 1013 263 1005 L245 996 L231 1032 Q261 1044 283.5 1048.5 Q306 1053 330 1053 Q377 1053 407 1028.5 Q437 1004 437 965 Q437 932 413.5 913 Q390 894 349 894 Q328 894 314 895 L314 851 L269 851 L269 920 Z M175 451 L472 451 L472 373 L175 373 L175 78 L480 78 L480 0 L90 0 L90 754 L480 754 L480 676 L175 676 L175 451 Z " />
<glyph glyph-name="uni1EBC" unicode="&#x1ebc;" horiz-adv-x="530" d="M98 881 Q118 920 143.5 941 Q169 962 199 962 Q214 962 228.5 957 Q243 952 271 938 Q316 915 332 915 Q348 915 359.5 926 Q371 937 384 964 L433 927 Q413 885 387.5 865 Q362 845 330 845 Q301 845 257 869 Q229 883 216 887.5 Q203 892 193 892 Q179 892 170 882.5 Q161 873 147 843 L98 881 Z M175 451 L472 451 L472 373 L175 373 L175 78 L480 78 L480 0 L90 0 L90 754 L480 754 L480 676 L175 676 L175 451 Z " />
<glyph glyph-name="uni1EBE" unicode="&#x1ebe;" horiz-adv-x="530" d="M568 1010 L415 886 L444 861 L384 815 L285 901 L185 815 L128 861 L285 996 L367 925 L493 1061 L568 1010 Z M175 451 L472 451 L472 373 L175 373 L175 78 L480 78 L480 0 L90 0 L90 754 L480 754 L480 676 L175 676 L175 451 Z " />
<glyph glyph-name="uni1EC0" unicode="&#x1ec0;" horiz-adv-x="530" d="M518 925 L469 889 L306 1022 L382 1072 L518 925 Z M445 861 L385 815 L286 901 L188 815 L129 861 L286 996 L445 861 Z M175 451 L472 451 L472 373 L175 373 L175 78 L480 78 L480 0 L90 0 L90 754 L480 754 L480 676 L175 676 L175 451 Z " />
<glyph glyph-name="uni1EC2" unicode="&#x1ec2;" horiz-adv-x="530" d="M424 967 Q460 972 473.5 981 Q487 990 487 1010 Q487 1032 471 1044.5 Q455 1057 427 1057 Q411 1057 405 1055.5 Q399 1054 383 1045 Q373 1040 365 1037 L350 1074 Q383 1085 405 1089.5 Q427 1094 450 1094 Q497 1094 527 1069.5 Q557 1045 557 1006 Q557 973 533.5 954 Q510 935 469 935 L434 936 L434 893 L406 893 L443 861 L383 815 L285 901 L185 815 L127 861 L285 996 L389 907 L389 962 L424 967 Z M175 451 L472 451 L472 373 L175 373 L175 78 L480 78 L480 0 L90 0 L90 754 L480 754 L480 676 L175 676 L175 451 Z " />
<glyph glyph-name="uni1EC4" unicode="&#x1ec4;" horiz-adv-x="530" d="M118 1041 Q137 1081 162.5 1101.5 Q188 1122 217 1122 Q233 1122 248 1117 Q263 1112 289 1098 Q336 1076 351 1076 Q367 1076 378 1086.5 Q389 1097 403 1123 L452 1087 Q432 1046 406.5 1026 Q381 1006 348 1006 Q333 1006 316.5 1011 Q300 1016 275 1029 Q250 1043 236.5 1047.5 Q223 1052 211 1052 Q198 1052 189 1042.5 Q180 1033 166 1003 L118 1041 Z M444 861 L384 815 L285 901 L185 815 L128 861 L285 996 L444 861 Z M175 451 L472 451 L472 373 L175 373 L175 78 L480 78 L480 0 L90 0 L90 754 L480 754 L480 676 L175 676 L175 451 Z " />
<glyph glyph-name="uni1EC6" unicode="&#x1ec6;" horiz-adv-x="530" d="M444 861 L384 815 L285 901 L185 815 L128 861 L285 996 L444 861 Z M175 451 L472 451 L472 373 L175 373 L175 78 L480 78 L480 0 L90 0 L90 754 L480 754 L480 676 L175 676 L175 451 Z M264 -68 Q288 -68 305 -85 Q322 -102 322 -125 Q322 -149 305 -166 Q288 -183 264 -183 Q241 -183 224 -166 Q207 -149 207 -124 Q207 -101 224 -84.5 Q241 -68 264 -68 Z " />
<glyph glyph-name="uni1EC8" unicode="&#x1ec8;" horiz-adv-x="266" d="M111 920 Q138 925 146 925 Q182 930 195.5 939.5 Q209 949 209 970 Q209 992 193 1004 Q177 1016 149 1016 Q134 1016 128 1014.5 Q122 1013 105 1005 L87 996 L72 1032 Q102 1044 124.5 1048.5 Q147 1053 172 1053 Q219 1053 249 1028.5 Q279 1004 279 965 Q279 932 255.5 913 Q232 894 191 894 Q169 894 156 895 L156 851 L111 851 L111 920 Z M92 0 L92 754 L176 754 L176 0 L92 0 Z " />
<glyph glyph-name="uni1ECA" unicode="&#x1eca;" horiz-adv-x="266" d="M90 0 L90 754 L175 754 L175 0 L90 0 Z M132 -68 Q156 -68 173 -85 Q190 -102 190 -125 Q190 -149 173 -166 Q156 -183 132 -183 Q109 -183 92 -166 Q75 -149 75 -124 Q75 -101 92 -84.5 Q109 -68 132 -68 Z " />
<glyph glyph-name="uni1ECC" unicode="&#x1ecc;" horiz-adv-x="879" d="M441 766 Q546 766 636 713 Q726 660 779 570.5 Q832 481 832 376 Q832 270 778.5 180.5 Q725 91 634 38.5 Q543 -14 436 -14 Q356 -14 278 21.5 Q200 57 145 119 Q47 228 47 381 Q47 483 101 572 Q155 661 245.5 713.5 Q336 766 441 766 Z M440 687 Q357 687 286 645.5 Q215 604 173.5 533.5 Q132 463 132 381 Q132 242 228 151 Q271 111 326 88.5 Q381 66 437 66 Q522 66 593 107.5 Q664 149 705.5 220 Q747 291 747 376 Q747 461 706 532 Q665 603 594.5 645 Q524 687 440 687 Z M440 -68 Q463 -68 480 -85 Q497 -102 497 -125 Q497 -149 480 -166 Q463 -183 440 -183 Q416 -183 399 -166 Q382 -149 382 -124 Q382 -101 399 -84.5 Q416 -68 440 -68 Z " />
<glyph glyph-name="uni1ECE" unicode="&#x1ece;" horiz-adv-x="879" d="M408 920 Q435 925 443 925 Q480 930 493 939.5 Q506 949 506 970 Q506 992 490 1004 Q474 1016 446 1016 Q431 1016 425 1014.5 Q419 1013 402 1005 L384 996 L370 1032 Q400 1044 422.5 1048.5 Q445 1053 469 1053 Q516 1053 546 1028.5 Q576 1004 576 965 Q576 932 552.5 913 Q529 894 488 894 Q467 894 453 895 L453 851 L408 851 L408 920 Z M441 766 Q546 766 636 713 Q726 660 779 570.5 Q832 481 832 376 Q832 270 778.5 180.5 Q725 91 634 38.5 Q543 -14 436 -14 Q356 -14 278 21.5 Q200 57 145 119 Q47 228 47 381 Q47 483 101 572 Q155 661 245.5 713.5 Q336 766 441 766 Z M440 687 Q357 687 286 645.5 Q215 604 173.5 533.5 Q132 463 132 381 Q132 242 228 151 Q271 111 326 88.5 Q381 66 437 66 Q522 66 593 107.5 Q664 149 705.5 220 Q747 291 747 376 Q747 461 706 532 Q665 603 594.5 645 Q524 687 440 687 Z " />
<glyph glyph-name="uni1ED0" unicode="&#x1ed0;" horiz-adv-x="879" d="M721 1010 L568 886 L598 861 L538 815 L438 901 L340 815 L281 861 L438 996 L521 927 L645 1061 L721 1010 Z M437 766 Q544 766 635 713.5 Q726 661 779 571.5 Q832 482 832 376 Q832 271 779 181.5 Q726 92 635.5 39 Q545 -14 440 -14 Q335 -14 244.5 38.5 Q154 91 100.5 179 Q47 267 47 368 Q47 541 172 659 Q224 708 295.5 737 Q367 766 437 766 Z M440 687 Q357 687 286 645.5 Q215 604 173.5 533.5 Q132 463 132 381 Q132 242 228 151 Q271 111 326 88.5 Q381 66 437 66 Q522 66 593 107.5 Q664 149 705.5 220 Q747 291 747 376 Q747 461 706 532 Q665 603 594.5 645 Q524 687 440 687 Z " />
<glyph glyph-name="uni1ED2" unicode="&#x1ed2;" horiz-adv-x="879" d="M695 925 L646 889 L484 1022 L559 1072 L695 925 Z M623 861 L563 815 L463 901 L365 815 L306 861 L463 996 L623 861 Z M437 766 Q544 766 635 713.5 Q726 661 779 571.5 Q832 482 832 376 Q832 271 779 181.5 Q726 92 635.5 39 Q545 -14 440 -14 Q335 -14 244.5 38.5 Q154 91 100.5 179 Q47 267 47 368 Q47 541 172 659 Q224 708 295.5 737 Q367 766 437 766 Z M440 687 Q357 687 286 645.5 Q215 604 173.5 533.5 Q132 463 132 381 Q132 242 228 151 Q271 111 326 88.5 Q381 66 437 66 Q522 66 593 107.5 Q664 149 705.5 220 Q747 291 747 376 Q747 461 706 532 Q665 603 594.5 645 Q524 687 440 687 Z " />
<glyph glyph-name="uni1ED4" unicode="&#x1ed4;" horiz-adv-x="879" d="M581 957 Q617 962 630.5 971 Q644 980 644 1000 Q644 1022 628 1034 Q612 1046 584 1046 Q568 1046 562 1044.5 Q556 1043 540 1035 L522 1026 L507 1062 Q538 1074 560.5 1079 Q583 1084 607 1084 Q654 1084 684 1059.5 Q714 1035 714 996 Q714 962 690.5 943 Q667 924 626 924 Q603 924 591 925 L591 883 L573 883 L598 861 L538 815 L438 901 L339 815 L281 861 L438 996 L546 905 L546 951 L581 957 Z M437 766 Q544 766 635 713.5 Q726 661 779 571.5 Q832 482 832 376 Q832 271 779 181.5 Q726 92 635.5 39 Q545 -14 440 -14 Q335 -14 244.5 38.5 Q154 91 100.5 179 Q47 267 47 368 Q47 541 172 659 Q224 708 295.5 737 Q367 766 437 766 Z M440 687 Q357 687 286 645.5 Q215 604 173.5 533.5 Q132 463 132 381 Q132 242 228 151 Q271 111 326 88.5 Q381 66 437 66 Q522 66 593 107.5 Q664 149 705.5 220 Q747 291 747 376 Q747 461 706 532 Q665 603 594.5 645 Q524 687 440 687 Z " />
<glyph glyph-name="uni1ED6" unicode="&#x1ed6;" horiz-adv-x="879" d="M273 1032 Q292 1071 318 1091.5 Q344 1112 373 1112 Q388 1112 403 1107 Q418 1102 445 1088 Q493 1067 507 1067 Q523 1067 534 1077.5 Q545 1088 559 1114 L608 1078 Q588 1037 562.5 1017 Q537 997 504 997 Q489 997 473 1002 Q457 1007 431 1019 Q402 1033 390 1037.5 Q378 1042 367 1042 Q353 1042 344 1032.5 Q335 1023 321 994 L273 1032 Z M598 861 L538 815 L438 901 L340 815 L281 861 L438 996 L598 861 Z M441 766 Q546 766 636 713 Q726 660 779 570.5 Q832 481 832 376 Q832 270 778.5 180.5 Q725 91 634 38.5 Q543 -14 436 -14 Q356 -14 278 21.5 Q200 57 145 119 Q47 228 47 381 Q47 483 101 572 Q155 661 245.5 713.5 Q336 766 441 766 Z M440 687 Q357 687 286 645.5 Q215 604 173.5 533.5 Q132 463 132 381 Q132 242 228 151 Q271 111 326 88.5 Q381 66 437 66 Q522 66 593 107.5 Q664 149 705.5 220 Q747 291 747 376 Q747 461 706 532 Q665 603 594.5 645 Q524 687 440 687 Z " />
<glyph glyph-name="uni1ED8" unicode="&#x1ed8;" horiz-adv-x="879" d="M598 861 L538 815 L438 901 L340 815 L281 861 L438 996 L598 861 Z M441 766 Q546 766 636 713 Q726 660 779 570.5 Q832 481 832 376 Q832 270 778.5 180.5 Q725 91 634 38.5 Q543 -14 436 -14 Q356 -14 278 21.5 Q200 57 145 119 Q47 228 47 381 Q47 483 101 572 Q155 661 245.5 713.5 Q336 766 441 766 Z M440 687 Q357 687 286 645.5 Q215 604 173.5 533.5 Q132 463 132 381 Q132 242 228 151 Q271 111 326 88.5 Q381 66 437 66 Q522 66 593 107.5 Q664 149 705.5 220 Q747 291 747 376 Q747 461 706 532 Q665 603 594.5 645 Q524 687 440 687 Z M440 -68 Q463 -68 480 -85 Q497 -102 497 -125 Q497 -149 480 -166 Q463 -183 440 -183 Q416 -183 399 -166 Q382 -149 382 -124 Q382 -101 399 -84.5 Q416 -68 440 -68 Z " />
<glyph glyph-name="uni1EDA" unicode="&#x1eda;" horiz-adv-x="879" d="M397 850 L531 997 L607 946 L445 814 L397 850 Z M845 772 L758 603 Q794 554 813 495.5 Q832 437 832 375 Q832 271 778.5 181.5 Q725 92 635 39 Q545 -14 440 -14 Q334 -14 243.5 38.5 Q153 91 100 180 Q47 269 47 374 Q47 480 100.5 570 Q154 660 244.5 713 Q335 766 441 766 Q516 766 585.5 738 Q655 710 712 657 L759 799 L845 772 Z M440 687 Q357 687 286 645.5 Q215 604 173.5 533.5 Q132 463 132 381 Q132 242 228 151 Q271 111 326 88.5 Q381 66 437 66 Q522 66 593 107.5 Q664 149 705.5 220 Q747 291 747 376 Q747 461 706 532 Q665 603 594.5 645 Q524 687 440 687 Z " />
<glyph glyph-name="uni1EDC" unicode="&#x1edc;" horiz-adv-x="879" d="M483 850 L434 814 L272 946 L348 997 L483 850 Z M845 772 L758 603 Q794 554 813 495.5 Q832 437 832 375 Q832 271 778.5 181.5 Q725 92 635 39 Q545 -14 440 -14 Q334 -14 243.5 38.5 Q153 91 100 180 Q47 269 47 374 Q47 480 100.5 570 Q154 660 244.5 713 Q335 766 441 766 Q516 766 585.5 738 Q655 710 712 657 L759 799 L845 772 Z M440 687 Q357 687 286 645.5 Q215 604 173.5 533.5 Q132 463 132 381 Q132 242 228 151 Q271 111 326 88.5 Q381 66 437 66 Q522 66 593 107.5 Q664 149 705.5 220 Q747 291 747 376 Q747 461 706 532 Q665 603 594.5 645 Q524 687 440 687 Z " />
<glyph glyph-name="uni1EDE" unicode="&#x1ede;" horiz-adv-x="879" d="M408 920 Q435 925 443 925 Q480 930 493 939.5 Q506 949 506 970 Q506 992 490 1004 Q474 1016 446 1016 Q431 1016 425 1014.5 Q419 1013 402 1005 L384 996 L370 1032 Q400 1044 422.5 1048.5 Q445 1053 469 1053 Q516 1053 546 1028.5 Q576 1004 576 965 Q576 932 552.5 913 Q529 894 488 894 Q467 894 453 895 L453 851 L408 851 L408 920 Z M845 772 L758 603 Q794 554 813 495.5 Q832 437 832 375 Q832 271 778.5 181.5 Q725 92 635 39 Q545 -14 440 -14 Q334 -14 243.5 38.5 Q153 91 100 180 Q47 269 47 374 Q47 480 100.5 570 Q154 660 244.5 713 Q335 766 441 766 Q516 766 585.5 738 Q655 710 712 657 L759 799 L845 772 Z M440 687 Q357 687 286 645.5 Q215 604 173.5 533.5 Q132 463 132 381 Q132 242 228 151 Q271 111 326 88.5 Q381 66 437 66 Q522 66 593 107.5 Q664 149 705.5 220 Q747 291 747 376 Q747 461 706 532 Q665 603 594.5 645 Q524 687 440 687 Z " />
<glyph glyph-name="uni1EE0" unicode="&#x1ee0;" horiz-adv-x="879" d="M273 881 Q293 920 318.5 941 Q344 962 373 962 Q388 962 403 957 Q418 952 445 938 Q491 915 507 915 Q523 915 534 926 Q545 937 559 964 L608 927 Q588 885 562.5 865 Q537 845 504 845 Q475 845 431 869 Q403 883 390.5 887.5 Q378 892 367 892 Q353 892 344 882.5 Q335 873 321 843 L273 881 Z M845 772 L758 603 Q794 554 813 495.5 Q832 437 832 375 Q832 271 778.5 181.5 Q725 92 635 39 Q545 -14 440 -14 Q334 -14 243.5 38.5 Q153 91 100 180 Q47 269 47 374 Q47 480 100.5 570 Q154 660 244.5 713 Q335 766 441 766 Q516 766 585.5 738 Q655 710 712 657 L759 799 L845 772 Z M440 687 Q357 687 286 645.5 Q215 604 173.5 533.5 Q132 463 132 381 Q132 242 228 151 Q271 111 326 88.5 Q381 66 437 66 Q522 66 593 107.5 Q664 149 705.5 220 Q747 291 747 376 Q747 461 706 532 Q665 603 594.5 645 Q524 687 440 687 Z " />
<glyph glyph-name="uni1EE2" unicode="&#x1ee2;" horiz-adv-x="879" d="M845 772 L758 603 Q794 554 813 495.5 Q832 437 832 375 Q832 271 778.5 181.5 Q725 92 635 39 Q545 -14 440 -14 Q334 -14 243.5 38.5 Q153 91 100 180 Q47 269 47 374 Q47 480 100.5 570 Q154 660 244.5 713 Q335 766 441 766 Q516 766 585.5 738 Q655 710 712 657 L759 799 L845 772 Z M440 687 Q357 687 286 645.5 Q215 604 173.5 533.5 Q132 463 132 381 Q132 242 228 151 Q271 111 326 88.5 Q381 66 437 66 Q522 66 593 107.5 Q664 149 705.5 220 Q747 291 747 376 Q747 461 706 532 Q665 603 594.5 645 Q524 687 440 687 Z M440 -68 Q463 -68 480 -85 Q497 -102 497 -125 Q497 -149 480 -166 Q463 -183 440 -183 Q416 -183 399 -166 Q382 -149 382 -124 Q382 -101 399 -84.5 Q416 -68 440 -68 Z " />
<glyph glyph-name="uni1EE4" unicode="&#x1ee4;" horiz-adv-x="718" d="M175 292 Q175 234 180.5 203 Q186 172 200 147 Q222 111 266 88.5 Q310 66 359 66 Q408 66 451.5 88.5 Q495 111 518 147 Q532 171 537 202 Q542 233 542 292 L542 754 L627 754 L627 269 Q627 207 615.5 166 Q604 125 577 90 Q540 42 481.5 14 Q423 -14 359 -14 Q294 -14 235.5 14 Q177 42 140 90 Q113 125 101.5 166 Q90 207 90 269 L90 754 L175 754 L175 292 Z M359 -68 Q383 -68 400 -85 Q417 -102 417 -125 Q417 -149 400 -166 Q383 -183 359 -183 Q336 -183 319 -166 Q302 -149 302 -124 Q302 -101 319 -84.5 Q336 -68 359 -68 Z " />
<glyph glyph-name="uni1EE6" unicode="&#x1ee6;" horiz-adv-x="718" d="M340 920 Q367 925 375 925 Q412 930 425 939.5 Q438 949 438 970 Q438 992 422.5 1004 Q407 1016 379 1016 Q363 1016 357 1014.5 Q351 1013 334 1005 L316 996 L302 1032 Q333 1044 355 1048.5 Q377 1053 401 1053 Q448 1053 478 1028.5 Q508 1004 508 965 Q508 932 484.5 913 Q461 894 420 894 Q399 894 385 895 L385 851 L340 851 L340 920 Z M175 292 Q175 234 180.5 203 Q186 172 200 147 Q222 111 266 88.5 Q310 66 359 66 Q408 66 451.5 88.5 Q495 111 518 147 Q532 171 537 202 Q542 233 542 292 L542 754 L627 754 L627 269 Q627 207 615.5 166 Q604 125 577 90 Q540 42 481.5 14 Q423 -14 359 -14 Q294 -14 235.5 14 Q177 42 140 90 Q113 125 101.5 166 Q90 207 90 269 L90 754 L175 754 L175 292 Z " />
<glyph glyph-name="uni1EE8" unicode="&#x1ee8;" horiz-adv-x="718" d="M315 850 L451 997 L527 946 L364 814 L315 850 Z M730 600 L672 618 L732 799 L818 772 L730 600 Z M175 292 Q175 234 180.5 203 Q186 172 200 147 Q222 111 266 88.5 Q310 66 359 66 Q408 66 451.5 88.5 Q495 111 518 147 Q532 171 537 202 Q542 233 542 292 L542 754 L627 754 L627 269 Q627 207 615.5 166 Q604 125 577 90 Q540 42 481.5 14 Q423 -14 359 -14 Q294 -14 235.5 14 Q177 42 140 90 Q113 125 101.5 166 Q90 207 90 269 L90 754 L175 754 L175 292 Z " />
<glyph glyph-name="uni1EEA" unicode="&#x1eea;" horiz-adv-x="718" d="M402 850 L354 814 L191 946 L267 997 L402 850 Z M730 600 L672 618 L732 799 L818 772 L730 600 Z M175 292 Q175 234 180.5 203 Q186 172 200 147 Q222 111 266 88.5 Q310 66 359 66 Q408 66 451.5 88.5 Q495 111 518 147 Q532 171 537 202 Q542 233 542 292 L542 754 L627 754 L627 269 Q627 207 615.5 166 Q604 125 577 90 Q540 42 481.5 14 Q423 -14 359 -14 Q294 -14 235.5 14 Q177 42 140 90 Q113 125 101.5 166 Q90 207 90 269 L90 754 L175 754 L175 292 Z " />
<glyph glyph-name="uni1EEC" unicode="&#x1eec;" horiz-adv-x="718" d="M327 920 Q352 925 362 925 Q398 930 411.5 939.5 Q425 949 425 970 Q425 992 409 1004 Q393 1016 365 1016 Q350 1016 343.5 1014.5 Q337 1013 321 1005 L303 996 L288 1032 Q319 1044 341.5 1048.5 Q364 1053 388 1053 Q435 1053 465 1028.5 Q495 1004 495 965 Q495 932 471.5 913 Q448 894 407 894 Q385 894 372 895 L372 851 L327 851 L327 920 Z M730 600 L672 618 L732 799 L818 772 L730 600 Z M175 292 Q175 234 180.5 203 Q186 172 200 147 Q222 111 266 88.5 Q310 66 359 66 Q408 66 451.5 88.5 Q495 111 518 147 Q532 171 537 202 Q542 233 542 292 L542 754 L627 754 L627 269 Q627 207 615.5 166 Q604 125 577 90 Q540 42 481.5 14 Q423 -14 359 -14 Q294 -14 235.5 14 Q177 42 140 90 Q113 125 101.5 166 Q90 207 90 269 L90 754 L175 754 L175 292 Z " />
<glyph glyph-name="uni1EEE" unicode="&#x1eee;" horiz-adv-x="718" d="M192 881 Q212 920 237.5 941 Q263 962 293 962 Q308 962 322.5 957 Q337 952 365 938 Q408 915 427 915 Q442 915 453.5 926 Q465 937 478 964 L527 927 Q489 845 424 845 Q408 845 391.5 850.5 Q375 856 350 869 Q322 883 310 887.5 Q298 892 287 892 Q273 892 264 882.5 Q255 873 241 843 L192 881 Z M730 600 L672 618 L732 799 L818 772 L730 600 Z M175 292 Q175 234 180.5 203 Q186 172 200 147 Q222 111 266 88.5 Q310 66 359 66 Q408 66 451.5 88.5 Q495 111 518 147 Q532 171 537 202 Q542 233 542 292 L542 754 L627 754 L627 269 Q627 207 615.5 166 Q604 125 577 90 Q540 42 481.5 14 Q423 -14 359 -14 Q294 -14 235.5 14 Q177 42 140 90 Q113 125 101.5 166 Q90 207 90 269 L90 754 L175 754 L175 292 Z " />
<glyph glyph-name="uni1EF0" unicode="&#x1ef0;" horiz-adv-x="718" d="M730 600 L672 618 L732 799 L818 772 L730 600 Z M175 292 Q175 234 180.5 203 Q186 172 200 147 Q222 111 266 88.5 Q310 66 359 66 Q408 66 451.5 88.5 Q495 111 518 147 Q532 171 537 202 Q542 233 542 292 L542 754 L627 754 L627 269 Q627 207 615.5 166 Q604 125 577 90 Q540 42 481.5 14 Q423 -14 359 -14 Q294 -14 235.5 14 Q177 42 140 90 Q113 125 101.5 166 Q90 207 90 269 L90 754 L175 754 L175 292 Z M359 -68 Q383 -68 400 -85 Q417 -102 417 -125 Q417 -149 400 -166 Q383 -183 359 -183 Q336 -183 319 -166 Q302 -149 302 -124 Q302 -101 319 -84.5 Q336 -68 359 -68 Z " />
<glyph glyph-name="uni1EF4" unicode="&#x1ef4;" horiz-adv-x="581" d="M97 754 L289 417 L484 754 L582 754 L331 324 L331 0 L246 0 L246 324 L0 754 L97 754 Z M290 -68 Q314 -68 331 -85 Q348 -102 348 -125 Q348 -149 331 -166 Q314 -183 290 -183 Q267 -183 250 -166 Q233 -149 233 -124 Q233 -101 250 -84.5 Q267 -68 290 -68 Z " />
<glyph glyph-name="uni1EF6" unicode="&#x1ef6;" horiz-adv-x="581" d="M259 920 Q286 925 294 925 Q330 930 343.5 939.5 Q357 949 357 970 Q357 992 341 1004 Q325 1016 297 1016 Q282 1016 276 1014.5 Q270 1013 253 1005 L235 996 L220 1032 Q251 1044 273.5 1048.5 Q296 1053 320 1053 Q367 1053 397 1028.5 Q427 1004 427 965 Q427 932 403.5 913 Q380 894 339 894 Q318 894 304 895 L304 851 L259 851 L259 920 Z M97 754 L289 417 L484 754 L582 754 L331 324 L331 0 L246 0 L246 324 L0 754 L97 754 Z " />
<glyph glyph-name="uni1EF8" unicode="&#x1ef8;" horiz-adv-x="581" d="M124 881 Q144 920 169.5 941 Q195 962 225 962 Q240 962 254.5 957 Q269 952 297 938 Q342 915 358 915 Q374 915 385.5 926 Q397 937 410 964 L459 927 Q439 885 413.5 865 Q388 845 355 845 Q327 845 283 869 Q255 883 242 887.5 Q229 892 219 892 Q205 892 196 882.5 Q187 873 173 843 L124 881 Z M97 754 L289 417 L484 754 L582 754 L331 324 L331 0 L246 0 L246 324 L0 754 L97 754 Z " />
<glyph glyph-name="a" unicode="a" horiz-adv-x="580" d="M508 469 L508 0 L428 0 L428 66 Q394 25 355 5.5 Q316 -14 267 -14 Q202 -14 150.5 18.5 Q99 51 70 108 Q41 165 41 236 Q41 305 70 361 Q99 417 150 448.5 Q201 480 264 480 Q315 480 354.5 461.5 Q394 443 428 402 L428 469 L508 469 Z M278 407 Q235 407 199.5 384.5 Q164 362 143.5 323 Q123 284 123 237 Q123 186 143 145.5 Q163 105 198 82.5 Q233 60 277 60 Q347 60 390.5 109 Q434 158 434 235 Q434 311 390.5 359 Q347 407 278 407 Z " />
<glyph glyph-name="aacute" unicode="&#xe1;" horiz-adv-x="580" d="M284 550 L233 579 L351 741 L435 704 L284 550 Z M508 469 L508 0 L428 0 L428 66 Q394 25 355 5.5 Q316 -14 267 -14 Q202 -14 150.5 18.5 Q99 51 70 108 Q41 165 41 236 Q41 305 70 361 Q99 417 150 448.5 Q201 480 264 480 Q315 480 354.5 461.5 Q394 443 428 402 L428 469 L508 469 Z M278 407 Q235 407 199.5 384.5 Q164 362 143.5 323 Q123 284 123 237 Q123 186 143 145.5 Q163 105 198 82.5 Q233 60 277 60 Q347 60 390.5 109 Q434 158 434 235 Q434 311 390.5 359 Q347 407 278 407 Z " />
<glyph glyph-name="abreve" unicode="&#x103;" horiz-adv-x="580" d="M215 715 Q218 678 238 657 Q258 636 292 636 Q324 636 344.5 656.5 Q365 677 371 715 L441 715 Q434 648 393.5 608 Q353 568 292 568 Q228 568 187 608.5 Q146 649 145 715 L215 715 Z M508 469 L508 0 L428 0 L428 66 Q394 25 355 5.5 Q316 -14 267 -14 Q202 -14 150.5 18.5 Q99 51 70 108 Q41 165 41 236 Q41 305 70 361 Q99 417 150 448.5 Q201 480 264 480 Q315 480 354.5 461.5 Q394 443 428 402 L428 469 L508 469 Z M278 407 Q235 407 199.5 384.5 Q164 362 143.5 323 Q123 284 123 237 Q123 186 143 145.5 Q163 105 198 82.5 Q233 60 277 60 Q347 60 390.5 109 Q434 158 434 235 Q434 311 390.5 359 Q347 407 278 407 Z " />
<glyph glyph-name="acircumflex" unicode="&#xe2;" horiz-adv-x="580" d="M292 741 L449 594 L391 550 L292 644 L193 550 L137 594 L292 741 Z M508 469 L508 0 L428 0 L428 66 Q394 25 355 5.5 Q316 -14 267 -14 Q202 -14 150.5 18.5 Q99 51 70 108 Q41 165 41 236 Q41 305 70 361 Q99 417 150 448.5 Q201 480 264 480 Q315 480 354.5 461.5 Q394 443 428 402 L428 469 L508 469 Z M278 407 Q235 407 199.5 384.5 Q164 362 143.5 323 Q123 284 123 237 Q123 186 143 145.5 Q163 105 198 82.5 Q233 60 277 60 Q347 60 390.5 109 Q434 158 434 235 Q434 311 390.5 359 Q347 407 278 407 Z " />
<glyph glyph-name="adieresis" unicode="&#xe4;" horiz-adv-x="580" d="M194 689 Q218 689 234.5 672.5 Q251 656 251 633 Q251 610 234 593 Q217 576 194 576 Q171 576 154.5 592.5 Q138 609 138 634 Q138 656 154.5 672.5 Q171 689 194 689 Z M391 689 Q415 689 431 672.5 Q447 656 447 633 Q447 609 431 592.5 Q415 576 391 576 Q367 576 350.5 593 Q334 610 334 634 Q334 656 351 672.5 Q368 689 391 689 Z M508 469 L508 0 L428 0 L428 66 Q394 25 355 5.5 Q316 -14 267 -14 Q202 -14 150.5 18.5 Q99 51 70 108 Q41 165 41 236 Q41 305 70 361 Q99 417 150 448.5 Q201 480 264 480 Q315 480 354.5 461.5 Q394 443 428 402 L428 469 L508 469 Z M278 407 Q235 407 199.5 384.5 Q164 362 143.5 323 Q123 284 123 237 Q123 186 143 145.5 Q163 105 198 82.5 Q233 60 277 60 Q347 60 390.5 109 Q434 158 434 235 Q434 311 390.5 359 Q347 407 278 407 Z " />
<glyph glyph-name="agrave" unicode="&#xe0;" horiz-adv-x="580" d="M237 741 L356 579 L306 550 L154 704 L237 741 Z M508 469 L508 0 L428 0 L428 66 Q394 25 355 5.5 Q316 -14 267 -14 Q202 -14 150.5 18.5 Q99 51 70 108 Q41 165 41 236 Q41 305 70 361 Q99 417 150 448.5 Q201 480 264 480 Q315 480 354.5 461.5 Q394 443 428 402 L428 469 L508 469 Z M278 407 Q235 407 199.5 384.5 Q164 362 143.5 323 Q123 284 123 237 Q123 186 143 145.5 Q163 105 198 82.5 Q233 60 277 60 Q347 60 390.5 109 Q434 158 434 235 Q434 311 390.5 359 Q347 407 278 407 Z " />
<glyph glyph-name="amacron" unicode="&#x101;" horiz-adv-x="580" d="M444 663 L444 596 L141 596 L141 663 L444 663 Z M508 469 L508 0 L428 0 L428 66 Q394 25 355 5.5 Q316 -14 267 -14 Q202 -14 150.5 18.5 Q99 51 70 108 Q41 165 41 236 Q41 305 70 361 Q99 417 150 448.5 Q201 480 264 480 Q315 480 354.5 461.5 Q394 443 428 402 L428 469 L508 469 Z M278 407 Q235 407 199.5 384.5 Q164 362 143.5 323 Q123 284 123 237 Q123 186 143 145.5 Q163 105 198 82.5 Q233 60 277 60 Q347 60 390.5 109 Q434 158 434 235 Q434 311 390.5 359 Q347 407 278 407 Z " />
<glyph glyph-name="aogonek" unicode="&#x105;" horiz-adv-x="580" d="M508 0 Q466 -30 447 -53.5 Q428 -77 428 -98 Q428 -116 440 -128 Q452 -140 471 -140 Q486 -140 499 -137 Q512 -134 529 -125 L519 -188 Q503 -196 489.5 -199 Q476 -202 459 -202 Q417 -202 388.5 -176.5 Q360 -151 360 -114 Q360 -55 445 0 L428 0 L428 66 Q394 25 355 5.5 Q316 -14 267 -14 Q202 -14 150.5 18.5 Q99 51 70 108 Q41 165 41 236 Q41 305 70 361 Q99 417 150 448.5 Q201 480 264 480 Q315 480 354.5 461.5 Q394 443 428 402 L428 469 L508 469 L508 0 Z M278 407 Q235 407 199.5 384.5 Q164 362 143.5 323 Q123 284 123 237 Q123 186 143 145.5 Q163 105 198 82.5 Q233 60 277 60 Q347 60 390.5 109 Q434 158 434 235 Q434 311 390.5 359 Q347 407 278 407 Z " />
<glyph glyph-name="aring" unicode="&#xe5;" horiz-adv-x="580" d="M293 751 Q335 751 365 721.5 Q395 692 395 650 Q395 607 365 577 Q335 547 293 547 Q250 547 220 577 Q190 607 190 651 Q190 692 220 721.5 Q250 751 293 751 Z M293 696 Q273 696 259 682.5 Q245 669 245 650 Q245 631 259.5 616.5 Q274 602 293 602 Q312 602 326 616 Q340 630 340 650 Q340 669 326.5 682.5 Q313 696 293 696 Z M508 469 L508 0 L428 0 L428 66 Q394 25 355 5.5 Q316 -14 267 -14 Q202 -14 150.5 18.5 Q99 51 70 108 Q41 165 41 236 Q41 305 70 361 Q99 417 150 448.5 Q201 480 264 480 Q315 480 354.5 461.5 Q394 443 428 402 L428 469 L508 469 Z M278 407 Q235 407 199.5 384.5 Q164 362 143.5 323 Q123 284 123 237 Q123 186 143 145.5 Q163 105 198 82.5 Q233 60 277 60 Q347 60 390.5 109 Q434 158 434 235 Q434 311 390.5 359 Q347 407 278 407 Z " />
<glyph glyph-name="aringacute" unicode="&#x1fb;" horiz-adv-x="580" d="M209 728 L159 756 L278 920 L362 881 L209 728 Z M293 751 Q335 751 365 721.5 Q395 692 395 650 Q395 607 365 577 Q335 547 293 547 Q250 547 220 577 Q190 607 190 651 Q190 692 220 721.5 Q250 751 293 751 Z M293 696 Q273 696 259 682.5 Q245 669 245 650 Q245 631 259.5 616.5 Q274 602 293 602 Q312 602 326 616 Q340 630 340 650 Q340 669 326.5 682.5 Q313 696 293 696 Z M508 469 L508 0 L428 0 L428 66 Q394 25 355 5.5 Q316 -14 267 -14 Q202 -14 150.5 18.5 Q99 51 70 108 Q41 165 41 236 Q41 305 70 361 Q99 417 150 448.5 Q201 480 264 480 Q315 480 354.5 461.5 Q394 443 428 402 L428 469 L508 469 Z M278 407 Q235 407 199.5 384.5 Q164 362 143.5 323 Q123 284 123 237 Q123 186 143 145.5 Q163 105 198 82.5 Q233 60 277 60 Q347 60 390.5 109 Q434 158 434 235 Q434 311 390.5 359 Q347 407 278 407 Z " />
<glyph glyph-name="atilde" unicode="&#xe3;" horiz-adv-x="580" d="M133 610 Q146 648 171.5 669 Q197 690 229 690 Q246 690 263 685 Q280 680 301 667 Q324 653 333.5 648.5 Q343 644 353 644 Q369 644 380.5 655 Q392 666 406 693 L452 657 Q438 619 411 596.5 Q384 574 353 574 Q339 574 325.5 579 Q312 584 288 598 Q266 611 252 616 Q238 621 227 621 Q210 621 199 609.5 Q188 598 180 572 L133 610 Z M508 469 L508 0 L428 0 L428 66 Q394 25 355 5.5 Q316 -14 267 -14 Q202 -14 150.5 18.5 Q99 51 70 108 Q41 165 41 236 Q41 305 70 361 Q99 417 150 448.5 Q201 480 264 480 Q315 480 354.5 461.5 Q394 443 428 402 L428 469 L508 469 Z M278 407 Q235 407 199.5 384.5 Q164 362 143.5 323 Q123 284 123 237 Q123 186 143 145.5 Q163 105 198 82.5 Q233 60 277 60 Q347 60 390.5 109 Q434 158 434 235 Q434 311 390.5 359 Q347 407 278 407 Z " />
<glyph glyph-name="ae" unicode="&#xe6;" horiz-adv-x="857" d="M451 218 Q456 146 496.5 103 Q537 60 600 60 Q646 60 680 83 Q714 106 745 158 L812 119 Q771 49 720.5 17.5 Q670 -14 600 -14 Q542 -14 495 10 Q448 34 417 80 Q387 31 345.5 8.5 Q304 -14 241 -14 Q150 -14 95 28 Q40 70 40 138 Q40 171 55.5 203 Q71 235 99 257 Q123 275 158 285 Q193 295 233 295 Q275 295 303.5 286.5 Q332 278 368 254 Q367 333 335 370.5 Q303 408 235 408 Q203 408 171 401.5 Q139 395 90 380 L90 454 Q144 470 174.5 475 Q205 480 241 480 Q302 480 347.5 455 Q393 430 414 385 Q440 429 488.5 454.5 Q537 480 594 480 Q665 480 716 446.5 Q767 413 792.5 356.5 Q818 300 818 231 L818 218 L451 218 Z M732 287 Q722 344 686 376 Q650 408 596 408 Q486 408 458 287 L732 287 Z M242 221 Q187 221 153 199 Q119 177 119 141 Q119 105 151.5 82.5 Q184 60 238 60 Q293 60 328.5 83.5 Q364 107 364 144 Q364 178 329.5 199.5 Q295 221 242 221 Z " />
<glyph glyph-name="aeacute" unicode="&#x1fd;" horiz-adv-x="857" d="M397 550 L346 579 L464 741 L548 704 L397 550 Z M451 218 Q456 146 496.5 103 Q537 60 600 60 Q646 60 680 83 Q714 106 745 158 L812 119 Q771 49 720.5 17.5 Q670 -14 600 -14 Q542 -14 495 10 Q448 34 417 80 Q387 31 345.5 8.5 Q304 -14 241 -14 Q150 -14 95 28 Q40 70 40 138 Q40 171 55.5 203 Q71 235 99 257 Q123 275 158 285 Q193 295 233 295 Q275 295 303.5 286.5 Q332 278 368 254 Q367 333 335 370.5 Q303 408 235 408 Q203 408 171 401.5 Q139 395 90 380 L90 454 Q144 470 174.5 475 Q205 480 241 480 Q302 480 347.5 455 Q393 430 414 385 Q440 429 488.5 454.5 Q537 480 594 480 Q665 480 716 446.5 Q767 413 792.5 356.5 Q818 300 818 231 L818 218 L451 218 Z M732 287 Q722 344 686 376 Q650 408 596 408 Q486 408 458 287 L732 287 Z M242 221 Q187 221 153 199 Q119 177 119 141 Q119 105 151.5 82.5 Q184 60 238 60 Q293 60 328.5 83.5 Q364 107 364 144 Q364 178 329.5 199.5 Q295 221 242 221 Z " />
<glyph glyph-name="b" unicode="b" horiz-adv-x="580" d="M153 402 Q188 442 227 460.5 Q266 479 316 479 Q380 479 431 447.5 Q482 416 511 360.5 Q540 305 540 235 Q540 164 510.5 107.5 Q481 51 429.5 18.5 Q378 -14 314 -14 Q218 -14 153 64 L153 0 L72 0 L72 824 L153 824 L153 402 Z M304 406 Q234 406 190.5 358.5 Q147 311 147 234 Q147 157 190.5 108.5 Q234 60 303 60 Q346 60 381.5 82.5 Q417 105 437.5 144 Q458 183 458 232 Q458 281 438 321 Q418 361 383 383.5 Q348 406 304 406 Z " />
<glyph glyph-name="c" unicode="c" horiz-adv-x="478" d="M435 329 Q396 371 363 388.5 Q330 406 288 406 Q241 406 203 383.5 Q165 361 143.5 321 Q122 281 122 233 Q122 184 143.5 144.5 Q165 105 202.5 82.5 Q240 60 286 60 Q330 60 364 78 Q398 96 438 141 L438 35 Q395 8 361.5 -3 Q328 -14 288 -14 Q219 -14 162.5 18.5 Q106 51 73 107.5 Q40 164 40 232 Q40 301 73 357.5 Q106 414 163 446.5 Q220 479 289 479 Q331 479 364.5 469 Q398 459 435 435 L435 329 Z " />
<glyph glyph-name="cacute" unicode="&#x107;" horiz-adv-x="479" d="M278 550 L228 579 L347 741 L431 704 L278 550 Z M435 329 Q396 371 363 388.5 Q330 406 288 406 Q241 406 203 383.5 Q165 361 143.5 321 Q122 281 122 233 Q122 184 143.5 144.5 Q165 105 202.5 82.5 Q240 60 286 60 Q330 60 364 78 Q398 96 438 141 L438 35 Q395 8 361.5 -3 Q328 -14 288 -14 Q219 -14 162.5 18.5 Q106 51 73 107.5 Q40 164 40 232 Q40 301 73 357.5 Q106 414 163 446.5 Q220 479 289 479 Q331 479 364.5 469 Q398 459 435 435 L435 329 Z " />
<glyph glyph-name="ccaron" unicode="&#x10d;" horiz-adv-x="479" d="M285 550 L128 697 L185 741 L285 649 L384 741 L441 697 L285 550 Z M435 329 Q396 371 363 388.5 Q330 406 288 406 Q241 406 203 383.5 Q165 361 143.5 321 Q122 281 122 233 Q122 184 143.5 144.5 Q165 105 202.5 82.5 Q240 60 286 60 Q330 60 364 78 Q398 96 438 141 L438 35 Q395 8 361.5 -3 Q328 -14 288 -14 Q219 -14 162.5 18.5 Q106 51 73 107.5 Q40 164 40 232 Q40 301 73 357.5 Q106 414 163 446.5 Q220 479 289 479 Q331 479 364.5 469 Q398 459 435 435 L435 329 Z " />
<glyph glyph-name="ccedilla" unicode="&#xe7;" horiz-adv-x="478" d="M435 329 Q396 371 363 388.5 Q330 406 288 406 Q241 406 203 383.5 Q165 361 143.5 321 Q122 281 122 233 Q122 184 143.5 144.5 Q165 105 202.5 82.5 Q240 60 286 60 Q330 60 364 78 Q398 96 438 141 L438 35 Q395 8 361.5 -3 Q328 -14 288 -14 Q219 -14 162.5 18.5 Q106 51 73 107.5 Q40 164 40 232 Q40 301 73 357.5 Q106 414 163 446.5 Q220 479 289 479 Q331 479 364.5 469 Q398 459 435 435 L435 329 Z M217 -228 L162 -200 L257 -53 L331 -84 L217 -228 Z " />
<glyph glyph-name="ccircumflex" unicode="&#x109;" horiz-adv-x="478" d="M270 741 L427 594 L368 550 L270 644 L171 550 L114 594 L270 741 Z M435 329 Q396 371 363 388.5 Q330 406 288 406 Q241 406 203 383.5 Q165 361 143.5 321 Q122 281 122 233 Q122 184 143.5 144.5 Q165 105 202.5 82.5 Q240 60 286 60 Q330 60 364 78 Q398 96 438 141 L438 35 Q395 8 361.5 -3 Q328 -14 288 -14 Q219 -14 162.5 18.5 Q106 51 73 107.5 Q40 164 40 232 Q40 301 73 357.5 Q106 414 163 446.5 Q220 479 289 479 Q331 479 364.5 469 Q398 459 435 435 L435 329 Z " />
<glyph glyph-name="cdotaccent" unicode="&#x10b;" horiz-adv-x="478" d="M284 689 Q307 689 324 672 Q341 655 341 632 Q341 608 324 591 Q307 574 284 574 Q260 574 243 591 Q226 608 226 633 Q226 656 243 672.5 Q260 689 284 689 Z M435 329 Q396 371 363 388.5 Q330 406 288 406 Q241 406 203 383.5 Q165 361 143.5 321 Q122 281 122 233 Q122 184 143.5 144.5 Q165 105 202.5 82.5 Q240 60 286 60 Q330 60 364 78 Q398 96 438 141 L438 35 Q395 8 361.5 -3 Q328 -14 288 -14 Q219 -14 162.5 18.5 Q106 51 73 107.5 Q40 164 40 232 Q40 301 73 357.5 Q106 414 163 446.5 Q220 479 289 479 Q331 479 364.5 469 Q398 459 435 435 L435 329 Z " />
<glyph glyph-name="d" unicode="d" horiz-adv-x="580" d="M508 824 L508 0 L427 0 L427 64 Q398 26 357 6 Q316 -14 267 -14 Q203 -14 151.5 18.5 Q100 51 70.5 107.5 Q41 164 41 235 Q41 304 70 360 Q99 416 150 447.5 Q201 479 264 479 Q314 479 353.5 460.5 Q393 442 428 402 L428 824 L508 824 Z M278 406 Q235 406 199.5 383.5 Q164 361 143.5 322.5 Q123 284 123 237 Q123 186 143 145.5 Q163 105 198 82.5 Q233 60 277 60 Q347 60 390 108 Q433 156 433 235 Q433 279 421.5 310 Q410 341 385 363 Q363 383 335 394.5 Q307 406 278 406 Z " />
<glyph glyph-name="eth" unicode="&#xf0;" horiz-adv-x="577" d="M112 826 Q155 815 205 793.5 Q255 772 289 751 L414 814 L461 768 L345 709 Q436 626 486.5 505 Q537 384 537 250 Q537 172 506 112 Q475 52 418.5 19 Q362 -14 290 -14 Q220 -14 163 18.5 Q106 51 73.5 107.5 Q41 164 41 233 Q41 302 74 358.5 Q107 415 164.5 447.5 Q222 480 292 480 Q342 480 374 464.5 Q406 449 441 409 Q426 478 379.5 554.5 Q333 631 280 675 L159 611 L108 658 L220 715 Q168 751 79 777 L112 826 Z M288 407 Q242 407 204 384.5 Q166 362 144.5 323 Q123 284 123 236 Q123 185 144 145 Q165 105 202.5 82.5 Q240 60 287 60 Q335 60 373.5 82 Q412 104 433.5 143.5 Q455 183 455 233 Q455 283 433.5 322.5 Q412 362 374 384.5 Q336 407 288 407 Z " />
<glyph glyph-name="dcaron" unicode="&#x10f;" horiz-adv-x="686" d="M692 805 L618 631 L560 649 L614 828 L692 805 Z M508 824 L508 0 L427 0 L427 64 Q398 26 357 6 Q316 -14 267 -14 Q203 -14 151.5 18.5 Q100 51 70.5 107.5 Q41 164 41 235 Q41 304 70 360 Q99 416 150 447.5 Q201 479 264 479 Q314 479 353.5 460.5 Q393 442 428 402 L428 824 L508 824 Z M278 406 Q235 406 199.5 383.5 Q164 361 143.5 322.5 Q123 284 123 237 Q123 186 143 145.5 Q163 105 198 82.5 Q233 60 277 60 Q347 60 390 108 Q433 156 433 235 Q433 279 421.5 310 Q410 341 385 363 Q363 383 335 394.5 Q307 406 278 406 Z " />
<glyph glyph-name="dslash" unicode="&#x111;" horiz-adv-x="580" d="M508 824 L508 719 L576 719 L576 647 L508 647 L508 0 L428 0 L428 64 Q395 24 355.5 5 Q316 -14 266 -14 Q202 -14 150.5 18.5 Q99 51 69.5 107.5 Q40 164 40 235 Q40 305 69 360.5 Q98 416 148.5 447.5 Q199 479 263 479 Q314 479 353.5 460.5 Q393 442 428 402 L428 647 L292 647 L292 719 L428 719 L428 824 L508 824 Z M277 406 Q234 406 198.5 383.5 Q163 361 142.5 322.5 Q122 284 122 237 Q122 186 141.5 145.5 Q161 105 196.5 82.5 Q232 60 276 60 Q346 60 390 109 Q434 158 434 235 Q434 311 390.5 358.5 Q347 406 277 406 Z " />
<glyph glyph-name="e" unicode="e" horiz-adv-x="529" d="M124 218 Q128 146 169 103 Q210 60 273 60 Q320 60 352 82 Q384 104 418 158 L486 120 Q447 51 394 18.5 Q341 -14 270 -14 Q203 -14 150.5 17 Q98 48 69 104 Q40 160 40 232 Q40 305 68.5 361 Q97 417 148.5 448 Q200 479 267 479 Q334 479 384.5 448.5 Q435 418 462.5 362 Q490 306 490 232 L490 218 L124 218 Z M406 286 Q395 341 357.5 374 Q320 407 268 407 Q217 407 177.5 372.5 Q138 338 130 286 L406 286 Z " />
<glyph glyph-name="eacute" unicode="&#xe9;" horiz-adv-x="530" d="M267 550 L216 579 L336 741 L419 704 L267 550 Z M124 218 Q128 146 169 103 Q210 60 273 60 Q320 60 352 82 Q384 104 418 158 L486 120 Q447 51 394 18.5 Q341 -14 270 -14 Q203 -14 150.5 17 Q98 48 69 104 Q40 160 40 232 Q40 305 68.5 361 Q97 417 148.5 448 Q200 479 267 479 Q334 479 384.5 448.5 Q435 418 462.5 362 Q490 306 490 232 L490 218 L124 218 Z M406 286 Q395 341 357.5 374 Q320 407 268 407 Q217 407 177.5 372.5 Q138 338 130 286 L406 286 Z " />
<glyph glyph-name="ebreve" unicode="&#x115;" horiz-adv-x="530" d="M200 715 Q204 678 224 657 Q244 636 277 636 Q309 636 329.5 656.5 Q350 677 356 715 L426 715 Q419 648 378.5 608 Q338 568 277 568 Q213 568 172 608.5 Q131 649 130 715 L200 715 Z M124 218 Q128 146 169 103 Q210 60 273 60 Q320 60 352 82 Q384 104 418 158 L486 120 Q447 51 394 18.5 Q341 -14 270 -14 Q203 -14 150.5 17 Q98 48 69 104 Q40 160 40 232 Q40 305 68.5 361 Q97 417 148.5 448 Q200 479 267 479 Q334 479 384.5 448.5 Q435 418 462.5 362 Q490 306 490 232 L490 218 L124 218 Z M406 286 Q395 341 357.5 374 Q320 407 268 407 Q217 407 177.5 372.5 Q138 338 130 286 L406 286 Z " />
<glyph glyph-name="ecaron" unicode="&#x11b;" horiz-adv-x="530" d="M277 550 L120 697 L177 741 L277 649 L376 741 L433 697 L277 550 Z M124 218 Q128 146 169 103 Q210 60 273 60 Q320 60 352 82 Q384 104 418 158 L486 120 Q447 51 394 18.5 Q341 -14 270 -14 Q203 -14 150.5 17 Q98 48 69 104 Q40 160 40 232 Q40 305 68.5 361 Q97 417 148.5 448 Q200 479 267 479 Q334 479 384.5 448.5 Q435 418 462.5 362 Q490 306 490 232 L490 218 L124 218 Z M406 286 Q395 341 357.5 374 Q320 407 268 407 Q217 407 177.5 372.5 Q138 338 130 286 L406 286 Z " />
<glyph glyph-name="ecircumflex" unicode="&#xea;" horiz-adv-x="530" d="M276 741 L433 594 L375 550 L276 644 L176 550 L120 594 L276 741 Z M124 218 Q128 146 169 103 Q210 60 273 60 Q320 60 352 82 Q384 104 418 158 L486 120 Q447 51 394 18.5 Q341 -14 270 -14 Q203 -14 150.5 17 Q98 48 69 104 Q40 160 40 232 Q40 305 68.5 361 Q97 417 148.5 448 Q200 479 267 479 Q334 479 384.5 448.5 Q435 418 462.5 362 Q490 306 490 232 L490 218 L124 218 Z M406 286 Q395 341 357.5 374 Q320 407 268 407 Q217 407 177.5 372.5 Q138 338 130 286 L406 286 Z " />
<glyph glyph-name="edieresis" unicode="&#xeb;" horiz-adv-x="530" d="M179 689 Q202 689 218.5 672.5 Q235 656 235 633 Q235 610 218.5 593 Q202 576 179 576 Q155 576 138.5 592.5 Q122 609 122 634 Q122 656 139 672.5 Q156 689 179 689 Z M374 689 Q398 689 414.5 672.5 Q431 656 431 633 Q431 609 414.5 592.5 Q398 576 374 576 Q350 576 334 593 Q318 610 318 634 Q318 656 335 672.5 Q352 689 374 689 Z M124 218 Q128 146 169 103 Q210 60 273 60 Q320 60 352 82 Q384 104 418 158 L486 120 Q447 51 394 18.5 Q341 -14 270 -14 Q203 -14 150.5 17 Q98 48 69 104 Q40 160 40 232 Q40 305 68.5 361 Q97 417 148.5 448 Q200 479 267 479 Q334 479 384.5 448.5 Q435 418 462.5 362 Q490 306 490 232 L490 218 L124 218 Z M406 286 Q395 341 357.5 374 Q320 407 268 407 Q217 407 177.5 372.5 Q138 338 130 286 L406 286 Z " />
<glyph glyph-name="edotaccent" unicode="&#x117;" horiz-adv-x="530" d="M276 689 Q299 689 316 672 Q333 655 333 632 Q333 608 316 591 Q299 574 276 574 Q252 574 235 591 Q218 608 218 633 Q218 656 235 672.5 Q252 689 276 689 Z M124 218 Q128 146 169 103 Q210 60 273 60 Q320 60 352 82 Q384 104 418 158 L486 120 Q447 51 394 18.5 Q341 -14 270 -14 Q203 -14 150.5 17 Q98 48 69 104 Q40 160 40 232 Q40 305 68.5 361 Q97 417 148.5 448 Q200 479 267 479 Q334 479 384.5 448.5 Q435 418 462.5 362 Q490 306 490 232 L490 218 L124 218 Z M406 286 Q395 341 357.5 374 Q320 407 268 407 Q217 407 177.5 372.5 Q138 338 130 286 L406 286 Z " />
<glyph glyph-name="egrave" unicode="&#xe8;" horiz-adv-x="530" d="M217 741 L336 579 L286 550 L133 704 L217 741 Z M124 218 Q128 146 169 103 Q210 60 273 60 Q320 60 352 82 Q384 104 418 158 L486 120 Q447 51 394 18.5 Q341 -14 270 -14 Q203 -14 150.5 17 Q98 48 69 104 Q40 160 40 232 Q40 305 68.5 361 Q97 417 148.5 448 Q200 479 267 479 Q334 479 384.5 448.5 Q435 418 462.5 362 Q490 306 490 232 L490 218 L124 218 Z M406 286 Q395 341 357.5 374 Q320 407 268 407 Q217 407 177.5 372.5 Q138 338 130 286 L406 286 Z " />
<glyph glyph-name="emacron" unicode="&#x113;" horiz-adv-x="530" d="M428 663 L428 596 L124 596 L124 663 L428 663 Z M124 218 Q128 146 169 103 Q210 60 273 60 Q320 60 352 82 Q384 104 418 158 L486 120 Q447 51 394 18.5 Q341 -14 270 -14 Q203 -14 150.5 17 Q98 48 69 104 Q40 160 40 232 Q40 305 68.5 361 Q97 417 148.5 448 Q200 479 267 479 Q334 479 384.5 448.5 Q435 418 462.5 362 Q490 306 490 232 L490 218 L124 218 Z M406 286 Q395 341 357.5 374 Q320 407 268 407 Q217 407 177.5 372.5 Q138 338 130 286 L406 286 Z " />
<glyph glyph-name="eogonek" unicode="&#x119;" horiz-adv-x="530" d="M426 -188 Q398 -202 366 -202 Q324 -202 295.5 -176 Q267 -150 267 -110 Q267 -84 281.5 -60.5 Q296 -37 332 -6 Q296 -14 273 -14 Q204 -14 151 17 Q98 48 69 104 Q40 160 40 232 Q40 305 68.5 361 Q97 417 148.5 448 Q200 479 267 479 Q334 479 384.5 448.5 Q435 418 462.5 362 Q490 306 490 232 L490 218 L124 218 Q128 146 169 103 Q210 60 273 60 Q320 60 352 82 Q384 104 418 158 L486 120 Q473 96 456.5 76 Q440 56 406 21 Q383 -1 372.5 -12.5 Q362 -24 355 -36 Q345 -50 339 -67 Q333 -84 333 -96 Q333 -115 346 -127.5 Q359 -140 377 -140 Q393 -140 405.5 -137 Q418 -134 436 -125 L426 -188 Z M406 286 Q395 341 357.5 374 Q320 407 268 407 Q217 407 177.5 372.5 Q138 338 130 286 L406 286 Z " />
<glyph glyph-name="uni0259" unicode="&#x259;" horiz-adv-x="565" d="M435 247 Q434 278 429.5 298 Q425 318 414 338 Q393 374 356.5 395 Q320 416 279 416 Q231 416 196.5 394 Q162 372 133 325 L56 342 Q87 408 145 444 Q203 480 278 480 Q348 480 403 449 Q458 418 489.5 362.5 Q521 307 521 237 Q521 166 490 109 Q459 52 404 20 Q349 -12 280 -12 Q210 -12 156.5 20.5 Q103 53 73 111.5 Q43 170 43 247 L435 247 Z M130 190 Q142 127 183 89.5 Q224 52 280 52 Q339 52 381 90.5 Q423 129 432 190 L130 190 Z " />
<glyph glyph-name="f" unicode="f" horiz-adv-x="272" d="M159 0 L79 0 L79 394 L35 394 L35 469 L79 469 L79 669 Q79 752 106 788 Q125 812 154 824.5 Q183 837 219 837 Q235 837 247 835 Q259 833 278 827 L278 746 Q261 753 249.5 755 Q238 757 224 757 Q198 757 184 747.5 Q170 738 164.5 715.5 Q159 693 159 650 L159 469 L278 469 L278 394 L159 394 L159 0 Z " />
<glyph glyph-name="g" unicode="g" horiz-adv-x="581" d="M508 10 Q508 -61 498 -100.5 Q488 -140 463 -174 Q431 -215 382.5 -238 Q334 -261 276 -261 Q175 -261 113.5 -202.5 Q52 -144 49 -46 L128 -46 Q130 -75 135 -92 Q140 -109 150 -125 Q168 -154 202.5 -171 Q237 -188 278 -188 Q316 -188 347.5 -172.5 Q379 -157 398 -130 Q428 -89 428 -3 L428 64 Q358 -12 263 -12 Q200 -12 149 20 Q98 52 69 108 Q40 164 40 233 Q40 303 69.5 359.5 Q99 416 150.5 448 Q202 480 267 480 Q365 480 428 402 L428 469 L508 469 L508 10 Z M276 408 Q232 408 196.5 385.5 Q161 363 141.5 323 Q122 283 122 234 Q122 157 164.5 108.5 Q207 60 275 60 Q320 60 356 82 Q392 104 412 143.5 Q432 183 432 233 Q432 322 381 367 Q358 387 331 397.5 Q304 408 276 408 Z " />
<glyph glyph-name="gbreve" unicode="&#x11f;" horiz-adv-x="580" d="M215 715 Q218 678 238 657 Q258 636 292 636 Q324 636 344.5 656.5 Q365 677 372 715 L442 715 Q434 647 393.5 607.5 Q353 568 292 568 Q228 568 187 608.5 Q146 649 145 715 L215 715 Z M508 10 Q508 -59 498 -99.5 Q488 -140 463 -174 Q433 -215 384 -238 Q335 -261 277 -261 Q175 -261 113.5 -203.5 Q52 -146 49 -46 L128 -46 Q130 -75 135 -92 Q140 -109 150 -125 Q169 -154 203 -171 Q237 -188 278 -188 Q352 -188 390 -141 Q428 -94 428 -3 L428 66 Q361 -12 262 -12 Q200 -12 149 20 Q98 52 69 108 Q40 164 40 233 Q40 303 69.5 359.5 Q99 416 150.5 448 Q202 480 267 480 Q316 480 355 461 Q394 442 428 402 L428 469 L508 469 L508 10 Z M276 407 Q232 407 196.5 384.5 Q161 362 141.5 322.5 Q122 283 122 234 Q122 158 164.5 109.5 Q207 61 275 61 Q320 61 356 83 Q392 105 412 144 Q432 183 432 233 Q432 310 388 358.5 Q344 407 276 407 Z " />
<glyph glyph-name="gcaron" unicode="&#x1e7;" horiz-adv-x="580" d="M294 550 L137 697 L194 741 L294 649 L393 741 L450 697 L294 550 Z M508 10 Q508 -59 498 -99.5 Q488 -140 463 -174 Q433 -215 384 -238 Q335 -261 277 -261 Q175 -261 113.5 -203.5 Q52 -146 49 -46 L128 -46 Q130 -75 135 -92 Q140 -109 150 -125 Q169 -154 203 -171 Q237 -188 278 -188 Q352 -188 390 -141 Q428 -94 428 -3 L428 66 Q361 -12 262 -12 Q200 -12 149 20 Q98 52 69 108 Q40 164 40 233 Q40 303 69.5 359.5 Q99 416 150.5 448 Q202 480 267 480 Q316 480 355 461 Q394 442 428 402 L428 469 L508 469 L508 10 Z M276 407 Q232 407 196.5 384.5 Q161 362 141.5 322.5 Q122 283 122 234 Q122 158 164.5 109.5 Q207 61 275 61 Q320 61 356 83 Q392 105 412 144 Q432 183 432 233 Q432 310 388 358.5 Q344 407 276 407 Z " />
<glyph glyph-name="gcircumflex" unicode="&#x11d;" horiz-adv-x="580" d="M293 741 L450 594 L391 550 L293 644 L193 550 L137 594 L293 741 Z M508 10 Q508 -59 498 -99.5 Q488 -140 463 -174 Q433 -215 384 -238 Q335 -261 277 -261 Q175 -261 113.5 -203.5 Q52 -146 49 -46 L128 -46 Q130 -75 135 -92 Q140 -109 150 -125 Q169 -154 203 -171 Q237 -188 278 -188 Q352 -188 390 -141 Q428 -94 428 -3 L428 66 Q361 -12 262 -12 Q200 -12 149 20 Q98 52 69 108 Q40 164 40 233 Q40 303 69.5 359.5 Q99 416 150.5 448 Q202 480 267 480 Q316 480 355 461 Q394 442 428 402 L428 469 L508 469 L508 10 Z M276 407 Q232 407 196.5 384.5 Q161 362 141.5 322.5 Q122 283 122 234 Q122 158 164.5 109.5 Q207 61 275 61 Q320 61 356 83 Q392 105 412 144 Q432 183 432 233 Q432 310 388 358.5 Q344 407 276 407 Z " />
<glyph glyph-name="uni0123" unicode="&#x123;" horiz-adv-x="580" d="M243 576 L316 749 L374 731 L321 553 L243 576 Z M508 10 Q508 -59 498 -99.5 Q488 -140 463 -174 Q433 -215 384 -238 Q335 -261 277 -261 Q175 -261 113.5 -203.5 Q52 -146 49 -46 L128 -46 Q130 -75 135 -92 Q140 -109 150 -125 Q169 -154 203 -171 Q237 -188 278 -188 Q352 -188 390 -141 Q428 -94 428 -3 L428 66 Q361 -12 262 -12 Q200 -12 149 20 Q98 52 69 108 Q40 164 40 233 Q40 303 69.5 359.5 Q99 416 150.5 448 Q202 480 267 480 Q316 480 355 461 Q394 442 428 402 L428 469 L508 469 L508 10 Z M276 407 Q232 407 196.5 384.5 Q161 362 141.5 322.5 Q122 283 122 234 Q122 158 164.5 109.5 Q207 61 275 61 Q320 61 356 83 Q392 105 412 144 Q432 183 432 233 Q432 310 388 358.5 Q344 407 276 407 Z " />
<glyph glyph-name="gdotaccent" unicode="&#x121;" horiz-adv-x="580" d="M293 689 Q316 689 333 672 Q350 655 350 632 Q350 608 333 591 Q316 574 293 574 Q269 574 252 591 Q235 608 235 633 Q235 656 252 672.5 Q269 689 293 689 Z M508 10 Q508 -59 498 -99.5 Q488 -140 463 -174 Q433 -215 384 -238 Q335 -261 277 -261 Q175 -261 113.5 -203.5 Q52 -146 49 -46 L128 -46 Q130 -75 135 -92 Q140 -109 150 -125 Q169 -154 203 -171 Q237 -188 278 -188 Q352 -188 390 -141 Q428 -94 428 -3 L428 66 Q361 -12 262 -12 Q200 -12 149 20 Q98 52 69 108 Q40 164 40 233 Q40 303 69.5 359.5 Q99 416 150.5 448 Q202 480 267 480 Q316 480 355 461 Q394 442 428 402 L428 469 L508 469 L508 10 Z M276 407 Q232 407 196.5 384.5 Q161 362 141.5 322.5 Q122 283 122 234 Q122 158 164.5 109.5 Q207 61 275 61 Q320 61 356 83 Q392 105 412 144 Q432 183 432 233 Q432 310 388 358.5 Q344 407 276 407 Z " />
<glyph glyph-name="h" unicode="h" horiz-adv-x="521" d="M153 824 L153 414 Q182 449 213.5 464 Q245 479 287 479 Q330 479 365.5 461.5 Q401 444 421 415 Q436 392 442.5 363.5 Q449 335 449 290 L449 0 L368 0 L368 285 Q368 350 345.5 378 Q323 406 271 406 Q237 406 211 391 Q185 376 172 350 Q162 330 157.5 303 Q153 276 153 234 L153 0 L72 0 L72 824 L153 824 Z " />
<glyph glyph-name="hbar" unicode="&#x127;" horiz-adv-x="519" d="M287 647 L151 647 L151 414 Q181 449 212 464 Q243 479 286 479 Q328 479 364 461.5 Q400 444 420 415 Q435 393 441 364.5 Q447 336 447 290 L447 0 L367 0 L367 285 Q367 350 344.5 378 Q322 406 270 406 Q236 406 210 391 Q184 376 171 350 Q160 330 155.5 302.5 Q151 275 151 234 L151 0 L71 0 L71 647 L3 647 L3 719 L71 719 L71 824 L151 824 L151 719 L287 719 L287 647 Z " />
<glyph glyph-name="hcircumflex" unicode="&#x125;" horiz-adv-x="521" d="M146 1026 L305 890 L245 845 L146 930 L47 845 L-11 892 L146 1026 Z M153 824 L153 414 Q183 449 214 464 Q245 479 288 479 Q330 479 366 462 Q402 445 423 415 Q437 392 443.5 363.5 Q450 335 450 290 L450 0 L370 0 L370 285 Q370 349 347 377.5 Q324 406 272 406 Q238 406 211.5 391 Q185 376 172 350 Q162 330 157.5 303 Q153 276 153 234 L153 0 L72 0 L72 824 L153 824 Z " />
<glyph glyph-name="i" unicode="i" horiz-adv-x="226" d="M113 704 Q137 704 154 687 Q171 670 171 646 Q171 623 154 606 Q137 589 113 589 Q89 589 72 606 Q55 623 55 647 Q55 670 72 687 Q89 704 113 704 Z M153 0 L72 0 L72 469 L153 469 L153 0 Z " />
<glyph glyph-name="dotlessi" unicode="&#x131;" horiz-adv-x="226" d="M153 0 L72 0 L72 469 L153 469 L153 0 Z " />
<glyph glyph-name="iacute" unicode="&#xed;" horiz-adv-x="223" d="M108 550 L62 579 L158 741 L242 704 L108 550 Z M150 0 L70 0 L70 469 L150 469 L150 0 Z " />
<glyph glyph-name="ibreve" unicode="&#x12d;" horiz-adv-x="223" d="M47 712 Q49 676 65 656.5 Q81 637 110 637 Q138 637 155 656.5 Q172 676 175 712 L243 712 Q238 648 201.5 609.5 Q165 571 110 571 Q69 571 33.5 596 Q-2 621 -15 660 Q-18 671 -19 682.5 Q-20 694 -20 712 L47 712 Z M151 0 L71 0 L71 469 L151 469 L151 0 Z " />
<glyph glyph-name="icircumflex" unicode="&#xee;" horiz-adv-x="223" d="M111 741 L245 594 L191 550 L111 644 L31 550 L-23 594 L111 741 Z M151 0 L71 0 L71 469 L151 469 L151 0 Z " />
<glyph glyph-name="idieresis" unicode="&#xef;" horiz-adv-x="223" d="M38 687 Q61 687 77 671 Q93 655 93 633 Q93 611 77 595 Q61 579 38 579 Q15 579 -0.5 595 Q-16 611 -16 634 Q-16 655 0 671 Q16 687 38 687 Z M184 687 Q207 687 222.5 671.5 Q238 656 238 633 Q238 610 222.5 594.5 Q207 579 184 579 Q162 579 146 595 Q130 611 130 634 Q130 655 146 671 Q162 687 184 687 Z M151 0 L71 0 L71 469 L151 469 L151 0 Z " />
<glyph glyph-name="igrave" unicode="&#xec;" horiz-adv-x="223" d="M63 741 L159 579 L113 550 L-20 704 L63 741 Z M151 0 L71 0 L71 469 L151 469 L151 0 Z " />
<glyph glyph-name="ij" unicode="&#x133;" horiz-adv-x="452" d="M113 704 Q137 704 154 687 Q171 670 171 646 Q171 623 154 606 Q137 589 113 589 Q89 589 72 606 Q55 623 55 647 Q55 670 72 687 Q89 704 113 704 Z M153 0 L72 0 L72 469 L153 469 L153 0 Z M339 589 Q315 589 298 606 Q281 623 281 647 Q281 670 298 687 Q315 704 339 704 Q363 704 380 687 Q397 670 397 646 Q397 623 380 606 Q363 589 339 589 Z M257 -263 Q224 -263 203 -251 L203 -171 Q223 -186 249 -186 Q277 -186 287.5 -168 Q298 -150 298 -105 L298 469 L379 469 L379 -110 Q379 -153 371 -181.5 Q363 -210 345 -231 Q313 -263 257 -263 Z " />
<glyph glyph-name="imacron" unicode="&#x12b;" horiz-adv-x="223" d="M233 663 L233 596 L-10 596 L-10 663 L233 663 Z M151 0 L71 0 L71 469 L151 469 L151 0 Z " />
<glyph glyph-name="iogonek" unicode="&#x12f;" horiz-adv-x="223" d="M111 704 Q134 704 151 687 Q168 670 168 646 Q168 623 151 606 Q134 589 111 589 Q87 589 70 606 Q53 623 53 647 Q53 670 70 687 Q87 704 111 704 Z M150 0 Q105 -65 105 -102 Q105 -119 115 -130.5 Q125 -142 140 -142 Q159 -142 181 -129 L173 -188 Q161 -197 152 -200 Q143 -203 129 -203 Q93 -203 65.5 -176.5 Q38 -150 38 -115 Q38 -92 53 -66 Q68 -40 105 0 L70 0 L70 469 L150 469 L150 0 Z " />
<glyph glyph-name="itilde" unicode="&#x129;" horiz-adv-x="226" d="M-47 610 Q-34 648 -8 669 Q18 690 50 690 Q82 690 120 667 Q142 653 152.5 648.5 Q163 644 172 644 Q188 644 199.5 655 Q211 666 225 693 L272 657 Q258 619 231 596.5 Q204 574 173 574 Q159 574 145.5 579 Q132 584 108 598 Q67 621 47 621 Q30 621 18.5 609.5 Q7 598 0 572 L-47 610 Z M153 0 L72 0 L72 469 L153 469 L153 0 Z " />
<glyph glyph-name="j" unicode="j" horiz-adv-x="226" d="M113 589 Q89 589 72 606 Q55 623 55 647 Q55 670 72 687 Q89 704 113 704 Q137 704 154 687 Q171 670 171 646 Q171 623 154 606 Q137 589 113 589 Z M31 -263 Q-2 -263 -23 -251 L-23 -171 Q-3 -186 23 -186 Q51 -186 61.5 -168 Q72 -150 72 -105 L72 469 L153 469 L153 -110 Q153 -153 145 -181.5 Q137 -210 119 -231 Q87 -263 31 -263 Z " />
<glyph glyph-name="uni0237" unicode="&#x237;" horiz-adv-x="226" d="M31 -263 Q-2 -263 -23 -251 L-23 -171 Q-3 -186 23 -186 Q51 -186 61.5 -168 Q72 -150 72 -105 L72 469 L153 469 L153 -110 Q153 -153 145 -181.5 Q137 -210 119 -231 Q87 -263 31 -263 Z " />
<glyph glyph-name="jcircumflex" unicode="&#x135;" horiz-adv-x="226" d="M-44 594 L112 741 L269 594 L210 550 L112 644 L12 550 L-44 594 Z M31 -263 Q-2 -263 -23 -251 L-23 -171 Q-3 -186 23 -186 Q51 -186 61.5 -168 Q72 -150 72 -105 L72 469 L153 469 L153 -110 Q153 -153 145 -181.5 Q137 -210 119 -231 Q87 -263 31 -263 Z " />
<glyph glyph-name="k" unicode="k" horiz-adv-x="464" d="M153 296 L322 469 L429 469 L229 269 L468 0 L362 0 L173 214 L153 193 L153 0 L72 0 L72 824 L153 824 L153 296 Z " />
<glyph glyph-name="uni0137" unicode="&#x137;" horiz-adv-x="463" d="M151 296 L321 469 L428 469 L228 269 L467 0 L360 0 L172 214 L151 193 L151 0 L71 0 L71 824 L151 824 L151 296 Z M293 -84 L218 -258 L160 -240 L214 -60 L293 -84 Z " />
<glyph glyph-name="kgreenlandic" unicode="&#x138;" horiz-adv-x="471" d="M153 296 L322 469 L429 469 L229 269 L468 0 L362 0 L173 214 L153 193 L153 0 L72 0 L72 469 L153 469 L153 296 Z " />
<glyph glyph-name="l" unicode="l" horiz-adv-x="225" d="M153 0 L72 0 L72 824 L153 824 L153 0 Z " />
<glyph glyph-name="lacute" unicode="&#x13a;" horiz-adv-x="223" d="M111 867 L62 899 L174 1050 L246 999 L111 867 Z M151 0 L71 0 L71 824 L151 824 L151 0 Z " />
<glyph glyph-name="lcaron" unicode="&#x13e;" horiz-adv-x="329" d="M336 805 L262 631 L205 649 L258 828 L336 805 Z M151 0 L71 0 L71 824 L151 824 L151 0 Z " />
<glyph glyph-name="uni013C" unicode="&#x13c;" horiz-adv-x="223" d="M150 0 L70 0 L70 824 L150 824 L150 0 Z M154 -84 L80 -258 L23 -240 L76 -60 L154 -84 Z " />
<glyph glyph-name="ldot" unicode="&#x140;" horiz-adv-x="367" d="M151 0 L71 0 L71 824 L151 824 L151 0 Z M301 484 Q331 484 352 463 Q373 442 373 411 Q373 382 351.5 360.5 Q330 339 301 339 Q270 339 249 360.5 Q228 382 228 412 Q228 441 249.5 462.5 Q271 484 301 484 Z " />
<glyph glyph-name="lslash" unicode="&#x142;" horiz-adv-x="223" d="M223 530 L223 444 L150 390 L150 0 L70 0 L70 353 L-1 299 L-1 385 L70 438 L70 824 L150 824 L150 476 L223 530 Z " />
<glyph glyph-name="m" unicode="m" horiz-adv-x="759" d="M153 469 L153 418 Q177 451 204 465.5 Q231 480 269 480 Q311 480 344.5 460.5 Q378 441 398 405 Q419 442 453.5 461 Q488 480 534 480 Q575 480 608.5 463.5 Q642 447 661 417 Q675 395 681 367 Q687 339 687 297 L687 0 L607 0 L607 285 Q607 350 587 378.5 Q567 407 522 407 Q421 407 421 260 L421 0 L341 0 L341 278 Q341 407 254 407 Q228 407 204.5 393 Q181 379 169 356 Q153 323 153 255 L153 0 L72 0 L72 469 L153 469 Z " />
<glyph glyph-name="n" unicode="n" horiz-adv-x="521" d="M153 469 L153 412 Q183 449 213.5 464.5 Q244 480 288 480 Q331 480 367 462.5 Q403 445 423 416 Q437 393 443 364 Q449 335 449 290 L449 0 L368 0 L368 277 Q368 315 365 334.5 Q362 354 353 368 Q342 387 319.5 397.5 Q297 408 269 408 Q208 408 180.5 366.5 Q153 325 153 234 L153 0 L72 0 L72 469 L153 469 Z " />
<glyph glyph-name="nacute" unicode="&#x144;" horiz-adv-x="518" d="M242 550 L192 579 L311 741 L394 704 L242 550 Z M151 469 L151 412 Q182 449 212.5 464.5 Q243 480 287 480 Q330 480 365.5 462.5 Q401 445 421 416 Q435 394 441 365 Q447 336 447 290 L447 0 L367 0 L367 277 Q367 316 364 335 Q361 354 351 368 Q340 387 318 397.5 Q296 408 268 408 Q206 408 178.5 366.5 Q151 325 151 234 L151 0 L71 0 L71 469 L151 469 Z " />
<glyph glyph-name="napostrophe" unicode="&#x149;" horiz-adv-x="655" d="M241 714 L128 459 L73 480 L167 741 L241 714 Z M287 469 L287 412 Q318 450 348.5 465 Q379 480 423 480 Q465 480 501 462.5 Q537 445 557 416 Q571 393 577 364 Q583 335 583 290 L583 0 L503 0 L503 277 Q503 314 499.5 334 Q496 354 487 368 Q476 387 454 397.5 Q432 408 403 408 Q342 408 314.5 366.5 Q287 325 287 234 L287 0 L207 0 L207 469 L287 469 Z " />
<glyph glyph-name="ncaron" unicode="&#x148;" horiz-adv-x="518" d="M252 550 L95 697 L154 741 L252 649 L351 741 L408 697 L252 550 Z M151 469 L151 412 Q182 449 212.5 464.5 Q243 480 287 480 Q330 480 365.5 462.5 Q401 445 421 416 Q435 394 441 365 Q447 336 447 290 L447 0 L367 0 L367 277 Q367 316 364 335 Q361 354 351 368 Q340 387 318 397.5 Q296 408 268 408 Q206 408 178.5 366.5 Q151 325 151 234 L151 0 L71 0 L71 469 L151 469 Z " />
<glyph glyph-name="uni0146" unicode="&#x146;" horiz-adv-x="518" d="M151 469 L151 412 Q182 449 212.5 464.5 Q243 480 287 480 Q330 480 365.5 462.5 Q401 445 421 416 Q435 394 441 365 Q447 336 447 290 L447 0 L367 0 L367 277 Q367 316 364 335 Q361 354 351 368 Q340 387 318 397.5 Q296 408 268 408 Q206 408 178.5 366.5 Q151 325 151 234 L151 0 L71 0 L71 469 L151 469 Z M301 -84 L227 -258 L169 -240 L223 -60 L301 -84 Z " />
<glyph glyph-name="eng" unicode="&#x14b;" horiz-adv-x="521" d="M153 469 L153 412 Q183 449 213.5 464.5 Q244 480 288 480 Q331 480 367 462.5 Q403 445 423 416 Q437 393 443 364 Q449 335 449 290 L449 90 Q449 47 442.5 19 Q436 -9 421 -28 Q403 -52 374.5 -65 Q346 -78 310 -78 Q294 -78 282 -76 Q270 -74 250 -69 L250 12 Q283 2 304 2 Q330 2 343.5 11.5 Q357 21 362.5 43 Q368 65 368 108 L368 277 Q368 315 365 334.5 Q362 354 353 368 Q342 387 319.5 397.5 Q297 408 269 408 Q208 408 180.5 366.5 Q153 325 153 234 L153 0 L72 0 L72 469 L153 469 Z " />
<glyph glyph-name="ntilde" unicode="&#xf1;" horiz-adv-x="518" d="M92 610 Q106 648 131.5 669 Q157 690 189 690 Q222 690 259 667 Q282 653 292 648.5 Q302 644 312 644 Q328 644 339.5 655 Q351 666 364 693 L411 657 Q397 619 370 596.5 Q343 574 312 574 Q299 574 284.5 579 Q270 584 247 598 Q206 621 186 621 Q169 621 157.5 609.5 Q146 598 139 572 L92 610 Z M151 469 L151 412 Q182 449 212.5 464.5 Q243 480 287 480 Q330 480 365.5 462.5 Q401 445 421 416 Q435 394 441 365 Q447 336 447 290 L447 0 L367 0 L367 277 Q367 316 364 335 Q361 354 351 368 Q340 387 318 397.5 Q296 408 268 408 Q206 408 178.5 366.5 Q151 325 151 234 L151 0 L71 0 L71 469 L151 469 Z " />
<glyph glyph-name="o" unicode="o" horiz-adv-x="574" d="M288 479 Q357 479 413.5 446.5 Q470 414 503 357.5 Q536 301 536 233 Q536 165 503 108 Q470 51 412.5 18.5 Q355 -14 286 -14 Q218 -14 161.5 19.5 Q105 53 72.5 110 Q40 167 40 237 Q40 303 73.5 358.5 Q107 414 164 446.5 Q221 479 288 479 Z M287 406 Q240 406 202.5 383.5 Q165 361 143.5 322 Q122 283 122 235 Q122 185 143 145 Q164 105 201.5 82.5 Q239 60 286 60 Q334 60 372 82 Q410 104 431.5 143.5 Q453 183 453 233 Q453 282 431.5 321.5 Q410 361 372 383.5 Q334 406 287 406 Z " />
<glyph glyph-name="oacute" unicode="&#xf3;" horiz-adv-x="575" d="M281 550 L232 579 L350 741 L434 704 L281 550 Z M288 479 Q357 479 413.5 446.5 Q470 414 503 357.5 Q536 301 536 233 Q536 165 503 108 Q470 51 412.5 18.5 Q355 -14 286 -14 Q218 -14 161.5 19.5 Q105 53 72.5 110 Q40 167 40 237 Q40 303 73.5 358.5 Q107 414 164 446.5 Q221 479 288 479 Z M287 406 Q240 406 202.5 383.5 Q165 361 143.5 322 Q122 283 122 235 Q122 185 143 145 Q164 105 201.5 82.5 Q239 60 286 60 Q334 60 372 82 Q410 104 431.5 143.5 Q453 183 453 233 Q453 282 431.5 321.5 Q410 361 372 383.5 Q334 406 287 406 Z " />
<glyph glyph-name="obreve" unicode="&#x14f;" horiz-adv-x="574" d="M209 715 Q213 678 233 657 Q253 636 286 636 Q318 636 338.5 656.5 Q359 677 366 715 L436 715 Q428 647 387.5 607.5 Q347 568 286 568 Q222 568 181 608.5 Q140 649 139 715 L209 715 Z M288 479 Q357 479 413.5 446.5 Q470 414 503 357.5 Q536 301 536 233 Q536 165 503 108 Q470 51 412.5 18.5 Q355 -14 286 -14 Q218 -14 161.5 19.5 Q105 53 72.5 110 Q40 167 40 237 Q40 303 73.5 358.5 Q107 414 164 446.5 Q221 479 288 479 Z M287 406 Q240 406 202.5 383.5 Q165 361 143.5 322 Q122 283 122 235 Q122 185 143 145 Q164 105 201.5 82.5 Q239 60 286 60 Q334 60 372 82 Q410 104 431.5 143.5 Q453 183 453 233 Q453 282 431.5 321.5 Q410 361 372 383.5 Q334 406 287 406 Z " />
<glyph glyph-name="ocircumflex" unicode="&#xf4;" horiz-adv-x="575" d="M290 741 L447 594 L390 550 L290 644 L191 550 L134 594 L290 741 Z M288 479 Q357 479 413.5 446.5 Q470 414 503 357.5 Q536 301 536 233 Q536 165 503 108 Q470 51 412.5 18.5 Q355 -14 286 -14 Q218 -14 161.5 19.5 Q105 53 72.5 110 Q40 167 40 237 Q40 303 73.5 358.5 Q107 414 164 446.5 Q221 479 288 479 Z M287 406 Q240 406 202.5 383.5 Q165 361 143.5 322 Q122 283 122 235 Q122 185 143 145 Q164 105 201.5 82.5 Q239 60 286 60 Q334 60 372 82 Q410 104 431.5 143.5 Q453 183 453 233 Q453 282 431.5 321.5 Q410 361 372 383.5 Q334 406 287 406 Z " />
<glyph glyph-name="odieresis" unicode="&#xf6;" horiz-adv-x="575" d="M190 689 Q213 689 229.5 672.5 Q246 656 246 633 Q246 610 229.5 593 Q213 576 190 576 Q166 576 149.5 592.5 Q133 609 133 634 Q133 656 150 672.5 Q167 689 190 689 Z M385 689 Q409 689 425.5 672.5 Q442 656 442 633 Q442 609 425.5 592.5 Q409 576 385 576 Q362 576 345.5 593 Q329 610 329 634 Q329 656 346 672.5 Q363 689 385 689 Z M288 479 Q357 479 413.5 446.5 Q470 414 503 357.5 Q536 301 536 233 Q536 165 503 108 Q470 51 412.5 18.5 Q355 -14 286 -14 Q218 -14 161.5 19.5 Q105 53 72.5 110 Q40 167 40 237 Q40 303 73.5 358.5 Q107 414 164 446.5 Q221 479 288 479 Z M287 406 Q240 406 202.5 383.5 Q165 361 143.5 322 Q122 283 122 235 Q122 185 143 145 Q164 105 201.5 82.5 Q239 60 286 60 Q334 60 372 82 Q410 104 431.5 143.5 Q453 183 453 233 Q453 282 431.5 321.5 Q410 361 372 383.5 Q334 406 287 406 Z " />
<glyph glyph-name="ograve" unicode="&#xf2;" horiz-adv-x="575" d="M228 741 L347 579 L297 550 L145 704 L228 741 Z M288 479 Q357 479 413.5 446.5 Q470 414 503 357.5 Q536 301 536 233 Q536 165 503 108 Q470 51 412.5 18.5 Q355 -14 286 -14 Q218 -14 161.5 19.5 Q105 53 72.5 110 Q40 167 40 237 Q40 303 73.5 358.5 Q107 414 164 446.5 Q221 479 288 479 Z M287 406 Q240 406 202.5 383.5 Q165 361 143.5 322 Q122 283 122 235 Q122 185 143 145 Q164 105 201.5 82.5 Q239 60 286 60 Q334 60 372 82 Q410 104 431.5 143.5 Q453 183 453 233 Q453 282 431.5 321.5 Q410 361 372 383.5 Q334 406 287 406 Z " />
<glyph glyph-name="ohorn" unicode="&#x1a1;" horiz-adv-x="574" d="M593 479 L523 312 Q536 268 536 234 Q536 166 503 109 Q470 52 413 19 Q356 -14 288 -14 Q220 -14 163 19 Q106 52 73 108.5 Q40 165 40 233 Q40 301 73 357.5 Q106 414 162.5 446.5 Q219 479 287 479 Q345 479 396 455 Q447 431 481 388 L515 503 L593 479 Z M287 406 Q240 406 202.5 383.5 Q165 361 143.5 322 Q122 283 122 235 Q122 185 143 145 Q164 105 201.5 82.5 Q239 60 286 60 Q334 60 372 82 Q410 104 431.5 143.5 Q453 183 453 233 Q453 282 431.5 321.5 Q410 361 372 383.5 Q334 406 287 406 Z " />
<glyph glyph-name="ohungarumlaut" unicode="&#x151;" horiz-adv-x="575" d="M229 550 L188 576 L306 741 L379 706 L229 550 Z M380 550 L338 576 L458 741 L530 706 L380 550 Z M288 479 Q357 479 413.5 446.5 Q470 414 503 357.5 Q536 301 536 233 Q536 165 503 108 Q470 51 412.5 18.5 Q355 -14 286 -14 Q218 -14 161.5 19.5 Q105 53 72.5 110 Q40 167 40 237 Q40 303 73.5 358.5 Q107 414 164 446.5 Q221 479 288 479 Z M287 406 Q240 406 202.5 383.5 Q165 361 143.5 322 Q122 283 122 235 Q122 185 143 145 Q164 105 201.5 82.5 Q239 60 286 60 Q334 60 372 82 Q410 104 431.5 143.5 Q453 183 453 233 Q453 282 431.5 321.5 Q410 361 372 383.5 Q334 406 287 406 Z " />
<glyph glyph-name="omacron" unicode="&#x14d;" horiz-adv-x="575" d="M440 663 L440 596 L136 596 L136 663 L440 663 Z M288 479 Q357 479 413.5 446.5 Q470 414 503 357.5 Q536 301 536 233 Q536 165 503 108 Q470 51 412.5 18.5 Q355 -14 286 -14 Q218 -14 161.5 19.5 Q105 53 72.5 110 Q40 167 40 237 Q40 303 73.5 358.5 Q107 414 164 446.5 Q221 479 288 479 Z M287 406 Q240 406 202.5 383.5 Q165 361 143.5 322 Q122 283 122 235 Q122 185 143 145 Q164 105 201.5 82.5 Q239 60 286 60 Q334 60 372 82 Q410 104 431.5 143.5 Q453 183 453 233 Q453 282 431.5 321.5 Q410 361 372 383.5 Q334 406 287 406 Z " />
<glyph glyph-name="oslash" unicode="&#xf8;" horiz-adv-x="575" d="M89 84 Q40 149 40 235 Q40 302 73 358 Q106 414 163 446.5 Q220 479 288 479 Q332 479 367 467 Q402 455 437 429 L504 497 L549 452 L483 385 Q506 363 521 320 Q536 277 536 232 Q536 165 503 108.5 Q470 52 413 19 Q356 -14 289 -14 Q247 -14 210.5 -1.5 Q174 11 136 37 L68 -29 L23 17 L89 84 Z M381 376 Q361 392 339 399 Q317 406 287 406 Q240 406 202 383.5 Q164 361 143 321 Q122 281 122 231 Q122 203 128 181.5 Q134 160 147 139 L381 376 Z M190 90 Q228 60 287 60 Q334 60 372 82.5 Q410 105 431.5 144.5 Q453 184 453 233 Q453 264 446.5 287 Q440 310 426 332 L190 90 Z " />
<glyph glyph-name="oslashacute" unicode="&#x1ff;" horiz-adv-x="575" d="M269 550 L218 579 L338 741 L420 704 L269 550 Z M89 84 Q40 149 40 235 Q40 302 73 358 Q106 414 163 446.5 Q220 479 288 479 Q332 479 367 467 Q402 455 437 429 L504 497 L549 452 L483 385 Q506 363 521 320 Q536 277 536 232 Q536 165 503 108.5 Q470 52 413 19 Q356 -14 289 -14 Q247 -14 210.5 -1.5 Q174 11 136 37 L68 -29 L23 17 L89 84 Z M381 376 Q361 392 339 399 Q317 406 287 406 Q240 406 202 383.5 Q164 361 143 321 Q122 281 122 231 Q122 203 128 181.5 Q134 160 147 139 L381 376 Z M190 90 Q228 60 287 60 Q334 60 372 82.5 Q410 105 431.5 144.5 Q453 184 453 233 Q453 264 446.5 287 Q440 310 426 332 L190 90 Z " />
<glyph glyph-name="otilde" unicode="&#xf5;" horiz-adv-x="575" d="M137 610 Q151 648 176.5 669 Q202 690 234 690 Q267 690 304 667 Q326 653 336.5 648.5 Q347 644 357 644 Q373 644 384.5 655 Q396 666 409 693 L457 657 Q442 619 415 596.5 Q388 574 357 574 Q344 574 329.5 579.5 Q315 585 293 598 Q251 621 232 621 Q215 621 203 609.5 Q191 598 184 572 L137 610 Z M288 479 Q357 479 413.5 446.5 Q470 414 503 357.5 Q536 301 536 233 Q536 165 503 108 Q470 51 412.5 18.5 Q355 -14 286 -14 Q218 -14 161.5 19.5 Q105 53 72.5 110 Q40 167 40 237 Q40 303 73.5 358.5 Q107 414 164 446.5 Q221 479 288 479 Z M287 406 Q240 406 202.5 383.5 Q165 361 143.5 322 Q122 283 122 235 Q122 185 143 145 Q164 105 201.5 82.5 Q239 60 286 60 Q334 60 372 82 Q410 104 431.5 143.5 Q453 183 453 233 Q453 282 431.5 321.5 Q410 361 372 383.5 Q334 406 287 406 Z " />
<glyph glyph-name="oe" unicode="&#x153;" horiz-adv-x="946" d="M538 219 Q541 149 584 104.5 Q627 60 692 60 Q737 60 771.5 84 Q806 108 833 159 L901 120 Q824 -14 686 -14 Q623 -14 570 17 Q517 48 492 98 Q458 45 404 15.5 Q350 -14 285 -14 Q218 -14 162 19 Q106 52 73 108.5 Q40 165 40 232 Q40 300 73 356.5 Q106 413 163.5 446 Q221 479 289 479 Q354 479 408 449.5 Q462 420 492 368 Q518 420 568 449.5 Q618 479 681 479 Q749 479 800 449 Q851 419 879 363.5 Q907 308 907 235 L907 219 L538 219 Z M286 406 Q240 406 202.5 383.5 Q165 361 143.5 322 Q122 283 122 235 Q122 185 143 145 Q164 105 201 82.5 Q238 60 285 60 Q333 60 371 82 Q409 104 430.5 143 Q452 182 452 231 Q452 281 431 321 Q410 361 372 383.5 Q334 406 286 406 Z M823 287 Q811 344 775 375 Q739 406 684 406 Q628 406 593.5 376.5 Q559 347 545 287 L823 287 Z " />
<glyph glyph-name="p" unicode="p" horiz-adv-x="580" d="M72 -264 L72 469 L153 469 L151 402 Q187 443 226 461.5 Q265 480 314 480 Q379 480 430.5 448 Q482 416 511 359.5 Q540 303 540 232 Q540 162 511 106 Q482 50 431 18 Q380 -14 316 -14 Q266 -14 226.5 5 Q187 24 153 66 L153 -264 L72 -264 Z M304 407 Q259 407 223 384.5 Q187 362 167 322 Q147 282 147 232 Q147 156 191 108 Q235 60 304 60 Q347 60 382 82 Q417 104 437.5 143 Q458 182 458 229 Q458 280 438 320.5 Q418 361 383 384 Q348 407 304 407 Z " />
<glyph glyph-name="thorn" unicode="&#xfe;" horiz-adv-x="580" d="M71 -264 L71 824 L151 824 L151 402 Q216 479 313 479 Q378 479 429.5 447 Q481 415 510 358.5 Q539 302 539 231 Q539 161 510 105.5 Q481 50 430 18 Q379 -14 315 -14 Q266 -14 226 5.5 Q186 25 151 66 L151 -264 L71 -264 Z M303 406 Q234 406 190.5 357.5 Q147 309 147 232 Q147 156 190.5 108 Q234 60 303 60 Q346 60 381 82 Q416 104 436.5 142.5 Q457 181 457 228 Q457 279 437 319.5 Q417 360 382 383 Q347 406 303 406 Z " />
<glyph glyph-name="q" unicode="q" horiz-adv-x="580" d="M428 66 Q393 25 353.5 5.5 Q314 -14 264 -14 Q201 -14 150 18 Q99 50 70 106 Q41 162 41 232 Q41 303 70 359.5 Q99 416 150.5 448 Q202 480 267 480 Q317 480 358 460 Q399 440 427 402 L427 469 L508 469 L508 -264 L428 -264 L428 66 Z M278 407 Q235 407 199.5 384.5 Q164 362 143.5 322.5 Q123 283 123 235 Q123 185 143 145 Q163 105 198 82.5 Q233 60 277 60 Q312 60 343.5 74.5 Q375 89 398 115 Q415 135 424 165.5 Q433 196 433 232 Q433 310 390.5 358.5 Q348 407 278 407 Z " />
<glyph glyph-name="r" unicode="r" horiz-adv-x="322" d="M153 469 L153 418 Q184 455 205 467.5 Q226 480 259 480 Q279 480 294.5 476 Q310 472 330 460 L293 388 Q277 397 267.5 400 Q258 403 245 403 Q222 403 201.5 391 Q181 379 171 360 Q161 344 157 317 Q153 290 153 247 L153 0 L72 0 L72 469 L153 469 Z " />
<glyph glyph-name="racute" unicode="&#x155;" horiz-adv-x="321" d="M174 550 L123 579 L243 741 L327 704 L174 550 Z M151 469 L151 418 Q182 455 203.5 467.5 Q225 480 258 480 Q278 480 293.5 476 Q309 472 329 460 L292 388 Q276 397 266.5 400 Q257 403 244 403 Q221 403 200 391 Q179 379 169 360 Q151 327 151 247 L151 0 L71 0 L71 469 L151 469 Z " />
<glyph glyph-name="rcaron" unicode="&#x159;" horiz-adv-x="321" d="M182 550 L25 697 L82 741 L182 649 L281 741 L338 697 L182 550 Z M151 469 L151 418 Q182 455 203.5 467.5 Q225 480 258 480 Q278 480 293.5 476 Q309 472 329 460 L292 388 Q276 397 266.5 400 Q257 403 244 403 Q221 403 200 391 Q179 379 169 360 Q151 327 151 247 L151 0 L71 0 L71 469 L151 469 Z " />
<glyph glyph-name="uni0157" unicode="&#x157;" horiz-adv-x="321" d="M151 469 L151 418 Q182 455 203.5 467.5 Q225 480 258 480 Q278 480 293.5 476 Q309 472 329 460 L292 388 Q276 397 266.5 400 Q257 403 244 403 Q221 403 200 391 Q179 379 169 360 Q151 327 151 247 L151 0 L71 0 L71 469 L151 469 Z M157 -84 L84 -258 L26 -240 L79 -60 L157 -84 Z " />
<glyph glyph-name="s" unicode="s" horiz-adv-x="397" d="M263 359 Q250 383 234.5 394.5 Q219 406 198 406 Q175 406 158 390.5 Q141 375 141 354 Q141 334 156.5 320 Q172 306 217 287 Q261 268 276 260.5 Q291 253 306 242 Q358 204 358 139 Q358 96 337 61 Q316 26 279.5 6 Q243 -14 198 -14 Q140 -14 98.5 16.5 Q57 47 34 106 L105 136 Q125 93 145.5 76.5 Q166 60 199 60 Q232 60 254 81 Q276 102 276 133 Q276 160 260 176 Q244 192 200 211 Q144 236 115.5 255 Q87 274 75.5 295 Q64 316 64 348 Q64 404 103 441.5 Q142 479 201 479 Q288 479 330 394 L263 359 Z " />
<glyph glyph-name="sacute" unicode="&#x15b;" horiz-adv-x="383" d="M197 550 L147 579 L266 741 L349 704 L197 550 Z M262 359 Q249 383 233.5 394.5 Q218 406 197 406 Q174 406 157 390.5 Q140 375 140 354 Q140 334 155.5 320 Q171 306 216 287 Q260 268 275 260.5 Q290 253 305 242 Q357 204 357 139 Q357 96 336 61 Q315 26 278.5 6 Q242 -14 197 -14 Q139 -14 97.5 16.5 Q56 47 33 106 L104 136 Q124 93 144.5 76.5 Q165 60 198 60 Q231 60 253 81 Q275 102 275 133 Q275 160 259 176 Q243 192 199 211 Q143 236 114.5 255 Q86 274 74.5 295 Q63 316 63 348 Q63 404 102 441.5 Q141 479 200 479 Q244 479 275.5 458 Q307 437 329 394 L262 359 Z " />
<glyph glyph-name="scaron" unicode="&#x161;" horiz-adv-x="383" d="M201 550 L44 697 L103 741 L201 649 L301 741 L357 697 L201 550 Z M262 359 Q249 383 233.5 394.5 Q218 406 197 406 Q174 406 157 390.5 Q140 375 140 354 Q140 334 155.5 320 Q171 306 216 287 Q260 268 275 260.5 Q290 253 305 242 Q357 204 357 139 Q357 96 336 61 Q315 26 278.5 6 Q242 -14 197 -14 Q139 -14 97.5 16.5 Q56 47 33 106 L104 136 Q124 93 144.5 76.5 Q165 60 198 60 Q231 60 253 81 Q275 102 275 133 Q275 160 259 176 Q243 192 199 211 Q143 236 114.5 255 Q86 274 74.5 295 Q63 316 63 348 Q63 404 102 441.5 Q141 479 200 479 Q244 479 275.5 458 Q307 437 329 394 L262 359 Z " />
<glyph glyph-name="scedilla" unicode="&#x15f;" horiz-adv-x="383" d="M262 359 Q249 383 233.5 394.5 Q218 406 197 406 Q174 406 157 390.5 Q140 375 140 354 Q140 334 155.5 320 Q171 306 216 287 Q260 268 275 260.5 Q290 253 305 242 Q357 204 357 139 Q357 96 336 61 Q315 26 278.5 6 Q242 -14 197 -14 Q139 -14 97.5 16.5 Q56 47 33 106 L104 136 Q124 93 144.5 76.5 Q165 60 198 60 Q231 60 253 81 Q275 102 275 133 Q275 160 259 176 Q243 192 199 211 Q143 236 114.5 255 Q86 274 74.5 295 Q63 316 63 348 Q63 404 102 441.5 Q141 479 200 479 Q244 479 275.5 458 Q307 437 329 394 L262 359 Z M132 -228 L77 -200 L172 -53 L246 -84 L132 -228 Z " />
<glyph glyph-name="scircumflex" unicode="&#x15d;" horiz-adv-x="383" d="M200 741 L357 594 L299 550 L200 644 L101 550 L44 594 L200 741 Z M262 359 Q249 383 233.5 394.5 Q218 406 197 406 Q174 406 157 390.5 Q140 375 140 354 Q140 334 155.5 320 Q171 306 216 287 Q260 268 275 260.5 Q290 253 305 242 Q357 204 357 139 Q357 96 336 61 Q315 26 278.5 6 Q242 -14 197 -14 Q139 -14 97.5 16.5 Q56 47 33 106 L104 136 Q124 93 144.5 76.5 Q165 60 198 60 Q231 60 253 81 Q275 102 275 133 Q275 160 259 176 Q243 192 199 211 Q143 236 114.5 255 Q86 274 74.5 295 Q63 316 63 348 Q63 404 102 441.5 Q141 479 200 479 Q244 479 275.5 458 Q307 437 329 394 L262 359 Z " />
<glyph glyph-name="uni0219" unicode="&#x219;" horiz-adv-x="383" d="M262 359 Q249 383 233.5 394.5 Q218 406 197 406 Q174 406 157 390.5 Q140 375 140 354 Q140 334 155.5 320 Q171 306 216 287 Q260 268 275 260.5 Q290 253 305 242 Q357 204 357 139 Q357 96 336 61 Q315 26 278.5 6 Q242 -14 197 -14 Q139 -14 97.5 16.5 Q56 47 33 106 L104 136 Q124 93 144.5 76.5 Q165 60 198 60 Q231 60 253 81 Q275 102 275 133 Q275 160 259 176 Q243 192 199 211 Q143 236 114.5 255 Q86 274 74.5 295 Q63 316 63 348 Q63 404 102 441.5 Q141 479 200 479 Q244 479 275.5 458 Q307 437 329 394 L262 359 Z M240 -84 L166 -258 L108 -240 L162 -60 L240 -84 Z " />
<glyph glyph-name="germandbls" unicode="&#xdf;" horiz-adv-x="586" d="M79 394 L35 394 L35 469 L79 469 L79 625 Q79 721 122 773 Q147 802 188.5 819.5 Q230 837 276 837 Q332 837 376 813 Q420 789 445 746 Q470 703 470 649 Q470 600 448.5 562.5 Q427 525 386 503 Q460 475 503.5 409.5 Q547 344 547 261 Q547 192 513 132.5 Q479 73 417 34 Q382 10 347 -0.5 Q312 -11 261 -14 L261 66 Q302 68 329.5 77 Q357 86 384 106 Q422 135 443 176 Q464 217 464 264 Q464 314 441 357.5 Q418 401 379 424 Q354 438 329.5 445.5 Q305 453 261 459 L261 531 Q291 532 308.5 537.5 Q326 543 342 555 Q363 570 375.5 596.5 Q388 623 388 652 Q388 701 355.5 732.5 Q323 764 273 764 Q240 764 212.5 748 Q185 732 174 707 Q166 691 162.5 664 Q159 637 159 589 L159 0 L79 0 L79 394 Z " />
<glyph glyph-name="longs" unicode="&#x17f;" horiz-adv-x="272" d="M79 394 L35 394 L35 469 L79 469 L79 669 Q79 752 106 788 Q125 812 154 824.5 Q183 837 219 837 Q235 837 247 835 Q259 833 278 827 L278 746 Q261 753 249.5 755 Q238 757 224 757 Q198 757 184 747.5 Q170 738 164.5 715.5 Q159 693 159 650 L159 0 L79 0 L79 394 Z " />
<glyph glyph-name="t" unicode="t" horiz-adv-x="292" d="M215 61 Q232 61 245 69 Q258 77 270 94 L270 7 Q244 -14 192 -14 Q144 -14 116 14 Q87 43 87 112 L87 394 L29 394 L29 469 L87 469 L87 638 L167 638 L167 469 L267 469 L267 394 L167 394 L167 122 Q167 61 215 61 Z " />
<glyph glyph-name="tbar" unicode="&#x167;" horiz-adv-x="292" d="M215 61 Q232 61 245 69 Q258 77 270 94 L270 7 Q244 -14 192 -14 Q144 -14 116 14 Q87 43 87 112 L87 245 L33 245 L33 313 L87 313 L87 394 L29 394 L29 469 L87 469 L87 638 L167 638 L167 469 L267 469 L267 394 L167 394 L167 313 L258 313 L258 245 L167 245 L167 122 Q167 61 215 61 Z " />
<glyph glyph-name="tcaron" unicode="&#x165;" horiz-adv-x="354" d="M359 748 L286 575 L228 593 L281 772 L359 748 Z M215 61 Q232 61 245 69 Q258 77 270 94 L270 7 Q244 -14 192 -14 Q144 -14 116 14 Q87 43 87 112 L87 394 L29 394 L29 469 L87 469 L87 638 L167 638 L167 469 L267 469 L267 394 L167 394 L167 122 Q167 61 215 61 Z " />
<glyph glyph-name="uni0163" unicode="&#x163;" horiz-adv-x="292" d="M215 61 Q232 61 245 69 Q258 77 270 94 L270 7 Q244 -14 192 -14 Q144 -14 116 14 Q87 43 87 112 L87 394 L29 394 L29 469 L87 469 L87 638 L167 638 L167 469 L267 469 L267 394 L167 394 L167 122 Q167 61 215 61 Z M208 -84 L134 -258 L77 -240 L130 -60 L208 -84 Z " />
<glyph glyph-name="u" unicode="u" horiz-adv-x="516" d="M444 469 L444 0 L364 0 L364 55 Q341 22 305 4 Q269 -14 225 -14 Q189 -14 157.5 -1.5 Q126 11 107 35 Q86 64 79 97.5 Q72 131 72 186 L72 469 L153 469 L153 203 Q153 163 157 138 Q161 113 171 95 Q190 58 246 58 Q312 58 338 98.5 Q364 139 364 227 L364 469 L444 469 Z " />
<glyph glyph-name="uacute" unicode="&#xfa;" horiz-adv-x="516" d="M444 469 L444 0 L364 0 L364 55 Q341 22 305 4 Q269 -14 225 -14 Q189 -14 157.5 -1.5 Q126 11 107 35 Q86 64 79 97.5 Q72 131 72 186 L72 469 L153 469 L153 203 Q153 163 157 138 Q161 113 171 95 Q190 58 246 58 Q312 58 338 98.5 Q364 139 364 227 L364 469 L444 469 Z M247 550 L197 579 L316 741 L400 704 L247 550 Z " />
<glyph glyph-name="ubreve" unicode="&#x16d;" horiz-adv-x="516" d="M444 469 L444 0 L364 0 L364 55 Q341 22 305 4 Q269 -14 225 -14 Q189 -14 157.5 -1.5 Q126 11 107 35 Q86 64 79 97.5 Q72 131 72 186 L72 469 L153 469 L153 203 Q153 163 157 138 Q161 113 171 95 Q190 58 246 58 Q312 58 338 98.5 Q364 139 364 227 L364 469 L444 469 Z M182 715 Q185 678 205.5 657 Q226 636 259 636 Q291 636 311.5 656.5 Q332 677 339 715 L408 715 Q401 648 360.5 608 Q320 568 259 568 Q195 568 154 608.5 Q113 649 112 715 L182 715 Z " />
<glyph glyph-name="ucircumflex" unicode="&#xfb;" horiz-adv-x="516" d="M444 469 L444 0 L364 0 L364 55 Q341 22 305 4 Q269 -14 225 -14 Q189 -14 157.5 -1.5 Q126 11 107 35 Q86 64 79 97.5 Q72 131 72 186 L72 469 L153 469 L153 203 Q153 163 157 138 Q161 113 171 95 Q190 58 246 58 Q312 58 338 98.5 Q364 139 364 227 L364 469 L444 469 Z M258 741 L415 594 L356 550 L258 644 L158 550 L102 594 L258 741 Z " />
<glyph glyph-name="udieresis" unicode="&#xfc;" horiz-adv-x="516" d="M444 469 L444 0 L364 0 L364 55 Q341 22 305 4 Q269 -14 225 -14 Q189 -14 157.5 -1.5 Q126 11 107 35 Q86 64 79 97.5 Q72 131 72 186 L72 469 L153 469 L153 203 Q153 163 157 138 Q161 113 171 95 Q190 58 246 58 Q312 58 338 98.5 Q364 139 364 227 L364 469 L444 469 Z M162 689 Q185 689 201.5 672.5 Q218 656 218 633 Q218 610 201.5 593 Q185 576 162 576 Q138 576 121.5 592.5 Q105 609 105 634 Q105 656 122 672.5 Q139 689 162 689 Z M357 689 Q381 689 397.5 672.5 Q414 656 414 633 Q414 609 397.5 592.5 Q381 576 357 576 Q333 576 317 593 Q301 610 301 634 Q301 656 318 672.5 Q335 689 357 689 Z " />
<glyph glyph-name="ugrave" unicode="&#xf9;" horiz-adv-x="516" d="M444 469 L444 0 L364 0 L364 55 Q341 22 305 4 Q269 -14 225 -14 Q189 -14 157.5 -1.5 Q126 11 107 35 Q86 64 79 97.5 Q72 131 72 186 L72 469 L153 469 L153 203 Q153 163 157 138 Q161 113 171 95 Q190 58 246 58 Q312 58 338 98.5 Q364 139 364 227 L364 469 L444 469 Z M199 741 L318 579 L268 550 L115 704 L199 741 Z " />
<glyph glyph-name="uhorn" unicode="&#x1b0;" horiz-adv-x="516" d="M605 476 L531 303 L473 320 L527 499 L605 476 Z M364 469 L444 469 L444 0 L364 0 L364 55 Q341 22 305 4 Q269 -14 225 -14 Q189 -14 157.5 -1.5 Q126 11 107 35 Q86 64 79 97.5 Q72 131 72 186 L72 469 L153 469 L153 203 Q153 163 157 138 Q161 113 171 95 Q190 58 246 58 Q312 58 338 98.5 Q364 139 364 227 L364 469 Z " />
<glyph glyph-name="uhungarumlaut" unicode="&#x171;" horiz-adv-x="516" d="M444 469 L444 0 L364 0 L364 55 Q341 22 305 4 Q269 -14 225 -14 Q189 -14 157.5 -1.5 Q126 11 107 35 Q86 64 79 97.5 Q72 131 72 186 L72 469 L153 469 L153 203 Q153 163 157 138 Q161 113 171 95 Q190 58 246 58 Q312 58 338 98.5 Q364 139 364 227 L364 469 L444 469 Z M183 550 L142 576 L261 741 L333 706 L183 550 Z M334 550 L293 576 L412 741 L485 706 L334 550 Z " />
<glyph glyph-name="umacron" unicode="&#x16b;" horiz-adv-x="516" d="M444 469 L444 0 L364 0 L364 55 Q341 22 305 4 Q269 -14 225 -14 Q189 -14 157.5 -1.5 Q126 11 107 35 Q86 64 79 97.5 Q72 131 72 186 L72 469 L153 469 L153 203 Q153 163 157 138 Q161 113 171 95 Q190 58 246 58 Q312 58 338 98.5 Q364 139 364 227 L364 469 L444 469 Z M410 663 L410 596 L107 596 L107 663 L410 663 Z " />
<glyph glyph-name="uni01C6" unicode="&#x1c6;" horiz-adv-x="1088" d="M507 0 L427 0 L427 64 Q364 -14 266 -14 Q202 -14 150.5 18.5 Q99 51 69.5 107.5 Q40 164 40 235 Q40 305 69 360.5 Q98 416 148.5 447.5 Q199 479 263 479 Q313 479 352.5 460.5 Q392 442 427 402 L427 824 L507 824 L507 0 Z M696 697 L754 741 L853 649 L953 741 L1009 697 L853 550 L696 697 Z M1069 0 L583 0 L923 394 L646 394 L646 469 L1084 469 L746 75 L1069 75 L1069 0 Z M277 406 Q234 406 198.5 383.5 Q163 361 142.5 322.5 Q122 284 122 237 Q122 186 141.5 145.5 Q161 105 196.5 82.5 Q232 60 276 60 Q321 60 357 82 Q393 104 413 144 Q433 184 433 235 Q433 311 389 358.5 Q345 406 277 406 Z " />
<glyph glyph-name="uni01C9" unicode="&#x1c9;" horiz-adv-x="451" d="M153 0 L72 0 L72 824 L153 824 L153 0 Z M338 589 Q314 589 297 606 Q280 623 280 647 Q280 670 297 687 Q314 704 338 704 Q362 704 379 687 Q396 670 396 646 Q396 623 379 606 Q362 589 338 589 Z M256 -263 Q223 -263 202 -251 L202 -171 Q222 -186 248 -186 Q276 -186 286.5 -168 Q297 -150 297 -105 L297 469 L378 469 L378 -110 Q378 -153 370 -181.5 Q362 -210 344 -231 Q312 -263 256 -263 Z " />
<glyph glyph-name="uni01CC" unicode="&#x1cc;" horiz-adv-x="744" d="M153 469 L153 412 Q183 449 213.5 464.5 Q244 480 288 480 Q331 480 367 462.5 Q403 445 423 416 Q437 393 443 364 Q449 335 449 290 L449 0 L368 0 L368 277 Q368 315 365 334.5 Q362 354 353 368 Q342 387 319.5 397.5 Q297 408 269 408 Q208 408 180.5 366.5 Q153 325 153 234 L153 0 L72 0 L72 469 L153 469 Z M631 589 Q607 589 590 606 Q573 623 573 647 Q573 670 590 687 Q607 704 631 704 Q655 704 672 687 Q689 670 689 646 Q689 623 672 606 Q655 589 631 589 Z M549 -263 Q516 -263 495 -251 L495 -171 Q515 -186 541 -186 Q569 -186 579.5 -168 Q590 -150 590 -105 L590 469 L671 469 L671 -110 Q671 -153 663 -181.5 Q655 -210 637 -231 Q605 -263 549 -263 Z " />
<glyph glyph-name="uni01CE" unicode="&#x1ce;" horiz-adv-x="580" d="M294 550 L137 697 L194 741 L294 649 L392 741 L449 697 L294 550 Z M508 469 L508 0 L428 0 L428 66 Q394 25 355 5.5 Q316 -14 267 -14 Q202 -14 150.5 18.5 Q99 51 70 108 Q41 165 41 236 Q41 305 70 361 Q99 417 150 448.5 Q201 480 264 480 Q315 480 354.5 461.5 Q394 443 428 402 L428 469 L508 469 Z M278 407 Q235 407 199.5 384.5 Q164 362 143.5 323 Q123 284 123 237 Q123 186 143 145.5 Q163 105 198 82.5 Q233 60 277 60 Q347 60 390.5 109 Q434 158 434 235 Q434 311 390.5 359 Q347 407 278 407 Z " />
<glyph glyph-name="uni01D0" unicode="&#x1d0;" horiz-adv-x="226" d="M113 550 L-44 697 L14 741 L113 649 L212 741 L269 697 L113 550 Z M153 0 L72 0 L72 469 L153 469 L153 0 Z " />
<glyph glyph-name="uni01D2" unicode="&#x1d2;" horiz-adv-x="574" d="M288 550 L131 697 L189 741 L288 649 L388 741 L444 697 L288 550 Z M288 479 Q357 479 413.5 446.5 Q470 414 503 357.5 Q536 301 536 233 Q536 165 503 108 Q470 51 412.5 18.5 Q355 -14 286 -14 Q218 -14 161.5 19.5 Q105 53 72.5 110 Q40 167 40 237 Q40 303 73.5 358.5 Q107 414 164 446.5 Q221 479 288 479 Z M287 406 Q240 406 202.5 383.5 Q165 361 143.5 322 Q122 283 122 235 Q122 185 143 145 Q164 105 201.5 82.5 Q239 60 286 60 Q334 60 372 82 Q410 104 431.5 143.5 Q453 183 453 233 Q453 282 431.5 321.5 Q410 361 372 383.5 Q334 406 287 406 Z " />
<glyph glyph-name="uni01D4" unicode="&#x1d4;" horiz-adv-x="516" d="M444 469 L444 0 L364 0 L364 55 Q341 22 305 4 Q269 -14 225 -14 Q189 -14 157.5 -1.5 Q126 11 107 35 Q86 64 79 97.5 Q72 131 72 186 L72 469 L153 469 L153 203 Q153 163 157 138 Q161 113 171 95 Q190 58 246 58 Q312 58 338 98.5 Q364 139 364 227 L364 469 L444 469 Z M261 550 L104 697 L162 741 L261 649 L361 741 L417 697 L261 550 Z " />
<glyph glyph-name="uni01DD" unicode="&#x1dd;" horiz-adv-x="565" d="M435 247 Q434 278 429.5 298 Q425 318 414 338 Q393 374 356.5 395 Q320 416 279 416 Q231 416 196.5 394 Q162 372 133 325 L56 342 Q87 408 145 444 Q203 480 278 480 Q348 480 403 449 Q458 418 489.5 362.5 Q521 307 521 237 Q521 166 490 109 Q459 52 404 20 Q349 -12 280 -12 Q210 -12 156.5 20.5 Q103 53 73 111.5 Q43 170 43 247 L435 247 Z M130 190 Q142 127 183 89.5 Q224 52 280 52 Q339 52 381 90.5 Q423 129 432 190 L130 190 Z " />
<glyph glyph-name="uni01F5" unicode="&#x1f5;" horiz-adv-x="581" d="M199 579 L318 741 L401 704 L249 550 L199 579 Z M508 10 Q508 -61 498 -100.5 Q488 -140 463 -174 Q431 -215 382.5 -238 Q334 -261 276 -261 Q175 -261 113.5 -202.5 Q52 -144 49 -46 L128 -46 Q130 -75 135 -92 Q140 -109 150 -125 Q168 -154 202.5 -171 Q237 -188 278 -188 Q316 -188 347.5 -172.5 Q379 -157 398 -130 Q428 -89 428 -3 L428 64 Q358 -12 263 -12 Q200 -12 149 20 Q98 52 69 108 Q40 164 40 233 Q40 303 69.5 359.5 Q99 416 150.5 448 Q202 480 267 480 Q365 480 428 402 L428 469 L508 469 L508 10 Z M276 408 Q232 408 196.5 385.5 Q161 363 141.5 323 Q122 283 122 234 Q122 157 164.5 108.5 Q207 60 275 60 Q320 60 356 82 Q392 104 412 143.5 Q432 183 432 233 Q432 322 381 367 Q358 387 331 397.5 Q304 408 276 408 Z " />
<glyph glyph-name="uni0201" unicode="&#x201;" horiz-adv-x="580" d="M270 576 L229 550 L79 706 L151 741 L270 576 Z M420 576 L380 550 L229 706 L302 741 L420 576 Z M508 0 L428 0 L428 66 Q394 25 355 5.5 Q316 -14 267 -14 Q202 -14 150.5 18.5 Q99 51 70 108 Q41 165 41 236 Q41 305 70 361 Q99 417 150 448.5 Q201 480 264 480 Q315 480 354.5 461.5 Q394 443 428 402 L428 469 L508 469 L508 0 Z M278 407 Q235 407 199.5 384.5 Q164 362 143.5 323 Q123 284 123 237 Q123 186 143 145.5 Q163 105 198 82.5 Q233 60 277 60 Q347 60 390.5 109 Q434 158 434 235 Q434 311 390.5 359 Q347 407 278 407 Z " />
<glyph glyph-name="uni021B" unicode="&#x21b;" horiz-adv-x="292" d="M215 61 Q232 61 245 69 Q258 77 270 94 L270 7 Q244 -14 192 -14 Q144 -14 116 14 Q87 43 87 112 L87 394 L29 394 L29 469 L87 469 L87 638 L167 638 L167 469 L267 469 L267 394 L167 394 L167 122 Q167 61 215 61 Z M208 -84 L134 -258 L77 -240 L130 -60 L208 -84 Z " />
<glyph glyph-name="uni0227" unicode="&#x227;" horiz-adv-x="580" d="M293 689 Q316 689 333 672 Q350 655 350 632 Q350 608 333 591 Q316 574 293 574 Q269 574 252 591 Q235 608 235 633 Q235 656 252 672.5 Q269 689 293 689 Z M508 0 L428 0 L428 66 Q394 25 355 5.5 Q316 -14 267 -14 Q202 -14 150.5 18.5 Q99 51 70 108 Q41 165 41 236 Q41 305 70 361 Q99 417 150 448.5 Q201 480 264 480 Q315 480 354.5 461.5 Q394 443 428 402 L428 469 L508 469 L508 0 Z M278 407 Q235 407 199.5 384.5 Q164 362 143.5 323 Q123 284 123 237 Q123 186 143 145.5 Q163 105 198 82.5 Q233 60 277 60 Q347 60 390.5 109 Q434 158 434 235 Q434 311 390.5 359 Q347 407 278 407 Z " />
<glyph glyph-name="uni1EA1" unicode="&#x1ea1;" horiz-adv-x="580" d="M508 0 L428 0 L428 66 Q394 25 355 5.5 Q316 -14 267 -14 Q202 -14 150.5 18.5 Q99 51 70 108 Q41 165 41 236 Q41 305 70 361 Q99 417 150 448.5 Q201 480 264 480 Q315 480 354.5 461.5 Q394 443 428 402 L428 469 L508 469 L508 0 Z M278 407 Q235 407 199.5 384.5 Q164 362 143.5 323 Q123 284 123 237 Q123 186 143 145.5 Q163 105 198 82.5 Q233 60 277 60 Q347 60 390.5 109 Q434 158 434 235 Q434 311 390.5 359 Q347 407 278 407 Z M290 -68 Q314 -68 331 -85 Q348 -102 348 -125 Q348 -149 331 -166 Q314 -183 290 -183 Q267 -183 250 -166 Q233 -149 233 -124 Q233 -101 250 -84.5 Q267 -68 290 -68 Z " />
<glyph glyph-name="uni1EA3" unicode="&#x1ea3;" horiz-adv-x="580" d="M259 629 Q283 635 294 635 Q330 640 343.5 649.5 Q357 659 357 679 Q357 701 341 713 Q325 725 297 725 Q281 725 275 723.5 Q269 722 253 714 L235 705 L220 741 Q251 753 273.5 758 Q296 763 320 763 Q367 763 397 738.5 Q427 714 427 675 Q427 642 403 622.5 Q379 603 339 603 Q318 603 304 605 L304 560 L259 560 L259 629 Z M508 0 L428 0 L428 66 Q394 25 355 5.5 Q316 -14 267 -14 Q202 -14 150.5 18.5 Q99 51 70 108 Q41 165 41 236 Q41 305 70 361 Q99 417 150 448.5 Q201 480 264 480 Q315 480 354.5 461.5 Q394 443 428 402 L428 469 L508 469 L508 0 Z M278 407 Q235 407 199.5 384.5 Q164 362 143.5 323 Q123 284 123 237 Q123 186 143 145.5 Q163 105 198 82.5 Q233 60 277 60 Q347 60 390.5 109 Q434 158 434 235 Q434 311 390.5 359 Q347 407 278 407 Z " />
<glyph glyph-name="uni1EA5" unicode="&#x1ea5;" horiz-adv-x="580" d="M565 767 L420 621 L449 594 L391 550 L292 643 L193 550 L137 594 L292 741 L376 662 L481 806 L565 767 Z M508 0 L428 0 L428 66 Q394 25 355 5.5 Q316 -14 267 -14 Q203 -14 151.5 18.5 Q100 51 70.5 107.5 Q41 164 41 235 Q41 305 70 361 Q99 417 150 448.5 Q201 480 264 480 Q315 480 354.5 461.5 Q394 443 428 402 L428 469 L508 469 L508 0 Z M278 407 Q235 407 199.5 384.5 Q164 362 143.5 323 Q123 284 123 237 Q123 186 143 145.5 Q163 105 198 82.5 Q233 60 277 60 Q347 60 390.5 109 Q434 158 434 235 Q434 311 390.5 359 Q347 407 278 407 Z " />
<glyph glyph-name="uni1EA7" unicode="&#x1ea7;" horiz-adv-x="580" d="M507 631 L459 594 L296 727 L372 777 L507 631 Z M435 566 L375 520 L276 606 L176 520 L119 566 L276 701 L435 566 Z M508 0 L428 0 L428 66 Q394 25 355 5.5 Q316 -14 267 -14 Q203 -14 151.5 18.5 Q100 51 70.5 107.5 Q41 164 41 235 Q41 305 70 361 Q99 417 150 448.5 Q201 480 264 480 Q315 480 354.5 461.5 Q394 443 428 402 L428 469 L508 469 L508 0 Z M278 407 Q235 407 199.5 384.5 Q164 362 143.5 323 Q123 284 123 237 Q123 186 143 145.5 Q163 105 198 82.5 Q233 60 277 60 Q347 60 390.5 109 Q434 158 434 235 Q434 311 390.5 359 Q347 407 278 407 Z " />
<glyph glyph-name="uni1EA9" unicode="&#x1ea9;" horiz-adv-x="580" d="M391 695 Q420 699 426 701 Q463 705 476 714 Q489 723 489 744 Q489 766 473 778 Q457 790 429 790 Q413 790 407 788.5 Q401 787 385 779 Q374 773 367 771 L353 806 Q383 818 405.5 822.5 Q428 827 452 827 Q499 827 529 802.5 Q559 778 559 739 Q559 706 535.5 687 Q512 668 471 668 L436 669 L436 626 L416 626 L449 594 L391 550 L292 643 L193 550 L137 594 L292 741 L391 649 L391 695 Z M508 0 L428 0 L428 66 Q394 25 355 5.5 Q316 -14 267 -14 Q203 -14 151.5 18.5 Q100 51 70.5 107.5 Q41 164 41 235 Q41 305 70 361 Q99 417 150 448.5 Q201 480 264 480 Q315 480 354.5 461.5 Q394 443 428 402 L428 469 L508 469 L508 0 Z M278 407 Q235 407 199.5 384.5 Q164 362 143.5 323 Q123 284 123 237 Q123 186 143 145.5 Q163 105 198 82.5 Q233 60 277 60 Q347 60 390.5 109 Q434 158 434 235 Q434 311 390.5 359 Q347 407 278 407 Z " />
<glyph glyph-name="uni1EAB" unicode="&#x1eab;" horiz-adv-x="580" d="M130 789 Q143 827 168.5 848 Q194 869 226 869 Q243 869 259.5 863.5 Q276 858 297 845 Q320 831 329.5 827 Q339 823 349 823 Q365 823 376.5 833.5 Q388 844 402 871 L449 834 Q434 796 407 774.5 Q380 753 349 753 Q335 753 321 758 Q307 763 285 776 Q261 789 247.5 794.5 Q234 800 224 800 Q207 800 196 788.5 Q185 777 176 750 L130 789 Z M449 594 L391 550 L292 644 L193 550 L137 594 L292 741 L449 594 Z M508 0 L428 0 L428 66 Q394 25 355 5.5 Q316 -14 267 -14 Q202 -14 150.5 18.5 Q99 51 70 108 Q41 165 41 236 Q41 305 70 361 Q99 417 150 448.5 Q201 480 264 480 Q315 480 354.5 461.5 Q394 443 428 402 L428 469 L508 469 L508 0 Z M278 407 Q235 407 199.5 384.5 Q164 362 143.5 323 Q123 284 123 237 Q123 186 143 145.5 Q163 105 198 82.5 Q233 60 277 60 Q347 60 390.5 109 Q434 158 434 235 Q434 311 390.5 359 Q347 407 278 407 Z " />
<glyph glyph-name="uni1EAD" unicode="&#x1ead;" horiz-adv-x="580" d="M449 594 L391 550 L292 644 L193 550 L137 594 L292 741 L449 594 Z M508 0 L428 0 L428 66 Q394 25 355 5.5 Q316 -14 267 -14 Q202 -14 150.5 18.5 Q99 51 70 108 Q41 165 41 236 Q41 305 70 361 Q99 417 150 448.5 Q201 480 264 480 Q315 480 354.5 461.5 Q394 443 428 402 L428 469 L508 469 L508 0 Z M278 407 Q235 407 199.5 384.5 Q164 362 143.5 323 Q123 284 123 237 Q123 186 143 145.5 Q163 105 198 82.5 Q233 60 277 60 Q347 60 390.5 109 Q434 158 434 235 Q434 311 390.5 359 Q347 407 278 407 Z M289 -68 Q313 -68 330 -85 Q347 -102 347 -125 Q347 -149 330 -166 Q313 -183 289 -183 Q266 -183 249 -166 Q232 -149 232 -124 Q232 -101 249 -84.5 Q266 -68 289 -68 Z " />
<glyph glyph-name="uni1EAF" unicode="&#x1eaf;" horiz-adv-x="580" d="M252 704 L371 868 L454 829 L302 676 L252 704 Z M215 715 Q218 678 238 657 Q258 636 292 636 Q324 636 344.5 656.5 Q365 677 371 715 L441 715 Q434 648 393.5 608 Q353 568 292 568 Q228 568 187 608.5 Q146 649 145 715 L215 715 Z M508 0 L428 0 L428 66 Q394 25 355 5.5 Q316 -14 267 -14 Q202 -14 150.5 18.5 Q99 51 70 108 Q41 165 41 236 Q41 305 70 361 Q99 417 150 448.5 Q201 480 264 480 Q315 480 354.5 461.5 Q394 443 428 402 L428 469 L508 469 L508 0 Z M278 407 Q235 407 199.5 384.5 Q164 362 143.5 323 Q123 284 123 237 Q123 186 143 145.5 Q163 105 198 82.5 Q233 60 277 60 Q347 60 390.5 109 Q434 158 434 235 Q434 311 390.5 359 Q347 407 278 407 Z " />
<glyph glyph-name="uni1EB1" unicode="&#x1eb1;" horiz-adv-x="580" d="M338 699 L287 671 L136 825 L219 862 L338 699 Z M215 715 Q218 678 238 657 Q258 636 292 636 Q324 636 344.5 656.5 Q365 677 371 715 L441 715 Q434 648 393.5 608 Q353 568 292 568 Q228 568 187 608.5 Q146 649 145 715 L215 715 Z M508 0 L428 0 L428 66 Q394 25 355 5.5 Q316 -14 267 -14 Q202 -14 150.5 18.5 Q99 51 70 108 Q41 165 41 236 Q41 305 70 361 Q99 417 150 448.5 Q201 480 264 480 Q315 480 354.5 461.5 Q394 443 428 402 L428 469 L508 469 L508 0 Z M278 407 Q235 407 199.5 384.5 Q164 362 143.5 323 Q123 284 123 237 Q123 186 143 145.5 Q163 105 198 82.5 Q233 60 277 60 Q347 60 390.5 109 Q434 158 434 235 Q434 311 390.5 359 Q347 407 278 407 Z " />
<glyph glyph-name="uni1EB3" unicode="&#x1eb3;" horiz-adv-x="580" d="M258 754 Q283 759 293 759 Q329 764 342.5 773.5 Q356 783 356 803 Q356 825 340 837.5 Q324 850 296 850 Q281 850 274.5 848 Q268 846 252 838 L234 829 L219 866 Q251 878 273 882.5 Q295 887 319 887 Q366 887 396 862.5 Q426 838 426 799 Q426 766 402.5 747 Q379 728 338 728 Q316 728 303 729 L303 685 L258 685 L258 754 Z M215 715 Q218 678 238 657 Q258 636 292 636 Q324 636 344.5 656.5 Q365 677 371 715 L441 715 Q434 648 393.5 608 Q353 568 292 568 Q228 568 187 608.5 Q146 649 145 715 L215 715 Z M508 0 L428 0 L428 66 Q394 25 355 5.5 Q316 -14 267 -14 Q202 -14 150.5 18.5 Q99 51 70 108 Q41 165 41 236 Q41 305 70 361 Q99 417 150 448.5 Q201 480 264 480 Q315 480 354.5 461.5 Q394 443 428 402 L428 469 L508 469 L508 0 Z M278 407 Q235 407 199.5 384.5 Q164 362 143.5 323 Q123 284 123 237 Q123 186 143 145.5 Q163 105 198 82.5 Q233 60 277 60 Q347 60 390.5 109 Q434 158 434 235 Q434 311 390.5 359 Q347 407 278 407 Z " />
<glyph glyph-name="uni1EB5" unicode="&#x1eb5;" horiz-adv-x="580" d="M130 786 Q144 824 169 845.5 Q194 867 226 867 Q243 867 259.5 861.5 Q276 856 297 843 Q320 830 329.5 826 Q339 822 349 822 Q365 822 376.5 832.5 Q388 843 402 869 L449 833 Q434 795 407.5 773 Q381 751 349 751 Q336 751 322.5 756 Q309 761 285 774 Q241 798 224 798 Q207 798 196 786.5 Q185 775 176 749 L130 786 Z M215 715 Q218 678 238 657 Q258 636 292 636 Q324 636 344.5 656.5 Q365 677 371 715 L441 715 Q434 648 393.5 608 Q353 568 292 568 Q228 568 187 608.5 Q146 649 145 715 L215 715 Z M508 0 L428 0 L428 66 Q394 25 355 5.5 Q316 -14 267 -14 Q202 -14 150.5 18.5 Q99 51 70 108 Q41 165 41 236 Q41 305 70 361 Q99 417 150 448.5 Q201 480 264 480 Q315 480 354.5 461.5 Q394 443 428 402 L428 469 L508 469 L508 0 Z M278 407 Q235 407 199.5 384.5 Q164 362 143.5 323 Q123 284 123 237 Q123 186 143 145.5 Q163 105 198 82.5 Q233 60 277 60 Q347 60 390.5 109 Q434 158 434 235 Q434 311 390.5 359 Q347 407 278 407 Z " />
<glyph glyph-name="uni1EB7" unicode="&#x1eb7;" horiz-adv-x="580" d="M215 715 Q218 678 238 657 Q258 636 292 636 Q324 636 344.5 656.5 Q365 677 371 715 L441 715 Q434 648 393.5 608 Q353 568 292 568 Q228 568 187 608.5 Q146 649 145 715 L215 715 Z M508 0 L428 0 L428 66 Q394 25 355 5.5 Q316 -14 267 -14 Q202 -14 150.5 18.5 Q99 51 70 108 Q41 165 41 236 Q41 305 70 361 Q99 417 150 448.5 Q201 480 264 480 Q315 480 354.5 461.5 Q394 443 428 402 L428 469 L508 469 L508 0 Z M278 407 Q235 407 199.5 384.5 Q164 362 143.5 323 Q123 284 123 237 Q123 186 143 145.5 Q163 105 198 82.5 Q233 60 277 60 Q347 60 390.5 109 Q434 158 434 235 Q434 311 390.5 359 Q347 407 278 407 Z M289 -68 Q313 -68 330 -85 Q347 -102 347 -125 Q347 -149 330 -166 Q313 -183 289 -183 Q266 -183 249 -166 Q232 -149 232 -124 Q232 -101 249 -84.5 Q266 -68 289 -68 Z " />
<glyph glyph-name="uni1EB9" unicode="&#x1eb9;" horiz-adv-x="529" d="M124 218 Q128 146 169 103 Q210 60 273 60 Q320 60 352 82 Q384 104 418 158 L486 120 Q447 51 394 18.5 Q341 -14 270 -14 Q203 -14 150.5 17 Q98 48 69 104 Q40 160 40 232 Q40 305 68.5 361 Q97 417 148.5 448 Q200 479 267 479 Q334 479 384.5 448.5 Q435 418 462.5 362 Q490 306 490 232 L490 218 L124 218 Z M406 286 Q395 341 357.5 374 Q320 407 268 407 Q217 407 177.5 372.5 Q138 338 130 286 L406 286 Z M264 -68 Q288 -68 305 -85 Q322 -102 322 -125 Q322 -149 305 -166 Q288 -183 264 -183 Q241 -183 224 -166 Q207 -149 207 -124 Q207 -101 224 -84.5 Q241 -68 264 -68 Z " />
<glyph glyph-name="uni1EBB" unicode="&#x1ebb;" horiz-adv-x="529" d="M233 629 Q257 635 268 635 Q304 640 317.5 649.5 Q331 659 331 679 Q331 701 315 713 Q299 725 271 725 Q255 725 249 723.5 Q243 722 227 714 L209 705 L194 741 Q225 753 247.5 758 Q270 763 294 763 Q341 763 371 738.5 Q401 714 401 675 Q401 642 377 622.5 Q353 603 313 603 Q292 603 278 605 L278 560 L233 560 L233 629 Z M124 218 Q128 146 169 103 Q210 60 273 60 Q320 60 352 82 Q384 104 418 158 L486 120 Q447 51 394 18.5 Q341 -14 270 -14 Q203 -14 150.5 17 Q98 48 69 104 Q40 160 40 232 Q40 305 68.5 361 Q97 417 148.5 448 Q200 479 267 479 Q334 479 384.5 448.5 Q435 418 462.5 362 Q490 306 490 232 L490 218 L124 218 Z M406 286 Q395 341 357.5 374 Q320 407 268 407 Q217 407 177.5 372.5 Q138 338 130 286 L406 286 Z " />
<glyph glyph-name="uni1EBD" unicode="&#x1ebd;" horiz-adv-x="529" d="M105 610 Q118 648 144 669 Q170 690 202 690 Q234 690 272 667 Q295 653 305 648.5 Q315 644 324 644 Q341 644 352 654.5 Q363 665 377 693 L425 657 Q411 619 384 596.5 Q357 574 325 574 Q311 574 298 579 Q285 584 261 598 Q220 621 200 621 Q183 621 171.5 609.5 Q160 598 153 572 L105 610 Z M124 218 Q128 146 169 103 Q210 60 273 60 Q320 60 352 82 Q384 104 418 158 L486 120 Q447 51 394 18.5 Q341 -14 270 -14 Q203 -14 150.5 17 Q98 48 69 104 Q40 160 40 232 Q40 305 68.5 361 Q97 417 148.5 448 Q200 479 267 479 Q334 479 384.5 448.5 Q435 418 462.5 362 Q490 306 490 232 L490 218 L124 218 Z M406 286 Q395 341 357.5 374 Q320 407 268 407 Q217 407 177.5 372.5 Q138 338 130 286 L406 286 Z " />
<glyph glyph-name="uni1EBF" unicode="&#x1ebf;" horiz-adv-x="530" d="M547 766 L403 621 L433 594 L375 550 L276 643 L176 550 L120 594 L276 741 L360 662 L463 805 L547 766 Z M124 218 Q128 146 169 103 Q210 60 273 60 Q320 60 352 82 Q384 104 418 158 L486 120 Q447 51 394 18.5 Q341 -14 270 -14 Q203 -14 150.5 17 Q98 48 69 104 Q40 160 40 232 Q40 305 68.5 361 Q97 417 148.5 448 Q200 479 267 479 Q333 479 383.5 448.5 Q434 418 462 362.5 Q490 307 490 234 L490 218 L124 218 Z M406 286 Q395 341 357.5 374 Q320 407 268 407 Q217 407 177.5 372.5 Q138 338 130 286 L406 286 Z " />
<glyph glyph-name="uni1EC1" unicode="&#x1ec1;" horiz-adv-x="530" d="M501 647 L452 611 L290 742 L366 793 L501 647 Z M428 582 L368 536 L270 621 L171 536 L113 582 L270 716 L428 582 Z M124 218 Q128 146 169 103 Q210 60 273 60 Q320 60 352 82 Q384 104 418 158 L486 120 Q447 51 394 18.5 Q341 -14 270 -14 Q203 -14 150.5 17 Q98 48 69 104 Q40 160 40 232 Q40 305 68.5 361 Q97 417 148.5 448 Q200 479 267 479 Q333 479 383.5 448.5 Q434 418 462 362.5 Q490 307 490 234 L490 218 L124 218 Z M406 286 Q395 341 357.5 374 Q320 407 268 407 Q217 407 177.5 372.5 Q138 338 130 286 L406 286 Z " />
<glyph glyph-name="uni1EC3" unicode="&#x1ec3;" horiz-adv-x="530" d="M380 688 Q395 690 415 694 Q451 699 464.5 708 Q478 717 478 737 Q478 759 462 771 Q446 783 418 783 Q402 783 395.5 781.5 Q389 780 374 772 Q364 766 356 764 L341 800 Q371 811 394 815.5 Q417 820 441 820 Q488 820 518 795.5 Q548 771 548 732 Q548 699 524.5 680 Q501 661 460 661 L425 662 L425 619 L406 619 L433 594 L374 550 L276 643 L176 550 L120 594 L275 741 L380 644 L380 688 Z M124 218 Q128 146 169 103 Q210 60 273 60 Q320 60 352 82 Q384 104 418 158 L486 120 Q447 51 394 18.5 Q341 -14 270 -14 Q203 -14 150.5 17 Q98 48 69 104 Q40 160 40 232 Q40 305 68.5 361 Q97 417 148.5 448 Q200 479 267 479 Q333 479 383.5 448.5 Q434 418 462 362.5 Q490 307 490 234 L490 218 L124 218 Z M406 286 Q395 341 357.5 374 Q320 407 268 407 Q217 407 177.5 372.5 Q138 338 130 286 L406 286 Z " />
<glyph glyph-name="uni1EC5" unicode="&#x1ec5;" horiz-adv-x="530" d="M123 772 Q136 810 162 831 Q188 852 220 852 Q252 852 290 828 Q312 815 322.5 810.5 Q333 806 344 806 Q360 806 371.5 816.5 Q383 827 395 854 L443 817 Q429 780 402 758 Q375 736 344 736 Q330 736 316 741 Q302 746 279 759 Q237 783 218 783 Q201 783 190 771 Q179 759 171 733 L123 772 Z M433 594 L375 550 L276 644 L176 550 L120 594 L276 741 L433 594 Z M124 218 Q128 146 169 103 Q210 60 273 60 Q320 60 352 82 Q384 104 418 158 L486 120 Q447 51 394 18.5 Q341 -14 270 -14 Q203 -14 150.5 17 Q98 48 69 104 Q40 160 40 232 Q40 305 68.5 361 Q97 417 148.5 448 Q200 479 267 479 Q334 479 384.5 448.5 Q435 418 462.5 362 Q490 306 490 232 L490 218 L124 218 Z M406 286 Q395 341 357.5 374 Q320 407 268 407 Q217 407 177.5 372.5 Q138 338 130 286 L406 286 Z " />
<glyph glyph-name="uni1EC7" unicode="&#x1ec7;" horiz-adv-x="530" d="M433 594 L375 550 L276 644 L176 550 L120 594 L276 741 L433 594 Z M124 218 Q128 146 169 103 Q210 60 273 60 Q320 60 352 82 Q384 104 418 158 L486 120 Q447 51 394 18.5 Q341 -14 270 -14 Q203 -14 150.5 17 Q98 48 69 104 Q40 160 40 232 Q40 305 68.5 361 Q97 417 148.5 448 Q200 479 267 479 Q334 479 384.5 448.5 Q435 418 462.5 362 Q490 306 490 232 L490 218 L124 218 Z M406 286 Q395 341 357.5 374 Q320 407 268 407 Q217 407 177.5 372.5 Q138 338 130 286 L406 286 Z M264 -68 Q288 -68 305 -85 Q322 -102 322 -125 Q322 -149 305 -166 Q288 -183 264 -183 Q241 -183 224 -166 Q207 -149 207 -124 Q207 -101 224 -84.5 Q241 -68 264 -68 Z " />
<glyph glyph-name="uni1EC9" unicode="&#x1ec9;" horiz-adv-x="226" d="M92 610 Q114 616 127 616 Q163 621 176.5 630.5 Q190 640 190 660 Q190 682 174 694 Q158 706 130 706 Q113 706 107.5 704.5 Q102 703 86 695 Q76 689 68 686 L53 722 Q84 734 106.5 739 Q129 744 153 744 Q200 744 230 719 Q260 694 260 655 Q260 622 236.5 603 Q213 584 172 584 Q150 584 137 585 L137 541 L92 541 L92 610 Z M73 0 L73 469 L154 469 L154 0 L73 0 Z " />
<glyph glyph-name="uni1ECB" unicode="&#x1ecb;" horiz-adv-x="226" d="M113 704 Q137 704 154 687 Q171 670 171 646 Q171 623 154 606 Q137 589 113 589 Q89 589 72 606 Q55 623 55 647 Q55 670 72 687 Q89 704 113 704 Z M72 0 L72 469 L153 469 L153 0 L72 0 Z M113 -68 Q137 -68 154 -85 Q171 -102 171 -125 Q171 -149 154 -166 Q137 -183 113 -183 Q89 -183 72 -166 Q55 -149 55 -124 Q55 -101 72 -84.5 Q89 -68 113 -68 Z " />
<glyph glyph-name="uni1ECD" unicode="&#x1ecd;" horiz-adv-x="574" d="M288 479 Q357 479 413.5 446.5 Q470 414 503 357.5 Q536 301 536 233 Q536 165 503 108 Q470 51 412.5 18.5 Q355 -14 286 -14 Q218 -14 161.5 19.5 Q105 53 72.5 110 Q40 167 40 237 Q40 303 73.5 358.5 Q107 414 164 446.5 Q221 479 288 479 Z M287 406 Q240 406 202.5 383.5 Q165 361 143.5 322 Q122 283 122 235 Q122 185 143 145 Q164 105 201.5 82.5 Q239 60 286 60 Q334 60 372 82 Q410 104 431.5 143.5 Q453 183 453 233 Q453 282 431.5 321.5 Q410 361 372 383.5 Q334 406 287 406 Z M287 -68 Q311 -68 328 -85 Q345 -102 345 -125 Q345 -149 328 -166 Q311 -183 287 -183 Q263 -183 246 -166 Q229 -149 229 -124 Q229 -101 246 -84.5 Q263 -68 287 -68 Z " />
<glyph glyph-name="uni1ECF" unicode="&#x1ecf;" horiz-adv-x="574" d="M255 610 Q279 616 290 616 Q327 621 340.5 630.5 Q354 640 354 660 Q354 682 338 694 Q322 706 294 706 Q277 706 271.5 704.5 Q266 703 250 695 Q240 689 232 686 L217 722 Q272 744 316 744 Q364 744 394 719 Q424 694 424 655 Q424 622 400.5 603 Q377 584 336 584 Q314 584 301 585 L301 541 L255 541 L255 610 Z M288 479 Q357 479 413.5 446.5 Q470 414 503 357.5 Q536 301 536 233 Q536 165 503 108 Q470 51 412.5 18.5 Q355 -14 286 -14 Q218 -14 161.5 19.5 Q105 53 72.5 110 Q40 167 40 237 Q40 303 73.5 358.5 Q107 414 164 446.5 Q221 479 288 479 Z M287 406 Q240 406 202.5 383.5 Q165 361 143.5 322 Q122 283 122 235 Q122 185 143 145 Q164 105 201.5 82.5 Q239 60 286 60 Q334 60 372 82 Q410 104 431.5 143.5 Q453 183 453 233 Q453 282 431.5 321.5 Q410 361 372 383.5 Q334 406 287 406 Z " />
<glyph glyph-name="uni1ED1" unicode="&#x1ed1;" horiz-adv-x="575" d="M564 765 L420 620 L447 594 L390 550 L290 643 L191 550 L134 594 L290 741 L376 661 L480 802 L564 765 Z M286 479 Q355 479 412.5 446.5 Q470 414 503 357.5 Q536 301 536 233 Q536 165 503 108.5 Q470 52 413 19 Q356 -14 288 -14 Q221 -14 164 18.5 Q107 51 73.5 107 Q40 163 40 228 Q40 298 72.5 355.5 Q105 413 161.5 446 Q218 479 286 479 Z M287 406 Q240 406 202.5 383.5 Q165 361 143.5 322 Q122 283 122 235 Q122 185 143 145 Q164 105 201.5 82.5 Q239 60 286 60 Q334 60 372 82 Q410 104 431.5 143.5 Q453 183 453 233 Q453 282 431.5 321.5 Q410 361 372 383.5 Q334 406 287 406 Z " />
<glyph glyph-name="uni1ED3" unicode="&#x1ed3;" horiz-adv-x="575" d="M521 635 L472 599 L311 731 L386 781 L521 635 Z M449 570 L389 524 L289 609 L191 524 L132 570 L289 705 L449 570 Z M286 479 Q355 479 412.5 446.5 Q470 414 503 357.5 Q536 301 536 233 Q536 165 503 108.5 Q470 52 413 19 Q356 -14 288 -14 Q221 -14 164 18.5 Q107 51 73.5 107 Q40 163 40 228 Q40 298 72.5 355.5 Q105 413 161.5 446 Q218 479 286 479 Z M287 406 Q240 406 202.5 383.5 Q165 361 143.5 322 Q122 283 122 235 Q122 185 143 145 Q164 105 201.5 82.5 Q239 60 286 60 Q334 60 372 82 Q410 104 431.5 143.5 Q453 183 453 233 Q453 282 431.5 321.5 Q410 361 372 383.5 Q334 406 287 406 Z " />
<glyph glyph-name="uni1ED5" unicode="&#x1ed5;" horiz-adv-x="575" d="M398 687 Q411 689 433 693 Q469 698 482.5 707 Q496 716 496 736 Q496 758 480 770 Q464 782 436 782 Q420 782 414 780.5 Q408 779 392 771 Q382 765 374 763 L359 798 Q389 810 411.5 814.5 Q434 819 459 819 Q506 819 536 794.5 Q566 770 566 731 Q566 698 542.5 679 Q519 660 478 660 L443 661 L443 618 L423 618 L447 594 L390 550 L290 643 L191 550 L134 594 L290 741 L398 641 L398 687 Z M286 479 Q355 479 412.5 446.5 Q470 414 503 357.5 Q536 301 536 233 Q536 165 503 108.5 Q470 52 413 19 Q356 -14 288 -14 Q221 -14 164 18.5 Q107 51 73.5 107 Q40 163 40 228 Q40 298 72.5 355.5 Q105 413 161.5 446 Q218 479 286 479 Z M287 406 Q240 406 202.5 383.5 Q165 361 143.5 322 Q122 283 122 235 Q122 185 143 145 Q164 105 201.5 82.5 Q239 60 286 60 Q334 60 372 82 Q410 104 431.5 143.5 Q453 183 453 233 Q453 282 431.5 321.5 Q410 361 372 383.5 Q334 406 287 406 Z " />
<glyph glyph-name="uni1ED7" unicode="&#x1ed7;" horiz-adv-x="575" d="M128 792 Q141 831 167 852 Q193 873 225 873 Q257 873 295 850 Q317 836 327.5 831.5 Q338 827 347 827 Q363 827 374.5 838 Q386 849 400 875 L447 838 Q432 801 405.5 779 Q379 757 347 757 Q334 757 320.5 762 Q307 767 284 781 Q259 794 245.5 799.5 Q232 805 223 805 Q206 805 194 793 Q182 781 174 755 L128 792 Z M447 594 L390 550 L290 644 L191 550 L134 594 L290 741 L447 594 Z M288 479 Q357 479 413.5 446.5 Q470 414 503 357.5 Q536 301 536 233 Q536 165 503 108 Q470 51 412.5 18.5 Q355 -14 286 -14 Q218 -14 161.5 19.5 Q105 53 72.5 110 Q40 167 40 237 Q40 303 73.5 358.5 Q107 414 164 446.5 Q221 479 288 479 Z M287 406 Q240 406 202.5 383.5 Q165 361 143.5 322 Q122 283 122 235 Q122 185 143 145 Q164 105 201.5 82.5 Q239 60 286 60 Q334 60 372 82 Q410 104 431.5 143.5 Q453 183 453 233 Q453 282 431.5 321.5 Q410 361 372 383.5 Q334 406 287 406 Z " />
<glyph glyph-name="uni1ED9" unicode="&#x1ed9;" horiz-adv-x="575" d="M447 594 L390 550 L290 644 L191 550 L134 594 L290 741 L447 594 Z M288 479 Q357 479 413.5 446.5 Q470 414 503 357.5 Q536 301 536 233 Q536 165 503 108 Q470 51 412.5 18.5 Q355 -14 286 -14 Q218 -14 161.5 19.5 Q105 53 72.5 110 Q40 167 40 237 Q40 303 73.5 358.5 Q107 414 164 446.5 Q221 479 288 479 Z M287 406 Q240 406 202.5 383.5 Q165 361 143.5 322 Q122 283 122 235 Q122 185 143 145 Q164 105 201.5 82.5 Q239 60 286 60 Q334 60 372 82 Q410 104 431.5 143.5 Q453 183 453 233 Q453 282 431.5 321.5 Q410 361 372 383.5 Q334 406 287 406 Z M287 -68 Q311 -68 328 -85 Q345 -102 345 -125 Q345 -149 328 -166 Q311 -183 287 -183 Q263 -183 246 -166 Q229 -149 229 -124 Q229 -101 246 -84.5 Q263 -68 287 -68 Z " />
<glyph glyph-name="uni1EDB" unicode="&#x1edb;" horiz-adv-x="574" d="M238 579 L358 741 L442 704 L289 550 L238 579 Z M593 479 L523 312 Q536 268 536 234 Q536 166 503 109 Q470 52 413 19 Q356 -14 288 -14 Q220 -14 163 19 Q106 52 73 108.5 Q40 165 40 233 Q40 301 73 357.5 Q106 414 162.5 446.5 Q219 479 287 479 Q345 479 396 455 Q447 431 481 388 L515 503 L593 479 Z M287 406 Q240 406 202.5 383.5 Q165 361 143.5 322 Q122 283 122 235 Q122 185 143 145 Q164 105 201.5 82.5 Q239 60 286 60 Q334 60 372 82 Q410 104 431.5 143.5 Q453 183 453 233 Q453 282 431.5 321.5 Q410 361 372 383.5 Q334 406 287 406 Z " />
<glyph glyph-name="uni1EDD" unicode="&#x1edd;" horiz-adv-x="574" d="M336 579 L286 550 L133 704 L217 741 L336 579 Z M593 479 L523 312 Q536 268 536 234 Q536 166 503 109 Q470 52 413 19 Q356 -14 288 -14 Q220 -14 163 19 Q106 52 73 108.5 Q40 165 40 233 Q40 301 73 357.5 Q106 414 162.5 446.5 Q219 479 287 479 Q345 479 396 455 Q447 431 481 388 L515 503 L593 479 Z M287 406 Q240 406 202.5 383.5 Q165 361 143.5 322 Q122 283 122 235 Q122 185 143 145 Q164 105 201.5 82.5 Q239 60 286 60 Q334 60 372 82 Q410 104 431.5 143.5 Q453 183 453 233 Q453 282 431.5 321.5 Q410 361 372 383.5 Q334 406 287 406 Z " />
<glyph glyph-name="uni1EDF" unicode="&#x1edf;" horiz-adv-x="574" d="M255 629 Q279 635 290 635 Q327 640 340.5 649.5 Q354 659 354 679 Q354 701 338 713 Q322 725 294 725 Q277 725 271.5 723.5 Q266 722 250 714 L232 705 L217 741 Q248 753 270.5 758 Q293 763 316 763 Q364 763 394 738.5 Q424 714 424 675 Q424 642 400 622.5 Q376 603 336 603 Q314 603 301 605 L301 560 L255 560 L255 629 Z M593 479 L523 312 Q536 268 536 234 Q536 166 503 109 Q470 52 413 19 Q356 -14 288 -14 Q220 -14 163 19 Q106 52 73 108.5 Q40 165 40 233 Q40 301 73 357.5 Q106 414 162.5 446.5 Q219 479 287 479 Q345 479 396 455 Q447 431 481 388 L515 503 L593 479 Z M287 406 Q240 406 202.5 383.5 Q165 361 143.5 322 Q122 283 122 235 Q122 185 143 145 Q164 105 201.5 82.5 Q239 60 286 60 Q334 60 372 82 Q410 104 431.5 143.5 Q453 183 453 233 Q453 282 431.5 321.5 Q410 361 372 383.5 Q334 406 287 406 Z " />
<glyph glyph-name="uni1EE1" unicode="&#x1ee1;" horiz-adv-x="574" d="M128 610 Q141 648 167 669 Q193 690 225 690 Q257 690 295 667 Q317 653 327.5 648.5 Q338 644 347 644 Q363 644 374.5 655 Q386 666 400 693 L447 657 Q432 618 405.5 596 Q379 574 347 574 Q334 574 320.5 579 Q307 584 284 598 Q241 621 223 621 Q206 621 194 609.5 Q182 598 174 572 L128 610 Z M593 479 L523 312 Q536 268 536 234 Q536 166 503 109 Q470 52 413 19 Q356 -14 288 -14 Q220 -14 163 19 Q106 52 73 108.5 Q40 165 40 233 Q40 301 73 357.5 Q106 414 162.5 446.5 Q219 479 287 479 Q345 479 396 455 Q447 431 481 388 L515 503 L593 479 Z M287 406 Q240 406 202.5 383.5 Q165 361 143.5 322 Q122 283 122 235 Q122 185 143 145 Q164 105 201.5 82.5 Q239 60 286 60 Q334 60 372 82 Q410 104 431.5 143.5 Q453 183 453 233 Q453 282 431.5 321.5 Q410 361 372 383.5 Q334 406 287 406 Z " />
<glyph glyph-name="uni1EE3" unicode="&#x1ee3;" horiz-adv-x="574" d="M593 479 L523 312 Q536 268 536 234 Q536 166 503 109 Q470 52 413 19 Q356 -14 288 -14 Q220 -14 163 19 Q106 52 73 108.5 Q40 165 40 233 Q40 301 73 357.5 Q106 414 162.5 446.5 Q219 479 287 479 Q345 479 396 455 Q447 431 481 388 L515 503 L593 479 Z M287 406 Q240 406 202.5 383.5 Q165 361 143.5 322 Q122 283 122 235 Q122 185 143 145 Q164 105 201.5 82.5 Q239 60 286 60 Q334 60 372 82 Q410 104 431.5 143.5 Q453 183 453 233 Q453 282 431.5 321.5 Q410 361 372 383.5 Q334 406 287 406 Z M287 -68 Q311 -68 328 -85 Q345 -102 345 -125 Q345 -149 328 -166 Q311 -183 287 -183 Q263 -183 246 -166 Q229 -149 229 -124 Q229 -101 246 -84.5 Q263 -68 287 -68 Z " />
<glyph glyph-name="uni1EE5" unicode="&#x1ee5;" horiz-adv-x="516" d="M444 469 L444 0 L364 0 L364 55 Q341 22 305 4 Q269 -14 225 -14 Q189 -14 157.5 -1.5 Q126 11 107 35 Q86 64 79 97.5 Q72 131 72 186 L72 469 L153 469 L153 203 Q153 163 157 138 Q161 113 171 95 Q190 58 246 58 Q312 58 338 98.5 Q364 139 364 227 L364 469 L444 469 Z M269 -68 Q293 -68 310 -85 Q327 -102 327 -125 Q327 -149 310 -166 Q293 -183 269 -183 Q245 -183 228 -166 Q211 -149 211 -124 Q211 -101 228 -84.5 Q245 -68 269 -68 Z " />
<glyph glyph-name="uni1EE7" unicode="&#x1ee7;" horiz-adv-x="516" d="M444 469 L444 0 L364 0 L364 55 Q341 22 305 4 Q269 -14 225 -14 Q189 -14 157.5 -1.5 Q126 11 107 35 Q86 64 79 97.5 Q72 131 72 186 L72 469 L153 469 L153 203 Q153 163 157 138 Q161 113 171 95 Q190 58 246 58 Q312 58 338 98.5 Q364 139 364 227 L364 469 L444 469 Z M231 629 Q255 635 266 635 Q303 640 316.5 649.5 Q330 659 330 679 Q330 701 314 713 Q298 725 270 725 Q253 725 247.5 723.5 Q242 722 226 714 L208 705 L193 741 Q224 753 246.5 758 Q269 763 292 763 Q340 763 370 738.5 Q400 714 400 675 Q400 642 376 622.5 Q352 603 312 603 Q290 603 277 605 L277 560 L231 560 L231 629 Z " />
<glyph glyph-name="uni1EE9" unicode="&#x1ee9;" horiz-adv-x="516" d="M605 476 L531 303 L473 320 L527 499 L605 476 Z M364 469 L444 469 L444 0 L364 0 L364 55 Q341 22 305 4 Q269 -14 225 -14 Q189 -14 157.5 -1.5 Q126 11 107 35 Q86 64 79 97.5 Q72 131 72 186 L72 469 L153 469 L153 203 Q153 163 157 138 Q161 113 171 95 Q190 58 246 58 Q312 58 338 98.5 Q364 139 364 227 L364 469 Z M260 550 L210 579 L329 741 L413 704 L260 550 Z " />
<glyph glyph-name="uni1EEB" unicode="&#x1eeb;" horiz-adv-x="516" d="M605 476 L531 303 L473 320 L527 499 L605 476 Z M364 469 L444 469 L444 0 L364 0 L364 55 Q341 22 305 4 Q269 -14 225 -14 Q189 -14 157.5 -1.5 Q126 11 107 35 Q86 64 79 97.5 Q72 131 72 186 L72 469 L153 469 L153 203 Q153 163 157 138 Q161 113 171 95 Q190 58 246 58 Q312 58 338 98.5 Q364 139 364 227 L364 469 Z M189 741 L308 579 L258 550 L105 704 L189 741 Z " />
<glyph glyph-name="uni1EED" unicode="&#x1eed;" horiz-adv-x="516" d="M605 476 L531 303 L473 320 L527 499 L605 476 Z M364 469 L444 469 L444 0 L364 0 L364 55 Q341 22 305 4 Q269 -14 225 -14 Q189 -14 157.5 -1.5 Q126 11 107 35 Q86 64 79 97.5 Q72 131 72 186 L72 469 L153 469 L153 203 Q153 163 157 138 Q161 113 171 95 Q190 58 246 58 Q312 58 338 98.5 Q364 139 364 227 L364 469 Z M226 629 Q250 635 261 635 Q298 640 311.5 649.5 Q325 659 325 679 Q325 701 309 713 Q293 725 265 725 Q248 725 242.5 723.5 Q237 722 221 714 L203 705 L188 741 Q219 753 241.5 758 Q264 763 287 763 Q335 763 365 738.5 Q395 714 395 675 Q395 642 371 622.5 Q347 603 307 603 Q285 603 272 605 L272 560 L226 560 L226 629 Z " />
<glyph glyph-name="uni1EEF" unicode="&#x1eef;" horiz-adv-x="516" d="M605 476 L531 303 L473 320 L527 499 L605 476 Z M364 469 L444 469 L444 0 L364 0 L364 55 Q341 22 305 4 Q269 -14 225 -14 Q189 -14 157.5 -1.5 Q126 11 107 35 Q86 64 79 97.5 Q72 131 72 186 L72 469 L153 469 L153 203 Q153 163 157 138 Q161 113 171 95 Q190 58 246 58 Q312 58 338 98.5 Q364 139 364 227 L364 469 Z M99 610 Q112 648 138 669 Q164 690 196 690 Q228 690 266 667 Q288 653 298.5 648.5 Q309 644 318 644 Q334 644 345.5 655 Q357 666 371 693 L418 657 Q404 619 377 596.5 Q350 574 319 574 Q305 574 291.5 579 Q278 584 255 598 Q213 621 194 621 Q177 621 165 609.5 Q153 598 146 572 L99 610 Z " />
<glyph glyph-name="uni1EF1" unicode="&#x1ef1;" horiz-adv-x="516" d="M605 476 L531 303 L473 320 L527 499 L605 476 Z M364 469 L444 469 L444 0 L364 0 L364 55 Q341 22 305 4 Q269 -14 225 -14 Q189 -14 157.5 -1.5 Q126 11 107 35 Q86 64 79 97.5 Q72 131 72 186 L72 469 L153 469 L153 203 Q153 163 157 138 Q161 113 171 95 Q190 58 246 58 Q312 58 338 98.5 Q364 139 364 227 L364 469 Z M269 -68 Q293 -68 310 -85 Q327 -102 327 -125 Q327 -149 310 -166 Q293 -183 269 -183 Q245 -183 228 -166 Q211 -149 211 -124 Q211 -101 228 -84.5 Q245 -68 269 -68 Z " />
<glyph glyph-name="uni1EF5" unicode="&#x1ef5;" horiz-adv-x="503" d="M94 469 L260 133 L411 469 L503 469 L156 -264 L66 -264 L217 44 L1 469 L94 469 Z M310 -142 Q333 -142 350 -159 Q367 -176 367 -200 Q367 -224 350 -241 Q333 -258 310 -258 Q286 -258 269 -241 Q252 -224 252 -199 Q252 -176 269 -159 Q286 -142 310 -142 Z " />
<glyph glyph-name="uni1EF7" unicode="&#x1ef7;" horiz-adv-x="503" d="M220 629 Q244 635 255 635 Q292 640 305.5 649.5 Q319 659 319 679 Q319 701 303 713 Q287 725 259 725 Q242 725 236.5 723.5 Q231 722 215 714 L197 705 L182 741 Q213 753 235.5 758 Q258 763 281 763 Q329 763 359 738.5 Q389 714 389 675 Q389 642 365 622.5 Q341 603 301 603 Q279 603 266 605 L266 560 L220 560 L220 629 Z M94 469 L260 133 L411 469 L503 469 L156 -264 L66 -264 L217 44 L1 469 L94 469 Z " />
<glyph glyph-name="uni1EF9" unicode="&#x1ef9;" horiz-adv-x="503" d="M93 610 Q106 648 131.5 669 Q157 690 189 690 Q222 690 259 667 Q283 653 292.5 648.5 Q302 644 312 644 Q328 644 339.5 655 Q351 666 365 693 L411 657 Q397 619 370 596.5 Q343 574 312 574 Q299 574 284.5 579 Q270 584 247 598 Q225 611 211 616 Q197 621 186 621 Q169 621 158 609.5 Q147 598 139 572 L93 610 Z M94 469 L260 133 L411 469 L503 469 L156 -264 L66 -264 L217 44 L1 469 L94 469 Z " />
<glyph glyph-name="uogonek" unicode="&#x173;" horiz-adv-x="516" d="M408 -140 Q423 -140 436 -137 Q449 -134 466 -125 L455 -188 Q440 -196 426.5 -199 Q413 -202 395 -202 Q354 -202 325.5 -176.5 Q297 -151 297 -114 Q297 -55 381 0 L364 0 L364 55 Q341 22 305 4 Q269 -14 225 -14 Q189 -14 157.5 -1.5 Q126 11 107 35 Q86 64 79 97.5 Q72 131 72 186 L72 469 L153 469 L153 203 Q153 163 157 138 Q161 113 171 95 Q190 58 246 58 Q312 58 338 98.5 Q364 139 364 227 L364 469 L444 469 L444 0 L445 0 Q403 -30 384 -53.5 Q365 -77 365 -98 Q365 -116 377 -128 Q389 -140 408 -140 Z " />
<glyph glyph-name="uring" unicode="&#x16f;" horiz-adv-x="516" d="M444 469 L444 0 L364 0 L364 55 Q341 22 305 4 Q269 -14 225 -14 Q189 -14 157.5 -1.5 Q126 11 107 35 Q86 64 79 97.5 Q72 131 72 186 L72 469 L153 469 L153 203 Q153 163 157 138 Q161 113 171 95 Q190 58 246 58 Q312 58 338 98.5 Q364 139 364 227 L364 469 L444 469 Z M259 751 Q302 751 332 721.5 Q362 692 362 650 Q362 608 332 577.5 Q302 547 260 547 Q217 547 187 577 Q157 607 157 651 Q157 692 187 721.5 Q217 751 259 751 Z M260 696 Q240 696 226 682.5 Q212 669 212 650 Q212 630 226 616 Q240 602 260 602 Q279 602 292.5 616 Q306 630 306 650 Q306 670 293 683 Q280 696 260 696 Z " />
<glyph glyph-name="utilde" unicode="&#x169;" horiz-adv-x="516" d="M444 469 L444 0 L364 0 L364 55 Q341 22 305 4 Q269 -14 225 -14 Q189 -14 157.5 -1.5 Q126 11 107 35 Q86 64 79 97.5 Q72 131 72 186 L72 469 L153 469 L153 203 Q153 163 157 138 Q161 113 171 95 Q190 58 246 58 Q312 58 338 98.5 Q364 139 364 227 L364 469 L444 469 Z M102 610 Q115 648 141 669 Q167 690 199 690 Q231 690 269 667 Q291 653 301.5 648.5 Q312 644 321 644 Q337 644 348.5 655 Q360 666 374 693 L421 657 Q407 619 380 596.5 Q353 574 322 574 Q308 574 294.5 579 Q281 584 258 598 Q216 621 197 621 Q180 621 168 609.5 Q156 598 149 572 L102 610 Z " />
<glyph glyph-name="v" unicode="v" horiz-adv-x="462" d="M232 154 L371 469 L461 469 L232 -32 L1 469 L92 469 L232 154 Z " />
<glyph glyph-name="w" unicode="w" horiz-adv-x="755" d="M231 151 L377 505 L523 151 L663 469 L754 469 L521 -33 L376 316 L232 -33 L1 469 L92 469 L231 151 Z " />
<glyph glyph-name="wacute" unicode="&#x1e83;" horiz-adv-x="755" d="M277 579 L395 741 L479 704 L327 550 L277 579 Z M231 151 L377 505 L523 151 L663 469 L754 469 L521 -33 L376 316 L232 -33 L1 469 L92 469 L231 151 Z " />
<glyph glyph-name="wcircumflex" unicode="&#x175;" horiz-adv-x="755" d="M377 741 L534 594 L476 550 L377 644 L278 550 L221 594 L377 741 Z M231 151 L377 505 L523 151 L663 469 L754 469 L521 -33 L376 316 L232 -33 L1 469 L92 469 L231 151 Z " />
<glyph glyph-name="wdieresis" unicode="&#x1e85;" horiz-adv-x="755" d="M280 689 Q304 689 320.5 672.5 Q337 656 337 633 Q337 610 320 593 Q303 576 280 576 Q257 576 240.5 592.5 Q224 609 224 634 Q224 656 240.5 672.5 Q257 689 280 689 Z M476 689 Q499 689 515.5 672.5 Q532 656 532 633 Q532 609 515.5 592.5 Q499 576 476 576 Q452 576 435.5 593 Q419 610 419 634 Q419 656 436 672.5 Q453 689 476 689 Z M231 151 L377 505 L523 151 L663 469 L754 469 L521 -33 L376 316 L232 -33 L1 469 L92 469 L231 151 Z " />
<glyph glyph-name="wgrave" unicode="&#x1e81;" horiz-adv-x="755" d="M479 579 L428 550 L277 704 L359 741 L479 579 Z M231 151 L377 505 L523 151 L663 469 L754 469 L521 -33 L376 316 L232 -33 L1 469 L92 469 L231 151 Z " />
<glyph glyph-name="x" unicode="x" horiz-adv-x="503" d="M32 469 L130 469 L252 310 L375 469 L475 469 L303 250 L497 0 L400 0 L252 191 L103 0 L2 0 L202 250 L32 469 Z " />
<glyph glyph-name="y" unicode="y" horiz-adv-x="503" d="M1 469 L94 469 L260 133 L411 469 L503 469 L156 -264 L66 -264 L217 44 L1 469 Z " />
<glyph glyph-name="yacute" unicode="&#xfd;" horiz-adv-x="507" d="M244 550 L194 579 L313 741 L397 704 L244 550 Z M3 469 L96 469 L262 133 L414 469 L505 469 L158 -264 L68 -264 L219 44 L3 469 Z " />
<glyph glyph-name="ycircumflex" unicode="&#x177;" horiz-adv-x="507" d="M253 741 L410 594 L353 550 L253 644 L155 550 L98 594 L253 741 Z M3 469 L96 469 L262 133 L414 469 L505 469 L158 -264 L68 -264 L219 44 L3 469 Z " />
<glyph glyph-name="ydieresis" unicode="&#xff;" horiz-adv-x="507" d="M156 689 Q180 689 196 672.5 Q212 656 212 633 Q212 610 195.5 593 Q179 576 156 576 Q132 576 115.5 592.5 Q99 609 99 634 Q99 656 116 672.5 Q133 689 156 689 Z M353 689 Q376 689 392.5 672.5 Q409 656 409 633 Q409 609 392.5 592.5 Q376 576 353 576 Q329 576 312.5 593 Q296 610 296 634 Q296 656 313 672.5 Q330 689 353 689 Z M3 469 L96 469 L262 133 L414 469 L505 469 L158 -264 L68 -264 L219 44 L3 469 Z " />
<glyph glyph-name="ygrave" unicode="&#x1ef3;" horiz-adv-x="503" d="M354 579 L303 550 L150 704 L234 741 L354 579 Z M94 469 L260 133 L411 469 L503 469 L156 -264 L66 -264 L217 44 L1 469 L94 469 Z " />
<glyph glyph-name="z" unicode="z" horiz-adv-x="508" d="M487 75 L487 0 L1 0 L340 394 L64 394 L64 469 L502 469 L164 75 L487 75 Z " />
<glyph glyph-name="zacute" unicode="&#x17a;" horiz-adv-x="507" d="M267 550 L217 579 L336 741 L419 704 L267 550 Z M489 75 L489 0 L3 0 L342 394 L67 394 L67 469 L504 469 L166 75 L489 75 Z " />
<glyph glyph-name="zcaron" unicode="&#x17e;" horiz-adv-x="507" d="M272 550 L115 697 L174 741 L272 649 L372 741 L428 697 L272 550 Z M489 75 L489 0 L3 0 L342 394 L67 394 L67 469 L504 469 L166 75 L489 75 Z " />
<glyph glyph-name="zdotaccent" unicode="&#x17c;" horiz-adv-x="507" d="M276 689 Q299 689 316 672 Q333 655 333 632 Q333 608 316 591 Q299 574 276 574 Q252 574 235 591 Q218 608 218 633 Q218 656 235 672.5 Q252 689 276 689 Z M489 75 L489 0 L3 0 L342 394 L67 394 L67 469 L504 469 L166 75 L489 75 Z " />
<glyph glyph-name="ff" unicode="&#xfb00;" horiz-adv-x="544" d="M79 0 L79 394 L35 394 L35 469 L79 469 L79 669 Q79 752 106 788 Q125 811 154 824 Q183 837 218 837 Q246 837 278 827 L278 746 Q247 757 224 757 Q198 757 184 747.5 Q170 738 164.5 715.5 Q159 693 159 650 L159 469 L262 469 L262 394 L159 394 L159 0 L79 0 Z M350 0 L350 394 L305 394 L305 469 L350 469 L350 669 Q350 752 377 788 Q396 811 425 824 Q454 837 489 837 Q505 837 517 835 Q529 833 548 827 L548 746 Q519 757 495 757 Q469 757 455.5 747.5 Q442 738 436.5 715.5 Q431 693 431 650 L431 469 L548 469 L548 394 L431 394 L431 0 L350 0 Z " />
<glyph glyph-name="ffi" unicode="&#xfb03;" horiz-adv-x="773" d="M79 0 L79 394 L35 394 L35 469 L79 469 L79 669 Q79 752 106 788 Q125 811 154 824 Q183 837 218 837 Q246 837 278 827 L278 746 Q247 757 224 757 Q198 757 184 747.5 Q170 738 164.5 715.5 Q159 693 159 650 L159 469 L262 469 L262 394 L159 394 L159 0 L79 0 Z M350 0 L350 394 L305 394 L305 469 L350 469 L350 669 Q350 752 377 788 Q396 811 425 824 Q454 837 489 837 Q505 837 517 835 Q529 833 548 827 L548 746 Q519 757 495 757 Q469 757 455.5 747.5 Q442 738 436.5 715.5 Q431 693 431 650 L431 469 L548 469 L548 394 L431 394 L431 0 L350 0 Z M661 704 Q685 704 702 687 Q719 670 719 646 Q719 623 702 606 Q685 589 661 589 Q637 589 620 606 Q603 623 603 647 Q603 670 620 687 Q637 704 661 704 Z M620 0 L620 469 L701 469 L701 0 L620 0 Z " />
<glyph glyph-name="ffl" unicode="&#xfb04;" horiz-adv-x="773" d="M79 0 L79 394 L35 394 L35 469 L79 469 L79 669 Q79 752 106 788 Q125 812 154 824.5 Q183 837 218 837 Q246 837 278 827 L278 746 Q247 757 224 757 Q198 757 184 747.5 Q170 738 164.5 715.5 Q159 693 159 650 L159 469 L262 469 L262 394 L159 394 L159 0 L79 0 Z M350 0 L350 394 L305 394 L305 469 L350 469 L350 669 Q350 752 377 788 Q396 811 425 824 Q454 837 489 837 Q505 837 517 835 Q529 833 548 827 L548 746 Q519 757 495 757 Q469 757 455.5 747.5 Q442 738 436.5 715.5 Q431 693 431 650 L431 469 L548 469 L548 394 L431 394 L431 0 L350 0 Z M620 0 L620 824 L701 824 L701 0 L620 0 Z " />
<glyph glyph-name="fi" unicode="&#xfb01;" horiz-adv-x="503" d="M79 0 L79 394 L35 394 L35 469 L79 469 L79 669 Q79 752 106 788 Q125 812 154 824.5 Q183 837 219 837 Q235 837 247 835 Q259 833 278 827 L278 746 Q261 753 249.5 755 Q238 757 224 757 Q198 757 184 747.5 Q170 738 164.5 715.5 Q159 693 159 650 L159 469 L278 469 L278 394 L159 394 L159 0 L79 0 Z M390 704 Q413 704 430 687 Q447 670 447 646 Q447 623 430 606 Q413 589 390 589 Q366 589 349 606 Q332 623 332 647 Q332 670 349 687 Q366 704 390 704 Z M350 0 L350 469 L431 469 L431 0 L350 0 Z " />
<glyph glyph-name="fl" unicode="&#xfb02;" horiz-adv-x="501" d="M79 0 L79 394 L35 394 L35 469 L79 469 L79 669 Q79 752 106 788 Q125 812 154 824.5 Q183 837 219 837 Q235 837 247 835 Q259 833 278 827 L278 746 Q261 753 249.5 755 Q238 757 224 757 Q198 757 184 747.5 Q170 738 164.5 715.5 Q159 693 159 650 L159 469 L278 469 L278 394 L159 394 L159 0 L79 0 Z M350 0 L350 824 L431 824 L431 0 L350 0 Z " />
<glyph glyph-name="ordfeminine" unicode="&#xaa;" horiz-adv-x="392" d="M333 750 L333 469 L279 469 L279 503 Q239 461 182 461 Q120 461 80 503 Q40 545 40 609 Q40 673 79.5 715 Q119 757 180 757 Q239 757 279 714 L279 750 L333 750 Z M188 710 Q148 710 121 681.5 Q94 653 94 611 Q94 565 120.5 536 Q147 507 188 507 Q229 507 256 535.5 Q283 564 283 609 Q283 654 256.5 682 Q230 710 188 710 Z " />
<glyph glyph-name="ordmasculine" unicode="&#xba;" horiz-adv-x="393" d="M197 757 Q240 757 275 737.5 Q310 718 330.5 683.5 Q351 649 351 608 Q351 566 330.5 532 Q310 498 274 478.5 Q238 459 194 459 Q152 459 117 479 Q82 499 61.5 533.5 Q41 568 41 610 Q41 650 62 684 Q83 718 119 737.5 Q155 757 197 757 Z M195 711 Q152 711 123.5 682 Q95 653 95 610 Q95 564 123 535 Q151 506 194 506 Q240 506 268.5 534.5 Q297 563 297 608 Q297 653 268.5 682 Q240 711 195 711 Z " />
<glyph glyph-name="uni0410" unicode="&#x410;" horiz-adv-x="686" d="M182 214 L92 0 L0 0 L347 790 L686 0 L593 0 L504 214 L182 214 Z M346 593 L217 292 L471 292 L346 593 Z " />
<glyph glyph-name="uni0411" unicode="&#x411;" horiz-adv-x="607" d="M504 754 L504 676 L183 676 L183 445 L310 445 Q375 445 418.5 433.5 Q462 422 490 397 Q524 368 542 323.5 Q560 279 560 225 Q560 164 537.5 115.5 Q515 67 475 40 Q446 19 404 9.5 Q362 0 303 0 L98 0 L98 754 L504 754 Z M287 75 Q350 75 384 84 Q418 93 438 115 Q456 134 466.5 163 Q477 192 477 223 Q477 258 464.5 289 Q452 320 431 339 Q410 357 377 364.5 Q344 372 287 372 L183 372 L183 75 L287 75 Z " />
<glyph glyph-name="uni0412" unicode="&#x412;" horiz-adv-x="583" d="M227 754 Q287 754 327 743 Q367 732 398 707 Q430 680 449 638 Q468 596 468 550 Q468 502 451 469 Q434 436 393 403 Q421 395 438.5 386 Q456 377 471 363 Q501 337 518.5 296 Q536 255 536 211 Q536 164 516 123 Q496 82 459 52 Q424 23 383.5 11.5 Q343 0 279 0 L90 0 L90 754 L227 754 Z M238 421 Q281 421 303.5 427.5 Q326 434 346 451 Q385 487 385 548 Q385 579 375 605 Q365 631 346 647 Q328 663 303.5 669.5 Q279 676 241 676 L175 676 L175 421 L238 421 Z M271 78 Q322 78 350.5 85.5 Q379 93 402 112 Q426 131 438.5 157 Q451 183 451 214 Q451 249 434 279.5 Q417 310 389 327 Q366 340 337.5 345 Q309 350 260 350 L175 350 L175 78 L271 78 Z " />
<glyph glyph-name="uni0413" unicode="&#x413;" horiz-adv-x="528" d="M502 754 L502 676 L183 676 L183 0 L98 0 L98 754 L502 754 Z " />
<glyph glyph-name="uni0403" unicode="&#x403;" horiz-adv-x="528" d="M234 850 L370 997 L445 946 L283 814 L234 850 Z M502 754 L502 676 L183 676 L183 0 L98 0 L98 754 L502 754 Z " />
<glyph glyph-name="uni0490" unicode="&#x490;" horiz-adv-x="528" d="M423 754 L423 827 L502 827 L502 676 L183 676 L183 0 L98 0 L98 754 L423 754 Z " />
<glyph glyph-name="uni0414" unicode="&#x414;" horiz-adv-x="707" d="M10 78 Q44 74 80 104.5 Q116 135 130 180 Q147 223 164 394.5 Q181 566 185 754 L600 754 L600 78 L664 78 L664 -145 L585 -145 L585 0 L56 0 L56 -145 L-23 -145 L-23 78 L10 78 Z M515 676 L268 676 Q264 581 255.5 471.5 Q247 362 238 288 Q229 225 218.5 189 Q208 153 190.5 128 Q173 103 141 78 L515 78 L515 676 Z " />
<glyph glyph-name="uni0415" unicode="&#x415;" horiz-adv-x="530" d="M175 451 L472 451 L472 373 L175 373 L175 78 L480 78 L480 0 L90 0 L90 754 L480 754 L480 676 L175 676 L175 451 Z " />
<glyph glyph-name="uni0400" unicode="&#x400;" horiz-adv-x="530" d="M349 850 L301 814 L139 946 L215 997 L349 850 Z M175 451 L472 451 L472 373 L175 373 L175 78 L480 78 L480 0 L90 0 L90 754 L480 754 L480 676 L175 676 L175 451 Z " />
<glyph glyph-name="uni0401" unicode="&#x401;" horiz-adv-x="530" d="M177 959 Q201 959 218 942 Q235 925 235 902 Q235 878 218 861 Q201 844 177 844 Q154 844 137 861 Q120 878 120 903 Q120 926 137 942.5 Q154 959 177 959 Z M392 959 Q416 959 433 942 Q450 925 450 902 Q450 878 433 861 Q416 844 392 844 Q368 844 351 861 Q334 878 334 903 Q334 926 351 942.5 Q368 959 392 959 Z M175 451 L472 451 L472 373 L175 373 L175 78 L480 78 L480 0 L90 0 L90 754 L480 754 L480 676 L175 676 L175 451 Z " />
<glyph glyph-name="uni0416" unicode="&#x416;" horiz-adv-x="983" d="M412 351 L121 0 L10 0 L336 385 L33 754 L137 754 L403 426 L450 426 L450 754 L534 754 L534 426 L580 426 L846 754 L950 754 L647 385 L973 0 L862 0 L571 351 L534 351 L534 0 L450 0 L450 351 L412 351 Z " />
<glyph glyph-name="uni0417" unicode="&#x417;" horiz-adv-x="623" d="M242 433 Q346 433 394 453 Q431 468 450 495.5 Q469 523 469 559 Q469 618 414 651.5 Q359 685 262 685 Q209 685 165.5 675.5 Q122 666 68 642 L68 733 Q160 767 271 767 Q358 767 422.5 743 Q487 719 521.5 675 Q556 631 556 571 Q556 534 540.5 500.5 Q525 467 498 442 Q481 426 462 417 Q443 408 409 398 Q491 372 529.5 326 Q568 280 568 207 Q568 158 548.5 115.5 Q529 73 493 45 Q418 -12 272 -12 Q145 -12 50 25 L50 122 Q148 70 268 70 Q372 70 426 106 Q480 142 480 211 Q480 286 420.5 322.5 Q361 359 241 359 L180 359 L180 433 L242 433 Z " />
<glyph glyph-name="uni0418" unicode="&#x418;" horiz-adv-x="773" d="M181 754 L181 182 L675 790 L675 0 L592 0 L592 563 L98 -44 L98 754 L181 754 Z " />
<glyph glyph-name="uni0419" unicode="&#x419;" horiz-adv-x="773" d="M303 973 Q313 933 332.5 915 Q352 897 386 897 Q454 897 472 973 L544 973 Q536 903 494.5 864.5 Q453 826 388 826 Q349 826 317 840.5 Q285 855 263 881 Q248 901 241 920.5 Q234 940 231 973 L303 973 Z M181 754 L181 182 L675 790 L675 0 L592 0 L592 563 L98 -44 L98 754 L181 754 Z " />
<glyph glyph-name="uni040D" unicode="&#x40d;" horiz-adv-x="773" d="M492 850 L443 814 L281 946 L357 997 L492 850 Z M181 754 L181 182 L675 790 L675 0 L592 0 L592 563 L98 -44 L98 754 L181 754 Z " />
<glyph glyph-name="uni041A" unicode="&#x41a;" horiz-adv-x="646" d="M183 754 L183 395 L508 754 L614 754 L272 386 L636 0 L524 0 L183 371 L183 0 L98 0 L98 754 L183 754 Z " />
<glyph glyph-name="uni040C" unicode="&#x40c;" horiz-adv-x="646" d="M263 850 L398 997 L473 946 L312 814 L263 850 Z M183 754 L183 395 L508 754 L614 754 L272 386 L636 0 L524 0 L183 371 L183 0 L98 0 L98 754 L183 754 Z " />
<glyph glyph-name="uni041B" unicode="&#x41b;" horiz-adv-x="684" d="M585 0 L501 0 L501 676 L262 676 L261 653 Q253 480 243 377.5 Q233 275 219 208 Q197 99 151 48.5 Q105 -2 28 -2 Q10 -2 -6 0 L-6 80 Q17 77 23 77 Q98 77 128 189 Q146 254 160.5 409.5 Q175 565 180 754 L585 754 L585 0 Z " />
<glyph glyph-name="uni041C" unicode="&#x41c;" horiz-adv-x="936" d="M180 796 L469 159 L765 797 L881 0 L796 0 L725 524 L469 -32 L216 524 L141 0 L55 0 L180 796 Z " />
<glyph glyph-name="uni041D" unicode="&#x41d;" horiz-adv-x="734" d="M559 754 L644 754 L644 0 L559 0 L559 368 L175 368 L175 0 L90 0 L90 754 L175 754 L175 446 L559 446 L559 754 Z " />
<glyph glyph-name="uni041E" unicode="&#x41e;" horiz-adv-x="879" d="M441 766 Q546 766 636 713 Q726 660 779 570.5 Q832 481 832 376 Q832 270 778.5 180.5 Q725 91 634 38.5 Q543 -14 436 -14 Q356 -14 278 21.5 Q200 57 145 119 Q47 228 47 381 Q47 483 101 572 Q155 661 245.5 713.5 Q336 766 441 766 Z M440 687 Q357 687 286 645.5 Q215 604 173.5 533.5 Q132 463 132 381 Q132 242 228 151 Q271 111 326 88.5 Q381 66 437 66 Q522 66 593 107.5 Q664 149 705.5 220 Q747 291 747 376 Q747 461 706 532 Q665 603 594.5 645 Q524 687 440 687 Z " />
<glyph glyph-name="uni041F" unicode="&#x41f;" horiz-adv-x="765" d="M668 754 L668 0 L583 0 L583 676 L183 676 L183 0 L98 0 L98 754 L668 754 Z " />
<glyph glyph-name="uni0420" unicode="&#x420;" horiz-adv-x="502" d="M90 0 L90 754 L227 754 Q297 754 340.5 742 Q384 730 417 701 Q450 672 468.5 630.5 Q487 589 487 542 Q487 443 423.5 386.5 Q360 330 249 330 L175 330 L175 0 L90 0 Z M243 407 Q320 407 362.5 442.5 Q405 478 405 542 Q405 573 394 599 Q383 625 363 642 Q341 660 312 668 Q283 676 237 676 L175 676 L175 407 L243 407 Z " />
<glyph glyph-name="uni0421" unicode="&#x421;" horiz-adv-x="730" d="M673 588 Q618 640 563.5 663.5 Q509 687 445 687 Q363 687 293.5 644.5 Q224 602 182.5 530 Q141 458 141 373 Q141 290 182.5 219.5 Q224 149 294 107.5 Q364 66 446 66 Q509 66 564 89.5 Q619 113 673 164 L673 60 Q618 22 563 4 Q508 -14 446 -14 Q341 -14 251.5 38.5 Q162 91 109 180.5 Q56 270 56 374 Q56 480 109.5 570 Q163 660 253.5 713 Q344 766 451 766 Q513 766 564.5 749 Q616 732 673 692 L673 588 Z " />
<glyph glyph-name="uni0422" unicode="&#x422;" horiz-adv-x="464" d="M190 0 L190 676 L8 676 L8 754 L458 754 L458 676 L275 676 L275 0 L190 0 Z " />
<glyph glyph-name="uni0423" unicode="&#x423;" horiz-adv-x="600" d="M12 754 L111 754 L305 395 L503 754 L602 754 L167 0 L78 0 L260 307 L12 754 Z " />
<glyph glyph-name="uni040E" unicode="&#x40e;" horiz-adv-x="600" d="M220 973 Q230 933 250 915 Q270 897 304 897 Q338 897 358.5 916 Q379 935 389 973 L461 973 Q453 903 411.5 864.5 Q370 826 304 826 Q266 826 233.5 840.5 Q201 855 180 881 Q164 901 157 920.5 Q150 940 148 973 L220 973 Z M12 754 L111 754 L305 395 L503 754 L602 754 L167 0 L78 0 L260 307 L12 754 Z " />
<glyph glyph-name="uni0424" unicode="&#x424;" horiz-adv-x="993" d="M455 50 Q321 56 233 99 Q149 142 103.5 213.5 Q58 285 58 375 Q58 472 111 547.5 Q164 623 259 662 Q337 695 455 701 L455 814 L534 814 L534 701 Q675 694 759 651 Q843 608 889 536.5 Q935 465 935 375 Q935 278 881.5 202.5 Q828 127 733 88 Q652 56 534 50 L534 -61 L455 -61 L455 50 Z M455 618 Q397 615 357.5 606.5 Q318 598 284 583 Q216 551 179 497 Q142 443 142 375 Q142 302 184.5 245.5 Q227 189 304 159 Q359 139 455 133 L455 618 Z M534 132 Q595 136 635 144 Q675 152 709 168 Q777 200 813.5 253.5 Q850 307 850 375 Q850 448 807 505.5 Q764 563 688 592 Q633 614 534 618 L534 132 Z " />
<glyph glyph-name="uni0425" unicode="&#x425;" horiz-adv-x="553" d="M123 754 L279 470 L438 754 L534 754 L327 390 L545 0 L451 0 L278 310 L103 0 L8 0 L231 390 L27 754 L123 754 Z " />
<glyph glyph-name="uni0427" unicode="&#x427;" horiz-adv-x="679" d="M496 270 Q424 258 394 254.5 Q364 251 328 251 Q249 251 189.5 272 Q130 293 97 333 Q72 364 61 409.5 Q50 455 50 522 L50 754 L134 754 L134 541 Q134 473 143 436.5 Q152 400 175 377 Q198 354 240.5 342 Q283 330 339 330 Q376 330 412.5 335.5 Q449 341 496 354 L496 754 L581 754 L581 0 L496 0 L496 270 Z " />
<glyph glyph-name="uni0426" unicode="&#x426;" horiz-adv-x="763" d="M183 754 L183 78 L572 78 L572 754 L657 754 L657 78 L721 78 L721 -145 L642 -145 L642 0 L98 0 L98 754 L183 754 Z " />
<glyph glyph-name="uni0428" unicode="&#x428;" horiz-adv-x="1038" d="M183 754 L183 78 L477 78 L477 754 L562 754 L562 78 L855 78 L855 754 L940 754 L940 0 L98 0 L98 754 L183 754 Z " />
<glyph glyph-name="uni0429" unicode="&#x429;" horiz-adv-x="1046" d="M183 754 L183 78 L477 78 L477 754 L562 754 L562 78 L855 78 L855 754 L940 754 L940 78 L1005 78 L1005 -145 L925 -145 L925 0 L98 0 L98 754 L183 754 Z " />
<glyph glyph-name="uni040F" unicode="&#x40f;" horiz-adv-x="760" d="M183 754 L183 78 L572 78 L572 754 L657 754 L657 0 L417 0 L417 -145 L338 -145 L338 0 L98 0 L98 754 L183 754 Z " />
<glyph glyph-name="uni042C" unicode="&#x42c;" horiz-adv-x="605" d="M181 754 L181 450 L310 450 Q373 450 417 438 Q461 426 490 400 Q523 371 541 326.5 Q559 282 559 227 Q559 165 537 116.5 Q515 68 475 40 Q445 19 403.5 9.5 Q362 0 303 0 L98 0 L98 754 L181 754 Z M286 75 Q349 75 383 84 Q417 93 438 115 Q455 135 465.5 164.5 Q476 194 476 225 Q476 261 463.5 293 Q451 325 429 344 Q409 361 376.5 368.5 Q344 376 286 376 L181 376 L181 75 L286 75 Z " />
<glyph glyph-name="uni042A" unicode="&#x42a;" horiz-adv-x="733" d="M3 676 L3 754 L310 754 L310 450 L438 450 Q502 450 546 438 Q590 426 619 400 Q652 371 670 326.5 Q688 282 688 227 Q688 165 666 116.5 Q644 68 603 40 Q574 19 532.5 9.5 Q491 0 432 0 L227 0 L227 676 L3 676 Z M415 75 Q478 75 512 84 Q546 93 567 115 Q584 135 594.5 164.5 Q605 194 605 225 Q605 260 592 292.5 Q579 325 558 344 Q538 361 505.5 368.5 Q473 376 415 376 L310 376 L310 75 L415 75 Z " />
<glyph glyph-name="uni042B" unicode="&#x42b;" horiz-adv-x="847" d="M181 754 L181 450 L310 450 Q373 450 417 438 Q461 426 490 400 Q523 371 541 326.5 Q559 282 559 227 Q559 165 537 116.5 Q515 68 475 40 Q445 19 403.5 9.5 Q362 0 303 0 L98 0 L98 754 L181 754 Z M749 754 L749 0 L663 0 L663 754 L749 754 Z M286 75 Q349 75 383 84 Q417 93 438 115 Q455 135 465.5 164.5 Q476 194 476 225 Q476 261 463.5 293 Q451 325 429 344 Q409 361 376.5 368.5 Q344 376 286 376 L181 376 L181 75 L286 75 Z " />
<glyph glyph-name="uni0409" unicode="&#x409;" horiz-adv-x="1007" d="M262 676 L261 653 Q253 481 243.5 378.5 Q234 276 220 208 Q198 99 152 48.5 Q106 -2 29 -2 Q10 -2 -6 0 L-6 80 Q17 77 23 77 Q98 77 129 188 Q147 253 161 409 Q175 565 180 754 L584 754 L584 450 L713 450 Q776 450 820 438 Q864 426 894 400 Q927 372 945 326.5 Q963 281 963 227 Q963 166 940.5 117 Q918 68 878 40 Q848 19 806.5 9.5 Q765 0 706 0 L502 0 L502 676 L262 676 Z M689 75 Q752 75 786.5 84 Q821 93 842 115 Q859 135 869 164.5 Q879 194 879 225 Q879 260 866.5 292.5 Q854 325 833 344 Q814 361 780.5 368.5 Q747 376 689 376 L584 376 L584 75 L689 75 Z " />
<glyph glyph-name="uni040A" unicode="&#x40a;" horiz-adv-x="1097" d="M183 754 L183 450 L592 450 L592 754 L675 754 L675 450 L803 450 Q867 450 911 438 Q955 426 984 400 Q1017 371 1035 326.5 Q1053 282 1053 227 Q1053 165 1031 116.5 Q1009 68 968 40 Q939 19 897.5 9.5 Q856 0 797 0 L592 0 L592 375 L183 375 L183 0 L98 0 L98 754 L183 754 Z M780 75 Q843 75 877 84 Q911 93 932 116 Q949 135 959.5 164.5 Q970 194 970 226 Q970 260 957 292.5 Q944 325 923 344 Q903 361 871 368.5 Q839 376 780 376 L675 376 L675 75 L780 75 Z " />
<glyph glyph-name="uni0405" unicode="&#x405;" horiz-adv-x="584" d="M434 606 Q405 652 376.5 669.5 Q348 687 304 687 Q251 687 215.5 653.5 Q180 620 180 571 Q180 521 227 489 Q247 476 272 464 Q297 452 357 426 Q448 386 488 337.5 Q528 289 528 218 Q528 154 496.5 101 Q465 48 410 17 Q355 -14 288 -14 Q199 -14 138.5 37 Q78 88 56 181 L138 203 Q145 174 151.5 158 Q158 142 168 127 Q188 98 221 82 Q254 66 292 66 Q333 66 368 85.5 Q403 105 423 139 Q443 173 443 214 Q443 283 381 321 Q360 335 334.5 347 Q309 359 247 386 Q166 423 130.5 466.5 Q95 510 95 572 Q95 627 122.5 671 Q150 715 198 740.5 Q246 766 306 766 Q432 766 501 649 L434 606 Z " />
<glyph glyph-name="uni0404" unicode="&#x404;" horiz-adv-x="753" d="M147 348 Q155 285 164.5 255 Q174 225 195 195 Q239 134 303.5 101.5 Q368 69 447 69 Q599 69 705 176 L705 72 Q651 30 583.5 8 Q516 -14 441 -14 Q330 -14 243 36 Q156 86 107 174.5 Q58 263 58 375 Q58 489 107 578 Q156 667 244 716.5 Q332 766 444 766 Q512 766 568.5 749.5 Q625 733 681 696 L681 594 Q627 640 570.5 661.5 Q514 683 446 683 Q362 683 293 645 Q224 607 183 538 Q170 517 163.5 495.5 Q157 474 148 424 L548 424 L548 348 L147 348 Z " />
<glyph glyph-name="uni042D" unicode="&#x42d;" horiz-adv-x="753" d="M605 424 Q594 482 585.5 505.5 Q577 529 557 556 Q513 618 449 650.5 Q385 683 306 683 Q239 683 182.5 661.5 Q126 640 72 594 L72 696 Q129 733 184.5 749.5 Q240 766 308 766 Q421 766 509 716 Q597 666 646 577 Q695 488 695 374 Q695 262 646 174 Q597 86 510 36 Q423 -14 312 -14 Q237 -14 172 7 Q107 28 47 72 L47 176 Q104 121 166 95 Q228 69 305 69 Q389 69 458.5 107 Q528 145 568 214 Q583 237 591 265.5 Q599 294 606 348 L205 348 L205 424 L605 424 Z " />
<glyph glyph-name="uni0406" unicode="&#x406;" horiz-adv-x="280" d="M183 754 L183 0 L98 0 L98 754 L183 754 Z " />
<glyph glyph-name="uni0407" unicode="&#x407;" horiz-adv-x="266" d="M25 959 Q48 959 65 942 Q82 925 82 902 Q82 878 65 861 Q48 844 25 844 Q1 844 -16 861 Q-33 878 -33 903 Q-33 926 -16 942.5 Q1 959 25 959 Z M240 959 Q263 959 280 942 Q297 925 297 902 Q297 878 280 861 Q263 844 240 844 Q216 844 199 861 Q182 878 182 903 Q182 926 199 942.5 Q216 959 240 959 Z M90 0 L90 754 L175 754 L175 0 L90 0 Z " />
</font>
</svg>
